<?xml version="1.0" encoding="utf-8"?>
<!-- Generator: Adobe Illustrator 27.5.0, SVG Export Plug-In . SVG Version: 6.00 Build 0)  -->
<svg version="1.1" xmlns="http://www.w3.org/2000/svg" xmlns:xlink="http://www.w3.org/1999/xlink" x="0px" y="0px"
	 viewBox="0 0 500 500" style="enable-background:new 0 0 500 500;" xml:space="preserve">
<g id="Background_Simple">
	<g>
		<path style="fill:#92E3A9;" d="M333.978,34.582c0,0-77.397-27.521-153.371,16.294C104.634,94.692,66.299,181.67,33.38,251.343
			C0.461,321.016,19.409,391.885,77.405,424.2c57.996,32.314,97.432-15.321,178.791-17.641
			c81.36-2.319,103.241,9.312,170.752-36.649c67.512-45.961,79.716-154.505,26.46-234.82
			C400.151,54.775,333.978,34.582,333.978,34.582z"/>
		<path style="opacity:0.7;fill:#FFFFFF;" d="M333.978,34.582c0,0-77.397-27.521-153.371,16.294
			C104.634,94.692,66.299,181.67,33.38,251.343C0.461,321.016,19.409,391.885,77.405,424.2
			c57.996,32.314,97.432-15.321,178.791-17.641c81.36-2.319,103.241,9.312,170.752-36.649
			c67.512-45.961,79.716-154.505,26.46-234.82C400.151,54.775,333.978,34.582,333.978,34.582z"/>
	</g>
</g>
<g id="Plants">
	<g>
		<g>
			<g>
				<path style="fill:#92E3A9;" d="M40.929,283.304c0,0,1.865,3.523,0.207,6.838c-1.658,3.315-3.73,6.631-2.487,8.289
					c1.243,1.658,4.973,3.73,4.559,7.253c-0.415,3.523-5.388,10.568-2.279,14.505c3.108,3.937,8.289,3.73,8.496,8.081
					c0.207,4.352-4.973,7.874-3.523,11.811c1.451,3.937,9.946,4.766,9.946,7.46c0,2.694-3.315,5.595-0.622,8.496
					c2.694,2.901,15.727,10.469,17.592,7.361c1.865-3.108,5.617-11.713,3.148-23.918c-0.415-2.051-3.333-2.507-3.748-5.408
					c-0.414-2.901,0.829-8.081-1.243-10.982c-2.072-2.901-8.703-3.937-9.118-6.216c-0.414-2.28,2.486-7.874-0.414-11.397
					c-2.901-3.523-9.739-5.18-9.739-7.46c0-2.279,2.072-5.18-0.829-8.289C47.975,286.62,40.929,283.304,40.929,283.304z"/>
				<path style="fill:none;stroke:#263238;stroke-linecap:round;stroke-linejoin:round;stroke-miterlimit:10;" d="M50.854,307.723
					c4.313,13.026,11.872,30.672,14.941,39.197c3.73,10.361,6.972,17.861,8.63,28.222s2.56,79.751,2.56,79.751"/>
				<path style="fill:none;stroke:#263238;stroke-linecap:round;stroke-linejoin:round;stroke-miterlimit:10;" d="M41.965,284.548
					c0,0,3.523,2.901,6.631,15.541c0.2,0.815,0.431,1.676,0.688,2.577"/>
			</g>
		</g>
		<g>
			<g>
				<path style="fill:#92E3A9;" d="M105.702,306.913c0,0-1.493,2.819-0.166,5.473c1.327,2.653,2.985,5.307,1.99,6.633
					s-3.98,2.985-3.648,5.804c0.332,2.819,4.312,8.457,1.824,11.608c-2.488,3.151-6.633,2.985-6.799,6.467
					c-0.166,3.483,3.98,6.302,2.819,9.452c-1.161,3.151-7.96,3.814-7.96,5.97c0,2.156,2.653,4.478,0.498,6.799
					c-2.156,2.322-12.586,8.379-14.078,5.891c-1.492-2.488-4.495-9.374-2.519-19.141c0.332-1.641,2.668-2.006,2.999-4.328
					c0.332-2.322-0.663-6.467,0.995-8.789c1.658-2.322,6.965-3.151,7.297-4.975c0.332-1.824-1.99-6.302,0.332-9.121
					c2.322-2.819,7.794-4.146,7.794-5.97c0-1.824-1.658-4.146,0.663-6.633C100.064,309.566,105.702,306.913,105.702,306.913z"/>
				<path style="fill:none;stroke:#263238;stroke-linecap:round;stroke-linejoin:round;stroke-miterlimit:10;" d="M97.76,326.454
					c-3.452,10.425-9.501,24.546-11.958,31.369c-2.985,8.292-5.58,14.294-6.907,22.586c-1.327,8.292-2.049,63.824-2.049,63.824"/>
				<path style="fill:none;stroke:#263238;stroke-linecap:round;stroke-linejoin:round;stroke-miterlimit:10;" d="M104.873,307.908
					c0,0-2.819,2.322-5.307,12.438c-0.16,0.652-0.345,1.341-0.55,2.063"/>
			</g>
		</g>
		<g>
			<g>
				<path style="fill:#92E3A9;" d="M48.677,353.868c0,0,1.247,2.355,0.139,4.572s-2.494,4.434-1.663,5.542
					c0.831,1.109,3.325,2.494,3.048,4.849c-0.277,2.355-3.602,7.066-1.524,9.699c2.078,2.633,5.542,2.494,5.681,5.404
					c0.139,2.91-3.325,5.265-2.355,7.897c0.97,2.633,6.65,3.187,6.65,4.988c0,1.801-2.217,3.741-0.416,5.681
					c1.801,1.94,10.515,7,11.762,4.922c1.247-2.078,3.756-7.831,2.105-15.992c-0.277-1.371-2.229-1.676-2.506-3.616
					c-0.277-1.94,0.554-5.404-0.831-7.343c-1.385-1.94-5.819-2.633-6.096-4.156c-0.277-1.524,1.663-5.265-0.277-7.62
					c-1.94-2.355-6.512-3.464-6.512-4.988c0-1.524,1.385-3.464-0.554-5.542C53.388,356.085,48.677,353.868,48.677,353.868z"/>
				<path style="fill:none;stroke:#263238;stroke-linecap:round;stroke-linejoin:round;stroke-miterlimit:10;" d="M55.313,370.195
					c2.884,8.71,7.938,20.508,9.99,26.208c2.494,6.928,4.662,11.942,5.77,18.87c1.108,6.928,1.711,32.641,1.711,32.641"/>
				<path style="fill:none;stroke:#263238;stroke-linecap:round;stroke-linejoin:round;stroke-miterlimit:10;" d="M49.37,354.699
					c0,0,2.355,1.94,4.434,10.391c0.134,0.545,0.288,1.121,0.46,1.723"/>
			</g>
		</g>
		<g>
			<g>
				<path style="fill:#92E3A9;" d="M120.044,350.418c0,0-1.753,2.007-1.181,4.419c0.572,2.412,1.413,4.887,0.35,5.775
					c-1.063,0.889-3.808,1.667-4.077,4.023c-0.269,2.356,1.89,7.703-0.736,9.79c-2.626,2.087-5.966,1.159-6.767,3.96
					c-0.801,2.801,2.032,5.886,0.486,8.227s-7.203,1.58-7.616,3.333c-0.412,1.753,1.302,4.149-0.895,5.625
					c-2.197,1.476-11.838,4.408-12.576,2.099c-0.738-2.309-1.863-8.483,1.611-16.05c0.584-1.272,2.553-1.122,3.267-2.947
					c0.714-1.825,0.697-5.387,2.49-6.958c1.793-1.571,6.267-1.231,6.886-2.651c0.619-1.42-0.414-5.506,2.014-7.355
					c2.427-1.849,7.132-1.882,7.481-3.365c0.349-1.484-0.556-3.689,1.808-5.268C114.951,351.497,120.044,350.418,120.044,350.418z"
					/>
				<path style="fill:none;stroke:#263238;stroke-linecap:round;stroke-linejoin:round;stroke-miterlimit:10;" d="M109.848,364.792
					c-4.801,7.819-12.421,18.147-15.723,23.226c-4.013,6.173-8.827,10.121-9.936,17.049c-1.108,6.927-1.712,32.641-1.712,32.641"/>
				<path style="fill:none;stroke:#263238;stroke-linecap:round;stroke-linejoin:round;stroke-miterlimit:10;" d="M119.18,351.068
					c0,0-2.737,1.349-6.694,9.101c-0.255,0.5-0.537,1.025-0.842,1.572"/>
			</g>
		</g>
		<g>
			<path style="fill:#FFFFFF;stroke:#263238;stroke-linecap:round;stroke-linejoin:round;stroke-miterlimit:10;" d="M70.829,462.702
				h15.411c8.109-4.183,13.869-14.766,13.869-27.168c0-8.141-2.483-15.496-6.481-20.776H63.442
				c-3.998,5.28-6.482,12.635-6.482,20.776C56.96,447.936,62.721,458.519,70.829,462.702z"/>
			
				<rect x="70.829" y="462.702" style="fill:#FFFFFF;stroke:#263238;stroke-linecap:round;stroke-linejoin:round;stroke-miterlimit:10;" width="15.691" height="2.298"/>
		</g>
	</g>
</g>
<g id="Board">
	<g>
		
			<rect x="54.737" y="75" style="fill:none;stroke:#263238;stroke-linecap:round;stroke-linejoin:round;stroke-miterlimit:10;" width="245.641" height="185.919"/>
		
			<rect x="60.472" y="79.925" style="fill:none;stroke:#263238;stroke-linecap:round;stroke-linejoin:round;stroke-miterlimit:10;" width="234.172" height="176.069"/>
		<path style="fill:none;stroke:#263238;stroke-width:2;stroke-linecap:round;stroke-linejoin:round;stroke-miterlimit:10;" d="
			M131.85,105.766c0,0-38.258-2.766-41.484,3.227c-3.227,5.992-0.922,115.695,0.922,117.078c1.844,1.383,53.469,2.305,58.539,0.461
			c5.07-1.844-1.844-113.391-1.844-116.617c0-3.227-11.984-4.609-11.984-4.609"/>
		<path style="fill:none;stroke:#263238;stroke-width:2;stroke-linecap:round;stroke-linejoin:round;stroke-miterlimit:10;" d="
			M94.32,196.571c0.076,14.463,0.391,25.061,1.116,25.35c2.305,0.922,51.164,5.07,52.547,0.461
			c1.383-4.609-3.688-108.781-3.688-108.781"/>
		<path style="fill:none;stroke:#263238;stroke-width:2;stroke-linecap:round;stroke-linejoin:round;stroke-miterlimit:10;" d="
			M142.451,113.141c0,0-46.555-1.844-47.016,0.461c-0.294,1.468-1.149,44.662-1.134,76.055"/>
		
			<line style="fill:none;stroke:#263238;stroke-width:2;stroke-linecap:round;stroke-linejoin:round;stroke-miterlimit:10;" x1="96.818" y1="121.437" x2="141.99" y2="121.437"/>
		<path style="fill:none;stroke:#92E3A9;stroke-width:2;stroke-linecap:round;stroke-linejoin:round;stroke-miterlimit:10;" d="
			M137.842,119.351c-2.766,2.921,0,0,1.844-4.173c1.844-4.173-1.844,0.835-5.992,4.173c-4.148,3.338-1.844,0.835-0.461-3.756
			c1.383-4.59-1.383,0-5.07,2.921c-3.688,2.921-1.844,1.669-0.461-3.338c1.383-5.007,0,0-5.531,3.338
			c-5.531,3.338-2.766,3.338,0-1.669c2.766-5.007-1.844,0-6.914,1.669c-5.07,1.669,0,0,1.844-4.59
			c1.844-4.59-3.226,1.252-6.914,3.756c-3.688,2.504,0,0,0.922-2.921c0.922-2.921-2.305,0.834-5.992,4.59
			c-3.688,3.756,0,0,0.461-3.338c0.461-3.338-4.148,5.425-4.148,5.425s1.383-8.346,0.461-6.259
			c-0.922,2.086-2.305,3.756-2.305,3.756"/>
		<g>
			
				<rect x="99.123" y="129.273" style="fill:none;stroke:#92E3A9;stroke-width:2;stroke-linecap:round;stroke-linejoin:round;stroke-miterlimit:10;" width="22.586" height="23.508"/>
			
				<polyline style="fill:none;stroke:#92E3A9;stroke-width:2;stroke-linecap:round;stroke-linejoin:round;stroke-miterlimit:10;" points="
				103.732,129.273 100.045,133.422 107.881,130.656 100.045,138.031 112.951,129.734 100.045,143.562 117.561,130.656 
				99.123,147.711 121.248,132.5 99.123,152.781 121.248,138.031 105.576,151.859 121.709,143.101 111.568,151.398 121.248,148.172 
				119.404,151.398 			"/>
		</g>
		<g>
			
				<rect x="123.905" y="201.18" style="fill:none;stroke:#92E3A9;stroke-width:2;stroke-linecap:round;stroke-linejoin:round;stroke-miterlimit:10;" width="17.272" height="17.976"/>
			
				<polyline style="fill:none;stroke:#92E3A9;stroke-width:2;stroke-linecap:round;stroke-linejoin:round;stroke-miterlimit:10;" points="
				127.43,201.18 124.61,204.352 130.602,202.237 124.61,207.877 134.48,201.532 124.61,212.106 138.005,202.237 123.905,215.279 
				140.824,203.647 123.905,219.156 140.824,207.877 128.84,218.451 141.177,211.754 133.422,218.098 140.824,215.631 
				139.414,218.098 			"/>
		</g>
		
			<line style="fill:none;stroke:#263238;stroke-width:2;stroke-linecap:round;stroke-linejoin:round;stroke-miterlimit:10;" x1="98.662" y1="161.539" x2="142.912" y2="161.539"/>
		
			<line style="fill:none;stroke:#263238;stroke-width:2;stroke-linecap:round;stroke-linejoin:round;stroke-miterlimit:10;" x1="98.201" y1="165.687" x2="141.99" y2="166.148"/>
		
			<line style="fill:none;stroke:#263238;stroke-width:2;stroke-linecap:round;stroke-linejoin:round;stroke-miterlimit:10;" x1="126.318" y1="130.656" x2="140.607" y2="130.656"/>
		
			<line style="fill:none;stroke:#263238;stroke-width:2;stroke-linecap:round;stroke-linejoin:round;stroke-miterlimit:10;" x1="126.318" y1="136.187" x2="140.607" y2="136.187"/>
		
			<line style="fill:none;stroke:#263238;stroke-width:2;stroke-linecap:round;stroke-linejoin:round;stroke-miterlimit:10;" x1="126.318" y1="141.719" x2="140.607" y2="141.719"/>
		
			<line style="fill:none;stroke:#263238;stroke-width:2;stroke-linecap:round;stroke-linejoin:round;stroke-miterlimit:10;" x1="126.318" y1="147.25" x2="140.607" y2="147.25"/>
		
			<rect x="99.123" y="168.453" style="fill:none;stroke:#92E3A9;stroke-width:2;stroke-linecap:round;stroke-linejoin:round;stroke-miterlimit:10;" width="42.867" height="20.742"/>
		
			<polyline style="fill:none;stroke:#92E3A9;stroke-width:2;stroke-linecap:round;stroke-linejoin:round;stroke-miterlimit:10;" points="
			98.662,172.601 104.654,168.914 97.74,179.515 109.264,168.914 99.123,184.125 117.1,168.453 101.428,186.89 120.787,168.914 
			106.037,186.89 127.24,168.453 110.186,188.734 131.389,168.914 115.256,187.812 136.92,168.453 120.326,188.734 141.99,168.453 
			126.318,188.273 141.068,175.367 131.389,187.351 141.068,180.898 139.169,183.984 137.381,186.89 		"/>
		
			<line style="fill:none;stroke:#263238;stroke-width:2;stroke-linecap:round;stroke-linejoin:round;stroke-miterlimit:10;" x1="100.967" y1="194.726" x2="140.607" y2="194.726"/>
		
			<line style="fill:none;stroke:#263238;stroke-width:2;stroke-linecap:round;stroke-linejoin:round;stroke-miterlimit:10;" x1="100.045" y1="199.797" x2="112.951" y2="199.797"/>
		
			<line style="fill:none;stroke:#263238;stroke-width:2;stroke-linecap:round;stroke-linejoin:round;stroke-miterlimit:10;" x1="149.826" y1="115.906" x2="181.47" y2="112.02"/>
		
			<line style="fill:none;stroke:#263238;stroke-width:2;stroke-linecap:round;stroke-linejoin:round;stroke-miterlimit:10;" x1="144.756" y1="138.492" x2="177.943" y2="138.492"/>
		
			<line style="fill:none;stroke:#263238;stroke-width:2;stroke-linecap:round;stroke-linejoin:round;stroke-miterlimit:10;" x1="92.209" y1="180.437" x2="77.92" y2="185.508"/>
		<path style="fill:none;stroke:#263238;stroke-width:2;stroke-linecap:round;stroke-linejoin:round;stroke-miterlimit:10;" d="
			M132.771,222.383c0,0-2.766,14.289,16.133,17.977"/>
		
			<polyline style="fill:none;stroke:#263238;stroke-width:2;stroke-linecap:round;stroke-linejoin:round;stroke-miterlimit:10;" points="
			146.139,236.672 150.748,240.82 144.295,242.664 		"/>
		
			<polyline style="fill:none;stroke:#263238;stroke-width:2;stroke-linecap:round;stroke-linejoin:round;stroke-miterlimit:10;" points="
			173.795,134.344 181.17,138.953 174.717,141.719 		"/>
		
			<polyline style="fill:none;stroke:#263238;stroke-width:2;stroke-linecap:round;stroke-linejoin:round;stroke-miterlimit:10;" points="
			175.478,110.637 183.314,111.559 177.783,116.63 		"/>
		
			<polyline style="fill:none;stroke:#263238;stroke-width:2;stroke-linecap:round;stroke-linejoin:round;stroke-miterlimit:10;" points="
			79.764,180.898 71.928,187.351 81.607,187.812 		"/>
		<g>
			<rect x="183.475" y="134.344" style="fill:#92E3A9;" width="17.516" height="18.438"/>
			
				<line style="fill:none;stroke:#263238;stroke-width:2;stroke-linecap:round;stroke-linejoin:round;stroke-miterlimit:10;" x1="187.623" y1="138.492" x2="197.764" y2="138.953"/>
			
				<line style="fill:none;stroke:#263238;stroke-width:2;stroke-linecap:round;stroke-linejoin:round;stroke-miterlimit:10;" x1="187.623" y1="142.18" x2="197.764" y2="142.641"/>
			
				<line style="fill:none;stroke:#263238;stroke-width:2;stroke-linecap:round;stroke-linejoin:round;stroke-miterlimit:10;" x1="187.623" y1="145.867" x2="197.764" y2="146.328"/>
		</g>
		<g>
			
				<rect x="156.74" y="160.156" transform="matrix(0.9931 -0.1171 0.1171 0.9931 -18.698 20.5486)" style="fill:#92E3A9;" width="17.516" height="18.437"/>
			
				<line style="fill:none;stroke:#263238;stroke-width:2;stroke-linecap:round;stroke-linejoin:round;stroke-miterlimit:10;" x1="160.326" y1="164.879" x2="170.451" y2="164.149"/>
			
				<line style="fill:none;stroke:#263238;stroke-width:2;stroke-linecap:round;stroke-linejoin:round;stroke-miterlimit:10;" x1="160.758" y1="168.541" x2="170.883" y2="167.811"/>
			
				<line style="fill:none;stroke:#263238;stroke-width:2;stroke-linecap:round;stroke-linejoin:round;stroke-miterlimit:10;" x1="161.19" y1="172.204" x2="171.315" y2="171.474"/>
		</g>
		<g>
			
				<rect x="65.936" y="191.5" transform="matrix(0.9931 -0.1171 0.1171 0.9931 -22.9937 10.1293)" style="fill:#92E3A9;" width="17.516" height="18.437"/>
			
				<line style="fill:none;stroke:#263238;stroke-width:2;stroke-linecap:round;stroke-linejoin:round;stroke-miterlimit:10;" x1="69.522" y1="196.223" x2="79.647" y2="195.493"/>
			
				<line style="fill:none;stroke:#263238;stroke-width:2;stroke-linecap:round;stroke-linejoin:round;stroke-miterlimit:10;" x1="69.954" y1="199.885" x2="80.079" y2="199.155"/>
			
				<line style="fill:none;stroke:#263238;stroke-width:2;stroke-linecap:round;stroke-linejoin:round;stroke-miterlimit:10;" x1="70.386" y1="203.547" x2="80.51" y2="202.817"/>
		</g>
		<g>
			
				<rect x="154.436" y="227.914" transform="matrix(0.9944 0.1057 -0.1057 0.9944 25.9689 -15.9156)" style="fill:#92E3A9;" width="17.516" height="18.437"/>
			
				<line style="fill:none;stroke:#263238;stroke-width:2;stroke-linecap:round;stroke-linejoin:round;stroke-miterlimit:10;" x1="159.145" y1="231.604" x2="169.181" y2="233.133"/>
			
				<line style="fill:none;stroke:#263238;stroke-width:2;stroke-linecap:round;stroke-linejoin:round;stroke-miterlimit:10;" x1="158.756" y1="235.27" x2="168.791" y2="236.8"/>
			
				<line style="fill:none;stroke:#263238;stroke-width:2;stroke-linecap:round;stroke-linejoin:round;stroke-miterlimit:10;" x1="158.366" y1="238.937" x2="168.401" y2="240.467"/>
		</g>
		
			<rect x="54.737" y="260.919" style="fill:#263238;stroke:#263238;stroke-linecap:round;stroke-linejoin:round;stroke-miterlimit:10;" width="245.632" height="6.282"/>
	</g>
</g>
<g id="Device">
	<g>
		<g>
			<path id="XMLID_2_" style="fill:#263238;stroke:#263238;stroke-linecap:round;stroke-linejoin:round;stroke-miterlimit:10;" d="
				M398.941,305.932v-11.725h-35.273v11.725c0,3.826-1.32,7.54-3.746,10.54l-1.545,1.91h45.855l-1.545-1.91
				C400.262,313.472,398.941,309.758,398.941,305.932z"/>
			
				<path id="XMLID_147_" style="fill:#FFFFFF;stroke:#263238;stroke-linecap:round;stroke-linejoin:round;stroke-miterlimit:10;" d="
				M396.941,305.932v-11.725h-35.273v11.725c0,3.826-1.32,7.54-3.746,10.54l-1.545,1.91h45.855l-1.545-1.91
				C398.262,313.472,396.941,309.758,396.941,305.932z"/>
			<rect x="361.811" y="297.518" style="fill:#263238;" width="35.414" height="3.593"/>
			
				<path id="XMLID_146_" style="fill:#263238;stroke:#263238;stroke-linecap:round;stroke-linejoin:round;stroke-miterlimit:10;" d="
				M441.703,297.904H316.907c-4.686,0-8.484-3.798-8.484-8.484v-87.124c0-4.686,3.799-8.484,8.484-8.484h124.796
				c4.686,0,8.484,3.799,8.484,8.484v87.124C450.187,294.105,446.388,297.904,441.703,297.904z"/>
			<path id="XMLID_1_" style="fill:#263238;stroke:#263238;stroke-linecap:round;stroke-linejoin:round;stroke-miterlimit:10;" d="
				M445.505,297.904H320.71c-4.686,0-8.484-3.798-8.484-8.484v-87.124c0-4.686,3.799-8.484,8.484-8.484h124.796
				c4.686,0,8.484,3.799,8.484,8.484v87.124C453.99,294.105,450.191,297.904,445.505,297.904z"/>
			
				<path id="XMLID_145_" style="fill:#FFFFFF;stroke:#263238;stroke-linecap:round;stroke-linejoin:round;stroke-miterlimit:10;" d="
				M441.703,297.904H316.907c-4.686,0-8.484-3.798-8.484-8.484v-7.696h141.764v7.696
				C450.187,294.105,446.388,297.904,441.703,297.904z"/>
			<rect id="XMLID_144_" x="315.554" y="200.287" style="fill:#FFFFFF;" width="127.503" height="73.542"/>
			<g>
				<g>
					<g>
						<path style="fill:#263238;" d="M359.932,265.824h-25.093c-1.676,0-3.035-1.359-3.035-3.035v-51.805
							c0-1.676,1.359-3.036,3.035-3.036h25.093c1.676,0,3.035,1.359,3.035,3.036v51.805
							C362.967,264.465,361.608,265.824,359.932,265.824z"/>
						<rect x="334.419" y="212.805" style="fill:#92E3A9;" width="25.934" height="48.163"/>
						<rect x="371.062" y="213.614" style="fill:#263238;" width="23.474" height="2.428"/>
						<rect x="371.467" y="218.876" style="fill:#92E3A9;" width="10.928" height="11.332"/>
						<rect x="387.063" y="253.682" style="fill:#92E3A9;" width="5.854" height="6.071"/>
						<rect x="371.736" y="238.303" style="fill:#92E3A9;" width="22.26" height="11.332"/>
						
							<line style="fill:none;stroke:#263238;stroke-linecap:round;stroke-linejoin:round;stroke-miterlimit:10;" x1="384.418" y1="219.685" x2="393.322" y2="219.685"/>
						
							<line style="fill:none;stroke:#263238;stroke-linecap:round;stroke-linejoin:round;stroke-miterlimit:10;" x1="384.418" y1="222.518" x2="393.322" y2="222.518"/>
						
							<line style="fill:none;stroke:#263238;stroke-linecap:round;stroke-linejoin:round;stroke-miterlimit:10;" x1="384.418" y1="225.351" x2="393.322" y2="225.351"/>
						
							<line style="fill:none;stroke:#263238;stroke-linecap:round;stroke-linejoin:round;stroke-miterlimit:10;" x1="384.418" y1="228.184" x2="393.322" y2="228.184"/>
						
							<line style="fill:none;stroke:#263238;stroke-linecap:round;stroke-linejoin:round;stroke-miterlimit:10;" x1="372.141" y1="234.66" x2="393.592" y2="234.66"/>
						
							<line style="fill:none;stroke:#263238;stroke-linecap:round;stroke-linejoin:round;stroke-miterlimit:10;" x1="372.141" y1="252.468" x2="393.592" y2="252.468"/>
					</g>
					
						<rect x="369.038" y="211.186" style="fill:none;stroke:#263238;stroke-linecap:round;stroke-linejoin:round;stroke-miterlimit:10;" width="27.521" height="50.996"/>
				</g>
				<g>
					<rect x="404.25" y="211.186" style="fill:#BFBFBF;" width="25.903" height="19.022"/>
					<rect x="404.25" y="211.186" style="fill:#263238;" width="25.903" height="4.047"/>
					
						<rect x="406.258" y="218.184" style="fill:none;stroke:#263238;stroke-linecap:round;stroke-linejoin:round;stroke-miterlimit:10;" width="6.77" height="6.552"/>
					
						<rect x="419.799" y="218.184" style="fill:none;stroke:#263238;stroke-linecap:round;stroke-linejoin:round;stroke-miterlimit:10;" width="6.77" height="6.552"/>
					<path style="fill:#FFFFFF;" d="M427.661,213.489c0,0.543-0.44,0.983-0.983,0.983c-0.543,0-0.983-0.44-0.983-0.983
						s0.44-0.983,0.983-0.983C427.221,212.506,427.661,212.946,427.661,213.489z"/>
					<circle style="fill:#FFFFFF;" cx="421.983" cy="213.489" r="0.983"/>
				</g>
				<g>
					<rect x="408.25" y="240.519" style="fill:#BFBFBF;" width="19.834" height="14.565"/>
					<rect x="408.25" y="240.519" style="fill:#263238;" width="19.834" height="3.099"/>
					<path style="fill:#FFFFFF;" d="M426.176,242.283c0,0.416-0.337,0.753-0.753,0.753c-0.416,0-0.753-0.337-0.753-0.753
						c0-0.416,0.337-0.753,0.753-0.753C425.839,241.53,426.176,241.867,426.176,242.283z"/>
					<path style="fill:#FFFFFF;" d="M422.58,242.283c0,0.416-0.337,0.753-0.753,0.753c-0.416,0-0.753-0.337-0.753-0.753
						c0-0.416,0.337-0.753,0.753-0.753C422.243,241.53,422.58,241.867,422.58,242.283z"/>
				</g>
				<g>
					<rect x="319.75" y="204.146" style="fill:#BFBFBF;" width="8.333" height="65.333"/>
					<rect x="319.75" y="204.146" style="fill:#263238;" width="8.333" height="3"/>
					
						<rect x="321.75" y="209.146" style="fill:none;stroke:#263238;stroke-linecap:round;stroke-linejoin:round;stroke-miterlimit:10;" width="4" height="4.667"/>
					
						<rect x="321.75" y="216.813" style="fill:none;stroke:#263238;stroke-linecap:round;stroke-linejoin:round;stroke-miterlimit:10;" width="4" height="4.667"/>
					
						<rect x="321.75" y="224.48" style="fill:none;stroke:#263238;stroke-linecap:round;stroke-linejoin:round;stroke-miterlimit:10;" width="4" height="4.667"/>
					
						<rect x="321.75" y="232.146" style="fill:none;stroke:#263238;stroke-linecap:round;stroke-linejoin:round;stroke-miterlimit:10;" width="4" height="4.667"/>
					
						<rect x="321.75" y="239.813" style="fill:none;stroke:#263238;stroke-linecap:round;stroke-linejoin:round;stroke-miterlimit:10;" width="4" height="4.667"/>
					
						<rect x="321.75" y="247.48" style="fill:none;stroke:#263238;stroke-linecap:round;stroke-linejoin:round;stroke-miterlimit:10;" width="4" height="4.667"/>
					
						<rect x="321.75" y="255.146" style="fill:none;stroke:#263238;stroke-linecap:round;stroke-linejoin:round;stroke-miterlimit:10;" width="4" height="4.667"/>
					
						<rect x="321.75" y="262.813" style="fill:none;stroke:#263238;stroke-linecap:round;stroke-linejoin:round;stroke-miterlimit:10;" width="4" height="4.667"/>
				</g>
				<rect x="333.417" y="203.48" style="fill:#BFBFBF;" width="106" height="2.667"/>
				<rect x="333.417" y="268.146" style="fill:#BFBFBF;" width="106" height="2.667"/>
			</g>
			
				<rect id="XMLID_142_" x="356.377" y="318.381" style="fill:#263238;stroke:#263238;stroke-linecap:round;stroke-linejoin:round;stroke-miterlimit:10;" width="45.865" height="2.094"/>
		</g>
		
			<rect x="325.745" y="316.672" style="fill:#FFFFFF;stroke:#263238;stroke-linecap:round;stroke-linejoin:round;stroke-miterlimit:10;" width="106.472" height="3.803"/>
	</g>
</g>
<g id="Desk">
	<g>
		<g>
			<polygon style="fill:#FFFFFF;stroke:#263238;stroke-linecap:round;stroke-linejoin:round;stroke-miterlimit:10;" points="
				230.345,465 226.011,465 223.845,332.333 232.511,332.333 			"/>
			<polygon style="fill:#263238;stroke:#263238;stroke-linecap:round;stroke-linejoin:round;stroke-miterlimit:10;" points="
				230.345,465 228.432,465 228.686,332.333 232.511,332.333 			"/>
		</g>
		<g>
			<polygon style="fill:#FFFFFF;stroke:#263238;stroke-linecap:round;stroke-linejoin:round;stroke-miterlimit:10;" points="
				292.073,465 287.74,465 285.573,332.333 294.24,332.333 			"/>
			<polygon style="fill:#263238;stroke:#263238;stroke-linecap:round;stroke-linejoin:round;stroke-miterlimit:10;" points="
				292.073,465 290.161,465 290.415,332.333 294.24,332.333 			"/>
		</g>
		<g>
			<polygon style="fill:#263238;stroke:#263238;stroke-linecap:round;stroke-linejoin:round;stroke-miterlimit:10;" points="
				269.968,465 265.634,465 263.468,332.333 272.134,332.333 			"/>
			<polygon style="fill:#263238;stroke:#263238;stroke-linecap:round;stroke-linejoin:round;stroke-miterlimit:10;" points="
				269.968,465 268.055,465 268.309,332.333 272.134,332.333 			"/>
		</g>
		<g>
			<polygon style="fill:#263238;stroke:#263238;stroke-linecap:round;stroke-linejoin:round;stroke-miterlimit:10;" points="
				311.676,465 307.343,465 305.176,332.333 313.843,332.333 			"/>
			<polygon style="fill:#263238;stroke:#263238;stroke-linecap:round;stroke-linejoin:round;stroke-miterlimit:10;" points="
				311.676,465 309.764,465 310.018,332.333 313.843,332.333 			"/>
		</g>
		
			<rect x="246.947" y="334.355" style="fill:#263238;stroke:#263238;stroke-linecap:round;stroke-linejoin:round;stroke-miterlimit:10;" width="67.985" height="83"/>
		
			<rect x="228.178" y="334.355" style="fill:#FFFFFF;stroke:#263238;stroke-linecap:round;stroke-linejoin:round;stroke-miterlimit:10;" width="67.985" height="83"/>
		<g>
			<polygon style="fill:#FFFFFF;stroke:#263238;stroke-linecap:round;stroke-linejoin:round;stroke-miterlimit:10;" points="
				433.465,465 429.131,465 426.965,332.333 435.631,332.333 			"/>
			<polygon style="fill:#263238;stroke:#263238;stroke-linecap:round;stroke-linejoin:round;stroke-miterlimit:10;" points="
				433.465,465 431.552,465 431.806,332.333 435.631,332.333 			"/>
		</g>
		<g>
			<polygon style="fill:#263238;stroke:#263238;stroke-linecap:round;stroke-linejoin:round;stroke-miterlimit:10;" points="
				473.088,465 468.754,465 466.588,332.333 475.254,332.333 			"/>
			<polygon style="fill:#263238;stroke:#263238;stroke-linecap:round;stroke-linejoin:round;stroke-miterlimit:10;" points="
				473.088,465 471.175,465 471.429,332.333 475.254,332.333 			"/>
		</g>
		
			<rect x="218.129" y="327.329" style="fill:#FFFFFF;stroke:#263238;stroke-linecap:round;stroke-linejoin:round;stroke-miterlimit:10;" width="259.859" height="9.126"/>
		
			<rect x="218.129" y="327.329" style="fill:#263238;stroke:#263238;stroke-linecap:round;stroke-linejoin:round;stroke-miterlimit:10;" width="259.859" height="4.563"/>
		
			<rect x="439.632" y="327.329" style="fill:#263238;stroke:#263238;stroke-linecap:round;stroke-linejoin:round;stroke-miterlimit:10;" width="38.356" height="9.126"/>
		
			<rect x="211.077" y="319.996" style="fill:#FFFFFF;stroke:#263238;stroke-linecap:round;stroke-linejoin:round;stroke-miterlimit:10;" width="275.306" height="9.126"/>
		
			<rect x="448.027" y="319.996" style="fill:#263238;stroke:#263238;stroke-linecap:round;stroke-linejoin:round;stroke-miterlimit:10;" width="38.356" height="9.126"/>
		<g>
			
				<rect x="232.5" y="342.333" style="fill:#FFFFFF;stroke:#263238;stroke-linecap:round;stroke-linejoin:round;stroke-miterlimit:10;" width="59.5" height="29"/>
			
				<rect x="255.75" y="353.833" style="fill:#263238;stroke:#263238;stroke-linecap:round;stroke-linejoin:round;stroke-miterlimit:10;" width="13" height="4.5"/>
		</g>
		<g>
			
				<rect x="232.5" y="378.833" style="fill:#FFFFFF;stroke:#263238;stroke-linecap:round;stroke-linejoin:round;stroke-miterlimit:10;" width="59.5" height="29"/>
			
				<rect x="255.75" y="390.333" style="fill:#263238;stroke:#263238;stroke-linecap:round;stroke-linejoin:round;stroke-miterlimit:10;" width="13" height="4.5"/>
		</g>
	</g>
</g>
<g id="Chair">
	<g>
		
			<rect x="383.597" y="351.711" transform="matrix(-1 -1.224647e-16 1.224647e-16 -1 784.9718 739.1781)" style="fill:#263238;" width="17.778" height="35.755"/>
		
			<rect x="388.041" y="374.768" transform="matrix(-1 -1.224647e-16 1.224647e-16 -1 784.9715 799.0607)" style="fill:#263238;" width="8.889" height="49.525"/>
		<path style="fill:#263238;" d="M396.101,420.483c0,0,7.468,8.474,26.667,11.429c10.143,1.561,20.698,3.501,29.862,8.352
			c5.894,3.12,17.623,9.947,17.623,17.748c0,3.859-3.129,6.988-6.988,6.988c-3.859,0-6.988-3.129-6.988-6.988
			c0-1.845,0.729-3.511,1.897-4.76c-0.974-1.585-7.331-11.144-20.711-14.053c-14.604-3.175-25.264-1.882-45.807-15.541
			L396.101,420.483z"/>
		<path style="fill:#263238;" d="M389.747,420.483c0,0-7.468,8.474-26.667,11.429c-10.143,1.561-20.698,3.501-29.862,8.352
			c-5.894,3.12-17.623,9.947-17.623,17.748c0,3.859,3.129,6.988,6.988,6.988c3.859,0,6.988-3.129,6.988-6.988
			c0-1.845-0.729-3.511-1.897-4.76c0.974-1.585,7.331-11.144,20.711-14.053c14.603-3.175,25.264-1.882,45.807-15.541
			L389.747,420.483z"/>
		<path style="fill:#263238;" d="M389.442,451.884h6.723c0.362,0,0.655,0.293,0.655,0.655v11.805c0,0.362-0.294,0.655-0.655,0.655
			h-6.723c-0.362,0-0.655-0.293-0.655-0.655V452.54C388.787,452.178,389.08,451.884,389.442,451.884z"/>
		
			<rect x="390.898" y="421.666" transform="matrix(-1 -1.224647e-16 1.224647e-16 -1 785.6066 886.6659)" style="fill:#263238;" width="3.81" height="43.334"/>
		<path style="fill:#263238;" d="M435.543,248.462c-2.052,11.246-3.635,23.547-4.008,35.859c-0.281,9.277-0.436,17.229-0.573,24.243
			c-0.426,21.782-0.662,33.866-4.093,37.119c-0.44,0.296-3.275,2.05-9.223,2.545c-1.661,0.138-6.933,0.215-14.113,0.249
			c-22.772-0.068-46.704-0.256-47.086-0.259h-1.389c-0.061,0.052-0.107,0.107-0.164,0.16c-13.674-0.075-17.196-0.158-17.448-0.16
			h-1.389c-2.868,2.49-1.154,5.691,1.337,5.714c1.875,0.017,34.465,0.283,56.751,0.283c3.947,0,7.655-0.008,10.949-0.028
			c5.416,0.017,10.583,0.028,15.051,0.028c11.673,0,21.34-0.072,23.974-0.292c8.248-0.686,11.946-3.475,12.341-3.789
			c5.498-4.885,5.708-15.592,6.214-41.459c0.137-7,0.291-14.935,0.572-24.18c0.375-12.386,2.006-24.771,4.101-36.034H435.543z"/>
	</g>
</g>
<g id="Character">
	<g>
		<g>
			<path style="fill:#FFFFFF;stroke:#263238;stroke-linecap:round;stroke-linejoin:round;stroke-miterlimit:10;" d="M258.75,435.167
				l2.25,11.75c0,0-2,4.25-9.75,7.75s-11.5,5-11.5,6s-0.5,3.25,1.5,4s44.5,0,44.5,0s2.25-1,2.25-5.75s-2-13.5-2-15.5
				s-1.408-6.819-1.408-7.495c0-0.676-17.092,0.245-17.092,0.245S262.5,431.417,258.75,435.167z"/>
			<path style="fill:#FFFFFF;stroke:#263238;stroke-linecap:round;stroke-linejoin:round;stroke-miterlimit:10;" d="M267.5,436.167
				c0,0,1.25,11.25,2,12s16.5,0.75,16.5,0.75"/>
			
				<line style="fill:#FFFFFF;stroke:#263238;stroke-linecap:round;stroke-linejoin:round;stroke-miterlimit:10;" x1="286" y1="443.417" x2="268.5" y2="443.667"/>
			
				<line style="fill:#FFFFFF;stroke:#263238;stroke-linecap:round;stroke-linejoin:round;stroke-miterlimit:10;" x1="239.75" y1="462.667" x2="287.5" y2="462.667"/>
		</g>
		<path style="fill:#263238;stroke:#263238;stroke-linecap:round;stroke-linejoin:round;stroke-miterlimit:10;" d="M289.998,294.253
			c0,0-13.863,46.659-15.553,53.084c-1.691,6.424,8.115,62.889,8.115,63.903c0,1.014,1.352,4.057,1.352,7.439
			s-1.352,4.396-0.676,5.41c0.676,1.014,3.043,3.381,2.705,5.41c-0.338,2.029-0.676,2.705-2.029,4.057
			c-1.352,1.353-2.705,1.691-2.705,1.691h-8.115c0,0-2.029-15.215-7.439-55.45c-5.41-40.235,3.381-63.227,5.072-70.665
			c1.691-7.438,5.072-13.863,5.072-13.863L289.998,294.253z"/>
		<g>
			<path style="fill:#FFFFFF;stroke:#263238;stroke-linecap:round;stroke-linejoin:round;stroke-miterlimit:10;" d="M247.25,435.167
				l2.25,11.75c0,0-2,4.25-9.75,7.75s-11.5,5-11.5,6s-0.5,3.25,1.5,4s44.5,0,44.5,0s2.25-1,2.25-5.75s-2-13.5-2-15.5
				s-1.408-6.819-1.408-7.495c0-0.676-17.092,0.245-17.092,0.245S251,431.417,247.25,435.167z"/>
			<path style="fill:#FFFFFF;stroke:#263238;stroke-linecap:round;stroke-linejoin:round;stroke-miterlimit:10;" d="M256,436.167
				c0,0,1.25,11.25,2,12s16.5,0.75,16.5,0.75"/>
			
				<line style="fill:#FFFFFF;stroke:#263238;stroke-linecap:round;stroke-linejoin:round;stroke-miterlimit:10;" x1="274.5" y1="443.417" x2="257" y2="443.667"/>
			
				<line style="fill:#FFFFFF;stroke:#263238;stroke-linecap:round;stroke-linejoin:round;stroke-miterlimit:10;" x1="228.25" y1="462.667" x2="276" y2="462.667"/>
		</g>
		<g>
			<path style="fill:#92E3A9;stroke:#263238;stroke-linecap:round;stroke-linejoin:round;stroke-miterlimit:10;" d="M234.21,294.253
				c0,0-0.338,29.416,1.352,41.926c1.691,12.51,8.115,41.588,9.129,57.479c1.014,15.891,2.705,23.33,2.705,23.33
				s-2.367,2.029-2.367,4.057c0,2.029,1.353,2.029,1.014,5.072c-0.338,3.043-1.69,4.057-0.676,5.41
				c1.014,1.352,1.691,4.057,5.072,4.733c3.381,0.676,19.272,0.338,22.654-0.338c3.381-0.676,5.072-4.057,5.072-6.762
				s-1.014-4.734-1.014-7.777s1.69-5.748,1.69-7.777c0-2.029-0.676-3.043-0.676-5.072c0-2.029-4.395-34.487-4.395-41.25
				c0-6.762-0.338-29.754,0.676-35.502c1.014-5.748,6.086-33.135,6.086-33.135L234.21,294.253z"/>
			<path style="fill:#263238;stroke:#263238;stroke-linecap:round;stroke-linejoin:round;stroke-miterlimit:10;" d="
				M255.637,304.175c0,0,5.767,2.125,12.445,2.428c6.678,0.304,9.713,0.911,9.713,0.911l1.821-8.499L255.637,304.175z"/>
			<path style="fill:none;stroke:#263238;stroke-linecap:round;stroke-linejoin:round;stroke-miterlimit:10;" d="M251.931,305.629
				c0,0,1.659,46.463,4.978,61.95c3.319,15.488,7.744,40.931,6.638,44.25c-1.106,3.319-2.766,11.063-2.766,11.063
				s6.084-1.106,6.084,2.212c0,3.319-8.85,5.531-6.638,7.191c2.213,1.659,4.409,3.487,4.409,3.487"/>
			<path style="fill:#263238;stroke:#263238;stroke-linecap:round;stroke-linejoin:round;stroke-miterlimit:10;" d="M271.584,424.37
				c0,0-18.36,2.977-13.15,3.97c5.21,0.992,15.135-0.248,15.631-1.489C274.562,425.61,273.073,424.121,271.584,424.37z"/>
		</g>
		<polygon style="fill:#92E3A9;" points="190.54,103.152 190.034,123.91 209.611,123.742 209.78,102.983 		"/>
		<path style="fill:#FFFFFF;stroke:#263238;stroke-linecap:round;stroke-linejoin:round;stroke-miterlimit:10;" d="M212.818,141.462
			c0,0-4.219-4.219-6.076-8.101c-1.856-3.882-4.557-6.244-4.557-8.945c0-2.7,1.181-8.945,0.675-11.476s0-7.763,1.688-7.763
			s2.869,1.519,2.532,3.207c-0.338,1.688,1.013,7.595,1.013,7.595s1.35-11.308,1.519-11.983c0.169-0.675,2.532-0.675,3.544-0.169
			c1.013,0.506,2.194,0.338,2.194,2.532c0,2.194-0.506,4.726-0.506,5.232c0,0.506,4.726,3.207,4.894,5.232
			c0.169,2.025-0.338,6.92-1.519,8.945c-1.181,2.025-1.856,3.375-2.025,4.05c-0.169,0.675,4.557,7.763,4.557,7.763L212.818,141.462z
			"/>
		<path style="fill:#263238;stroke:#263238;stroke-linecap:round;stroke-linejoin:round;stroke-miterlimit:10;" d="M220.685,134.326
			l-11.496,8.791c0,0,19.61,40.574,20.287,41.926c0.676,1.353,14.877,10.143,14.877,10.143l21.301-26.373
			c0,0-26.711-8.453-27.387-9.467C237.591,158.332,220.685,134.326,220.685,134.326z"/>
		<path style="fill:#FFFFFF;stroke:#263238;stroke-linecap:round;stroke-linejoin:round;stroke-miterlimit:10;" d="M234.25,283.417
			l-1,15.75c0,0,13,5.5,27,5.25s32.75-5.75,32.75-5.75l2.75-15.5c0,0-33.75,2.75-44,1.75S234.25,283.417,234.25,283.417z"/>
		<path style="fill:#263238;stroke:#263238;stroke-linecap:round;stroke-linejoin:round;stroke-miterlimit:10;" d="M224.25,278.417
			l-0.75,4.5c0,0,10.593,5.782,34,8c23.75,2.25,42.75-4.5,42.75-4.5l0.25-7.75c0,0-18.5,4.75-38,4.5S224.25,278.417,224.25,278.417z
			"/>
		<path style="fill:#263238;stroke:#263238;stroke-linecap:round;stroke-linejoin:round;stroke-miterlimit:10;" d="M243.25,185.417
			c0,0-8.25,14.5-11,25.75s-8.25,63.25-9,66.25s16.75,9,28.25,9.25s37.25,0.75,41.75-1s8.75-4.25,8.75-7s0.25-13,0.25-21.25
			c0-8.25-2.5-51.75-4.75-61.75s-3.75-17-4.5-18.25s-6.25-7.25-17.5-6.5s-20.75,5-25,7.5S243.25,185.417,243.25,185.417z"/>
		<g>
			<g>
				<path style="fill:#FFFFFF;stroke:#263238;stroke-linecap:round;stroke-linejoin:round;stroke-miterlimit:10;" d="M167.85,201.58
					c0,0-4.057,1.691-4.395,5.748c-0.338,4.057,7.1,8.115,11.496,14.201c4.395,6.086,10.143,12.51,10.143,12.51l8.791,12.172
					l10.481-8.791l-27.049-31.444c0,0,1.352-3.043-0.338-4.057C175.289,200.904,170.893,200.228,167.85,201.58z"/>
				<path style="fill:#FFFFFF;stroke:#263238;stroke-linecap:round;stroke-linejoin:round;stroke-miterlimit:10;" d="
					M168.527,211.048l30.43-10.143c0,0,2.029,8.453,11.158,17.244c9.129,8.791,17.582,14.539,17.582,14.539l-27.387,15.553
					L168.527,211.048z"/>
				<path style="fill:#FFFFFF;stroke:#263238;stroke-linecap:round;stroke-linejoin:round;stroke-miterlimit:10;" d="
					M168.527,211.048c0,0,2.029-2.029,2.367-5.41c0.338-3.381-3.043-4.057-3.043-4.057l30.092-8.791c0,0,5.748,2.029,1.014,8.115
					L168.527,211.048z"/>
			</g>
			<path style="fill:#FFFFFF;stroke:#263238;stroke-linecap:round;stroke-linejoin:round;stroke-miterlimit:10;" d="
				M208.851,243.198c0,0-6.762-1.014-7.1-3.043c-0.338-2.029-1.691-6.424-3.043-8.115c-1.353-1.691-7.777-5.072-9.805-7.438
				c-2.029-2.367-3.381-5.748-4.733-5.41c-1.353,0.338-3.381,1.691-2.705,3.043c0.676,1.352,3.719,7.1,3.719,7.1l0.676,2.367
				c0,0-6.086-1.014-7.1-1.352c-1.014-0.338-2.367,0.338-2.367,2.029s-1.353,1.691,0.338,2.705s3.719,2.367,3.719,2.367
				s2.367,5.41,3.043,6.424c0.676,1.014,6.086,3.381,7.1,4.057c1.014,0.676,6.424,2.367,9.129,3.043
				c2.705,0.676,8.791,3.043,8.791,3.043l1.691-7.777L208.851,243.198z"/>
			<g>
				<path style="fill:#263238;stroke:#263238;stroke-linecap:round;stroke-linejoin:round;stroke-miterlimit:10;" d="
					M280.531,196.538c0,0-0.676,28.74-0.676,30.092c0,1.352,1.014,29.078-2.029,31.444c-3.043,2.367-17.92,5.41-39.559,4.734
					c-21.639-0.676-31.106-5.41-31.106-5.41l1.691-14.201l41.25-3.043c0,0-4.395-31.444-3.719-42.264
					c0.676-10.82,9.467-16.568,9.467-16.568"/>
				<path style="fill:none;stroke:#707070;stroke-linecap:round;stroke-linejoin:round;stroke-miterlimit:10;" d="M235.006,264.066
					c0,0,40.948,1.437,43.104-3.592c2.155-5.029,2.155-54.598,2.155-54.598"/>
				<path style="fill:none;stroke:#707070;stroke-linecap:round;stroke-linejoin:round;stroke-miterlimit:10;" d="M252.965,187.198
					c0,0-8.621,9.339-7.184,21.552c1.437,12.213,4.319,31.405,4.319,31.405l-15.813,0.923"/>
			</g>
		</g>
		<g>
			<path style="fill:#FFFFFF;stroke:#263238;stroke-linecap:round;stroke-linejoin:round;stroke-miterlimit:10;" d="
				M235.528,109.119c0,0-5.666,9.807-4.577,11.115c1.09,1.308,0.218,3.705,0.218,3.705s-5.666,4.359-5.231,5.884
				c0.436,1.525,5.013,5.666,5.013,5.666s0.872,11.769,1.961,12.858c1.09,1.09,8.5,2.397,10.025,2.615
				c1.526,0.218,2.397,0.654,2.397,0.654l4.359,23.537l24.409-22.012l-3.923-10.461c0,0-2.179-13.948-1.961-20.486
				c0.218-6.538-11.115-14.384-17.871-16.345C243.592,103.889,235.528,109.119,235.528,109.119z"/>
			<path style="fill:#263238;stroke:#263238;stroke-linecap:round;stroke-linejoin:round;stroke-miterlimit:10;" d="M240.105,95.825
				c0,0-5.666-5.884-12.422-1.308c-6.756,4.577-4.795,11.986,1.308,14.602c6.102,2.615,13.294,0.654,10.897,3.269
				c-2.397,2.615-3.051,8.282,0.654,9.371c3.705,1.09,3.051,5.23,3.051,6.974s3.051,1.525,3.705,0
				c0.654-1.526,2.397-5.666,6.538-3.923s3.923,11.333,2.397,13.73c-1.526,2.397-3.051,2.179-3.051,2.179s2.397,0.872,0.872,3.705
				c-1.525,2.833-1.525,2.833-1.525,2.833s3.487,4.141,12.204,2.615c8.717-1.526,10.679-5.448,9.371-8.717
				c-1.308-3.269-4.359-3.705-1.09-8.499c3.269-4.795,11.339-10.461,10.679-21.358c-0.436-7.192-17.435-13.948-17.435-13.948
				s3.923-6.538-5.013-10.679c-8.935-4.141-19.178,0.654-18.524,5.012C243.374,96.043,240.105,95.825,240.105,95.825z"/>
			<g>
				<path style="fill:none;stroke:#263238;stroke-linecap:round;stroke-linejoin:round;stroke-miterlimit:10;" d="M230.886,119.445
					c0,0-2.767-0.737-2.985,0.571c-0.218,1.308,0,7.846,0,7.846s1.743,1.09,3.269,0.654c1.525-0.436,0.654-5.884,0.654-5.884"/>
				<polyline style="fill:#263238;stroke:#263238;stroke-linecap:round;stroke-linejoin:round;stroke-miterlimit:10;" points="
					248.169,126.772 228.097,123.453 228.118,122.195 248.169,126.772 				"/>
			</g>
		</g>
		<g>
			<path style="fill:#757575;stroke:#263238;stroke-linecap:round;stroke-linejoin:round;stroke-miterlimit:10;" d="
				M276.936,146.386c0,0-11.115,8.064-18.742,16.345c-7.628,8.282-16.781,17.435-17.217,20.268
				c-0.436,2.833,0.436,7.192,4.795,2.615c4.359-4.577,12.422-10.679,18.525-11.115c6.102-0.436,15.473,2.615,20.268,3.269
				c4.795,0.654,7.846,1.961,9.589-0.654c1.743-2.615-2.833-8.499-2.833-11.551s0.654-8.282-1.525-11.987
				C287.615,149.873,280.641,145.296,276.936,146.386z"/>
			<path style="fill:#263238;stroke:#263238;stroke-linecap:round;stroke-linejoin:round;stroke-miterlimit:10;" d="
				M291.178,157.184c0,0-1.261,4.205-2.523,6.097c-1.261,1.892-19.131,5.466-19.131,5.466s14.716-0.841,17.449-0.841
				s5.886,2.523,5.886,2.523l-1.472-3.994C291.388,166.434,292.019,159.076,291.178,157.184z"/>
		</g>
	</g>
</g>
<g id="Floor">
	
		<line style="fill:none;stroke:#263238;stroke-linecap:round;stroke-linejoin:round;stroke-miterlimit:10;" x1="32" y1="465" x2="489" y2="465"/>
</g>
</svg>
