<?xml version="1.0" encoding="utf-8"?>
<!-- Generator: Adobe Illustrator 27.5.0, SVG Export Plug-In . SVG Version: 6.00 Build 0)  -->
<svg version="1.1" xmlns="http://www.w3.org/2000/svg" xmlns:xlink="http://www.w3.org/1999/xlink" x="0px" y="0px"
	 viewBox="0 0 500 500" style="enable-background:new 0 0 500 500;" xml:space="preserve">
<g id="Background_Simple">
	<g>
		<path style="fill:#C6FF00;" d="M436.138,84.788c-34.527-29.014-92.658-33.468-135.383-17.964
			c-31.831,11.551-56.487,37.299-87.013,51.954c-21.524,10.333-45.286,14.838-68.217,21.487
			c-24.875,7.213-48.742,16.528-65.087,37.708c-18.086,23.437-22.895,54.391-14.594,82.586
			c8.687,29.507,30.276,54.203,56.371,70.485c26.096,16.283,56.46,24.714,86.967,28.645c41.349,5.328,84.164,2.58,123.321-11.732
			c42.988-15.712,79.255-45.388,101.194-85.877c19.446-35.887,36.136-86.955,30.281-128.151
			C461.201,114.388,451.178,97.427,436.138,84.788z"/>
		<path style="opacity:0.7;fill:#FFFFFF;" d="M436.138,84.788c-34.527-29.014-92.658-33.468-135.383-17.964
			c-31.831,11.551-56.487,37.299-87.013,51.954c-21.524,10.333-45.286,14.838-68.217,21.487
			c-24.875,7.213-48.742,16.528-65.087,37.708c-18.086,23.437-22.895,54.391-14.594,82.586
			c8.687,29.507,30.276,54.203,56.371,70.485c26.096,16.283,56.46,24.714,86.967,28.645c41.349,5.328,84.164,2.58,123.321-11.732
			c42.988-15.712,79.255-45.388,101.194-85.877c19.446-35.887,36.136-86.955,30.281-128.151
			C461.201,114.388,451.178,97.427,436.138,84.788z"/>
	</g>
</g>
<g id="Shape">
	<g>
		<ellipse style="fill:#C6FF00;" cx="246.534" cy="407.223" rx="202.365" ry="28.838"/>
		<ellipse style="opacity:0.5;fill:#FFFFFF;" cx="246.534" cy="407.223" rx="202.365" ry="28.838"/>
	</g>
</g>
<g id="Plant">
	<g id="plant_2_">
		<path style="fill:#263238;" d="M455.024,298.04c-3.396,0.895-6.454,2.765-8.798,5.381c-2.044,2.19-3.825,4.612-5.306,7.216
			c-0.955,1.656-1.825,3.364-2.632,5.094c-0.52,1.125-0.913,2.536-1.411,3.831c-0.711,1.146-1.411,2.324-2.016,3.428
			c2.123-7.652,8.978-21.735,9.095-25.736c0.138-4.351-4.043,2.122-6.368,10.984c-1.318,5.022-2.317,10.123-2.993,15.271
			c-0.244,0.456-0.456,0.892-0.647,1.295c-0.424,0.891-1.157,2.409-2.122,4.383c2.122-6.495,2.897-14.21,1.613-15.165
			c-1.857-1.38-2.526,2.006-2.515,8.257c-0.181,4.471-0.919,8.903-2.197,13.191c-1.167,2.313-2.473,4.861-3.874,7.545
			c1.465-4.68,2.314-11.419,3.12-16.471c1.167-7.344,0.669-9.636-1.709-6.102c-2.377,3.534-1.963,8.649-1.401,14.911
			c0.199,4.003-0.528,7.997-2.123,11.674c-1.794,3.407-3.693,6.919-5.614,10.379c1.63-3.545,2.663-7.335,3.056-11.217
			c0.828-8.49-0.265-16.29-2.229-14.083c-1.963,2.207-0.807,8.119-1.061,15.314c-0.145,4.355-0.638,8.692-1.475,12.969l-0.594,1.061
			c0.789-3.652,0.997-7.405,0.615-11.122c0.393-1.422,0.255-2.324-0.223-2.759c-0.064-1.602,0.064-4.012-0.615-5.232
			c-1.719-3.067-3.598,1.061-3.619,2.696c0,1.246,0.085,2.491,0.255,3.725c-0.669,0.624-1.247,1.339-1.719,2.122
			c-0.255,0.435-0.531,0.923-0.817,1.454c0-0.509,0.064-1.061,0.085-1.549c0.087-1.386-0.206-2.77-0.849-4.001
			c1.037-2.063,1.784-4.259,2.218-6.527c0.184-0.754,0.117-1.548-0.191-2.26c-0.422-0.928-1.517-1.339-2.445-0.917
			c-0.106,0.048-0.208,0.107-0.304,0.174c-3.269,1.73-4.139,5.89-4.51,9.222c-0.344,2.87-0.911,5.709-1.698,8.49
			c-0.669,2.515-1.252,4.786-1.634,6.367c-0.287-1.751-0.616-3.449-1.061-5.02c-0.371-1.369-0.722-2.696-1.061-3.969
			c-0.312-4.635,0.596-9.271,2.632-13.446c3.863-7.938,6.654-11.674,3.98-11.812c-2.674-0.138-6.559,4.001-7.11,10.538
			c-0.41,3.966-0.495,7.959-0.255,11.939c-0.849-3.046-1.688-5.911-2.558-8.83c-0.672-3.225-0.508-6.567,0.477-9.71
			c1.825-5.391,7.27-14.964,4.404-14.21c-2.865,0.753-6.304,6.304-6.686,12.183c-0.105,3.075,0.235,6.149,1.008,9.127
			c-0.626-2.048-1.284-4.16-1.995-6.368c-0.297-0.955-0.615-1.963-0.923-3.014c0-0.17,0-0.35-0.085-0.53
			c-0.397-3.038,0.152-6.125,1.571-8.84c2.738-4.924,7.832-9.148,4.829-10.284c-3.003-1.136-7.556,6.887-7.811,10.899
			c-0.061,1.523,0.06,3.048,0.361,4.542c-0.117-0.308-0.244-0.626-0.371-0.934c-0.647-2.292-1.274-4.563-1.825-6.58
			c-0.123-2.967,0.474-5.92,1.741-8.607c2.674-6.134,6.081-13.149,2.611-11.366c-2.802,1.443-5.826,9.721-5.232,16.704
			c-0.233-0.913-0.446-1.698-0.616-2.335c-0.456-4.001-1.316-13.425,0-19.039c0.86-3.746,2.26-7.291,2.696-11.143
			c0.08-0.395,0.058-0.804-0.064-1.189c-0.934-2.324-3.959,2.197-4.457,2.94c-1.869,2.975-2.824,6.432-2.749,9.944
			c0.003,2.996,0.359,5.981,1.061,8.893c0.424,1.857,0.944,3.704,1.549,5.519c0.382,1.178,1.061,2.483,1.581,3.757
			c0.255,1.327,0.552,2.674,0.86,3.884c-3.672-7.1-8.32-22.085-10.92-25.141c-2.876-3.269-1.486,4.341,2.823,12.396
			c2.474,4.585,5.235,9.009,8.267,13.245c0.138,0.499,0.276,0.966,0.414,1.39c0.297,0.944,0.796,2.558,1.433,4.659
			c-2.918-6.166-7.577-12.364-9.169-12.194c-2.292,0.255-0.467,3.184,3.799,7.758c2.9,3.39,5.371,7.126,7.354,11.122
			c0.722,2.494,1.507,5.243,2.314,8.161c-2.123-4.425-6.102-9.933-8.957-14.168c-4.16-6.166-6.092-7.503-5.423-3.3
			c0.669,4.203,4.468,7.662,9.169,11.854c2.867,2.807,5.053,6.234,6.389,10.018c1.008,3.704,2.016,7.577,2.971,11.419
			c-1.225-3.706-3.054-7.184-5.412-10.294c-5.2-6.792-11.324-11.737-11.249-8.787c0.074,2.95,4.945,6.484,9.689,11.886
			c2.872,3.28,5.47,6.791,7.768,10.496c0.096,0.382,0.191,0.775,0.276,1.157c-2.123-3.895-5.508-7.068-8.798-9.997
			c-1.157-1.061-2.908-3.29-4.404-3.767c-3.332-1.061-1.9,3.237-0.796,4.436c3.566,3.905,8.596,6.315,11.897,10.422
			c1.244,1.547,2.359,3.194,3.332,4.924c0.233,1.348,0.403,2.611,0.541,3.789c-1.268-1.199-2.597-2.332-3.98-3.396
			c-4.033-2.717-6.368-6.442-9.477-10.029c-0.934-1.061-2.515-2.388-4.012-2.452c-2.122-0.095-2.749,2.122-2.122,3.874
			c2.451,7.216,11.674,7.535,17.076,11.281c0.988,0.632,1.903,1.372,2.727,2.207c0.224,2.228,0.284,4.47,0.181,6.707h-12.406v5.168
			h3.683l2.993,18.402h24.791l2.993-18.402h3.682v-5.168h-18.646c0.849-1.061,1.762-2.122,2.674-3.332l3.927,0.117
			c0,0,13.627,0.594,18.625-2.122c4.999-2.717,0.541-5.306-4.245-3.916s-14.189,5.635-16.269,5.572l-1.762-0.053
			c0.976-1.263,1.953-2.579,2.876-3.916c3.754-0.939,7.444-2.116,11.048-3.523c3.916-1.549,8.49-2.802,11.822-5.423
			c0.646-0.428,1.138-1.053,1.401-1.783c0.321-0.968-0.204-2.013-1.173-2.333c-0.105-0.035-0.214-0.06-0.324-0.076
			c-3.576-0.966-7.057,1.475-9.551,3.661c-2.212,1.862-4.565,3.551-7.036,5.052c-2.207,1.369-4.181,2.642-5.529,3.513
			c0.987-1.465,1.9-2.94,2.674-4.372c0.668-1.252,1.316-2.452,1.931-3.629c2.936-3.601,6.763-6.371,11.101-8.034
			c8.235-3.184,12.809-3.969,10.973-5.911c-1.836-1.942-7.535-1.56-12.395,2.844c-3.012,2.616-5.802,5.477-8.342,8.554
			c1.454-2.802,2.812-5.476,4.16-8.203c1.713-2.815,4.117-5.145,6.983-6.771c5.009-2.685,15.516-5.975,12.905-7.376
			c-2.611-1.401-8.904,0.297-13.191,4.341c-2.179,2.176-4.031,4.657-5.497,7.365c0.944-1.932,1.9-3.927,2.908-6.039
			c0.435-0.913,0.902-1.857,1.38-2.834c0.106-0.149,0.212-0.297,0.308-0.456c1.783-2.491,4.292-4.371,7.185-5.381
			c5.306-1.73,11.971-1.348,10.538-4.245c-1.433-2.897-10.22-0.117-13.149,2.632c-1.078,1.076-2.029,2.272-2.834,3.566
			c0.127-0.297,0.255-0.616,0.371-0.934c1.061-2.122,2.123-4.245,3.184-6.049c1.933-2.254,4.384-4.005,7.142-5.105
			c6.145-2.653,13.425-5.465,9.668-6.527c-3.035-0.86-10.899,3.12-15.218,8.639l1.135-2.122c2.398-3.247,8.204-10.719,12.979-13.934
			c3.184-2.122,6.633-3.789,9.551-6.304c0.324-0.239,0.586-0.552,0.764-0.913C461.232,296.586,455.936,297.828,455.024,298.04z
			 M399.541,362.374c0.796-1.22,2.208-3.47,3.768-6.367c0.48,1.319,1.029,2.612,1.645,3.874c-1.443,2.961-2.759,5.54-3.523,6.198
			l-1.316,1.167C399.966,365.621,399.775,363.987,399.541,362.374z M408.562,370.959c-1.125,1.454-2.123,2.664-3.12,3.683h-4.839
			c-0.074-1.974-0.212-4.394-0.446-6.973l2.95-2.6c0,0,1.295-1.061,3.035-2.77c0.837,1.649,1.489,3.386,1.942,5.179
			C408.378,368.616,408.539,369.784,408.562,370.959z M412.573,360.75c-0.148,1.982-0.457,3.948-0.923,5.879
			c-0.754,1.146-1.486,2.186-2.186,3.184c-0.064-1.783-0.541-4.999-0.594-5.221c-0.328-1.442-0.51-2.915-0.541-4.394
			c1.416-1.45,2.755-2.973,4.012-4.563C412.601,357.327,412.679,359.041,412.573,360.75z"/>
	</g>
</g>
<g id="Window">
	<g>
		
			<path style="fill:#FFFFFF;stroke:#263238;stroke-width:1.069;stroke-linecap:round;stroke-linejoin:round;stroke-miterlimit:10;" d="
			M420.032,102.755v194.256c0,4.964-3.736,8.99-8.367,8.99H59.816c-4.611,0-8.367-4.026-8.367-8.99V102.755
			c0-4.964,3.756-8.99,8.367-8.99h351.849C416.296,93.766,420.032,97.792,420.032,102.755z"/>
		<path style="fill:#C6FF00;" d="M152.994,278.643H70.991c-3.473,0-6.288-2.815-6.288-6.288V134.083
			c0-3.473,2.815-6.288,6.288-6.288h82.003c3.473,0,6.288,2.815,6.288,6.288v138.272
			C159.282,275.828,156.467,278.643,152.994,278.643z"/>
		
			<path style="fill:#FFFFFF;stroke:#263238;stroke-width:1.069;stroke-linecap:round;stroke-linejoin:round;stroke-miterlimit:10;" d="
			M100.185,161.286c0,4.935-2.462,9.286-6.24,11.918c-2.345,1.624-5.2,2.579-8.267,2.579c-3.279,0-6.314-1.093-8.734-2.929
			c-3.502-2.653-5.763-6.845-5.763-11.568c0-8.012,6.495-14.507,14.497-14.507C93.691,146.779,100.185,153.273,100.185,161.286z"/>
		<g>
			<rect x="114.796" y="152.952" style="fill:#263238;" width="30.286" height="2.867"/>
			<rect x="114.796" y="159.85" style="fill:#263238;" width="33.99" height="2.867"/>
			<rect x="114.796" y="166.747" style="fill:#263238;" width="30.286" height="2.867"/>
			<rect x="114.796" y="173.644" style="fill:#263238;" width="35.94" height="2.867"/>
		</g>
		
			<path style="fill:#FFFFFF;stroke:#263238;stroke-width:1.069;stroke-linecap:round;stroke-linejoin:round;stroke-miterlimit:10;" d="
			M143.433,216.427H80.425c-2.956,0-5.352-2.396-5.352-5.352v-12.95c0-2.956,2.396-5.352,5.352-5.352h63.008
			c2.956,0,5.352,2.396,5.352,5.352v12.95C148.786,214.031,146.389,216.427,143.433,216.427z"/>
		
			<path style="fill:#FFFFFF;stroke:#263238;stroke-width:1.069;stroke-linecap:round;stroke-linejoin:round;stroke-miterlimit:10;" d="
			M143.433,247.96H80.425c-2.956,0-5.352-2.396-5.352-5.352v-12.95c0-2.956,2.396-5.353,5.352-5.353h63.008
			c2.956,0,5.352,2.396,5.352,5.353v12.95C148.786,245.564,146.389,247.96,143.433,247.96z"/>
		
			<line style="fill:none;stroke:#263238;stroke-width:1.069;stroke-linecap:round;stroke-linejoin:round;stroke-miterlimit:10;" x1="307.826" y1="127.361" x2="307.826" y2="287.809"/>
		<path style="fill:#263238;" d="M420.032,102.152v12.958H51.449v-12.958c0-4.631,3.756-8.387,8.367-8.387h351.849
			C416.296,93.766,420.032,97.522,420.032,102.152z"/>
		<path style="fill:#FFFFFF;" d="M80.004,104.438c0,1.85-1.5,3.349-3.349,3.349c-1.85,0-3.35-1.5-3.35-3.349
			c0-1.85,1.5-3.349,3.35-3.349C78.505,101.089,80.004,102.588,80.004,104.438z"/>
		<path style="fill:#FFFFFF;" d="M95.471,104.438c0,1.85-1.5,3.349-3.35,3.349c-1.85,0-3.349-1.5-3.349-3.349
			c0-1.85,1.5-3.349,3.349-3.349C93.971,101.089,95.471,102.588,95.471,104.438z"/>
		<path style="fill:#FFFFFF;" d="M110.752,104.438c0,1.85-1.5,3.349-3.35,3.349s-3.349-1.5-3.349-3.349
			c0-1.85,1.5-3.349,3.349-3.349S110.752,102.588,110.752,104.438z"/>
		<g>
			<rect x="322.085" y="142.256" style="fill:#C6FF00;" width="80.461" height="2.665"/>
			<rect x="322.085" y="150.586" style="fill:#C6FF00;" width="38.857" height="2.665"/>
			<rect x="322.085" y="158.917" style="fill:#C6FF00;" width="62.197" height="2.665"/>
			<rect x="322.085" y="167.011" style="fill:#C6FF00;" width="55.557" height="2.901"/>
			<rect x="322.085" y="175.577" style="fill:#C6FF00;" width="53.818" height="2.665"/>
			<rect x="322.085" y="183.907" style="fill:#C6FF00;" width="34.968" height="2.665"/>
			<rect x="322.085" y="142.256" style="opacity:0.2;" width="80.461" height="2.665"/>
			<rect x="322.085" y="150.586" style="opacity:0.2;" width="38.857" height="2.665"/>
			<rect x="322.085" y="158.917" style="opacity:0.2;" width="62.197" height="2.665"/>
			<rect x="322.085" y="167.011" style="opacity:0.2;" width="55.557" height="2.901"/>
			<rect x="322.085" y="175.577" style="opacity:0.2;" width="53.818" height="2.665"/>
			<rect x="322.085" y="183.907" style="opacity:0.2;" width="34.968" height="2.665"/>
		</g>
		<circle style="fill:#263238;" cx="85.681" cy="160.674" r="8.33"/>
		<path style="fill:#263238;" d="M93.945,173.204c-2.345,1.624-5.2,2.579-8.267,2.579c-3.279,0-6.314-1.093-8.734-2.929
			c1.369-2.749,4.043-7.036,7.333-7.047C88.522,165.786,91.366,167.632,93.945,173.204z"/>
		<path style="fill:#FFFFFF;" d="M396.887,109.069h-80.268c-2.291,0-4.148-1.857-4.148-4.148v-0.967
			c0-2.291,1.857-4.148,4.148-4.148h80.268c2.291,0,4.148,1.857,4.148,4.148v0.967C401.035,107.212,399.178,109.069,396.887,109.069
			z"/>
		
			<line style="fill:none;stroke:#263238;stroke-width:1.069;stroke-linecap:round;stroke-linejoin:round;stroke-miterlimit:10;" x1="317.719" y1="101.392" x2="317.719" y2="107.266"/>
		<path style="fill:#C6FF00;" d="M143.47,269.77h-20.081c-2.182,0-3.95-1.768-3.95-3.95v-5.074c0-2.182,1.769-3.95,3.95-3.95h20.081
			c2.182,0,3.95,1.768,3.95,3.95v5.074C147.42,268.001,145.651,269.77,143.47,269.77z"/>
		<g>
			
				<polyline style="fill:none;stroke:#263238;stroke-width:1.069;stroke-linecap:round;stroke-linejoin:round;stroke-miterlimit:10;" points="
				403.53,256.987 328.843,256.987 328.843,217.849 			"/>
			
				<polyline style="fill:none;stroke:#263238;stroke-width:1.069;stroke-linecap:round;stroke-linejoin:round;stroke-miterlimit:10;" points="
				331.857,240.846 335.073,248.021 351.918,225.717 355.441,236.479 362.098,232.736 377.493,248.021 388.978,237.418 
				393.419,242.094 401.076,227.032 			"/>
			<rect x="321.681" y="254.533" style="fill:#C6FF00;" width="5.411" height="2.455"/>
			<rect x="321.681" y="245.566" style="fill:#C6FF00;" width="5.411" height="2.455"/>
			<rect x="321.681" y="236.6" style="fill:#C6FF00;" width="5.411" height="2.455"/>
			<rect x="321.681" y="227.634" style="fill:#C6FF00;" width="5.411" height="2.455"/>
			<rect x="321.681" y="218.668" style="fill:#C6FF00;" width="5.411" height="2.455"/>
			
				<rect x="358.795" y="265.49" transform="matrix(6.123234e-17 -1 1 6.123234e-17 99.8224 633.2134)" style="fill:#C6FF00;" width="15.445" height="2.41"/>
			
				<rect x="367.375" y="265.491" transform="matrix(6.123234e-17 -1 1 6.123234e-17 108.4021 641.7931)" style="fill:#C6FF00;" width="15.445" height="2.41"/>
			
				<rect x="375.955" y="265.491" transform="matrix(6.123234e-17 -1 1 6.123234e-17 116.9817 650.3727)" style="fill:#C6FF00;" width="15.445" height="2.41"/>
			
				<rect x="384.534" y="265.49" transform="matrix(6.123234e-17 -1 1 6.123234e-17 125.5613 658.9523)" style="fill:#C6FF00;" width="15.445" height="2.41"/>
			
				<rect x="393.114" y="265.49" transform="matrix(6.123234e-17 -1 1 6.123234e-17 134.1409 667.5319)" style="fill:#C6FF00;" width="15.445" height="2.41"/>
			
				<rect x="349.992" y="265.49" transform="matrix(6.123234e-17 -1 1 6.123234e-17 91.0193 624.4103)" style="fill:#C6FF00;" width="15.445" height="2.41"/>
			
				<rect x="341.189" y="265.491" transform="matrix(6.123234e-17 -1 1 6.123234e-17 82.2162 615.6072)" style="fill:#C6FF00;" width="15.445" height="2.41"/>
			
				<rect x="332.386" y="265.491" transform="matrix(6.123234e-17 -1 1 6.123234e-17 73.4131 606.8041)" style="fill:#C6FF00;" width="15.445" height="2.41"/>
			
				<rect x="323.583" y="265.49" transform="matrix(6.123234e-17 -1 1 6.123234e-17 64.6099 598.0009)" style="fill:#C6FF00;" width="15.445" height="2.41"/>
		</g>
		<g>
			<g>
				<path style="fill:#263238;" d="M261.645,134.391c-8.318,0.169-14.924,7.048-14.756,15.365
					c0.164,8.081,6.675,14.592,14.756,14.756l0,0c8.318,0.168,15.197-6.438,15.365-14.756c0.168-8.318-6.438-15.197-14.756-15.365
					C262.052,134.387,261.849,134.387,261.645,134.391z"/>
				<path style="fill:#FFFFFF;" d="M271.198,144.623c-0.221-0.868-0.894-1.548-1.759-1.777c-1.561-0.42-7.8-0.42-7.8-0.42
					s-6.239,0-7.794,0.42c-0.864,0.235-1.536,0.912-1.765,1.777c-0.551,3.198-0.551,6.466,0,9.664
					c0.231,0.864,0.903,1.54,1.765,1.777c1.555,0.42,7.794,0.42,7.794,0.42s6.239,0,7.8-0.42c0.861-0.236,1.531-0.914,1.759-1.777
					C271.758,151.089,271.758,147.82,271.198,144.623z"/>
				<polygon style="fill:#263238;" points="259.603,152.423 259.603,146.486 264.817,149.454 				"/>
			</g>
			<g>
				<path style="fill:#263238;" d="M202.321,134.427c-8.298,0-15.025,6.727-15.025,15.025c0,8.298,6.727,15.025,15.025,15.025
					c8.298,0,15.025-6.727,15.025-15.025C217.346,141.154,210.619,134.427,202.321,134.427z"/>
				<path style="fill:#FFFFFF;" d="M199.791,159.086h3.888v-9.733h2.709l0.291-3.258h-3v-1.878c0-0.77,0.15-1.07,0.897-1.07h2.104
					v-3.385h-2.69c-2.892,0-4.198,1.277-4.198,3.714v2.597h-2.024v3.287h2.024V159.086z"/>
			</g>
			<g>
				<path style="fill:#263238;" d="M202.229,195.478c-8.319-0.003-15.066,6.738-15.07,15.057
					c-0.003,8.319,6.738,15.066,15.057,15.07c8.319,0.003,15.066-6.738,15.07-15.057c0-0.004,0-0.008,0-0.012
					C217.276,202.223,210.541,195.488,202.229,195.478z"/>
				<path style="fill:#FFFFFF;" d="M202.229,203.346c2.345,0,2.623,0,3.548,0.049c0.556,0.008,1.107,0.11,1.629,0.302
					c0.379,0.143,0.722,0.366,1.006,0.654c0.292,0.283,0.516,0.63,0.654,1.012c0.197,0.521,0.299,1.073,0.302,1.629
					c0.043,0.926,0.056,1.234,0.056,3.542c0,2.308,0,2.623-0.056,3.548c-0.003,0.557-0.106,1.108-0.302,1.629
					c-0.137,0.382-0.361,0.726-0.654,1.006c-0.282,0.292-0.626,0.517-1.006,0.66c-0.522,0.193-1.073,0.295-1.629,0.302
					c-0.926,0.043-1.203,0.049-3.548,0.049c-2.345,0-2.623,0-3.548-0.049c-0.556-0.008-1.107-0.11-1.629-0.302
					c-0.38-0.143-0.724-0.369-1.006-0.66c-0.293-0.28-0.517-0.624-0.654-1.006c-0.197-0.521-0.299-1.073-0.302-1.629
					c-0.043-0.926-0.056-1.203-0.056-3.548c0-2.345,0-2.617,0.056-3.542c0.004-0.557,0.106-1.108,0.302-1.629
					c0.138-0.383,0.362-0.729,0.654-1.012c0.284-0.288,0.627-0.511,1.006-0.654c0.522-0.192,1.073-0.294,1.629-0.302
					C199.606,203.352,199.884,203.346,202.229,203.346 M202.229,201.766c-2.382,0-2.684,0-3.616,0.049
					c-0.716,0.01-1.425,0.139-2.098,0.383c-1.18,0.455-2.112,1.387-2.567,2.567c-0.254,0.682-0.392,1.402-0.407,2.129
					c-0.043,0.938-0.056,1.234-0.056,3.616c0,2.382,0,2.684,0.056,3.622c0.016,0.728,0.153,1.447,0.407,2.129
					c0.448,1.191,1.381,2.136,2.567,2.598c0.682,0.255,1.401,0.393,2.129,0.407c0.932,0.043,1.234,0.049,3.616,0.049
					c2.382,0,2.684,0,3.616-0.049c0.728-0.014,1.447-0.152,2.129-0.407c1.18-0.455,2.112-1.388,2.567-2.567
					c0.254-0.682,0.391-1.402,0.407-2.129c0.043-0.938,0.055-1.234,0.055-3.622s0-2.678-0.055-3.616
					c-0.016-0.728-0.153-1.447-0.407-2.129c-0.455-1.18-1.387-2.112-2.567-2.567c-0.682-0.255-1.401-0.393-2.129-0.407
					c-0.932-0.043-1.234-0.049-3.616-0.049"/>
				<path style="fill:#FFFFFF;" d="M202.229,206.03c-2.491-0.004-4.514,2.013-4.517,4.505c-0.003,2.492,2.013,4.514,4.505,4.517
					c2.492,0.003,4.514-2.013,4.517-4.505c0-0.004,0-0.008,0-0.012C206.734,208.047,204.717,206.03,202.229,206.03 M202.229,213.435
					c-1.615,0-2.925-1.31-2.925-2.925c0-1.615,1.309-2.925,2.925-2.925c1.615,0,2.925,1.31,2.925,2.925c0,0,0,0,0,0
					C205.154,212.126,203.844,213.435,202.229,213.435"/>
			</g>
			<g>
				<path style="fill:#263238;stroke:#263238;stroke-width:1.069;stroke-linecap:round;stroke-linejoin:round;" d="M262.21,224.494
					L262.21,224.494c-7.926,0-14.352-6.426-14.352-14.352l0,0c0-7.926,6.426-14.352,14.352-14.352l0,0
					c7.926,0,14.352,6.426,14.352,14.352l0,0l0,0C276.562,218.068,270.136,224.494,262.21,224.494z"/>
				<path style="fill:#FFFFFF;" d="M254.569,214.956c1.434,0.921,3.102,1.409,4.806,1.408c5.818,0,9.111-4.918,8.921-9.329
					c0.608-0.446,1.133-0.995,1.552-1.621c-0.572,0.253-1.179,0.419-1.8,0.493c0.654-0.392,1.143-1.008,1.377-1.734
					c-0.614,0.37-1.287,0.632-1.99,0.776c-1.186-1.264-3.172-1.328-4.436-0.142c-0.817,0.766-1.164,1.91-0.91,3.001
					c-2.521-0.124-4.871-1.315-6.462-3.274c-0.832,1.432-0.407,3.265,0.97,4.185c-0.497-0.015-0.984-0.148-1.42-0.388
					c-0.012,1.502,1.042,2.803,2.514,3.103c-0.46,0.126-0.944,0.143-1.412,0.051c0.408,1.279,1.586,2.156,2.928,2.18
					C257.892,214.69,256.225,215.154,254.569,214.956z"/>
			</g>
			<g>
				<path style="fill:#263238;" d="M261.725,259.673c-8.319,0-15.063,6.744-15.063,15.064c0,8.319,6.744,15.063,15.063,15.063
					c8.319,0,15.064-6.744,15.064-15.063C276.78,266.421,270.041,259.682,261.725,259.673z"/>
				<rect x="254.018" y="270.789" style="fill:#FFFFFF;" width="3.314" height="10.701"/>
				<path style="fill:#FFFFFF;" d="M255.659,269.39c1.092,0.009,1.985-0.87,1.993-1.962c0.009-1.092-0.87-1.985-1.962-1.993
					c-1.092-0.009-1.985,0.87-1.993,1.962c0,0.005,0,0.01,0,0.016C253.693,268.5,254.571,269.385,255.659,269.39L255.659,269.39z"/>
				<path style="fill:#FFFFFF;" d="M262.632,275.878c0-1.509,0.688-2.4,2.017-2.4c1.329,0,1.798,0.86,1.798,2.4v5.613h3.299v-6.754
					c0-2.861-1.626-4.252-3.909-4.252c-1.311-0.017-2.535,0.657-3.221,1.775v-1.431h-3.182v10.702h3.182L262.632,275.878z"/>
			</g>
			<g>
				<path style="fill:#263238;" d="M202.223,289.74L202.223,289.74c-8.319,0-15.063-6.744-15.063-15.063l0,0
					c0-8.319,6.744-15.064,15.063-15.064l0,0c8.319,0,15.064,6.744,15.064,15.064l0,0
					C217.286,282.996,210.542,289.74,202.223,289.74z"/>
				<path style="fill:#FFFFFF;" d="M200.009,280.385c0.434-0.082,0.844-0.262,1.197-0.527c0.303-0.228,0.558-0.512,0.753-0.836
					c0.318-0.502,0.483-1.086,0.475-1.68c0.014-0.546-0.13-1.085-0.414-1.552c-0.29-0.439-0.72-0.768-1.22-0.934
					c0.306-0.142,0.58-0.345,0.806-0.595c0.343-0.445,0.516-0.998,0.49-1.559c0.014-0.576-0.158-1.141-0.49-1.612
					c-0.675-0.796-1.695-1.214-2.734-1.122h-5.107v10.544h4.738C199.007,280.524,199.512,280.481,200.009,280.385z M195.866,271.799
					h2.297c0.423-0.013,0.845,0.043,1.25,0.166c0.382,0.164,0.612,0.559,0.565,0.972c0.038,0.366-0.126,0.724-0.429,0.934
					c-0.341,0.186-0.727,0.274-1.115,0.256h-2.568V271.799z M195.866,278.698v-2.817h2.598c0.36-0.015,0.719,0.044,1.055,0.173
					c0.445,0.197,0.716,0.653,0.678,1.137c0.057,0.541-0.22,1.063-0.7,1.318c-0.339,0.14-0.704,0.204-1.07,0.188H195.866z"/>
				<path style="fill:#FFFFFF;" d="M204.174,279.836c0.775,0.632,1.749,0.971,2.749,0.957c1.101,0.07,2.177-0.345,2.945-1.137
					c0.398-0.375,0.662-0.869,0.753-1.409h-2.086c-0.101,0.204-0.242,0.386-0.414,0.535c-0.324,0.251-0.727,0.38-1.137,0.362
					c-0.397,0.011-0.789-0.091-1.13-0.294c-0.541-0.37-0.849-0.995-0.813-1.649h5.686c0.021-0.518,0.001-1.037-0.06-1.552
					c-0.087-0.579-0.3-1.132-0.625-1.619c-0.332-0.503-0.799-0.903-1.348-1.152c-0.58-0.25-1.206-0.376-1.838-0.369
					c-1.041-0.041-2.053,0.352-2.794,1.085c-0.743,0.85-1.117,1.961-1.039,3.088C202.889,277.854,203.315,279.023,204.174,279.836z
					 M205.635,274.639c0.327-0.311,0.769-0.472,1.22-0.444c0.442-0.012,0.873,0.138,1.213,0.422c0.343,0.32,0.539,0.766,0.542,1.235
					h-3.517C205.138,275.399,205.328,274.974,205.635,274.639z"/>
				<rect x="204.422" y="270.572" style="fill:#FFFFFF;" width="4.594" height="1.069"/>
			</g>
			<path style="fill:none;stroke:#C6FF00;stroke-width:1.069;stroke-miterlimit:10;" d="M218.505,170.143h-32.367
				c-2.49,0-4.508-2.018-4.508-4.508v-32.367c0-2.49,2.018-4.508,4.508-4.508h32.367c2.49,0,4.508,2.018,4.508,4.508v32.367
				C223.013,168.125,220.995,170.143,218.505,170.143z"/>
			<path style="fill:none;stroke:#C6FF00;stroke-width:1.069;stroke-miterlimit:10;" d="M278.134,170.143h-32.367
				c-2.49,0-4.508-2.018-4.508-4.508v-32.367c0-2.49,2.018-4.508,4.508-4.508h32.367c2.49,0,4.508,2.018,4.508,4.508v32.367
				C282.641,168.125,280.623,170.143,278.134,170.143z"/>
			<path style="fill:none;stroke:#C6FF00;stroke-width:1.069;stroke-miterlimit:10;" d="M218.505,230.751h-32.367
				c-2.49,0-4.508-2.018-4.508-4.508v-32.367c0-2.49,2.018-4.508,4.508-4.508h32.367c2.49,0,4.508,2.018,4.508,4.508v32.367
				C223.013,228.733,220.995,230.751,218.505,230.751z"/>
			<path style="fill:none;stroke:#C6FF00;stroke-width:1.069;stroke-miterlimit:10;" d="M278.134,230.751h-32.367
				c-2.49,0-4.508-2.018-4.508-4.508v-32.367c0-2.49,2.018-4.508,4.508-4.508h32.367c2.49,0,4.508,2.018,4.508,4.508v32.367
				C282.641,228.733,280.623,230.751,278.134,230.751z"/>
			<path style="fill:none;stroke:#C6FF00;stroke-width:1.069;stroke-miterlimit:10;" d="M218.505,294.366h-32.367
				c-2.49,0-4.508-2.018-4.508-4.508v-32.367c0-2.49,2.018-4.508,4.508-4.508h32.367c2.49,0,4.508,2.018,4.508,4.508v32.367
				C223.013,292.348,220.995,294.366,218.505,294.366z"/>
			<path style="fill:none;stroke:#C6FF00;stroke-width:1.069;stroke-miterlimit:10;" d="M278.134,294.366h-32.367
				c-2.49,0-4.508-2.018-4.508-4.508v-32.367c0-2.49,2.018-4.508,4.508-4.508h32.367c2.49,0,4.508,2.018,4.508,4.508v32.367
				C282.641,292.348,280.623,294.366,278.134,294.366z"/>
			<rect x="247.858" y="236.494" style="fill:#C6FF00;" width="29.156" height="8.85"/>
			<rect x="247.858" y="175.779" style="fill:#C6FF00;" width="29.156" height="8.85"/>
			<rect x="187.645" y="175.779" style="fill:#C6FF00;" width="29.156" height="8.85"/>
			<rect x="187.645" y="236.494" style="fill:#C6FF00;" width="29.156" height="8.85"/>
			<rect x="247.858" y="236.494" style="fill:#263238;" width="29.156" height="8.85"/>
			<rect x="247.858" y="175.779" style="fill:#263238;" width="29.156" height="8.85"/>
			<rect x="187.645" y="175.779" style="fill:#263238;" width="29.156" height="8.85"/>
			<rect x="187.645" y="236.494" style="fill:#263238;" width="29.156" height="8.85"/>
		</g>
		
			<line style="fill:none;stroke:#263238;stroke-width:1.069;stroke-linecap:round;stroke-linejoin:round;stroke-miterlimit:10;" x1="80.004" y1="132.218" x2="145.082" y2="132.218"/>
	</g>
</g>
<g id="Character">
	<g>
		<path style="fill:#FFFFFF;" d="M165.21,389.235c0,0,2.334,7.968,1.552,12.899c0,0-0.932,8.139-1.964,12.481
			s-2.162,7.344,3.949,9.065c6.111,1.722,21.126-1.929,24.641-0.7c3.515,1.229,23.566-1.515,26.55-2.838
			c2.985-1.323,3.461-10.476-2.968-13.657C210.541,403.304,165.21,389.235,165.21,389.235z"/>
		<path style="fill:#C6FF00;" d="M166.097,405.965c0,0-1.736,9.778-1.688,11.557c0,0,4.995-1.463,9.113-1.459
			c4.118,0.004,16.47,0.158,21.371-0.578c4.901-0.736,14.32-4.195,18.677-4.219c4.357-0.025,8.253,0.737,8.253,0.737
			s0.511-3.497-6.375-5.31c-6.886-1.813-31.944-7.096-31.944-7.096S177.904,405.66,166.097,405.965z"/>
		<path style="fill:#FFFFFF;" d="M253.442,401.34c0,0,4.391-2.779,8.52-1.075c4.129,1.704,18.835,1.683,18.835,1.683
			s11.639-1.461,16.6,0.996c4.962,2.457,5.513,6.166,5.123,9.06c-0.39,2.894-7.712,10.595-17.323,10.977
			c-9.611,0.383-10.4-1.764-18.3-2.178c0,0-10.592-0.67-13.659-1.994c-3.067-1.324-7.055-2.424-6.941-8.145
			C246.412,404.942,253.442,401.34,253.442,401.34z"/>
		<path style="fill:#C6FF00;" d="M253.442,401.34c0,0,4.445-2.522,12.305-0.161c7.86,2.361,21.709-1.125,27.716,0.955
			c6.007,2.08,6.831,5.993,6.053,7.505s-5.87,7.621-11.554,8.595c-5.684,0.974-18.489,0.375-24.365,1.445
			c0,0-12.128,0.704-16.02-5.354C243.684,408.267,253.442,401.34,253.442,401.34z"/>
		<polygon style="fill:#263238;" points="88.419,396.964 81.023,383.166 101.197,362.349 119.414,364.516 129.721,380.234 
			127.149,389.235 		"/>
		<path style="fill:#263238;" d="M73.151,393.186c0,0,0.557,25.792,17.275,28.579c16.718,2.786,76.39-26.237,76.39-26.237
			s22.226,11.541,38.943,13.031c16.718,1.49,40.976,4.568,43.484,7.354c2.508,2.786,11.702-8.916,6.408-15.882
			c0,0-18.111-1.153-29.535-6.846c-11.424-5.693-48.76-27.285-56.283-28.609c-7.523-1.324-50.989,19.295-50.989,19.295
			l-13.095,2.786L73.151,393.186z"/>
		<path style="fill:#263238;" d="M122.623,374.773l-3.21-10.257c0,0,32.129-35.711,45.796-35.227
			c13.667,0.483,16.084,12.569,17.051,21.996c0.967,9.427,0,23.447,0,23.447l-31.424,3.931l-23.689,10.572L122.623,374.773"/>
		<path style="fill:none;stroke:#FFFFFF;stroke-width:1.069;stroke-linecap:round;stroke-linejoin:round;stroke-miterlimit:10;" d="
			M157.483,368.776c-0.041,0.568,1.101-16.271,5.923-23.804"/>
		<path style="fill:none;stroke:#FFFFFF;stroke-width:1.069;stroke-linecap:round;stroke-linejoin:round;stroke-miterlimit:10;" d="
			M168.54,344.693c-0.338,3.316-0.318,6.668,0.059,9.98"/>
		<path style="fill:none;stroke:#263238;stroke-width:1.069;stroke-linecap:round;stroke-linejoin:round;stroke-miterlimit:10;" d="
			M166.238,405.66c0,0-2.372,12.388-1.714,15.025c0.827,3.308,9.483,3.377,11.946,3.484c5.438,0.236,10.871-0.31,16.309-0.219
			c4.142,0.069,8.275,0.51,12.417,0.454c4.142-0.057,8.361-0.64,12.066-2.494c3.175-1.589,5.26-3.845,4.859-7.551
			c-0.527-4.877-2.161-6.108-8.896-6.876c-6.735-0.768-30.534-7.885-30.534-7.885S179.023,406.055,166.238,405.66z"/>
		<path style="fill:none;stroke:#263238;stroke-width:1.069;stroke-linecap:round;stroke-linejoin:round;stroke-miterlimit:10;" d="
			M166.238,405.66c0,0,1.582-6.853,0-13.971s10.676-0.923,10.676-0.923l6.59,7.117l-0.813,1.713"/>
		<path style="fill:#263238;" d="M165.21,421.94c0,0-0.158-2.442,2.347-3.101c1.779-0.468,3.943-0.149,5.753-0.096
			c3.13,0.091,6.258,0.23,9.39,0.257c10.538,0.09,20.775-3.251,31.3-3.646c1.852-0.069,5.157-0.568,6.804,0.586
			c2.636,1.845-2.236,5.479-4.067,6.219s-7.809,2.515-13.992,2.224c-6.183-0.291-15.862-0.254-20.053-0.208
			C178.5,424.223,170.639,425.832,165.21,421.94z"/>
		<path style="fill:none;stroke:#263238;stroke-width:1.069;stroke-linecap:round;stroke-linejoin:round;stroke-miterlimit:10;" d="
			M164.82,417.522c2.908-1.18,5.601-1.445,8.702-1.459c10.934-0.049,22.982,0.599,33.442-3.286c4.613-1.713,12.168-2.636,14.915,0"
			/>
		<path style="fill:none;stroke:#263238;stroke-width:1.069;stroke-linecap:round;stroke-linejoin:round;stroke-miterlimit:10;" d="
			M247.426,413.7c0,0,0.395,4.481,7.908,5.535c7.512,1.055,22.669,3.031,27.678,3.691c5.008,0.659,19.374-4.748,19.506-11.798
			c0.132-7.05-6.063-9.158-9.885-9.29c-3.822-0.132-22.01,0.659-26.887-0.659c-4.877-1.318-7.644-1.845-10.544-0.132"/>
		<path style="fill:none;stroke:#263238;stroke-width:1.069;stroke-linecap:round;stroke-linejoin:round;stroke-miterlimit:10;" d="
			M294.946,402.134c0,0,4.277,3.263,4.673,6.557c0.395,3.295-8.172,9.753-15.816,10.412c-7.644,0.659-17.454-0.69-21.841,1.039"/>
		<path style="fill:#263238;" d="M74.339,296.349c0,0,5.837,4.326,8.664,2.467c2.827-1.859,8.988-8.899,8.988-8.899l8.917,4.859
			l9.359,30.05l6.26,26.567l9.964,4.885v4.252c0,0-5.885,6.093-12.024,7.9c-6.139,1.807-12.725,3.562-17.769,2.388
			c-5.043-1.174-14.73-34.562-14.73-34.562L57.67,300.751L74.339,296.349z"/>
		
			<polygon style="fill:#FFFFFF;stroke:#263238;stroke-width:1.069;stroke-linecap:round;stroke-linejoin:round;stroke-miterlimit:10;" points="
			153.575,366.188 110.266,355.19 153.575,335.125 194.893,345.666 		"/>
		<polygon style="fill:#FFFFFF;" points="153.575,366.188 163.246,321.747 203.693,306.325 195.38,345.965 		"/>
		<polygon style="fill:#263238;" points="110.266,354.679 110.266,357.113 153.832,368.776 195.822,347.739 196.048,345.32 
			153.832,365.742 		"/>
		<path style="fill:#C6FF00;" d="M89.245,293.083c0,0,7.681,8.809,11.558,20c3.877,11.191,11.164,34.862,10.537,43.964
			l15.432-12.012c0,0-2.529-11.829-1.676-23.233c0.852-11.406,1.715-29.563-8.26-31.054c-10.413-2.225-24.319-5.627-24.319-5.627
			L89.245,293.083z"/>
		<path style="fill:#C6FF00;" d="M63.158,288.625c0,0-15.651,8.412-17.586,11.757c-1.935,3.346-3.077,2.378-2.34,7.721
			c0.737,5.343,4.607,22.749,5.543,28.629c0.936,5.88,4.136,31.281,4.136,31.281s5.064,2.235,8.891,3.032l-20.457,26.683
			c0,0,7.715,16.754,22.448,17.257c14.734,0.503,21.555-13.803,27.925-23.898c6.37-10.095,10.639-23.729,10.639-23.729l3.087-0.57
			l-1.146-14.488l-1.941,0.304c0,0-0.406-20.227-8.963-35.463C84.838,301.906,63.158,288.625,63.158,288.625z"/>
		<path style="opacity:0.2;" d="M96.347,287.712c0,0,6.815,3.476,7.511,7.854c0.696,4.378-1.54,9.818,1.729,11.953
			c3.269,2.135,7.113,2.593,8.958,8.292c1.845,5.698,1.312,32.062,0,36.578c-1.312,4.517-3.204-0.022-3.204-0.022l-2.17-11.516
			l-4.464-16.492l-4.36-12.397l-4-8.578l-4.798-9.771L96.347,287.712z"/>
		<g>
			<path style="fill:#FFFFFF;" d="M105.181,363.448c0,0,6.367,0.838,8.496-0.077c2.129-0.915,4.027-1.377,5.5-5.579
				c1.473-4.202,4.304-5.488,7.313-5.688c3.009-0.2,9.824-1.536,11.021-4.811l-2.952-0.211c0,0,1.876-0.543,2.742-1.502h-1.241
				c0,0-5.918-3.109-8.945-3.861c-3.027-0.752-6.25-1.53-9.096,0.929c-2.846,2.459-4.378,7.759-5.538,9.139
				c-1.16,1.38-4.23,3.096-8.263,3.081L105.181,363.448z"/>
			
				<path style="fill:none;stroke:#263238;stroke-width:1.069;stroke-linecap:round;stroke-linejoin:round;stroke-miterlimit:10;" d="
				M105.587,363.483c0,0,8.64,1.506,11.526-1.882c2.886-3.388,1.882-8.186,8.281-9.3c6.399-1.114,11.815-2.501,12.118-5.007
				c0,0-13.157-1.251-15.962,1.007"/>
			
				<path style="fill:none;stroke:#263238;stroke-width:1.069;stroke-linecap:round;stroke-linejoin:round;stroke-miterlimit:10;" d="
				M134.964,346.948c0.992-0.268,1.76-0.682,2.338-1.367c-1.971-0.378-3.942-0.756-5.913-1.134c-2.072-0.397-4.14-1.089-6.276-0.972
				c-1.955,0.107-3.618,1.287-4.897,2.708"/>
			
				<path style="fill:none;stroke:#263238;stroke-width:1.069;stroke-linecap:round;stroke-linejoin:round;stroke-miterlimit:10;" d="
				M135.723,344.955c-2.284-0.869-4.567-1.738-6.85-2.607c-3.155-1.201-6.863-2.361-9.736-0.588
				c-1.194,0.737-2.06,1.895-2.823,3.073c-0.828,1.279-1.569,2.613-2.216,3.992c-0.479,1.021-0.915,2.079-1.616,2.963
				c-1.872,2.359-4.765,2.951-7.774,3.081"/>
		</g>
		<path style="fill:#FFFFFF;" d="M62.036,288.625c0,0,8.692,3.397,12.304,7.725c0,0,8.712,5.924,12.333-0.589
			c3.621-6.512,4.028-19.617,4.028-19.617l3.291-7.497l-1.29-20.084l-9.418-14.152l-8.945-6.572l-9.711,18.743l-11.277,7.68
			l1.285,20.968L62.036,288.625z"/>
		<g>
			<path style="fill:#C6FF00;" d="M80.219,235.962c0,0,0.42,16.122-12.699,22.056c0,0-3.819,19.576,8.83,23.712
				c0,0,2.136,9.146-6.951,10.605c-11.729-5.748-9.664-11.895-9.664-11.895l-4.044-17.33l-1.29-11.614l14.998-11.763L80.219,235.962
				z"/>
			<path style="opacity:0.5;fill:#FFFFFF;" d="M80.219,235.962c0,0,0.42,16.122-12.699,22.056c0,0-3.819,19.576,8.83,23.712
				c0,0,2.136,9.146-6.951,10.605c-11.729-5.748-9.664-11.895-9.664-11.895l-4.044-17.33l-1.29-11.614l14.998-11.763L80.219,235.962
				z"/>
		</g>
		<path style="fill:none;stroke:#263238;stroke-width:1.069;stroke-linecap:round;stroke-linejoin:round;stroke-miterlimit:10;" d="
			M90.448,244.49c0,0,0.563,1.824,0.009,7.26c-0.554,5.435,0.78,12.387-1.019,17.273c-1.799,4.886-4.798,12.319-13.087,12.707
			c-6.358,0.012-12.999-8.951-13.822-14.905c0,0-7.673-3.603-6.761-8.702c0.911-5.099,5.838-3.729,7.127,0.022"/>
		<path style="fill:none;stroke:#263238;stroke-width:1.069;stroke-linecap:round;stroke-linejoin:round;stroke-miterlimit:10;" d="
			M83.547,254.61c-0.639,2.986-0.536,6.129,0.297,9.067c0.192,0.679,0.421,1.418,0.144,2.067c-0.248,0.582-0.865,0.941-1.49,1.043
			c-0.624,0.101-1.262-0.016-1.88-0.152"/>
		<path style="fill:none;stroke:#263238;stroke-width:1.069;stroke-linecap:round;stroke-linejoin:round;stroke-miterlimit:10;" d="
			M80.219,270.124c0,0-3.574,1.103-5.814-1.478"/>
		<path style="fill:none;stroke:#263238;stroke-width:1.069;stroke-linecap:round;stroke-linejoin:round;stroke-miterlimit:10;" d="
			M63.158,288.625c2.224-5.644-1.917-22.555-1.917-22.555"/>
		<path style="fill:none;stroke:#263238;stroke-width:1.069;stroke-linecap:round;stroke-linejoin:round;stroke-miterlimit:10;" d="
			M76.993,251.788c0,0-5.171-4.502-7.594,2.163"/>
		<path style="fill:none;stroke:#263238;stroke-width:1.069;stroke-linecap:round;stroke-linejoin:round;stroke-miterlimit:10;" d="
			M84.479,251.497c0.427-0.817,0.988-1.605,1.793-2.055c0.805-0.45,1.897-0.481,2.594,0.123"/>
		<path style="fill:#263238;" d="M76.299,258.018c0,1.072-0.386,1.941-0.862,1.941c-0.476,0-0.862-0.869-0.862-1.941
			c0-1.072,0.386-1.941,0.862-1.941C75.913,256.077,76.299,256.946,76.299,258.018z"/>
		<path style="fill:#263238;" d="M86.203,257.159c0,1.072-0.386,1.941-0.862,1.941c-0.476,0-0.862-0.869-0.862-1.941
			c0-1.072,0.386-1.941,0.862-1.941C85.817,255.218,86.203,256.087,86.203,257.159z"/>
		<path style="fill:none;stroke:#263238;stroke-width:1.069;stroke-linecap:round;stroke-linejoin:round;stroke-miterlimit:10;" d="
			M81.311,280.44c0,0-1.786,3.559,1.056,11.353"/>
		<path style="fill:#263238;" d="M61.241,255.218c0,0,19.317-7.159,18.977-19.257c0,0,3.223,7.805,10.482,11.837
			c0,0-2.077-11.057-4.498-15.869c-2.421-4.813-16.86-8.585-22.388-7.414c-5.528,1.171-16.195,3.382-18.406,21.203
			c-2.211,17.82,0,31.218-5.203,38.373c-5.203,7.154-4.412,19.512,3.133,21.203c0,0,1.07-3.669,3.802-6.27
			c2.732-2.602,16.273-10.146,16.273-10.146s0.583-13.537-2.172-22.807c0,0-5.783-1.785-5.475-7.947
			C56.348,253.32,61.241,255.218,61.241,255.218z"/>
		<path style="fill:#263238;" d="M85.564,230.983c3.768,4.085,4.994,5.972,7.138,9.725c4.19,7.335,8.815,15.598,10.918,23.779
			c1.658,6.455,0.576,13.568-2.927,19.237c-0.518,0.839-1.09,1.653-1.466,2.564c-0.45,1.091-0.603,2.279-0.756,3.449
			c-0.349,2.674-0.758,5.442-2.219,7.709c-1.462,2.267-4.286,3.888-6.867,3.106c-2.178-0.66-4.906-3.321-5.695-5.455
			c-2.013-5.447-3.263-8.918-2.378-14.657c0,0,9.147-8.058,9.082-17.33c-0.065-9.272,1.58-15.661-2.183-20.259
			C84.448,238.253,85.564,230.983,85.564,230.983z"/>
		<path style="fill:none;stroke:#263238;stroke-width:1.069;stroke-linecap:round;stroke-linejoin:round;stroke-miterlimit:10;" d="
			M63.413,288.877c0,0-12.686,6.623-17.84,11.505c-5.154,4.882-0.495,16.161,1.649,27.596c2.144,11.435,3.797,22.342,5.69,40.036
			c18.54,8.613,35.954,1.613,52.534-1.225l-1.146-14.488c-2.404,0.131-15.054,3.847-26.016,0.597
			c-5.681-1.684-10.315,0.771-14.222,5.226"/>
		<path style="fill:none;stroke:#263238;stroke-width:1.069;stroke-linecap:round;stroke-linejoin:round;stroke-miterlimit:10;" d="
			M61.087,354.28c5.653-2.785,10.765-3.96,15.963-1.685"/>
		<path style="fill:none;stroke:#263238;stroke-width:1.069;stroke-linecap:round;stroke-linejoin:round;stroke-miterlimit:10;" d="
			M75.947,352.165c-3.272-8.828-4.068-19.054-5.591-28.785"/>
		<path style="fill:none;stroke:#263238;stroke-width:1.069;stroke-linecap:round;stroke-linejoin:round;stroke-miterlimit:10;" d="
			M52.912,308.103c6.914,3.986,12.427,10.349,15.387,17.76"/>
		<path style="fill:none;stroke:#263238;stroke-width:1.069;stroke-linecap:round;stroke-linejoin:round;stroke-miterlimit:10;" d="
			M65.525,314.689c0.85,1.635,1.7,3.27,2.55,4.905"/>
		<path style="fill:none;stroke:#263238;stroke-width:1.069;stroke-linecap:round;stroke-linejoin:round;stroke-miterlimit:10;" d="
			M63.158,288.625c0,0,25.187,14.472,32.614,33.477c7.427,19.006,6.41,30.265,6.41,30.265"/>
		<path style="fill:none;stroke:#263238;stroke-width:1.069;stroke-linecap:round;stroke-linejoin:round;stroke-miterlimit:10;" d="
			M63.158,288.625c-2.686,5.775-0.19,12.526,3.658,17.129c4.01,4.799,10.553,7.394,16.619,8.343c0.66,0.103,1.45,0.268,1.679,0.895
			c0.118,0.323,0.042,0.684-0.058,1.013c-0.909,2.981-3.706,5.378-3.648,8.494c0.024,1.286,0.549,2.503,1.076,3.676
			c3.408,7.59,7.252,14.984,11.507,22.134"/>
		
			<path style="opacity:0.5;fill:none;stroke:#FFFFFF;stroke-width:1.069;stroke-linecap:round;stroke-linejoin:round;stroke-miterlimit:10;" d="
			M64.629,231.438c-1.128,6.544-3.503,12.87-6.959,18.54"/>
		
			<path style="opacity:0.5;fill:none;stroke:#FFFFFF;stroke-width:1.069;stroke-linecap:round;stroke-linejoin:round;stroke-miterlimit:10;" d="
			M53.351,234.41c-3.624,8.451-1.897,18.098-2.285,27.285c-0.348,8.25-2.484,16.421-6.218,23.786"/>
		<path style="fill:none;stroke:#263238;stroke-width:1.069;stroke-linecap:round;stroke-linejoin:round;stroke-miterlimit:10;" d="
			M102.358,367.358c0,0-12.738,34.471-25.047,43.303c-12.308,8.832-25.872,4.101-35.966-12.933l20.457-26.683"/>
		<path style="fill:none;stroke:#263238;stroke-width:1.069;stroke-linecap:round;stroke-linejoin:round;stroke-miterlimit:10;" d="
			M65.474,372.09c1.912,7.581,6.521,14.453,12.81,19.098"/>
		<path style="fill:none;stroke:#263238;stroke-width:1.069;stroke-linecap:round;stroke-linejoin:round;stroke-miterlimit:10;" d="
			M62.959,371.819c-0.926,5.584-0.639,11.365,0.835,16.83"/>
		<path style="fill:none;stroke:#263238;stroke-width:1.069;stroke-linecap:round;stroke-linejoin:round;stroke-miterlimit:10;" d="
			M84.479,285.688c0,0,11.621,12.399,18.705,33.906c7.084,21.507,8.156,33.303,8.156,33.303"/>
		<path style="fill:none;stroke:#263238;stroke-width:1.069;stroke-linecap:round;stroke-linejoin:round;stroke-miterlimit:10;" d="
			M75.437,297.221c0,0,7.522,4.986,11.236-1.46s1.001-8.654,1.001-8.654"/>
		<path style="fill:none;stroke:#263238;stroke-width:1.069;stroke-linecap:round;stroke-linejoin:round;stroke-miterlimit:10;" d="
			M85.95,284.77c2.348-0.384,4.713,0.44,6.913,1.345c2.602,1.07,5.184,2.296,7.315,4.132c2.131,1.836,3.789,4.361,4.073,7.16
			c0.314,3.096-0.99,6.514,0.615,9.18c1.799,2.99,6.267,3.277,8.376,6.057c1.016,1.34,1.332,3.069,1.577,4.733
			c1.389,9.423,1.355,20.124,0.138,29.571"/>
		<path style="fill:none;stroke:#263238;stroke-width:1.069;stroke-linecap:round;stroke-linejoin:round;stroke-miterlimit:10;" d="
			M113.156,303.495c2.568,2.398,4.975,5.047,6.543,8.191c1.567,3.145,2.231,6.852,1.227,10.219
			c-0.371,1.244-0.958,2.417-1.297,3.669c-0.322,1.189-0.414,2.426-0.505,3.654c-0.32,4.321-0.64,8.643-0.96,12.964"/>
		<path style="fill:none;stroke:#263238;stroke-width:1.069;stroke-linecap:round;stroke-linejoin:round;stroke-miterlimit:10;" d="
			M89.245,283.641c4.913,1.466,9.712,3.343,14.733,4.429c4.917,1.063,9.729,1.337,14.49,3.207c0.704,0.276,1.406,0.575,2.026,1.009
			c4.085,2.857,4.056,8.613,4.515,13.008c1.396,13.35-2.267,23.328,1.481,36.217"/>
		<path style="fill:none;stroke:#263238;stroke-width:1.069;stroke-linecap:round;stroke-linejoin:round;stroke-miterlimit:10;" d="
			M101.197,370.764c0,0,12.534,1.329,24.069-9.12"/>
		
			<path style="opacity:0.5;fill:none;stroke:#FFFFFF;stroke-width:1.069;stroke-linecap:round;stroke-linejoin:round;stroke-miterlimit:10;" d="
			M93.01,299.096c-2.298-3.353-3.871-7.431-3.267-11.45c0.391-2.605,1.656-4.983,2.801-7.355c1.494-3.095,2.823-6.303,3.443-9.683
			c0.62-3.38,0.496-6.963-0.84-10.129c-0.965-2.285-2.514-4.267-4.046-6.218"/>
		<g>
			<g>
				<polygon style="fill:#263238;" points="153.575,366.188 203.693,306.325 195.38,345.965 				"/>
				<polygon style="opacity:0.8;fill:#FFFFFF;" points="153.575,366.188 203.693,306.325 195.38,345.965 				"/>
			</g>
			<path style="fill:#263238;" d="M186.394,334.551c-0.696,2.699-2.706,4.513-4.491,4.053c-1.784-0.46-2.667-3.021-1.971-5.719
				c0.696-2.699,2.706-4.513,4.491-4.053C186.208,329.291,187.09,331.852,186.394,334.551z"/>
			
				<polygon style="fill:none;stroke:#263238;stroke-width:1.069;stroke-linecap:round;stroke-linejoin:round;stroke-miterlimit:10;" points="
				153.575,366.188 163.246,321.747 203.693,306.325 195.38,345.965 			"/>
		</g>
		<polygon style="fill:#263238;" points="151.93,365.225 161.412,321.086 202.372,305.683 203.883,306.061 163.246,321.747 
			153.575,366.188 		"/>
		<path style="opacity:0.2;" d="M63.158,288.625c0,0-3.557,9.808,3.658,17.129c7.215,7.321,18.299,9.238,18.299,9.238l-0.058,1.013
			c0,0-4.797,6.51-3.449,9.858c1.347,3.349,13.749,27.903,13.749,27.903l7.002-1.161c0,0,0.845-16.829-7.676-33.01
			C85.95,303.013,63.158,288.625,63.158,288.625z"/>
		<path style="opacity:0.2;" d="M59.771,373.694c0,0,0.497,7.251,3.255,11.494c0,0,0.321-5.339,0.767-10.051
			c0,0,4.082,10.463,12.153,14.155c0,0-4.754-9.444-6.299-14.155c0,0,16.196,2.878,31.83-5.329v-2.274
			c0,0-24.118,7.065-39.676,3.511L59.771,373.694z"/>
		<path style="opacity:0.2;" d="M70.576,324.827l10.049,25.481l12.077,3.972l-13.283-0.515c0,0-6.165-0.884-13.894,3.282
			c0,0,0.344-2.251,3.543-4.15c0,0-1.152-1.119-5.957,0.449c0,0,3.368-3.518,7.965-5.487L70.576,324.827z"/>
		<path style="opacity:0.2;" d="M115.048,305.033c-2.406-2.606,5.751,4.258,6.877,7.621c1.126,3.363,1.174,6.98,1.151,10.527
			c-0.022,3.547-0.097,7.146,0.805,10.577c0.603,2.295,1.895,5.488,2.609,7.751c0,0-6.567-0.915-8.327,0.682l1.465-16.617
			C119.629,325.575,124.987,315.802,115.048,305.033z"/>
		
			<polyline style="fill:none;stroke:#263238;stroke-width:1.069;stroke-linecap:round;stroke-linejoin:round;stroke-miterlimit:10;" points="
			137.512,347.294 154.579,338.743 158.288,339.568 		"/>
		
			<polyline style="fill:none;stroke:#263238;stroke-width:1.069;stroke-linecap:round;stroke-linejoin:round;stroke-miterlimit:10;" points="
			153.157,362.349 122.97,354.391 131.643,351.017 		"/>
		
			<line style="fill:none;stroke:#263238;stroke-width:1.069;stroke-linecap:round;stroke-linejoin:round;stroke-miterlimit:10;" x1="157.875" y1="341.939" x2="129.721" y2="356.058"/>
		
			<line style="fill:none;stroke:#263238;stroke-width:1.069;stroke-linecap:round;stroke-linejoin:round;stroke-miterlimit:10;" x1="157.448" y1="347.294" x2="136.479" y2="357.81"/>
		
			<line style="fill:none;stroke:#263238;stroke-width:1.069;stroke-linecap:round;stroke-linejoin:round;stroke-miterlimit:10;" x1="156.542" y1="352.556" x2="142.577" y2="359.56"/>
		
			<line style="fill:none;stroke:#263238;stroke-width:1.069;stroke-linecap:round;stroke-linejoin:round;stroke-miterlimit:10;" x1="127.494" y1="351.916" x2="154.678" y2="358.969"/>
		
			<line style="fill:none;stroke:#263238;stroke-width:1.069;stroke-linecap:round;stroke-linejoin:round;stroke-miterlimit:10;" x1="135.212" y1="349.694" x2="155.991" y2="355.085"/>
		
			<line style="fill:none;stroke:#263238;stroke-width:1.069;stroke-linecap:round;stroke-linejoin:round;stroke-miterlimit:10;" x1="139.417" y1="346.339" x2="156.542" y2="350.782"/>
		
			<line style="fill:none;stroke:#263238;stroke-width:1.069;stroke-linecap:round;stroke-linejoin:round;stroke-miterlimit:10;" x1="144.627" y1="343.729" x2="157.448" y2="347.056"/>
		
			<line style="fill:none;stroke:#263238;stroke-width:1.069;stroke-linecap:round;stroke-linejoin:round;stroke-miterlimit:10;" x1="149.97" y1="341.257" x2="158.288" y2="343.415"/>
		<path style="fill:none;stroke:#FFFFFF;stroke-width:1.069;stroke-linecap:round;stroke-linejoin:round;stroke-miterlimit:10;" d="
			M181.391,370.499c5.514,1.925,9.978,4.009,9.978,4.009"/>
		<path style="fill:none;stroke:#FFFFFF;stroke-width:1.069;stroke-linecap:round;stroke-linejoin:round;stroke-miterlimit:10;" d="
			M111.341,383.012c0,0,47.922-16.253,56.96-15.654c2.012,0.133,4.272,0.562,6.569,1.147"/>
		<path style="fill:none;stroke:#FFFFFF;stroke-width:1.069;stroke-linecap:round;stroke-linejoin:round;stroke-miterlimit:10;" d="
			M119.414,380.337c1.953-2.215,3.248-3.37,4.332-5.16"/>
	</g>
</g>
</svg>
