<?xml version="1.0" encoding="UTF-8"?>
<svg id="Calque_1" data-name="Calque 1" xmlns="http://www.w3.org/2000/svg" version="1.1" viewBox="0 0 500 500">
  <defs>
    <style>
      .cls-1 {
        opacity: .7;
      }

      .cls-1, .cls-2, .cls-3, .cls-4, .cls-5 {
        fill: #fff;
      }

      .cls-1, .cls-6, .cls-4, .cls-7 {
        stroke-width: 0px;
      }

      .cls-1, .cls-4 {
        isolation: isolate;
      }

      .cls-2, .cls-8, .cls-9, .cls-10, .cls-11, .cls-3, .cls-12, .cls-13, .cls-14, .cls-5, .cls-15 {
        stroke-linecap: round;
        stroke-linejoin: round;
      }

      .cls-2, .cls-8, .cls-10, .cls-11, .cls-15 {
        stroke-width: 1px;
      }

      .cls-2, .cls-9, .cls-10, .cls-11, .cls-3, .cls-12, .cls-13, .cls-14, .cls-5, .cls-15 {
        stroke: #263238;
      }

      .cls-8 {
        stroke: #fff;
      }

      .cls-8, .cls-9, .cls-11, .cls-13, .cls-14 {
        fill: none;
      }

      .cls-6, .cls-15 {
        fill: #c6ff00;
      }

      .cls-9 {
        stroke-dasharray: 0 0 2 2;
      }

      .cls-9, .cls-3, .cls-13, .cls-14 {
        stroke-width: 1px;
      }

      .cls-10, .cls-12, .cls-7 {
        fill: #263238;
      }

      .cls-12, .cls-5 {
        stroke-width: .8px;
      }

      .cls-4 {
        opacity: .5;
      }

      .cls-14 {
        stroke-dasharray: 0 0 2 2;
      }
    </style>
  </defs>
  <g id="Background_Simple" data-name="Background Simple">
    <g>
      <path class="cls-6" d="M49.3,267.9s14.1,75.7,85.3,116.8c71.3,41,159.8,31.2,231.8,25.2,72-6,120.6-54.7,119.5-117-1-62.2-58.2-71.8-98.4-136.7-40.1-64.9-41-88.1-110-121.3C208.6,1.7,114.9,42.8,74.7,123.7c-40.1,81-25.4,144.1-25.4,144.1Z"/>
      <path class="cls-1" d="M49.3,267.9s14.1,75.7,85.3,116.8c71.3,41,159.8,31.2,231.8,25.2,72-6,120.6-54.7,119.5-117-1-62.2-58.2-71.8-98.4-136.7-40.1-64.9-41-88.1-110-121.3C208.6,1.7,114.9,42.8,74.7,123.7c-40.1,81-25.4,144.1-25.4,144.1Z"/>
    </g>
  </g>
  <g id="Floor">
    <g>
      <ellipse class="cls-6" cx="219.3" cy="472.8" rx="186.8" ry="13.5"/>
      <ellipse class="cls-4" cx="219.3" cy="472.8" rx="186.8" ry="13.5"/>
    </g>
  </g>
  <g id="Graphics">
    <g>
      <path class="cls-13" d="M455.9,435.6H174.6c-6.6,0-12-5.4-12-12V52.3c0-6.6,5.4-12,12-12h281.4c6.6,0,12,5.4,12,12v371.3c0,6.6-5.4,12-12,12Z"/>
      <g>
        <g>
          <polyline class="cls-13" points="290.8 148.9 290.8 150.1 289.5 150.1"/>
          <line class="cls-9" x1="287.1" y1="150.1" x2="215.5" y2="150.1"/>
          <polyline class="cls-13" points="214.3 150.1 213 150.1 213 148.9"/>
          <line class="cls-14" x1="213" y1="146.5" x2="213" y2="90.8"/>
          <polyline class="cls-13" points="213 89.6 213 88.4 214.3 88.4"/>
          <line class="cls-9" x1="216.7" y1="88.4" x2="288.3" y2="88.4"/>
          <polyline class="cls-13" points="289.5 88.4 290.8 88.4 290.8 89.6"/>
          <line class="cls-14" x1="290.8" y1="92" x2="290.8" y2="147.7"/>
        </g>
        <rect class="cls-3" x="225.4" y="98.2" width="52.9" height="42"/>
        <line class="cls-13" x1="222.3" y1="95.1" x2="204.2" y2="81.1"/>
        <line class="cls-13" x1="282" y1="142.3" x2="297.6" y2="155.8"/>
        <polyline class="cls-13" points="203.5 85.7 202.9 79.8 209.1 79.8"/>
        <polyline class="cls-13" points="298 150.2 299.1 156.7 291.5 157"/>
      </g>
      <g>
        <rect class="cls-7" x="318.2" y="308.6" width="25.7" height="9.3"/>
        <polygon class="cls-7" points="354.3 313.2 337.9 303.7 337.9 322.7 354.3 313.2"/>
      </g>
      <g>
        <g>
          <path class="cls-12" d="M299.7,392.5h-59.1c-4.6,0-8.3-3.7-8.3-8.3v-131.2c0-4.6,3.7-8.3,8.3-8.3h59.1c4.6,0,8.3,3.7,8.3,8.3v131.2c0,4.6-3.7,8.3-8.3,8.3Z"/>
          <rect class="cls-5" x="235.6" y="254.7" width="69" height="129.1"/>
        </g>
        <g>
          <path class="cls-3" d="M291.8,412.9l5.3-20.5c.6-2.2.9-4.5.9-6.8v-24.6c0-.3.2-.6.2-1,0-2.1-2-3.9-4.4-3.9s-2.4.5-3.2,1.2c-.2-2-2.1-3.6-4.3-3.6s-2.9.7-3.7,1.8c-.2-2-2.1-3.5-4.3-3.5s-2.9.7-3.7,1.8c0-3.3,0-18.8-.5-20.1-1.6-4.1-9.6-2.2-8.2,2.1v36.1c0-2.5-1.9-5.9-2.7-8.3-.7-2.3-1.2-4.8-2.7-6.9-2.5-3.5-6.8-1.6-6.6,2.1.2,3.2,2.6,5.8,3.8,8.7,2.3,5.4.9,11.1,3.1,16.5.6,1.5,4.7,8.2,6.1,10,1.4,1.8,2.8,6.7,2.8,6.7l-2,12"/>
          <line class="cls-13" x1="270.2" y1="321.5" x2="270.2" y2="328.2"/>
          <line class="cls-13" x1="277.8" y1="334.6" x2="283.2" y2="334.6"/>
          <line class="cls-13" x1="255" y1="334.6" x2="260.5" y2="334.6"/>
          <line class="cls-13" x1="262.6" y1="327.4" x2="264.7" y2="330.8"/>
          <line class="cls-13" x1="275.2" y1="331.2" x2="278.2" y2="327.4"/>
        </g>
        <rect class="cls-13" x="238.2" y="304.7" width="64" height="8"/>
        <rect class="cls-13" x="240.3" y="261.7" width="30.7" height="36.6"/>
        <line class="cls-13" x1="240.3" y1="261.7" x2="271" y2="298.3"/>
        <polyline class="cls-13" points="239.4 369.1 239.4 316.9 301.8 316.9 301.8 368.7"/>
      </g>
      <g>
        <g>
          <path class="cls-12" d="M427.1,392.5h-59.1c-4.6,0-8.3-3.7-8.3-8.3v-131.2c0-4.6,3.7-8.3,8.3-8.3h59.1c4.6,0,8.3,3.7,8.3,8.3v131.2c0,4.6-3.7,8.3-8.3,8.3Z"/>
          <rect class="cls-5" x="363.1" y="254.7" width="69" height="129.1"/>
        </g>
        <rect class="cls-13" x="366.6" y="260.9" width="62.3" height="68.2"/>
        <line class="cls-13" x1="366.6" y1="335.4" x2="429" y2="335.4"/>
        <line class="cls-13" x1="366.6" y1="340.5" x2="429" y2="340.5"/>
        <line class="cls-13" x1="366.6" y1="345.5" x2="429" y2="345.5"/>
        <line class="cls-13" x1="366.6" y1="350.6" x2="429" y2="350.6"/>
        <line class="cls-13" x1="366.6" y1="355.6" x2="429" y2="355.6"/>
        <line class="cls-13" x1="366.6" y1="360.7" x2="429" y2="360.7"/>
        <line class="cls-13" x1="366.6" y1="365.7" x2="429" y2="365.7"/>
        <line class="cls-13" x1="366.6" y1="329.1" x2="429" y2="260.9"/>
      </g>
      <g>
        <path class="cls-12" d="M427.1,222.8h-59.1c-4.6,0-8.3-3.7-8.3-8.3V83.2c0-4.6,3.7-8.3,8.3-8.3h59.1c4.6,0,8.3,3.7,8.3,8.3v131.2c0,4.6-3.7,8.3-8.3,8.3Z"/>
        <rect class="cls-5" x="363.1" y="84.9" width="69" height="129.1"/>
      </g>
      <g>
        <polyline class="cls-13" points="283.3 240.2 283.3 200.9 338.7 200.9"/>
        <polygon class="cls-7" points="336.9 207 347.5 200.9 336.9 194.7 336.9 207"/>
      </g>
      <g>
        <line class="cls-13" x1="396.2" y1="239.2" x2="396.2" y2="209"/>
        <polygon class="cls-7" points="402.3 210.8 396.2 200.2 390 210.8 402.3 210.8"/>
      </g>
      <g>
        <line class="cls-13" x1="367.6" y1="406" x2="395.6" y2="406"/>
        <line class="cls-13" x1="367.6" y1="412.3" x2="395.6" y2="412.3"/>
        <line class="cls-13" x1="367.6" y1="418.6" x2="395.6" y2="418.6"/>
      </g>
      <g>
        <line class="cls-13" x1="299.9" y1="406" x2="327.8" y2="406"/>
        <line class="cls-13" x1="299.9" y1="412.3" x2="327.8" y2="412.3"/>
        <line class="cls-13" x1="299.9" y1="418.6" x2="327.8" y2="418.6"/>
      </g>
      <g>
        <line class="cls-13" x1="292.2" y1="213.4" x2="320.2" y2="213.4"/>
        <line class="cls-13" x1="292.2" y1="219.6" x2="320.2" y2="219.6"/>
        <line class="cls-13" x1="292.2" y1="225.9" x2="320.2" y2="225.9"/>
      </g>
      <g>
        <line class="cls-13" x1="313.2" y1="137.3" x2="341.1" y2="137.3"/>
        <line class="cls-13" x1="313.2" y1="143.6" x2="341.1" y2="143.6"/>
        <line class="cls-13" x1="313.2" y1="149.8" x2="341.1" y2="149.8"/>
      </g>
      <g>
        <line class="cls-13" x1="212.7" y1="158.9" x2="240.6" y2="158.9"/>
        <line class="cls-13" x1="212.7" y1="165.2" x2="240.6" y2="165.2"/>
        <line class="cls-13" x1="212.7" y1="171.5" x2="240.6" y2="171.5"/>
      </g>
    </g>
  </g>
  <g id="Plants">
    <g>
      <g>
        <g>
          <g>
            <path class="cls-6" d="M76.5,251.6s0-5.2-7.3-12.5-12-11.5-12-11.5c0,0-3.6,12,3.1,19.3s16.2,14.1,16.2,14.1v-9.4Z"/>
            <path class="cls-6" d="M65.9,284.1s0-5.2-7.3-12.5c-7.3-7.3-12-11.5-12-11.5,0,0-3.6,12,3.1,19.3,6.8,7.3,16.2,14.1,16.2,14.1v-9.4Z"/>
            <path class="cls-6" d="M76,260.5s.6-5.2,8.6-11.7c8-6.5,13.1-10.1,13.1-10.1,0,0,2.4,12.3-5.1,18.8-7.5,6.5-17.5,12.3-17.5,12.3l1-9.3Z"/>
            <path class="cls-6" d="M63.2,298.9s1.1-5.1,9.8-10.7c8.7-5.6,14.1-8.7,14.1-8.7,0,0,1.1,12.5-7.1,18.2s-18.7,10.4-18.7,10.4l2-9.2Z"/>
            <path class="cls-6" d="M65.6,340.8s0-5.2,7.3-12.5c7.3-7.3,12-11.5,12-11.5,0,0,3.6,12-3.1,19.3-6.8,7.3-16.2,14.1-16.2,14.1v-9.4h0Z"/>
            <path class="cls-6" d="M65.5,351s.7-5.2-5.4-13.4c-6.2-8.3-10.2-13-10.2-13,0,0-5.3,11.3.4,19.5,5.7,8.2,14,16.2,14,16.2l1.3-9.3Z"/>
            <path class="cls-6" d="M58.3,381.3s0-5.2,7.3-12.5c7.3-7.3,12-11.5,12-11.5,0,0,3.6,12-3.1,19.3-6.8,7.3-16.2,14.1-16.2,14.1v-9.4Z"/>
            <path class="cls-6" d="M63.2,408.8s-1.3-5,3.9-13.9c5.2-8.9,8.7-14.1,8.7-14.1,0,0,6.6,10.7,1.9,19.4-4.7,8.8-12.1,17.7-12.1,17.7l-2.4-9.1Z"/>
          </g>
          <path class="cls-11" d="M77.1,250.3c-.4,5.6-1.1,11.3-2,16.2-2.9,14.9-10.1,24.5-13,38-2.9,13.5,5.4,30.8,3.2,48.1-2.2,17.3-8.9,26.9-7,38.4,1.9,11.5,12,42.8,12,42.8"/>
          <line class="cls-11" x1="75.9" y1="263.9" x2="83.8" y2="257.9"/>
          <line class="cls-11" x1="76.3" y1="257" x2="73" y2="251.1"/>
          <path class="cls-11" d="M62.6,303.8s6.6-4.9,13.3-9.9"/>
          <path class="cls-11" d="M65.9,293.5s-5.5-10.8-11.7-17.9"/>
          <path class="cls-11" d="M65.9,348.2s5.1-10.1,14.1-18.8"/>
          <path class="cls-11" d="M64.6,355.5s-3.3-7.9-7.1-13.5c-3.8-5.7-4.4-6.4-4.4-6.4"/>
          <path class="cls-11" d="M58.3,390.9s2.6-6.7,5.9-12c3.3-5.3,7.7-10.1,7.7-10.1"/>
          <path class="cls-11" d="M65.6,417.9s-.8-6.2,2-11.5c2.7-5.3,5.9-12.2,7.1-15"/>
        </g>
        <g>
          <g>
            <path class="cls-6" d="M28.7,321.2s-.6-3.3,3.2-8.6c3.8-5.4,6.3-8.5,6.3-8.5,0,0,3.6,7.1.1,12.4s-8.6,10.6-8.6,10.6l-1-5.9Z"/>
            <path class="cls-6" d="M38.9,340.5s-.6-3.3,3.2-8.6c3.8-5.4,6.3-8.5,6.3-8.5,0,0,3.6,7.1.1,12.4s-8.6,10.6-8.6,10.6l-1-5.9Z"/>
            <path class="cls-6" d="M29.9,326.7s-.9-3.2-6.6-6.4c-5.7-3.2-9.3-4.9-9.3-4.9,0,0-.1,8,5.3,11.3,5.4,3.3,12.3,5.8,12.3,5.8l-1.6-5.7Z"/>
            <path class="cls-6" d="M42.1,349.4s-1.2-3.1-7.3-5.7c-6-2.6-9.8-3.9-9.8-3.9,0,0,.7,7.9,6.4,10.6,5.7,2.7,12.9,4.5,12.9,4.5l-2.2-5.5Z"/>
            <path class="cls-6" d="M45.2,376s-.6-3.3-5.9-7c-5.4-3.8-8.8-5.9-8.8-5.9,0,0-1,7.9,4.1,11.7s11.7,7.1,11.7,7.1l-1-5.9Z"/>
            <path class="cls-6" d="M46.4,382.4s-1-3.2,2-9c3-5.8,5-9.3,5-9.3,0,0,4.6,6.5,1.9,12.3-2.7,5.7-7,11.7-7,11.7l-1.8-5.7Z"/>
            <path class="cls-6" d="M55.5,408.7s.4-3.3,5.5-7.4c5.1-4.1,8.4-6.4,8.4-6.4,0,0,1.4,7.8-3.4,12-4.8,4.1-11.2,7.7-11.2,7.7l.7-5.9Z"/>
            <path class="cls-6" d="M54.2,400.6s-.6-3.3-5.9-7c-5.4-3.8-8.8-5.9-8.8-5.9,0,0-1,7.9,4.1,11.7,5,3.8,11.7,7.1,11.7,7.1l-1-5.9Z"/>
            <path class="cls-6" d="M54.1,418.3s.3-3.3-4-8.3-7-7.9-7-7.9c0,0-3,7.4.9,12.4,3.9,5,9.5,9.8,9.5,9.8l.5-5.9Z"/>
          </g>
          <path class="cls-11" d="M28.1,320.4c.9,3.4,1.9,7,3,9.9,3.4,9,9,14.3,12.3,22.4s0,19.9,3.2,30.5c3.3,10.6,8.5,15.9,8.6,23.3,0,7.4-2.9,28.1-2.9,28.1"/>
          <line class="cls-11" x1="30.4" y1="328.9" x2="24.8" y2="326"/>
          <line class="cls-11" x1="29.4" y1="324.6" x2="30.8" y2="320.5"/>
          <path class="cls-11" d="M43.1,352.4s-4.7-2.4-9.4-4.7"/>
          <path class="cls-11" d="M39.9,346.3s2.3-7.3,5.4-12.5"/>
          <path class="cls-11" d="M45.8,380.6s-4.3-5.7-10.9-10.3"/>
          <path class="cls-11" d="M47.4,385.1s1.2-5.3,3-9.3c1.8-4,2.1-4.5,2.1-4.5"/>
          <path class="cls-11" d="M55,412.2s3.7-4.5,6-6.2,3.9-3.4,3.9-3.4"/>
          <path class="cls-11" d="M55.2,406.6s-2.4-3.9-5-6.9c-2.6-3-5.9-5.5-5.9-5.5"/>
          <path class="cls-11" d="M53.6,424.3s-.2-4-2.5-7-5-7-6.1-8.6"/>
        </g>
      </g>
      <g>
        <path class="cls-7" d="M81.5,470.7h-40.4c-2,0-3.7-1.6-3.7-3.7v-35.9h47.7v35.9c0,2-1.6,3.7-3.7,3.7Z"/>
        <path class="cls-7" d="M84.7,437.3h-47.3c-2.1,0-3.7-1.7-3.7-3.7h0c0-2.1,1.7-3.7,3.7-3.7h47.3c2.1,0,3.7,1.7,3.7,3.7h0c0,2.1-1.7,3.7-3.7,3.7Z"/>
      </g>
    </g>
  </g>
  <g id="Character">
    <g>
      <g>
        <path class="cls-2" d="M99.5,458.7s-2.6,10-2.6,12.5-.6,4.2,4.8,5.3c5.5,1.1,9,.4,9.9-2.1s1.5-15.1,1.5-15.1l-13.2-2.5-.4,2Z"/>
        <path class="cls-2" d="M111.6,474.3c.1-.4.2-1,.4-1.8-5.6.2-12.3-.8-15.1-1.2,0,2.4-.5,4,4.8,5,5.5,1.1,9,.4,9.9-2.1Z"/>
      </g>
      <g>
        <path class="cls-2" d="M227.2,459.6s4.2,1.5,10.3,3.4c6.1,1.9,18.5,4,19.8,4.2,1.3.2,1.3,2.7.2,3.8-1.1,1.1-6.5,4.2-13,5.9-6.5,1.7-28.6,3.2-30.5,1.9-1.6-1.1-1.1-11.4-.4-13.7.6-2.3,13.7-5.5,13.7-5.5Z"/>
        <path class="cls-2" d="M257.5,470.9c.7-.7.9-2.1.6-2.9-4.3,3.4-12.8,7.1-21.4,8-8.7.9-19.9.2-23.6-.1.2,1.4.4,2.5.9,2.8,1.9,1.3,24-.2,30.5-1.9,6.5-1.7,12-4.8,13-5.9Z"/>
      </g>
      <path class="cls-10" d="M125.5,276.3s-3.7,22-.8,34.2c0,0-5.3,48.4-6.1,70,0,0-11.4,37.9-13,49.7-1.6,11.8-6.1,28.5-6.1,28.5,0,0,2.4,1.6,8.1,2.8,5.7,1.2,6.5-3.3,6.5-3.3,0,0,31.3-72,33.8-82.6s10.6-48.4,10.6-48.4l33.8,61.9s1.6,21.2,6.5,33.4c4.9,12.2,14.2,46,14.2,46,0,0,6.1.4,11-1.2,4.9-1.6,4.9-4.1,4.9-4.1,0,0-7.3-27.3-7.3-36.2s-2.8-39.5-4.9-48-15.9-53.3-17.9-58.2-6.5-20.3-6.5-20.3l-2.8-24s-35,9.8-63.9,0Z"/>
      <path class="cls-2" d="M151.4,172.6s-1.9-4.1-1.9-6.5-1.2-14.3-1.2-14.3c0,0,18.1-32.7,23.1-39,5-6.2,10.9-10.9,10.9-10.9,0,0,12.2-2.5,14.6-2.5s5.3-1.2,5.3-2.8-4.1-1.2-6.5-1.2-5.6-2.2-5.6-2.2c0,0,4.1-11.6,5.3-16.2.7-2.4,2.8-7.5,1.2-7.5s-1.9,1.2-2.8,3.1c-.9,1.9-5,8.1-5,8.1l.9-13.7s-1.2-1.9-2.2.3c-.9,2.2-2.8,8.7-3.1,10.3s-1.6,3-1.6,3l-1.2-10.2s-2.1-2.2-2.5,1.7c-.2,2.2,0,9.3,0,10.6s-1.3-1.8-1.3-1.8c0,0-.7-3.4-1.6-3.8-.9-.5-1.6.6-1.2,3.1.3,2.5-.3,12.8-.3,12.8,0,0-1.9,2.5-4.7,5.9s-25.2,23.7-33.7,30.2-9.3,11.8-10.6,18.4c-1.2,6.5-2.5,44.6-2.5,58.3s1.2,35.5,2.2,42.7c.9,7.2-.6,16.5-1.9,21.5-1.2,5,0,9.3,3.4,11.8,3.4,2.5,18.1,4.1,30.2,4.1s24.6-1.2,28.4-2.5c3.7-1.2,6.5-1.6,6.5-6.5s-2.5-15-2.5-17.8,5-31.8,5-31.8c0,0,31.8,9.7,37.7,7.5s55.5-48.9,55.5-48.9c0,0,7.8-3.1,11.8-3.7,4.1-.6,10.3-3.4,10.6-4.4s-.6-.6-3.1-.6-6.5,1.2-6.5,1.2c0,0,8.5-5.4,10-5.9,1-.4,2.8-2.7.3-2.2-3.1.6-10.6,2.8-10.6,2.8l10-6.2s1.6-2.5-.3-2.5-11.2,5.6-11.2,5.6l7.3-6.8c1.4-1.3.2-3.1-1.4-2.2,0,0-8.4,4.8-8.4,4.8-3.1,1.9-6.5,2.9-6.5,2.9l-1.6.9s.6-3.4.6-5-.9-5.6-3.1-5.9c-2.2-.3-.3,2.8-.3,4.4s-3.1,9.7-3.1,10.9v3.7s-10.6,9.4-20.3,14.3c-9.7,5-31.5,21.5-31.5,21.5,0,0-24.9-12.8-30.5-17.5-5.6-4.7-11.8-10.3-18.1-15.3s-10.3-7.2-10.3-7.2l-20.3-.9Z"/>
      <g>
        <path class="cls-15" d="M255.5,195.8c-10.6,6.8-25,17.7-25,17.7,0,0-24.9-12.8-30.5-17.5-5.6-4.7-11.8-10.3-18.1-15.3-6.2-5-10.3-7.2-10.3-7.2l-20.3-.9s-1.9-4.1-1.9-6.5-1.2-14.3-1.2-14.3c0,0,9.3-16.9,16.4-28.7-.2-.2-.4-.4-.6-.6-3.5-3.5-8.3-5.4-12.5-6.4-5.9,5.2-11.7,10.2-15.2,12.9-8.4,6.5-9.4,11.8-10.6,18.4-1.2,6.5-2.5,44.6-2.5,58.3s1.2,35.5,2.2,42.7-.6,16.5-1.9,21.5c-1.2,5,0,9.3,3.4,11.8,3.4,2.5,18.1,4.1,30.2,4.1s24.6-1.2,28.4-2.5c3.7-1.2,6.5-1.6,6.5-6.5s-2.5-15-2.5-17.8,5-31.8,5-31.8c0,0,31.8,9.7,37.7,7.5,3.2-1.2,18.8-15.1,32.6-27.7-2.8-4.9-6.4-8.6-9.5-11.1Z"/>
        <path class="cls-11" d="M185,186.3s-12.5,3.4-13.3,12.9"/>
        <path class="cls-11" d="M194.7,227.1s-14.6-4-22.2-11.6"/>
        <path class="cls-11" d="M186.5,225s-12.5,3.4-23.9-1.1"/>
        <path class="cls-11" d="M133.6,204.9s4,27.7,23,41.5"/>
        <path class="cls-11" d="M162.7,253.9c1.4.4,3,.7,4.5,1"/>
        <path class="cls-11" d="M133.6,232.5s7.1,11.7,21.4,18.5"/>
        <path class="cls-11" d="M129.9,171.1s12.2-6.1,19.4-.4"/>
        <path class="cls-11" d="M133.3,143.3s11,3.8,14.1,11.4"/>
        <path class="cls-11" d="M140.6,140.7s3.8,2.7,5.3,8.4"/>
      </g>
      <g>
        <path class="cls-2" d="M192.5,122.7s1.9,10.6,1.9,13.4-3.1,3.7-1.9,7.5,4.1,4.1,3.4,7.2c-.6,3.1-4.7,5-4.7,5,0,0-2.2,8.7-4.4,12.5s-10.3.9-10.3.9l-.6,10s-2.8,4.1-13.1,2.8c-10.3-1.2-17.1-4.7-17.1-4.7l-1.6-2.2s8.1-4.1,8.4-6.9c.3-2.8,0-9.3,0-18.7s-2.8-27.4,12.5-32.1c15.3-4.7,27.4,5.3,27.4,5.3Z"/>
        <path class="cls-10" d="M173.5,148.3s-3.5-8.1-7.5-3.5c-2.6,3,.6,11.8,2.2,13.1,1.6,1.2,5,.6,5,.6,0,0-5,5-10.3,5s-10-5-13.4-13.7c-3.4-8.7-5.9-23.7-2.2-32.7,3.7-9,23.1-9.3,27.4-9.3s10.9,2.5,10.9,2.5c0,0,14-1.2,14.3,3.4.3,4.7-1.9,5-1.9,5,0,0,10,5.3,5.3,7.5-4.7,2.2-11.8.9-16.5.9s-6.2,3.4-6.2,3.4c0,0,4.4,2.8,2.8,4.1-1.6,1.2-7.2,3.7-7.8,5.9-.6,2.2,2.2,5.6.3,7.2-1.9,1.6-2.5.7-2.5.7Z"/>
        <path class="cls-7" d="M190.8,144.5c0,1.6-.7,2.9-1.5,2.9s-1.5-1.3-1.5-2.9.7-2.9,1.5-2.9,1.5,1.3,1.5,2.9Z"/>
        <path class="cls-11" d="M185.7,140.9s2-4.7,5.2-2.2"/>
      </g>
      <polyline class="cls-8" points="158.5 327.2 155.7 321.9 141.4 318.3"/>
    </g>
  </g>
</svg>