<?xml version="1.0" encoding="utf-8"?>
<!-- Generator: Adobe Illustrator 27.5.0, SVG Export Plug-In . SVG Version: 6.00 Build 0)  -->
<svg version="1.1" xmlns="http://www.w3.org/2000/svg" xmlns:xlink="http://www.w3.org/1999/xlink" x="0px" y="0px"
	 viewBox="0 0 499.999 500" style="enable-background:new 0 0 499.999 500;" xml:space="preserve">
<g id="BACKGROUND">
	<ellipse style="opacity:0.26;fill:#C3B7FC;" cx="250.135" cy="373.739" rx="215.123" ry="30.789"/>
</g>
<g id="OBJECTS">
	<g>
		<g>
			<path style="fill:#ECBF4C;" d="M439.366,180.898c-0.018,1.288-0.058,2.578-0.121,3.869c-0.431,8.724-1.903,17.431-4.293,25.942
				c-0.393,1.392-0.806,2.777-1.247,4.159c-2.579,8.1-5.984,15.99-10.113,23.515c-0.737,1.347-1.497,2.682-2.282,4.006
				c-4.966,8.377-10.831,16.246-17.436,23.373c-1.101,1.191-2.226,2.361-3.368,3.507c-8.658,8.693-18.459,16.14-29.081,21.871
				c-1.895,1.024-3.813,1.993-5.761,2.899c-2.235,1.051-4.503,2.023-6.802,2.915c-2.912,1.128-7.56,3.133-11.489,3.126
				c-1.276-0.004-2.478-0.219-3.516-0.744c-0.22-0.115-0.432-0.238-0.638-0.379c-5.595-3.832-2.674-17.937-1.667-23.656
				c0.359-2.051,0.774-4.083,1.242-6.099c0.559-2.442,1.198-4.861,1.905-7.253c2.178-7.392,5.007-14.557,8.31-21.521
				c0.777-1.648,1.587-3.283,2.418-4.909c0.028-0.058,0.06-0.114,0.088-0.172c3.661-7.136,7.783-14.06,12.171-20.802
				c0.819-1.268,1.655-2.532,2.502-3.789c2.819-4.21,5.73-8.349,8.68-12.427c1.052-1.455,2.11-2.902,3.164-4.347
				c0.795-1.085,1.591-2.17,2.384-3.252c4.556-6.218,9.097-12.416,13.399-18.809c0.758-1.124,1.505-2.252,2.245-3.389
				c1.153-1.765,2.28-3.548,3.383-5.349c2.597-4.246,5.074-8.57,7.35-12.993c0.691-1.335,1.359-2.678,2.01-4.032
				c0.423-0.884,0.839-1.769,1.245-2.659c0.884-1.943,4.843-9.645,6.738-15.239c0.138-0.403,0.36-0.733,0.638-0.982
				c1.017-0.931,2.759-0.815,3.581,0.517c0.009,0.015,0.019,0.029,0.028,0.044c4.627,7.514,8.06,15.378,10.408,23.435
				c0.356,1.228,0.69,2.461,0.995,3.696C438.551,163.487,439.486,172.186,439.366,180.898z"/>
			<path style="fill:#E58F31;" d="M414.611,190.827c8.254-3.309,16.504-6.617,24.755-9.929c-0.018,1.288-0.058,2.578-0.121,3.869
				c-8.84,3.546-17.68,7.091-26.521,10.634c-3.689,8.595-8.046,16.919-12.881,24.961c1.396-0.293,2.79-0.593,4.185-0.906
				c2.976-0.669,5.943-1.383,8.898-2.144c7.427-1.911,14.778-4.114,22.026-6.603c-0.393,1.392-0.806,2.777-1.247,4.159
				c-1.728,0.579-3.46,1.14-5.198,1.685c-6.325,1.988-12.716,3.759-19.159,5.312c-3.171,0.767-6.352,1.48-9.547,2.139
				c-0.779,0.159-1.647,0.422-2.498,0.483c-4.245,6.75-8.802,13.298-13.569,19.636c-0.131,0.174-0.265,0.345-0.396,0.519
				c13.458-1.839,26.878-3.923,40.255-6.26c-0.737,1.347-1.497,2.682-2.282,4.006c-13.642,2.346-27.332,4.431-41.052,6.258
				c-4.669,5.967-9.518,11.817-14.074,17.87c12.551-0.702,25.121-0.953,37.69-0.755c-1.101,1.191-2.226,2.361-3.368,3.507
				c-12.353-0.121-24.71,0.193-37.044,0.942c-2.853,3.966-5.542,8.046-7.936,12.324c-1.095,1.958-2.126,3.946-3.109,5.954
				c1.331,0.283,2.709,0.441,4.042,0.654c4.972,0.791,9.963,1.457,14.965,1.998c-1.895,1.024-3.813,1.993-5.761,2.899
				c-4.172-0.526-8.333-1.143-12.48-1.846c-0.808-0.138-1.585-0.269-2.296-0.466c-1.254,2.747-2.42,5.536-3.515,8.353
				c-1.276-0.004-2.478-0.219-3.516-0.744c1.26-3.268,2.613-6.502,4.079-9.679c-0.186-0.326-0.346-0.69-0.473-1.117
				c-0.937-3.197-1.577-6.511-2.357-9.749c-0.772-3.196-1.543-6.392-2.312-9.589c0.559-2.442,1.198-4.861,1.905-7.253
				c1.17,4.858,2.34,9.716,3.514,14.576c0.676,2.793,1.35,5.59,2.026,8.383c1.344-2.639,2.779-5.234,4.324-7.774
				c1.764-2.899,3.654-5.711,5.617-8.469c-2.389-9.413-4.782-18.825-7.172-28.238c0.777-1.648,1.587-3.283,2.418-4.909
				c2.489,9.805,4.979,19.61,7.472,29.417c4.605-6.158,9.522-12.098,14.28-18.145c-2.954-10.811-6.116-21.561-9.493-32.247
				c0.819-1.268,1.655-2.532,2.502-3.789c3.452,10.779,6.683,21.628,9.703,32.542c0.969-1.261,1.926-2.526,2.865-3.804
				c3.998-5.436,7.829-11.005,11.43-16.716c-0.195-0.374-0.35-0.775-0.498-1.178c-3.428-9.4-7.302-18.617-11.656-27.618
				c0.795-1.085,1.591-2.17,2.384-3.252c1.933,3.927,3.779,7.898,5.535,11.913c2.352,5.391,4.537,10.853,6.553,16.379
				c3.574-5.903,6.891-11.957,9.875-18.18c0.975-2.033,1.916-4.092,2.813-6.173c-3.676-7.641-7.466-15.224-11.377-22.747
				c0.758-1.124,1.505-2.252,2.245-3.389c3.761,7.197,7.414,14.45,10.961,21.755c3.146-7.866,5.71-15.993,7.556-24.259
				c-0.195-0.156-0.354-0.346-0.455-0.553c-2.442-5.093-4.884-10.189-7.33-15.284c0.691-1.335,1.359-2.678,2.01-4.032
				c2.296,4.785,4.592,9.571,6.888,14.359c1.994-10.971,2.683-22.14,1.732-33.239c1.017-0.931,2.759-0.815,3.581,0.517
				c0.009,0.015,0.019,0.029,0.028,0.044c0.83,10.737,0.194,21.57-1.641,32.209c4.097-2.816,8.112-5.745,12.049-8.775
				c0.356,1.228,0.69,2.461,0.995,3.696c-4.556,3.467-9.218,6.793-13.973,9.982C420.611,173.825,417.937,182.452,414.611,190.827z"
				/>
		</g>
		<g>
			<path style="fill:#C3B7FC;" d="M462.548,229.234c-0.387,0.872-0.79,1.738-1.208,2.599c-2.832,5.815-6.369,11.315-10.473,16.415
				c-0.672,0.833-1.357,1.657-2.06,2.469c-4.114,4.765-8.728,9.147-13.73,13.069c-0.894,0.703-1.8,1.391-2.72,2.064
				c-5.82,4.259-12.103,7.91-18.674,10.841c-1.096,0.491-2.202,0.96-3.314,1.408c-8.425,3.4-17.266,5.618-26.167,6.429
				c-1.588,0.146-3.177,0.247-4.766,0.297c-1.828,0.065-3.655,0.067-5.48,0.006c-2.311-0.079-6.06-0.067-8.733-1.215
				c-0.868-0.374-1.624-0.87-2.178-1.53c-0.117-0.142-0.225-0.288-0.324-0.444c-2.695-4.237,3.399-12.991,5.749-16.593
				c0.841-1.292,1.715-2.554,2.621-3.791c1.091-1.5,2.231-2.961,3.409-4.384c3.634-4.4,7.645-8.455,11.921-12.235
				c1.009-0.896,2.036-1.774,3.075-2.639c0.036-0.031,0.074-0.06,0.11-0.092c4.57-3.794,9.392-7.308,14.341-10.622
				c0.926-0.625,1.864-1.242,2.807-1.852c3.144-2.046,6.331-4.018,9.527-5.936c1.14-0.685,2.281-1.362,3.42-2.039
				c0.857-0.507,1.715-1.015,2.569-1.52c4.912-2.908,9.808-5.807,14.597-8.908c0.843-0.545,1.68-1.096,2.515-1.654
				c1.299-0.866,2.585-1.752,3.86-2.658c3.004-2.135,5.949-4.359,8.786-6.708c0.859-0.708,1.705-1.428,2.542-2.16
				c0.545-0.479,1.086-0.96,1.621-1.448c1.167-1.065,6.105-5.158,9.023-8.415c0.212-0.234,0.459-0.394,0.72-0.483
				c0.963-0.338,2.116,0.248,2.288,1.394c0.002,0.013,0.004,0.025,0.007,0.038c0.964,6.463,1.013,12.817,0.267,18.986
				c-0.115,0.94-0.246,1.877-0.398,2.806C467.061,217.141,465.166,223.337,462.548,229.234z"/>
			<path style="fill:#A797FB;" d="M442.803,228.79c6.583,0.149,13.164,0.298,19.745,0.444c-0.387,0.872-0.79,1.738-1.208,2.599
				c-7.051-0.158-14.102-0.317-21.153-0.477c-5.013,4.779-10.403,9.179-16.035,13.247c1.036,0.206,2.072,0.408,3.113,0.601
				c2.221,0.41,4.449,0.788,6.682,1.13c5.613,0.86,11.26,1.499,16.919,1.914c-0.672,0.833-1.357,1.657-2.06,2.469
				c-1.345-0.108-2.688-0.231-4.03-0.365c-4.885-0.487-9.752-1.141-14.592-1.958c-2.382-0.401-4.756-0.841-7.123-1.322
				c-0.577-0.118-1.244-0.192-1.842-0.398c-4.854,3.361-9.863,6.493-14.954,9.422c-0.14,0.08-0.281,0.158-0.421,0.238
				c9.699,2.665,19.443,5.151,29.232,7.453c-0.894,0.703-1.8,1.391-2.72,2.064c-9.972-2.373-19.9-4.937-29.774-7.686
				c-4.915,2.704-9.92,5.276-14.784,8.072c8.75,3.175,17.382,6.662,25.883,10.455c-1.096,0.491-2.202,0.96-3.314,1.408
				c-8.376-3.677-16.882-7.06-25.498-10.139c-3.097,1.87-6.115,3.865-8.99,6.082c-1.316,1.014-2.596,2.068-3.85,3.149
				c0.824,0.58,1.716,1.089,2.562,1.621c3.155,1.986,6.36,3.891,9.608,5.716c-1.588,0.146-3.177,0.247-4.766,0.297
				c-2.688-1.572-5.341-3.204-7.961-4.889c-0.51-0.329-1.001-0.644-1.427-0.985c-1.653,1.505-3.259,3.065-4.824,4.665
				c-0.868-0.374-1.624-0.87-2.178-1.53c1.809-1.859,3.671-3.667,5.594-5.404c-0.032-0.276-0.035-0.57,0.003-0.898
				c0.292-2.449,0.821-4.892,1.232-7.324c0.405-2.401,0.809-4.802,1.216-7.202c1.091-1.5,2.231-2.961,3.409-4.384
				c-0.617,3.648-1.234,7.297-1.849,10.948c-0.353,2.099-0.708,4.199-1.06,6.298c1.683-1.406,3.415-2.755,5.207-4.035
				c2.045-1.461,4.15-2.826,6.29-4.132c1.112-7.105,2.222-14.21,3.335-21.315c1.009-0.896,2.036-1.774,3.075-2.639
				c-1.158,7.401-2.317,14.802-3.473,22.205c4.928-2.853,10.005-5.466,15.004-8.199c1.135-8.221,2.11-16.462,2.92-24.72
				c0.926-0.625,1.864-1.242,2.807-1.852c-0.787,8.344-1.744,16.672-2.864,24.982c1.026-0.577,2.047-1.159,3.058-1.756
				c4.305-2.538,8.533-5.215,12.648-8.055c-0.024-0.311-0.013-0.63,0.004-0.947c0.401-7.398,0.446-14.802,0.101-22.198
				c0.857-0.507,1.715-1.015,2.569-1.52c0.173,3.237,0.275,6.478,0.302,9.723c0.033,4.355-0.069,8.71-0.305,13.059
				c4.152-2.979,8.172-6.136,12.015-9.505c1.256-1.1,2.495-2.229,3.712-3.384c-0.279-6.273-0.653-12.539-1.126-18.8
				c0.843-0.545,1.68-1.096,2.515-1.654c0.466,5.995,0.843,11.997,1.133,18.003c4.431-4.44,8.543-9.228,12.205-14.319
				c-0.087-0.163-0.141-0.339-0.148-0.509c-0.181-4.178-0.361-8.359-0.543-12.54c0.859-0.708,1.705-1.428,2.542-2.16
				c0.171,3.927,0.341,7.853,0.512,11.782c4.55-6.89,8.27-14.295,10.853-22.129c0.963-0.338,2.116,0.248,2.288,1.394
				c0.002,0.013,0.004,0.025,0.007,0.038c-2.559,7.552-6.145,14.743-10.491,21.454c3.609-0.726,7.196-1.551,10.758-2.468
				c-0.115,0.94-0.246,1.877-0.398,2.806c-4.111,1.035-8.254,1.943-12.42,2.731C451.837,218.96,447.506,224.056,442.803,228.79z"/>
		</g>
	</g>
	<g>
		<g>
			<path style="fill:#A797FB;" d="M219.427,233.938l-8.648-19.354l-2.95-6.6c0.182-0.079,0.364-0.158,0.543-0.238
				c24.946-11.152,36.153-40.378,25.085-65.336l6.601-2.953l19.351-8.649c17.476,39.295-0.157,85.332-39.435,102.891
				C219.792,233.777,219.612,233.86,219.427,233.938z"/>
			<path style="fill:#E08675;" d="M167.382,117.497L155.78,91.542c0.18-0.083,0.363-0.165,0.542-0.245
				c39.327-17.578,85.449,0.05,103.027,39.377l0.06,0.133l-19.351,8.649l-6.601,2.953c-0.021-0.046-0.041-0.092-0.061-0.137
				c-11.17-24.99-40.48-36.192-65.47-25.023C167.742,117.332,167.563,117.412,167.382,117.497z"/>
			<path style="fill:#ECBF4C;" d="M117.008,194.459l-0.062-0.137c-17.493-39.142-0.109-85.024,38.834-102.779l11.601,25.955
				c-24.609,11.347-35.567,40.415-24.48,65.226c0.019,0.041,0.042,0.088,0.063,0.134L117.008,194.459z"/>
			<path style="fill:#5F5EA5;" d="M117.008,194.459l25.956-11.601c11.131,24.713,40.039,35.875,64.865,25.126l2.95,6.6l8.648,19.354
				C180.27,251.09,134.548,233.505,117.008,194.459z"/>
		</g>
		<path style="opacity:0.31;fill:#5F5EA5;" d="M210.779,214.583c0.049-0.019,0.099-0.042,0.149-0.064
			c0.132-0.057,0.265-0.116,0.397-0.173c28.59-12.779,41.433-46.283,28.733-74.89l-0.059-0.133
			c-12.799-28.636-46.391-41.474-75.026-28.675c-0.129,0.058-0.262,0.117-0.392,0.178l-0.15,0.067
			c-28.256,12.979-40.848,46.323-28.132,74.779l0.061,0.137C149.124,214.166,182.307,226.962,210.779,214.583z M142.964,182.857
			c-0.021-0.046-0.044-0.093-0.063-0.134c-11.087-24.81-0.128-53.879,24.48-65.226c0.181-0.086,0.36-0.166,0.543-0.248
			c24.99-11.17,54.3,0.033,65.47,25.023c0.02,0.046,0.041,0.092,0.061,0.137c11.068,24.958-0.14,54.183-25.085,65.336
			c-0.179,0.08-0.361,0.159-0.543,0.238C183.002,218.733,154.095,207.57,142.964,182.857z"/>
	</g>
	<g>
		<g>
			<g>
				<polygon style="fill:#DFDBFC;" points="313.712,359.18 227.704,359.18 231.679,334.125 235.183,312.063 306.233,312.063 
					309.737,334.125 				"/>
				<polygon style="fill:#A797FB;" points="309.737,334.125 231.679,334.125 235.183,312.063 306.233,312.063 				"/>
				<g>
					<path style="fill:#DFDBFC;" d="M393.738,167.314V310.97c0,8.657-7.019,15.676-15.676,15.676H163.354
						c-8.657,0-15.676-7.019-15.676-15.676V167.314c0-8.657,7.019-15.676,15.676-15.676h214.707
						C386.719,151.638,393.738,158.657,393.738,167.314z"/>
					<rect x="161.141" y="164.726" style="fill:#363271;" width="219.883" height="130.883"/>
					<path style="fill:#C3B7FC;" d="M393.738,290.747v20.223c0,8.657-7.019,15.676-15.676,15.676H163.354
						c-8.657,0-15.676-7.019-15.676-15.676v-20.223H393.738z"/>
				</g>
			</g>
			<g>
				<g>
					<g>
						<polygon style="fill:#FFFFFF;" points="346.62,156.873 346.62,290.747 197.04,290.747 197.04,290.747 197.04,156.873 						
							"/>
						<path style="fill:#514E92;" d="M346.62,145.052v11.821H197.04v-11.821c0-5.452,4.416-9.868,9.869-9.868h129.843
							C342.204,135.184,346.62,139.6,346.62,145.052z"/>
						<path style="fill:#ECBF4C;" d="M318.948,145.655c0,3.098-2.511,5.609-5.609,5.609c-3.098,0-5.609-2.511-5.609-5.609
							c0-3.098,2.511-5.609,5.609-5.609C316.436,140.045,318.948,142.557,318.948,145.655z"/>
						<path style="fill:#DD6E5C;" d="M335.401,145.655c0,3.098-2.511,5.609-5.609,5.609c-3.098,0-5.609-2.511-5.609-5.609
							c0-3.098,2.511-5.609,5.609-5.609C332.89,140.045,335.401,142.557,335.401,145.655z"/>
					</g>
				</g>
				<text transform="matrix(1 0 0 1 200.1529 236.9536)" style="fill:#DFDBFC; font-family:'Mitr-Regular'; font-size:39.7813px;">B</text>
				<text transform="matrix(1 0 0 1 227.4634 216.0913)" style="fill:#DFDBFC; font-family:'Mitr-Regular'; font-size:36.3731px;">R</text>
				<text transform="matrix(1 0 0 1 297.3746 254.9185)" style="fill:#DFDBFC; font-family:'Mitr-Regular'; font-size:37.6076px;">N</text>
				<text transform="matrix(1 0 0 1 317.0757 227.7378)" style="fill:#DFDBFC; font-family:'Mitr-Regular'; font-size:41.3122px;">D</text>
				<g>
					<text transform="matrix(1 0 0 1 249.9761 250.8853)" style="fill:#A797FB; font-family:'Mitr-Regular'; font-size:66.5006px;">A</text>
					<g>
						<g>
							<path style="fill:#5F5EA5;" d="M304.194,256.302h-60.407V198.58h60.407V256.302z M245.465,254.624h57.051v-54.367h-57.051
								V254.624z"/>
						</g>
						<rect x="241.438" y="196.566" style="fill:#5F5EA5;" width="6.041" height="6.041"/>
						<rect x="270.97" y="196.566" style="fill:#5F5EA5;" width="6.041" height="6.041"/>
						<rect x="270.97" y="252.611" style="fill:#5F5EA5;" width="6.041" height="6.041"/>
						<rect x="241.438" y="252.275" style="fill:#5F5EA5;" width="6.041" height="6.041"/>
						<rect x="241.438" y="224.756" style="fill:#5F5EA5;" width="6.041" height="6.041"/>
						<rect x="300.503" y="224.756" style="fill:#5F5EA5;" width="6.041" height="6.041"/>
						<rect x="300.279" y="196.566" style="fill:#5F5EA5;" width="6.041" height="6.041"/>
						<rect x="300.279" y="252.275" style="fill:#5F5EA5;" width="6.041" height="6.041"/>
					</g>
				</g>
				<g>
					<rect x="204.519" y="266.441" style="fill:#DFDBFC;" width="48.24" height="5.609"/>
					<rect x="204.519" y="276.537" style="fill:#DFDBFC;" width="48.24" height="5.609"/>
					<rect x="293.145" y="166.596" style="fill:#DFDBFC;" width="48.24" height="5.609"/>
					<rect x="277.065" y="177.066" style="fill:#DFDBFC;" width="64.319" height="5.235"/>
				</g>
			</g>
		</g>
		<rect x="219.851" y="354.693" style="fill:#C3B7FC;" width="100.593" height="9.349"/>
	</g>
	<g>
		<g>
			
				<ellipse transform="matrix(0.2651 -0.9642 0.9642 0.2651 -15.221 595.7311)" style="fill:#DD6E5C;" cx="383.22" cy="307.851" rx="55.846" ry="55.846"/>
			
				<ellipse transform="matrix(0.1805 -0.9836 0.9836 0.1805 11.2579 629.2144)" style="fill:#FFFFFF;" cx="383.22" cy="307.851" rx="42.815" ry="42.815"/>
			
				<ellipse transform="matrix(0.9327 -0.3607 0.3607 0.9327 -85.2493 158.967)" style="fill:#DD6E5C;" cx="383.22" cy="307.851" rx="28.455" ry="28.455"/>
			<path style="fill:#FFFFFF;" d="M396.388,313.635c-3.194,7.272-11.679,10.578-18.951,7.384
				c-7.272-3.194-10.578-11.679-7.384-18.951c3.194-7.273,11.679-10.579,18.951-7.385
				C396.276,297.878,399.582,306.362,396.388,313.635z"/>
		</g>
		<g>
			<path style="fill:#5F5EA5;" d="M441.769,276.411l1.994,1.027l-53.919,29.643l-4.725,2.599l-2.35-4.277l4.724-2.597l53.831-29.598
				l-0.202,2.017C441.073,275.715,441.329,276.186,441.769,276.411z"/>
			<g>
				<path style="fill:#5F5EA5;" d="M457.421,277.887l-5.624,3.093c-0.35,0.191-0.773,0.196-1.126,0.016l-6.908-3.558l-1.994-1.027
					c-0.44-0.224-0.696-0.695-0.646-1.184l0.202-2.017l0.782-7.794c0.038-0.393,0.269-0.74,0.612-0.928l5.626-3.092
					c-0.344,0.189-0.577,0.535-0.616,0.93l-0.778,7.793l-0.202,2.017c-0.05,0.491,0.206,0.962,0.645,1.186l1.992,1.026l6.909,3.556
					C456.65,278.084,457.073,278.079,457.421,277.887z"/>
				<path style="fill:#ECBF4C;" d="M462.802,274.928l-5.382,2.958c-0.348,0.192-0.771,0.197-1.126,0.016l-6.909-3.556l-1.992-1.026
					c-0.44-0.224-0.696-0.695-0.645-1.186l0.202-2.017l0.778-7.793c0.039-0.395,0.272-0.741,0.616-0.93l5.386-2.962
					c-0.338,0.188-0.563,0.535-0.601,0.922l-0.782,7.794l-0.201,2.015c-0.05,0.491,0.208,0.963,0.646,1.186l1.994,1.027l6.908,3.558
					C462.04,275.113,462.459,275.111,462.802,274.928z"/>
				<path style="fill:#5F5EA5;" d="M467.981,272.083l-5.16,2.837c-0.007,0.003-0.011,0.006-0.018,0.009
					c-0.344,0.183-0.762,0.184-1.108,0.007l-6.908-3.558l-1.994-1.027c-0.438-0.223-0.696-0.695-0.646-1.186l0.201-2.015
					l0.782-7.794c0.038-0.387,0.264-0.734,0.601-0.922c0.003-0.001,0.008-0.005,0.011-0.006l5.175-2.844
					c-0.344,0.188-0.575,0.536-0.612,0.928l-0.782,7.794l-0.201,2.015c-0.05,0.491,0.206,0.962,0.645,1.186l1.994,1.027l6.908,3.558
					C467.217,272.269,467.633,272.267,467.981,272.083z"/>
				<path style="fill:#ECBF4C;" d="M473.168,269.229l-5.173,2.846c-0.004,0.004-0.011,0.006-0.014,0.008
					c-0.347,0.184-0.763,0.186-1.111,0.008l-6.908-3.558l-1.994-1.027c-0.44-0.224-0.696-0.695-0.645-1.186l0.201-2.015l0.782-7.794
					c0.038-0.393,0.269-0.74,0.612-0.928l5.175-2.844c-0.343,0.188-0.574,0.536-0.615,0.927l-0.98,9.81
					c-0.05,0.491,0.206,0.962,0.646,1.186l8.9,4.585C472.397,269.427,472.82,269.422,473.168,269.229z"/>
				<path style="fill:#5F5EA5;" d="M478.118,266.508l-4.95,2.722c-0.348,0.192-0.771,0.197-1.126,0.016l-8.9-4.585
					c-0.44-0.224-0.696-0.695-0.646-1.186l0.98-9.81c0.04-0.392,0.271-0.739,0.615-0.927l4.95-2.722
					c-0.344,0.188-0.577,0.535-0.616,0.93l-0.98,9.81c-0.049,0.489,0.206,0.96,0.646,1.184l8.9,4.585
					C477.347,266.705,477.77,266.7,478.118,266.508z"/>
				<path style="fill:#ECBF4C;" d="M479.211,265.908l-1.093,0.599c-0.348,0.192-0.771,0.197-1.126,0.016l-8.9-4.585
					c-0.44-0.224-0.696-0.695-0.646-1.184l0.98-9.81c0.039-0.395,0.272-0.741,0.616-0.93l1.105-0.608
					c0.799-0.44,1.777,0.141,1.775,1.054l-0.03,8.099c-0.002,0.414,0.211,0.802,0.564,1.021l6.811,4.259
					C480.044,264.325,480.013,265.467,479.211,265.908z"/>
			</g>
			<path style="fill:#ECBF4C;" d="M393.354,315.257l-19.016-1.639c-0.52-0.045-0.912-0.759-0.672-1.222l8.805-16.932
				c0.219-0.422,0.811-0.316,1.092,0.195l10.211,18.572C394.055,314.742,393.828,315.298,393.354,315.257z"/>
		</g>
	</g>
	<g>
		<g>
			<path style="fill:#DD6E5C;" d="M107.038,351.643c-0.942,1.582-2.315,2.877-3.897,3.962c-3.191,2.184-7.245,3.518-10.527,4.603
				c-3.282,1.085-6.669,1.896-10.095,2.406c-0.915,0.144-1.831,0.262-2.746,0.353c-0.902,0.105-1.805,0.17-2.707,0.222
				c-0.497,0.039-0.994,0.065-1.491,0.065c-0.144,0.013-0.301,0.026-0.445,0.026c-0.392,0.013-0.798,0.026-1.19,0.026
				c-0.432,0-0.863,0.013-1.308,0.013c-0.706,0-1.412-0.013-2.132-0.026c-0.484-0.013-0.955-0.039-1.439-0.065
				c-1.255-0.065-2.524-0.17-3.779-0.314c-0.876-0.104-1.752-0.235-2.615-0.392c-5.283-0.941-10.318-2.903-14.032-6.643
				c-1.935-1.962-3.622-4.459-3.609-7.219c0-2.759,2.289-5.623,5.048-5.362c1.19,0.118,2.262,0.772,3.295,1.412
				c1.674,1.046,3.361,2.092,5.035,3.139c-1.831-2.118-3.322-4.551-4.394-7.14c-0.85-2.079-1.452-4.342-1.059-6.552
				c0.379-2.21,1.949-4.315,4.132-4.799c1.818-0.392,3.74,0.392,5.113,1.635c1.373,1.255,2.288,2.929,3.099,4.603
				c1.295,2.655,2.38,5.401,3.243,8.226c-0.262-6.748-0.34-14.149,3.858-19.446c0.445-0.575,0.968-1.125,1.635-1.399
				c1.216-0.497,2.642,0.052,3.596,0.955c1.805,1.713,2.236,4.381,2.406,6.853c0.353,4.982,0.026,10.004-0.955,14.895
				c2.158-4.237,4.642-8.317,7.415-12.175c0.994-1.386,2.066-2.772,3.492-3.701c1.425-0.942,3.295-1.36,4.865-0.693
				c1.648,0.719,2.642,2.511,2.785,4.289c0.157,1.792-0.392,3.57-1.112,5.205c-2.066,4.655-5.597,8.631-9.978,11.233
				c3.557-1.831,7.232-3.439,10.985-4.786c1.7-0.615,3.452-1.177,5.244-1.125c1.805,0.052,3.675,0.85,4.577,2.406
				C108.294,347.943,107.993,350.048,107.038,351.643z"/>
			<path style="fill:#D14F42;" d="M65.283,362.916c-0.876-0.104-1.752-0.235-2.615-0.392c-5.074-4.08-9.716-8.631-13.914-13.639
				c-0.536-0.641,0.379-1.582,0.915-0.928C54.338,353.526,59.555,358.535,65.283,362.916z"/>
			<path style="fill:#D14F42;" d="M57.62,334.408c4.302,9.625,8.592,19.263,12.881,28.887c-0.484-0.013-0.955-0.039-1.439-0.065
				c-4.185-9.389-8.369-18.779-12.567-28.155C56.155,334.316,57.28,333.636,57.62,334.408z"/>
			<path style="fill:#D14F42;" d="M74.895,330.655c-0.314,10.88-0.628,21.773-0.955,32.654c-0.432,0-0.863,0.013-1.308,0.013
				c0.314-10.893,0.628-21.76,0.955-32.654C73.613,329.831,74.921,329.818,74.895,330.655z"/>
			<path style="fill:#D14F42;" d="M92.954,335.245c-5.976,8.932-11.272,18.256-15.889,27.946c-0.497,0.039-0.994,0.065-1.491,0.065
				c4.695-9.939,10.122-19.511,16.255-28.665C92.287,333.898,93.425,334.539,92.954,335.245z"/>
			<path style="fill:#D14F42;" d="M102.815,350.65c-7.062,3.492-13.836,7.48-20.296,11.966c-0.915,0.144-1.831,0.262-2.746,0.353
				c7.088-5.087,14.555-9.573,22.375-13.443C102.893,349.146,103.56,350.27,102.815,350.65z"/>
		</g>
		<g>
			<g>
				<path style="fill:#C3B7FC;" d="M53.956,241.115c-0.537,0.057-1.132,0.155-1.462,0.583c-0.246,0.319-0.281,0.748-0.294,1.151
					c-0.226,7.057,3.709,13.89,9.423,18.037c5.714,4.147,12.991,5.789,20.045,5.502c4.881-0.199,10.875-0.983,15.313-3.162
					c4.901-2.406,0.004-6.62-2.635-8.963c-6.967-6.185-15.602-10.463-24.72-12.345C64.485,240.857,59.18,240.559,53.956,241.115z"/>
				<path style="fill:#C3B7FC;" d="M66.607,272.385c-0.51,0.176-1.069,0.405-1.294,0.896c-0.168,0.366-0.106,0.792-0.028,1.188
					c1.363,6.927,6.731,12.704,13.229,15.463c6.498,2.76,13.959,2.727,20.769,0.865c4.712-1.289,10.377-3.398,14.214-6.517
					c4.237-3.444-1.482-6.452-4.578-8.143c-8.176-4.464-17.552-6.696-26.86-6.485C76.809,269.771,71.573,270.671,66.607,272.385z"/>
				<path style="fill:#C3B7FC;" d="M97.91,184.556c0.371-0.393,0.809-0.807,1.349-0.81c0.403-0.002,0.766,0.23,1.094,0.463
					c5.752,4.094,8.807,11.363,8.647,18.422c-0.16,7.058-3.261,13.844-7.761,19.283c-3.114,3.764-7.368,8.058-11.791,10.271
					c-4.883,2.443-5.27-4.006-5.536-7.524c-0.703-9.289,1.123-18.752,5.147-27.148C91.328,192.777,94.303,188.375,97.91,184.556z"/>
				<path style="fill:#C3B7FC;" d="M110.012,212.59c0.345-0.416,0.755-0.858,1.294-0.895c0.402-0.028,0.779,0.18,1.121,0.391
					c6.004,3.714,9.522,10.771,9.818,17.825c0.296,7.054-2.36,14.025-6.501,19.744c-2.865,3.957-6.833,8.517-11.103,11.01
					c-4.715,2.753-5.518-3.658-6.011-7.151c-1.301-9.224-0.09-18.785,3.384-27.424C103.974,221.219,106.659,216.634,110.012,212.59z
					"/>
				<path style="fill:#C3B7FC;" d="M125.125,236.703c0.316-0.381,0.692-0.786,1.186-0.821c0.368-0.026,0.714,0.165,1.028,0.359
					c5.504,3.405,8.729,9.874,9,16.34c0.271,6.466-2.164,12.857-5.959,18.099c-2.626,3.628-6.263,7.808-10.178,10.093
					c-4.322,2.524-5.058-3.353-5.51-6.556c-1.192-8.456-0.083-17.22,3.102-25.139C119.59,244.613,122.052,240.411,125.125,236.703z"
					/>
				<path style="fill:#C3B7FC;" d="M39.156,214.747c-0.535,0.072-1.127,0.186-1.445,0.623c-0.237,0.326-0.26,0.756-0.262,1.159
					c-0.029,7.06,4.094,13.781,9.921,17.768c5.827,3.987,13.147,5.426,20.191,4.943c4.874-0.334,10.843-1.285,15.22-3.587
					c4.833-2.541-0.18-6.618-2.883-8.886c-7.136-5.988-15.887-10.025-25.054-11.653C49.674,214.196,44.363,214.046,39.156,214.747z"
					/>
				<path style="fill:#C3B7FC;" d="M83.522,194.022c-1.734-8.255-6.13-15.746-11.414-22.321c-2.247-2.796-5.052-5.653-8.633-5.867
					c-5.444,12.277-5.024,27.006,1.111,38.954c1.818,3.541,10.66,16.402,15.162,12.484
					C85.191,212.537,84.827,200.235,83.522,194.022z"/>
				<path style="fill:#A797FB;" d="M133.994,294.777c-5.815-4.166-11.191-8.881-16.156-14.002
					c7.956-11.035,11.898-24.807,10.954-38.381c-0.108-1.545-2.537-1.65-2.428-0.089c0.904,12.995-2.736,26.031-10.236,36.673
					c-5.239-5.612-9.994-11.684-14.283-18.055c0.065-0.062,0.127-0.13,0.185-0.209c8.701-12.046,13.013-27.089,11.981-41.916
					c-0.117-1.685-2.767-1.8-2.649-0.097c0.982,14.122-2.956,28.285-11.073,39.87c-0.415-0.64-0.831-1.28-1.237-1.926
					c-4.862-7.738-9.058-15.846-12.749-24.186c0.191-0.079,0.375-0.203,0.534-0.395c9.461-11.459,14.734-26.193,14.662-41.055
					c-0.008-1.689-2.645-1.975-2.637-0.268c0.069,14.185-4.795,28.094-13.678,39.143c-3.45-8.064-6.448-16.329-9.116-24.68
					c-3.375-10.566-6.248-21.284-8.937-32.043c-0.413-1.654-2.964-0.933-2.55,0.723c4.836,19.35,10.285,38.629,18.15,56.995
					c-13.932,0.607-27.804-3.551-39.107-11.749c-1.382-1.002-2.688,1.307-1.32,2.298c11.939,8.66,26.846,12.964,41.562,12.051
					c3.821,8.623,8.191,17.009,13.221,24.974c-13.951,0.225-27.711-4.318-38.787-12.832c-1.353-1.04-2.723,1.231-1.384,2.261
					c11.783,9.058,26.701,13.784,41.55,13.196c0.101-0.004,0.195-0.018,0.284-0.039c3.687,5.606,7.714,10.988,12.125,16.077
					c0.695,0.801,1.403,1.59,2.116,2.374c-13.678,3.496-28.292,2.191-41.14-3.688c-1.552-0.71-2.378,1.811-0.842,2.514
					c13.515,6.184,29.113,7.442,43.451,3.538c0.2-0.054,0.366-0.142,0.503-0.251c5.41,5.691,11.318,10.895,17.709,15.473
					C134.062,298.069,135.368,295.761,133.994,294.777z"/>
			</g>
			<g>
				<path style="fill:#ECBF4C;" d="M37.021,293.54c-0.366,0.192-0.762,0.43-0.875,0.827c-0.085,0.297,0.012,0.612,0.116,0.902
					c1.833,5.083,6.562,8.833,11.798,10.169c5.236,1.336,10.876,0.449,15.813-1.748c3.416-1.52,7.458-3.771,10-6.575
					c2.807-3.096-1.867-4.71-4.406-5.631c-6.703-2.432-14.054-3.036-21.072-1.799C44.438,290.382,40.58,291.668,37.021,293.54z"/>
				<path style="fill:#ECBF4C;" d="M54.853,312.21c-0.313,0.27-0.646,0.59-0.667,1.003c-0.016,0.308,0.148,0.594,0.315,0.853
					c2.926,4.542,8.376,7.135,13.778,7.263c5.402,0.128,10.7-2.003,15.018-5.251c2.988-2.248,6.422-5.348,8.27-8.651
					c2.041-3.647-2.876-4.171-5.557-4.499c-7.077-0.866-14.377,0.195-20.938,2.974C61.372,307.469,57.901,309.588,54.853,312.21z"/>
				<path style="fill:#ECBF4C;" d="M52.312,240.891c0.153-0.384,0.348-0.803,0.731-0.957c0.286-0.115,0.61-0.053,0.909,0.02
					c5.248,1.287,9.474,5.596,11.354,10.662c1.88,5.066,1.591,10.769-0.074,15.91c-1.152,3.557-2.965,7.813-5.486,10.636
					c-2.783,3.117-4.881-1.361-6.064-3.789c-3.124-6.409-4.498-13.656-4.007-20.765C49.952,248.598,50.825,244.627,52.312,240.891z"
					/>
				<path style="fill:#ECBF4C;" d="M68.839,257.414c0.128-0.393,0.295-0.823,0.668-1.002c0.278-0.134,0.605-0.092,0.908-0.038
					c5.32,0.946,9.816,4.973,12.019,9.907c2.203,4.934,2.283,10.644,0.953,15.881c-0.92,3.624-2.455,7.989-4.788,10.968
					c-2.576,3.29-4.958-1.043-6.296-3.389c-3.531-6.194-5.37-13.337-5.339-20.464C66.982,265.258,67.597,261.238,68.839,257.414z"/>
				<path style="fill:#ECBF4C;" d="M86.401,270.299c0.117-0.36,0.271-0.755,0.612-0.919c0.255-0.122,0.555-0.085,0.833-0.035
					c4.877,0.867,8.998,4.558,11.018,9.081c2.02,4.523,2.092,9.757,0.873,14.558c-0.843,3.322-2.25,7.323-4.389,10.055
					c-2.362,3.016-4.545-0.956-5.771-3.107c-3.237-5.678-4.923-12.226-4.894-18.759C84.698,277.489,85.262,273.804,86.401,270.299z"
					/>
				<path style="fill:#ECBF4C;" d="M19.046,278.963c-0.36,0.202-0.749,0.451-0.852,0.852c-0.076,0.299,0.028,0.611,0.141,0.898
					c1.973,5.03,6.805,8.647,12.076,9.837c5.271,1.19,10.884,0.146,15.758-2.187c3.373-1.615,7.35-3.977,9.813-6.85
					c2.72-3.173-1.997-4.657-4.561-5.507c-6.768-2.244-14.133-2.644-21.114-1.213C26.371,275.6,22.551,276.993,19.046,278.963z"/>
				<path style="fill:#ECBF4C;" d="M44.751,251.689c-3.565-5.382-8.808-9.47-14.424-12.654c-2.388-1.354-5.19-2.594-7.798-1.735
					c-0.405,10.271,4.054,20.63,11.793,27.395c2.294,2.005,12.216,8.656,14.311,4.598C51.168,264.388,47.434,255.74,44.751,251.689z
					"/>
				<path style="fill:#E58F31;" d="M109.113,309.104c-5.312-1.321-10.471-3.15-15.448-5.39c2.544-10.099,1.458-21.012-3.048-30.402
					c-0.513-1.068-2.271-0.457-1.752,0.623c4.315,8.991,5.412,19.295,3.081,28.986c-5.314-2.513-10.414-5.49-15.266-8.812
					c0.03-0.064,0.056-0.132,0.074-0.206c2.787-11.027,1.605-22.946-3.316-33.201c-0.559-1.166-2.477-0.499-1.912,0.679
					c4.688,9.77,5.895,20.962,3.391,31.497c-0.479-0.34-0.956-0.682-1.429-1.029c-5.644-4.132-10.92-8.714-15.901-13.603
					c0.114-0.11,0.209-0.25,0.268-0.432c3.493-10.824,3.083-22.794-1.166-33.346c-0.483-1.199-2.44-0.658-1.952,0.554
					c4.056,10.072,4.531,21.344,1.332,31.713c-4.734-4.763-9.203-9.797-13.461-14.986c-5.386-6.563-10.457-13.375-15.409-20.269
					c-0.761-1.06-2.372,0.174-1.61,1.235c8.908,12.401,18.232,24.58,29.017,35.425c-9.74,4.368-20.788,5.32-31.144,2.68
					c-1.266-0.323-1.543,1.688-0.29,2.008c10.939,2.788,22.76,1.642,32.971-3.165c5.156,5.057,10.636,9.79,16.467,14.036
					c-9.862,4.103-20.94,4.749-31.226,1.82c-1.257-0.358-1.59,1.645-0.346,1.999c10.94,3.115,22.887,2.263,33.283-2.349
					c0.07-0.031,0.134-0.068,0.191-0.108c4.206,2.946,8.591,5.637,13.166,8.012c0.723,0.375,1.45,0.74,2.182,1.097
					c-8.743,6.351-19.511,9.544-30.312,8.991c-1.305-0.067-1.18,1.96,0.111,2.026c11.36,0.581,22.812-2.929,31.908-9.757
					c0.124-0.093,0.216-0.2,0.283-0.314c5.457,2.521,11.132,4.547,16.972,5.999C110.091,311.427,110.369,309.416,109.113,309.104z"
					/>
			</g>
		</g>
	</g>
	<g>
		<g>
			<path style="fill:#FFFFFF;" d="M203.164,288.097v71.109c0,4.363-3.534,7.898-7.898,7.898H91.354
				c-4.363,0-7.898-3.534-7.898-7.898v-71.109H203.164z"/>
			<path style="fill:#514E92;" d="M203.164,278.637v9.46H83.456v-9.46c0-4.363,3.535-7.898,7.898-7.898h103.912
				C199.63,270.739,203.164,274.273,203.164,278.637z"/>
			<path style="fill:#ECBF4C;" d="M181.018,279.119c0,2.479-2.01,4.489-4.489,4.489c-2.479,0-4.489-2.01-4.489-4.489
				c0-2.479,2.01-4.489,4.489-4.489C179.008,274.629,181.018,276.639,181.018,279.119z"/>
			<path style="fill:#DD6E5C;" d="M194.186,279.119c0,2.479-2.01,4.489-4.489,4.489s-4.489-2.01-4.489-4.489
				c0-2.479,2.01-4.489,4.489-4.489S194.186,276.639,194.186,279.119z"/>
		</g>
		<rect x="90.34" y="299.169" style="fill:#8690F1;" width="47.285" height="37.708"/>
		<rect x="143.909" y="300.067" style="fill:#DFDBFC;" width="52.372" height="7.482"/>
		<rect x="143.909" y="313.834" style="fill:#DFDBFC;" width="52.372" height="7.482"/>
		<rect x="143.909" y="329.096" style="fill:#DFDBFC;" width="52.372" height="7.482"/>
	</g>
	<g>
		<path style="fill:#ECBF4C;" d="M447.994,356.643c-0.942,1.582-2.315,2.877-3.897,3.962c-3.191,2.184-7.245,3.518-10.527,4.603
			c-3.282,1.085-6.669,1.896-10.096,2.406c-0.915,0.144-1.831,0.262-2.746,0.353c-0.902,0.105-1.805,0.17-2.707,0.222
			c-0.497,0.039-0.994,0.065-1.491,0.065c-0.144,0.013-0.301,0.026-0.445,0.026c-0.392,0.013-0.798,0.026-1.19,0.026
			c-0.432,0-0.863,0.013-1.308,0.013c-0.706,0-1.412-0.013-2.132-0.026c-0.484-0.013-0.955-0.039-1.439-0.065
			c-1.255-0.065-2.524-0.17-3.779-0.314c-0.876-0.104-1.752-0.235-2.615-0.392c-5.283-0.941-10.318-2.903-14.032-6.643
			c-1.935-1.962-3.622-4.459-3.609-7.219c0-2.759,2.288-5.623,5.048-5.362c1.19,0.118,2.262,0.772,3.295,1.412
			c1.674,1.046,3.361,2.092,5.035,3.139c-1.831-2.118-3.322-4.551-4.394-7.14c-0.85-2.079-1.452-4.342-1.059-6.552
			c0.379-2.21,1.949-4.315,4.132-4.799c1.818-0.392,3.74,0.392,5.113,1.635c1.373,1.255,2.288,2.929,3.099,4.603
			c1.295,2.655,2.38,5.401,3.243,8.226c-0.262-6.748-0.34-14.149,3.858-19.446c0.445-0.575,0.968-1.125,1.635-1.399
			c1.216-0.497,2.642,0.052,3.596,0.955c1.805,1.713,2.236,4.381,2.406,6.853c0.353,4.982,0.026,10.004-0.955,14.895
			c2.158-4.237,4.642-8.317,7.415-12.175c0.994-1.386,2.066-2.772,3.492-3.701c1.425-0.942,3.295-1.36,4.865-0.693
			c1.648,0.719,2.642,2.511,2.785,4.289c0.157,1.792-0.392,3.57-1.112,5.205c-2.066,4.655-5.597,8.631-9.978,11.233
			c3.557-1.831,7.232-3.439,10.985-4.786c1.7-0.615,3.452-1.177,5.244-1.125c1.805,0.052,3.675,0.85,4.577,2.406
			C449.249,352.943,448.948,355.048,447.994,356.643z"/>
		<g>
			<path style="fill:#E58F31;" d="M406.238,367.916c-0.876-0.104-1.752-0.235-2.615-0.392c-5.074-4.08-9.716-8.631-13.914-13.639
				c-0.536-0.641,0.379-1.582,0.915-0.928C395.293,358.526,400.511,363.535,406.238,367.916z"/>
			<path style="fill:#E58F31;" d="M398.575,339.408c4.302,9.625,8.592,19.263,12.881,28.887c-0.484-0.013-0.955-0.039-1.439-0.065
				c-4.185-9.389-8.369-18.779-12.567-28.155C397.111,339.316,398.235,338.636,398.575,339.408z"/>
			<path style="fill:#E58F31;" d="M415.85,335.655c-0.314,10.88-0.628,21.773-0.955,32.654c-0.432,0-0.863,0.013-1.308,0.013
				c0.314-10.893,0.628-21.76,0.955-32.654C414.569,334.831,415.876,334.818,415.85,335.655z"/>
			<path style="fill:#E58F31;" d="M433.91,340.245c-5.976,8.932-11.273,18.256-15.889,27.946c-0.497,0.039-0.994,0.065-1.491,0.065
				c4.695-9.939,10.122-19.511,16.255-28.665C433.243,338.898,434.38,339.539,433.91,340.245z"/>
			<path style="fill:#E58F31;" d="M443.77,355.65c-7.062,3.492-13.835,7.48-20.296,11.966c-0.915,0.144-1.831,0.262-2.746,0.353
				c7.088-5.087,14.555-9.573,22.375-13.443C443.848,354.146,444.515,355.27,443.77,355.65z"/>
		</g>
	</g>
	<g>
		<g>
			<path style="fill:#ECBF4C;" d="M168.641,389.512c0.379,0.416,0.771,0.858,0.9,1.405c0.224,0.952-0.463,1.94-1.353,2.347
				c-0.89,0.407-1.919,0.355-2.885,0.2c-2.553-0.41-4.994-1.494-7.01-3.113c-0.668-0.537-1.298-1.139-1.748-1.869
				c-0.83-1.345-0.98-2.987-1.11-4.562c-0.025-0.312-0.042-0.657,0.154-0.902c0.135-0.169,0.348-0.255,0.551-0.329
				c2.055-0.747,4.834-1.617,6.432,0.16C164.582,385.082,166.619,387.291,168.641,389.512z"/>
			<path style="fill:#ECBF4C;" d="M128.84,390.509c0.041,0.561,0.078,1.151-0.159,1.661c-0.411,0.888-1.562,1.241-2.513,1.012
				c-0.951-0.229-1.729-0.905-2.393-1.624c-1.756-1.898-3.007-4.258-3.594-6.776c-0.195-0.835-0.317-1.697-0.221-2.549
				c0.177-1.571,1.072-2.955,1.943-4.274c0.172-0.261,0.373-0.543,0.678-0.615c0.211-0.049,0.431,0.014,0.637,0.081
				c2.078,0.681,4.802,1.711,4.962,4.096C128.38,384.518,128.62,387.513,128.84,390.509z"/>
			<path style="fill:#363271;" d="M127.298,365.02c1.039-2.372,2.05-4.754,3.032-7.147l0.728-1.792
				c0.235-0.589,0.465-1.17,0.674-1.731c0.423-1.127,0.783-2.203,1.052-3.223c0.269-1.019,0.441-1.979,0.512-2.873
				c0.072-0.886,0.055-1.883-0.018-2.993c-0.073-1.108-0.206-2.336-0.34-3.664l-0.401-3.929l-1.603-21.397l28.53-0.545
				c0.189,5.637,0.48,11.271,0.852,16.923c0.37,5.651,0.817,11.322,1.279,17.016c0.462,5.693,0.935,11.406,1.375,17.125
				c0.442,5.72,0.853,11.447,1.231,17.173l-9.254,0.935c-0.778-5.647-1.587-11.288-2.428-16.928
				c-0.84-5.641-1.712-11.281-2.579-16.943c-0.866-5.661-1.724-11.348-2.509-17.071c-0.036-0.265-0.07-0.53-0.106-0.795
				c-0.439-0.15-0.825-0.253-1.125-0.27c-0.227-0.013-0.454-0.016-0.681-0.014l0.094,3.971l0.093,3.948
				c0.028,1.297,0.075,2.695,0.055,4.217c-0.022,1.518-0.11,3.16-0.398,4.882c-0.286,1.713-0.737,3.32-1.261,4.808
				c-0.525,1.489-1.122,2.867-1.726,4.162c-0.302,0.65-0.607,1.272-0.909,1.883l-0.901,1.802c-1.206,2.392-2.442,4.768-3.704,7.128
				c-2.527,4.719-5.168,9.371-7.918,13.952L120.7,379.1C123.016,374.457,125.216,369.762,127.298,365.02z"/>
		</g>
		<g>
			<g>
				<path style="fill:#F0C9A1;" d="M167.17,320.678c0.052,0.175,0.109,0.353,0.222,0.497c0.112,0.144,0.293,0.248,0.473,0.22
					c0.218-0.033,0.363-0.236,0.483-0.421c0.199-0.308,0.398-0.617,0.597-0.925c0.378,0.82,0.632,1.698,0.751,2.594
					c0.049,0.367,0.115,0.799,0.445,0.966c0.199,0.1,0.438,0.068,0.654,0.016c0.96-0.232,1.826-0.829,2.386-1.642
					c0.169-0.245,0.311-0.512,0.379-0.802c0.084-0.36,0.047-0.738-0.027-1.099c-0.222-1.08-0.769-2.062-1.307-3.025
					c-0.521-0.929-1.044-1.864-1.704-2.7c-0.051-0.065-0.105-0.131-0.178-0.168c-0.074-0.038-0.161-0.043-0.245-0.045
					c-1.248-0.032-2.502,0.412-3.453,1.221c-0.32,0.272-0.623,0.62-0.65,1.039c-0.044,0.685,0.569,1.234,0.672,1.901
					C166.789,319.111,166.936,319.895,167.17,320.678z"/>
				<g>
					<path style="fill:#DD6E5C;" d="M160.143,286.627c-0.015,0.014-0.027,0.028-0.042,0.041c-0.802,0.864-1.752,1.474-2.85,1.831
						c-1.05,0.552-2.182,0.806-3.395,0.763c3.028,10.185,7.106,20.032,12.19,29.41l5.956-3.229
						C167.025,306.263,163.057,296.613,160.143,286.627z"/>
				</g>
			</g>
			<g>
				<path style="fill:#FFFFFF;" d="M161.071,320.644c-0.275,0.444-0.857,0.555-1.372,0.625c-0.992,0.131-1.986,0.251-2.981,0.356
					c-2.41,0.262-4.829,0.452-7.251,0.573c-5.601,0.277-11.219,0.179-16.809-0.293c-2.032-0.173-3.186,0.166-3.844-1.648
					c-0.601-1.667,0.968-16.132,1.243-20.749c0.299-4.969,0.607-10,2.102-14.749c1.497-4.749,4.327-9.263,8.623-11.781
					c0.468-0.275,0.955-0.522,1.453-0.743c1.947-0.854,4.095-1.259,6.195-0.981c2.072,0.275,3.949,1.195,5.551,2.517
					c2.013,1.656,3.588,3.944,4.559,6.377c1.744,4.37,1.892,9.191,2.017,13.896c0.229,8.531,0.457,17.061,0.684,25.592
					C161.25,319.984,161.252,320.351,161.071,320.644z"/>
				<path style="fill:#DD6E5C;" d="M149.467,322.198c-5.601,0.277-11.219,0.179-16.809-0.293c-2.032-0.173-3.186,0.166-3.844-1.648
					c-0.601-1.667,0.968-16.132,1.243-20.749c0.299-4.969,0.607-10,2.102-14.749c1.497-4.749,4.327-9.263,8.623-11.781
					c0.468-0.275,0.955-0.522,1.453-0.743c1.285,1.062,2.203,2.841,2.954,4.292c3.33,6.431,3.945,13.936,4.231,21.051
					C149.751,305.78,149.766,313.994,149.467,322.198z"/>
				<path style="fill:#DD6E5C;" d="M161.071,320.644c-0.275,0.444-0.857,0.555-1.372,0.625c-0.992,0.131-1.986,0.251-2.981,0.356
					c0.317-10.725,0.188-21.466-0.382-32.185c-0.269-5.035-0.667-10.096-2.12-14.95c-0.074-0.245-0.153-0.485-0.234-0.719
					c2.013,1.656,3.588,3.944,4.559,6.377c1.744,4.37,1.892,9.191,2.017,13.896c0.229,8.531,0.457,17.061,0.684,25.592
					C161.25,319.984,161.252,320.351,161.071,320.644z"/>
			</g>
			<g>
				<path style="fill:#F0C9A1;" d="M168.125,270.664c0.365-0.234,0.878-0.069,1.17,0.252c0.292,0.32,0.418,0.755,0.534,1.173
					c0.193-1.334,0.386-2.667,0.579-4c0.093-0.644,0.205-1.33,0.643-1.812c0.149-0.165,0.398-0.303,0.584-0.182
					c0.111,0.073,0.155,0.212,0.187,0.341c0.169,0.68,0.247,1.383,0.234,2.083c-0.005,0.244-0.02,0.492,0.043,0.727
					c0.264,0.986,1.596,1.145,2.356,1.826c0.589,0.527,0.806,1.374,0.75,2.162c-0.055,0.788-0.347,1.538-0.636,2.273
					c-0.328,0.836-0.656,1.672-0.984,2.508c-0.098,0.251-0.206,0.514-0.417,0.681c-0.199,0.157-0.461,0.205-0.712,0.236
					c-0.793,0.097-1.601,0.07-2.386-0.081c-0.899-0.172-1.891-0.643-2.079-1.539c-0.197-0.941,0.35-1.995,0.295-2.977
					C168.257,273.831,167.674,270.953,168.125,270.664z"/>
				<g>
					<path style="fill:#DD6E5C;" d="M174.783,277.05c-2.054,8.466-5.231,15.459-8.114,21.243c-1.123,2.249-3.656,7.33-8.678,8.005
						c-0.334,0.044-0.68,0.07-1.036,0.072c-4.13,0.044-6.96-3.208-8.169-4.596c-4.788-5.505-8.929-11.538-12.338-17.978
						c-0.962-1.816-0.203-4.069,1.65-4.958c0.505-0.243,1.038-0.356,1.565-0.356c1.311,0,2.574,0.714,3.23,1.951
						c3.147,5.935,6.964,11.497,11.379,16.569c1.595,1.833,2.318,2.102,2.607,2.1c0.841-0.007,1.947-1.372,3.285-4.052
						c2.668-5.354,5.603-11.796,7.497-19.467c2.451,0.091,4.578,0.365,6.854,1.346C174.563,276.951,174.657,276.993,174.783,277.05z
						"/>
				</g>
			</g>
		</g>
		<g>
			<path style="fill:#363271;" d="M133.42,258.243c-0.195,1.318-0.094,2.69,0.25,3.837c0.848,2.826,2.263,5.414,4.647,7.233
				c2.623,2.002,5.618,2.515,8.833,2.477c0.887-0.01,1.907-0.122,2.387-0.872c0.464-0.725,0.199-1.7-0.105-2.524
				c-1.6-4.346-3.91-8.433-6.802-12.039c-1.418-1.768-3.504-3.715-5.915-2.826C134.756,254.252,133.726,256.18,133.42,258.243z"/>
			<path style="fill:#F0C9A1;" d="M144.717,263.147l0.009,9.506c0.002,1.871,1.52,3.386,3.39,3.384
				c1.871-0.002,3.386-1.52,3.384-3.39l-0.009-9.506L144.717,263.147z"/>
			<path style="fill:#E9B588;" d="M144.719,265.424l0.006,6.993c1.451-0.261,3.33-0.604,3.607-0.687
				c1.097-0.331,2.163-0.752,3.165-1.292c0.627-0.337,1.23-0.72,1.8-1.153c2.129-1.624-0.059-2.489-1.804-3.189
				c-0.002-0.002-0.007-0.002-0.009-0.004c-1.836-0.737-3.814-1.126-5.792-1.129c-0.195,0-0.393,0.003-0.57,0.081
				C144.948,265.122,144.819,265.258,144.719,265.424z"/>
			<path style="fill:#F0C9A1;" d="M157.018,256.5c2.48,5.568,1.535,11.397-3.095,13.46c-4.63,2.063-10.395-0.779-12.874-6.346
				c-2.48-5.568-0.737-11.753,3.894-13.815C149.572,247.735,154.538,250.932,157.018,256.5z"/>
			<path style="fill:#F0C9A1;" d="M143.598,263.606c1.1,1.438,1.06,3.316-0.09,4.197c-1.15,0.88-2.974,0.428-4.075-1.009
				c-1.1-1.438-1.06-3.316,0.09-4.197C140.673,261.716,142.498,262.168,143.598,263.606z"/>
			<path style="fill:#363271;" d="M148.602,256.489c2.066-0.74,4.125-1.622,5.79-3.052c1.665-1.429,2.903-3.489,2.898-5.683
				c-0.005-2.194-1.489-4.429-3.636-4.878c-1.603-0.336-3.248,0.314-4.668,1.132c-1.052,0.606-2.047,1.311-2.966,2.104
				c-0.284,0.245-0.567,0.502-0.908,0.657c-0.376,0.171-0.797,0.208-1.207,0.264c-3.219,0.438-6.219,2.293-8.051,4.976
				c-0.646,0.947-1.16,2.018-1.26,3.16c-0.308,3.515,2.829,3.348,5.452,3.222C142.978,258.249,145.85,257.475,148.602,256.489z"/>
			<path style="fill:#363271;" d="M141.678,257.113c0.123,0.734,0.089,1.486,0.161,2.227c0.151,1.558,0.779,3.067,1.78,4.271
				c-0.343,0.443-0.812,0.787-1.336,0.984c-0.463-0.325-0.927-0.651-1.39-0.976c-1.332-0.935-2.683-1.888-3.697-3.16
				c-1.015-1.272-1.665-2.93-1.37-4.53c0.109-0.592,0.354-1.173,0.78-1.598c0.426-0.425,1.051-0.673,1.642-0.562
				C139.83,254.068,141.415,255.541,141.678,257.113z"/>
			<g>
				<path style="fill:#FFFFFF;" d="M154.891,255.258c-1.227,0.547-1.88,1.853-1.658,3.119l-1.441,0.642
					c-0.794-1.012-2.201-1.4-3.428-0.854c-1.447,0.645-2.101,2.347-1.456,3.795c0.645,1.447,2.347,2.1,3.794,1.456
					c1.448-0.645,2.101-2.347,1.456-3.794c-0.011-0.024-0.024-0.046-0.035-0.069l1.284-0.572c0.01,0.024,0.017,0.049,0.028,0.073
					c0.645,1.448,2.347,2.101,3.794,1.456c1.447-0.645,2.101-2.347,1.456-3.794C158.04,255.267,156.338,254.613,154.891,255.258z
					 M150.449,262.849c-1.134,0.505-2.469-0.007-2.974-1.141c-0.506-1.135,0.006-2.469,1.141-2.974
					c1.134-0.505,2.469,0.007,2.974,1.141C152.096,261.009,151.584,262.343,150.449,262.849z M156.977,259.941
					c-1.135,0.505-2.469-0.007-2.974-1.141c-0.505-1.135,0.007-2.469,1.141-2.974c1.134-0.505,2.469,0.007,2.974,1.141
					C158.623,258.102,158.111,259.436,156.977,259.941z"/>
				
					<rect x="140.71" y="261.546" transform="matrix(0.9789 -0.2043 0.2043 0.9789 -50.4577 34.9105)" style="fill:#FFFFFF;" width="6.337" height="0.656"/>
			</g>
		</g>
	</g>
	<g>
		<g>
			<path style="fill:#DFDBFC;" d="M340.244,275.664c-4.633,6.98-11.23,12.743-19.078,16.664c-5.388,2.692-11.115,4.392-16.883,5.036
				c0.502,2.387,0.87,4.827,1.643,7.109c0.102,0.196,0.21,0.388,0.321,0.579c16.232-2.128,31.448-11.322,40.551-25.037
				L340.244,275.664z"/>
		</g>
		<g>
			<g>
				
					<rect x="292.96" y="268.144" transform="matrix(-0.9526 0.3043 -0.3043 -0.9526 671.6409 480.4919)" style="fill:#5F5EA5;" width="10.836" height="48.88"/>
				<path style="fill:#514E92;" d="M295.905,301.407l9.579-3.06c0.804-0.257,1.664,0.187,1.921,0.991l10.906,34.138
					c1.102,3.449-0.801,7.138-4.25,8.24l0,0c-3.449,1.102-7.138-0.801-8.24-4.25l-10.905-34.138
					C294.657,302.524,295.101,301.664,295.905,301.407z"/>
				<polygon style="fill:#ECBF4C;" points="280.845,261.762 281.883,246.589 285.125,245.553 294.768,257.314 293.695,266.764 
					287.197,268.84 				"/>
				<path style="fill:#8690F1;" d="M285.287,266.539l8.684-2.774c1.248-0.399,2.583,0.29,2.981,1.537l0,0
					c0.399,1.248-0.29,2.583-1.538,2.981l-8.684,2.774c-1.248,0.399-2.582-0.29-2.981-1.538l0,0
					C283.351,268.272,284.039,266.937,285.287,266.539z"/>
				<path style="fill:#FFFFFF;" d="M285.539,258.196c-0.286-0.896,0.229-1.861,1.151-2.155c0.922-0.294,1.901,0.193,2.187,1.089
					c0.286,0.896-0.229,1.861-1.151,2.155C286.804,259.58,285.825,259.092,285.539,258.196z"/>
				<path style="fill:#FFFFFF;" d="M286.608,257.705l-3.66-11.457l1.113-0.355l3.66,11.457c0.095,0.297-0.078,0.621-0.383,0.718
					c-0.153,0.049-0.311,0.033-0.445-0.034C286.762,257.969,286.656,257.854,286.608,257.705z"/>
				<path style="fill:#ECBF4C;" d="M294.752,301.161l11.529-3.683c0.767-0.245,1.595,0.182,1.84,0.949l0,0
					c0.245,0.767-0.182,1.595-0.949,1.84l-11.529,3.683c-0.767,0.245-1.595-0.182-1.84-0.949l0,0
					C293.557,302.234,293.985,301.406,294.752,301.161z"/>
				<path style="fill:#ECBF4C;" d="M302.654,306.014L302.654,306.014c1.176-0.376,2.446,0.279,2.822,1.455l10.633,33.285
					c0.376,1.176-0.279,2.446-1.455,2.822l0,0c-1.176,0.376-2.446-0.279-2.822-1.455l-10.633-33.285
					C300.824,307.659,301.478,306.389,302.654,306.014z"/>
			</g>
			<g>
				<g>
					<path style="fill:#ECBF4C;" d="M251.898,260.137l-0.903-0.473c3.233-6.165,9.7-10.728,19.221-13.562
						c3-0.893,6.105-1.589,9.108-2.262c4.601-1.031,9.359-2.098,13.777-3.89c8.389-3.402,14.181-9.405,15.494-16.055l1,0.197
						c-1.38,6.989-7.402,13.27-16.111,16.803c-4.496,1.824-9.295,2.899-13.937,3.94c-2.986,0.669-6.073,1.361-9.04,2.244
						C261.26,249.831,254.999,254.225,251.898,260.137z"/>
				</g>
				<path style="fill:#ECBF4C;" d="M284.541,242.968c0.174,1.112-0.587,2.154-1.7,2.328c-1.112,0.174-2.155-0.587-2.328-1.7
					c-0.174-1.112,0.587-2.155,1.7-2.328C283.325,241.095,284.367,241.856,284.541,242.968z"/>
				<path style="fill:#ECBF4C;" d="M253.461,259.587c0.174,1.112-0.587,2.154-1.7,2.328c-1.112,0.173-2.154-0.588-2.328-1.7
					c-0.174-1.112,0.587-2.155,1.7-2.328C252.245,257.713,253.287,258.474,253.461,259.587z"/>
				<path style="fill:#ECBF4C;" d="M311.018,223.785c0.173,1.112-0.588,2.154-1.7,2.328c-1.112,0.174-2.155-0.587-2.328-1.7
					c-0.174-1.112,0.587-2.154,1.7-2.328C309.802,221.911,310.845,222.672,311.018,223.785z"/>
			</g>
		</g>
		<g>
			<path style="fill:#363271;" d="M337.343,257.792c4.796,0.394,9.458,3.714,11.023,8.585c0.732,2.278,0.784,4.734,1.187,7.104
				c0.404,2.37,1.276,4.828,3.138,6.181c1.288,0.935,2.898,1.228,4.235,2.083c3.057,1.955,3.828,7.022,1.509,9.915
				c-0.464,0.579-1.025,1.075-1.405,1.72c-0.674,1.145-0.69,2.598-1.199,3.837c-0.485,1.18-1.399,2.108-2.416,2.797
				c-4.518,3.056-10.911,1.319-14.502-2.92c-3.591-4.239-4.733-10.334-4.335-16.041c0.289-4.135,1.133-8.879-1.467-11.951
				c-1.672-1.975-4.295-2.588-6.742-3.074c-4.666-0.927-1.476-3.796,0.777-5.301C330.181,258.697,333.74,257.496,337.343,257.792z"
				/>
			<g>
				<g>
					<path style="fill:#E08675;" d="M312.216,393.14c-0.379,0.416-0.771,0.857-0.9,1.405c-0.224,0.953,0.463,1.94,1.353,2.347
						c0.89,0.407,1.919,0.355,2.885,0.2c2.553-0.41,4.994-1.494,7.01-3.113c0.668-0.537,1.297-1.139,1.748-1.869
						c0.83-1.345,0.98-2.987,1.11-4.562c0.026-0.312,0.041-0.657-0.154-0.902c-0.135-0.169-0.348-0.255-0.551-0.329
						c-2.055-0.747-4.834-1.617-6.432,0.16C316.275,388.711,314.238,390.919,312.216,393.14z"/>
					<path style="fill:#E08675;" d="M352.016,394.137c-0.041,0.561-0.078,1.151,0.159,1.661c0.411,0.888,1.562,1.241,2.513,1.012
						c0.951-0.229,1.729-0.905,2.393-1.624c1.756-1.898,3.007-4.258,3.594-6.776c0.194-0.835,0.317-1.697,0.221-2.549
						c-0.177-1.571-1.072-2.955-1.943-4.274c-0.172-0.261-0.373-0.543-0.678-0.615c-0.211-0.05-0.431,0.014-0.637,0.081
						c-2.078,0.681-4.802,1.711-4.962,4.096C352.476,388.146,352.237,391.141,352.016,394.137z"/>
					<path style="fill:#ECBF4C;" d="M353.559,368.648c-1.039-2.372-2.051-4.754-3.032-7.147l-0.728-1.792
						c-0.235-0.589-0.465-1.17-0.674-1.731c-0.423-1.127-0.783-2.203-1.052-3.223c-0.269-1.019-0.442-1.979-0.512-2.873
						c-0.072-0.886-0.055-1.882,0.018-2.993c0.073-1.109,0.206-2.336,0.34-3.664l0.401-3.929l1.603-21.397l-28.53-0.545
						c-0.189,5.637-0.48,11.271-0.852,16.922c-0.37,5.651-0.817,11.322-1.279,17.016c-0.462,5.693-0.935,11.406-1.375,17.125
						c-0.442,5.72-0.853,11.446-1.231,17.173l9.254,0.935c0.777-5.647,1.587-11.288,2.428-16.928
						c0.84-5.641,1.712-11.281,2.579-16.943c0.866-5.661,1.724-11.348,2.509-17.071c0.036-0.265,0.07-0.53,0.106-0.795
						c0.439-0.15,0.825-0.252,1.125-0.27c0.227-0.013,0.454-0.016,0.681-0.014l-0.094,3.971l-0.094,3.948
						c-0.029,1.297-0.075,2.695-0.055,4.217c0.022,1.518,0.11,3.16,0.398,4.882c0.286,1.713,0.737,3.32,1.261,4.808
						c0.525,1.489,1.122,2.867,1.726,4.162c0.302,0.65,0.607,1.272,0.909,1.883l0.901,1.802c1.206,2.392,2.442,4.768,3.704,7.128
						c2.527,4.719,5.168,9.371,7.918,13.952l8.242-4.529C357.841,378.085,355.641,373.39,353.559,368.648z"/>
				</g>
				<g>
					<path style="fill:#5F5EA5;" d="M351.941,327.234c0.049,0.701-0.391,1.341-1.059,1.557c-7.642,2.475-15.395,3.487-23.449,2.994
						c-2.5-0.153-4.991-0.452-7.454-0.896c-0.005-0.001-0.011-0.002-0.017-0.003c-0.877-0.159-1.414-1.062-1.163-1.917
						c0.044-0.15,0.087-0.299,0.129-0.446c1.043-3.689,1.414-7.443,2.157-11.204c1.04-5.262,1.882-10.562,2.524-15.885
						c0.448-3.713-0.262-10.137,2.813-12.906c3.625-3.26,9.403-5.345,14.11-3.446c0.498,0.201,0.968,0.443,1.407,0.721
						c4.198,2.655,5.765,8.562,6.694,13.149C350.215,306.793,351.27,317.582,351.941,327.234z"/>
					<g>
						<path style="fill:#F0C9A1;" d="M301.495,322.643c-0.934-0.036-1.969-0.229-2.521-0.984c-0.219-0.3-0.338-0.661-0.425-1.022
							c-0.136-0.569-0.187-1.212,0.136-1.7c0.361-0.547,1.068-0.73,1.715-0.841c0.827-0.141,1.661-0.235,2.499-0.281
							c-0.46-0.223-0.857-0.571-1.14-0.996c-0.129-0.195-0.232-0.464-0.091-0.651c0.121-0.161,0.356-0.17,0.558-0.164
							c1.713,0.05,3.427,0.101,5.14,0.151c0.219,0.006,0.45,0.017,0.632,0.138c0.136,0.09,0.228,0.232,0.31,0.373
							c0.513,0.882,0.786,1.902,0.792,2.922c0.007,1.145-0.413,1.324-1.421,1.795C305.757,322.284,303.618,322.724,301.495,322.643z
							"/>
						<g>
							<path style="fill:#DFDBFC;" d="M343.248,294.836c0,0.693-0.184,1.394-0.57,2.032c-7.808,12.871-20.832,22.349-35.4,26.011
								c-0.47-0.87-0.857-1.785-1.158-2.725c-0.509-1.589-0.747-3.153-0.964-4.749c5.295-1.359,10.863-3.859,15.592-6.975
								c6.267-4.128,11.466-9.489,15.199-15.636c1.066-1.757,3.3-2.404,5.135-1.477
								C342.463,292.013,343.248,293.403,343.248,294.836z"/>
						</g>
					</g>
				</g>
			</g>
			<g>
				<path style="fill:#363271;" d="M345.732,264.289c0.682,0.961,0.92,2.165,1.04,3.338c0.307,3.014-0.076,6.138-1.403,8.861
					c-1.327,2.723-3.647,5.011-6.507,6.011c-0.614,0.215-1.388,0.334-1.835-0.138c-0.261-0.276-0.328-0.678-0.377-1.055
					c-0.621-4.696-0.571-9.481,0.147-14.163c0.196-1.279,0.459-2.592,1.188-3.662C339.879,260.707,344.031,261.89,345.732,264.289z"
					/>
				<path style="fill:#F0C9A1;" d="M338.525,276.604v9.506c0,1.87-1.517,3.387-3.387,3.387c-1.871,0-3.387-1.517-3.387-3.387v-9.506
					H338.525z"/>
				<path style="fill:#E9B588;" d="M338.525,278.882v6.993c-1.451-0.26-3.33-0.601-3.608-0.684c-1.097-0.33-2.163-0.75-3.167-1.289
					c-0.627-0.337-1.23-0.719-1.801-1.152c-2.131-1.622,0.057-2.489,1.801-3.191c0.002-0.002,0.007-0.002,0.009-0.004
					c1.836-0.739,3.813-1.13,5.791-1.134c0.194,0,0.393,0.002,0.57,0.081C338.296,278.58,338.425,278.715,338.525,278.882z"/>
				<path style="fill:#F0C9A1;" d="M323.884,272.999c0,6.095,3.235,11.036,8.304,11.036c5.069,0,9.178-4.941,9.178-11.036
					c0-6.095-4.109-11.036-9.178-11.036C327.12,261.963,323.884,266.904,323.884,272.999z"/>
				<path style="fill:#F0C9A1;" d="M339.035,274.029c-0.42,1.761,0.381,3.461,1.79,3.797c1.409,0.336,2.891-0.819,3.312-2.58
					c0.42-1.761-0.381-3.461-1.79-3.797C340.937,271.113,339.455,272.268,339.035,274.029z"/>
				<path style="fill:#363271;" d="M338.737,272.799c-0.03,0.53-0.097,1.08,0.084,1.578c0.182,0.499,0.718,0.92,1.225,0.761
					c0.315-0.099,0.53-0.385,0.712-0.661c1.503-2.285,2.265-5.049,2.146-7.782c-0.03-0.685-0.147-1.435-0.665-1.884
					c-0.235-0.204-0.53-0.324-0.822-0.429c-0.549-0.198-1.141-0.358-1.712-0.239c-0.925,0.192-1.565,1.079-1.811,1.992
					C337.253,268.51,338.872,270.378,338.737,272.799z"/>
				<path style="fill:#363271;" d="M324.204,261.266c-2.242,1.514-4.041,3.93-4.135,6.634c-0.033,0.936,0.183,1.957,0.899,2.561
					c0.397,0.336,0.909,0.507,1.42,0.606c2.846,0.551,5.647-0.936,8.165-2.371c-0.09,1.125,1.3,1.721,2.42,1.855
					c2.821,0.339,5.726-0.051,8.358-1.121c1.4-0.569,2.824-1.444,3.334-2.867c0.744-2.077-0.792-4.296-2.564-5.608
					C336.878,257.087,329.428,257.739,324.204,261.266z"/>
			</g>
		</g>
	</g>
</g>
<g id="DESIGNED_BY_FREEPIK">
	<g>
		<g id="XMLID_319_">
			<g id="XMLID_338_">
				<path id="XMLID_346_" style="fill:#1D262D;" d="M260.104,465.465c-0.433,0.443-0.804,0.932-1.108,1.453l-0.465-0.241
					c-0.067-0.297-0.35-0.502-0.659-0.466c-0.331,0.039-0.567,0.339-0.529,0.67c0.039,0.331,0.339,0.567,0.67,0.528
					c0.065-0.007,0.127-0.025,0.184-0.052l0.451,0.234c-0.251,0.554-0.433,1.139-0.539,1.743l0.747,0.132
					c0.23-1.306,0.85-2.507,1.792-3.473L260.104,465.465z"/>
				<path id="XMLID_345_" style="fill:#1D262D;" d="M265.591,463.164c-0.171,0-0.341,0.006-0.509,0.017l-0.074-0.626
					c0.188-0.149,0.296-0.389,0.266-0.645c-0.046-0.393-0.402-0.674-0.795-0.628c-0.394,0.046-0.675,0.402-0.628,0.796
					c0.03,0.254,0.189,0.461,0.404,0.563l0.073,0.624c-0.714,0.116-1.402,0.332-2.06,0.646l0.327,0.685
					c0.935-0.447,1.941-0.674,2.995-0.674c0.497,0,0.993,0.053,1.476,0.158l0.16-0.741
					C266.692,463.222,266.142,463.164,265.591,463.164z"/>
				<path id="XMLID_344_" style="fill:#1D262D;" d="M272.194,465.711c0.331-0.04,0.566-0.341,0.525-0.672
					c-0.04-0.331-0.341-0.566-0.672-0.525c-0.31,0.038-0.535,0.304-0.53,0.608l-0.416,0.363c-0.418-0.43-0.89-0.813-1.407-1.14
					l-0.404,0.642c1.135,0.715,2.021,1.727,2.564,2.925l0.69-0.313c-0.251-0.554-0.567-1.071-0.942-1.545l0.402-0.351
					C272.065,465.715,272.128,465.719,272.194,465.711z"/>
				<path id="XMLID_343_" style="fill:#1D262D;" d="M265.044,473.372c-0.386,0.023-0.775,0.035-1.157,0.035
					c-0.88,0-1.733-0.061-2.479-0.18c-0.391-0.062-0.846-0.154-1.271-0.292c1.047,1.861,3.069,3.125,5.389,3.125
					c2.855,0,5.263-1.916,5.949-4.503c-0.682,0.449-1.505,0.825-2.458,1.122C267.838,473.047,266.463,473.287,265.044,473.372z"/>
				<path id="XMLID_339_" style="fill:#1D262D;" d="M265.591,464.68c-3.351,0-6.079,2.666-6.079,5.943
					c0,0.425,0.046,0.849,0.137,1.261c0.674,0.483,2.706,0.891,5.348,0.731c2.88-0.174,5.297-0.958,6.672-2.159
					c-0.005-0.194-0.021-0.39-0.045-0.581C271.244,466.914,268.65,464.68,265.591,464.68z M263.432,471.195
					c-1.02,0-1.85-0.83-1.85-1.85c0-1.021,0.83-1.851,1.85-1.851c1.02,0,1.85,0.83,1.85,1.851
					C265.282,470.365,264.452,471.195,263.432,471.195z M268.169,470.287c-0.75,0-1.36-0.61-1.36-1.36s0.61-1.36,1.36-1.36
					s1.36,0.61,1.36,1.36S268.919,470.287,268.169,470.287z"/>
			</g>
			<path id="XMLID_336_" style="fill:#1D262D;" d="M281.595,466.547c-0.295-0.116-0.806-0.31-1.383-0.238
				c-0.551,0.069-0.844,0.341-0.844,1.007v0.866h2.229v1.717h-2.229v5.455h-1.932v-5.455h-1.339v-1.717h1.339v-0.889
				c0-1.68,0.896-2.782,2.568-2.782c0.643,0,1.157,0.121,1.59,0.308V466.547z"/>
			<path id="XMLID_334_" style="fill:#1D262D;" d="M286.297,469.878c-0.177-0.029-0.357-0.046-0.525-0.046
				c-0.896,0-1.51,0.548-1.51,1.613v3.908h-1.933v-7.172h1.873v0.784c0.451-0.673,1.14-0.977,2.021-0.977
				c0.414,0,0.848,0.128,1.095,0.337L286.297,469.878z"/>
			<path id="XMLID_331_" style="fill:#1D262D;" d="M293.965,471.757c0,0.222-0.016,0.488-0.037,0.651h-5.085
				c0.207,1.036,0.933,1.487,1.843,1.487c0.622,0,1.295-0.252,1.813-0.689l1.133,1.243c-0.814,0.748-1.851,1.089-3.057,1.089
				c-2.198,0-3.724-1.496-3.724-3.753c0-2.258,1.48-3.797,3.627-3.797C292.543,467.99,293.958,469.522,293.965,471.757z
				 M288.851,471.091h3.175c-0.178-0.918-0.732-1.437-1.562-1.437C289.554,469.655,289.021,470.203,288.851,471.091z"/>
			<path id="XMLID_328_" style="fill:#1D262D;" d="M301.619,471.757c0,0.222-0.016,0.488-0.037,0.651h-5.085
				c0.207,1.036,0.933,1.487,1.843,1.487c0.622,0,1.296-0.252,1.814-0.689l1.133,1.243c-0.815,0.748-1.851,1.089-3.058,1.089
				c-2.198,0-3.723-1.496-3.723-3.753c0-2.258,1.48-3.797,3.627-3.797C300.197,467.99,301.611,469.522,301.619,471.757z
				 M296.504,471.091h3.175c-0.178-0.918-0.733-1.437-1.561-1.437C297.208,469.655,296.674,470.203,296.504,471.091z"/>
			<path id="XMLID_325_" style="fill:#1D262D;" d="M309.964,471.764c0,2.154-1.495,3.775-3.472,3.775
				c-0.962,0-1.644-0.378-2.109-0.933v3.708h-1.925v-10.133h1.888v0.792c0.467-0.585,1.154-0.984,2.139-0.984
				C308.469,467.99,309.964,469.611,309.964,471.764z M304.287,471.764c0,1.133,0.748,1.977,1.844,1.977
				c1.14,0,1.85-0.881,1.85-1.977c0-1.095-0.71-1.976-1.85-1.976C305.035,469.789,304.287,470.632,304.287,471.764z"/>
			<path id="XMLID_322_" style="fill:#1D262D;" d="M313.068,465.836c0,0.696-0.541,1.229-1.236,1.229
				c-0.696,0-1.229-0.533-1.229-1.229c0-0.695,0.532-1.243,1.229-1.243C312.527,464.592,313.068,465.14,313.068,465.836z
				 M312.808,475.354h-1.932v-7.172h1.932V475.354z"/>
			<path id="XMLID_320_" style="fill:#1D262D;" d="M316.032,470.736l2.702-2.554h2.368l-3.478,3.375l3.501,3.797h-2.376
				l-2.717-2.901v2.901H314.1v-10.658h1.932V470.736z"/>
		</g>
		<g>
			<path style="fill:#1D262D;" d="M184.412,475.29v-1.055c-0.527,0.718-1.391,1.23-2.387,1.23c-1.846,0-3.149-1.406-3.149-3.706
				c0-2.256,1.289-3.721,3.149-3.721c0.952,0,1.816,0.469,2.387,1.245v-3.765h1.099v9.771H184.412z M184.412,473.371v-3.208
				c-0.395-0.615-1.245-1.143-2.124-1.143c-1.42,0-2.27,1.172-2.27,2.739c0,1.567,0.85,2.725,2.27,2.725
				C183.167,474.484,184.017,473.986,184.412,473.371z"/>
			<path style="fill:#1D262D;" d="M186.932,471.745c0-2.051,1.465-3.706,3.486-3.706c2.139,0,3.398,1.67,3.398,3.794v0.278h-5.727
				c0.088,1.333,1.025,2.446,2.549,2.446c0.806,0,1.626-0.322,2.182-0.894l0.527,0.718c-0.703,0.703-1.655,1.084-2.812,1.084
				C188.44,475.465,186.932,473.957,186.932,471.745z M190.403,468.947c-1.509,0-2.256,1.274-2.314,2.358h4.644
				C192.718,470.25,192.015,468.947,190.403,468.947z"/>
			<path style="fill:#1D262D;" d="M194.607,474.352l0.571-0.791c0.469,0.542,1.362,1.011,2.329,1.011c1.084,0,1.67-0.513,1.67-1.216
				c0-1.714-4.38-0.659-4.38-3.281c0-1.099,0.952-2.036,2.636-2.036c1.202,0,2.051,0.454,2.623,1.025l-0.513,0.762
				c-0.424-0.513-1.201-0.894-2.109-0.894c-0.966,0-1.567,0.483-1.567,1.113c0,1.553,4.379,0.527,4.379,3.281
				c0,1.187-0.952,2.139-2.783,2.139C196.306,475.465,195.325,475.114,194.607,474.352z"/>
			<path style="fill:#1D262D;" d="M201.477,466.471c0-0.41,0.337-0.747,0.732-0.747c0.41,0,0.747,0.337,0.747,0.747
				c0,0.41-0.337,0.732-0.747,0.732C201.814,467.204,201.477,466.881,201.477,466.471z M201.667,475.29v-7.075h1.099v7.075H201.667z
				"/>
			<path style="fill:#1D262D;" d="M204.582,477.106l0.556-0.82c0.586,0.703,1.289,0.967,2.3,0.967c1.172,0,2.271-0.571,2.271-2.124
				v-1.011c-0.513,0.718-1.377,1.26-2.373,1.26c-1.846,0-3.149-1.377-3.149-3.662c0-2.271,1.289-3.677,3.149-3.677
				c0.952,0,1.802,0.469,2.373,1.245v-1.069h1.099v6.87c0,2.344-1.641,3.076-3.369,3.076
				C206.237,478.161,205.416,477.925,204.582,477.106z M209.708,473.253v-3.091c-0.381-0.615-1.23-1.143-2.109-1.143
				c-1.421,0-2.27,1.128-2.27,2.695c0,1.553,0.849,2.695,2.27,2.695C208.478,474.411,209.328,473.869,209.708,473.253z"/>
			<path style="fill:#1D262D;" d="M217.413,475.29v-4.629c0-1.245-0.63-1.641-1.582-1.641c-0.864,0-1.685,0.527-2.094,1.099v5.171
				h-1.099v-7.075h1.099v1.025c0.497-0.586,1.464-1.201,2.519-1.201c1.479,0,2.256,0.747,2.256,2.285v4.966H217.413z"/>
			<path style="fill:#1D262D;" d="M219.932,471.745c0-2.051,1.465-3.706,3.486-3.706c2.139,0,3.398,1.67,3.398,3.794v0.278h-5.727
				c0.088,1.333,1.025,2.446,2.548,2.446c0.806,0,1.626-0.322,2.183-0.894l0.527,0.718c-0.703,0.703-1.655,1.084-2.813,1.084
				C221.441,475.465,219.932,473.957,219.932,471.745z M223.404,468.947c-1.509,0-2.256,1.274-2.314,2.358h4.643
				C225.718,470.25,225.015,468.947,223.404,468.947z"/>
			<path style="fill:#1D262D;" d="M233.35,475.29v-1.055c-0.527,0.718-1.392,1.23-2.388,1.23c-1.845,0-3.149-1.406-3.149-3.706
				c0-2.256,1.289-3.721,3.149-3.721c0.952,0,1.817,0.469,2.388,1.245v-3.765h1.098v9.771H233.35z M233.35,473.371v-3.208
				c-0.396-0.615-1.245-1.143-2.124-1.143c-1.421,0-2.27,1.172-2.27,2.739c0,1.567,0.85,2.725,2.27,2.725
				C232.105,474.484,232.954,473.986,233.35,473.371z"/>
			<path style="fill:#1D262D;" d="M239.692,475.29v-9.771h1.099v3.765c0.571-0.776,1.421-1.245,2.388-1.245
				c1.845,0,3.149,1.465,3.149,3.721c0,2.3-1.304,3.706-3.149,3.706c-0.996,0-1.86-0.513-2.388-1.23v1.055H239.692z M242.9,474.484
				c1.436,0,2.285-1.157,2.285-2.725c0-1.567-0.85-2.739-2.285-2.739c-0.864,0-1.729,0.527-2.109,1.143v3.208
				C241.171,473.986,242.036,474.484,242.9,474.484z"/>
			<path style="fill:#1D262D;" d="M247.528,477.062c0.161,0.073,0.425,0.117,0.601,0.117c0.483,0,0.806-0.161,1.055-0.747
				l0.469-1.069l-2.959-7.148h1.187l2.358,5.801l2.344-5.801h1.2l-3.544,8.511c-0.425,1.024-1.143,1.421-2.08,1.436
				c-0.234,0-0.6-0.044-0.806-0.104L247.528,477.062z"/>
		</g>
	</g>
</g>
</svg>
