<?xml version="1.0" encoding="utf-8"?>
<!-- Generator: Adobe Illustrator 27.5.0, SVG Export Plug-In . SVG Version: 6.00 Build 0)  -->
<svg version="1.1" xmlns="http://www.w3.org/2000/svg" xmlns:xlink="http://www.w3.org/1999/xlink" x="0px" y="0px"
	 viewBox="0 0 1122 1122" style="enable-background:new 0 0 1122 1122;" xml:space="preserve">
<g id="BG">
	<rect style="fill:#FFFFFF;" width="1122" height="1122"/>
</g>
<g id="Objects">
	<g>
		<g>
			<g>
				<path style="fill:#767676;" d="M814.341,860.294c1.29-4.703,2.074-9.536,2.335-14.462l-10.749-4.605
					c-0.083-3.039-0.398-6.108-0.951-9.156l9.596-6.69c-0.618-2.341-1.361-4.679-2.252-6.994c-0.865-2.302-1.866-4.534-2.977-6.696
					l-11.604,1.402c-1.616-2.662-3.411-5.158-5.389-7.475l4.958-10.583c-3.479-3.5-7.264-6.589-11.361-9.249l-9.379,7.029
					c-2.68-1.477-5.49-2.733-8.378-3.764l-1.01-11.682c-4.691-1.284-9.531-2.059-14.439-2.294l-4.629,10.725
					c-3.03,0.065-6.084,0.398-9.139,0.963l-6.69-9.59c-2.329,0.606-4.682,1.331-6.994,2.225c-2.299,0.873-4.537,1.878-6.69,2.968
					l1.391,11.634c-2.662,1.616-5.158,3.411-7.469,5.38l-10.594-4.95c-3.5,3.446-6.584,7.255-9.237,11.34l7.026,9.382
					c-1.485,2.686-2.727,5.499-3.761,8.378l-11.676,1.01c-1.284,4.706-2.065,9.543-2.32,14.46l10.752,4.593
					c0.071,3.051,0.386,6.105,0.948,9.162l-9.599,6.694c0.606,2.347,1.355,4.676,2.24,6.97c0.88,2.32,1.878,4.557,2.971,6.708
					l11.631-1.385c1.608,2.644,3.42,5.146,5.374,7.457l-4.946,10.597c3.467,3.497,7.252,6.595,11.34,9.225l9.382-7.011
					c2.704,1.491,5.479,2.73,8.396,3.761l1.004,11.67c4.688,1.277,9.534,2.074,14.451,2.326l4.593-10.746
					c3.042-0.065,6.096-0.398,9.15-0.962l6.717,9.602c2.332-0.606,4.673-1.343,6.976-2.222c2.308-0.886,4.542-1.884,6.693-3.001
					l-1.391-11.607c2.656-1.61,5.152-3.414,7.466-5.383l10.597,4.956c3.494-3.461,6.59-7.267,9.222-11.352l-7.015-9.391
					c1.471-2.674,2.736-5.469,3.767-8.366L814.341,860.294z M749.319,869.234c-14.813,0-26.81-12.006-26.81-26.813
					c0-14.81,11.996-26.816,26.81-26.816c14.807,0,26.816,12.006,26.816,26.816C776.135,857.228,764.127,869.234,749.319,869.234z"
					/>
			</g>
			<g>
				<path style="fill:#1A1A1E;" d="M749.319,805.13c-20.6,0-37.291,16.697-37.291,37.291c0,20.595,16.691,37.291,37.291,37.291
					c20.595,0,37.291-16.697,37.291-37.291C786.611,821.827,769.914,805.13,749.319,805.13z M749.319,863.191
					c-11.474,0-20.77-9.299-20.77-20.77c0-11.468,9.296-20.767,20.77-20.767c11.474,0,20.767,9.299,20.767,20.767
					C770.086,853.892,760.793,863.191,749.319,863.191z"/>
			</g>
			<g>
				<path style="fill:#CCCCCC;" d="M749.319,815.225c-15.015,0-27.196,12.175-27.196,27.196c0,15.018,12.181,27.196,27.196,27.196
					c15.021,0,27.196-12.178,27.196-27.196C776.515,827.4,764.34,815.225,749.319,815.225z M749.319,860.253
					c-9.846,0-17.832-7.983-17.832-17.831c0-9.846,7.986-17.831,17.832-17.831c9.846,0,17.826,7.986,17.826,17.831
					C767.145,852.27,759.165,860.253,749.319,860.253z"/>
			</g>
		</g>
		<g>
			<g>
				<path style="fill:#767676;" d="M573.588,650.576c-13.286,46.804,13.987,95.691,60.789,108.965
					c46.807,13.286,95.691-13.996,108.959-60.789c13.298-46.801-13.987-95.685-60.797-108.974
					C635.74,576.498,586.862,603.762,573.588,650.576z M710.727,658.472c8.173,28.586-8.375,58.397-36.95,66.567
					c-28.952,8.277-59.113-8.785-66.855-38.022c-7.273-27.44,9.064-56.816,36.192-65.168
					C672.01,612.945,702.426,629.571,710.727,658.472z"/>
			</g>
			<g>
				<path style="fill:#1A1A1E;" d="M792.095,724.035c3.574-9.68,6.091-19.71,7.523-30.03l-21.774-11.622
					c0.371-6.411,0.247-12.936-0.389-19.442l21.427-12.356c-0.87-5.048-2.032-10.104-3.458-15.131
					c-1.432-5.003-3.131-9.881-5.092-14.629l-24.682,0.859c-2.921-5.891-6.254-11.471-9.994-16.697l12.35-21.379
					c-6.67-8.001-14.106-15.188-22.238-21.521l-21.01,13.105c-5.389-3.589-11.064-6.744-16.961-9.43l-0.021-24.769
					c-9.649-3.545-19.691-6.052-29.983-7.436l-11.658,21.75c-6.405-0.401-12.894-0.258-19.4,0.386l-12.377-21.388
					c-5.015,0.853-10.101,1.955-15.122,3.422c-5.012,1.426-9.884,3.131-14.617,5.045l0.82,24.724
					c-5.874,2.926-11.462,6.251-16.679,9.988l-21.382-12.335c-7.995,6.631-15.178,14.094-21.498,22.211l13.084,21.007
					c-3.601,5.398-6.711,11.088-9.406,16.958l-24.745,0.032c-3.562,9.662-6.081,19.712-7.505,30.007l21.816,11.61
					c-0.416,6.435-0.288,12.915,0.324,19.46l-21.397,12.347c0.856,5.053,1.99,10.083,3.44,15.083
					c1.453,5.036,3.135,9.932,5.063,14.659l24.73-0.835c2.903,5.862,6.268,11.462,9.985,16.667l-12.332,21.412
					c6.661,7.989,14.07,15.194,22.196,21.459l21.031-13.057c5.401,3.616,11.022,6.729,16.97,9.409l0.003,24.757
					c9.659,3.523,19.706,6.088,30.009,7.496l11.605-21.798c6.414,0.419,12.912,0.282,19.436-0.365l12.419,21.415
					c5.003-0.847,10.048-1.985,15.065-3.431c5.033-1.438,9.881-3.146,14.638-5.092l-0.844-24.692
					c5.877-2.911,11.462-6.257,16.685-9.982l21.406,12.338c7.995-6.652,15.205-14.109,21.453-22.229l-13.066-21.034
					c3.574-5.368,6.75-11.013,9.432-16.931L792.095,724.035z M633.334,763.216c-48.825-13.845-77.274-64.85-63.418-113.68
					c13.845-48.828,64.838-77.28,113.674-63.427c48.824,13.848,77.274,64.841,63.433,113.686
					C733.166,748.62,682.176,777.081,633.334,763.216z"/>
			</g>
			<g>
				<path style="fill:#CCCCCC;" d="M569.916,649.536c-13.857,48.83,14.593,99.836,63.418,113.68
					c48.842,13.865,99.833-14.596,113.689-63.421c13.842-48.845-14.608-99.839-63.433-113.686
					C634.754,572.255,583.761,600.708,569.916,649.536z M743.336,698.752c-13.268,46.792-62.152,74.074-108.959,60.789
					c-46.801-13.274-74.075-62.161-60.789-108.965c13.274-46.813,62.152-74.078,108.951-60.798
					C729.349,603.067,756.634,651.951,743.336,698.752z"/>
			</g>
		</g>
		<g>
			<g>
				<g>
					<path style="fill:#CCCCCC;" d="M627.095,704.038c13.536-21.732,21.373-47.38,21.373-74.865
						c0-78.344-63.507-141.85-141.857-141.85c-78.344,0-141.857,63.507-141.857,141.85c0,26.091,7.077,50.518,19.371,71.523
						c0.089,0.232,0.142,0.493,0.261,0.695c36.786,62.514,47.312,80.37,50.64,85.857c0.271,0.448,0.731,1.387,1.287,2.418
						l0.85,8.975h2.193c0.199,0.113,0.395,0.178,0.576,0.137l0.371-0.137h132.424l0.371,0.137c0.19,0.042,0.383-0.024,0.579-0.137
						h2.383l0.986-9.575c0.401-0.781,0.743-1.459,0.966-1.818C581.289,781.838,591.574,764.386,627.095,704.038z"/>
				</g>
				<g>
					<g>
						<path style="fill:#FFFFFF;" d="M618.922,640.932c-4.899,0-8.871-3.972-8.871-8.872c0-57.03-46.409-103.43-103.446-103.43
							c-4.896,0-8.853-3.969-8.853-8.871c0-4.89,3.957-8.862,8.853-8.862c66.817,0,121.173,54.359,121.173,121.164
							C627.778,636.96,623.809,640.932,618.922,640.932z"/>
					</g>
				</g>
			</g>
			<g>
				<path style="fill:#1A1A1E;" d="M518.866,908.988h-24.504c-19.92,0-36.073-16.15-36.073-36.073V826.88
					c0-2.579,2.097-4.673,4.679-4.673h87.289c2.582,0,4.679,2.095,4.679,4.673v46.035
					C554.936,892.838,538.78,908.988,518.866,908.988z"/>
			</g>
			<g>
				<g>
					<path style="fill:#1A1A1E;" d="M488.387,806.696h-0.175c-4.884,0-8.844-3.954-8.844-8.839v-126.8
						c0-4.881,3.96-8.842,8.844-8.842h0.175c4.896,0,8.848,3.96,8.848,8.842v126.8C497.234,802.742,493.283,806.696,488.387,806.696
						z"/>
				</g>
				<g>
					<path style="fill:#1A1A1E;" d="M525.013,806.696h-0.178c-4.884,0-8.841-3.954-8.841-8.839v-126.8
						c0-4.881,3.957-8.842,8.841-8.842h0.178c4.878,0,8.844,3.96,8.844,8.842v126.8
						C533.857,802.742,529.891,806.696,525.013,806.696z"/>
				</g>
			</g>
			<g>
				<path style="fill:#767676;" d="M568.282,824.848H444.934c-7.956,0-14.421-6.456-14.421-14.43v-0.285
					c0-7.971,6.465-14.433,14.421-14.433h123.348c7.974,0,14.427,6.462,14.427,14.433v0.285
					C582.709,818.392,576.256,824.848,568.282,824.848z"/>
			</g>
			<g>
				<path style="fill:#767676;" d="M568.282,848.125H444.934c-7.956,0-14.421-6.465-14.421-14.433v-0.285
					c0-7.971,6.465-14.433,14.421-14.433h123.348c7.974,0,14.427,6.462,14.427,14.433v0.285
					C582.709,841.661,576.256,848.125,568.282,848.125z"/>
			</g>
			<g>
				<path style="fill:#767676;" d="M568.282,871.394H444.934c-7.956,0-14.421-6.456-14.421-14.424v-0.294
					c0-7.965,6.465-14.424,14.421-14.424h123.348c7.974,0,14.427,6.459,14.427,14.424v0.294
					C582.709,864.938,576.256,871.394,568.282,871.394z"/>
			</g>
			<g>
				<g>
					<g>
						<path style="fill:#CCCCCC;" d="M361.801,498.154c1.753-1.649,2.703-3.83,2.703-6.144c0-0.975-0.205-1.911-0.526-2.805
							l-29.237-27.662c-1.64-1.548-3.981-2.421-6.45-2.421c-2.555,0-4.899,0.888-6.625,2.52c-1.735,1.631-2.689,3.806-2.689,6.12
							c0,0.983,0.208,1.928,0.529,2.828l29.231,27.659C352.214,501.541,358.212,501.583,361.801,498.154z"/>
					</g>
				</g>
				<g>
					<g>
						<path style="fill:#CCCCCC;" d="M361.712,770.001c-1.628-1.542-3.978-2.418-6.465-2.418c-2.522,0-4.896,0.885-6.524,2.418
							l-33.28,31.497c-1.266,3.127-0.553,6.833,2.136,9.383c3.461,3.268,9.51,3.286,12.98,0l33.316-31.525
							c0.401-0.986,0.63-2.038,0.63-3.128C364.505,773.876,363.536,771.725,361.712,770.001z"/>
					</g>
				</g>
				<g>
					<g>
						<path style="fill:#CCCCCC;" d="M302.258,634.045c0-4.789-4.112-8.687-9.177-8.687h-39.454c-5.066,0-9.189,3.969-9.189,8.842
							c0,4.783,4.124,8.669,9.189,8.669h39.454C298.146,642.869,302.258,638.912,302.258,634.045z"/>
					</g>
				</g>
			</g>
		</g>
	</g>
	<g>
		<g>
			<path style="fill:#69CCC0;" d="M430.798,657.43c0,88.308-71.588,159.899-159.902,159.899C182.588,817.329,111,745.738,111,657.43
				c0-88.311,71.588-159.902,159.896-159.902C359.211,497.527,430.798,569.118,430.798,657.43z"/>
		</g>
	</g>
	<g>
		<g>
			
				<ellipse transform="matrix(0.7071 -0.7071 0.7071 0.7071 -250.6345 835.5043)" style="fill:#4F5055;" cx="883.226" cy="720.295" rx="127.774" ry="127.774"/>
		</g>
	</g>
	<g>
		<g>
			<circle style="fill:#FB9820;" cx="623.945" cy="449.526" r="237.295"/>
		</g>
	</g>
	<g>
		<g>
			<g>
				<path style="fill:#FFFFFF;" d="M328.17,677.765c0.126-0.621,0.694-0.901,1.263-0.622c0,0,6.797,3.328,11.691,3.328
					c5.273,0,8.057-2.647,8.057-6.662c0-3.834-2.409-6.024-8.509-8.671c-8.432-3.559-13.928-9.217-13.928-18.161
					c0-10.495,7.228-18.527,19.198-18.527c5.725,0,11.896,2.649,11.896,2.649c0.582,0.25,0.943,0.959,0.802,1.577l-2.049,8.981
					c-0.141,0.617-0.716,0.884-1.279,0.594c0,0-4.625-2.392-9.596-2.392c-4.967,0-7.377,2.738-7.377,5.932
					c0,3.925,2.861,5.66,9.412,8.671c8.96,4.015,13.176,9.673,13.176,18.344c0,10.312-6.551,19.074-20.482,19.074
					c-5.796,0-13.324-3.282-13.324-3.282c-0.58-0.253-0.952-0.968-0.827-1.588L328.17,677.765z"/>
			</g>
		</g>
		<g>
			<g>
				<path style="fill:#FFFFFF;" d="M368.673,630.605c0-0.633,0.518-1.151,1.151-1.151h9.067c0.633,0,1.151,0.518,1.151,1.151V655.5
					c0,0.633,0.051,1.151,0.113,1.151s0.349-0.461,0.637-1.025l2.396-4.713c0.297-0.559,0.795-1.467,1.106-2.019l10.391-18.437
					c0.311-0.552,1.083-1.003,1.716-1.003h11.777c0.633,0,0.872,0.436,0.53,0.969l-15.546,24.255
					c-0.342,0.533-0.389,1.432-0.106,1.999l16.661,33.26c0.284,0.566-0.002,1.029-0.636,1.029h-11.1
					c-0.633,0-1.371-0.469-1.639-1.043l-11.446-24.472c-0.268-0.573-0.777-0.613-1.131-0.088l-3.081,4.57
					c-0.354,0.525-0.643,1.473-0.643,2.106v17.775c0,0.633-0.518,1.151-1.151,1.151h-9.067c-0.633,0-1.151-0.518-1.151-1.151
					V630.605z"/>
			</g>
		</g>
		<g>
			<g>
				<path style="fill:#FFFFFF;" d="M425.259,629.454c0.633,0,1.151,0.518,1.151,1.151v59.209c0,0.633-0.518,1.151-1.151,1.151
					h-9.216c-0.633,0-1.151-0.518-1.151-1.151v-59.209c0-0.633,0.518-1.151,1.151-1.151H425.259z"/>
			</g>
		</g>
		<g>
			<g>
				<path style="fill:#FFFFFF;" d="M436.345,630.605c0-0.633,0.518-1.151,1.151-1.151h9.216c0.633,0,1.151,0.518,1.151,1.151v47.528
					c0,0.633,0.518,1.151,1.151,1.151h17.876c0.633,0,1.151,0.518,1.151,1.151v9.379c0,0.633-0.518,1.151-1.151,1.151h-29.395
					c-0.633,0-1.151-0.518-1.151-1.151V630.605z"/>
			</g>
		</g>
		<g>
			<g>
				<path style="fill:#FFFFFF;" d="M474.81,630.605c0-0.633,0.518-1.151,1.151-1.151h9.216c0.633,0,1.151,0.518,1.151,1.151v47.528
					c0,0.633,0.518,1.151,1.151,1.151h17.876c0.633,0,1.151,0.518,1.151,1.151v9.379c0,0.633-0.518,1.151-1.151,1.151h-29.395
					c-0.633,0-1.151-0.518-1.151-1.151V630.605z"/>
			</g>
		</g>
	</g>
	<g>
		<g>
			<g>
				<path style="fill:#FFFFFF;" d="M181.786,677.765c0.126-0.621,0.694-0.901,1.263-0.622c0,0,6.797,3.328,11.691,3.328
					c5.273,0,8.057-2.647,8.057-6.662c0-3.834-2.41-6.024-8.509-8.671c-8.432-3.559-13.928-9.217-13.928-18.161
					c0-10.495,7.228-18.527,19.198-18.527c5.725,0,11.895,2.649,11.895,2.649c0.582,0.25,0.943,0.959,0.802,1.577l-2.049,8.981
					c-0.141,0.617-0.716,0.884-1.279,0.594c0,0-4.625-2.392-9.596-2.392c-4.967,0-7.377,2.738-7.377,5.932
					c0,3.925,2.861,5.66,9.412,8.671c8.96,4.015,13.176,9.673,13.176,18.344c0,10.312-6.551,19.074-20.482,19.074
					c-5.796,0-13.324-3.282-13.324-3.282c-0.58-0.253-0.952-0.968-0.826-1.588L181.786,677.765z"/>
			</g>
		</g>
		<g>
			<g>
				<path style="fill:#FFFFFF;" d="M222.289,630.605c0-0.633,0.518-1.151,1.151-1.151h9.067c0.633,0,1.151,0.518,1.151,1.151V655.5
					c0,0.633,0.051,1.151,0.113,1.151s0.349-0.461,0.637-1.025l2.396-4.713c0.298-0.559,0.795-1.467,1.106-2.019l10.391-18.437
					c0.311-0.552,1.083-1.003,1.716-1.003h11.777c0.633,0,0.872,0.436,0.53,0.969l-15.546,24.255
					c-0.342,0.533-0.389,1.432-0.106,1.999l16.661,33.26c0.284,0.566-0.003,1.029-0.636,1.029h-11.1
					c-0.633,0-1.371-0.469-1.639-1.043l-11.446-24.472c-0.268-0.573-0.777-0.613-1.131-0.088l-3.08,4.57
					c-0.354,0.525-0.643,1.473-0.643,2.106v17.775c0,0.633-0.518,1.151-1.151,1.151h-9.067c-0.633,0-1.151-0.518-1.151-1.151
					V630.605z"/>
			</g>
		</g>
		<g>
			<g>
				<path style="fill:#FFFFFF;" d="M278.875,629.454c0.633,0,1.151,0.518,1.151,1.151v59.209c0,0.633-0.518,1.151-1.151,1.151
					h-9.216c-0.633,0-1.151-0.518-1.151-1.151v-59.209c0-0.633,0.518-1.151,1.151-1.151H278.875z"/>
			</g>
		</g>
		<g>
			<g>
				<path style="fill:#FFFFFF;" d="M289.961,630.605c0-0.633,0.518-1.151,1.151-1.151h9.216c0.633,0,1.151,0.518,1.151,1.151v47.528
					c0,0.633,0.518,1.151,1.151,1.151h17.876c0.633,0,1.151,0.518,1.151,1.151v9.379c0,0.633-0.518,1.151-1.151,1.151h-29.395
					c-0.633,0-1.151-0.518-1.151-1.151V630.605z"/>
			</g>
		</g>
		<g>
			<g>
				<path style="fill:#FFFFFF;" d="M328.426,630.605c0-0.633,0.518-1.151,1.151-1.151h9.216c0.633,0,1.151,0.518,1.151,1.151v47.528
					c0,0.633,0.518,1.151,1.151,1.151h17.876c0.633,0,1.151,0.518,1.151,1.151v9.379c0,0.633-0.518,1.151-1.151,1.151h-29.395
					c-0.633,0-1.151-0.518-1.151-1.151V630.605z"/>
			</g>
		</g>
	</g>
	<g>
		<g>
			<g>
				<path style="fill:#FFFFFF;" d="M775.984,697.903c0-0.446,0.362-0.861,0.804-0.922c0,0,6.157-0.852,10.29-0.852
					c7.127,0,12.053,1.785,15.559,5.357c3.678,3.638,5.942,9.131,5.942,17.026c0,8.238-2.32,14.418-5.942,18.399
					c-3.791,4.189-9.846,6.318-17.258,6.318c-4.073,0-8.588-0.524-8.588-0.524c-0.443-0.052-0.806-0.459-0.806-0.905V697.903z
					 M782.944,735.482c0,0.446,0.364,0.842,0.809,0.88c0,0,1.625,0.138,3.039,0.138c9.055,0.068,14.43-5.973,14.43-17.713
					c0.056-10.23-4.81-16.067-13.524-16.067c-2.207,0-3.956,0.331-3.956,0.331c-0.438,0.083-0.797,0.516-0.797,0.962V735.482z"/>
			</g>
		</g>
		<g>
			<g>
				<path style="fill:#FFFFFF;" d="M835.979,721.409c0,0.446-0.365,0.811-0.811,0.811h-12.751c-0.446,0-0.811,0.365-0.811,0.811
					v11.971c0,0.446,0.365,0.811,0.811,0.811h14.447c0.446,0,0.811,0.365,0.811,0.811v5.311c0,0.446-0.365,0.811-0.811,0.811
					h-21.408c-0.446,0-0.811-0.365-0.811-0.811v-44.651c0-0.446,0.365-0.811,0.811-0.811h20.561c0.446,0,0.811,0.365,0.811,0.811
					v5.312c0,0.446-0.365,0.811-0.811,0.811h-13.6c-0.446,0-0.811,0.365-0.811,0.811v10.323c0,0.446,0.365,0.811,0.811,0.811h12.751
					c0.446,0,0.811,0.365,0.811,0.811V721.409z"/>
			</g>
		</g>
		<g>
			<g>
				<path style="fill:#FFFFFF;" d="M853.775,742.748c-0.446,0-0.906-0.353-1.02-0.784l-11.92-44.706
					c-0.115-0.431,0.156-0.784,0.602-0.784h5.962c0.446,0,0.899,0.354,1.007,0.788l4.815,19.432
					c0.107,0.433,0.281,1.143,0.385,1.576l3.381,15.306c0.09,0.437,0.188,0.795,0.219,0.795c0.031,0,0.133-0.357,0.226-0.793
					l3.533-15.172c0.111-0.432,0.294-1.139,0.407-1.571l5.135-19.576c0.113-0.432,0.571-0.785,1.017-0.785h5.79
					c0.446,0,0.711,0.351,0.589,0.78l-12.74,44.713c-0.122,0.429-0.587,0.78-1.034,0.78H853.775z"/>
			</g>
		</g>
		<g>
			<g>
				<path style="fill:#FFFFFF;" d="M899.602,721.409c0,0.446-0.365,0.811-0.811,0.811h-12.751c-0.446,0-0.811,0.365-0.811,0.811
					v11.971c0,0.446,0.365,0.811,0.811,0.811h14.447c0.446,0,0.811,0.365,0.811,0.811v5.311c0,0.446-0.365,0.811-0.811,0.811
					h-21.408c-0.446,0-0.811-0.365-0.811-0.811v-44.651c0-0.446,0.365-0.811,0.811-0.811h20.561c0.446,0,0.811,0.365,0.811,0.811
					v5.312c0,0.446-0.365,0.811-0.811,0.811h-13.6c-0.446,0-0.811,0.365-0.811,0.811v10.323c0,0.446,0.365,0.811,0.811,0.811h12.751
					c0.446,0,0.811,0.365,0.811,0.811V721.409z"/>
			</g>
		</g>
		<g>
			<g>
				<path style="fill:#FFFFFF;" d="M907.421,697.285c0-0.446,0.365-0.811,0.811-0.811h5.338c0.446,0,0.811,0.365,0.811,0.811v37.579
					c0,0.446,0.365,0.811,0.811,0.811h14.052c0.446,0,0.811,0.365,0.811,0.811v5.45c0,0.446-0.365,0.811-0.811,0.811h-21.013
					c-0.446,0-0.811-0.365-0.811-0.811V697.285z"/>
			</g>
		</g>
		<g>
			<g>
				<path style="fill:#FFFFFF;" d="M966.962,719.13c0,15.516-7.751,24.372-18.277,24.372c-10.752,0-17.541-9.954-17.541-23.549
					c0-14.211,7.356-24.235,18.108-24.235C960.399,695.718,966.962,705.948,966.962,719.13z M938.5,719.816
					c0,9.406,3.904,16.89,10.582,16.89c6.732,0,10.523-7.552,10.523-17.233c0-8.72-3.565-16.958-10.523-16.958
					C942.178,702.515,938.5,710.274,938.5,719.816z"/>
			</g>
		</g>
		<g>
			<g>
				<path style="fill:#FFFFFF;" d="M972.975,697.903c0-0.446,0.36-0.87,0.801-0.941c0,0,5.141-0.833,9.838-0.833
					c5.092,0,8.827,1.306,11.26,3.776c2.264,2.267,3.737,5.905,3.737,10.23c0,4.394-1.132,8.034-3.283,10.505
					c-2.772,3.363-7.13,4.942-12.053,4.942c-1.301,0-2.591-0.169-2.591-0.169c-0.442-0.058-0.804,0.26-0.804,0.706v15.817
					c0,0.446-0.365,0.811-0.811,0.811h-5.282c-0.446,0-0.811-0.365-0.811-0.811V697.903z M979.879,717.837
					c0,0.446,0.36,0.874,0.799,0.95c0,0,1.182,0.205,2.596,0.205c5.205,0,8.375-3.09,8.375-8.513c0-5.149-2.944-7.895-7.754-7.895
					c-1.922,0-3.221,0.255-3.221,0.255c-0.438,0.086-0.796,0.521-0.796,0.968V717.837z"/>
			</g>
		</g>
	</g>
	<g>
		<g>
			<g>
				<path style="fill:#1A1A1E;" d="M292.866,380.674c0-0.564-0.461-1.025-1.025-1.025h-27.745c-0.564,0-1.025-0.461-1.025-1.025
					v-23.262c0-0.564,0.461-1.025,1.025-1.025h83.219c0.564,0,1.025,0.461,1.025,1.025v23.262c0,0.564-0.461,1.025-1.025,1.025
					h-28.238c-0.564,0-1.025,0.461-1.025,1.025v105.923c0,0.564-0.461,1.025-1.025,1.025h-23.134c-0.564,0-1.025-0.461-1.025-1.025
					V380.674z"/>
			</g>
		</g>
		<g>
			<g>
				<path style="fill:#1A1A1E;" d="M361.659,357.142c0-0.564,0.457-1.088,1.016-1.165c0,0,19.065-2.629,32.399-2.629
					c16.462,0,27.983,2.966,35.886,10.481c6.584,6.328,10.205,15.623,10.205,27.882c0,17.007-18.79,32.183-18.79,32.183
					c-0.439,0.354-0.798,0.777-0.798,0.94s0.318,0.631,0.706,1.04c0,0,11.309,11.913,14.107,24.174
					c3.458,15.03,8.808,36.578,8.808,36.578c0.136,0.547-0.214,0.995-0.778,0.995h-23.63c-0.564,0-1.159-0.441-1.323-0.981
					c0,0-4.147-13.652-7.438-30.067c-2.962-16.611-16.964-21.047-16.964-21.047c-0.538-0.17-1.439-0.31-2.003-0.31h-5.522
					c-0.564,0-1.025,0.461-1.025,1.025v50.354c0,0.564-0.461,1.025-1.025,1.025h-22.805c-0.564,0-1.025-0.461-1.025-1.025V357.142z
					 M386.513,412.439c0,0.564,0.461,1.025,1.025,1.025h7.828c0.564,0,1.457-0.163,1.984-0.362c0,0,18.958-7.153,18.958-18.82
					c0-12.261-6.913-18.392-18.438-18.589c-6.09,0-10.35,0.8-10.35,0.8c-0.554,0.104-1.008,0.651-1.008,1.214V412.439z"/>
			</g>
		</g>
		<g>
			<g>
				<path style="fill:#1A1A1E;" d="M487.606,453.41c-0.564,0-1.129,0.449-1.256,0.999l-7.441,32.214
					c-0.127,0.549-0.692,0.999-1.256,0.999h-23.957c-0.564,0-0.911-0.447-0.772-0.994l33.405-131.298
					c0.139-0.546,0.714-0.993,1.278-0.993h30.871c0.564,0,1.141,0.447,1.281,0.993l33.891,131.3
					c0.141,0.546-0.205,0.993-0.769,0.993h-24.946c-0.564,0-1.137-0.447-1.274-0.995l-8.062-32.223
					c-0.137-0.547-0.71-0.995-1.274-0.995H487.606z M513.702,430.867c0.564,0,0.916-0.448,0.782-0.996l-6.426-26.287
					c-0.134-0.548-0.344-1.446-0.466-1.997l-5.171-23.702c-0.112-0.552-0.279-1.005-0.369-1.005c-0.091,0-0.248,0.454-0.349,1.008
					l-4.721,23.693c-0.107,0.554-0.3,1.456-0.428,2.005l-6.119,26.282c-0.128,0.549,0.229,0.999,0.793,0.999H513.702z"/>
			</g>
		</g>
		<g>
			<g>
				<path style="fill:#1A1A1E;" d="M592.863,354.337c0.564,0,1.025,0.461,1.025,1.025v131.235c0,0.564-0.461,1.025-1.025,1.025
					h-23.134c-0.564,0-1.025-0.461-1.025-1.025V355.362c0-0.564,0.461-1.025,1.025-1.025H592.863z"/>
			</g>
		</g>
		<g>
			<g>
				<path style="fill:#1A1A1E;" d="M616.634,487.622c-0.564,0-1.025-0.461-1.025-1.025V355.362c0-0.564,0.461-1.025,1.025-1.025
					h27.249c0.564,0,1.222,0.417,1.463,0.927l22.171,46.991c0.241,0.51,0.62,1.351,0.842,1.869l17.352,43.776
					c0.193,0.53,0.462,0.963,0.597,0.963c0.136,0,0.219-0.461,0.185-1.023l-2.064-53.522c-0.007-0.564-0.013-1.486-0.013-2.05
					v-36.906c0-0.564,0.461-1.025,1.025-1.025h20.992c0.564,0,1.025,0.461,1.025,1.025v131.235c0,0.564-0.461,1.025-1.025,1.025
					h-24.284c-0.564,0-1.218-0.419-1.455-0.931l-22.847-49.553c-0.236-0.512-0.615-1.353-0.842-1.87l-18.479-45.171
					c-0.203-0.526-0.48-0.912-0.616-0.858c-0.136,0.054-0.234,0.56-0.219,1.124l0.953,56.09c0.005,0.564,0.008,1.487,0.008,2.05
					v38.093c0,0.564-0.461,1.025-1.025,1.025H616.634z"/>
			</g>
		</g>
		<g>
			<g>
				<path style="fill:#1A1A1E;" d="M753.333,354.337c0.564,0,1.025,0.461,1.025,1.025v131.235c0,0.564-0.461,1.025-1.025,1.025
					h-23.134c-0.564,0-1.025-0.461-1.025-1.025V355.362c0-0.564,0.461-1.025,1.025-1.025H753.333z"/>
			</g>
		</g>
		<g>
			<g>
				<path style="fill:#1A1A1E;" d="M777.104,487.622c-0.564,0-1.025-0.461-1.025-1.025V355.362c0-0.564,0.461-1.025,1.025-1.025
					h27.249c0.564,0,1.222,0.417,1.463,0.927l22.171,46.991c0.241,0.51,0.62,1.351,0.842,1.869l17.352,43.776
					c0.193,0.53,0.462,0.963,0.597,0.963c0.136,0,0.219-0.461,0.185-1.023l-2.064-53.522c-0.007-0.564-0.013-1.486-0.013-2.05
					v-36.906c0-0.564,0.461-1.025,1.025-1.025h20.995c0.564,0,1.025,0.461,1.025,1.025v131.235c0,0.564-0.461,1.025-1.025,1.025
					h-24.29c-0.564,0-1.218-0.419-1.454-0.931l-22.844-49.553c-0.236-0.512-0.615-1.353-0.842-1.87l-18.479-45.171
					c-0.203-0.526-0.48-0.912-0.616-0.858c-0.136,0.054-0.234,0.56-0.219,1.124l0.953,56.09c0.005,0.564,0.008,1.487,0.008,2.05
					v38.093c0,0.564-0.461,1.025-1.025,1.025H777.104z"/>
			</g>
		</g>
		<g>
			<g>
				<path style="fill:#1A1A1E;" d="M982.318,480.466c0,0.564-0.437,1.172-0.972,1.352c0,0-21.417,7.189-36.067,7.189
					c-20.247,0-34.897-6.131-45.102-17.995c-10.205-11.471-15.802-28.873-15.639-48.45c0.166-44.297,26.997-69.609,63.376-69.609
					c14.32,0,29.829,6.148,29.829,6.148c0.524,0.208,0.855,0.829,0.734,1.379l-4.83,22.122c-0.12,0.551-0.644,0.823-1.164,0.605
					c0,0-12.718-5.337-24.899-5.337c-20.906,0-36.709,14.238-36.709,43.11c0,27.487,14.323,43.704,34.897,43.704
					c5.764,0,11.365-1.684,11.365-1.684c0.54-0.162,0.982-0.756,0.982-1.32v-25.832c0-0.564-0.461-1.025-1.025-1.025h-15.068
					c-0.564,0-1.025-0.461-1.025-1.025v-21.482c0-0.564,0.461-1.025,1.025-1.025h39.266c0.564,0,1.025,0.461,1.025,1.025V480.466z"
					/>
			</g>
		</g>
	</g>
</g>
</svg>
