<?xml version="1.0" encoding="utf-8"?>
<!-- Generator: Adobe Illustrator 27.5.0, SVG Export Plug-In . SVG Version: 6.00 Build 0)  -->
<svg version="1.1" xmlns="http://www.w3.org/2000/svg" xmlns:xlink="http://www.w3.org/1999/xlink" x="0px" y="0px"
	 viewBox="0 0 500 500" style="enable-background:new 0 0 500 500;" xml:space="preserve">
<g id="Background_Simple">
	<g>
		<path style="fill:#C6FF00;" d="M256.074,133.615c0,0,36.145,14.63,66.265,14.63c30.121,0,30.121-18.933,62.823-21.515
			c32.702-2.582,52.496,37.005,56.799,87.78c4.303,50.775-11.188,120.482-69.707,154.905s-155.766,57.659-223.752,19.793
			C80.515,351.344,42.649,279.054,65.885,205.044s92.083-92.943,122.203-89.501C218.208,118.986,256.074,133.615,256.074,133.615z"
			/>
		<path style="opacity:0.8;fill:#FFFFFF;" d="M256.074,133.615c0,0,36.145,14.63,66.265,14.63c30.121,0,30.121-18.933,62.823-21.515
			c32.702-2.582,52.496,37.005,56.799,87.78c4.303,50.775-11.188,120.482-69.707,154.905s-155.766,57.659-223.752,19.793
			C80.515,351.344,42.649,279.054,65.885,205.044s92.083-92.943,122.203-89.501C218.208,118.986,256.074,133.615,256.074,133.615z"
			/>
	</g>
</g>
<g id="Graphics">
	<g>
		<g>
			<g>
				<rect x="93.243" y="157.712" style="fill:#FFFFFF;" width="18.971" height="18.971"/>
				<rect x="119.203" y="157.712" style="fill:#FFFFFF;" width="18.971" height="18.971"/>
				<rect x="93.243" y="184.671" style="fill:#FFFFFF;" width="18.971" height="18.971"/>
				<rect x="119.203" y="184.671" style="fill:#FFFFFF;" width="18.971" height="18.971"/>
				<rect x="93.243" y="211.629" style="fill:#FFFFFF;" width="18.971" height="18.971"/>
				<rect x="119.203" y="211.629" style="fill:#FFFFFF;" width="18.971" height="18.971"/>
				<rect x="93.243" y="238.588" style="fill:#FFFFFF;" width="18.971" height="18.971"/>
				<rect x="119.203" y="238.588" style="fill:#FFFFFF;" width="18.971" height="18.971"/>
				<rect x="93.243" y="265.547" style="fill:#FFFFFF;" width="18.971" height="18.971"/>
				<rect x="119.203" y="265.547" style="fill:#FFFFFF;" width="18.971" height="18.971"/>
				<rect x="93.243" y="292.505" style="fill:#FFFFFF;" width="18.971" height="18.971"/>
				<rect x="119.203" y="292.505" style="fill:#FFFFFF;" width="18.971" height="18.971"/>
				<rect x="93.243" y="319.464" style="fill:#FFFFFF;" width="18.971" height="18.971"/>
				<rect x="119.203" y="319.464" style="fill:#FFFFFF;" width="18.971" height="18.971"/>
			</g>
			<g>
				<path style="fill:#FFFFFF;" d="M337.19,169.678v53.774h76.149v-53.774H337.19z M410.34,220.453H340.19v-47.774h70.149V220.453z"
					/>
				<rect x="344.714" y="180.087" style="fill:#FFFFFF;" width="11.188" height="11.188"/>
				<rect x="369.671" y="180.087" style="fill:#FFFFFF;" width="11.188" height="11.188"/>
				<rect x="394.628" y="180.087" style="fill:#FFFFFF;" width="11.188" height="11.188"/>
				<rect x="344.714" y="200.741" style="fill:#FFFFFF;" width="11.188" height="11.188"/>
				<rect x="369.671" y="200.741" style="fill:#FFFFFF;" width="11.188" height="11.188"/>
				<rect x="394.628" y="200.741" style="fill:#FFFFFF;" width="11.188" height="11.188"/>
			</g>
			<g>
				<path style="fill:#FFFFFF;" d="M363.868,210.126V263.9h76.149v-53.774H363.868z M437.018,260.9h-70.149v-47.774h70.149V260.9z"
					/>
				<rect x="371.392" y="220.535" style="fill:#FFFFFF;" width="11.188" height="11.188"/>
				<rect x="396.349" y="220.535" style="fill:#FFFFFF;" width="11.188" height="11.188"/>
				<rect x="421.306" y="220.535" style="fill:#FFFFFF;" width="11.188" height="11.188"/>
				<rect x="371.392" y="241.189" style="fill:#FFFFFF;" width="11.188" height="11.188"/>
				<rect x="396.349" y="241.189" style="fill:#FFFFFF;" width="11.188" height="11.188"/>
				<rect x="421.306" y="241.189" style="fill:#FFFFFF;" width="11.188" height="11.188"/>
			</g>
		</g>
		<g>
			<rect x="231.121" y="358.754" style="fill:#FFFFFF;" width="25.526" height="25.526"/>
		</g>
		<g>
			<path style="fill:#FFFFFF;" d="M270.911,396.72h-28.526v-28.526h28.526V396.72z M245.385,393.72h22.526v-22.526h-22.526V393.72z"
				/>
		</g>
	</g>
</g>
<g id="Pen_Tool_5">
	<g>
		<circle style="fill:#C6FF00;" cx="250.976" cy="245.302" r="75.333"/>
		<g>
			<path style="fill:#FFFFFF;stroke:#263238;stroke-linecap:round;stroke-linejoin:round;stroke-miterlimit:10;" d="
				M250.249,257.623v26.617h-22.581l-13.874-31.966l31.559-74.137h4.897v65.523c-3.389,0.525-5.985,3.446-5.985,6.981
				C244.264,254.178,246.86,257.099,250.249,257.623z M257.866,178.138h-4.897v65.628c3.118,0.738,5.441,3.533,5.441,6.877
				c0,3.344-2.323,6.139-5.441,6.877v26.722h22.581l13.874-31.966L257.866,178.138z"/>
			
				<rect x="228.015" y="287.802" style="fill:#263238;stroke:#263238;stroke-linecap:round;stroke-linejoin:round;stroke-miterlimit:10;" width="47.41" height="16.027"/>
			<g>
				<path style="fill:#263238;stroke:#263238;stroke-linecap:round;stroke-linejoin:round;stroke-miterlimit:10;" d="
					M258.411,250.642c0,3.344-2.323,6.139-5.441,6.877v26.722h22.581l13.874-31.966l-9.128-21.443
					c-7.446,5.905-15.31,11.2-23.085,15.876C257.969,247.832,258.411,249.184,258.411,250.642z"/>
				<path style="fill:#263238;stroke:#263238;stroke-linecap:round;stroke-linejoin:round;stroke-miterlimit:10;" d="
					M227.667,284.24h22.581v-26.617c-2.354-0.365-4.323-1.887-5.308-3.967c-9.328,4.976-18.09,8.998-25.316,12.055L227.667,284.24z"
					/>
			</g>
		</g>
	</g>
	<g>
		<path style="fill:none;stroke:#263238;stroke-width:4;stroke-miterlimit:10;" d="M358.976,245.302c0-59.647-48.353-108-108-108
			c-59.647,0-108,48.353-108,108"/>
		
			<line style="fill:none;stroke:#263238;stroke-width:4;stroke-miterlimit:10;" x1="184.711" y1="137.302" x2="317.241" y2="137.302"/>
		<circle style="fill:#FFFFFF;stroke:#263238;stroke-width:4;stroke-miterlimit:10;" cx="250.976" cy="137.302" r="7.129"/>
		<circle style="fill:#FFFFFF;stroke:#263238;stroke-width:4;stroke-miterlimit:10;" cx="185.571" cy="137.302" r="7.129"/>
		<circle style="fill:#FFFFFF;stroke:#263238;stroke-width:4;stroke-miterlimit:10;" cx="316.315" cy="137.302" r="7.129"/>
	</g>
</g>
<g id="Pen_Tool_4">
	<g>
		
			<ellipse transform="matrix(0.7071 -0.7071 0.7071 0.7071 -80.3885 337.8631)" style="fill:#C6FF00;" cx="367.643" cy="265.969" rx="32.667" ry="32.667"/>
		<g>
			<path style="fill:#263238;" d="M362.16,291.596c-0.778,0-1.433-0.602-1.489-1.389l-3.127-44.386
				c-0.045-0.645,0.33-1.246,0.929-1.49c0.6-0.244,1.287-0.072,1.704,0.422l28.071,33.3c0.532,0.631,0.452,1.573-0.18,2.105
				c-0.631,0.531-1.574,0.452-2.105-0.18l-25.116-29.795l2.805,39.814c0.058,0.823-0.562,1.537-1.385,1.595
				C362.23,291.595,362.195,291.596,362.16,291.596z"/>
		</g>
	</g>
</g>
<g id="Pen_Tool_3">
	<g>
		
			<ellipse transform="matrix(0.6165 -0.7874 0.7874 0.6165 -154.625 382.4149)" style="fill:#C6FF00;" cx="315.231" cy="349.928" rx="32.667" ry="32.667"/>
		<g>
			<g>
				<path style="fill:#FFFFFF;stroke:#263238;stroke-linecap:round;stroke-linejoin:round;stroke-miterlimit:10;" d="
					M333.726,349.576l9.358-9.358l7.939,7.94l-6.361,16.117l-37.162,14.97l-1.722-1.722l23.038-23.038
					c1.376,1.007,3.316,0.893,4.559-0.35C334.619,352.892,334.733,350.952,333.726,349.576z M303.101,374.844l1.722,1.722
					l23.074-23.074c-0.837-1.356-0.671-3.155,0.505-4.331c1.176-1.176,2.975-1.342,4.331-0.505l9.395-9.395l-7.94-7.939
					l-16.117,6.361L303.101,374.844z"/>
				
					<rect x="334.85" y="331.646" transform="matrix(-0.7071 -0.7071 0.7071 -0.7071 354.4199 818.0667)" style="fill:#263238;stroke:#263238;stroke-linecap:round;stroke-linejoin:round;stroke-miterlimit:10;" width="23.574" height="7.969"/>
			</g>
			<g>
				<path style="fill:#263238;" d="M301.542,381.433c-0.144,0-0.29-0.021-0.436-0.065c-0.14-0.043-13.999-4.426-12.481-17.426
					c0.71-6.081,3.837-9.658,6.862-13.117c3.218-3.68,6.258-7.156,6.476-13.72c0.398-12.021-9.38-14.699-9.797-14.808
					c-0.797-0.207-1.278-1.02-1.074-1.817c0.204-0.798,1.013-1.279,1.811-1.079c0.125,0.032,12.526,3.329,12.047,17.803
					c-0.252,7.629-3.791,11.675-7.213,15.588c-2.85,3.259-5.541,6.337-6.144,11.496c-1.227,10.507,9.914,14.075,10.388,14.222
					c0.787,0.244,1.23,1.079,0.988,1.866C302.771,381.02,302.181,381.433,301.542,381.433z"/>
			</g>
		</g>
	</g>
</g>
<g id="Pen_Tool_2">
	<g>
		
			<ellipse transform="matrix(0.974 -0.2266 0.2266 0.974 -74.7955 50.8964)" style="fill:#C6FF00;" cx="184.309" cy="351.261" rx="32.667" ry="32.667"/>
		<g>
			<g>
				<path style="fill:#FFFFFF;stroke:#263238;stroke-linecap:round;stroke-linejoin:round;stroke-miterlimit:10;" d="
					M199.567,350.147l9.358-9.358l7.939,7.94l-6.361,16.117l-37.162,14.97l-1.722-1.722l23.038-23.038
					c1.376,1.007,3.316,0.893,4.559-0.35S200.574,351.523,199.567,350.147z M168.942,375.415l1.722,1.722l23.074-23.074
					c-0.837-1.356-0.671-3.155,0.505-4.331c1.176-1.176,2.975-1.342,4.331-0.505l9.395-9.395l-7.939-7.939l-16.117,6.361
					L168.942,375.415z"/>
				
					<rect x="200.691" y="332.217" transform="matrix(-0.7071 -0.7071 0.7071 -0.7071 124.9916 724.176)" style="fill:#263238;stroke:#263238;stroke-linecap:round;stroke-linejoin:round;stroke-miterlimit:10;" width="23.574" height="7.969"/>
			</g>
			<rect x="157.402" y="335.52" style="fill:#263238;" width="3.984" height="28.881"/>
			
				<rect x="157.402" y="335.52" transform="matrix(-1.836970e-16 1 -1 -1.836970e-16 509.3546 190.5666)" style="fill:#263238;" width="3.984" height="28.881"/>
		</g>
	</g>
</g>
<g id="Pen_Tool_1">
	<g>
		
			<ellipse transform="matrix(0.4084 -0.9128 0.9128 0.4084 -164.6491 273.9078)" style="fill:#C6FF00;" cx="128.976" cy="263.969" rx="32.667" ry="32.667"/>
		<g>
			<g>
				<path style="fill:#FFFFFF;stroke:#263238;stroke-linecap:round;stroke-linejoin:round;stroke-miterlimit:10;" d="
					M142.805,260.053l9.358-9.358l7.939,7.94l-6.361,16.117l-37.162,14.97L114.858,288l23.037-23.037
					c1.376,1.007,3.316,0.893,4.559-0.35C143.698,263.369,143.812,261.429,142.805,260.053z M112.18,285.322l1.722,1.722
					l23.074-23.074c-0.837-1.356-0.671-3.155,0.505-4.331c1.176-1.176,2.975-1.342,4.331-0.505l9.395-9.395l-7.939-7.939
					l-16.117,6.361L112.18,285.322z"/>
				
					<rect x="143.929" y="242.123" transform="matrix(-0.7071 -0.7071 0.7071 -0.7071 91.7998 530.2402)" style="fill:#263238;stroke:#263238;stroke-linecap:round;stroke-linejoin:round;stroke-miterlimit:10;" width="23.574" height="7.969"/>
			</g>
			
				<rect x="100.64" y="245.426" transform="matrix(-1.836970e-16 1 -1 -1.836970e-16 362.4991 157.2348)" style="fill:#263238;" width="3.984" height="28.881"/>
		</g>
	</g>
</g>
</svg>
