<?xml version="1.0" encoding="utf-8"?>
<!-- Generator: Adobe Illustrator 27.5.0, SVG Export Plug-In . SVG Version: 6.00 Build 0)  -->
<svg version="1.1" id="background" xmlns="http://www.w3.org/2000/svg" xmlns:xlink="http://www.w3.org/1999/xlink" x="0px" y="0px"
	 viewBox="0 0 600 400" style="enable-background:new 0 0 600 400;" xml:space="preserve">
<g>
	<linearGradient id="SVGID_1_" gradientUnits="userSpaceOnUse" x1="781.4805" y1="-167.0302" x2="-29.2864" y2="451.0134">
		<stop  offset="0" style="stop-color:#101B20"/> 
		<!-- #1A2A51 #1A182E -->
		<stop  offset="1" style="stop-color:#0B161A"/>
	</linearGradient>
	<rect style="fill:url(#SVGID_1_);" width="600" height="400"/>
	<g>
		<g>
			<path style="fill:#174275;" d="M171.5,252.1c-1.71-2.3-4.96-2.77-7.25-1.07c-2.16,1.6-2.69,4.56-1.34,6.81L0,375.28v1.24
				l163.51-117.87c0.8,0.89,1.86,1.49,3.07,1.67c0.25,0.04,0.51,0.06,0.77,0.06c1.1,0,2.17-0.36,3.08-1.03
				C172.72,257.65,173.2,254.4,171.5,252.1z M169.83,258.55c-0.9,0.67-2,0.94-3.11,0.78c-1.1-0.16-2.08-0.75-2.74-1.64
				c-1.38-1.86-0.99-4.48,0.86-5.86c0.75-0.56,1.62-0.82,2.49-0.82c1.28,0,2.55,0.58,3.37,1.69
				C172.07,254.55,171.68,257.18,169.83,258.55z"/>
			<path style="fill:#174275;" d="M138.42,260.6c-0.82-1.11-2.03-1.84-3.4-2.04s-2.74,0.14-3.85,0.97c-1.11,0.82-1.84,2.03-2.04,3.4
				c-0.18,1.2,0.09,2.39,0.7,3.42L0,359.64v1.22l130.41-93.7c1.01,1.12,2.43,1.72,3.86,1.72c1.07,0,2.15-0.34,3.08-1.02
				c1.11-0.83,1.84-2.04,2.04-3.41C139.59,263.08,139.25,261.71,138.42,260.6z M138.4,264.3c-0.16,1.11-0.75,2.09-1.65,2.75
				c-1.85,1.38-4.47,0.99-5.85-0.86c-0.67-0.9-0.94-2-0.78-3.11c0.16-1.11,0.75-2.08,1.65-2.75c0.73-0.54,1.59-0.82,2.48-0.82
				c0.21,0,0.42,0.01,0.62,0.04c1.11,0.16,2.08,0.75,2.75,1.65C138.29,262.09,138.56,263.2,138.4,264.3z"/>
			<path style="fill:#174275;" d="M129.65,331.31c-1.7-2.3-4.96-2.78-7.25-1.07c-2.16,1.6-2.69,4.56-1.34,6.81L32.85,400h1.73
				l87.06-62.13c1.01,1.12,2.42,1.71,3.85,1.71c1.08,0,2.16-0.33,3.09-1.02C130.87,336.86,131.35,333.61,129.65,331.31z
				 M127.98,337.76c-1.85,1.38-4.48,0.99-5.85-0.86c-1.38-1.86-0.99-4.48,0.86-5.86c0.75-0.56,1.62-0.82,2.49-0.82
				c1.28,0,2.55,0.58,3.37,1.69C130.22,333.76,129.83,336.39,127.98,337.76z"/>
			<path style="fill:#174275;" d="M163.86,377.39c-1.7-2.3-4.96-2.78-7.25-1.07c-1.11,0.82-1.84,2.03-2.04,3.4
				c-0.18,1.2,0.09,2.39,0.7,3.41L131.63,400h1.74l22.5-16.06c0.8,0.89,1.86,1.49,3.07,1.67c0.26,0.04,0.51,0.06,0.77,0.06
				c1.1,0,2.17-0.35,3.08-1.03c1.11-0.82,1.83-2.03,2.04-3.4C165.03,379.87,164.69,378.5,163.86,377.39z M163.84,381.09
				c-0.17,1.11-0.75,2.09-1.65,2.75c-0.9,0.67-2,0.95-3.1,0.78c-1.11-0.16-2.09-0.75-2.75-1.64c-0.67-0.9-0.95-2-0.78-3.11
				c0.16-1.11,0.75-2.08,1.64-2.75c0.75-0.55,1.63-0.82,2.49-0.82c1.28,0,2.55,0.58,3.37,1.69
				C163.72,378.88,164,379.99,163.84,381.09z"/>
			<path style="fill:#174275;" d="M186.66,313.78c-0.83-1.11-2.04-1.83-3.41-2.03c-1.36-0.21-2.73,0.13-3.84,0.96
				c-2.16,1.6-2.69,4.56-1.34,6.82L66.16,400h1.72l110.79-79.67c0.8,0.9,1.86,1.5,3.07,1.67c0.26,0.04,0.51,0.06,0.77,0.06
				c1.1,0,2.17-0.35,3.08-1.02c1.11-0.83,1.83-2.04,2.04-3.41C187.83,316.26,187.49,314.9,186.66,313.78z M186.64,317.49
				c-0.17,1.1-0.75,2.08-1.65,2.74c-0.9,0.67-2,0.95-3.11,0.78c-1.1-0.16-2.08-0.74-2.74-1.64c-1.38-1.85-0.99-4.48,0.86-5.86
				c0.73-0.54,1.6-0.82,2.49-0.82c0.2,0,0.41,0.01,0.62,0.04c1.1,0.17,2.08,0.75,2.75,1.65
				C186.52,315.28,186.8,316.38,186.64,317.49z"/>
			<path style="fill:#174275;" d="M70.33,251.41c-0.83-1.11-2.03-1.84-3.4-2.04s-2.74,0.14-3.85,0.97c-1.12,0.82-1.84,2.03-2.04,3.4
				c-0.18,1.2,0.08,2.39,0.7,3.41L0,301.21v1.24l62.32-44.48c1.01,1.12,2.42,1.71,3.85,1.71c1.08,0,2.16-0.33,3.09-1.02
				c1.11-0.82,1.83-2.03,2.04-3.4C71.5,253.89,71.16,252.52,70.33,251.41z M70.31,255.11c-0.17,1.11-0.75,2.08-1.65,2.75
				c-1.85,1.38-4.48,0.99-5.85-0.86c-0.67-0.9-0.95-2.01-0.78-3.11c0.16-1.11,0.75-2.08,1.64-2.75c0.73-0.54,1.6-0.83,2.49-0.83
				c0.21,0,0.41,0.02,0.62,0.05c1.1,0.16,2.08,0.75,2.75,1.65C70.19,252.9,70.47,254.01,70.31,255.11z"/>
			<path style="fill:#174275;" d="M32.91,178.59c-0.82-1.11-2.03-1.83-3.4-2.03c-1.37-0.21-2.74,0.14-3.85,0.96
				c-1.11,0.83-1.84,2.04-2.04,3.41c-0.18,1.2,0.09,2.38,0.7,3.41L0,201.7v1.22l24.9-17.77c1.01,1.12,2.42,1.72,3.86,1.72
				c1.07,0,2.15-0.33,3.08-1.02c1.11-0.83,1.84-2.04,2.04-3.41S33.74,179.71,32.91,178.59z M32.89,182.3
				c-0.16,1.1-0.75,2.08-1.65,2.75c-1.85,1.37-4.48,0.98-5.85-0.87c-0.67-0.9-0.94-2-0.78-3.11c0.16-1.1,0.75-2.08,1.64-2.74
				c0.73-0.55,1.6-0.83,2.49-0.83c0.21,0,0.41,0.01,0.62,0.05c1.11,0.16,2.08,0.74,2.75,1.64C32.78,180.09,33.05,181.19,32.89,182.3
				z"/>
			<path style="fill:#174275;" d="M103.6,201.91c-0.82-1.11-2.03-1.84-3.4-2.04s-2.74,0.14-3.85,0.97c-1.11,0.82-1.84,2.03-2.04,3.4
				c-0.18,1.2,0.09,2.39,0.7,3.41L0,275.97v1.24l95.59-68.74c1.01,1.12,2.42,1.71,3.86,1.71c1.07,0,2.15-0.33,3.08-1.02
				c1.11-0.82,1.84-2.03,2.04-3.4S104.43,203.02,103.6,201.91z M103.58,205.61c-0.16,1.11-0.75,2.08-1.65,2.75
				c-1.85,1.38-4.48,0.99-5.85-0.86c-0.67-0.9-0.95-2.01-0.78-3.11c0.16-1.11,0.75-2.08,1.64-2.75c0.73-0.54,1.6-0.83,2.49-0.83
				c0.21,0,0.41,0.02,0.62,0.05c1.11,0.16,2.08,0.75,2.75,1.64C103.47,203.4,103.74,204.51,103.58,205.61z"/>
			<path style="fill:#174275;" d="M109.09,175.9c-1.71-2.3-4.96-2.78-7.26-1.08c-2.15,1.6-2.68,4.56-1.33,6.82L0,254.06v1.23
				l101.08-72.83c1.01,1.12,2.42,1.71,3.85,1.71c1.08,0,2.16-0.33,3.09-1.02C110.31,181.45,110.79,178.19,109.09,175.9z
				 M107.42,182.35c-1.85,1.37-4.48,0.98-5.85-0.87c-1.38-1.85-0.99-4.48,0.86-5.85c1.85-1.38,4.48-0.99,5.86,0.86
				C109.66,178.34,109.27,180.97,107.42,182.35z"/>
			<path style="fill:#174275;" d="M160.07,289.76c-1.7-2.3-4.96-2.78-7.25-1.07c-1.11,0.82-1.84,2.03-2.04,3.4v0.01l-11.67-0.57
				L0,391.38v1.24l139.41-100.07l11.32,0.55c0.05,1.02,0.39,2,1.02,2.84c1.01,1.37,2.58,2.09,4.16,2.09c1.08,0,2.16-0.33,3.09-1.02
				C161.29,295.31,161.78,292.06,160.07,289.76z M158.4,296.21c-1.85,1.38-4.48,0.99-5.85-0.86c-0.67-0.9-0.95-2.01-0.78-3.11
				c0.16-1.11,0.75-2.08,1.64-2.75c0.75-0.56,1.63-0.82,2.49-0.82c1.28,0,2.55,0.58,3.37,1.69
				C160.64,292.21,160.26,294.84,158.4,296.21z"/>
			<path style="fill:#174275;" d="M199.46,283.86c-0.83-1.11-2.04-1.84-3.41-2.04c-1.37-0.2-2.74,0.14-3.85,0.97
				c-2.16,1.6-2.69,4.56-1.33,6.82l-39.91,29.63l-24.37-3.6l-0.2-0.03L8.44,400h1.72l116.48-83.34l24.58,3.63l40.23-29.86
				c1.01,1.11,2.42,1.7,3.85,1.7c1.07,0,2.16-0.33,3.08-1.01C200.68,289.41,201.16,286.16,199.46,283.86z M197.79,290.31
				c-1.85,1.38-4.48,0.99-5.86-0.86c-1.37-1.86-0.99-4.48,0.87-5.86c0.73-0.54,1.59-0.82,2.48-0.82c0.21,0,0.42,0.01,0.62,0.04
				c1.11,0.16,2.09,0.75,2.75,1.65C200.03,286.31,199.64,288.94,197.79,290.31z"/>
			<path style="fill:#174275;" d="M229.48,324.3c-0.83-1.11-2.04-1.84-3.41-2.04c-1.37-0.2-2.73,0.14-3.85,0.97
				c-2.15,1.6-2.68,4.56-1.33,6.82l-39.91,29.63l-24.37-3.6l-0.2-0.03L94.98,400h1.72l59.96-42.9l24.59,3.63l40.22-29.87
				c1.01,1.12,2.42,1.71,3.85,1.71c1.08,0,2.16-0.33,3.09-1.02C230.7,329.85,231.18,326.59,229.48,324.3z M227.81,330.75
				c-1.85,1.38-4.48,0.99-5.86-0.86c-1.37-1.86-0.98-4.48,0.87-5.86c0.73-0.54,1.59-0.83,2.49-0.83c0.2,0,0.41,0.02,0.62,0.05
				c1.1,0.16,2.08,0.75,2.74,1.65C230.05,326.75,229.66,329.37,227.81,330.75z"/>
			<path style="fill:#174275;" d="M123.74,240.83c-1.7-2.3-4.96-2.78-7.25-1.07c-1.11,0.82-1.84,2.03-2.04,3.4s0.14,2.74,0.97,3.85
				c0.63,0.86,1.49,1.46,2.43,1.79l-2.75,10.99L0,342.42v1.23l115.83-83.15l0.15-0.11l2.84-11.35c0.25,0.04,0.51,0.06,0.77,0.06
				c1.07,0,2.16-0.33,3.08-1.02C124.97,246.38,125.45,243.12,123.74,240.83z M122.08,247.28c-1.86,1.38-4.48,0.99-5.86-0.86
				c-0.67-0.9-0.94-2.01-0.78-3.11c0.16-1.11,0.75-2.08,1.65-2.75c0.74-0.56,1.62-0.82,2.49-0.82c1.28,0,2.54,0.58,3.36,1.68
				C124.32,243.28,123.93,245.9,122.08,247.28z"/>
			<path style="fill:#174275;" d="M66.11,173.59c-1.71-2.29-4.96-2.77-7.26-1.07c-1.11,0.83-1.83,2.04-2.04,3.41
				c-0.2,1.37,0.14,2.73,0.97,3.85c0.62,0.84,1.47,1.45,2.43,1.79l-2.75,10.99L0,233.81v1.23l58.2-41.78l0.14-0.1l2.84-11.35
				c0.26,0.04,0.52,0.06,0.77,0.06c1.11,0,2.18-0.35,3.08-1.02C67.33,179.14,67.81,175.89,66.11,173.59z M64.44,180.05
				c-0.9,0.66-2,0.94-3.11,0.78c-1.1-0.17-2.08-0.75-2.75-1.65c-0.66-0.9-0.94-2-0.78-3.11c0.17-1.1,0.75-2.08,1.65-2.74
				c0.75-0.56,1.62-0.83,2.49-0.83c1.28,0,2.54,0.59,3.36,1.69C66.68,176.04,66.29,178.67,64.44,180.05z"/>
			<path style="fill:#174275;" d="M138.01,201.1c-0.82-1.11-2.03-1.83-3.4-2.04c-1.36-0.2-2.74,0.14-3.85,0.97
				c-1.11,0.83-1.84,2.03-2.04,3.4c-0.18,1.21,0.09,2.4,0.71,3.42l-39.3,29.18l-4.28,25.66L0,323.11v1.23l86.6-61.96l0.16-0.12
				l4.29-25.67l38.96-28.92c1.01,1.11,2.42,1.71,3.85,1.71c1.07,0,2.15-0.34,3.08-1.02c1.11-0.83,1.84-2.04,2.04-3.41
				C139.18,203.58,138.84,202.21,138.01,201.1z M137.99,204.81c-0.16,1.1-0.75,2.08-1.64,2.74c-1.86,1.38-4.48,0.99-5.86-0.86
				c-0.67-0.9-0.94-2-0.78-3.11c0.16-1.1,0.75-2.08,1.65-2.75c0.73-0.54,1.59-0.82,2.48-0.82c0.21,0,0.42,0.01,0.62,0.04
				c1.11,0.17,2.08,0.75,2.75,1.65C137.88,202.6,138.15,203.7,137.99,204.81z"/>
			<path style="fill:#174275;" d="M171.5,252.1c-1.71-2.3-4.96-2.77-7.25-1.07c-2.16,1.6-2.69,4.56-1.34,6.81L0,375.28v1.24
				l163.51-117.87c0.8,0.89,1.86,1.49,3.07,1.67c0.25,0.04,0.51,0.06,0.77,0.06c1.1,0,2.17-0.36,3.08-1.03
				C172.72,257.65,173.2,254.4,171.5,252.1z M169.83,258.55c-0.9,0.67-2,0.94-3.11,0.78c-1.1-0.16-2.08-0.75-2.74-1.64
				c-1.38-1.86-0.99-4.48,0.86-5.86c0.75-0.56,1.62-0.82,2.49-0.82c1.28,0,2.55,0.58,3.37,1.69
				C172.07,254.55,171.68,257.18,169.83,258.55z"/>
			<path style="fill:#174275;" d="M138.42,260.6c-0.82-1.11-2.03-1.84-3.4-2.04s-2.74,0.14-3.85,0.97c-1.11,0.82-1.84,2.03-2.04,3.4
				c-0.18,1.2,0.09,2.39,0.7,3.42L0,359.64v1.22l130.41-93.7c1.01,1.12,2.43,1.72,3.86,1.72c1.07,0,2.15-0.34,3.08-1.02
				c1.11-0.83,1.84-2.04,2.04-3.41C139.59,263.08,139.25,261.71,138.42,260.6z M138.4,264.3c-0.16,1.11-0.75,2.09-1.65,2.75
				c-1.85,1.38-4.47,0.99-5.85-0.86c-0.67-0.9-0.94-2-0.78-3.11c0.16-1.11,0.75-2.08,1.65-2.75c0.73-0.54,1.59-0.82,2.48-0.82
				c0.21,0,0.42,0.01,0.62,0.04c1.11,0.16,2.08,0.75,2.75,1.65C138.29,262.09,138.56,263.2,138.4,264.3z"/>
			<path style="fill:#174275;" d="M129.65,331.31c-1.7-2.3-4.96-2.78-7.25-1.07c-2.16,1.6-2.69,4.56-1.34,6.81L32.85,400h1.73
				l87.06-62.13c1.01,1.12,2.42,1.71,3.85,1.71c1.08,0,2.16-0.33,3.09-1.02C130.87,336.86,131.35,333.61,129.65,331.31z
				 M127.98,337.76c-1.85,1.38-4.48,0.99-5.85-0.86c-1.38-1.86-0.99-4.48,0.86-5.86c0.75-0.56,1.62-0.82,2.49-0.82
				c1.28,0,2.55,0.58,3.37,1.69C130.22,333.76,129.83,336.39,127.98,337.76z"/>
			<path style="fill:#174275;" d="M163.86,377.39c-1.7-2.3-4.96-2.78-7.25-1.07c-1.11,0.82-1.84,2.03-2.04,3.4
				c-0.18,1.2,0.09,2.39,0.7,3.41L131.63,400h1.74l22.5-16.06c0.8,0.89,1.86,1.49,3.07,1.67c0.26,0.04,0.51,0.06,0.77,0.06
				c1.1,0,2.17-0.35,3.08-1.03c1.11-0.82,1.83-2.03,2.04-3.4C165.03,379.87,164.69,378.5,163.86,377.39z M163.84,381.09
				c-0.17,1.11-0.75,2.09-1.65,2.75c-0.9,0.67-2,0.95-3.1,0.78c-1.11-0.16-2.09-0.75-2.75-1.64c-0.67-0.9-0.95-2-0.78-3.11
				c0.16-1.11,0.75-2.08,1.64-2.75c0.75-0.55,1.63-0.82,2.49-0.82c1.28,0,2.55,0.58,3.37,1.69
				C163.72,378.88,164,379.99,163.84,381.09z"/>
			<path style="fill:#174275;" d="M186.66,313.78c-0.83-1.11-2.04-1.83-3.41-2.03c-1.36-0.21-2.73,0.13-3.84,0.96
				c-2.16,1.6-2.69,4.56-1.34,6.82L66.16,400h1.72l110.79-79.67c0.8,0.9,1.86,1.5,3.07,1.67c0.26,0.04,0.51,0.06,0.77,0.06
				c1.1,0,2.17-0.35,3.08-1.02c1.11-0.83,1.83-2.04,2.04-3.41C187.83,316.26,187.49,314.9,186.66,313.78z M186.64,317.49
				c-0.17,1.1-0.75,2.08-1.65,2.74c-0.9,0.67-2,0.95-3.11,0.78c-1.1-0.16-2.08-0.74-2.74-1.64c-1.38-1.85-0.99-4.48,0.86-5.86
				c0.73-0.54,1.6-0.82,2.49-0.82c0.2,0,0.41,0.01,0.62,0.04c1.1,0.17,2.08,0.75,2.75,1.65
				C186.52,315.28,186.8,316.38,186.64,317.49z"/>
			<path style="fill:#174275;" d="M70.33,251.41c-0.83-1.11-2.03-1.84-3.4-2.04s-2.74,0.14-3.85,0.97c-1.12,0.82-1.84,2.03-2.04,3.4
				c-0.18,1.2,0.08,2.39,0.7,3.41L0,301.21v1.24l62.32-44.48c1.01,1.12,2.42,1.71,3.85,1.71c1.08,0,2.16-0.33,3.09-1.02
				c1.11-0.82,1.83-2.03,2.04-3.4C71.5,253.89,71.16,252.52,70.33,251.41z M70.31,255.11c-0.17,1.11-0.75,2.08-1.65,2.75
				c-1.85,1.38-4.48,0.99-5.85-0.86c-0.67-0.9-0.95-2.01-0.78-3.11c0.16-1.11,0.75-2.08,1.64-2.75c0.73-0.54,1.6-0.83,2.49-0.83
				c0.21,0,0.41,0.02,0.62,0.05c1.1,0.16,2.08,0.75,2.75,1.65C70.19,252.9,70.47,254.01,70.31,255.11z"/>
			<path style="fill:#174275;" d="M32.91,178.59c-0.82-1.11-2.03-1.83-3.4-2.03c-1.37-0.21-2.74,0.14-3.85,0.96
				c-1.11,0.83-1.84,2.04-2.04,3.41c-0.18,1.2,0.09,2.38,0.7,3.41L0,201.7v1.22l24.9-17.77c1.01,1.12,2.42,1.72,3.86,1.72
				c1.07,0,2.15-0.33,3.08-1.02c1.11-0.83,1.84-2.04,2.04-3.41S33.74,179.71,32.91,178.59z M32.89,182.3
				c-0.16,1.1-0.75,2.08-1.65,2.75c-1.85,1.37-4.48,0.98-5.85-0.87c-0.67-0.9-0.94-2-0.78-3.11c0.16-1.1,0.75-2.08,1.64-2.74
				c0.73-0.55,1.6-0.83,2.49-0.83c0.21,0,0.41,0.01,0.62,0.05c1.11,0.16,2.08,0.74,2.75,1.64C32.78,180.09,33.05,181.19,32.89,182.3
				z"/>
			<path style="fill:#174275;" d="M103.6,201.91c-0.82-1.11-2.03-1.84-3.4-2.04s-2.74,0.14-3.85,0.97c-1.11,0.82-1.84,2.03-2.04,3.4
				c-0.18,1.2,0.09,2.39,0.7,3.41L0,275.97v1.24l95.59-68.74c1.01,1.12,2.42,1.71,3.86,1.71c1.07,0,2.15-0.33,3.08-1.02
				c1.11-0.82,1.84-2.03,2.04-3.4S104.43,203.02,103.6,201.91z M103.58,205.61c-0.16,1.11-0.75,2.08-1.65,2.75
				c-1.85,1.38-4.48,0.99-5.85-0.86c-0.67-0.9-0.95-2.01-0.78-3.11c0.16-1.11,0.75-2.08,1.64-2.75c0.73-0.54,1.6-0.83,2.49-0.83
				c0.21,0,0.41,0.02,0.62,0.05c1.11,0.16,2.08,0.75,2.75,1.64C103.47,203.4,103.74,204.51,103.58,205.61z"/>
			<path style="fill:#174275;" d="M109.09,175.9c-1.71-2.3-4.96-2.78-7.26-1.08c-2.15,1.6-2.68,4.56-1.33,6.82L0,254.06v1.23
				l101.08-72.83c1.01,1.12,2.42,1.71,3.85,1.71c1.08,0,2.16-0.33,3.09-1.02C110.31,181.45,110.79,178.19,109.09,175.9z
				 M107.42,182.35c-1.85,1.37-4.48,0.98-5.85-0.87c-1.38-1.85-0.99-4.48,0.86-5.85c1.85-1.38,4.48-0.99,5.86,0.86
				C109.66,178.34,109.27,180.97,107.42,182.35z"/>
			<path style="fill:#174275;" d="M52.98,143.1c-1.71-2.3-4.96-2.78-7.26-1.08c-2.15,1.6-2.68,4.56-1.33,6.82L0,180.83v1.23
				l44.97-32.4c1.01,1.12,2.42,1.71,3.85,1.71c1.08,0,2.16-0.33,3.09-1.02C54.2,148.65,54.68,145.39,52.98,143.1z M51.31,149.55
				c-1.85,1.37-4.48,0.98-5.85-0.87c-1.38-1.85-0.99-4.48,0.86-5.85c1.85-1.38,4.48-0.99,5.86,0.86
				C53.55,145.54,53.16,148.17,51.31,149.55z"/>
			<path style="fill:#174275;" d="M160.07,289.76c-1.7-2.3-4.96-2.78-7.25-1.07c-1.11,0.82-1.84,2.03-2.04,3.4v0.01l-11.67-0.57
				L0,391.38v1.24l139.41-100.07l11.32,0.55c0.05,1.02,0.39,2,1.02,2.84c1.01,1.37,2.58,2.09,4.16,2.09c1.08,0,2.16-0.33,3.09-1.02
				C161.29,295.31,161.78,292.06,160.07,289.76z M158.4,296.21c-1.85,1.38-4.48,0.99-5.85-0.86c-0.67-0.9-0.95-2.01-0.78-3.11
				c0.16-1.11,0.75-2.08,1.64-2.75c0.75-0.56,1.63-0.82,2.49-0.82c1.28,0,2.55,0.58,3.37,1.69
				C160.64,292.21,160.26,294.84,158.4,296.21z"/>
			<path style="fill:#174275;" d="M199.46,283.86c-0.83-1.11-2.04-1.84-3.41-2.04c-1.37-0.2-2.74,0.14-3.85,0.97
				c-2.16,1.6-2.69,4.56-1.33,6.82l-39.91,29.63l-24.37-3.6l-0.2-0.03L8.44,400h1.72l116.48-83.34l24.58,3.63l40.23-29.86
				c1.01,1.11,2.42,1.7,3.85,1.7c1.07,0,2.16-0.33,3.08-1.01C200.68,289.41,201.16,286.16,199.46,283.86z M197.79,290.31
				c-1.85,1.38-4.48,0.99-5.86-0.86c-1.37-1.86-0.99-4.48,0.87-5.86c0.73-0.54,1.59-0.82,2.48-0.82c0.21,0,0.42,0.01,0.62,0.04
				c1.11,0.16,2.09,0.75,2.75,1.65C200.03,286.31,199.64,288.94,197.79,290.31z"/>
			<path style="fill:#174275;" d="M229.48,324.3c-0.83-1.11-2.04-1.84-3.41-2.04c-1.37-0.2-2.73,0.14-3.85,0.97
				c-2.15,1.6-2.68,4.56-1.33,6.82l-39.91,29.63l-24.37-3.6l-0.2-0.03L94.98,400h1.72l59.96-42.9l24.59,3.63l40.22-29.87
				c1.01,1.12,2.42,1.71,3.85,1.71c1.08,0,2.16-0.33,3.09-1.02C230.7,329.85,231.18,326.59,229.48,324.3z M227.81,330.75
				c-1.85,1.38-4.48,0.99-5.86-0.86c-1.37-1.86-0.98-4.48,0.87-5.86c0.73-0.54,1.59-0.83,2.49-0.83c0.2,0,0.41,0.02,0.62,0.05
				c1.1,0.16,2.08,0.75,2.74,1.65C230.05,326.75,229.66,329.37,227.81,330.75z"/>
			<path style="fill:#174275;" d="M123.74,240.83c-1.7-2.3-4.96-2.78-7.25-1.07c-1.11,0.82-1.84,2.03-2.04,3.4s0.14,2.74,0.97,3.85
				c0.63,0.86,1.49,1.46,2.43,1.79l-2.75,10.99L0,342.42v1.23l115.83-83.15l0.15-0.11l2.84-11.35c0.25,0.04,0.51,0.06,0.77,0.06
				c1.07,0,2.16-0.33,3.08-1.02C124.97,246.38,125.45,243.12,123.74,240.83z M122.08,247.28c-1.86,1.38-4.48,0.99-5.86-0.86
				c-0.67-0.9-0.94-2.01-0.78-3.11c0.16-1.11,0.75-2.08,1.65-2.75c0.74-0.56,1.62-0.82,2.49-0.82c1.28,0,2.54,0.58,3.36,1.68
				C124.32,243.28,123.93,245.9,122.08,247.28z"/>
			<path style="fill:#174275;" d="M66.11,173.59c-1.71-2.29-4.96-2.77-7.26-1.07c-1.11,0.83-1.83,2.04-2.04,3.41
				c-0.2,1.37,0.14,2.73,0.97,3.85c0.62,0.84,1.47,1.45,2.43,1.79l-2.75,10.99L0,233.81v1.23l58.2-41.78l0.14-0.1l2.84-11.35
				c0.26,0.04,0.52,0.06,0.77,0.06c1.11,0,2.18-0.35,3.08-1.02C67.33,179.14,67.81,175.89,66.11,173.59z M64.44,180.05
				c-0.9,0.66-2,0.94-3.11,0.78c-1.1-0.17-2.08-0.75-2.75-1.65c-0.66-0.9-0.94-2-0.78-3.11c0.17-1.1,0.75-2.08,1.65-2.74
				c0.75-0.56,1.62-0.83,2.49-0.83c1.28,0,2.54,0.59,3.36,1.69C66.68,176.04,66.29,178.67,64.44,180.05z"/>
			<path style="fill:#174275;" d="M26.11,128.55c-1.71-2.29-4.96-2.77-7.26-1.07c-1.11,0.83-1.83,2.04-2.04,3.41
				c-0.2,1.37,0.14,2.73,0.97,3.85c0.62,0.84,1.47,1.45,2.43,1.79l-2.75,10.99L0,160.05v1.24l18.2-13.07l0.14-0.1l2.84-11.35
				c0.26,0.04,0.52,0.06,0.77,0.06c1.11,0,2.18-0.35,3.08-1.02C27.33,134.1,27.81,130.85,26.11,128.55z M24.44,135.01
				c-0.9,0.66-2,0.94-3.11,0.78c-1.1-0.17-2.08-0.75-2.75-1.65c-0.66-0.9-0.94-2-0.78-3.11c0.17-1.1,0.75-2.08,1.65-2.74
				c0.75-0.56,1.62-0.83,2.49-0.83c1.28,0,2.54,0.59,3.36,1.69C26.68,131,26.29,133.63,24.44,135.01z"/>
			<path style="fill:#174275;" d="M219.98,382.63c-1.71-2.3-4.96-2.78-7.26-1.08c-2.15,1.6-2.68,4.56-1.33,6.82L195.25,400h1.72
				l15-10.81c1.01,1.12,2.42,1.71,3.85,1.71c1.08,0,2.16-0.33,3.09-1.02C221.2,388.18,221.68,384.92,219.98,382.63z M218.31,389.08
				c-1.85,1.37-4.48,0.98-5.85-0.87c-1.38-1.85-0.99-4.48,0.86-5.85c1.85-1.38,4.48-0.99,5.86,0.86
				C220.55,385.07,220.16,387.7,218.31,389.08z"/>
			<path style="fill:#174275;" d="M254.09,388.1c-1.71-2.3-4.96-2.78-7.26-1.08c-2.15,1.6-2.68,4.56-1.33,6.82l-8.55,6.16h1.72
				l7.41-5.34c1.01,1.12,2.42,1.71,3.85,1.71c1.08,0,2.16-0.33,3.09-1.02C255.31,393.65,255.79,390.39,254.09,388.1z M252.42,394.55
				c-1.85,1.37-4.48,0.98-5.85-0.87c-1.38-1.85-0.99-4.48,0.86-5.85c1.85-1.38,4.48-0.99,5.86,0.86
				C254.66,390.54,254.27,393.17,252.42,394.55z"/>
			<path style="fill:#174275;" d="M193.11,368.09c-1.71-2.29-4.96-2.77-7.26-1.07c-1.11,0.83-1.83,2.04-2.04,3.41
				c-0.2,1.37,0.14,2.73,0.97,3.85c0.62,0.84,1.47,1.45,2.43,1.79l-2.75,10.99L166.43,400h1.72l17.05-12.24l0.14-0.1l2.84-11.35
				c0.26,0.04,0.52,0.06,0.77,0.06c1.11,0,2.18-0.35,3.08-1.02C194.33,373.64,194.81,370.39,193.11,368.09z M191.44,374.55
				c-0.9,0.66-2,0.94-3.11,0.78c-1.1-0.17-2.08-0.75-2.75-1.65c-0.66-0.9-0.94-2-0.78-3.11c0.17-1.1,0.75-2.08,1.65-2.74
				c0.75-0.56,1.62-0.83,2.49-0.83c1.28,0,2.54,0.59,3.36,1.69C193.68,370.54,193.29,373.17,191.44,374.55z"/>
			<path style="fill:#174275;" d="M138.01,201.1c-0.82-1.11-2.03-1.83-3.4-2.04c-1.36-0.2-2.74,0.14-3.85,0.97
				c-1.11,0.83-1.84,2.03-2.04,3.4c-0.18,1.21,0.09,2.4,0.71,3.42l-39.3,29.18l-4.28,25.66L0,323.11v1.23l86.6-61.96l0.16-0.12
				l4.29-25.67l38.96-28.92c1.01,1.11,2.42,1.71,3.85,1.71c1.07,0,2.15-0.34,3.08-1.02c1.11-0.83,1.84-2.04,2.04-3.41
				C139.18,203.58,138.84,202.21,138.01,201.1z M137.99,204.81c-0.16,1.1-0.75,2.08-1.64,2.74c-1.86,1.38-4.48,0.99-5.86-0.86
				c-0.67-0.9-0.94-2-0.78-3.11c0.16-1.1,0.75-2.08,1.65-2.75c0.73-0.54,1.59-0.82,2.48-0.82c0.21,0,0.42,0.01,0.62,0.04
				c1.11,0.17,2.08,0.75,2.75,1.65C137.88,202.6,138.15,203.7,137.99,204.81z"/>
		</g>
		<g>
			<path style="fill:#174275;" d="M428.5,147.9c1.71,2.3,4.96,2.77,7.25,1.07c2.16-1.6,2.69-4.56,1.34-6.81L600,24.72v-1.24
				L436.49,141.35c-0.8-0.89-1.86-1.49-3.07-1.67c-0.25-0.04-0.51-0.06-0.77-0.06c-1.1,0-2.17,0.36-3.08,1.03
				C427.28,142.35,426.8,145.6,428.5,147.9z M430.17,141.45c0.9-0.67,2-0.94,3.11-0.78c1.1,0.16,2.08,0.75,2.74,1.64
				c1.38,1.86,0.99,4.48-0.86,5.86c-0.75,0.56-1.62,0.82-2.49,0.82c-1.28,0-2.55-0.58-3.37-1.69
				C427.93,145.45,428.32,142.82,430.17,141.45z"/>
			<path style="fill:#174275;" d="M461.58,139.4c0.82,1.11,2.03,1.84,3.4,2.04s2.74-0.14,3.85-0.97c1.11-0.82,1.84-2.03,2.04-3.4
				c0.18-1.2-0.09-2.39-0.7-3.42L600,40.36v-1.22l-130.41,93.7c-1.01-1.12-2.43-1.72-3.86-1.72c-1.07,0-2.15,0.34-3.08,1.02
				c-1.11,0.83-1.84,2.04-2.04,3.41C460.41,136.92,460.75,138.29,461.58,139.4z M461.6,135.7c0.16-1.11,0.75-2.09,1.65-2.75
				c1.85-1.38,4.47-0.99,5.85,0.86c0.67,0.9,0.94,2,0.78,3.11c-0.16,1.11-0.75,2.08-1.65,2.75c-0.73,0.54-1.59,0.82-2.48,0.82
				c-0.21,0-0.42-0.01-0.62-0.04c-1.11-0.16-2.08-0.75-2.75-1.65C461.71,137.91,461.44,136.8,461.6,135.7z"/>
			<path style="fill:#174275;" d="M470.35,68.69c1.7,2.3,4.96,2.78,7.25,1.07c2.16-1.6,2.69-4.56,1.34-6.81L567.15,0h-1.73
				l-87.06,62.13c-1.01-1.12-2.42-1.71-3.85-1.71c-1.08,0-2.16,0.33-3.09,1.02C469.13,63.14,468.65,66.39,470.35,68.69z
				 M472.02,62.24c1.85-1.38,4.48-0.99,5.85,0.86c1.38,1.86,0.99,4.48-0.86,5.86c-0.75,0.56-1.62,0.82-2.49,0.82
				c-1.28,0-2.55-0.58-3.37-1.69C469.78,66.24,470.17,63.61,472.02,62.24z"/>
			<path style="fill:#174275;" d="M436.14,22.61c1.7,2.3,4.96,2.78,7.25,1.07c1.11-0.82,1.84-2.03,2.04-3.4
				c0.18-1.2-0.09-2.39-0.7-3.41L468.37,0h-1.74l-22.5,16.06c-0.8-0.89-1.86-1.49-3.07-1.67c-0.26-0.04-0.51-0.06-0.77-0.06
				c-1.1,0-2.17,0.35-3.08,1.03c-1.11,0.82-1.83,2.03-2.04,3.4C434.97,20.13,435.31,21.5,436.14,22.61z M436.16,18.91
				c0.17-1.11,0.75-2.09,1.65-2.75c0.9-0.67,2-0.95,3.1-0.78c1.11,0.16,2.09,0.75,2.75,1.64c0.67,0.9,0.95,2,0.78,3.11
				c-0.16,1.11-0.75,2.08-1.64,2.75c-0.75,0.55-1.63,0.82-2.49,0.82c-1.28,0-2.55-0.58-3.37-1.69
				C436.28,21.12,436,20.01,436.16,18.91z"/>
			<path style="fill:#174275;" d="M413.34,86.22c0.83,1.11,2.04,1.83,3.41,2.03c1.36,0.21,2.73-0.13,3.84-0.96
				c2.16-1.6,2.69-4.56,1.34-6.82L533.84,0h-1.72L421.33,79.67c-0.8-0.9-1.86-1.5-3.07-1.67c-0.26-0.04-0.51-0.06-0.77-0.06
				c-1.1,0-2.17,0.35-3.08,1.02c-1.11,0.83-1.83,2.04-2.04,3.41C412.17,83.74,412.51,85.1,413.34,86.22z M413.36,82.51
				c0.17-1.1,0.75-2.08,1.65-2.74c0.9-0.67,2-0.95,3.11-0.78c1.1,0.16,2.08,0.74,2.74,1.64c1.38,1.85,0.99,4.48-0.86,5.86
				c-0.73,0.54-1.6,0.82-2.49,0.82c-0.2,0-0.41-0.01-0.62-0.04c-1.1-0.17-2.08-0.75-2.75-1.65
				C413.48,84.72,413.2,83.62,413.36,82.51z"/>
			<path style="fill:#174275;" d="M529.67,148.59c0.83,1.11,2.03,1.84,3.4,2.04s2.74-0.14,3.85-0.97c1.12-0.82,1.84-2.03,2.04-3.4
				c0.18-1.2-0.08-2.39-0.7-3.41L600,98.79v-1.24l-62.32,44.48c-1.01-1.12-2.42-1.71-3.85-1.71c-1.08,0-2.16,0.33-3.09,1.02
				c-1.11,0.82-1.83,2.03-2.04,3.4C528.5,146.11,528.84,147.48,529.67,148.59z M529.69,144.89c0.17-1.11,0.75-2.08,1.65-2.75
				c1.85-1.38,4.48-0.99,5.85,0.86c0.67,0.9,0.95,2.01,0.78,3.11c-0.16,1.11-0.75,2.08-1.64,2.75c-0.73,0.54-1.6,0.83-2.49,0.83
				c-0.21,0-0.41-0.02-0.62-0.05c-1.1-0.16-2.08-0.75-2.75-1.65C529.81,147.1,529.53,145.99,529.69,144.89z"/>
			<path style="fill:#174275;" d="M567.09,221.41c0.82,1.11,2.03,1.83,3.4,2.03c1.37,0.21,2.74-0.14,3.85-0.96
				c1.11-0.83,1.84-2.04,2.04-3.41c0.18-1.2-0.09-2.38-0.7-3.41L600,198.3v-1.22l-24.9,17.77c-1.01-1.12-2.42-1.72-3.86-1.72
				c-1.07,0-2.15,0.33-3.08,1.02c-1.11,0.83-1.84,2.04-2.04,3.41S566.26,220.29,567.09,221.41z M567.11,217.7
				c0.16-1.1,0.75-2.08,1.65-2.75c1.85-1.37,4.48-0.98,5.85,0.87c0.67,0.9,0.94,2,0.78,3.11c-0.16,1.1-0.75,2.08-1.64,2.74
				c-0.73,0.55-1.6,0.83-2.49,0.83c-0.21,0-0.41-0.01-0.62-0.05c-1.11-0.16-2.08-0.74-2.75-1.64
				C567.22,219.91,566.95,218.81,567.11,217.7z"/>
			<path style="fill:#174275;" d="M496.4,198.09c0.82,1.11,2.03,1.84,3.4,2.04s2.74-0.14,3.85-0.97c1.11-0.82,1.84-2.03,2.04-3.4
				c0.18-1.2-0.09-2.39-0.7-3.41L600,124.03v-1.24l-95.59,68.74c-1.01-1.12-2.42-1.71-3.86-1.71c-1.07,0-2.15,0.33-3.08,1.02
				c-1.11,0.82-1.84,2.03-2.04,3.4S495.57,196.98,496.4,198.09z M496.42,194.39c0.16-1.11,0.75-2.08,1.65-2.75
				c1.85-1.38,4.48-0.99,5.85,0.86c0.67,0.9,0.95,2.01,0.78,3.11c-0.16,1.11-0.75,2.08-1.64,2.75c-0.73,0.54-1.6,0.83-2.49,0.83
				c-0.21,0-0.41-0.02-0.62-0.05c-1.11-0.16-2.08-0.75-2.75-1.64C496.53,196.6,496.26,195.49,496.42,194.39z"/>
			<path style="fill:#174275;" d="M490.91,224.1c1.71,2.3,4.96,2.78,7.26,1.08c2.15-1.6,2.68-4.56,1.33-6.82L600,145.94v-1.23
				l-101.08,72.83c-1.01-1.12-2.42-1.71-3.85-1.71c-1.08,0-2.16,0.33-3.09,1.02C489.69,218.55,489.21,221.81,490.91,224.1z
				 M492.58,217.65c1.85-1.37,4.48-0.98,5.85,0.87c1.38,1.85,0.99,4.48-0.86,5.85c-1.85,1.38-4.48,0.99-5.86-0.86
				C490.34,221.66,490.73,219.03,492.58,217.65z"/>
			<path style="fill:#174275;" d="M439.93,110.24c1.7,2.3,4.96,2.78,7.25,1.07c1.11-0.82,1.84-2.03,2.04-3.4v-0.01l11.67,0.57
				L600,8.62V7.38L460.59,107.45l-11.32-0.55c-0.05-1.02-0.39-2-1.02-2.84c-1.01-1.37-2.58-2.09-4.16-2.09
				c-1.08,0-2.16,0.33-3.09,1.02C438.71,104.69,438.22,107.94,439.93,110.24z M441.6,103.79c1.85-1.38,4.48-0.99,5.85,0.86
				c0.67,0.9,0.95,2.01,0.78,3.11c-0.16,1.11-0.75,2.08-1.64,2.75c-0.75,0.56-1.63,0.82-2.49,0.82c-1.28,0-2.55-0.58-3.37-1.69
				C439.36,107.79,439.74,105.16,441.6,103.79z"/>
			<path style="fill:#174275;" d="M400.54,116.14c0.83,1.11,2.04,1.84,3.41,2.04c1.37,0.2,2.74-0.14,3.85-0.97
				c2.16-1.6,2.69-4.56,1.33-6.82l39.91-29.63l24.37,3.6l0.2,0.03L591.56,0h-1.72L473.36,83.34l-24.58-3.63l-40.23,29.86
				c-1.01-1.11-2.42-1.7-3.85-1.7c-1.07,0-2.16,0.33-3.08,1.01C399.32,110.59,398.84,113.84,400.54,116.14z M402.21,109.69
				c1.85-1.38,4.48-0.99,5.86,0.86c1.37,1.86,0.99,4.48-0.87,5.86c-0.73,0.54-1.59,0.82-2.48,0.82c-0.21,0-0.42-0.01-0.62-0.04
				c-1.11-0.16-2.09-0.75-2.75-1.65C399.97,113.69,400.36,111.06,402.21,109.69z"/>
			<path style="fill:#174275;" d="M370.52,75.7c0.83,1.11,2.04,1.84,3.41,2.04c1.37,0.2,2.73-0.14,3.85-0.97
				c2.15-1.6,2.68-4.56,1.33-6.82l39.91-29.63l24.37,3.6l0.2,0.03L505.02,0h-1.72l-59.96,42.9l-24.59-3.63l-40.22,29.87
				c-1.01-1.12-2.42-1.71-3.85-1.71c-1.08,0-2.16,0.33-3.09,1.02C369.3,70.15,368.82,73.41,370.52,75.7z M372.19,69.25
				c1.85-1.38,4.48-0.99,5.86,0.86c1.37,1.86,0.98,4.48-0.87,5.86c-0.73,0.54-1.59,0.83-2.49,0.83c-0.2,0-0.41-0.02-0.62-0.05
				c-1.1-0.16-2.08-0.75-2.74-1.65C369.95,73.25,370.34,70.63,372.19,69.25z"/>
			<path style="fill:#174275;" d="M476.26,159.17c1.7,2.3,4.96,2.78,7.25,1.07c1.11-0.82,1.84-2.03,2.04-3.4s-0.14-2.74-0.97-3.85
				c-0.63-0.86-1.49-1.46-2.43-1.79l2.75-10.99L600,57.58v-1.23L484.17,139.5l-0.15,0.11l-2.84,11.35
				c-0.25-0.04-0.51-0.06-0.77-0.06c-1.07,0-2.16,0.33-3.08,1.02C475.03,153.62,474.55,156.88,476.26,159.17z M477.92,152.72
				c1.86-1.38,4.48-0.99,5.86,0.86c0.67,0.9,0.94,2.01,0.78,3.11c-0.16,1.11-0.75,2.08-1.65,2.75c-0.74,0.56-1.62,0.82-2.49,0.82
				c-1.28,0-2.54-0.58-3.36-1.68C475.68,156.72,476.07,154.1,477.92,152.72z"/>
			<path style="fill:#174275;" d="M533.89,226.41c1.71,2.29,4.96,2.77,7.26,1.07c1.11-0.83,1.83-2.04,2.04-3.41
				c0.2-1.37-0.14-2.73-0.97-3.85c-0.62-0.84-1.47-1.45-2.43-1.79l2.75-10.99L600,166.19v-1.23l-58.2,41.78l-0.14,0.1l-2.84,11.35
				c-0.26-0.04-0.52-0.06-0.77-0.06c-1.11,0-2.18,0.35-3.08,1.02C532.67,220.86,532.19,224.11,533.89,226.41z M535.56,219.95
				c0.9-0.66,2-0.94,3.11-0.78c1.1,0.17,2.08,0.75,2.75,1.65c0.66,0.9,0.94,2,0.78,3.11c-0.17,1.1-0.75,2.08-1.65,2.74
				c-0.75,0.56-1.62,0.83-2.49,0.83c-1.28,0-2.54-0.59-3.36-1.69C533.32,223.96,533.71,221.33,535.56,219.95z"/>
			<path style="fill:#174275;" d="M461.99,198.9c0.82,1.11,2.03,1.83,3.4,2.04c1.36,0.2,2.74-0.14,3.85-0.97
				c1.11-0.83,1.84-2.03,2.04-3.4c0.18-1.21-0.09-2.4-0.71-3.42l39.3-29.18l4.28-25.66L600,76.89v-1.23l-86.6,61.96l-0.16,0.12
				l-4.29,25.67l-38.96,28.92c-1.01-1.11-2.42-1.71-3.85-1.71c-1.07,0-2.15,0.34-3.08,1.02c-1.11,0.83-1.84,2.04-2.04,3.41
				C460.82,196.42,461.16,197.79,461.99,198.9z M462.01,195.19c0.16-1.1,0.75-2.08,1.64-2.74c1.86-1.38,4.48-0.99,5.86,0.86
				c0.67,0.9,0.94,2,0.78,3.11c-0.16,1.1-0.75,2.08-1.65,2.75c-0.73,0.54-1.59,0.82-2.48,0.82c-0.21,0-0.42-0.01-0.62-0.04
				c-1.11-0.17-2.08-0.75-2.75-1.65C462.12,197.4,461.85,196.3,462.01,195.19z"/>
			<path style="fill:#174275;" d="M428.5,147.9c1.71,2.3,4.96,2.77,7.25,1.07c2.16-1.6,2.69-4.56,1.34-6.81L600,24.72v-1.24
				L436.49,141.35c-0.8-0.89-1.86-1.49-3.07-1.67c-0.25-0.04-0.51-0.06-0.77-0.06c-1.1,0-2.17,0.36-3.08,1.03
				C427.28,142.35,426.8,145.6,428.5,147.9z M430.17,141.45c0.9-0.67,2-0.94,3.11-0.78c1.1,0.16,2.08,0.75,2.74,1.64
				c1.38,1.86,0.99,4.48-0.86,5.86c-0.75,0.56-1.62,0.82-2.49,0.82c-1.28,0-2.55-0.58-3.37-1.69
				C427.93,145.45,428.32,142.82,430.17,141.45z"/>
			<path style="fill:#174275;" d="M461.58,139.4c0.82,1.11,2.03,1.84,3.4,2.04s2.74-0.14,3.85-0.97c1.11-0.82,1.84-2.03,2.04-3.4
				c0.18-1.2-0.09-2.39-0.7-3.42L600,40.36v-1.22l-130.41,93.7c-1.01-1.12-2.43-1.72-3.86-1.72c-1.07,0-2.15,0.34-3.08,1.02
				c-1.11,0.83-1.84,2.04-2.04,3.41C460.41,136.92,460.75,138.29,461.58,139.4z M461.6,135.7c0.16-1.11,0.75-2.09,1.65-2.75
				c1.85-1.38,4.47-0.99,5.85,0.86c0.67,0.9,0.94,2,0.78,3.11c-0.16,1.11-0.75,2.08-1.65,2.75c-0.73,0.54-1.59,0.82-2.48,0.82
				c-0.21,0-0.42-0.01-0.62-0.04c-1.11-0.16-2.08-0.75-2.75-1.65C461.71,137.91,461.44,136.8,461.6,135.7z"/>
			<path style="fill:#174275;" d="M470.35,68.69c1.7,2.3,4.96,2.78,7.25,1.07c2.16-1.6,2.69-4.56,1.34-6.81L567.15,0h-1.73
				l-87.06,62.13c-1.01-1.12-2.42-1.71-3.85-1.71c-1.08,0-2.16,0.33-3.09,1.02C469.13,63.14,468.65,66.39,470.35,68.69z
				 M472.02,62.24c1.85-1.38,4.48-0.99,5.85,0.86c1.38,1.86,0.99,4.48-0.86,5.86c-0.75,0.56-1.62,0.82-2.49,0.82
				c-1.28,0-2.55-0.58-3.37-1.69C469.78,66.24,470.17,63.61,472.02,62.24z"/>
			<path style="fill:#174275;" d="M436.14,22.61c1.7,2.3,4.96,2.78,7.25,1.07c1.11-0.82,1.84-2.03,2.04-3.4
				c0.18-1.2-0.09-2.39-0.7-3.41L468.37,0h-1.74l-22.5,16.06c-0.8-0.89-1.86-1.49-3.07-1.67c-0.26-0.04-0.51-0.06-0.77-0.06
				c-1.1,0-2.17,0.35-3.08,1.03c-1.11,0.82-1.83,2.03-2.04,3.4C434.97,20.13,435.31,21.5,436.14,22.61z M436.16,18.91
				c0.17-1.11,0.75-2.09,1.65-2.75c0.9-0.67,2-0.95,3.1-0.78c1.11,0.16,2.09,0.75,2.75,1.64c0.67,0.9,0.95,2,0.78,3.11
				c-0.16,1.11-0.75,2.08-1.64,2.75c-0.75,0.55-1.63,0.82-2.49,0.82c-1.28,0-2.55-0.58-3.37-1.69
				C436.28,21.12,436,20.01,436.16,18.91z"/>
			<path style="fill:#174275;" d="M413.34,86.22c0.83,1.11,2.04,1.83,3.41,2.03c1.36,0.21,2.73-0.13,3.84-0.96
				c2.16-1.6,2.69-4.56,1.34-6.82L533.84,0h-1.72L421.33,79.67c-0.8-0.9-1.86-1.5-3.07-1.67c-0.26-0.04-0.51-0.06-0.77-0.06
				c-1.1,0-2.17,0.35-3.08,1.02c-1.11,0.83-1.83,2.04-2.04,3.41C412.17,83.74,412.51,85.1,413.34,86.22z M413.36,82.51
				c0.17-1.1,0.75-2.08,1.65-2.74c0.9-0.67,2-0.95,3.11-0.78c1.1,0.16,2.08,0.74,2.74,1.64c1.38,1.85,0.99,4.48-0.86,5.86
				c-0.73,0.54-1.6,0.82-2.49,0.82c-0.2,0-0.41-0.01-0.62-0.04c-1.1-0.17-2.08-0.75-2.75-1.65
				C413.48,84.72,413.2,83.62,413.36,82.51z"/>
			<path style="fill:#174275;" d="M529.67,148.59c0.83,1.11,2.03,1.84,3.4,2.04s2.74-0.14,3.85-0.97c1.12-0.82,1.84-2.03,2.04-3.4
				c0.18-1.2-0.08-2.39-0.7-3.41L600,98.79v-1.24l-62.32,44.48c-1.01-1.12-2.42-1.71-3.85-1.71c-1.08,0-2.16,0.33-3.09,1.02
				c-1.11,0.82-1.83,2.03-2.04,3.4C528.5,146.11,528.84,147.48,529.67,148.59z M529.69,144.89c0.17-1.11,0.75-2.08,1.65-2.75
				c1.85-1.38,4.48-0.99,5.85,0.86c0.67,0.9,0.95,2.01,0.78,3.11c-0.16,1.11-0.75,2.08-1.64,2.75c-0.73,0.54-1.6,0.83-2.49,0.83
				c-0.21,0-0.41-0.02-0.62-0.05c-1.1-0.16-2.08-0.75-2.75-1.65C529.81,147.1,529.53,145.99,529.69,144.89z"/>
			<path style="fill:#174275;" d="M567.09,221.41c0.82,1.11,2.03,1.83,3.4,2.03c1.37,0.21,2.74-0.14,3.85-0.96
				c1.11-0.83,1.84-2.04,2.04-3.41c0.18-1.2-0.09-2.38-0.7-3.41L600,198.3v-1.22l-24.9,17.77c-1.01-1.12-2.42-1.72-3.86-1.72
				c-1.07,0-2.15,0.33-3.08,1.02c-1.11,0.83-1.84,2.04-2.04,3.41S566.26,220.29,567.09,221.41z M567.11,217.7
				c0.16-1.1,0.75-2.08,1.65-2.75c1.85-1.37,4.48-0.98,5.85,0.87c0.67,0.9,0.94,2,0.78,3.11c-0.16,1.1-0.75,2.08-1.64,2.74
				c-0.73,0.55-1.6,0.83-2.49,0.83c-0.21,0-0.41-0.01-0.62-0.05c-1.11-0.16-2.08-0.74-2.75-1.64
				C567.22,219.91,566.95,218.81,567.11,217.7z"/>
			<path style="fill:#174275;" d="M496.4,198.09c0.82,1.11,2.03,1.84,3.4,2.04s2.74-0.14,3.85-0.97c1.11-0.82,1.84-2.03,2.04-3.4
				c0.18-1.2-0.09-2.39-0.7-3.41L600,124.03v-1.24l-95.59,68.74c-1.01-1.12-2.42-1.71-3.86-1.71c-1.07,0-2.15,0.33-3.08,1.02
				c-1.11,0.82-1.84,2.03-2.04,3.4S495.57,196.98,496.4,198.09z M496.42,194.39c0.16-1.11,0.75-2.08,1.65-2.75
				c1.85-1.38,4.48-0.99,5.85,0.86c0.67,0.9,0.95,2.01,0.78,3.11c-0.16,1.11-0.75,2.08-1.64,2.75c-0.73,0.54-1.6,0.83-2.49,0.83
				c-0.21,0-0.41-0.02-0.62-0.05c-1.11-0.16-2.08-0.75-2.75-1.64C496.53,196.6,496.26,195.49,496.42,194.39z"/>
			<path style="fill:#174275;" d="M490.91,224.1c1.71,2.3,4.96,2.78,7.26,1.08c2.15-1.6,2.68-4.56,1.33-6.82L600,145.94v-1.23
				l-101.08,72.83c-1.01-1.12-2.42-1.71-3.85-1.71c-1.08,0-2.16,0.33-3.09,1.02C489.69,218.55,489.21,221.81,490.91,224.1z
				 M492.58,217.65c1.85-1.37,4.48-0.98,5.85,0.87c1.38,1.85,0.99,4.48-0.86,5.85c-1.85,1.38-4.48,0.99-5.86-0.86
				C490.34,221.66,490.73,219.03,492.58,217.65z"/>
			<path style="fill:#174275;" d="M547.02,256.9c1.71,2.3,4.96,2.78,7.26,1.08c2.15-1.6,2.68-4.56,1.33-6.82L600,219.17v-1.23
				l-44.97,32.4c-1.01-1.12-2.42-1.71-3.85-1.71c-1.08,0-2.16,0.33-3.09,1.02C545.8,251.35,545.32,254.61,547.02,256.9z
				 M548.69,250.45c1.85-1.37,4.48-0.98,5.85,0.87c1.38,1.85,0.99,4.48-0.86,5.85c-1.85,1.38-4.48,0.99-5.86-0.86
				C546.45,254.46,546.84,251.83,548.69,250.45z"/>
			<path style="fill:#174275;" d="M439.93,110.24c1.7,2.3,4.96,2.78,7.25,1.07c1.11-0.82,1.84-2.03,2.04-3.4v-0.01l11.67,0.57
				L600,8.62V7.38L460.59,107.45l-11.32-0.55c-0.05-1.02-0.39-2-1.02-2.84c-1.01-1.37-2.58-2.09-4.16-2.09
				c-1.08,0-2.16,0.33-3.09,1.02C438.71,104.69,438.22,107.94,439.93,110.24z M441.6,103.79c1.85-1.38,4.48-0.99,5.85,0.86
				c0.67,0.9,0.95,2.01,0.78,3.11c-0.16,1.11-0.75,2.08-1.64,2.75c-0.75,0.56-1.63,0.82-2.49,0.82c-1.28,0-2.55-0.58-3.37-1.69
				C439.36,107.79,439.74,105.16,441.6,103.79z"/>
			<path style="fill:#174275;" d="M400.54,116.14c0.83,1.11,2.04,1.84,3.41,2.04c1.37,0.2,2.74-0.14,3.85-0.97
				c2.16-1.6,2.69-4.56,1.33-6.82l39.91-29.63l24.37,3.6l0.2,0.03L591.56,0h-1.72L473.36,83.34l-24.58-3.63l-40.23,29.86
				c-1.01-1.11-2.42-1.7-3.85-1.7c-1.07,0-2.16,0.33-3.08,1.01C399.32,110.59,398.84,113.84,400.54,116.14z M402.21,109.69
				c1.85-1.38,4.48-0.99,5.86,0.86c1.37,1.86,0.99,4.48-0.87,5.86c-0.73,0.54-1.59,0.82-2.48,0.82c-0.21,0-0.42-0.01-0.62-0.04
				c-1.11-0.16-2.09-0.75-2.75-1.65C399.97,113.69,400.36,111.06,402.21,109.69z"/>
			<path style="fill:#174275;" d="M370.52,75.7c0.83,1.11,2.04,1.84,3.41,2.04c1.37,0.2,2.73-0.14,3.85-0.97
				c2.15-1.6,2.68-4.56,1.33-6.82l39.91-29.63l24.37,3.6l0.2,0.03L505.02,0h-1.72l-59.96,42.9l-24.59-3.63l-40.22,29.87
				c-1.01-1.12-2.42-1.71-3.85-1.71c-1.08,0-2.16,0.33-3.09,1.02C369.3,70.15,368.82,73.41,370.52,75.7z M372.19,69.25
				c1.85-1.38,4.48-0.99,5.86,0.86c1.37,1.86,0.98,4.48-0.87,5.86c-0.73,0.54-1.59,0.83-2.49,0.83c-0.2,0-0.41-0.02-0.62-0.05
				c-1.1-0.16-2.08-0.75-2.74-1.65C369.95,73.25,370.34,70.63,372.19,69.25z"/>
			<path style="fill:#174275;" d="M476.26,159.17c1.7,2.3,4.96,2.78,7.25,1.07c1.11-0.82,1.84-2.03,2.04-3.4s-0.14-2.74-0.97-3.85
				c-0.63-0.86-1.49-1.46-2.43-1.79l2.75-10.99L600,57.58v-1.23L484.17,139.5l-0.15,0.11l-2.84,11.35
				c-0.25-0.04-0.51-0.06-0.77-0.06c-1.07,0-2.16,0.33-3.08,1.02C475.03,153.62,474.55,156.88,476.26,159.17z M477.92,152.72
				c1.86-1.38,4.48-0.99,5.86,0.86c0.67,0.9,0.94,2.01,0.78,3.11c-0.16,1.11-0.75,2.08-1.65,2.75c-0.74,0.56-1.62,0.82-2.49,0.82
				c-1.28,0-2.54-0.58-3.36-1.68C475.68,156.72,476.07,154.1,477.92,152.72z"/>
			<path style="fill:#174275;" d="M533.89,226.41c1.71,2.29,4.96,2.77,7.26,1.07c1.11-0.83,1.83-2.04,2.04-3.41
				c0.2-1.37-0.14-2.73-0.97-3.85c-0.62-0.84-1.47-1.45-2.43-1.79l2.75-10.99L600,166.19v-1.23l-58.2,41.78l-0.14,0.1l-2.84,11.35
				c-0.26-0.04-0.52-0.06-0.77-0.06c-1.11,0-2.18,0.35-3.08,1.02C532.67,220.86,532.19,224.11,533.89,226.41z M535.56,219.95
				c0.9-0.66,2-0.94,3.11-0.78c1.1,0.17,2.08,0.75,2.75,1.65c0.66,0.9,0.94,2,0.78,3.11c-0.17,1.1-0.75,2.08-1.65,2.74
				c-0.75,0.56-1.62,0.83-2.49,0.83c-1.28,0-2.54-0.59-3.36-1.69C533.32,223.96,533.71,221.33,535.56,219.95z"/>
			<path style="fill:#174275;" d="M573.89,271.45c1.71,2.29,4.96,2.77,7.26,1.07c1.11-0.83,1.83-2.04,2.04-3.41
				c0.2-1.37-0.14-2.73-0.97-3.85c-0.62-0.84-1.47-1.45-2.43-1.79l2.75-10.99L600,239.95v-1.24l-18.2,13.07l-0.14,0.1l-2.84,11.35
				c-0.26-0.04-0.52-0.06-0.77-0.06c-1.11,0-2.18,0.35-3.08,1.02C572.67,265.9,572.19,269.15,573.89,271.45z M575.56,264.99
				c0.9-0.66,2-0.94,3.11-0.78c1.1,0.17,2.08,0.75,2.75,1.65c0.66,0.9,0.94,2,0.78,3.11c-0.17,1.1-0.75,2.08-1.65,2.74
				c-0.75,0.56-1.62,0.83-2.49,0.83c-1.28,0-2.54-0.59-3.36-1.69C573.32,269,573.71,266.37,575.56,264.99z"/>
			<path style="fill:#174275;" d="M380.02,17.37c1.71,2.3,4.96,2.78,7.26,1.08c2.15-1.6,2.68-4.56,1.33-6.82L404.75,0h-1.72
				l-15,10.81c-1.01-1.12-2.42-1.71-3.85-1.71c-1.08,0-2.16,0.33-3.09,1.02C378.8,11.82,378.32,15.08,380.02,17.37z M381.69,10.92
				c1.85-1.37,4.48-0.98,5.85,0.87c1.38,1.85,0.99,4.48-0.86,5.85c-1.85,1.38-4.48,0.99-5.86-0.86
				C379.45,14.93,379.84,12.3,381.69,10.92z"/>
			<path style="fill:#174275;" d="M345.91,11.9c1.71,2.3,4.96,2.78,7.26,1.08c2.15-1.6,2.68-4.56,1.33-6.82L363.05,0h-1.72
				l-7.41,5.34c-1.01-1.12-2.42-1.71-3.85-1.71c-1.08,0-2.16,0.33-3.09,1.02C344.69,6.35,344.21,9.61,345.91,11.9z M347.58,5.45
				c1.85-1.37,4.48-0.98,5.85,0.87c1.38,1.85,0.99,4.48-0.86,5.85c-1.85,1.38-4.48,0.99-5.86-0.86
				C345.34,9.46,345.73,6.83,347.58,5.45z"/>
			<path style="fill:#174275;" d="M406.89,31.91c1.71,2.29,4.96,2.77,7.26,1.07c1.11-0.83,1.83-2.04,2.04-3.41
				c0.2-1.37-0.14-2.73-0.97-3.85c-0.62-0.84-1.47-1.45-2.43-1.79l2.75-10.99L433.57,0h-1.72L414.8,12.24l-0.14,0.1l-2.84,11.35
				c-0.26-0.04-0.52-0.06-0.77-0.06c-1.11,0-2.18,0.35-3.08,1.02C405.67,26.36,405.19,29.61,406.89,31.91z M408.56,25.45
				c0.9-0.66,2-0.94,3.11-0.78c1.1,0.17,2.08,0.75,2.75,1.65c0.66,0.9,0.94,2,0.78,3.11c-0.17,1.1-0.75,2.08-1.65,2.74
				c-0.75,0.56-1.62,0.83-2.49,0.83c-1.28,0-2.54-0.59-3.36-1.69C406.32,29.46,406.71,26.83,408.56,25.45z"/>
			<path style="fill:#174275;" d="M461.99,198.9c0.82,1.11,2.03,1.83,3.4,2.04c1.36,0.2,2.74-0.14,3.85-0.97
				c1.11-0.83,1.84-2.03,2.04-3.4c0.18-1.21-0.09-2.4-0.71-3.42l39.3-29.18l4.28-25.66L600,76.89v-1.23l-86.6,61.96l-0.16,0.12
				l-4.29,25.67l-38.96,28.92c-1.01-1.11-2.42-1.71-3.85-1.71c-1.07,0-2.15,0.34-3.08,1.02c-1.11,0.83-1.84,2.04-2.04,3.41
				C460.82,196.42,461.16,197.79,461.99,198.9z M462.01,195.19c0.16-1.1,0.75-2.08,1.64-2.74c1.86-1.38,4.48-0.99,5.86,0.86
				c0.67,0.9,0.94,2,0.78,3.11c-0.16,1.1-0.75,2.08-1.65,2.75c-0.73,0.54-1.59,0.82-2.48,0.82c-0.21,0-0.42-0.01-0.62-0.04
				c-1.11-0.17-2.08-0.75-2.75-1.65C462.12,197.4,461.85,196.3,462.01,195.19z"/>
		</g>
	</g>
</g>
</svg>
