<?xml version="1.0" encoding="UTF-8"?>
<svg id="Calque_1" data-name="Calque 1" xmlns="http://www.w3.org/2000/svg" version="1.1" viewBox="0 0 500 500">
  <defs>
    <style>
      .cls-1, .cls-2, .cls-3, .cls-4, .cls-5, .cls-6, .cls-7 {
        stroke-miterlimit: 10;
      }

      .cls-1, .cls-2, .cls-6 {
        stroke-width: 2px;
      }

      .cls-1, .cls-3, .cls-4, .cls-8 {
        stroke: #000;
      }

      .cls-1, .cls-4, .cls-5, .cls-6, .cls-7 {
        fill: none;
      }

      .cls-9 {
        fill: #000;
      }

      .cls-9, .cls-10, .cls-11, .cls-12, .cls-13, .cls-14 {
        stroke-width: 0px;
      }

      .cls-2 {
        fill: #b6ecf7;
        stroke: #4ccce6;
      }

      .cls-3, .cls-8, .cls-14 {
        fill: #fff;
      }

      .cls-10 {
        fill: #ffbf00;
      }

      .cls-11 {
        fill: #a7d8eb;
      }

      .cls-5, .cls-6 {
        stroke: #110809;
      }

      .cls-7 {
        stroke: #ffbf00;
        stroke-width: 3px;
      }

      .cls-12 {
        fill: #ed926e;
      }

      .cls-13 {
        fill: #ffc200;
        isolation: isolate;
        opacity: .2;
      }

      .cls-8 {
        stroke-miterlimit: 10;
        stroke-width: 1px;
      }
    </style>
  </defs>
  <g id="OBJEKTS">
    <g>
      <line class="cls-6" x1="85.6" y1="316.7" x2="396.9" y2="316.7"/>
      <path class="cls-10" d="M393.1,392.7c0,.7-.2,1.3-.7,1.9-.6.8-1.6,1.4-2.5,1.8-2.5,1.2-5.4,1.6-8,2.8-1.6.7-4,2.9-2.4,4.8,1.1,1.3,3.9,1.2,5.4,1.1,5.3-.4,10.6-1,15.8-2,.5,0,1-.2,1.4-.5.6-.5.6-1.3.7-2.1.1-3.8.2-7.5.2-11.3s-.9-5.2-4.5-6.3c-1.2-.4-2.6-.7-3.7,0-.9.5-1.3,1.5-1.5,2.5-.4,1.6-.3,3.2-.2,4.8,0,.9.2,1.7.2,2.5h-.2Z"/>
      <path class="cls-9" d="M450.5,316.1c-.2-2.3-2.7-3.2-4.7-4.1-4.7-2.2-10-2.9-15.1-1.8-5.9,1.3-10.9,4.7-16.6,6.6-7.6,2.5-15.1,5-22.4,8.5-2.2,1-4.3,2.4-6.1,4.1-2,1.8-3.6,3.8-4.1,6.5-.6,3.5,0,7.1.8,10.5.8,3.8,1.7,7.6,2.3,11.5l5.1,31.5c.1.7.8,1.1,1.4,1l14.9-3.2c.7-.1,1.1-.8.9-1.5-.6-2.5-1.1-5-.8-7.5.2-1.5.6-2.9.7-4.4.2-3.3-1.5-6.6-.5-9.7.3-.9.7-1.7.9-2.5.2-.9,0-1.9,0-2.9-.3-2-.6-4-.9-6-.3-1.5-1.2-3.7-1-5.2.4-3.1,5.6-2,7.8-2s5.8-.1,8.7-.4c5.8-.5,11.6-1.7,16.8-4.6,2.8-1.6,4.4-5.2,5.8-8,1.7-3.4,3.1-7,4.2-10.6.5-1.7,2-3.9,1.8-5.7h.1Z"/>
      <line class="cls-5" x1="202.1" y1="320.3" x2="317.6" y2="320.3"/>
      <line class="cls-5" x1="109.7" y1="320.3" x2="144.2" y2="320.3"/>
      <g>
        <path class="cls-3" d="M108.3,101.1l40.5,61.3c.9,1.4.5,3.3-.9,4.2l-.3.2c-1.4.9-3.3.5-4.2-.9l-40.5-61.3c-.9-1.4-.5-3.3.9-4.2l.3-.2c1.4-.9,3.3-.5,4.2.9Z"/>
        <circle class="cls-9" cx="158.5" cy="182.9" r="34.9"/>
        <circle class="cls-3" cx="158.5" cy="182.9" r="27.2"/>
        <path class="cls-1" d="M179.5,185.2c-1.3,11.6-11.7,20-23.3,18.7"/>
      </g>
      <g>
        <path class="cls-13" d="M243.1,237.3c3.9,0,7.2-3.1,7.2-7h0v-31.3c0-6.4-5-12-11.5-12.1s-11.9,5.2-11.9,11.7v31.7h0c0,4,3.3,7.1,7.2,7.1h9Z"/>
        <path class="cls-10" d="M245.2,232.3c1.1-1.5,1.7-3.4,1.7-5.5v-24.8c0-5-3.7-9.1-8.3-9.1s-8.3,4.1-8.3,9.1v24.8c0,2.1.6,4,1.7,5.5h13.2Z"/>
        <path class="cls-4" d="M239,232.1h-.8c-1.9,0-3.5-1.6-3.5-3.5,0-6.3,0-12.7-.3-19,0-1-.1-2.1.3-3.1.2-.3.4-.7.8-.7s.5.2.7.5c.2.4.3.9.1,1.4,0,.1,0,.2-.2.3-.3.1-.4-.3-.4-.6s0-.6.2-.9c.7-1.3,2.2-.4,2.5.7,0,.5-.1,1.4-.7.7-.3-.4,0-1.3.4-1.6.5-.5,1.3-.6,1.9-.2.6.4.7,1.3.2,1.8,0,.1-.3.2-.4,0h0c-.3-.8,0-1.6.7-1.9s1.6,0,1.8.8c.1.4,0,.8,0,1.1s-.2.3-.4.3-.3-.2-.3-.4c0-.3,0-.7.3-.9,0-.1.2-.2.4-.2s.2.1.2.2v.3c.1,4.6.1,9.3,0,14v7.4c0,1.9-1.6,3.5-3.5,3.5Z"/>
        <rect class="cls-10" x="236" y="233" width="5.2" height="9.1"/>
        <path class="cls-9" d="M244.8,234.3h-12.3c-.6,0-1-.5-1-1v-.2c0-.6.5-1,1-1h12.3c.6,0,1,.5,1,1v.2c0,.6-.5,1-1,1Z"/>
        <path class="cls-9" d="M244.8,236.6h-12.3c-.6,0-1-.5-1-1v-.2c0-.6.5-1,1-1h12.3c.6,0,1,.5,1,1v.2c0,.6-.5,1-1,1Z"/>
      </g>
      <g>
        <path class="cls-2" d="M150.1,294.4c0,7.1-1.9,12.5-5.7,16.2-3.8,3.8-8.9,5.6-15.2,5.6h-23.8v-73.9h22.6c7,0,12.3,1.8,15.8,5.4,3.5,3.6,5.3,8.5,5.3,14.8s-.7,6-2,8.6-3.7,4.7-7.1,6.3v.5c1.8.6,3.3,1.4,4.6,2.5s2.3,2.4,3.1,3.9,1.4,3.1,1.8,4.8c.4,1.7.6,3.5.6,5.3h0ZM137.1,263c0-3-.8-5.3-2.4-7-1.6-1.7-4.2-2.5-7.7-2.5h-9.6v19.3h9.7c3.5,0,6-.9,7.6-2.7,1.6-1.8,2.4-4.2,2.4-7.1h0ZM138.2,293.7c0-3.1-.8-5.7-2.3-7.6-1.6-1.9-4.1-2.9-7.7-2.9h-10.6v21.5h10.7c1.9,0,3.5-.3,4.8-.9s2.3-1.4,3.1-2.4,1.3-2.2,1.6-3.6.5-2.8.5-4.3v.2Z"/>
        <path class="cls-10" d="M193.6,316.2l-11-30.8h-9.4v30.8h-12.1v-73.9h23.8c3,0,5.9.4,8.5,1.3,2.6.9,4.9,2.2,6.7,4,1.9,1.8,3.3,4,4.4,6.6,1.1,2.7,1.6,5.7,1.6,9.3s-1,8.7-3,12.1-4.9,6-8.8,7.7l12.6,32.8h-13.3ZM194.1,263.6c0-3.5-.9-6-2.7-7.7s-4.3-2.5-7.6-2.5h-10.7v21.1h10.6c3.2,0,5.7-.9,7.6-2.8,1.9-1.8,2.8-4.6,2.8-8.2h0Z"/>
        <path class="cls-2" d="M248.5,300.3h-20.5c-.1.6-.4,1.7-.8,3.2-.4,1.5-.9,3.1-1.3,4.8-.5,1.7-.9,3.3-1.3,4.8-.4,1.5-.7,2.5-.9,3.2h-12.6l21.3-73.9h11.7l21.4,73.9h-12.8l-4.1-15.9h0ZM234.5,274.6l-3.8,14.9h15.1l-3.7-14.8c-.1-.6-.4-1.7-.7-3.2s-.7-3-1.1-4.7c-.4-1.6-.8-3.2-1.1-4.6-.4-1.4-.6-2.5-.6-3.1h-.5l-3.5,15.5h0Z"/>
        <path class="cls-2" d="M310.3,316.2l-17.4-31.7-7.7-15.2h-.3v46.9h-12.2v-73.9h11.1l16.3,30.1,8.7,16.6h.4v-46.7h12.1v73.9h-11Z"/>
        <path class="cls-2" d="M356.8,242.4c5,0,9.2.9,12.7,2.8,3.5,1.8,6.1,4.9,7.7,9.1,1,2.6,1.6,5.9,1.8,9.7.2,3.9.3,8.2.3,13.1s0,11.2-.1,15.4c0,4.3-.7,7.9-1.8,11-.9,2.5-2.1,4.5-3.6,6.2-1.5,1.6-3.2,2.9-5.1,3.9s-4,1.6-6.3,2.1c-2.3.4-4.6.6-7,.6h-21.2v-73.9h22.6ZM367.1,269.9c0-5-.9-9-2.7-11.9-1.8-2.9-4.9-4.4-9.4-4.4h-8.6v51.4h8.7c4.5,0,7.7-1.2,9.4-3.6,1.7-2.4,2.6-5.7,2.6-9.9v-21.7h0Z"/>
      </g>
      <path class="cls-12" d="M353,325.3c2.7-.4,5.3-1.4,7.9-1.6,4.7-.5,10.2-2.4,14-5.2,1.8-1.3,3-3,4.7-4.4,1.2-1,2.8-1.7,4.1-2.7,3.2-2.5,6.2-5.4,8.7-8.6,2.5-3.3,4.1-7.3,4.3-11.5,0-1.6,0-3.4-.8-4.8-2.3-3.9-7.4-1.7-10.5,0-3.5,1.8-6.6,4.6-8.7,8-.1.2-.3.4-.4.7-1.1,1.9-1.9,4-3.5,5.6s-3.2,2.4-4.1,3.9c-1.2,2.2-2.1,3.8-4.3,5.1-2.7,1.6-5.8,2-8.5,3.6-2.5,1.5-4.9,3-7.3,4.5-2.3,1.3-4.2,3.4-6.6,4.4-1.6.7-3.5.8-5.1,1.6-2.2,1-3.1,4.7-3.6,6.8,0,.3-.2.6-.1.9.4,2.1,3.1,1,4,0,.7-.8.6-1.7,1.3-2.5.7-.9,2.2-1.2,3.2-1.2,1.6-.1,3.3,0,4.7-.6.7-.3,1.3-.9,2.1-1.2,1.1-.5,2.4-.6,3.6-.6s.7,0,1-.1h-.1Z"/>
      <g>
        <path class="cls-9" d="M303.2,233.4c-1.8,3.3,1,5.7,3.4,7.9.6.6,1.3,1.2,2.1,1.5,1.4.6,3,.5,4.5.3,10.9-1.2,22-2.7,32.8-5,2.5-.5,5-1.2,7.5-1.8,3.3-.7,6.7-2.2,9.8-3.4,3.2-1.3,6.1-3.1,8.7-5.3h.1c.4-.4.8-.7,1.2-1.3,1.3-1.5,2.3-3.5,1.5-5.2-.9-2.1-3.5-2.7-5.7-2.8-6.7-.5-13.4.2-20,1.2-4.5.7-8.9,1.6-13.4,2.2-4.6.6-8.9,0-13.4.2-7.8.2-15.4,4.7-19.1,11.6h0Z"/>
        <path class="cls-12" d="M322.6,217.1c-2.1-.8-5.1-.5-6.8-1.9-1.9-1.7-3.2-4.6-4.3-6.8-.7-1.5-3.2-3.2-3.5-4.5-.2-.6.3-1.1.6-1.7.5-1.1.3-2.4.9-3.4s1.7-1.5,2.6-2.3c.7-.6,1.1-1.5,1.5-2.3,1.5-2.9,3.6-6.2,4.1-9.4.3-1.8.3-3.6-.3-5.3-.8-2.1-3-4.4-5.3-3.4s-4.1,2.8-6,4.5c-2.3,2-4.9,3.9-6.1,6.8-.6,1.5-.8,3.2-1.3,4.8-.5,1.7-1.4,3.2-2.1,4.9-.6,1.6-1,3.3-1.2,5.1,0,.8,0,1.6.2,2.4.3.9.9,1.6,1.6,2.3,3,3.3,6.2,6.4,9.8,8.9,1,.7,2.1,1.4,3.2,1.9,2.3,1,3.2,2.9,5.4,3.9,1.9.9,3.9,1.5,6,1.6,1.5,0,4.1-.3,4.2-2.1s-1.6-3.3-3.1-3.9h-.1Z"/>
        <path class="cls-12" d="M365.6,207.2c-1.1,1.7-2.8,3-4.3,4.4s-3.2,2.7-5,3.6c-1.5.7-3.2,1.2-4.7,1.9-1.8.9-3.5,2.1-5.2,3.1-1.1.6-4.8,2.5-5.9,1.1-1-1.3,1.2-3.3,2.2-3.9,2.6-1.6,4.7-4.3,6.1-7,.5-.9,1-1.9,1.6-2.9,1.5-2.4,3.7-4.4,6.3-5.5-1.8-2-3.1-4.3-3.9-6.8-3.1-1.6-5.4-4.6-6.1-8-.5-2.6-.3-7.1,2.9-7.8,2.9-.7,7,.4,9.2,2.3,2.4,2.1,3.7,5.2,4.4,8.3.3,1.2.5,2.4.8,3.6.9,3.2,3,6,3.1,9.3,0,1.7-.5,3.2-1.4,4.5v-.2Z"/>
        <path class="cls-9" d="M356.2,178.4c-1.5-1.2-3-2.4-4.6-3.4-2.7-1.6-5.8-2.7-9-2.7s-3.7-.3-5.4,0c-1.9.4-3.6,1.2-5.5,1.2-3.2.1-6.4-.9-9.5-1.4-3.2-.5-6.7.7-9.5,2.3-3,1.7-9,5.6-11.3,8.2,2.8,4.6,8.8,7.4,11.1,12.3.5-.3,1-.6,1.4-.9v14.3c.1,4.6-.1,9.6.6,14.2.7-.7,2-.4,2.9-.4h12.2c3.8,0,7.6,0,11.4-.6,2-.3,3.9-.6,5.9-.5,1-3.6.7-7.9.8-11.4,0-3.1,0-6.2-.1-9.4,0-1.6-.1-3.2-.2-4.8,0-.8-.6-2.5,0-3.1.7.5,1.3,1.3,1.9,2,3.1-4.5,6.3-8.9,9.6-13.2-.9-.9-1.8-1.7-2.8-2.5v-.2Z"/>
        <path class="cls-12" d="M327.3,244.3c-.7.7-15.5,3.9-15.5,3.9l-.7-7.5,13.8-4.9,2.4,8.5h0Z"/>
        <path class="cls-9" d="M364.7,235.3c1.7-1,3.5-2,5.3-2.7,2-.7,4.2-1.2,5.7-2.7,1.6-1.5,2.1-3.9,2.5-6.1.5-2.4.5-5.2-.2-7.6-1-3.4-3.7-6.3-7.2-7.1-2.1-.5-4.4-.2-6.3.8-1.4.7-2.6,1.8-4,2.5s-2.4,1-3.7,1.5c-3.8,1.5-7.2,3.6-10.6,5.7-3.4,2.1-6.5,4.7-9.8,6.9-1.3.9-15.1,7.6-15.1,7.6,1.8,4,3.3,8.1,5,12.1,8.9-1.2,17.5-4,26.2-6.3,1.7-.5,3.3-1.2,5-1.5,1.9-.4,3.8-1.3,5.5-2.3.6-.3,1.2-.6,1.7-1v.2Z"/>
        <path class="cls-10" d="M311.3,249c-2.7.5-5.5,0-8.4-.4-2.3-.2-4.6.2-6.9-.2-3-.5-5.4-2.6-5.6-5.7-.1-1.7-.2-3.6.9-4.9.9-1.1,2.5-1.4,3.9-1.3s2.7.7,4.1,1.1c2.3.8,4.6,1.3,7,1.8,1.9.4,3.5,1.4,5.4.4.1,0,.2-.1.3,0,.1,0,.2.2.2.3.7,1.9,1.3,3.8,1.8,5.7.3,1,.7,1.6,0,2.2-.6.5-1.7.7-2.5.9h-.2Z"/>
        <path class="cls-12" d="M340.8,244.3c.7.7,15.5,3.9,15.5,3.9l.7-7.5-13.8-4.9-2.4,8.5h0Z"/>
        <path class="cls-9" d="M302.8,236.1c-2.8-1.1-5.6-2.3-8.2-3.9-.9-.5-1.8-1.1-2.4-1.9-.9-1.1-1.2-2.6-1.5-4.1-1-5.3-2.4-9.4,1.4-13.9,3.1-3.7,8.2-5.1,12.4-2.4,2.8,1.7,4.6,4.9,7.7,5.9,1.7.6,3.6.5,5.2,1.2,1.5.7,2.9,1.8,4.3,2.7,3.4,2.1,6.5,4.7,9.8,6.9,1.3.9,15.1,7.6,15.1,7.6-1.8,4-3.3,8.1-5,12.1-8.9-1.2-17.5-4-26.2-6.3-4.3-1.2-8.6-2.3-12.8-3.9h.2Z"/>
        <path class="cls-10" d="M356.8,249c2.7.5,5.5,0,8.4-.4,2.3-.2,4.6.2,6.9-.2,2.9-.4,6.2-3.3,6.3-6.4,0-1-.2-1.9-.6-2.8-.2-.5-.4-.9-.7-1.3-.7-.9-1.8-1.4-2.9-1.5-1.7-.2-3.5.4-5.1.9-1.7.5-3.2.8-4.9,1.5-2.1.9-4.4,1.2-6.7.9-.6,0-1.2-.2-1.8,0-1.3.4-1.2,2.3-1.2,3.4-.1,1.6-.2,3.2-.9,4.7,1.1.6,2.1,1,3.2,1.2h0Z"/>
        <path class="cls-12" d="M337.6,172.3c-.4,0-.8,0-1.2-.2-.7-.3-.8-1-.9-1.7,0-.9-.1-1.8,0-2.7v-.8c0-1.6.1-3.4.6-4.9,1.6,0,1.7-1.2,1.8-2.6,0-.4,0-.9-.2-1.2-.3-.3-.9-.3-1,0,0-1.1.1-2.2.1-3.3s.2-1.7-.8-2.2c-1.5-.8-3.4-.9-5.1-.5-1.4.3-3.4.9-4.5,1.9-1.1,1.1-1,2.6-1.4,4v.2h-.2c-.6,0-1.1.5-1.2,1-.1.6,0,1.2.2,1.7.1.4.3.7.5,1,.3.2.8.3,1,0,.5,1.2.9,2.5,1.3,3.7,0,.2.2.5.2.7v1.1c0,1.2-.1,2.3-.4,3.5,0,.3-.1.7-.4,1-.4.5-1.1.5-1.8.5.4.7.5,1.4.9,2.1.7,1.1,1.9,2,3.2,2.2,1.9.3,3.9.3,5.8-.3.9-.3,1.7-.8,2.4-1.5.8-.8,1.1-1.6,1.4-2.6h-.3Z"/>
        <path class="cls-3" d="M348.6,226h-36.7c-1,0-1.8-.8-1.8-1.8v-21.7c0-1,.8-1.8,1.8-1.8h36.7c1,0,1.8.8,1.8,1.8v21.7c0,1-.8,1.8-1.8,1.8Z"/>
        <path class="cls-9" d="M332.7,212.5c0,1.3-1.1,2.4-2.4,2.4s-2.4-1.1-2.4-2.4,1.1-2.4,2.4-2.4,2.4,1.1,2.4,2.4Z"/>
        <path class="cls-9" d="M337.2,151.5c-.2-.2-.3-.5-.4-.7v-.5c0-.3-.1-.6-.3-.9-.2-.3-.3-.7-.5-1s-.4-.7-.6-.9c-.4-.4-.9-.5-1.5-.5s-1.4.2-2,.6c-.3.2-.6.6-.9.8-.6.4-1.2.5-1.9.6-1,.2-1.9.6-2.8,1.1-.4.2-.7.4-1,.7-.6.6-.8,1.5-.8,2.3-.2,2-.1,4,.1,6,.3,1.9.7,4.1,1.8,5.7,1,1.4,2.7,2.1,4.4,2.1,5.2-.1,6.1-7,6.8-10.8.3-1.5.3-3.2-.6-4.6h.2ZM332.1,164c-.9.4-1.7.5-2.6,0-.6-.3,0-1.3.5-1,.6.3,1,.3,1.6,0,.7-.3,1.2.7.5,1ZM335.8,159.3c-.1.8-.4,1.7-.6,2.5-.1.3-.2.6-.4.9-1.1-1.2-3.2-1.2-4.7-1-.8,0-2.9.3-3.5,1.1-1.2-2.3-1.5-5.4-.7-7.3.2-.4.5-.8.9-1,1.2-.9,2.8-.9,4.3-.8h2.9c1.2,0,2,.5,2.2,1.5,0,1.4-.1,2.8-.4,4.2h0Z"/>
        <path class="cls-9" d="M363.5,204.6c-.2.4-.4.9-.7,1.2-.2.2,0,.6.3.5.6-.4.9-.8,1.2-1.5.2-.5-.6-.7-.8-.2Z"/>
        <path class="cls-9" d="M297.9,203.6c-.3-.2-.6-.4-.6-.8s-.7-.4-.7,0c0,.6.4,1.3,1.1,1.3s.4-.3.2-.5Z"/>
      </g>
      <path class="cls-14" d="M346.5,233.4h0c-.1-.4-1.3-.9-1.7-1.1-.7-.4-1.4-.7-2-1.1-1.3-.7-2.7-1.3-4-2-2.8-1.5-5.6-3-8.5-4.4-.2,0-.4.2-.2.3,2.9,1.7,5.8,3.2,8.8,4.8,1.4.7,2.7,1.5,4.1,2.2.7.4,1.3.7,2,1s.9.6.8,1.4c0,.7-.2,1.3-.4,1.9v.3c0,.2.3.3.4.1.6-.9,1.1-2.4.7-3.4h0Z"/>
      <path class="cls-9" d="M221,200.3c-3.3,0-6.6,0-9.9-.2-.3,0-.3.5,0,.5,3.3.3,6.7.6,10,.1.2,0,.2-.4,0-.4h-.1Z"/>
      <path class="cls-9" d="M225.1,187.8c-1.6-1.4-3.5-2.6-5.2-3.9-.3-.2-.6.3-.3.5,1.7,1.3,3.4,2.6,5.3,3.8.2.1.4-.2.3-.3h-.1Z"/>
      <path class="cls-9" d="M235.1,171.5c-.1-.4-.8-.2-.7.2.7,2.3,1.3,4.7,2.3,6.9.1.3.5,0,.5-.2-.4-2.4-1.3-4.6-2.1-6.9Z"/>
      <path class="cls-9" d="M250.1,173.7c-.7,2.3-1.8,4.2-2.7,6.4-.1.3.4.6.6.3,1.7-1.7,2.5-4.2,2.9-6.5,0-.5-.7-.7-.8-.2Z"/>
      <path class="cls-9" d="M261.1,187c-1.8.8-4,1.7-5.4,3.3-.2.3,0,.6.4.5,1.9-.8,3.5-2.1,5.4-3,.5-.2,0-.9-.4-.7h0Z"/>
      <path class="cls-9" d="M265.4,201.4c-2.4.6-4.8.6-7.3,1-.3,0-.3.6,0,.6,2.4.5,5.2-.1,7.5-.8.6-.2.3-1-.2-.9h0Z"/>
      <g>
        <circle class="cls-9" cx="251.4" cy="116.8" r="36.8" transform="translate(95.8 346.2) rotate(-80.8)"/>
        <circle class="cls-8" cx="251.4" cy="116.9" r="28"/>
        <circle class="cls-9" cx="251.4" cy="116.7" r="17.6"/>
        <circle class="cls-10" cx="251.2" cy="116.7" r="9.6" transform="translate(55.3 312.4) rotate(-69.9)"/>
        <g>
          <line class="cls-1" x1="307.5" y1="107.5" x2="250.4" y2="117.2"/>
          <polyline class="cls-1" points="254.4 111.8 250.6 117.2 256 121"/>
          <polyline class="cls-1" points="297.5 104.5 293.7 109.9 299.1 113.7"/>
          <polyline class="cls-1" points="302.1 103.7 298.3 109.1 303.7 112.9"/>
          <polyline class="cls-1" points="306.7 102.9 302.9 108.3 308.3 112.1"/>
        </g>
      </g>
      <g>
        <path class="cls-3" d="M168.4,97.4c-1.7-2-4.3-3.2-7.2-3.1-3.9.2-7.7,2.8-8,6.5-3.8,1.1-6.7,4.6-6.5,8.8.1,2.6,1.3,4.8,3.2,6.3-.5,1.3-.4,2.9.4,4.4.5.8,1.2,1.5,2,1.9,1.6.7,3,.7,4.3.2v7.2c.1.4.7.6.9.2l3.7-5.4c3.5,1.4,6.6-.7,6.9-3.9.9.5,2,.7,3.1.7,3.2-.2,5.7-2.7,6-5.8,1.7,1,4,1.3,6.3,0,1.3-.6,2.2-1.7,2.7-3,1.8-4.6-1.6-8.9-5.9-8.8"/>
        <g>
          <path class="cls-3" d="M154.5,112.5c-2.1,0-3.8,1.4-4.5,3.2"/>
          <path class="cls-3" d="M177.1,114.9c-.2-3.5-3.1-6.2-6.6-6"/>
          <path class="cls-3" d="M183,104.2c-2.1-.9-4.2-.6-5.8.3"/>
          <path class="cls-3" d="M180.3,103.3c-.2-4.2-3.8-7.4-7.9-7.2-4.2.2-7.4,3.8-7.2,7.9"/>
          <path class="cls-3" d="M173.7,98.9c-2.8,0-4.9,2.5-4.8,5.3"/>
          <path class="cls-3" d="M169.2,118.1c2.5.2,4.6-1.6,4.9-4"/>
          <path class="cls-3" d="M183.3,111.6c.7-2.1-.4-4.4-2.5-5.1"/>
          <path class="cls-3" d="M152.6,117.5c.5,1.6,2.2,2.5,3.9,2"/>
          <path class="cls-3" d="M159.9,102c-1.9-1.3-4.2-1.7-6.6-1.3"/>
          <path class="cls-3" d="M151.9,104.6c-1.2.9-2.1,2.4-2.1,4.1"/>
        </g>
        <path class="cls-11" d="M161.2,125.7"/>
      </g>
      <g>
        <path class="cls-9" d="M361.6,124.9h6.7c.8,0,1.4-.6,1.4-1.4v-22.1c0-.8-.6-1.4-1.4-1.4h-32.1c-.8,0-1.4.6-1.4,1.4v4.2"/>
        <path class="cls-3" d="M360.8,106.3h-28.3c-.8,0-1.4.6-1.4,1.4v19.6c0,.8.6,1.4,1.4,1.4h2c.2,0,.4.2.4.4v7.6c0,.3.3.5.6.3l10.2-8.2h15.2c.8,0,1.4-.6,1.4-1.4v-19.6c0-.8-.6-1.4-1.4-1.4h-.1Z"/>
        <line class="cls-4" x1="334" y1="112.9" x2="356.9" y2="112.9"/>
        <line class="cls-4" x1="334" y1="116.3" x2="356.9" y2="116.3"/>
        <line class="cls-4" x1="334" y1="120.3" x2="356.9" y2="120.3"/>
      </g>
      <g>
        <path class="cls-11" d="M416,115c-.7,0-1.3.2-1.9.4-.7-3.6-3.8-6.3-7.5-6.3s-6.9,2.7-7.5,6.3c-.6-.3-1.2-.4-1.9-.4-2.6,0-4.7,2.4-4.7,5s2.1,5,4.7,5h18.9c2.6,0,4.7-2.4,4.7-5s-2.1-5-4.7-5h-.1Z"/>
        <path class="cls-3" d="M410.4,107.3c-1.2-.5-2.5-.8-3.9-.8s-2.1.2-3.1.5"/>
        <path class="cls-3" d="M412.7,105c-1.8-1.1-3.9-1.7-6.2-1.7s-4,.5-5.6,1.4"/>
        <path class="cls-3" d="M414.8,102.5c-2.3-1.7-5.2-2.7-8.2-2.7s-5.3.8-7.5,2.2"/>
      </g>
      <path class="cls-11" d="M71.2,113l-1,.5c-.3,0-.7,0-.9-.2-1-1.3-2-2.1-3.1-2.8-.3-.2-.4-.5-.3-.8l.5-1.5c0-.4,0-.7-.4-.9l-3-1.1c-.4,0-.7,0-.9.4l-.6,1.5c0,.3-.4.5-.7.4-1.3,0-2.9,0-4.2.3-.3,0-.7,0-.9-.3l-.6-1.4c-.2-.3-.4-.8-.8-.7l-2.9,1.4c-.3.2-.5.9-.3,1.2l.6,1.4c0,.3,0,.6-.2.8-1,.8-1.9,1.8-2.6,2.9-.2.3-.5.4-.8.3l-1.4-.5c-.4,0-.8,0-.9.4l-1,2.9c0,.4,0,.7.4.9l1.5.6c.3,0,.5.4.4.7-.2,1.3-.2,2.6.2,4.2,0,.3,0,.7-.4.8l-1.3.6c-.3.2-.6.6-.4.9l1.4,2.9c.2.3.6.3,1,.2l1.3-.6c.3-.1.7,0,.8.2.8,1,1.8,2,3,2.7.3.2.4.5.3.8l-.5,1.2c0,.4,0,.8.4.9l2.9,1c.4.1.8,0,.9-.4l.4-1.2c0-.3.4-.5.7-.5,1.3.2,2.7.1,4-.2.3,0,.6.1.7.4l.6,1.3c.2.3.6.3,1,.2l2.9-1.4c.3-.2.3-.3,0-.7l-.6-1.3c0-.3,0-.7.3-.9,1.1-.9,2.2-2,2.9-3.2.2-.3.5-.4.8-.3l1.3.4c.4,0,.8,0,.9-.4l1.1-2.9c0-.4,0-.8-.4-.9l-1.2-.4c-.3,0-.5-.4-.5-.7,0-1.3,0-2.8-.2-4,0-.3,0-.7.4-.8l1-.5c.3-.2.3-.3,0-.7l-1.4-2.9c-.2-.3-.3-.6-.6-.4l.2.2ZM62.3,126.8c-3.3,1.6-7.3.2-8.8-3.2s-.2-7.3,3.2-8.8c3.3-1.6,7.3-.2,8.8,3.2s.2,7.3-3.2,8.8Z"/>
      <line class="cls-6" x1="64.2" y1="328.4" x2="386.1" y2="328.4"/>
      <g>
        <g>
          <g>
            <path class="cls-3" d="M423.1,224.9c1.5-1.9,2.3-4.3,2-6.7-.2-2-1.3-4-3.2-6.1l-5-51.2-13,1.3,5,51.1c-1.5,1.8-2.2,4.2-2,6.7.2,2.3,1.3,4.3,2.9,5.8,1.9,1.7,4.4,2.6,7.1,2.4,2.4-.2,4.6-1.4,6.1-3.3h.1ZM414.2,222c-.6-.4-1.1-1.2-1.2-1.8-.1-.7,0-1.3.4-1.9,0,.1-.1.3-.2.4h0c.4-1.2,1.7-2,2.9-1.9,1.2,0,2.5,1.1,2.6,2.3h0c0,.5,0,1-.1,1.4h0c0,.3-.2.5-.3.7h-.1c-.8,1.4-2.8,1.5-3.9.8h0Z"/>
            <line class="cls-4" x1="407.8" y1="162.1" x2="412.8" y2="213.2"/>
            <line class="cls-4" x1="412.9" y1="161.6" x2="417.9" y2="212.7"/>
            <path class="cls-3" d="M421.2,155.5c-.6-6-5.5-10.6-11.5-11h-2c0-.1,5.2,9.7,5.2,9.7l-7.8,4.2-5.3-10-1,1.6c-1.6,2.4-2.3,5.2-2,8.1.3,3,1.7,5.7,3.9,7.8.2.2.4.3.6.5,2.5,2.1,5.7,3,9,2.7,6.7-.7,11.6-6.7,10.9-13.5h0Z"/>
          </g>
          <g>
            <path class="cls-9" d="M434.6,172.5h3.6c0-.1,4.8,42.2,4.8,42.2h-3.6c0,.1-4.8-42.2-4.8-42.2Z"/>
            <path class="cls-3" d="M426.8,143.1c0-.1.2-.2.2-.3,1.2-1.5,2.9-2.4,4.7-2.6,3.9-.4,7.4,2.5,7.9,6.5l4.9,41.2-13.5,1.8-5.6-41.3c-.2-1.9.2-3.7,1.3-5.2h.1Z"/>
            <path class="cls-3" d="M432.4,209.2l5.9-7.4h3.3c0,.1,6.5,5.5,6.5,5.5l-1.9,17.1-9,.9-4.7-16.2h0Z"/>
          </g>
        </g>
        <line class="cls-4" x1="434.3" y1="178.6" x2="429.4" y2="140.7"/>
        <line class="cls-4" x1="439" y1="178" x2="434.2" y2="140.2"/>
        <line class="cls-4" x1="444.2" y1="184.5" x2="430.4" y2="185.8"/>
        <line class="cls-4" x1="444.3" y1="219.8" x2="445.1" y2="210.3"/>
      </g>
      <path class="cls-9" d="M434.3,330c1,4.5-3.6,6.8-3.6,13.7"/>
      <g>
        <path class="cls-11" d="M384.4,346.8H65.3c-.6,0-1.1-.5-1.1-1.1v-16.3c0-.6.5-1.1,1.1-1.1h319.1c.6,0,1.1.5,1.1,1.1v16.3c0,.6-.5,1.1-1,1.1h-.1Z"/>
        <line class="cls-7" x1="383.8" y1="351.1" x2="383.8" y2="327.1"/>
        <path class="cls-9" d="M89.3,382.2h-5.8c-14.5,0-26.2-11.7-26.2-26.2v-22.8c0-3.4,2.7-6.1,6.1-6.1h25.9c14.5,0,26.2,11.7,26.2,26.2v2.7c0,14.5-11.7,26.2-26.2,26.2h0Z"/>
        <path class="cls-10" d="M86.4,369.4h-1.5c-8,0-14.5-6.5-14.5-14.5v-1.5c0-8,6.5-14.5,14.5-14.5h1.5c8,0,14.5,6.5,14.5,14.5v1.5c0,8-6.5,14.5-14.5,14.5Z"/>
        <g>
          <g>
            <line class="cls-6" x1="128.1" y1="337.4" x2="128.1" y2="328.5"/>
            <line class="cls-5" x1="136.2" y1="334.6" x2="136.2" y2="328.5"/>
            <line class="cls-5" x1="144.2" y1="334.6" x2="144.2" y2="328.5"/>
            <line class="cls-5" x1="152.2" y1="334.6" x2="152.2" y2="328.5"/>
            <line class="cls-5" x1="160.3" y1="334.6" x2="160.3" y2="328.5"/>
          </g>
          <g>
            <line class="cls-6" x1="168.3" y1="337.4" x2="168.3" y2="328.5"/>
            <line class="cls-5" x1="176.4" y1="334.6" x2="176.4" y2="328.5"/>
            <line class="cls-5" x1="184.4" y1="334.6" x2="184.4" y2="328.5"/>
            <line class="cls-5" x1="192.4" y1="334.6" x2="192.4" y2="328.5"/>
            <line class="cls-5" x1="200.5" y1="334.6" x2="200.5" y2="328.5"/>
          </g>
          <g>
            <line class="cls-6" x1="208.5" y1="337.4" x2="208.5" y2="328.5"/>
            <line class="cls-5" x1="216.6" y1="334.6" x2="216.6" y2="328.5"/>
            <line class="cls-5" x1="224.6" y1="334.6" x2="224.6" y2="328.5"/>
            <line class="cls-5" x1="232.6" y1="334.6" x2="232.6" y2="328.5"/>
            <line class="cls-5" x1="240.7" y1="334.6" x2="240.7" y2="328.5"/>
          </g>
          <g>
            <line class="cls-6" x1="248.7" y1="337.4" x2="248.7" y2="328.5"/>
            <line class="cls-5" x1="256.8" y1="334.6" x2="256.8" y2="328.5"/>
            <line class="cls-5" x1="264.8" y1="334.6" x2="264.8" y2="328.5"/>
            <line class="cls-5" x1="272.8" y1="334.6" x2="272.8" y2="328.5"/>
            <line class="cls-5" x1="280.9" y1="334.6" x2="280.9" y2="328.5"/>
          </g>
          <g>
            <line class="cls-6" x1="288.9" y1="337.4" x2="288.9" y2="328.5"/>
            <line class="cls-5" x1="297" y1="334.6" x2="297" y2="328.5"/>
            <line class="cls-5" x1="305" y1="334.6" x2="305" y2="328.5"/>
            <line class="cls-5" x1="313" y1="334.6" x2="313" y2="328.5"/>
            <line class="cls-5" x1="321.1" y1="334.6" x2="321.1" y2="328.5"/>
          </g>
          <g>
            <line class="cls-6" x1="329.1" y1="337.4" x2="329.1" y2="328.5"/>
            <line class="cls-5" x1="337.2" y1="334.6" x2="337.2" y2="328.5"/>
            <line class="cls-5" x1="345.2" y1="334.6" x2="345.2" y2="328.5"/>
            <line class="cls-5" x1="353.2" y1="334.6" x2="353.2" y2="328.5"/>
            <line class="cls-5" x1="361.3" y1="334.6" x2="361.3" y2="328.5"/>
          </g>
        </g>
        <circle class="cls-9" cx="85.6" cy="354.6" r="11"/>
      </g>
      <g>
        <path class="cls-12" d="M23.6,374.6c2.7-.3,5.5,0,8.2.7,1.2-4.6,2.3-9.1,3.4-13.7.7-3,.3-5.8-3.2-6.4-2.1-.4-4,.4-5.2,2.1-2.8,4.3-3,12.4-3.2,17.3Z"/>
        <path class="cls-10" d="M45.1,379.5c-1.1,2.7-4.4,2.1-6.7,2.1-3.5,0-7-.1-10.5-.4-2.4-.2-6-.9-5.3-4,.3-1.4.6-2.7.9-4.1,0-.3.2-.7.5-.8h.4c1.2.2,2.6.7,3.9.5,1.2-.3,2.4-.8,3.6-1.2.3-.1.6-.2.9-.1.7.2.9,1,1.4,1.4.6.5,1.4.8,2.2,1,2.2.7,4.3,1.3,6.6,1.6,1.7.2,2.9,1.8,2.4,3.5,0,.2,0,.3-.2.5h-.1Z"/>
        <path class="cls-12" d="M77.7,321.4c2.7-.3,5.5,0,8.2.7,1.2-4.6,2.3-9.1,3.4-13.7.7-3,.3-5.8-3.2-6.4-2.1-.4-4,.4-5.2,2.1-2.8,4.3-3,12.4-3.2,17.3Z"/>
        <path class="cls-10" d="M98.9,325.8c0,.8-.5,1.6-1.4,2.1-1.5.8-3.5.6-5.1.6-3.5,0-7-.1-10.5-.4-2.4-.2-6-.9-5.3-4,.3-1.4.6-2.7.9-4.1,0-.3.2-.7.5-.8h.4c2.1.3,3.9,1.4,6,.3.7-.4,1.4-.9,2.2-.9s1.5,1.2,2.2,1.8c1,.7,2.1,1.2,3.3,1.6,1.4.4,2.8.8,4.2,1.1.5,0,.9.2,1.3.4,1,.5,1.4,1.5,1.3,2.4h0Z"/>
        <path class="cls-9" d="M55.7,279.1c1.6.6,3.2,1.3,4.2,1.5,7.4,1.6,15.3.7,22-2.6,3-1.5,5.9-3.6,7.7-6.4,1.6-2.4,3.8-6.4,2.3-9.3-1.5-3-6.6-3.9-9.5-4.8-3.8-1.2-7.7-2.3-11.6-3.1-8.8-1.9-17.4.8-26.1-1.2-6-1.4-11.7-3.3-17.2-6.2,0,0-4.3,11.8-4.5,12.8-1.4,5.5-1.7,11.3.2,16.7.5,1.4,1.2,2.7,1.4,4.2.2,1.6,0,3.2-.2,4.7-1.1,8-.9,16.3.5,24.3.5,2.7.8,5.7,1.5,8.4.6,2.3,2.4,4.3,1.8,6.8-.1.6-.4,1.1-.6,1.7-.8,1.9-1.2,3.9-1.2,6s.2,2.6,0,3.9c0,1-.3,2.1-.5,3.1-1.8,8.9-4,17.3-4.1,26.4,0,.3,16.6,3.1,17.8,2,1.5-1.5,1.8-6.1,2.3-8.1.7-2.8,1.3-5.5,2-8.3,1.3-5.7,2.6-11.3,3.7-17,1.8-9,4.4-18.4,3.7-27.6-.4-5.7-.7-11.5-.8-17.2,0-2.5-2-8.5,0-10.5,1.1-1.1,3.1-.7,5,0l.2-.2Z"/>
        <path class="cls-9" d="M96.2,287.3c0-.4,0-.8,0-1.3,0-1.3,0-2.5.2-3.8.5-5.2,0-10.4-1.7-15.3-1-3.1-2.5-5.7-5.4-7.2-2.8-1.6-6.6-1.2-9.3.5-2.8,1.7-5.6,5.3-6.2,8.6-.7,3.8-.3,7.7-.2,11.5v3.7c0,3.5,1.5,6.2,1.9,9.6.5,4,.4,8.4.3,12.5,0,.6,0,1.8-.3,3.2,0,.5.4,1,.9,1,3.6-.1,15.5,0,19,.2.5,0,.9-.3.9-.8l1-10.2c.2-2.4.6-5,0-7.4-.3-1.6-.8-3.2-1.1-4.8h0Z"/>
        <path class="cls-9" d="M32.8,222.3c.5-1.8,1.1-3.5,1.8-5.2,1.5-4,3.4-7.9,6.3-11.1,5.7-6.3,15.8-8,21-.1,2.8,4.2,1.7,10.2,1,14.8-1.3,9.3-2.7,18.6-4,28-.5,3.8-1.6,7-5.6,7.7-3.2.5-6.5,1.1-9.7,1.5-3.7.5-12.2,2.7-14.5-1.2-2.8-4.5-1.3-8.9-.4-13.8.9-4.8,1.5-9.8,2.7-14.5.4-1.9.7-3.8,1.2-5.6,0-.2,0-.3,0-.5h.1Z"/>
        <path class="cls-12" d="M56,255.8c.6.4,1.2.7,1.8,1,4.1,2.2,8.4,4.3,12.7,6.1,3.4,1.5,6.7,3.6,10.4,4.3,3.3.6,7.5.2,9.9-2.4.6-.7,1.1-1.6,1-2.6-.2-.9-1.3-1.7-2.1-1.2-.2.1-.4.3-.6.5-.8.7-2,.9-3.1.8s-2.2-.3-3.3-.2c-.4,0-.8.1-1.2,0-.4,0-.8-.4-1.1-.6-2.5-2.1-5.4-4.1-7.5-6.7-.9-1.1-1.5-2.4-2.3-3.6-1.3-1.9-2.9-3.5-4.9-4.7-3.8-2.4-5.1-5.7-7-9.7-.6-1.2-1.1-2.4-1.5-3.7-.4-1.7-.4-3.4-.7-5.1-.4-2.4-1.3-4.8-2.4-7-1-2-2.1-4-3.7-5.5-1.6-1.5-3.9-2.5-6.1-2.1-2.7.5-4.8,2.9-5.6,5.6s-.6,5.5-.2,8.3c.3,2.7.7,5.4,2,7.7,1.2,2.3,2.9,4.2,4.2,6.4,1.2,2.1,1.9,4.4,2.9,6.6,1.7,3.5,4.9,5.8,8.3,7.8h0Z"/>
        <path class="cls-12" d="M81.7,163.5l.9-1.8c.6-1.4.9-3,3-2.6,1.5.3,2.2,2.1,2.2,3.6s-.7,3.5-1.3,5.2c-.6,1.7-.7,3.8-1,5.6-.4,2.2-1,4.4-2.4,6.2-1,1.3-2.4,2.3-3.3,3.7-.5.9-.8,1.9-1.1,2.9-.9,3.4-1.3,7.1-2.6,10.5-1.3,3.5-3.1,7-5.3,10-1.5,2.1-3.3,4.4-5.7,5.4-1,.4-2.2.6-3.3.7-1.5.1-3.1,0-4.2-.9-1.9-1.7-2-5.1-1.5-7.4.7-3.2,2.1-6.3,4.1-8.9,1.4-1.8,2.8-3.6,4.2-5.3,1.7-2.1,3.1-4.4,4.9-6.5.8-.9,1.6-1.7,2.1-2.8.4-.9.6-1.9.8-2.9.7-2.9,2.2-5.7,4.2-8,.9-1.1,2-2,2.9-3.1s1.8-2.3,2.5-3.7h0Z"/>
        <path class="cls-9" d="M64.8,200.7c0-.1-.2-.2-.3-.3-1.6-1.8-3.2-4-4.9-5.5-1.6,2.7-3.1,5.6-4.7,8.4-.5,1-1.1,2-1.4,3-1.4,4.4.7,10.1,3.1,13.9.8,1.3,2.6,3.6,4.4,2.9,1.7-.7,2.8-4.3,3.6-5.9,1-1.9,2-3.7,3.2-5.4.7-1,1.7-1.9,2.4-2.9.7-.9.8-1.2,0-2.2-1.4-2.2-3.7-4.1-5.5-6.1h0Z"/>
        <path class="cls-12" d="M47.4,197c.5-1.7.9-3.5,1.1-5.4.2-2.1.2-4.3,1-6.3,1.2-3.1,5.5-5.1,8.6-4.3,4.4,1.1,3.1,8.5,2.7,11.8-.2,1.6-1.4,2.8-2.3,4.1-1.4,2.2-1.6,5.9-1.8,8.5,0,.3,0,.6-.2.9-.2.3-.6.4-.9.4-1.8.4-3.6.8-5.4.8s-6.2-.9-5.1-4c.8-2.2,1.7-4.3,2.4-6.5h0Z"/>
        <path class="cls-9" d="M59.6,175.8h0c-1.6,0-3.1,1-4,2.3,0,.2-.3.5-.5.6s-.5.1-.7.1c-1.9.1-3.7,1-5,2.4-1.2,1.4-1.8,3-1.9,4.8,0,1.1,0,1.9.2,2.9.2.7,0,1.2.2,1.8.3,1.8,1.8,1.7,2.8.2.5-.9.9-1.8,1.2-2.8.5-1.2,1.1-2.4,2.1-3.2,1-.7,2.2-1,3.5-1.2s2.5-.4,3.5-1c2.7-1.7,2.4-6.7-1.2-6.9h0Z"/>
        <path class="cls-12" d="M53.2,187.7c-.5-1-1.6-1.3-2.6-.8-1.1.6-1.7,2.1-1.5,3.3.2,1,1.3,1.8,2.2,1.2.4-.1.8-.4,1.1-.7.7-.8,1.2-2,.7-3h0Z"/>
        <path class="cls-9" d="M59.1,191.3c-.4.1-.7.4-1.2.2-.4-.2-.8.4-.4.7.6.3,1.7.4,2-.3,0-.3,0-.6-.4-.5h0Z"/>
        <path class="cls-9" d="M51.5,188.9c0-.5-.9-.3-.8.2,0,.4,0,.8.3,1.1.2.2.5,0,.5-.1.2-.4,0-.8,0-1.2Z"/>
        <path class="cls-9" d="M52.9,249.5c-.4-.2-.8-.1-1.1-.3-.4-.2-.5-.6-.6-1,0-.5-.7-.6-.9-.1-.2.7,0,1.5.6,2,.5.5,1.4.9,2,.5s.4-.8,0-.9v-.2Z"/>
        <path class="cls-14" d="M50,277.4c-1.3-1.3-3-2.2-4.8-2.5-1.4-.3-2.8,0-4.1,0,0,.3-.3.6-.4.8,1-.1,2.1-.3,3.1-.2,2.3,0,4,1.1,5.8,2.3.3.2.6-.2.4-.5h0Z"/>
        <path class="cls-9" d="M36,219.5c-.3,4.7.8,9.4,1.9,14,2.1-2,4.9-2.9,7.7-3.7,2.9-.9,5.8-1.8,8.7-2.7.8-.3,1.8-.6,2-1.5v-.9c-.7-6.3-4.4-12.2-9.6-15.7-3.2-2.1-4.9-2.7-7.3.6-2.1,2.8-3.1,6.4-3.3,9.9h-.1Z"/>
        <path class="cls-14" d="M50.2,212.2c-.2-.1-.4.1-.2.3,1.6,1.8,3,3.6,4.1,5.8,1.1,2.4,1.7,5,2.7,7.5,0,.2.4.1.3,0-.8-4.7-2.9-10.5-6.8-13.4v-.2Z"/>
        <path class="cls-9" d="M59.2,194.9c-.2,0-.5.1-.7,0-.2,0-.3.2,0,.3.4.2.7.2,1,0,.2-.1,0-.3-.2-.3Z"/>
        <g>
          <path class="cls-3" d="M87.6,261.9h-3.4c-1,0-1.8-.8-1.8-1.8v-115.7c0-1,.8-1.8,1.8-1.8h3.4c1,0,1.8.8,1.8,1.8v115.7c0,1-.8,1.8-1.8,1.8Z"/>
          <g>
            <line class="cls-6" x1="87.8" y1="246.8" x2="82.2" y2="246.8"/>
            <line class="cls-5" x1="86" y1="241.7" x2="82.2" y2="241.7"/>
            <line class="cls-5" x1="86" y1="236.6" x2="82.2" y2="236.6"/>
            <line class="cls-5" x1="86" y1="231.6" x2="82.2" y2="231.6"/>
            <line class="cls-5" x1="86" y1="226.5" x2="82.2" y2="226.5"/>
          </g>
          <g>
            <line class="cls-6" x1="87.8" y1="221.5" x2="82.2" y2="221.5"/>
            <line class="cls-5" x1="86" y1="216.4" x2="82.2" y2="216.4"/>
            <line class="cls-5" x1="86" y1="211.4" x2="82.2" y2="211.4"/>
            <line class="cls-5" x1="86" y1="206.3" x2="82.2" y2="206.3"/>
            <line class="cls-5" x1="86" y1="201.2" x2="82.2" y2="201.2"/>
          </g>
          <g>
            <line class="cls-6" x1="87.8" y1="196.2" x2="82.2" y2="196.2"/>
            <line class="cls-5" x1="86" y1="191.2" x2="82.2" y2="191.2"/>
            <line class="cls-5" x1="86" y1="186.1" x2="82.2" y2="186.1"/>
            <line class="cls-5" x1="86" y1="181" x2="82.2" y2="181"/>
            <line class="cls-5" x1="86" y1="176" x2="82.2" y2="176"/>
          </g>
          <g>
            <line class="cls-6" x1="87.8" y1="170.9" x2="82.2" y2="170.9"/>
            <line class="cls-5" x1="86" y1="165.9" x2="82.2" y2="165.9"/>
            <line class="cls-5" x1="86" y1="160.8" x2="82.2" y2="160.8"/>
            <line class="cls-5" x1="86" y1="155.8" x2="82.2" y2="155.8"/>
            <line class="cls-5" x1="86" y1="150.7" x2="82.2" y2="150.7"/>
          </g>
        </g>
        <path class="cls-12" d="M87.7,157.4c.2,1.1.4,2.1.8,3.1,0,.2,0,.4.3.6.3.3.7.4,1.1.3s.7-.3,1-.6c1.1-1.1,1.5-2.6,1.5-4.2s-.6-4.2-2.6-3.4c-1.6.6-2.4,2.6-2.1,4.2h0Z"/>
        <path class="cls-9" d="M79.3,180.3c-.3.1-.6.3-.9.4-.6.2-.3,1.1.2.9.5-.1.9-.4,1.2-.8.2-.3-.2-.7-.5-.5h0Z"/>
      </g>
      <g>
        <path class="cls-10" d="M474.8,388.4s.1,0,.2.1c.3.2.5.4.7.6.2.3.3.7.4,1.1.5,2.1.7,4.3.2,6.4-.6,2.4-1.7,4.1-.4,6.6,1.7,3.3,4.4,1.1,5.8-1.1,1.4-2.4,1.6-5,2.7-7.6,1.3-2.9,2.4-6,3.3-9.1.2-.6.3-1.3,0-1.9-.2-.5-.7-.8-1.1-1-3.2-2-6.8-3.2-10.4-4.5-1.4-.5-2.3-1.1-3.6-.3-1.6,1-3.6,4.7-3,6.5.4,1.1,1.3,1.9,2.3,2.5.9.6,1.9,1,2.8,1.6h.1Z"/>
        <path class="cls-9" d="M473.3,374.5c-5.7-3.2-14.7-6.8-16.1-7.3-2.3-.8-5-1-7.4-1.6.5-1.6,1.6-2.9,2.5-4.3,1.6-2.6,1.5-5,2-7.9.4-2.3,1.9-4.1,3.2-6.1,3-4.4,4.4-9.6,4.5-14.9.1-5.4-1.2-10.9-3.8-15.7-4.4-8.1-15.3-18.8-25.3-12.5-8.6,5.5-.5,18.1-.8,25.6-.1,4.3-2.6,8.2-3.4,12.5-.9,4.4,0,8.8-.4,13.2-.2,2.2-.9,4.2-1.5,6.3-1.6,3.4-2.3,8.1-2.4,10.7,0,1,0,2.1.3,3.1.6,1.9,2,3.4,3.6,4.6,3.8,3.1,10.5,4.5,15.1,6.4,8.4,3.3,17.4,5.7,26,8.5,3.8-4.9,6.8-10.5,8.7-16.4.3-1-1.8-2.7-4.8-4.4v.2Z"/>
        <path class="cls-9" d="M397.3,275.8c-2.4.6-4.9,2.5-6.7,3.8-2.9,2.1-5.2,4.8-7.8,7.2l-.4.4-.5.5c.2.4.3.7.5,1.1,3.4,5.4,7.2,10.6,10.8,15.8,4.8-5.4,7.9-12.4,8.6-19.7,0-1,0-2.4-.2-3.8-.1-.3-.3-.7-.5-1-1-1.6-2.5-2.9-3.8-4.3Z"/>
        <path class="cls-9" d="M425.9,324.6c2.6-1.6,5.2-3.3,7.8-4.8,6.1-3.7,11.8-7.9,17.8-11.7-6.1-9.2-13.2-17.7-19.1-27-1.4-2.2-2.9-4.5-4.6-6.5-2.3-2.8-5.2-5.1-8.6-6.3-3.4-1.2-7.8-.4-11.3.2-4,.6-7.9,2.2-10.7,5.1-1,1-1.8,2.2-2.7,3.3-4.1,5.7-5.4,10.7-1.8,17,1.9,3.4,4.3,6.5,6.8,9.6,1.5,1.9,15.8,18.4,18.7,25,2.5-1.3,5-2.6,7.6-3.9h.1Z"/>
        <path class="cls-9" d="M451.4,308.1c-1.4.9-2.8,1.6-4.3,2.4-8,3.9-16,7.7-24.1,11.3"/>
        <path class="cls-12" d="M422.7,282.4c6.2,0,11.7,6.6,11.4,12.5-.1,2.9-1.1,5.7-1.5,8.5-.8,5.1-.8,10-2.8,14.8-1.8,4.3-5,8.1-9.1,10.4-2.3,1.3-4.9,2.2-7.1,3.8-1.3.9-2.4,2-3.8,2.9-3.1,1.8-7.2,2.6-10.6,3.8-1.7.6-3.3,1.1-4.8,2.1s-2.8,2.4-4.3,3.3c-2.2,1.2-4.9,1.8-7.4,1.7-1.1,0-2.3-.2-3.3-.8-.9-.6-2.2-1.2-2.4-2.4-.2-1.1.7-2.3,1.6-2.8,1.5-.8,3.4-.3,5-.9,1.8-.6,2-2.1,1.8-3.7.2-.1.5-.2.7,0,2.2.8,4.6-1,6.2-2.3,1.5-1.1,2.9-2.4,4.2-3.8,2.6-2.7,4.9-5.6,7.8-8,1.7-1.4,4-2.1,5-4.1,1.4-2.6.7-5.9,2.2-8.5.6-1.1,1.5-2,1.9-3.2s.2-2.6,0-3.9c-.3-3.2-.2-6.4.4-9.5.6-2.9,1.6-5.8,3.7-7.8,1.5-1.4,3.3-2.1,5.2-2.1h0Z"/>
        <path class="cls-9" d="M412.5,299c1.2.4,2.6,0,4,0,6.3-.2,12.5-1.4,18.5-3.4.7-.3-2.2-11.4-2.5-12.4-1.5-4.4-3.9-6.8-6.7-10.2-2.7-3.3-7-5.8-11.2-4.7-3.9,1-6.5,5-7.1,9s.3,8,1.3,12c.6,2.5.8,6.4,2.1,8.6.4.7.9,1.1,1.6,1.3v-.2Z"/>
        <g>
          <path class="cls-9" d="M385.2,270.9c.2.3.2.2.3,0-.3-2.2-2.4-5-1.2-6.1,0,0-.2-1.4-.5-1.2-.4.3-1.2,1-1.2,1.5-.1,1.4,1.7,4.5,2.6,5.9h0Z"/>
          <path class="cls-12" d="M402.6,274.3c-1-2-2.4-3.8-3.5-5.6-1.6-2.6-2.7-7.8-6.2-8.5-1.4-.3-3.3.7-4.6,1.2-1.2.6-4.1.8-4.7,2-.4.9.1,3.5,1.1,5.8h0c-.6.3-.8,1.2-.4,2s1.2,1.2,1.8.9c0,0,.2,0,.2-.1.3.4,1.2,1.6,1.5,2,1.6,1.7,3.3,2.5,5.2,2.2.2,0,1.7,3,1.8,3.3.5.9,1,1.8,2.1,2.1,1.1.3,2.3.4,3.4.2,1.1-.2,2.2-.8,2.8-1.8.6-.9.7-2,.5-3-.2-.9-.5-1.8-.9-2.7h0Z"/>
          <path class="cls-9" d="M379.1,260h0c.7-1.2,1.7-2.1,3-2.7.6-.2,1.2-.4,1.8-.3.6.1,1.2.7,1.2,1.3,3.2-2.9,7.5-2.2,9.9,1.4.5.8,4,6.1,1.9,6.6-.2,0-.4,0-.6-.1-1-.5-1.7-1.5-2.4-2.3-.9-1.1-2.3-2.5-3.8-2-2.1.6-3.5,2.2-5.4,3.1-1.5.7-3.6.2-4.9-.7-1.6-1.1-1.7-2.7-.8-4.4h0Z"/>
        </g>
        <path class="cls-12" d="M396.5,264.1c-.4-.3-1-.3-1.5,0-.5,0-.8.9-.8,1.4s.5,1.5,1.2,1.8c1.9.7,2.4-2.2,1.1-3.1h0Z"/>
        <path class="cls-9" d="M391.6,272c-.4.2-.8.4-1,.7-.1.2,0,.5.3.4.3,0,.6-.2,1-.4.5-.2.3-1-.2-.8h0Z"/>
        <path class="cls-9" d="M394.1,275c-.4.2-.7.6-1.1.9-.3.2-.1.7.2.5.6-.2,1.1-.5,1.4-1.1.1-.3-.2-.5-.5-.4h0Z"/>
        <path class="cls-9" d="M396.5,265.9c0-.1-.2-.2-.3-.4-.3-.3-.9.1-.6.5,0,.1.2.2.3.4,0,.1.3.1.4.1s.2,0,.2-.2v-.4Z"/>
        <path class="cls-9" d="M385.6,270.7c0-.5-.7-.6-.7,0s0,.7.4.9c.2,0,.3,0,.3-.3v-.5h0Z"/>
        <path class="cls-9" d="M424,321.6c-.4.6-1.1.9-1.4,1.6-.2.4.1.8.5.7.8-.1,1.4-1,1.9-1.7.4-.6-.6-1.2-1-.6Z"/>
        <path class="cls-9" d="M374.2,316.2c-.4.3-.7.6-1.3.7-.5,0-.5.8,0,.8.8,0,1.6-.3,1.9-1.1.1-.4-.4-.6-.6-.4Z"/>
        <path class="cls-14" d="M431.7,327.7c-.1-.2-.4-.2-.5,0-.2,1.2,0,1.9.3,3,.4,2.2,0,4.1-.9,6.1-1,2.4-2.3,4.7-2.1,7.3,0,.4.6.5.7,0,1.2-5.5,5.9-10.9,2.5-16.5h0Z"/>
        <path class="cls-14" d="M413.7,284.4c0-.2-.3-.4-.4-.2-2,4.4-1.2,10.3,0,14.8,0,.2.3.1.3,0-.4-5.2-1.1-9.4,0-14.6h.1Z"/>
        <path class="cls-14" d="M397.1,299.6c-1.3-1.8-2.3-3.6-3-5.7-.1-.3-.5-.2-.4.1.5,2.2,1.6,4.2,3.1,5.8.2.2.5,0,.4-.3h-.1Z"/>
        <path class="cls-14" d="M432.7,287.5c-.1-.2-.5,0-.4.2.9,2.5,1.7,5.1,2.1,7.8,0,.2.4.1.3,0-.2-2.7-.8-5.4-2-7.9h0Z"/>
      </g>
      <path class="cls-12" d="M342.2,329.5c-.3.9-.6,1.8-1,2.7-.1.3-.2.7-.5.8-.4.2-1-.2-1.1-.6-.2-.5,0-1,0-1.5.2-1,.2-2.1.5-3.1s.8-2,1.7-2.6c1.2-.8,2.7-.5,2.4.8-.2,1-1.6,2.4-2,3.5h0Z"/>
      <line class="cls-6" x1="22.3" y1="382.2" x2="333.6" y2="382.2"/>
      <line class="cls-5" x1="150.6" y1="387.2" x2="260.8" y2="387.2"/>
      <line class="cls-6" x1="326.9" y1="405.3" x2="489" y2="405.3"/>
      <line class="cls-6" x1="259.2" y1="405.3" x2="312.2" y2="405.3"/>
    </g>
  </g>
</svg>