<?xml version="1.0" encoding="UTF-8"?>
<svg xmlns="http://www.w3.org/2000/svg" xmlns:xlink="http://www.w3.org/1999/xlink" viewBox="0 0 1080 1080">
  <defs>
    <style>
      .cls-1 {
        stroke: #000;
        stroke-miterlimit: 10;
      }

      .cls-1, .cls-2 {
        fill: #000;
      }

      .cls-3 {
        fill: #3d98ce;
      }

      .cls-3, .cls-2, .cls-4, .cls-5, .cls-6, .cls-7, .cls-8, .cls-9, .cls-10, .cls-11 {
        stroke-width: 0px;
      }

      .cls-4 {
        fill: #0099d2;
      }

      .cls-12 {
        isolation: isolate;
      }

      .cls-5, .cls-7 {
        fill: #636363;
      }

      .cls-6 {
        fill: #1d1e1c;
      }

      .cls-7 {
        mix-blend-mode: screen;
        opacity: .4;
      }

      .cls-8 {
        fill: url(#radial-gradient-2);
      }

      .cls-9 {
        fill: url(#radial-gradient);
      }

      .cls-10 {
        fill: #fff;
      }

      .cls-11 {
        fill: #0c2f4e;
      }
    </style>
    <radialGradient id="radial-gradient" cx="1291.27" cy="1323.2" fx="1291.27" fy="1323.2" r="69.71" gradientTransform="translate(-1545.43 -4830.84) rotate(20.22) scale(3.04 3.33) skewX(4.39)" gradientUnits="userSpaceOnUse">
      <stop offset="0" stop-color="#a1a1a1"/>
      <stop offset=".07" stop-color="#858685"/>
      <stop offset=".18" stop-color="#656665"/>
      <stop offset=".3" stop-color="#4b4b4a"/>
      <stop offset=".42" stop-color="#363735"/>
      <stop offset=".56" stop-color="#282927"/>
      <stop offset=".73" stop-color="#1f201e"/>
      <stop offset="1" stop-color="#1d1e1c"/>
    </radialGradient>
    <radialGradient id="radial-gradient-2" cx="1291.27" cy="1323.2" fx="1291.27" fy="1323.2" r="69.71" xlink:href="#radial-gradient"/>
  </defs>
  <g class="cls-12">
    <g id="Calque_1" data-name="Calque 1">
      <g>
        <path class="cls-2" d="M1002.54,632.76c-9.73,5.5-21.71,10.4-36.1,14.17-52.24,13.69-120.16,4.61-158.32-14.71v29.2c27.96,13.27,65.53,21.66,106.96,21.41,33.75-.2,64.35-6.98,88.59-17.59-.53-10.82-.93-21.65-1.12-32.48Z"/>
        <path class="cls-2" d="M1053.82,587.27c-7.85-13.86-26.7-22.26-49.32-26.7.85,2.97,1.61,5.98,2.24,9.04,32.06,9.86,33.86,34.69,8.09,55.05-.3.22-.53.49-.89.65-1.59,1.22-3.32,2.43-5.11,3.61.13,11.15.54,22.29,1.07,33.42,39.05-19.06,59.01-48.43,43.91-75.08Z"/>
        <path class="cls-6" d="M1006.74,569.61c-.05-.22-.1-.45-.14-.67.26,1.23.51,2.46.74,3.7,16.91,5.41,25.17,15.09,25.16,26.02,1.54-12.23-6.87-23.24-25.76-29.05Z"/>
        <path class="cls-9" d="M1003.66,665.24c-24.24,10.61-54.84,17.39-88.59,17.6-41.43.25-79-8.14-106.96-21.42v2.87c27.94,13.23,65.44,21.58,106.78,21.33,33.91-.2,64.6-7.07,88.89-17.77-.04-.87-.08-1.74-.12-2.61Z"/>
        <path class="cls-8" d="M1009.91,662.28c.04.88.08,1.76.12,2.64,29.57-14.52,48.17-34.93,48.65-55.6-2,19.78-20.37,39.07-48.77,52.95Z"/>
        <path class="cls-3" d="M849.07,658.95l-1.47,3.2c6.13,1.6,12.49,3.02,19.06,4.22l1.13-3.52c-6.45-1.11-12.71-2.42-18.73-3.91Z"/>
        <path class="cls-3" d="M818.07,648.93l-2.14,2.4c5.02,2.19,10.33,4.24,15.92,6.12l1.71-2.88c-5.43-1.74-10.6-3.63-15.49-5.64Z"/>
        <path class="cls-3" d="M886.88,665.5l-.43,3.78c7.42.82,15.02,1.38,22.78,1.64l-.22-3.89c-7.53-.25-14.91-.77-22.12-1.52Z"/>
        <path class="cls-3" d="M1019.24,567.33l-1.59,1.57c4,1.51,7.66,3.27,10.88,5.27l2.25-1.48c-3.41-2.06-7.28-3.84-11.53-5.36Z"/>
        <path class="cls-3" d="M1042.28,583.49c-.54-.87-1.15-1.71-1.79-2.52l-2.95.83c.7.83,1.36,1.69,1.94,2.58,1.63,2.49,2.79,5.05,3.54,7.66h3.04c-.82-2.89-2.06-5.75-3.78-8.55Z"/>
        <path class="cls-3" d="M1032.22,625.18c-2.68,2.98-5.79,5.9-9.28,8.72l3.41,2.55c3.58-2.99,6.75-6.09,9.47-9.27l-3.6-2.01Z"/>
        <path class="cls-3" d="M1046.89,604.77l-3.3-.77c-.69,3.94-2.21,7.91-4.48,11.84l3.62,1.35c2.17-4.09,3.57-8.25,4.17-12.42Z"/>
        <path class="cls-3" d="M966.82,660.35l1.52,3.73c6.15-1.58,12.04-3.4,17.63-5.44l-2.2-3.54c-5.38,1.95-11.04,3.71-16.95,5.24Z"/>
        <path class="cls-3" d="M927.21,666.64l.61,3.85c6.91-.46,13.65-1.2,20.18-2.22l-1.07-3.81c-6.38,1-12.96,1.74-19.72,2.18Z"/>
        <path class="cls-3" d="M1005.3,563.49c.16.61.32,1.21.47,1.82.77.18,1.52.37,2.28.57l1.16-1.51c-1.28-.31-2.58-.6-3.9-.88Z"/>
        <path class="cls-5" d="M876.46,655.19c-1.13-.25-2.43.37-1.71,1.84.56,1.15,3.14,2.08,3.34.07.11-1.08-.72-1.72-1.63-1.91Z"/>
        <path class="cls-5" d="M917.93,657.65c-1.13-.25-2.43.37-1.71,1.84.56,1.16,3.14,2.08,3.34.07.11-1.08-.72-1.72-1.63-1.92Z"/>
        <path class="cls-5" d="M940.37,676.24c-1.13-.25-2.43.37-1.71,1.84.56,1.16,3.14,2.08,3.34.07.11-1.08-.72-1.72-1.63-1.91Z"/>
        <path class="cls-5" d="M1019.91,627.1c-1.14-.25-2.43.37-1.71,1.84.56,1.16,3.14,2.08,3.34.07.11-1.08-.72-1.72-1.63-1.91Z"/>
        <path class="cls-5" d="M1044.85,595.3c-.87-.19-1.87.28-1.32,1.42.43.89,2.42,1.6,2.57.06.08-.83-.56-1.32-1.25-1.47Z"/>
        <path class="cls-5" d="M1051.36,596.2c-1.13-.25-2.43.37-1.71,1.84.56,1.16,3.14,2.08,3.34.07.11-1.08-.72-1.72-1.63-1.92Z"/>
        <path class="cls-5" d="M1051.05,616.86c-1.14-.25-2.43.37-1.71,1.84.56,1.16,3.14,2.08,3.34.07.11-1.08-.72-1.72-1.63-1.91Z"/>
        <path class="cls-5" d="M1043.74,622.79c-.49-.11-1.05.16-.74.8.24.5,1.36.9,1.44.03.05-.47-.31-.74-.7-.83Z"/>
        <path class="cls-5" d="M1035.75,612.08c-.49-.11-1.05.16-.74.8.24.5,1.36.9,1.44.03.05-.46-.31-.74-.7-.83Z"/>
        <path class="cls-5" d="M1035.45,576.85c-.49-.11-1.05.16-.74.8.24.5,1.36.9,1.44.03.05-.47-.31-.74-.7-.83Z"/>
        <path class="cls-5" d="M1019.96,572.09c-.49-.11-1.05.16-.74.8.24.5,1.36.9,1.44.03.05-.47-.31-.74-.7-.83Z"/>
        <path class="cls-5" d="M901.54,674.66c-1.13-.25-2.43.37-1.71,1.84.56,1.16,3.14,2.08,3.34.07.11-1.08-.72-1.72-1.63-1.91Z"/>
        <path class="cls-5" d="M877.57,661.66c-.64-.14-1.36.21-.96,1.03.31.65,1.76,1.16,1.87.04.06-.6-.41-.96-.91-1.07Z"/>
        <path class="cls-5" d="M823.77,644.43c-.64-.14-1.36.21-.96,1.03.31.65,1.76,1.17,1.87.04.06-.6-.41-.96-.91-1.07Z"/>
        <path class="cls-5" d="M762.41,605.16c-.64-.14-1.36.21-.96,1.03.31.65,1.76,1.16,1.87.04.06-.6-.41-.96-.91-1.07Z"/>
        <path class="cls-5" d="M841.58,666.44c-.64-.14-1.36.21-.96,1.03.31.65,1.76,1.16,1.87.04.06-.6-.41-.96-.91-1.07Z"/>
        <g>
          <path class="cls-5" d="M885.52,662.3c.84.06,1.73-.53,1.08-1.52-.51-.78-2.45-1.17-2.43.31.01.79.67,1.17,1.34,1.21Z"/>
          <path class="cls-5" d="M854.45,655.92c.47.03.97-.3.61-.85-.28-.43-1.37-.65-1.36.17,0,.44.38.65.75.68Z"/>
        </g>
        <path class="cls-5" d="M956.3,660.76c-1.13-.25-2.43.37-1.71,1.84.56,1.16,3.14,2.08,3.34.07.11-1.08-.72-1.72-1.63-1.91Z"/>
        <path class="cls-5" d="M957.4,667.23c-.64-.14-1.36.21-.96,1.03.31.65,1.76,1.16,1.87.04.06-.6-.41-.96-.91-1.07Z"/>
        <g>
          <path class="cls-5" d="M965.36,667.87c.84.06,1.73-.53,1.08-1.52-.51-.78-2.45-1.17-2.43.31.01.79.67,1.17,1.34,1.21Z"/>
          <path class="cls-5" d="M934.28,661.49c.47.03.97-.3.61-.85-.28-.43-1.37-.65-1.36.17,0,.44.38.65.75.68Z"/>
          <path class="cls-5" d="M916.7,663.07c.47.03.97-.3.61-.85-.28-.43-1.37-.65-1.36.17,0,.44.38.65.75.68Z"/>
          <path class="cls-5" d="M992.23,643.72c-1.14-.25-2.43.37-1.71,1.84.56,1.16,3.14,2.08,3.34.07.11-1.08-.72-1.72-1.63-1.92Z"/>
          <path class="cls-5" d="M993.48,655.75c-.73-.16-1.55.24-1.1,1.18.36.74,2.01,1.33,2.14.05.07-.69-.46-1.1-1.04-1.22Z"/>
          <path class="cls-5" d="M1024.56,643.17c-.73-.16-1.55.24-1.1,1.18.36.74,2.01,1.33,2.14.05.07-.69-.46-1.1-1.04-1.22Z"/>
          <path class="cls-5" d="M981.69,648.52c.47.03.97-.3.61-.85-.28-.43-1.37-.65-1.36.17,0,.44.38.65.75.68Z"/>
        </g>
        <path class="cls-7" d="M1002.63,637.34c-28.2,15.64-92.98,38.76-190.86-.39,0,0-1.45-.74-3.66-1.91v24.25c22.22,11.58,52.57,19.01,99.08,20.17,48.19,1.21,79.38-10.24,96.24-19.19-.36-7.64-.61-15.28-.8-22.92Z"/>
        <path class="cls-7" d="M1018.76,626.57s-3.32,2.95-9.83,7.05c.15,7.7.37,15.39.72,23.08,6.19-3.82,9.22-6.6,9.22-6.6,0,0,16.77-18.5-.11-23.54Z"/>
        <g>
          <path class="cls-2" d="M815.43,411.99c0-23.09,9.09-42.85,27.27-59.31,18.18-16.45,40.09-24.68,65.74-24.68s47.57,8.23,65.74,24.68c18.18,16.46,27.27,36.22,27.27,59.31v149.27c-2.35-2.12-3.52-4.64-3.52-7.56v-141.71c0-22.29-8.72-41.4-26.17-57.32-17.44-15.92-38.48-23.88-63.1-23.88s-45.73,7.96-63.32,23.88c-17.59,15.92-26.39,35.03-26.39,57.32v37.24h-3.52v-37.24Z"/>
          <path class="cls-2" d="M823.8,411.99c0-20.96,8.28-38.94,24.84-53.94,16.56-14.99,36.5-22.49,59.8-22.49s43.24,7.5,59.8,22.49c16.56,15,24.84,32.98,24.84,53.94v141.71c0,4.52,1.77,8.36,5.28,11.54.88.8,1.91,1.46,3.08,1.99v3.58c-2.05-1.06-3.96-2.25-5.72-3.58-4.1-3.71-6.15-8.22-6.15-13.53v-141.71c0-20.17-7.91-37.48-23.74-51.95-15.83-14.46-34.96-21.7-57.39-21.7s-41.56,7.23-57.39,21.7c-15.83,14.47-23.74,31.78-23.74,51.95v37.24h-3.51v-37.24Z"/>
          <path class="cls-2" d="M832.15,411.99c0-19.11,7.48-35.36,22.43-48.76,14.95-13.4,32.91-20.1,53.87-20.1s38.92,6.7,53.87,20.1c14.95,13.4,22.43,29.66,22.43,48.76v141.71c0,6.64,2.49,12.21,7.47,16.72,2.64,2.39,5.72,4.12,9.24,5.18v3.19c-4.4-1.33-8.21-3.45-11.44-6.37-5.86-5.04-8.79-11.28-8.79-18.71v-141.71c0-18.04-7.1-33.57-21.33-46.57-14.22-13-31.36-19.5-51.45-19.5s-37.23,6.51-51.45,19.5c-14.22,13.01-21.33,28.53-21.33,46.57v37.24h-3.52v-37.24Z"/>
          <path class="cls-2" d="M840.5,411.99c0-16.98,6.67-31.45,20.01-43.39,13.34-11.94,29.31-17.91,47.93-17.91s34.59,5.97,47.93,17.91c13.35,11.94,20.01,26.41,20.01,43.39v141.71c0,8.5,3.37,15.79,10.11,21.89,4.12,3.98,9.1,6.77,14.96,8.36v2.79c-6.74-1.33-12.46-4.24-17.15-8.76-7.62-6.9-11.43-14.99-11.43-24.28v-141.71c0-16.18-6.3-29.99-18.91-41.4-12.6-11.41-27.78-17.11-45.51-17.11s-32.91,5.71-45.51,17.11c-12.6,11.41-18.91,25.22-18.91,41.4v37.24h-3.52v-37.24Z"/>
          <path class="cls-2" d="M848.86,411.99c0-14.86,5.87-27.53,17.59-38.01,11.73-10.48,25.72-15.72,41.99-15.72s30.28,5.24,41.99,15.72c11.73,10.48,17.59,23.15,17.59,38.01v141.71c0,10.62,4.11,19.77,12.31,27.46,6.16,5.31,13.19,8.76,21.11,10.35v3.19c-9.09-1.59-16.86-5.44-23.31-11.54-9.08-8.22-13.63-18.04-13.63-29.46v-141.71c0-14.06-5.5-26.07-16.49-36.02-11-9.95-24.19-14.93-39.58-14.93s-28.58,4.98-39.58,14.93c-10.99,9.95-16.49,21.96-16.49,36.02v37.24h-3.52v-37.24Z"/>
          <path class="cls-2" d="M857.21,411.99c0-12.74,5.06-23.62,15.17-32.64,10.12-9.02,22.21-13.53,36.28-13.53s26.09,4.51,36.05,13.53c9.97,9.02,14.96,19.9,14.96,32.64v141.71c0,12.74,4.99,23.62,14.95,32.64,7.63,6.91,16.57,11.28,26.83,13.14v2.79c-11.14-1.59-20.82-6.1-29.02-13.54-10.84-9.82-16.27-21.5-16.27-35.03v-141.71c0-11.94-4.69-22.15-14.08-30.65-9.38-8.49-20.59-12.74-33.64-12.74s-24.25,4.25-33.64,12.74c-9.38,8.5-14.08,18.71-14.08,30.65v37.24h-3.52v-37.24Z"/>
          <path class="cls-2" d="M866.01,411.99c0-10.61,4.18-19.7,12.53-27.27,8.36-7.56,18.41-11.35,30.13-11.35s21.76,3.78,30.12,11.35c8.36,7.56,12.53,16.66,12.53,27.27v141.71c0,14.86,5.87,27.6,17.59,38.21,9.09,8.23,19.93,13.27,32.54,15.13v3.19c-13.49-1.85-25.21-7.3-35.18-16.32-12.31-11.15-18.47-24.54-18.47-40.2v-141.71c0-9.82-3.81-18.24-11.43-25.28-7.62-7.03-16.86-10.55-27.7-10.55s-20.15,3.52-27.93,10.55c-7.76,7.03-11.65,15.46-11.65,25.28v37.24h-3.08v-37.24Z"/>
          <path class="cls-2" d="M874.36,411.99c0-8.49,3.3-15.79,9.89-21.89,6.6-6.1,14.67-9.16,24.19-9.16s17.67,3.05,24.41,9.16c6.75,6.11,10.12,13.4,10.12,21.89v141.71c0,16.99,6.6,31.45,19.79,43.39,10.84,9.82,23.74,15.66,38.7,17.51v3.19c-15.83-1.85-29.46-7.96-40.9-18.31-14.07-12.74-21.11-27.99-21.11-45.77v-141.71c0-7.69-3.01-14.33-9.02-19.9-6-5.57-13.26-8.36-21.76-8.36s-15.84,2.79-21.99,8.36c-6.16,5.57-9.23,12.21-9.23,19.9v37.24h-3.08v-37.24Z"/>
          <path class="cls-2" d="M892.39,397.46c-4.4,4.12-6.6,8.96-6.6,14.53v37.24h-3.08v-37.24c0-6.37,2.49-11.88,7.47-16.52,4.99-4.64,11.07-6.96,18.25-6.96s13.34,2.32,18.47,6.96c5.14,4.65,7.7,10.15,7.7,16.52v141.71c0,19.11,7.47,35.43,22.43,48.96,12.32,11.15,27.12,17.65,44.42,19.5v3.19c-18.18-1.85-33.87-8.76-47.06-20.7-15.53-14.06-23.3-31.05-23.3-50.95v-141.71c0-5.57-2.2-10.41-6.6-14.53-4.4-4.11-9.74-6.17-16.05-6.17s-11.65,2.06-16.05,6.17Z"/>
          <path class="cls-2" d="M885.8,451.4c-1.17,0-2.2.14-3.08.4v-2.56h3.08v2.16Z"/>
          <path class="cls-2" d="M836.32,479.66c18.18-16.45,40.16-24.68,65.96-24.68,5.57,0,10.99.4,16.27,1.19v3.19c-5.28-.8-10.7-1.2-16.27-1.2-24.63,0-45.73,7.9-63.32,23.69-17.59,15.79-26.39,34.83-26.39,57.12v86.38h-3.52v-86.38c0-23.09,9.09-42.85,27.27-59.31Z"/>
          <path class="cls-2" d="M842.26,485.03c16.56-14.99,36.57-22.49,60.03-22.49,5.57,0,10.99.54,16.27,1.59v2.79c-5.28-.8-10.7-1.2-16.27-1.2-22.58,0-41.78,7.16-57.61,21.5-15.83,14.33-23.74,31.58-23.74,51.75v86.38h-3.51v-86.38c0-20.96,8.28-38.94,24.84-53.94Z"/>
          <path class="cls-2" d="M848.19,490.41c14.95-13.53,32.98-20.3,54.09-20.3,5.57,0,10.99.53,16.27,1.59v3.19c-5.28-1.06-10.7-1.59-16.27-1.59-20.23,0-37.45,6.44-51.67,19.3-14.22,12.88-21.33,28.33-21.33,46.37v86.38h-3.52v-86.38c0-18.84,7.48-35.03,22.43-48.56Z"/>
          <path class="cls-2" d="M854.13,495.78c13.34-12.07,29.39-18.11,48.15-18.11,5.57,0,10.99.66,16.27,1.99v3.19c-5.28-1.33-10.7-1.99-16.27-1.99-17.88,0-33.13,5.71-45.73,17.12-12.6,11.41-18.91,25.08-18.91,41v86.38h-3.52v-86.38c0-16.72,6.67-31.11,20.01-43.19Z"/>
          <path class="cls-2" d="M860.07,501.15c11.73-10.61,25.8-15.92,42.22-15.92,5.57,0,10.99.8,16.27,2.39v2.79c-5.28-1.32-10.7-1.99-16.27-1.99-15.54,0-28.8,4.97-39.8,14.93-10.99,9.95-16.49,21.83-16.49,35.62v86.38h-3.52v-86.38c0-14.59,5.87-27.2,17.59-37.81Z"/>
          <path class="cls-2" d="M866,506.33c10.12-9.02,22.21-13.54,36.28-13.54,5.57,0,10.99.8,16.27,2.39v3.58c-5.28-1.85-10.7-2.79-16.27-2.79-13.19,0-24.47,4.25-33.86,12.74-9.38,8.5-14.08,18.58-14.08,30.25v86.38h-3.52v-86.38c0-12.74,5.06-23.61,15.17-32.64Z"/>
          <path class="cls-2" d="M872.16,511.7c8.36-7.56,18.41-11.34,30.13-11.34,5.57,0,10.99,1.06,16.27,3.18v3.19c-5.28-2.12-10.7-3.19-16.27-3.19-10.84,0-20.15,3.45-27.93,10.35-7.76,6.91-11.65,15.26-11.65,25.08v86.38h-3.08v-86.38c0-10.61,4.18-19.7,12.53-27.27Z"/>
          <path class="cls-2" d="M902.28,507.92c5.86,0,11.29,1.33,16.27,3.98v3.58c-4.98-2.92-10.41-4.38-16.27-4.38-8.5,0-15.84,2.72-21.99,8.16-6.16,5.44-9.23,12.01-9.23,19.7v86.38h-3.08v-86.38c0-8.49,3.3-15.79,9.89-21.89,6.6-6.1,14.73-9.16,24.41-9.16Z"/>
          <path class="cls-2" d="M902.28,515.48c6.15,0,11.58,1.86,16.27,5.57v3.98l-.44-.4c-4.4-3.98-9.74-5.97-16.05-5.97s-11.65,1.99-16.05,5.97c-4.4,3.98-6.6,8.76-6.6,14.33v86.38h-3.08v-86.38c.29-6.63,2.79-12.07,7.47-16.32,4.99-4.78,11.15-7.16,18.47-7.16Z"/>
        </g>
        <g>
          <path class="cls-2" d="M315.63,345.69h48.52v66.05l-161.06,152.66h131.52l29.55,66.05H107.49v-66.05l164.83-152.66h-6.45"/>
          <path class="cls-2" d="M400.94,384.22l-19.41-38.53h85.46v284.76h-66.05v-246.23Z"/>
          <path class="cls-2" d="M705.69,384.22l-19.41-38.53h85.46v284.76h-83.72l-117.9-168.6v168.6h-66.05v-246.23l-19.41-38.53h85.75l135.28,193.51v-154.98Z"/>
          <path class="cls-4" d="M714.31,398.19v-38.28l44.67-1.56v259.44l-63.81-2.65-134-185.04v185.04h-44.67l-1.4-221.69,1.4-33.55h44.67l153.14,216.95v-178.66Z"/>
        </g>
        <line class="cls-1" x1="441.21" y1="661.08" x2="771.74" y2="661.08"/>
        <line class="cls-1" x1="107.49" y1="661.08" x2="251.2" y2="661.08"/>
        <line class="cls-1" x1="441.21" y1="699.36" x2="1007.83" y2="699.36"/>
        <line class="cls-1" x1="113.87" y1="699.36" x2="251.2" y2="699.36"/>
        <g>
          <polygon class="cls-2" points="14.44 405.11 258.84 405.11 258.84 404.55 33.59 404.55 14.44 405.11"/>
          <g>
            <g>
              <rect class="cls-10" x="178.4" y="390.26" width="33.44" height="8.62" rx=".68" ry=".68" transform="translate(390.23 789.15) rotate(-180)"/>
              <rect class="cls-2" x="105.33" y="388.61" width="156.59" height="5.05" transform="translate(367.25 782.27) rotate(180)"/>
              <rect class="cls-10" x="97.88" y="364.33" width="4.46" height="17.74" transform="translate(200.23 746.4) rotate(180)"/>
              <rect class="cls-11" x="97.88" y="360.1" width="7.45" height="2.5" transform="translate(203.22 722.71) rotate(180)"/>
              <path class="cls-2" d="M107.07,388.61h153.42c2.61,0,4.73-2.12,4.73-4.73l31.9-42.49c0-2.61-2.12-4.73-4.73-4.73H107.07c-2.61,0-4.73,2.12-4.73,4.73v42.49c0,2.61,2.12,4.73,4.73,4.73Z"/>
              <polygon class="cls-4" points="106.56 384.72 261 384.72 292.91 340.55 106.56 340.55 106.56 384.72"/>
              <path class="cls-2" d="M127.96,396.16h55.05v-.55h-55.05c-1.07,0-1.95-.87-1.95-1.95h-.55c0,1.38,1.12,2.5,2.5,2.5Z"/>
              <g>
                <g>
                  <polygon class="cls-2" points="260.73 384.72 261.28 384.72 293.18 340.55 292.63 340.55 260.73 384.72"/>
                  <rect class="cls-2" x="251.2" y="340.55" width=".55" height="44.17"/>
                  <rect class="cls-2" x="240.05" y="340.55" width=".55" height="44.17"/>
                  <rect class="cls-2" x="228.9" y="340.55" width=".55" height="44.17"/>
                  <rect class="cls-2" x="217.75" y="340.55" width=".55" height="44.17"/>
                  <rect class="cls-2" x="206.61" y="340.55" width=".55" height="44.17"/>
                  <rect class="cls-2" x="195.46" y="340.55" width=".55" height="44.17"/>
                  <rect class="cls-2" x="184.31" y="340.55" width=".55" height="44.17"/>
                  <rect class="cls-2" x="173.16" y="340.55" width=".55" height="44.17"/>
                  <rect class="cls-2" x="162.02" y="340.55" width=".55" height="44.17"/>
                  <rect class="cls-2" x="150.87" y="340.55" width=".55" height="44.17"/>
                  <rect class="cls-2" x="139.72" y="340.55" width=".55" height="44.17"/>
                  <rect class="cls-2" x="128.58" y="340.55" width=".55" height="44.17"/>
                  <rect class="cls-2" x="117.43" y="340.55" width=".55" height="44.17"/>
                  <rect class="cls-2" x="106.28" y="340.55" width=".55" height="44.17"/>
                </g>
                <rect class="cls-2" x="106.56" y="340.27" width="186.35" height=".55"/>
                <rect class="cls-2" x="106.56" y="384.44" width="154.45" height=".55"/>
              </g>
              <rect class="cls-11" x="142.68" y="393.66" width="13.67" height=".94" transform="translate(299.02 788.26) rotate(180)"/>
              <rect class="cls-2" x="222.09" y="334.38" width="30" height="2.28" transform="translate(474.19 671.04) rotate(180)"/>
              <rect class="cls-2" x="128.85" y="334.38" width="30" height="2.28" transform="translate(287.71 671.04) rotate(180)"/>
            </g>
            <g>
              <g>
                <path class="cls-10" d="M73.66,366.61v7.41c0,.43-.37.78-.82.78h-13.11c-.58,0-.98-.56-.76-1.08l1.85-6.23c.44-1,1.46-1.66,2.6-1.66h9.41c.45,0,.82.35.82.78Z"/>
                <rect class="cls-10" x="83.18" y="365.83" width="10.62" height="8.97" rx=".7" ry=".7"/>
                <g>
                  <polygon class="cls-10" points="93.32 365.2 89.2 375.67 86.14 375.67 90.26 365.2 93.32 365.2"/>
                  <polygon class="cls-10" points="87.79 365.2 88.61 365.2 84.49 375.67 83.67 375.67 87.79 365.2"/>
                </g>
                <g>
                  <polygon class="cls-10" points="65.61 365.53 66.6 365.53 68.66 365.53 69.65 365.53 65.53 376 64.54 376 62.48 376 61.49 376 65.61 365.53"/>
                  <polygon class="cls-10" points="63.4 365.53 63.97 365.53 64.22 365.53 64.79 365.53 60.67 376 60.1 376 59.85 376 59.28 376 63.4 365.53"/>
                  <polygon class="cls-10" points="70.41 365.53 70.98 365.53 71.05 365.53 66.93 376 66.86 376 66.29 376 70.41 365.53"/>
                </g>
                <path class="cls-2" d="M41.13,378.6c4.71-1.91,9.41-2.87,14.93-3.79l3.47-10.09h-4.19c2.92-3.57,8.64-5.92,18.59-6.43,4.27-4.74,12.83-7.97,22.95-8.1.55,0,1,.45,1,1v37.94c0,.29-.11.45-.43.45v1.37c.31,0,.43.18.43.43v7.19h-60.16v-14.92c0-2.22,1.35-4.22,3.4-5.05ZM83.18,373.52c0,.71.57,1.28,1.28,1.28h8.07c.71,0,1.28-.57,1.28-1.28v-6.41c0-.71-.57-1.28-1.28-1.28h-8.07c-.71,0-1.28.57-1.28,1.28v6.41ZM59.73,374.8h13.11c.45,0,.82-.35.82-.78v-7.41c0-.43-.37-.78-.82-.78h-9.41c-1.14,0-2.17.65-2.6,1.66l-1.85,6.23c-.22.51.17,1.08.76,1.08Z"/>
                <path class="cls-10" d="M56.61,393.7l.5-.22c-1.47-3.32-4.77-5.46-8.39-5.46s-6.92,2.14-8.39,5.46l.5.22c1.39-3.12,4.48-5.14,7.89-5.14s6.5,2.02,7.89,5.14Z"/>
                <rect class="cls-10" x="73.93" y="358.01" width="23.96" height=".55"/>
                <rect class="cls-10" x="59.53" y="364.44" width="38.35" height=".55"/>
                <rect class="cls-10" x="53.51" y="389.3" width="43.95" height=".55"/>
                <rect class="cls-2" x="77.78" y="364.72" width=".55" height="24.86"/>
                <rect class="cls-10" x="36.54" y="389.57" width="3.28" height="9.05" rx=".26" ry=".26" transform="translate(76.36 788.19) rotate(-180)"/>
                <ellipse class="cls-10" cx="39.3" cy="386.25" rx=".52" ry="1.56"/>
                <g>
                  <path class="cls-10" d="M42.09,380.25h.55v-6.85c0-.26.21-.48.48-.48h.66v-.55h-.66c-.57,0-1.03.46-1.03,1.03v6.85Z"/>
                  <path class="cls-10" d="M44.46,370.29v4.86c-.65,0-1.17-.5-1.17-1.11v-2.63c0-.61.52-1.11,1.17-1.11Z"/>
                  <path class="cls-10" d="M41.64,380.09c0,.4.32.72.72.72s.72-.32.72-.72-.32-.72-.72-.72-.72.32-.72.72Z"/>
                </g>
                <path class="cls-10" d="M58.01,366.62v6.58c-.65,0-1.17-.5-1.17-1.11v-4.35c0-.61.52-1.11,1.17-1.11Z"/>
                <rect class="cls-10" x="70.52" y="365.83" width="1.66" height="8.97"/>
                <rect class="cls-10" x="71.3" y="345.78" width=".55" height="15.58"/>
                <rect class="cls-10" x="55.06" y="390.67" width="42.39" height=".55"/>
                <rect class="cls-10" x="69.95" y="378.58" width="3.71" height="1.51" rx=".12" ry=".12" transform="translate(143.61 758.67) rotate(-180)"/>
                <path class="cls-10" d="M70.97,361.15c0,.33.27.61.61.61s.61-.27.61-.61-.27-.61-.61-.61-.61.27-.61.61Z"/>
                <g>
                  <rect class="cls-10" x="51.22" y="382.11" width="6.21" height=".55"/>
                  <rect class="cls-10" x="51.22" y="383.46" width="6.21" height=".55"/>
                  <rect class="cls-10" x="51.22" y="384.81" width="6.21" height=".55"/>
                </g>
                <rect class="cls-10" x="57.73" y="367.27" width="1.36" height=".55"/>
              </g>
              <g>
                <circle class="cls-2" cx="48.73" cy="397.2" r="7.63" transform="translate(-62.73 12.86) rotate(-9.18)"/>
                <g>
                  <circle class="cls-2" cx="48.73" cy="397.2" r="4.79" transform="translate(-89.63 21.7) rotate(-13.23)"/>
                  <path class="cls-2" d="M47.41,397.2c0,.73.59,1.32,1.32,1.32s1.32-.59,1.32-1.32-.59-1.32-1.32-1.32-1.32.59-1.32,1.32Z"/>
                  <g>
                    <g>
                      <path class="cls-2" d="M48.11,394.32c0,.34.28.61.61.61s.61-.28.61-.61-.28-.61-.61-.61-.61.28-.61.61Z"/>
                      <path class="cls-2" d="M48.11,400.08c0,.34.28.61.61.61s.61-.28.61-.61-.28-.61-.61-.61-.61.28-.61.61Z"/>
                    </g>
                    <g>
                      <path class="cls-2" d="M45.85,397.82c.34,0,.61-.28.61-.61s-.28-.61-.61-.61-.61.28-.61.61.28.61.61.61Z"/>
                      <path class="cls-2" d="M51.6,397.82c.34,0,.61-.28.61-.61s-.28-.61-.61-.61-.61.28-.61.61.28.61.61.61Z"/>
                    </g>
                    <g>
                      <path class="cls-2" d="M46.26,395.6c.24.24.63.24.87,0s.24-.63,0-.87-.63-.24-.87,0c-.24.24-.24.63,0,.87Z"/>
                      <path class="cls-2" d="M50.33,399.67c.24.24.63.24.87,0s.24-.63,0-.87-.63-.24-.87,0c-.24.24-.24.63,0,.87Z"/>
                    </g>
                    <g>
                      <path class="cls-2" d="M47.13,399.67c.24-.24.24-.63,0-.87s-.63-.24-.87,0c-.24.24-.24.63,0,.87.24.24.63.24.87,0Z"/>
                      <path class="cls-2" d="M51.19,395.6c.24-.24.24-.63,0-.87s-.63-.24-.87,0c-.24.24-.24.63,0,.87.24.24.63.24.87,0Z"/>
                    </g>
                  </g>
                </g>
                <path class="cls-2" d="M48.72,402.03c2.66,0,4.83-2.17,4.83-4.83s-2.17-4.83-4.83-4.83-4.83,2.17-4.83,4.83,2.17,4.83,4.83,4.83ZM48.72,392.92c2.36,0,4.28,1.92,4.28,4.28s-1.92,4.28-4.28,4.28-4.28-1.92-4.28-4.28,1.92-4.28,4.28-4.28Z"/>
              </g>
            </g>
            <g>
              <circle class="cls-2" cx="114.19" cy="397.2" r="7.63" transform="translate(-61.89 23.3) rotate(-9.18)"/>
              <g>
                <circle class="cls-2" cx="114.19" cy="397.2" r="4.79" transform="translate(-247.42 197.08) rotate(-45)"/>
                <path class="cls-2" d="M112.87,397.2c0,.73.59,1.32,1.32,1.32s1.32-.59,1.32-1.32-.59-1.32-1.32-1.32-1.32.59-1.32,1.32Z"/>
                <g>
                  <g>
                    <path class="cls-2" d="M113.57,394.32c0,.34.28.61.61.61s.61-.28.61-.61-.28-.61-.61-.61-.61.28-.61.61Z"/>
                    <path class="cls-2" d="M113.57,400.08c0,.34.28.61.61.61s.61-.28.61-.61-.28-.61-.61-.61-.61.28-.61.61Z"/>
                  </g>
                  <g>
                    <path class="cls-2" d="M111.31,397.82c.34,0,.61-.28.61-.61s-.28-.61-.61-.61-.61.28-.61.61.28.61.61.61Z"/>
                    <path class="cls-2" d="M117.06,397.82c.34,0,.61-.28.61-.61s-.28-.61-.61-.61-.61.28-.61.61.28.61.61.61Z"/>
                  </g>
                  <g>
                    <path class="cls-2" d="M111.72,395.6c.24.24.63.24.87,0,.24-.24.24-.63,0-.87-.24-.24-.63-.24-.87,0s-.24.63,0,.87Z"/>
                    <path class="cls-2" d="M115.79,399.67c.24.24.63.24.87,0,.24-.24.24-.63,0-.87-.24-.24-.63-.24-.87,0s-.24.63,0,.87Z"/>
                  </g>
                  <g>
                    <path class="cls-2" d="M112.59,399.67c.24-.24.24-.63,0-.87-.24-.24-.63-.24-.87,0s-.24.63,0,.87.63.24.87,0Z"/>
                    <path class="cls-2" d="M116.65,395.6c.24-.24.24-.63,0-.87-.24-.24-.63-.24-.87,0s-.24.63,0,.87.63.24.87,0Z"/>
                  </g>
                </g>
              </g>
              <path class="cls-2" d="M114.18,402.03c2.66,0,4.83-2.17,4.83-4.83s-2.17-4.83-4.83-4.83-4.83,2.17-4.83,4.83,2.17,4.83,4.83,4.83ZM114.18,392.92c2.36,0,4.28,1.92,4.28,4.28s-1.92,4.28-4.28,4.28-4.28-1.92-4.28-4.28,1.92-4.28,4.28-4.28Z"/>
            </g>
            <g>
              <g>
                <circle class="cls-2" cx="205.77" cy="397.2" r="7.63" transform="translate(-60.72 37.9) rotate(-9.18)"/>
                <g>
                  <circle class="cls-2" cx="205.77" cy="397.2" r="4.79" transform="translate(-220.6 261.84) rotate(-45)"/>
                  <path class="cls-2" d="M204.45,397.2c0,.73.59,1.32,1.32,1.32s1.32-.59,1.32-1.32-.59-1.32-1.32-1.32-1.32.59-1.32,1.32Z"/>
                  <g>
                    <g>
                      <circle class="cls-2" cx="205.77" cy="394.32" r=".61"/>
                      <circle class="cls-2" cx="205.77" cy="400.08" r=".61"/>
                    </g>
                    <g>
                      <path class="cls-2" d="M202.89,397.82c.34,0,.61-.28.61-.61s-.28-.61-.61-.61-.61.28-.61.61.28.61.61.61Z"/>
                      <path class="cls-2" d="M208.65,397.82c.34,0,.61-.28.61-.61s-.28-.61-.61-.61-.61.28-.61.61.28.61.61.61Z"/>
                    </g>
                    <g>
                      <path class="cls-2" d="M203.3,395.6c.24.24.63.24.87,0,.24-.24.24-.63,0-.87-.24-.24-.63-.24-.87,0-.24.24-.24.63,0,.87Z"/>
                      <path class="cls-2" d="M207.37,399.67c.24.24.63.24.87,0,.24-.24.24-.63,0-.87-.24-.24-.63-.24-.87,0s-.24.63,0,.87Z"/>
                    </g>
                    <g>
                      <path class="cls-2" d="M204.17,399.67c.24-.24.24-.63,0-.87-.24-.24-.63-.24-.87,0-.24.24-.24.63,0,.87.24.24.63.24.87,0Z"/>
                      <path class="cls-2" d="M208.24,395.6c.24-.24.24-.63,0-.87-.24-.24-.63-.24-.87,0s-.24.63,0,.87.63.24.87,0Z"/>
                    </g>
                  </g>
                </g>
                <path class="cls-2" d="M205.77,402.03c2.66,0,4.83-2.17,4.83-4.83s-2.17-4.83-4.83-4.83-4.83,2.17-4.83,4.83,2.17,4.83,4.83,4.83ZM205.77,392.92c2.36,0,4.28,1.92,4.28,4.28s-1.92,4.28-4.28,4.28-4.28-1.92-4.28-4.28,1.92-4.28,4.28-4.28Z"/>
              </g>
              <g>
                <circle class="cls-2" cx="221.79" cy="397.2" r="7.63" transform="translate(-60.51 40.46) rotate(-9.18)"/>
                <g>
                  <circle class="cls-2" cx="221.79" cy="397.2" r="4.79" transform="translate(-215.9 273.16) rotate(-45)"/>
                  <path class="cls-2" d="M220.47,397.2c0,.73.59,1.32,1.32,1.32s1.32-.59,1.32-1.32-.59-1.32-1.32-1.32-1.32.59-1.32,1.32Z"/>
                  <g>
                    <g>
                      <circle class="cls-2" cx="221.79" cy="394.32" r=".61"/>
                      <circle class="cls-2" cx="221.79" cy="400.08" r=".61"/>
                    </g>
                    <g>
                      <path class="cls-2" d="M218.91,397.82c.34,0,.61-.28.61-.61s-.28-.61-.61-.61-.61.28-.61.61.28.61.61.61Z"/>
                      <path class="cls-2" d="M224.66,397.82c.34,0,.61-.28.61-.61s-.28-.61-.61-.61-.61.28-.61.61.28.61.61.61Z"/>
                    </g>
                    <g>
                      <path class="cls-2" d="M219.32,395.6c.24.24.63.24.87,0,.24-.24.24-.63,0-.87-.24-.24-.63-.24-.87,0s-.24.63,0,.87Z"/>
                      <path class="cls-2" d="M223.39,399.67c.24.24.63.24.87,0,.24-.24.24-.63,0-.87-.24-.24-.63-.24-.87,0-.24.24-.24.63,0,.87Z"/>
                    </g>
                    <g>
                      <path class="cls-2" d="M220.19,399.67c.24-.24.24-.63,0-.87-.24-.24-.63-.24-.87,0s-.24.63,0,.87.63.24.87,0Z"/>
                      <path class="cls-2" d="M224.25,395.6c.24-.24.24-.63,0-.87-.24-.24-.63-.24-.87,0-.24.24-.24.63,0,.87.24.24.63.24.87,0Z"/>
                    </g>
                  </g>
                </g>
                <path class="cls-2" d="M221.79,402.03c2.66,0,4.83-2.17,4.83-4.83s-2.17-4.83-4.83-4.83-4.83,2.17-4.83,4.83,2.17,4.83,4.83,4.83ZM221.79,392.92c2.36,0,4.28,1.92,4.28,4.28s-1.92,4.28-4.28,4.28-4.28-1.92-4.28-4.28,1.92-4.28,4.28-4.28Z"/>
              </g>
              <g>
                <circle class="cls-2" cx="237.8" cy="397.2" r="7.63" transform="translate(-60.31 43.01) rotate(-9.18)"/>
                <g>
                  <circle class="cls-2" cx="237.8" cy="397.2" r="4.79" transform="translate(-216.02 305.75) rotate(-47.7)"/>
                  <path class="cls-2" d="M236.48,397.2c0,.73.59,1.32,1.32,1.32s1.32-.59,1.32-1.32-.59-1.32-1.32-1.32-1.32.59-1.32,1.32Z"/>
                  <g>
                    <g>
                      <circle class="cls-2" cx="237.8" cy="394.32" r=".61"/>
                      <circle class="cls-2" cx="237.8" cy="400.08" r=".61"/>
                    </g>
                    <g>
                      <path class="cls-2" d="M234.92,397.82c.34,0,.61-.28.61-.61s-.28-.61-.61-.61-.61.28-.61.61.28.61.61.61Z"/>
                      <path class="cls-2" d="M240.68,397.82c.34,0,.61-.28.61-.61s-.28-.61-.61-.61-.61.28-.61.61.28.61.61.61Z"/>
                    </g>
                    <g>
                      <path class="cls-2" d="M235.33,395.6c.24.24.63.24.87,0,.24-.24.24-.63,0-.87-.24-.24-.63-.24-.87,0s-.24.63,0,.87Z"/>
                      <path class="cls-2" d="M239.4,399.67c.24.24.63.24.87,0,.24-.24.24-.63,0-.87-.24-.24-.63-.24-.87,0-.24.24-.24.63,0,.87Z"/>
                    </g>
                    <g>
                      <path class="cls-2" d="M236.2,399.67c.24-.24.24-.63,0-.87-.24-.24-.63-.24-.87,0s-.24.63,0,.87.63.24.87,0Z"/>
                      <path class="cls-2" d="M240.27,395.6c.24-.24.24-.63,0-.87-.24-.24-.63-.24-.87,0-.24.24-.24.63,0,.87.24.24.63.24.87,0Z"/>
                    </g>
                  </g>
                </g>
                <path class="cls-2" d="M237.8,402.03c2.66,0,4.83-2.17,4.83-4.83s-2.17-4.83-4.83-4.83-4.83,2.17-4.83,4.83,2.17,4.83,4.83,4.83ZM237.8,392.92c2.36,0,4.28,1.92,4.28,4.28s-1.92,4.28-4.28,4.28-4.28-1.92-4.28-4.28,1.92-4.28,4.28-4.28Z"/>
              </g>
            </g>
          </g>
        </g>
        <g>
          <path class="cls-2" d="M275.13,705.49h-15.58v-48.76h4.33v44.93h11.25v3.83Z"/>
          <path class="cls-2" d="M297.97,701.97c0,2.35-1.17,3.52-3.52,3.52h-10.41c-2.33,0-3.49-1.17-3.49-3.52v-23.27c0-2.35,1.16-3.52,3.49-3.52h10.41c2.35,0,3.52,1.17,3.52,3.52v23.27ZM293.83,701.85v-23.02h-9.13v23.02h9.13Z"/>
          <path class="cls-2" d="M321.96,713.47c0,2.35-1.17,3.52-3.52,3.52h-9.85c-2.39,0-3.58-1.48-3.58-4.46,0-.36.02-.88.05-1.57.03-.7.05-1.2.05-1.51h4.08v4.02h8.66v-7.98h-6.82c-1.85,0-3.39-.62-4.61-1.86-1.22-1.23-1.84-2.79-1.84-4.65v-17.73c0-1.79.54-3.28,1.62-4.47,1.08-1.19,2.5-1.79,4.27-1.79.48,0,2.94.34,7.38,1.03v-.84h4.11v38.29ZM317.85,701.85v-22.9c-3.28-.21-5.19-.31-5.73-.31-2.28,0-3.43,1.17-3.43,3.49v16.23c0,2.32,1.14,3.49,3.43,3.49h5.73Z"/>
          <path class="cls-2" d="M333.18,668.54h-4.21v-5.23h4.21v5.23ZM333.11,705.49h-4.08v-30.32h4.08v30.32Z"/>
          <path class="cls-2" d="M356.48,701.97c0,2.35-1.17,3.52-3.52,3.52h-9.5c-2.35,0-3.52-1.17-3.52-3.52v-6.89h4.08v6.82h8.38v-6.04l-10.84-8.88c-1.04-.83-1.56-1.91-1.56-3.24v-5.05c0-2.35,1.17-3.52,3.52-3.52h9.38c2.35,0,3.52,1.17,3.52,3.52v6.04h-4.02v-5.98h-8.38v5.3l10.94,8.88c1.02.81,1.53,1.91,1.53,3.3v5.73Z"/>
          <path class="cls-2" d="M373.96,705.49h-5.89c-2.33,0-3.49-1.17-3.49-3.52v-23.15h-3.65v-3.65h3.65v-9.44h4.08v9.44h5.3v3.65h-5.3v23.02h5.3v3.65Z"/>
          <path class="cls-2" d="M383.65,668.54h-4.21v-5.23h4.21v5.23ZM383.59,705.49h-4.08v-30.32h4.08v30.32Z"/>
          <path class="cls-2" d="M407.45,701.97c0,2.35-1.16,3.52-3.49,3.52h-9.85c-2.33,0-3.49-1.17-3.49-3.52v-23.27c0-2.35,1.16-3.52,3.49-3.52h9.85c2.33,0,3.49,1.17,3.49,3.52v6.04h-4.08v-5.92h-8.6v23.02h8.6v-6.76h4.08v6.89Z"/>
          <path class="cls-2" d="M430.51,701.97c0,2.35-1.17,3.52-3.52,3.52h-9.5c-2.35,0-3.52-1.17-3.52-3.52v-6.89h4.08v6.82h8.38v-6.04l-10.84-8.88c-1.04-.83-1.56-1.91-1.56-3.24v-5.05c0-2.35,1.17-3.52,3.52-3.52h9.38c2.35,0,3.52,1.17,3.52,3.52v6.04h-4.02v-5.98h-8.38v5.3l10.94,8.88c1.02.81,1.53,1.91,1.53,3.3v5.73Z"/>
        </g>
      </g>
    </g>
  </g>
</svg>