<?xml version="1.0" encoding="UTF-8"?>
<svg id="Calque_1" data-name="Calque 1" xmlns="http://www.w3.org/2000/svg" viewBox="0 0 1080 1080">
  <defs>
    <style>
      .cls-1, .cls-2, .cls-3 {
        stroke-width: 0px;
      }

      .cls-1, .cls-4 {
        fill: #000;
      }

      .cls-5, .cls-6 {
        fill: none;
      }

      .cls-5, .cls-6, .cls-7, .cls-4 {
        stroke-linecap: round;
        stroke-miterlimit: 10;
      }

      .cls-5, .cls-4 {
        stroke: #66b32e;
        stroke-width: .5px;
      }

      .cls-6, .cls-7 {
        stroke: #000;
      }

      .cls-2, .cls-7 {
        fill: #66b32e;
      }

      .cls-7 {
        stroke-width: .25px;
      }

      .cls-3 {
        fill: #fff;
      }
    </style>
  </defs>
  <path class="cls-6" d="M1041.8,585.86c0,276.73-235.35,480.39-512.04,475.7-273.6-4.64-493.68-235.27-501.07-501.07"/>
  <g>
    <path class="cls-6" d="M63.52,332.29c25.89-65.83,65.39-124.74,114.98-173.46,2.85-2.85,5.71-5.71,8.67-8.34"/>
    <path class="cls-6" d="M529.8,15c272,4.67,504.55,204.15,512.03,475.71"/>
    <path class="cls-4" d="M1041.82,490.71c-7.24-244.88-206.15-472.42-512.03-475.71-4.39,0-8.78,0-13.06.11-126.61,3.29-241.48,53.43-328.04,133.96-.55.44-1.1.88-1.54,1.43-2.96,2.74-5.81,5.49-8.67,8.34-50.58,50.8-89.42,110.92-114.98,173.46-1.54,3.95-3.07,7.79-4.5,11.63-19.53,53.65-30.28,111.69-30.28,172.14.11,4.72,1.98,21.61,2.3,45.64,2.41,221.29,175.98,490.63,498.75,498.64,314.54,7.9,513.12-237.31,512.03-476.15-.11-32.04.88-62.54,0-93.48ZM526.18,968.18c-236.32,0-427.88-191.56-427.88-427.88S289.85,112.42,526.18,112.42s427.88,191.56,427.88,427.88-191.56,427.88-427.88,427.88Z"/>
    <path class="cls-5" d="M59.02,343.92c-19.53,53.65-30.28,111.69-30.28,172.14-2.08-55.62,8.45-114.65,30.28-172.14Z"/>
    <path class="cls-5" d="M516.74,15.11c-126.61,3.29-241.48,53.43-328.04,133.96C271.2,70.73,382.67,16.97,516.74,15.11Z"/>
    <path class="cls-5" d="M954.05,540.3c0,236.32-191.56,427.88-427.88,427.88S98.3,776.62,98.3,540.3,289.85,112.42,526.18,112.42s427.88,191.56,427.88,427.88Z"/>
  </g>
  <path class="cls-7" d="M954.05,540.3c0,236.32-191.56,427.88-427.88,427.88S98.3,776.62,98.3,540.3,289.85,112.42,526.18,112.42s427.88,191.56,427.88,427.88Z"/>
  <path class="cls-2" d="M61.62,442.82l6.49-20.22,12,17.61h21.08l-12.65,16.96,6.16,20.21-19.78-7.17-17.19,12.39.65-21.19-17.19-12.72,20.43-5.87ZM58.38,611.45l-.65-21.19,17.19,12.39,19.78-7.17-6.16,20.22,12.65,16.95h-21.08l-12,17.61-6.49-20.21-20.43-5.87,17.19-12.71ZM123.7,288.22l13.12-16.77,5.25,20.64,19.99,7.1-18.03,10.97-.98,21.29-16.39-13.55-20.65,5.81,8.2-19.68-12.13-17.42,21.64,1.61ZM114.19,768.82l-8.2-19.35,20.65,5.8,16.39-13.87.98,21.29,18.03,10.97-19.99,7.42-5.25,20.32-13.12-16.12-21.64,1.29,12.13-17.74ZM232.44,164.01l17.64-11.21-1.92,21.43,16.04,13.84-20.53,4.61-8.02,20.11-10.27-18.79-21.17-1.65,13.8-15.82-4.81-21.1,19.25,8.57ZM218,896.77l-13.8-16.24,21.17-1.32,10.27-18.89,8.02,20.22,20.53,4.31-16.04,13.92,1.92,21.55-17.64-11.26-19.25,8.61,4.81-20.88ZM848.3,176.54l13.79,15.82-20.53,1.65-10.9,18.79-7.71-20.11-20.85-4.61,16.36-13.84-2.25-21.43,17.64,11.21,19.25-8.57-4.82,21.1ZM833.86,909.04l-17.64,11.26,2.25-21.55-16.36-13.92,20.85-4.31,7.71-20.22,10.9,18.89,20.53,1.32-13.79,16.24,4.82,20.88-19.25-8.61ZM952.76,304.03l7.54,19.68-20.65-5.81-16.06,13.55-.99-21.29-18.35-10.97,20.33-7.1,5.24-20.64,13.11,16.77,21.31-1.61-11.48,17.42ZM942.93,785.27l-13.11,16.12-5.24-20.32-20.33-7.42,18.35-10.97.99-21.29,16.06,13.87,20.65-5.8-7.54,19.35,11.48,17.74-21.31-1.29ZM1008.27,461.4l.65,21.19-17.1-12.39-19.67,7.17,6.44-20.21-13.22-16.96h21.29l11.61-17.61,6.45,20.22,20.64,5.87-17.1,12.72ZM1004.72,630.04l-6.45,20.21-11.61-17.61h-21.29l13.22-16.95-6.44-20.22,19.67,7.17,17.1-12.39-.65,21.19,17.1,12.71-20.64,5.87Z"/>
  <g>
    <path class="cls-3" d="M301.5,95.04l.44-6.14,2.28-1.31,10.15,16.96-2.89,1.66c-4.33-4.05-8.58-6.51-12.75-7.37-4.17-.86-7.92-.33-11.26,1.6-2.85,1.64-4.7,3.78-5.55,6.43s-.63,5.1.66,7.35c.77,1.34,1.83,2.36,3.18,3.07s3.04,1.01,5.06.9c2.03-.11,5.25-.88,9.67-2.29,5.17-1.64,8.87-2.57,11.09-2.78,3.53-.31,6.61.2,9.23,1.53,2.62,1.33,4.81,3.53,6.58,6.59,2.64,4.58,3.23,9.1,1.78,13.56-1.75,5.38-5.31,9.61-10.68,12.71-4.94,2.85-10.49,3.65-16.65,2.4l-.94,7.06-2.38,1.37-10.57-18.37,2.83-1.63c8.83,8.87,17.53,10.83,26.1,5.9,3.51-2.02,5.75-4.43,6.72-7.23.97-2.8.74-5.47-.72-7.99-1.01-1.76-2.29-3-3.84-3.7-1.54-.7-3.42-.9-5.64-.61-1.21.16-4.02.93-8.41,2.3-5.93,1.81-10.38,2.71-13.36,2.72-2.98,0-5.52-.63-7.64-1.89s-3.95-3.23-5.5-5.91c-2.6-4.51-3.27-9.02-2-13.54,1.26-4.52,4.33-8.18,9.21-10.99,4.69-2.7,9.95-3.48,15.79-2.35Z"/>
    <path class="cls-3" d="M327.67,77.19c1.5-.7,3.04-.74,4.64-.13,1.59.61,2.76,1.71,3.5,3.3.74,1.59.83,3.19.27,4.8-.56,1.61-1.59,2.77-3.09,3.46-1.52.71-3.08.75-4.68.13-1.6-.62-2.76-1.72-3.49-3.28-.74-1.59-.83-3.19-.27-4.8.56-1.61,1.6-2.77,3.12-3.48ZM327.86,100.14l13.66-7.17,12.98,27.87c.35.75.85,1.22,1.5,1.41.65.2,1.44.08,2.38-.36l2.11-.98,1.52,3.26-18.87,8.78-1.52-3.26,2.08-.97c1.12-.52,1.78-1.16,1.99-1.91.21-.75,0-1.79-.62-3.12l-8.85-19c-.55-1.19-1.32-1.96-2.28-2.31-.96-.35-2.03-.25-3.19.29l-1.41.66-1.49-3.19Z"/>
    <path class="cls-3" d="M410.09,102.14l1.22,3.38-19.61,7.08-1.22-3.38,2.05-.74c1.09-.39,1.8-.98,2.12-1.75.32-.77.28-1.72-.12-2.83l-5.33-14.77c-.91-2.52-2.16-4.26-3.74-5.21-1.58-.95-3.26-1.1-5.04-.46-2.43.88-4.06,2.54-4.9,5-.84,2.45-.59,5.51.73,9.17l4.11,11.39c.4,1.12.98,1.87,1.74,2.25.75.39,1.56.42,2.42.11l2.47-.89,1.22,3.38-20.38,7.36-1.22-3.38,2.65-.96c1.02-.37,1.69-.94,2-1.71.31-.77.27-1.71-.13-2.83l-7.31-20.26c-.42-1.16-1.13-1.96-2.14-2.37-1.01-.42-2.12-.41-3.35.04l-1.39.5-1.14-3.16,13.35-5.68c1.24,1.91,2.51,4.26,3.81,7.05.93-3.38,2.23-6.12,3.9-8.23,1.67-2.11,3.7-3.6,6.08-4.46,3.24-1.17,6.21-.97,8.9.61,2.67,1.59,4.73,4.39,6.18,8.42l5.7,15.79c.44,1.21,1.02,1.99,1.75,2.33.73.34,1.67.3,2.83-.12l1.81-.65Z"/>
    <path class="cls-3" d="M446.45,83.52l3.15.7c-.5,4.32-2,7.93-4.52,10.84-2.52,2.91-5.87,4.88-10.07,5.91-5.69,1.39-10.52.85-14.5-1.61-3.98-2.46-6.64-6.44-7.98-11.92-1.45-5.91-.74-11.23,2.1-15.96s7.39-7.86,13.63-9.38c4.48-1.1,8.15-.99,10.98.32,2.84,1.31,4.58,3.31,5.24,5.99.48,1.95.33,3.63-.43,5.02-.76,1.39-2,2.3-3.7,2.72-1.49.36-2.78.21-3.87-.47-1.09-.67-1.81-1.73-2.16-3.15-.3-1.23-.17-2.77.39-4.63.24-.78.33-1.3.26-1.58-.12-.5-.6-.86-1.45-1.08-1.21-.37-2.67-.34-4.38.07-3.17.78-5.21,2.39-6.12,4.84-1.22,3.24-1.14,7.68.24,13.32,1.38,5.63,3.29,9.37,5.73,11.2,2.45,1.83,5.16,2.38,8.14,1.65,2.35-.58,4.37-1.94,6.05-4.09,1.68-2.15,2.77-5.05,3.28-8.7Z"/>
    <path class="cls-3" d="M490.68,71.82l-24.05,3.42c.79,5.02,2.28,8.59,4.49,10.71,2.2,2.12,4.77,2.97,7.7,2.56,2.1-.3,4-1.19,5.71-2.69,1.71-1.49,3.32-3.99,4.84-7.48l2.92,1.34c-1.53,4.12-3.52,7.2-5.97,9.23-2.44,2.03-5.6,3.31-9.46,3.86-5.62.8-10.42-.34-14.4-3.42-3.98-3.08-6.36-7.42-7.16-13.01-.79-5.59.29-10.51,3.25-14.76,2.96-4.25,6.99-6.73,12.07-7.46,3.52-.5,6.65-.18,9.4.97,2.75,1.15,5.02,3.07,6.84,5.77,1.82,2.7,3.09,6.35,3.82,10.96ZM466.13,71.75l11.45-1.63c1.07-.15,1.8-.54,2.18-1.17.38-.63.47-1.68.26-3.16-.42-2.96-1.39-5.16-2.92-6.6-1.52-1.44-3.28-2.01-5.28-1.73-2.37.34-4.02,1.69-4.96,4.06-.94,2.37-1.19,5.78-.73,10.22Z"/>
    <path class="cls-3" d="M526.48,38.81c3.89-.22,7.17-.7,9.83-1.44,2.66-.74,5.38-1.88,8.14-3.39l2.7.03-.51,47.33c0,.93.23,1.65.72,2.15.49.51,1.16.77,2.03.78l6.89.07-.04,3.6-28.78-.31.04-3.6,5.41.06c1.38.01,2.37-.29,2.95-.92.59-.62.89-1.66.9-3.1l.37-35.11c0-.82-.23-1.46-.7-1.9-.48-.44-1.2-.67-2.17-.68l-7.84-.08.04-3.48Z"/>
    <path class="cls-3" d="M593.68,65.58l-.64.43c-3.52,2.56-6.99,3.65-10.43,3.26-3.26-.37-6.03-1.78-8.28-4.24-2.95-3.18-4.13-7.35-3.55-12.5.42-3.74,1.52-6.97,3.31-9.69,1.78-2.72,4.07-4.69,6.85-5.92,2.78-1.23,5.91-1.65,9.37-1.26,5.35.6,9.32,3.05,11.92,7.33,3.12,5.18,4.23,11.79,3.32,19.83-1.07,9.5-4.16,16.94-9.26,22.31-4.54,4.73-9.67,6.77-15.39,6.13-3.64-.41-6.53-1.75-8.69-4.01-2.16-2.27-3.1-4.63-2.82-7.09.21-1.9.94-3.39,2.19-4.48,1.25-1.09,2.68-1.55,4.3-1.36,1.45.16,2.61.83,3.46,1.98.86,1.16,1.19,2.52,1.02,4.08-.09.85-.54,1.9-1.35,3.16-.46.73-.72,1.32-.77,1.78-.06.56.11,1.04.51,1.42.59.53,1.38.85,2.36.97,1.62.18,3.29-.35,5-1.6,1.71-1.25,3.22-3.51,4.54-6.79,1.32-3.28,2.33-7.86,3.04-13.75ZM589.86,39.19c-2.06-.23-3.84.59-5.33,2.47-1.49,1.88-2.52,5.31-3.08,10.3-.49,4.32-.26,7.45.68,9.38.94,1.93,2.36,3.01,4.28,3.22,2.08.23,3.98-.66,5.69-2.68,1.71-2.02,2.81-5.26,3.31-9.71.51-4.5.05-7.88-1.36-10.14-1.05-1.7-2.45-2.65-4.19-2.84Z"/>
    <path class="cls-3" d="M638.61,73.55l-.68.38c-3.73,2.24-7.29,3.02-10.67,2.34-3.22-.65-5.85-2.3-7.88-4.95-2.66-3.43-3.47-7.69-2.45-12.76.75-3.69,2.12-6.81,4.14-9.36,2.01-2.55,4.46-4.32,7.34-5.3,2.88-.98,6.03-1.13,9.44-.44,5.28,1.07,9.02,3.85,11.24,8.35,2.66,5.43,3.18,12.11,1.58,20.05-1.9,9.38-5.62,16.51-11.18,21.41-4.93,4.32-10.22,5.9-15.87,4.76-3.58-.73-6.35-2.31-8.3-4.76-1.95-2.45-2.68-4.88-2.19-7.31.38-1.87,1.23-3.29,2.57-4.27,1.33-.98,2.8-1.31,4.41-.98,1.43.29,2.52,1.05,3.27,2.28.75,1.23.97,2.62.66,4.16-.17.83-.71,1.84-1.62,3.03-.52.68-.83,1.25-.92,1.71-.11.56.02,1.04.39,1.46.54.58,1.29.97,2.26,1.17,1.6.32,3.31-.06,5.12-1.15,1.81-1.09,3.52-3.21,5.11-6.36s3.01-7.62,4.23-13.43ZM637.12,46.93c-2.03-.41-3.88.25-5.52,2-1.65,1.74-2.97,5.07-3.97,9.99-.86,4.27-.91,7.4-.14,9.41.77,2.01,2.09,3.2,3.98,3.58,2.06.42,4.02-.31,5.9-2.18,1.88-1.87,3.26-4.99,4.15-9.39.9-4.44.74-7.85-.47-10.22-.9-1.78-2.21-2.85-3.93-3.2Z"/>
    <path class="cls-3" d="M669.86,57.83c3.78.95,7.05,1.47,9.82,1.55,2.76.08,5.69-.19,8.79-.82l2.57.83-14.57,45.04c-.29.88-.27,1.64.04,2.27.32.63.88,1.08,1.71,1.34l6.55,2.12-1.11,3.42-27.38-8.86,1.11-3.42,5.15,1.67c1.32.43,2.35.43,3.09,0,.75-.42,1.34-1.32,1.79-2.69l10.81-33.41c.25-.79.22-1.46-.11-2.03-.33-.57-.95-1-1.87-1.29l-7.46-2.41,1.07-3.31Z"/>
  </g>
  <g>
    <path class="cls-3" d="M316.92,919.73l42.16,23.64-9.16,17.47-2.91-1.63c2.46-5.6,3.33-9.94,2.61-13.01-.72-3.08-3.02-5.71-6.9-7.88l-7.08-3.97c-1.03-.58-1.91-.78-2.64-.59-.73.18-1.32.69-1.79,1.52l-9.36,16.7,2.58,1.44c5.13,2.88,9.89,1.35,14.26-4.59l2.84,1.59-12.92,23.04-2.84-1.59c1.3-2.52,2.01-4.69,2.12-6.5.11-1.81-.21-3.46-.97-4.95s-1.93-2.68-3.52-3.57l-3.25-1.83-10.2,18.18c-.54.97-.69,1.81-.45,2.54.35,1.05,1,1.85,1.97,2.39l4.52,2.54-1.76,3.14-25.29-14.18,1.76-3.14,4.23,2.37c.99.56,1.91.71,2.76.46.85-.25,1.5-.79,1.97-1.62l21.37-38.12c.54-.97.66-1.79.34-2.47-.31-.68-1.29-1.48-2.93-2.39l-3.29-1.85,1.76-3.14Z"/>
    <path class="cls-3" d="M369.81,968.45c3.56,1.54,6.48,3.75,8.77,6.65,2.29,2.9,3.6,5.95,3.93,9.17.33,3.22-.29,6.65-1.86,10.29-2.51,5.82-6.34,9.47-11.48,10.95s-10.11,1.17-14.92-.9c-3.4-1.47-6.17-3.61-8.3-6.43-2.13-2.82-3.37-5.91-3.72-9.27-.35-3.37.21-6.75,1.68-10.16,2.22-5.14,5.79-8.7,10.72-10.68,4.93-1.99,9.99-1.86,15.18.38ZM368.56,971.91c-2.36-1.02-4.7-.74-7.03.82-2.33,1.56-4.67,5.07-7.02,10.51-2.44,5.66-3.43,9.86-2.98,12.59.46,2.74,1.87,4.62,4.22,5.64,2.4,1.04,4.81.77,7.24-.79,2.42-1.57,4.8-5.05,7.13-10.44,2.39-5.54,3.33-9.72,2.83-12.53s-1.97-4.75-4.4-5.79Z"/>
    <path class="cls-3" d="M409.52,983.4c3.69,1.19,6.81,3.11,9.37,5.78,2.55,2.66,4.15,5.58,4.79,8.75.64,3.17.35,6.65-.87,10.43-1.94,6.04-5.4,10.04-10.38,12-4.98,1.96-9.96,2.14-14.94.53-3.53-1.14-6.49-3-8.88-5.6-2.39-2.6-3.92-5.56-4.59-8.87-.67-3.32-.44-6.74.7-10.28,1.71-5.33,4.93-9.21,9.65-11.66,4.72-2.45,9.77-2.81,15.15-1.08ZM408.6,986.97c-2.45-.79-4.75-.29-6.92,1.49-2.17,1.78-4.16,5.49-5.98,11.14-1.89,5.87-2.47,10.14-1.75,12.82.72,2.68,2.3,4.42,4.74,5.2,2.49.8,4.87.31,7.13-1.48,2.26-1.79,4.29-5.48,6.1-11.08,1.85-5.74,2.39-9.99,1.61-12.75-.77-2.75-2.42-4.54-4.93-5.35Z"/>
    <path class="cls-3" d="M445.7,980.17l3.21.75-3.38,14.5,11.14,2.6-.95,4.07-11.15-2.6-5.23,22.41c-.35,1.48-.25,2.71.28,3.7.53.99,1.39,1.62,2.57,1.89,3.38.79,5.93-2.07,7.65-8.58l3.21.75c-.89,3.47-2.07,6.16-3.55,8.05-1.48,1.89-3.28,3.2-5.38,3.92-2.11.73-4.32.82-6.63.28-2.02-.47-3.67-1.31-4.95-2.5-1.28-1.2-2.16-2.75-2.64-4.65-.48-1.9-.49-3.84-.03-5.83l5.06-21.69-5.99-1.4.81-3.46c3.78.35,6.98-.45,9.6-2.4s4.73-5.22,6.33-9.8Z"/>
    <path class="cls-3" d="M461.56,978.01l15.88,1.44-3.84,26.52c2.19-2.21,4.35-3.7,6.47-4.47s4.35-.99,6.7-.65c4.3.62,7.63,2.85,9.98,6.68,2.35,3.83,3.11,8.66,2.26,14.47-.89,6.15-3.25,10.84-7.07,14.08s-8.27,4.49-13.33,3.75c-2.66-.39-4.98-1.28-6.96-2.69-1.98-1.41-3.63-3.31-4.95-5.72-1.41,1.62-3.69,3.52-6.85,5.69l-1.95-1.49c1.63-4.55,2.8-9.24,3.5-14.06l4.79-33.04c.28-1.94.29-3.34.03-4.21-.26-.87-.69-1.5-1.28-1.9-.43-.3-1.72-.6-3.87-.91l.5-3.48ZM481.54,1005.68c-1.42-.21-2.82.11-4.2.96-1.38.84-2.53,2.19-3.45,4.03-.92,1.85-1.67,4.82-2.27,8.93-.81,5.59-.68,9.61.38,12.07,1.07,2.46,2.7,3.85,4.9,4.17,2.27.33,4.41-.64,6.41-2.9,2-2.26,3.37-5.98,4.12-11.16.75-5.18.52-9.07-.68-11.68-1.21-2.61-2.95-4.08-5.22-4.41Z"/>
    <path class="cls-3" d="M543.53,1038.68l1.43,2.85c-1.55,1.02-2.93,1.71-4.15,2.07-1.21.36-2.54.51-3.97.45-2.12-.09-3.82-.64-5.08-1.63-1.27-1-2.39-2.82-3.36-5.47-2.63,2.49-4.96,4.17-7,5.02-2.04.85-4.32,1.23-6.83,1.12-3.48-.15-6.16-1.1-8.03-2.86-1.88-1.76-2.76-3.93-2.65-6.5.17-3.89,2.1-6.93,5.8-9.12,2.97-1.73,9.37-3.31,19.22-4.75l.22-5.22c.09-2.06-.49-3.77-1.74-5.13-1.25-1.36-2.98-2.08-5.17-2.18-1.68-.07-3.17.24-4.49.93-.89.45-1.34.92-1.36,1.41-.01.26.13.65.43,1.18.64,1.19.94,2.35.89,3.48-.06,1.44-.57,2.59-1.52,3.44-.95.85-2.19,1.24-3.72,1.17-1.63-.07-2.91-.61-3.86-1.62-.95-1.01-1.39-2.27-1.32-3.79.11-2.5,1.5-4.65,4.17-6.44,3.33-2.23,7.41-3.24,12.22-3.03,3.63.16,6.82.89,9.58,2.19,1.77.82,3.17,2.19,4.21,4.11,1.04,1.92,1.5,4.24,1.39,6.97l-.79,18.35c-.06,1.39.14,2.41.61,3.04.47.64,1.13.98,1.99,1.01.72.03,1.67-.33,2.86-1.08ZM528.78,1023.22c-5.31.52-8.93,1.52-10.86,3s-2.95,3.49-3.06,6.04c-.08,1.8.3,3.21,1.13,4.21.83,1,2.04,1.54,3.62,1.61,2.44.11,4.51-.72,6.2-2.48,1.69-1.76,2.61-4.22,2.75-7.39l.21-4.98Z"/>
    <path class="cls-3" d="M546.72,985.65l16.22-1.41,1.78,51.44c.03.93.34,1.65.93,2.15.58.51,1.41.75,2.47.71l2.18-.08.12,3.59-20.88.72-.12-3.6,2.37-.08c1.08-.04,1.88-.37,2.39-.99.51-.62.74-1.55.7-2.79l-1.46-42.28c-.04-1.32-.43-2.32-1.14-3-.72-.69-1.67-1.01-2.85-.97l-2.59.09-.12-3.52Z"/>
    <path class="cls-3" d="M570.02,984.79l16.11-2.33,4.71,51.26c.08.92.43,1.62,1.05,2.1.61.47,1.45.66,2.51.57l2.18-.2.33,3.58-20.8,1.91-.33-3.58,2.36-.22c1.08-.1,1.86-.47,2.33-1.13.47-.65.65-1.59.54-2.83l-3.87-42.12c-.12-1.31-.56-2.29-1.31-2.93-.75-.64-1.72-.91-2.9-.8l-2.58.24-.32-3.5Z"/>
    <path class="cls-3" d="M654.11,975.01l1.18-6.12,2.67-.63,6.16,22.11-3.32.78c-2.55-6.18-5.61-10.49-9.21-12.93-3.59-2.44-7.23-3.22-10.91-2.36-4.04.95-6.91,3.74-8.61,8.38s-1.53,11.28.51,19.93c2.16,9.15,5.21,15.61,9.16,19.36,3.15,2.94,7,3.87,11.54,2.8,4.54-1.07,7.95-3.71,10.23-7.93,1.64-3.06,2.32-7.17,2.05-12.32l3.24-.76c.73,6.53-.41,12.1-3.41,16.7-3,4.6-7.33,7.56-12.97,8.89-7.31,1.72-14.06.47-20.27-3.75-6.2-4.22-10.3-10.53-12.27-18.93-2.2-9.33-1.1-17.45,3.28-24.36,3.74-5.88,8.87-9.59,15.38-11.12,2.57-.61,5.06-.75,7.45-.42,2.4.32,5.1,1.22,8.11,2.68Z"/>
    <path class="cls-3" d="M661.95,967.94l15.14-6,16.45,48.77c.3.88.8,1.48,1.51,1.8.71.32,1.56.31,2.57-.03l2.07-.7,1.15,3.41-19.79,6.68-1.15-3.41,2.25-.76c1.03-.35,1.7-.89,2.01-1.64.31-.74.27-1.7-.13-2.88l-13.52-40.08c-.42-1.25-1.07-2.1-1.95-2.55s-1.88-.49-3.01-.11l-2.46.83-1.13-3.33Z"/>
    <path class="cls-3" d="M691.3,980.66l13.81-7.06,9.68,22.1c.9,2.05,2.14,3.45,3.72,4.18,1.58.73,3.21.72,4.9-.02,2.39-1.05,3.86-2.87,4.42-5.48.56-2.61.25-5.25-.91-7.92l-4.75-10.84c-.56-1.28-1.32-2.09-2.29-2.46s-2.04-.29-3.22.23l-1.56.68-1.41-3.22,13.98-7.14,11.76,26.85c.53,1.21,1.3,1.99,2.31,2.37s2.11.3,3.28-.21l1.46-.64,1.44,3.29-12.98,6.19c-1.58-2.12-3-4.51-4.27-7.16-.91,3.86-2.13,6.83-3.64,8.9-1.51,2.07-3.36,3.58-5.55,4.54-2.17.95-4.19,1.27-6.08.98-1.89-.3-3.73-1.28-5.51-2.95-1.78-1.67-3.31-3.97-4.59-6.9l-5.77-13.18c-.63-1.44-1.43-2.32-2.41-2.64-.97-.32-2.45-.07-4.41.73l-1.41-3.22Z"/>
    <path class="cls-3" d="M723.42,943.75l13.33-8.75,13.49,23.16c.34-3.09,1.1-5.6,2.28-7.53,1.18-1.92,2.79-3.48,4.84-4.68,3.76-2.19,7.75-2.51,11.97-.97,4.22,1.54,7.82,4.85,10.77,9.93,3.13,5.37,4.2,10.51,3.22,15.42-.98,4.91-3.68,8.66-8.1,11.23-2.33,1.35-4.7,2.1-7.13,2.23s-4.9-.34-7.43-1.4c-.1,2.14-.7,5.05-1.83,8.71l-2.46.04c-1.55-4.58-3.56-8.98-6-13.18l-16.8-28.85c-.99-1.69-1.85-2.8-2.6-3.32-.75-.52-1.47-.75-2.18-.7-.52.04-1.72.6-3.6,1.69l-1.77-3.04ZM756.28,952.99c-1.24.72-2.14,1.84-2.69,3.36-.56,1.52-.62,3.29-.19,5.3.43,2.02,1.69,4.82,3.78,8.41,2.84,4.88,5.45,7.95,7.81,9.21,2.37,1.26,4.51,1.34,6.43.22,1.98-1.16,3.06-3.24,3.21-6.26.16-3.02-1.08-6.79-3.71-11.31-2.63-4.52-5.23-7.43-7.8-8.72-2.57-1.29-4.84-1.36-6.83-.21Z"/>
  </g>
  <path class="cls-1" d="M796.28,763.01c0,9.62-3,17.49-8.99,23.57s-13.81,9.13-23.43,9.13h-116.08c-9.63,0-17.53-3.04-23.72-9.13-6.19-6.09-9.28-13.95-9.28-23.57v-116.98h40.95v113.44h99.59v-109.91l-127.28-153.8c-8.84-10.61-13.26-22.29-13.26-35.06v-93.4c0-9.62,3.09-17.48,9.28-23.57,6.18-6.09,14.09-9.13,23.72-9.13h116.08c9.62,0,17.44,3.05,23.43,9.13,5.99,6.09,8.99,13.95,8.99,23.57v107.25h-40.96v-103.71h-99.59v97.23l127.87,153.8c8.44,10.22,12.67,21.71,12.67,34.47v106.66Z"/>
  <path class="cls-1" d="M534.86,797.44l-141.43,53.36-142.07-53.36v-500.77h283.49v500.77ZM489.11,359.28h-57.12l-43.06,126.53-43.06-126.53h-57.12l71.18,211.77v212.64h57.12v-212.64l72.05-211.77Z"/>
  <g>
    <polyline class="cls-7" points="537.15 585.18 484.98 623.08 504.9 561.75 452.73 523.85 517.22 523.85 537.15 462.51"/>
    <polyline class="cls-1" points="537.15 462.51 557.07 523.85 621.56 523.85 569.39 561.75 589.32 623.08 537.15 585.18"/>
  </g>
</svg>