<?xml version="1.0" encoding="UTF-8"?>
<svg id="Calque_1" data-name="Calque 1" xmlns="http://www.w3.org/2000/svg" xmlns:xlink="http://www.w3.org/1999/xlink" viewBox="0 0 1080 1080">
  <defs>
    <style>
      .cls-1 {
        fill: #fceeda;
      }

      .cls-1, .cls-2, .cls-3 {
        stroke: #000;
        stroke-miterlimit: 10;
      }

      .cls-1, .cls-3 {
        stroke-width: .25px;
      }

      .cls-4 {
        fill: #000;
      }

      .cls-4, .cls-5, .cls-6, .cls-7, .cls-8, .cls-9 {
        stroke-width: 0px;
      }

      .cls-2 {
        fill: #8b2421;
        filter: url(#drop-shadow-2);
        stroke-width: .5px;
      }

      .cls-5 {
        fill: #392421;
      }

      .cls-6 {
        fill: #f7d423;
      }

      .cls-7 {
        fill: #e66901;
      }

      .cls-8, .cls-3 {
        fill: #fff9c6;
      }

      .cls-9 {
        fill: #632421;
      }
    </style>
    <filter id="drop-shadow-2" filterUnits="userSpaceOnUse">
      <feOffset dx="7" dy="1"/>
      <feGaussianBlur result="blur" stdDeviation="1"/>
      <feFlood flood-color="#000" flood-opacity=".25"/>
      <feComposite in2="blur" operator="in"/>
      <feComposite in="SourceGraphic"/>
    </filter>
  </defs>
  <g>
    <path class="cls-7" d="M933.1,508.43c0,16.92-21.32,32.26-23.46,48.61-2.16,16.71,14.45,37.03,10.17,52.99-4.33,16.23-28.9,25.56-35.26,40.84-6.42,15.49,4.34,39.45-3.98,53.82-8.36,14.49-34.53,17.09-44.67,30.29-10.18,13.25-5.98,39.18-17.75,50.96-11.81,11.77-37.73,7.58-50.96,17.75-13.2,10.14-15.81,36.29-30.28,44.66-14.38,8.32-38.33-2.44-53.81,3.99-15.32,6.35-24.62,30.91-40.85,35.26-15.98,4.27-36.28-12.35-52.99-10.16-16.34,2.12-31.68,23.45-48.61,23.45s-32.26-21.33-48.59-23.45c-16.7-2.18-37.03,14.43-53,10.16-16.24-4.35-25.54-28.91-40.84-35.26-15.5-6.43-39.44,4.33-53.83-3.99-14.48-8.36-17.07-34.52-30.28-44.66-13.24-10.18-39.17-5.98-50.95-17.75-11.8-11.8-7.6-37.72-17.77-50.96-10.14-13.2-36.28-15.81-44.65-30.29-8.32-14.37,2.44-38.33-3.98-53.82-6.36-15.3-30.94-24.61-35.27-40.84-4.27-15.96,12.36-36.3,10.17-52.99-2.11-16.35-23.44-31.69-23.44-48.61s21.33-32.25,23.44-48.59c2.2-16.72-14.44-37.05-10.17-52.99,4.33-16.25,28.91-25.55,35.27-40.86,6.42-15.49-4.33-39.44,3.98-53.82,8.37-14.47,34.52-17.08,44.65-30.28,10.19-13.23,5.97-39.16,17.77-50.96,11.79-11.78,37.71-7.56,50.95-17.72,13.21-10.17,15.8-36.31,30.3-44.69,14.37-8.31,38.33,2.43,53.81-3.98,15.32-6.34,24.6-30.92,40.84-35.26,15.99-4.25,36.3,12.35,53,10.19,16.33-2.15,31.69-23.47,48.59-23.47s32.27,21.31,48.61,23.47c16.71,2.16,37.02-14.44,52.99-10.19,16.23,4.33,25.56,28.91,40.85,35.26,15.48,6.43,39.43-4.33,53.81,3.98,14.49,8.38,17.09,34.52,30.28,44.69,13.23,10.16,39.16,5.95,50.96,17.72,11.78,11.83,7.57,37.73,17.75,50.98,10.14,13.19,36.3,15.79,44.67,30.26,8.32,14.41-2.45,38.33,3.98,53.82,6.36,15.31,30.94,24.61,35.26,40.86,4.27,15.94-12.34,36.27-10.17,52.99,2.14,16.34,23.46,31.69,23.46,48.59Z"/>
    <g>
      <g>
        <path class="cls-9" d="M235.71,414.34s-76.15-40.23-228.64-33.88c0,0,74.62,60.94,93.91,104.32,0,0-42.79,11.26-93.91,62.62,0,0,141.92,22.84,220.94,64.98l7.7-198.04Z"/>
        <path class="cls-9" d="M841.62,653.97s80.11,36.64,232.58,30.3c0,0-74.61-60.97-93.9-104.35,0,0,42.78-11.23,93.9-62.6,0,0-141.9-22.85-220.95-64.99l-11.64,201.64Z"/>
      </g>
      <g>
        <path class="cls-5" d="M860,583.79l-11.9,65.81s72.8,21.37,81.02-13.99c9.46-40.64-69.12-51.82-69.12-51.82Z"/>
        <path class="cls-5" d="M221.39,480.29l7.87-62.34s-68.77-24.88-76.99,10.49c-9.47,40.64,69.13,51.85,69.13,51.85Z"/>
      </g>
    </g>
    <path class="cls-1" d="M877.78,508.43c0,186.2-150.92,337.13-337.13,337.13s-337.12-150.93-337.12-337.13,150.93-337.13,337.12-337.13,337.13,150.94,337.13,337.13Z"/>
    <path class="cls-9" d="M533,822.48h-.12c-3.43-.08-6.83-.23-10.21-.43-2.78-.14-4.91-2.52-4.77-5.29.15-2.8,2.53-5.08,5.32-4.76,3.3.16,6.58.3,9.9.38,2.79.07,5,2.38,4.92,5.16-.07,2.75-2.32,4.94-5.04,4.94ZM558.15,822.08c-2.66,0-4.88-2.07-5.04-4.78-.16-2.77,1.98-5.17,4.77-5.31,3.3-.19,6.59-.43,9.86-.73,2.83-.26,5.23,1.83,5.48,4.59.25,2.77-1.79,5.23-4.58,5.48-3.38.29-6.79.54-10.2.73-.1.02-.19.02-.29.02ZM497.9,819.63c-.22,0-.47-.02-.69-.06-3.4-.47-6.77-.97-10.11-1.55-2.76-.48-4.6-3.09-4.12-5.83.47-2.75,3.08-4.58,5.82-4.11,3.25.53,6.5,1.03,9.79,1.5,2.77.4,4.69,2.94,4.3,5.7-.35,2.53-2.51,4.35-4.99,4.35ZM593.13,818.12c-2.42,0-4.55-1.74-4.98-4.21-.47-2.72,1.38-5.36,4.14-5.81,3.26-.56,6.51-1.17,9.73-1.83,2.72-.54,5.4,1.21,5.96,3.94.56,2.72-1.2,5.4-3.94,5.94-3.33.69-6.68,1.33-10.06,1.89-.29.06-.57.08-.85.08ZM463.36,812.82c-.42,0-.84-.05-1.26-.15-3.32-.86-6.61-1.76-9.87-2.73-2.68-.78-4.21-3.58-3.43-6.24.79-2.69,3.61-4.21,6.26-3.45,3.15.93,6.34,1.81,9.55,2.65,2.69.67,4.31,3.43,3.63,6.13-.59,2.28-2.65,3.79-4.89,3.79ZM627.44,810.21c-2.19,0-4.21-1.44-4.85-3.66-.77-2.68.77-5.47,3.43-6.25,3.17-.92,6.33-1.89,9.46-2.91,2.63-.89,5.49.56,6.37,3.22.86,2.64-.59,5.5-3.23,6.36-3.23,1.08-6.5,2.08-9.77,3.02-.48.15-.95.22-1.42.22ZM429.81,802.08c-.59,0-1.2-.1-1.79-.31-3.2-1.24-6.38-2.51-9.53-3.85-2.57-1.11-3.77-4.05-2.68-6.61,1.08-2.6,4.06-3.79,6.62-2.71,3.04,1.32,6.11,2.53,9.19,3.72,2.61,1,3.9,3.94,2.9,6.53-.77,2.02-2.69,3.23-4.72,3.23ZM660.6,798.43c-1.96,0-3.84-1.17-4.64-3.1-1.09-2.58.11-5.52,2.7-6.61,3.03-1.27,6.03-2.59,9.01-3.98,2.57-1.17,5.54-.05,6.7,2.48,1.18,2.54.07,5.52-2.45,6.69-3.11,1.42-6.22,2.79-9.35,4.12-.63.26-1.29.4-1.96.4ZM397.69,787.57c-.79,0-1.6-.18-2.34-.57-3.04-1.59-6.04-3.22-9.01-4.9-2.43-1.38-3.29-4.44-1.9-6.88,1.37-2.42,4.45-3.27,6.88-1.92,2.87,1.64,5.76,3.2,8.71,4.75,2.46,1.29,3.43,4.33,2.14,6.8-.92,1.74-2.66,2.71-4.48,2.71ZM692.19,782.95c-1.77,0-3.49-.94-4.4-2.58-1.38-2.43-.51-5.52,1.91-6.89,2.87-1.62,5.72-3.26,8.53-4.98,2.38-1.45,5.49-.7,6.94,1.69,1.44,2.38.67,5.49-1.7,6.93-2.91,1.76-5.85,3.47-8.81,5.15-.78.46-1.64.68-2.47.68ZM367.44,769.5c-.99,0-1.97-.28-2.84-.88-2.82-1.9-5.63-3.86-8.37-5.85-2.27-1.65-2.77-4.8-1.13-7.05,1.65-2.28,4.79-2.77,7.05-1.15,2.68,1.95,5.38,3.85,8.13,5.7,2.3,1.58,2.9,4.72,1.34,7.02-.98,1.45-2.57,2.22-4.18,2.22ZM721.82,763.95c-1.57,0-3.11-.74-4.11-2.09-1.63-2.28-1.12-5.42,1.14-7.06,2.66-1.94,5.31-3.91,7.92-5.92,2.19-1.71,5.37-1.33,7.08.9,1.7,2.2,1.29,5.36-.9,7.08-2.7,2.07-5.42,4.12-8.18,6.11-.89.66-1.94.98-2.95.98ZM339.45,748.11c-1.16,0-2.32-.41-3.28-1.21-2.58-2.23-5.14-4.49-7.64-6.8-2.07-1.88-2.2-5.07-.33-7.11,1.88-2.06,5.08-2.21,7.14-.32,2.43,2.21,4.9,4.41,7.41,6.57,2.12,1.82,2.35,5.01.53,7.09-1.01,1.18-2.41,1.78-3.83,1.78ZM749.1,741.71c-1.38,0-2.72-.57-3.72-1.64-1.88-2.07-1.75-5.26.32-7.15,2.44-2.22,4.84-4.48,7.19-6.78,2-1.94,5.2-1.92,7.15.07,1.94,2.01,1.89,5.21-.1,7.15-2.45,2.38-4.92,4.72-7.44,7.01-.96.89-2.18,1.34-3.4,1.34ZM314.07,723.69c-1.35,0-2.7-.54-3.7-1.61-2.32-2.5-4.6-5.04-6.83-7.6-1.82-2.09-1.61-5.29.5-7.11,2.11-1.83,5.29-1.61,7.13.49,2.16,2.49,4.36,4.94,6.61,7.36,1.89,2.05,1.77,5.24-.26,7.13-.98.93-2.22,1.35-3.44,1.35ZM773.7,716.54c-1.18,0-2.36-.44-3.32-1.26-2.11-1.83-2.32-5.02-.5-7.11,2.18-2.5,4.32-5.01,6.4-7.58,1.75-2.15,4.92-2.48,7.1-.7,2.16,1.74,2.48,4.92.7,7.1-2.15,2.65-4.34,5.24-6.58,7.81-1,1.15-2.41,1.75-3.81,1.75ZM291.62,696.56c-1.54,0-3.07-.7-4.06-2.03-2.02-2.75-3.99-5.52-5.92-8.34-1.59-2.28-1-5.44,1.29-7.01,2.31-1.58,5.45-1.01,7.01,1.31,1.87,2.7,3.79,5.38,5.74,8.05,1.66,2.24,1.18,5.4-1.08,7.05-.9.67-1.94.98-2.98.98ZM795.31,688.69c-1.01,0-1.99-.28-2.86-.88-2.31-1.57-2.88-4.71-1.31-7.01,1.87-2.73,3.71-5.48,5.5-8.26,1.52-2.35,4.63-3.03,6.98-1.49,2.34,1.49,3.02,4.6,1.52,6.96-1.85,2.88-3.75,5.71-5.68,8.5-.98,1.44-2.56,2.19-4.15,2.19ZM272.4,667.1c-1.75,0-3.45-.92-4.38-2.53-1.7-2.97-3.33-5.95-4.94-8.95-1.31-2.45-.38-5.5,2.08-6.83,2.47-1.33,5.52-.36,6.83,2.08,1.54,2.91,3.14,5.81,4.78,8.66,1.4,2.43.56,5.5-1.86,6.88-.79.46-1.66.69-2.51.69ZM813.62,658.6c-.8,0-1.61-.2-2.36-.6-2.47-1.31-3.4-4.37-2.08-6.81,1.54-2.92,3.05-5.87,4.51-8.83,1.23-2.51,4.26-3.54,6.76-2.33,2.51,1.24,3.55,4.26,2.3,6.77-1.5,3.07-3.06,6.11-4.65,9.13-.92,1.69-2.67,2.68-4.47,2.68ZM256.66,635.63c-1.97,0-3.82-1.13-4.64-3.04-1.33-3.12-2.63-6.27-3.88-9.44-1.01-2.6.26-5.52,2.86-6.55,2.59-1,5.52.26,6.54,2.86,1.2,3.05,2.46,6.1,3.77,9.12,1.09,2.57-.09,5.52-2.66,6.62-.65.28-1.31.41-1.98.41ZM828.39,626.59c-.61,0-1.25-.11-1.85-.33-2.6-1.04-3.87-3.96-2.85-6.56,1.2-3.09,2.36-6.19,3.47-9.29.93-2.64,3.84-4,6.44-3.07,2.63.94,4,3.82,3.07,6.45-1.14,3.21-2.34,6.42-3.59,9.6-.79,1.99-2.69,3.21-4.7,3.21ZM244.62,602.58c-2.18,0-4.17-1.41-4.85-3.6-.98-3.26-1.91-6.53-2.78-9.83-.72-2.7.88-5.46,3.58-6.19,2.69-.69,5.45.91,6.17,3.6.84,3.18,1.75,6.36,2.7,9.52.79,2.68-.72,5.49-3.4,6.29-.49.16-.96.22-1.44.22ZM839.39,593.11c-.43,0-.86-.06-1.3-.15-2.7-.73-4.29-3.49-3.58-6.19.83-3.17,1.63-6.39,2.37-9.6.63-2.72,3.36-4.42,6.06-3.8,2.72.64,4.41,3.35,3.79,6.05-.78,3.33-1.6,6.65-2.47,9.94-.61,2.26-2.64,3.75-4.88,3.75ZM236.43,568.33c-2.41,0-4.54-1.7-4.97-4.15-.6-3.34-1.16-6.69-1.63-10.1-.41-2.76,1.51-5.31,4.26-5.7,2.75-.48,5.31,1.5,5.72,4.25.48,3.28,1.01,6.53,1.59,9.77.5,2.74-1.32,5.36-4.07,5.85-.3.06-.6.07-.89.07ZM846.46,558.62c-.23,0-.48-.02-.73-.05-2.75-.4-4.68-2.96-4.26-5.72.48-3.26.9-6.54,1.27-9.83.33-2.76,2.7-4.79,5.58-4.44,2.78.32,4.77,2.81,4.46,5.6-.4,3.39-.83,6.77-1.33,10.14-.36,2.5-2.52,4.32-4.99,4.32ZM232.21,533.39c-2.65,0-4.86-2.06-5.04-4.72-.22-3.4-.38-6.8-.48-10.24-.09-2.78,2.08-5.12,4.88-5.2,2.59-.2,5.13,2.08,5.19,4.88.12,3.3.27,6.61.48,9.91.19,2.78-1.93,5.18-4.72,5.35-.1,0-.2.02-.32.02ZM849.56,523.54h-.15c-2.8-.08-4.97-2.42-4.88-5.18.11-3.29.16-6.61.16-9.92l-.02-4.49c-.05-2.79,2.18-5.07,4.97-5.12h.07c2.75,0,5,2.23,5.04,4.99l.04,4.59c0,3.43-.07,6.86-.17,10.26-.11,2.75-2.33,4.87-5.05,4.87ZM231.96,498.17h-.25c-2.78-.14-4.92-2.5-4.8-5.29.17-3.4.39-6.82.67-10.23.23-2.77,2.75-4.83,5.43-4.6,2.78.22,4.85,2.66,4.63,5.44-.28,3.29-.49,6.57-.65,9.87-.14,2.7-2.36,4.8-5.04,4.8ZM848.32,483.84c-2.56,0-4.77-1.98-5.01-4.59-.32-3.31-.68-6.58-1.11-9.84-.34-2.76,1.6-5.27,4.37-5.64,2.77-.32,5.29,1.61,5.65,4.34.43,3.38.81,6.78,1.14,10.18.27,2.78-1.77,5.25-4.54,5.5-.18.02-.33.05-.5.05ZM235.66,463.16c-.27,0-.54-.02-.81-.06-2.75-.46-4.62-3.04-4.17-5.79.56-3.39,1.16-6.74,1.81-10.08.54-2.72,3.2-4.54,5.94-3.97,2.75.54,4.52,3.2,3.98,5.94-.64,3.23-1.23,6.47-1.76,9.74-.4,2.48-2.55,4.23-4.98,4.23ZM842.99,449.02c-2.34,0-4.43-1.63-4.94-3.99-.68-3.24-1.42-6.47-2.21-9.67-.67-2.69.99-5.42,3.69-6.1,2.72-.67,5.45.99,6.13,3.7.81,3.31,1.56,6.63,2.27,9.99.58,2.7-1.18,5.4-3.9,5.96-.35.08-.7.12-1.05.12ZM243.33,428.78c-.45,0-.92-.05-1.39-.18-2.67-.77-4.23-3.54-3.47-6.23.93-3.28,1.92-6.57,2.95-9.79.86-2.67,3.68-4.13,6.35-3.27,2.66.84,4.12,3.68,3.27,6.34-1,3.13-1.95,6.29-2.86,9.46-.63,2.25-2.66,3.68-4.86,3.68ZM833.73,415.04c-2.1,0-4.06-1.31-4.78-3.42-1.06-3.13-2.15-6.25-3.32-9.33-.96-2.63.37-5.53,2.98-6.5,2.62-.97,5.51.34,6.48,2.96,1.2,3.18,2.33,6.4,3.42,9.64.88,2.63-.53,5.5-3.18,6.39-.52.2-1.06.26-1.61.26ZM254.91,395.52c-.66,0-1.31-.13-1.93-.39-2.59-1.06-3.8-4.01-2.75-6.59,1.3-3.16,2.66-6.31,4.07-9.42,1.14-2.53,4.13-3.67,6.68-2.52,2.53,1.15,3.66,4.14,2.52,6.68-1.36,3.01-2.68,6.05-3.95,9.11-.79,1.95-2.68,3.12-4.65,3.12ZM820.63,382.39c-1.9,0-3.71-1.09-4.58-2.94-1.4-2.97-2.84-5.95-4.34-8.85-1.26-2.5-.28-5.52,2.22-6.79,2.47-1.26,5.51-.28,6.78,2.2,1.53,3.03,3.03,6.08,4.49,9.17,1.19,2.53.11,5.55-2.42,6.71-.7.34-1.43.5-2.15.5ZM270.2,363.76c-.84,0-1.67-.21-2.45-.62-2.43-1.35-3.32-4.44-1.96-6.87,1.66-2.99,3.36-5.97,5.11-8.87,1.43-2.41,4.55-3.21,6.93-1.75,2.39,1.43,3.17,4.54,1.74,6.94-1.69,2.83-3.35,5.69-4.94,8.59-.93,1.66-2.66,2.59-4.42,2.59ZM803.9,351.44c-1.7,0-3.33-.85-4.31-2.42-1.73-2.79-3.5-5.56-5.32-8.32-1.54-2.32-.9-5.45,1.42-7,2.33-1.54,5.46-.91,7,1.43,1.88,2.84,3.7,5.72,5.49,8.6,1.48,2.39.72,5.49-1.65,6.96-.81.51-1.74.75-2.65.75ZM289.01,333.97c-1.01,0-2.04-.3-2.93-.94-2.27-1.61-2.79-4.76-1.17-7.04,1.98-2.78,4-5.54,6.09-8.24,1.68-2.2,4.87-2.62,7.07-.93,2.22,1.68,2.63,4.86.94,7.06-2,2.63-3.97,5.29-5.89,7.97-.98,1.38-2.53,2.12-4.12,2.12ZM783.75,322.58c-1.5,0-2.97-.67-3.97-1.91-2.04-2.6-4.11-5.17-6.24-7.7-1.79-2.13-1.52-5.31.62-7.11,2.14-1.78,5.32-1.51,7.11.62,2.18,2.62,4.34,5.25,6.44,7.95,1.72,2.17,1.34,5.35-.84,7.08-.93.72-2.03,1.08-3.13,1.08ZM311.09,306.52c-1.21,0-2.41-.43-3.38-1.29-2.07-1.89-2.23-5.07-.37-7.15,2.3-2.53,4.61-5.01,6.98-7.47,1.92-2.01,5.13-2.07,7.14-.14,2,1.94,2.07,5.14.14,7.14-2.29,2.38-4.54,4.79-6.75,7.24-.99,1.12-2.38,1.68-3.76,1.68ZM760.47,296.19c-1.31,0-2.61-.5-3.61-1.51-2.33-2.34-4.68-4.64-7.07-6.93-2-1.9-2.09-5.12-.19-7.14,1.93-2,5.13-2.1,7.15-.17,2.47,2.32,4.9,4.72,7.31,7.14,1.95,1.99,1.94,5.18-.04,7.15-.98.96-2.27,1.46-3.54,1.46ZM336.13,281.74c-1.4,0-2.79-.57-3.79-1.69-1.84-2.1-1.64-5.28.46-7.14,2.54-2.26,5.14-4.45,7.76-6.63,2.15-1.79,5.33-1.49,7.1.66,1.79,2.13,1.49,5.32-.66,7.12-2.54,2.07-5.06,4.22-7.54,6.42-.95.84-2.14,1.25-3.33,1.25ZM734.33,272.57c-1.13,0-2.25-.35-3.18-1.11-2.56-2.08-5.17-4.09-7.81-6.09-2.22-1.68-2.68-4.86-1-7.06,1.68-2.23,4.85-2.69,7.06-1,2.74,2.05,5.43,4.13,8.09,6.26,2.17,1.75,2.51,4.94.76,7.11-1,1.24-2.45,1.88-3.93,1.88ZM363.79,259.97c-1.59,0-3.15-.75-4.15-2.17-1.59-2.28-1.03-5.42,1.27-7.04,2.78-1.94,5.59-3.84,8.44-5.71,2.34-1.49,5.46-.86,6.99,1.48,1.53,2.34.88,5.46-1.47,6.99-2.76,1.81-5.49,3.63-8.2,5.54-.87.61-1.89.9-2.88.9ZM705.66,252.08c-.92,0-1.86-.25-2.69-.77-2.79-1.77-5.62-3.5-8.46-5.16-2.4-1.43-3.21-4.53-1.8-6.93,1.42-2.4,4.5-3.21,6.91-1.79,2.95,1.74,5.86,3.53,8.76,5.35,2.35,1.46,3.04,4.6,1.54,6.96-.95,1.52-2.59,2.34-4.27,2.34ZM393.75,241.48c-1.8,0-3.54-.95-4.46-2.66-1.32-2.44-.4-5.5,2.05-6.81,2.98-1.63,6-3.21,9.05-4.73,2.49-1.23,5.53-.22,6.78,2.27,1.25,2.5.23,5.51-2.26,6.76-2.95,1.48-5.87,3-8.77,4.57-.77.41-1.59.6-2.39.6ZM674.85,234.96c-.72,0-1.46-.14-2.17-.49-2.99-1.44-5.98-2.83-9.02-4.16-2.54-1.15-3.7-4.12-2.57-6.67,1.14-2.55,4.09-3.71,6.68-2.55,3.11,1.36,6.22,2.79,9.28,4.28,2.52,1.2,3.58,4.22,2.38,6.73-.88,1.81-2.68,2.85-4.57,2.85ZM425.57,226.52c-2,0-3.89-1.18-4.68-3.14-1.05-2.6.21-5.54,2.81-6.59,3.15-1.27,6.33-2.48,9.53-3.67,2.61-.93,5.52.4,6.48,3.02.96,2.61-.4,5.53-3,6.49-3.11,1.13-6.19,2.32-9.26,3.53-.61.26-1.25.35-1.88.35ZM642.3,221.49c-.56,0-1.12-.07-1.66-.28-3.14-1.09-6.26-2.12-9.44-3.1-2.66-.85-4.15-3.66-3.33-6.33.83-2.65,3.67-4.13,6.33-3.32,3.26,1.02,6.52,2.09,9.75,3.22,2.63.93,4.03,3.79,3.11,6.43-.72,2.09-2.68,3.38-4.77,3.38ZM458.94,215.32c-2.21,0-4.24-1.48-4.87-3.72-.72-2.7.86-5.48,3.54-6.2,3.29-.89,6.59-1.75,9.91-2.54,2.72-.62,5.44,1.03,6.08,3.75.63,2.72-1.04,5.42-3.75,6.08-3.22.76-6.41,1.58-9.58,2.44-.45.15-.9.2-1.35.2ZM608.41,211.84c-.38,0-.74-.04-1.11-.12-3.22-.71-6.44-1.4-9.71-2-2.72-.52-4.54-3.16-4.01-5.9.52-2.74,3.14-4.5,5.9-4.02,3.35.62,6.69,1.33,10.02,2.06,2.73.62,4.43,3.3,3.82,6.05-.52,2.34-2.61,3.93-4.91,3.93ZM493.38,207.99c-2.45,0-4.61-1.8-4.98-4.3-.42-2.73,1.47-5.31,4.23-5.74,3.35-.52,6.73-.97,10.12-1.39,2.82-.29,5.28,1.63,5.62,4.41.33,2.77-1.65,5.27-4.41,5.6-3.28.39-6.55.87-9.81,1.37-.25.02-.52.05-.77.05ZM573.67,206.14c-.18,0-.38,0-.54-.05-3.26-.34-6.56-.63-9.86-.87-2.78-.2-4.87-2.62-4.67-5.42.2-2.77,2.47-4.9,5.4-4.65,3.41.25,6.8.54,10.19.9,2.77.32,4.78,2.79,4.48,5.56-.28,2.6-2.46,4.52-5,4.52ZM528.43,204.64c-2.69,0-4.94-2.14-5.04-4.87-.1-2.77,2.07-5.1,4.85-5.24,3.4-.12,6.81-.2,10.21-.22h.05c2.77,0,5.01,2.23,5.04,5.01.03,2.78-2.23,5.06-5.01,5.08-3.32.02-6.6.11-9.9.22-.07.02-.12.02-.19.02Z"/>
    <path class="cls-3" d="M820.46,508.43c0,154.53-125.26,279.81-279.81,279.81s-279.8-125.28-279.8-279.81,125.28-279.8,279.8-279.8,279.81,125.26,279.81,279.8Z"/>
  </g>
  <path class="cls-4" d="M312.3,470.09c-6.58-4.67-12.16-9.16-16.74-13.46-6.13-5.75-9.59-10.42-10.38-13.99-.82-3.71.75-6.32,4.71-7.81,3.41-1.27,6.91-1.41,10.5-.4,2.2,2.16,3.75,4.47,4.65,6.93.47,1.29.93,3.44,1.39,6.45.42,2.72,1.01,4.89,1.79,6.51,1.15,2.47,3.06,4.83,5.72,7.08-1.29-1.74-2.22-4.11-2.78-7.1-.18-.95-.36-2.25-.56-3.91-.23-1.89-.41-3.2-.53-3.94-.5-3.04-1.31-5.42-2.43-7.15-1.5-2.28-3.77-3.94-6.8-4.96,1.21-.62,2.67-.59,4.38.08,1.52.61,3.11,1.66,4.76,3.17,3.4,3.11,5.61,6.31,6.62,9.6.26.88.58,3.26.97,7.12.26,2.76,1.12,5.23,2.57,7.39.83,1.25,2.85,3.53,6.07,6.83-2.67-3.59-4.28-7.94-4.84-13.06-.57-5.21-1.04-8.36-1.42-9.44-1.31-3.77-4.09-6.75-8.33-8.94,3.34-.05,6.58,1.67,9.72,5.16,2.77,3.1,4.65,6.49,5.62,10.16.28,1.06.43,2.4.43,4,0,2,.04,3.27.11,3.8.51,3.99,3.14,8.15,7.89,12.46-1.83-2.24-2.97-4.78-3.41-7.61-.1-.59-.24-3.05-.41-7.39-.12-2.95-.65-5.4-1.58-7.34-1.29-2.71-3.61-5.24-6.94-7.58,1.59.25,3.56,1.26,5.88,3.02,2.16,1.61,3.89,3.27,5.2,4.99,1.47,1.88,2.56,4.05,3.28,6.51.15.47.63,2.63,1.45,6.48.57,2.62,1.3,4.8,2.2,6.55,1.24,2.39,3.09,4.62,5.54,6.68-1.63-1.91-2.79-3.98-3.49-6.22-.36-1.15-.72-3.09-1.09-5.83-.34-2.48-.8-4.45-1.38-5.91-.88-2.21-2.32-4.31-4.31-6.3,8.97,7.6,14.93,13.27,17.89,17,5.34,6.73,5.94,11.79,1.79,15.17-3.93,3.16-12.02,2.34-24.28-2.48-7.75-3.05-15.53-7.48-23.32-13.28-8.55-6.35-15.38-13.13-20.49-20.33,6.24,8.28,15.1,16.16,26.58,23.62,11.03,7.16,20.24,11.29,27.61,12.39-10.59-3.23-20.53-8.15-29.81-14.76ZM288.08,439.77c-.35,3.55,2.35,8.29,8.1,14.24,4.53,4.69,10.13,9.39,16.79,14.1,9.1,6.41,17.28,10.62,24.53,12.63-5.12-1.48-11.64-4.83-19.56-10.04-8-5.27-15.15-10.94-21.45-17.04-5.91-5.72-8.72-10.35-8.41-13.89ZM294.41,438.32c.05.21.22.43.48.67s.51.37.72.4c.29-.26.35-.54.18-.85-.16-.3-.46-.54-.91-.75l-.47.53ZM293.33,443.97c.51.43.93.5,1.26.2-.14-.18-.13-.33.04-.44-.73-.83-1.25-.91-1.58-.25.22.29.31.46.28.49ZM295.35,446.48c.3-.4.13-.87-.51-1.4-.41-.03-.65.12-.69.48-.03.37.22.7.76,1.01.23-.09.38-.12.44-.09ZM297.42,447.38l.8.71c.41-.05.56-.27.45-.66-.1-.39-.4-.68-.88-.87-.29.22-.41.49-.37.82ZM303.08,453.88c.28.25.53.38.73.39.41-.37.34-.82-.21-1.37-.05.06-.23.07-.53.03-.22-.02-.38.07-.46.27.04.22.2.44.47.68ZM350.39,472.72c.07.22.25.42.54.6.21.03.4-.04.55-.22s.21-.37.15-.58c-.61-.6-1.1-.72-1.47-.36.05.07.13.26.22.56ZM351.76,478.8c.28.25.53.38.73.39.25-.15.32-.36.21-.64-.03-.07-.09-.18-.19-.34-.11-.18-.19-.31-.24-.39-.04.04-.22.05-.52.04-.22-.02-.37.08-.44.29.03.2.17.42.44.66Z"/>
  <g>
    <path class="cls-4" d="M341.2,376.21c2.55-.9,5.06-1.41,7.52-1.52,2.46-.11,4.7.05,6.71.48,3.54.75,6.5,2.12,8.88,4.1,2.38,1.98,3.86,4.36,4.43,7.14.18.81.28,1.82.28,3.02,0,1.2-.25,2.52-.74,3.95-.5,1.44-1.35,2.94-2.56,4.52-1.21,1.58-2.89,3.19-5.06,4.82-.53.38-1.09.73-1.68,1.08-.6.34-1.23.71-1.89,1.09,2.33,1.23,4.45,2.77,6.34,4.61,1.89,1.84,3.53,3.85,4.93,6.03,1.4,2.18,2.54,4.49,3.44,6.94.9,2.45,1.52,4.89,1.87,7.34.75,5.78.23,10.88-1.56,15.3,1.71,1.06,3.37,1.94,4.99,2.63,1.62.69,3.29,1.12,5.01,1.3,1.72.17,3.48.05,5.27-.36,1.79-.41,3.68-1.16,5.67-2.24.93-.54,1.86-.68,2.8-.42.94.25,1.68.84,2.21,1.77.47.93.57,1.87.32,2.81-.25.94-.84,1.68-1.77,2.21-2.85,1.61-5.56,2.66-8.14,3.15-2.58.49-5.04.62-7.38.39-2.34-.24-4.59-.81-6.73-1.71-2.14-.9-4.18-1.98-6.1-3.23-2.75,3.31-6.48,5.69-11.19,7.14-1.89.45-3.52.72-4.89.8-3.89.23-7.14-.57-9.75-2.4-2.61-1.83-4.57-3.98-5.88-6.43-1.77-3.32-2.43-6.67-1.98-10.06.45-3.38,1.82-6.03,4.1-7.95.85-.67,1.96-1.26,3.34-1.79,1.37-.53,3.06-.68,5.06-.45,2,.23,4.34.94,7.02,2.15,2.67,1.21,5.74,3.26,9.2,6.13l2.58,2.01c.45-1.6.7-3.23.74-4.87.04-1.65-.06-3.25-.29-4.81-.37-2.72-1.16-5.41-2.38-8.08-1.22-2.67-2.82-5.04-4.79-7.12-1.97-2.08-4.28-3.74-6.93-4.98-2.64-1.25-5.61-1.88-8.9-1.89-1.17-.07-2.08-.49-2.75-1.28-.77-.3-1.37-.81-1.79-1.54-.42-.73-.59-1.54-.5-2.44.15-.97.63-1.77,1.45-2.4.82-.63,1.71-.87,2.68-.72,1.04.14,2.17.16,3.4.06,1.23-.11,2.48-.34,3.76-.69,1.28-.35,2.49-.76,3.63-1.24,1.14-.48,2.16-1.05,3.08-1.72,1.97-1.49,3.42-2.98,4.36-4.47.94-1.49,1.27-2.92.98-4.27-.35-1.35-1.21-2.53-2.57-3.55-1.36-1.01-3.05-1.74-5.06-2.17-2.01-.43-4.23-.47-6.64-.12-2.41.35-4.88,1.18-7.41,2.49l-8.11,52.18c-.15.9-.54,1.64-1.15,2.23-.62.59-1.37.9-2.26.96-.14,0-.27,0-.41-.03-.14-.02-.28-.03-.41-.03-.97-.21-1.76-.73-2.35-1.56-.6-.82-.82-1.71-.67-2.68l6.85-43.99c-.71.8-1.38,1.66-2.01,2.59-.64.79-1.45,1.29-2.43,1.48-.98.2-1.9-.02-2.76-.66-.79-.57-1.26-1.36-1.43-2.38-.16-1.02.04-1.92.61-2.71,1.52-2.15,3.1-4.02,4.75-5.63,1.65-1.6,3.33-3.01,5.04-4.2l.76-4.47c.14-1.04.62-1.85,1.45-2.45.82-.6,1.71-.82,2.68-.67.9.15,1.64.55,2.23,1.2.59.65.87,1.42.86,2.31ZM355.01,451.45c1.55-.44,2.92-1.03,4.11-1.79,1.19-.76,2.23-1.61,3.14-2.55-.58-.51-1.17-1.01-1.78-1.49-.61-.48-1.21-.97-1.78-1.49-3.17-2.55-5.84-4.31-8.02-5.28-2.18-.97-3.96-1.41-5.32-1.33-.89.05-1.56.3-2.01.74-.92.74-1.41,1.97-1.48,3.69-.07,1.72.32,3.41,1.17,5.07.24.53.65,1.16,1.24,1.88.59.72,1.37,1.36,2.32,1.92.96.56,2.13.94,3.51,1.13,1.38.19,3.02.03,4.9-.5Z"/>
    <path class="cls-4" d="M388.66,436.5c-2.19.13-3.94-.3-5.27-1.28-1.33-.98-2.33-2.26-3-3.83-.67-1.57-1.08-3.31-1.23-5.22-.15-1.91-.16-3.78-.02-5.6s.33-3.45.58-4.87c.26-1.42.47-2.41.65-2.97.34-1.12.82-2.43,1.41-3.94.59-1.51,1.35-3.01,2.25-4.5.9-1.49,1.99-2.88,3.25-4.15,1.26-1.27,2.73-2.27,4.4-2.98.6-.24,1.38-.46,2.32-.65.95-.19,1.99-.31,3.12-.34,1.13-.03,2.3.04,3.51.2,1.21.17,2.38.49,3.5.97.12-.28.18-.49.17-.63.28-.98.84-1.74,1.66-2.31.82-.56,1.72-.73,2.69-.52,1.04.21,1.84.75,2.41,1.6.56.86.7,1.78.42,2.75-.26,1.39-.61,2.78-1.04,4.17-.43,1.4-.88,2.79-1.34,4.19-.99,3.01-1.84,6-2.55,8.99-.71,2.99-.86,5.77-.43,8.35.21,1.22.43,2.13.68,2.73.24.6.43.97.58,1.1.54-.17,1.29-.76,2.26-1.78.97-1.02,1.88-2.44,2.73-4.27.86-1.7,1.66-3.49,2.41-5.38.74-1.89,1.44-3.79,2.08-5.67l.45-1.16c.35-.98.98-1.68,1.88-2.12.9-.43,1.84-.47,2.82-.12.98.29,1.68.89,2.11,1.83.43.94.47,1.89.12,2.87l-.45,1.16c-.7,2.03-1.42,4.04-2.16,6.04s-1.63,3.95-2.68,5.86c-.61,1.27-1.33,2.49-2.15,3.67-.82,1.18-1.72,2.24-2.69,3.19-.97.95-2,1.73-3.1,2.34-1.09.61-2.22.95-3.38,1.02-.41.02-.89-.01-1.45-.12-.9-.15-1.83-.52-2.79-1.12-.96-.59-1.86-1.62-2.7-3.08-.9,1.08-2.19,2.03-3.89,2.85-1.7.82-3.15,1.44-4.36,1.85-1.41.49-2.66.77-3.75.84ZM387.38,414.89c-.17.63-.42,1.81-.77,3.54-.34,1.73-.53,3.47-.56,5.22-.03,1.75.22,3.19.77,4.32.55,1.13,1.59,1.38,3.13.74.6-.24,1.32-.61,2.14-1.1.83-.5,1.63-1.14,2.4-1.94.77-.8,1.5-1.73,2.2-2.8.69-1.07,1.24-2.23,1.64-3.49.05-.28.17-.52.37-.74.2-2.41.64-4.82,1.32-7.22.68-2.4,1.36-4.72,2.05-6.96-.07,0-.14-.02-.21-.09-2.04-.97-3.8-1.18-5.28-.61-.74.32-1.55.8-2.43,1.43-.89.64-1.77,1.44-2.63,2.42-.87.98-1.68,2.07-2.43,3.28-.75,1.21-1.32,2.55-1.72,4.01Z"/>
    <path class="cls-4" d="M415.25,433.33c-.69-.75-1.04-1.6-1.03-2.56-.01-.21,0-.45.06-.72s.13-.71.23-1.3c.1-.59.21-1.36.32-2.33.11-.97.3-2.21.55-3.73.29-2,.66-4.42,1.11-7.26.45-2.84.92-5.84,1.42-9.03.5-3.18.96-6.41,1.38-9.69.42-3.28.78-6.44,1.08-9.47.3-3.03.51-5.79.64-8.26.13-2.47.11-4.46-.04-5.96-.06-.96.23-1.83.87-2.62.64-.79,1.47-1.25,2.49-1.38,1.02-.13,1.91.14,2.67.82.76.67,1.2,1.49,1.33,2.44.17,1.7.19,3.86.08,6.47-.12,2.61-.33,5.47-.62,8.57-.3,3.1-.67,6.34-1.12,9.73-.45,3.39-.92,6.74-1.41,10.05,2.58-1.59,4.95-3.2,7.11-4.84,2.16-1.64,4.06-3.12,5.7-4.45,1.63-1.33,3.36-2.87,5.17-4.62.57-.86,1.34-1.4,2.32-1.63.98-.23,1.9-.06,2.75.5.85.5,1.39,1.24,1.62,2.22.23.98.1,1.9-.4,2.75-.06.14-.56.65-1.5,1.53-.94.88-2.19,2-3.76,3.36-1.56,1.36-3.41,2.89-5.54,4.59-2.13,1.7-4.41,3.38-6.84,5.03.58,2.78,1.45,5.6,2.61,8.48,1.16,2.88,2.52,5.5,4.06,7.88,1.54,2.38,3.24,4.42,5.09,6.12,1.85,1.7,3.78,2.77,5.79,3.2,1.11.28,2.14.3,3.09.07.95-.23,1.85-.57,2.71-1.04.86-.46,1.64-.97,2.33-1.52.69-.55,1.32-1.09,1.91-1.6.71-.66,1.59-.99,2.61-.98,1.03,0,1.87.37,2.53,1.08.73.71,1.08,1.58,1.08,2.61,0,1.03-.4,1.91-1.18,2.64-1.1,1.09-2.31,2.11-3.62,3.04-1.32.93-2.71,1.69-4.18,2.25s-3.01.91-4.61,1.04c-1.6.13-3.21-.07-4.82-.59-3.07-.91-5.82-2.5-8.25-4.75-2.43-2.26-4.58-4.76-6.46-7.53-1.88-2.77-3.43-5.6-4.67-8.51-1.24-2.91-2.13-5.51-2.67-7.81-.27.08-.54.24-.8.46-.14,0-.34.09-.6.24-.19,1.38-.39,2.7-.59,3.94-.2,1.25-.4,2.46-.61,3.63-.25,1.66-.48,3.16-.71,4.51-.23,1.35-.33,2.2-.31,2.54-.08.97-.44,1.79-1.09,2.48-.65.69-1.45,1.06-2.4,1.12l-.31.02c-1.03-.07-1.9-.49-2.59-1.23Z"/>
    <path class="cls-4" d="M457.24,431.61c-2.3-.62-4.18-1.81-5.66-3.57-1.48-1.76-2.46-3.93-2.96-6.51-.38-1.76-.51-3.77-.41-6.04.11-2.27.45-4.55,1.03-6.84.58-2.3,1.39-4.52,2.43-6.67,1.04-2.15,2.33-4.06,3.87-5.73.97-1.02,2.25-1.98,3.84-2.9s3.28-1.6,5.07-2.05c1.79-.45,3.54-.6,5.27-.47,1.72.14,3.2.75,4.43,1.84,1.52,1.35,2.54,3.04,3.08,5.06.53,2.02.49,4.19-.13,6.48-.45,1.6-1.2,3.22-2.23,4.86-1.03,1.64-2.28,3.13-3.74,4.49-1.46,1.36-3.09,2.5-4.89,3.42-1.79.93-3.61,1.45-5.46,1.56-.96.06-1.88,0-2.79-.2-.9-.18-1.74-.43-2.51-.72.03.48.05.92.08,1.33.02.41.11.78.27,1.11.3,1.63.78,2.73,1.43,3.31.65.58,1.32.95,2.02,1.11,1.18.34,2.56.38,4.12.12,1.56-.26,3.11-.71,4.65-1.36,1.54-.64,3-1.38,4.39-2.21,1.39-.84,2.47-1.69,3.24-2.56,1.23-1.24,2.85-3.13,4.85-5.68,2.01-2.55,3.9-5.53,5.69-8.92.49-.92,1.21-1.53,2.15-1.82.94-.3,1.87-.2,2.79.3.92.5,1.53,1.21,1.82,2.15.3.94.2,1.87-.3,2.79-1.97,3.82-4.08,7.13-6.35,9.94-2.27,2.81-4.04,4.94-5.33,6.38-.9.95-2.05,1.89-3.43,2.82-1.38.94-2.91,1.82-4.57,2.64-1.67.82-3.39,1.5-5.17,2.05-1.78.55-3.56.88-5.34.98-1.71.1-3.46-.07-5.27-.51ZM469.35,398.31c-.75.04-1.44.05-2.06.02-.62-.03-1.25,0-1.89.11-.65.11-1.31.37-2.01.79-.69.42-1.53,1.07-2.51,1.95-1.11,1.02-2.01,2.31-2.7,3.86-.7,1.55-1.27,3.16-1.72,4.83,1.09,1.03,2.35,1.46,3.78,1.27,1.43-.19,2.8-.7,4.12-1.53,1.32-.83,2.49-1.91,3.51-3.24,1.02-1.33,1.7-2.62,2.03-3.87.16-.69.26-1.44.28-2.23.02-.79-.26-1.44-.83-1.96Z"/>
    <path class="cls-4" d="M490.21,407.05c-1.55.37-2.76.28-3.61-.25-.85-.53-1.43-.96-1.72-1.29-1.33-1.63-1.59-3.74-.79-6.33.81-2.58,2.09-5.78,3.85-9.58.55-1.2,1.09-2.41,1.63-3.64.54-1.23.96-2.33,1.24-3.31.35-.98.98-1.67,1.88-2.06.9-.4,1.84-.45,2.82-.17.98.35,1.68.98,2.12,1.88.43.9.5,1.84.22,2.81-.41,1.12-.91,2.33-1.48,3.63-.57,1.3-1.17,2.59-1.78,3.86-.3.77-.67,1.65-1.13,2.64-.46.99-.86,1.97-1.21,2.95.2-.15.41-.3.64-.45.23-.15.44-.3.64-.45,1.12-.82,2.34-1.59,3.67-2.32,1.33-.73,2.87-1.21,4.64-1.46,1.77-.24,3.15-.12,4.13.37.99.49,1.71,1.03,2.15,1.62,1.26,1.64,1.55,3.61.86,5.91-.69,2.3-1.66,4.93-2.92,7.88-.42.99-.9,2.15-1.44,3.48-.54,1.33-1.01,2.65-1.41,3.94-.4,1.29-.66,2.44-.77,3.44-.11,1,.08,1.66.58,1.97.78.43,2,.29,3.67-.42,1.74-.72,3.36-1.93,4.87-3.63,1.51-1.7,2.86-3.53,4.04-5.48,1.18-1.95,2.18-3.92,2.99-5.88.81-1.97,1.38-3.64,1.71-5.04.28-.98.86-1.71,1.72-2.21.86-.49,1.78-.6,2.76-.32.98.29,1.73.86,2.26,1.72.53.86.65,1.78.37,2.75-.45,1.74-1.18,3.82-2.2,6.25-1.02,2.43-2.28,4.85-3.78,7.27-1.5,2.42-3.24,4.66-5.2,6.73-1.97,2.07-4.15,3.62-6.56,4.66-1.81.72-3.39,1.13-4.76,1.21-1.16.07-2.2-.02-3.1-.28-.91-.26-1.64-.54-2.21-.85-2.05-1.11-3.37-2.54-3.95-4.29-.58-1.75-.73-3.62-.44-5.63.29-2,.84-4.07,1.64-6.21s1.62-4.16,2.47-6.06c.3-.77.66-1.63,1.08-2.58.42-.95.78-1.81,1.08-2.58-.67.25-1.3.56-1.9.94-.59.38-1.22.79-1.88,1.24-1.06.68-2.18,1.36-3.37,2.05-1.19.69-2.57,1.21-4.12,1.58Z"/>
    <path class="cls-4" d="M534.17,429c-2.47-.06-4.44-.54-5.89-1.45-1.46-.91-2.43-1.89-2.9-2.96-.24-.6-.35-1.28-.33-2.04.02-.75.17-1.43.44-2.03.27-.6.65-1.1,1.14-1.51.49-.41,1.08-.59,1.76-.57.96.08,1.7.43,2.22,1.05.52.62,1.23,1.18,2.16,1.67.85.5,1.6.69,2.24.59.64-.11,1.19-.38,1.65-.82.45-.44.8-.94,1.04-1.5.24-.56.38-1.02.43-1.36.21-1.11.08-2.06-.38-2.86-.46-.79-1.13-1.49-2.03-2.09-.89-.6-1.96-1.2-3.19-1.81-1.24-.61-2.53-1.36-3.88-2.24-2.49-1.5-4.26-3.33-5.31-5.49-1.05-2.16-1.42-4.34-1.11-6.51.31-2.18,1.29-4.19,2.93-6.03,1.64-1.84,3.87-3.16,6.71-3.94,2.83-.78,5.51-.75,8.02.09,2.52.84,4.52,2.32,6.02,4.42.6.86.81,1.78.63,2.79-.18,1-.7,1.81-1.55,2.4-.86.6-1.77.81-2.74.63-.97-.18-1.75-.7-2.35-1.56-.74-.98-1.74-1.61-2.99-1.88-1.25-.27-2.38-.2-3.38.2-1,.4-1.83.95-2.47,1.64-.64.69-1.04,1.45-1.2,2.28-.16.83-.04,1.66.35,2.5.39.83,1.12,1.56,2.19,2.18,1.28.75,2.83,1.56,4.67,2.45,1.83.89,3.51,1.95,5.02,3.2,1.51,1.25,2.64,2.74,3.4,4.48.75,1.74.73,3.9-.08,6.48-.98,3.14-2.41,5.57-4.3,7.3-1.88,1.72-4.2,2.49-6.95,2.31Z"/>
  </g>
  <path class="cls-4" d="M702.24,302.95c3.87,3.66,5.6,7.03,5.2,10.1-.28,2.3-1.83,4.15-4.65,5.56-2.6,1.28-5.52,1.85-8.78,1.7-.36.64-.76,1.7-1.21,3.17-.45,1.47-.86,2.53-1.21,3.17,1.49,2.86.39,6.07-3.3,9.6,0,.2-.15,1.55-.45,4.06,1.73.65,2.84,1.24,3.33,1.77.18.15.42.52.72,1.1.22.54.47.91.72,1.1.12.17.42.38.9.65.54.25.87.46.98.62,1.21.93,2.08,1.86,2.61,2.78.17.35.38.97.63,1.83.25.87.53,1.53.86,1.97.28.52.98,1.23,2.11,2.12,1.28.91,2.16,1.67,2.66,2.26.21.27.49.77.83,1.48.32.65.62,1.1.9,1.36.35.51,1.12,1.09,2.31,1.76,1.37.82,2.21,1.38,2.5,1.7,10.2,8.43,15.9,20.6,17.09,36.51.23,3.63.27,5.87.11,6.72-.18.79-1.13,2.37-2.87,4.75-2.62,3.5-5.86,5.91-9.73,7.21-.68.2-1.72.42-3.12.69-1.46.28-2.57.53-3.32.75-.9.33-2.06.89-3.44,1.69-1.66,1.01-2.79,1.64-3.39,1.88-.84.38-2.15.92-3.96,1.64-1.77.64-3.04,1.14-3.81,1.49l-7.91,2.26c-9.87,1.88-18.53,2.48-25.98,1.79-5.39-12.02-9.65-25.04-12.78-39.05-3.9,2.79-7.95,4.59-12.16,5.39-4.58.91-8.45.37-11.63-1.61-3.2-2.04-7.34-7.23-12.41-15.59-2.53-4.11-3.77-6.14-3.75-6.08-.39-1.57-.17-3.51.65-5.82.2-.46.9-1.57,2.07-3.31.92-1.47,1.36-2.54,1.3-3.19-.35-2.39-2.27-4.08-5.78-5.09-3.38-.98-6.03-1.23-7.97-.74.12-.04-1.8.98-5.77,3.06-1.51.83-4.37,2.32-8.59,4.47-3.64,1.85-6.45,3.29-8.43,4.33-1.84-.35-7.55-1.27-17.11-2.76-6.96-1.1-12.61-2.07-16.95-2.91-.59-1.37-.96-2.18-1.09-2.41l-.24-.84c8.41-3.95,14.26-6.73,17.56-8.34-.34-1.65-.53-2.43-.57-2.36,2.65-4.32,9.12-7.41,19.4-9.27,6.96-1.25,11.06-2.29,12.3-3.11.96-7.46,1.91-11.76,2.86-12.9,2.1-2.75,6.07-4.83,11.92-6.23,5.58-1.39,9.9-1.52,12.98-.39,1.05.37,2.88,1.63,5.51,3.76,1.82,1.43,3.45,3.14,4.9,5.15,14.05.28,21.69.48,22.93.59l.83,2.89c-23.31,12.17-35.17,18.35-35.59,18.54,1.86,1.82,3.63,4.7,5.3,8.66.14.03.43.01.9-.05.44-.06.75-.05.91.04,5.78,6.13,9.87,11.18,12.29,15.12,1.18-.54,2.37-.51,3.55.09.17-1.53,1.77-3.66,4.81-6.41,5.74-5.06,10.89-8.52,15.47-10.37-2.14-3.69-2.83-6.95-2.1-9.77.67.68,1.55,1.67,2.66,2.97,1.34,1.63,2.18,2.33,2.52,2.1-1.69-2.6-2.44-5.21-2.24-7.82,3.64,4.26,6.1,6.68,7.41,7.25-1.21-1.87-1.92-3.55-2.15-5.03-.03-.33,0-.81.1-1.44.13-.71.19-1.2.19-1.46-.09-.31-.28-.73-.56-1.25-.3-.59-.5-1.03-.59-1.34-.08-.51-.04-1.2.12-2.05.12-.98.16-1.66.11-2.05-.04-.39-.2-1.15-.45-2.29-.25-.87-.36-1.58-.3-2.13.07-.42.28-1.09.64-2,.35-.84.51-1.46.47-1.85-.06-.45-.28-.99-.66-1.63-.33-.64-.53-1.12-.62-1.43,2.03-7.23,3.23-11.7,3.62-13.42-2.67-2.73-4.59-5.81-5.77-9.23-1.56-4.52-.67-7.5,2.68-8.93l2.52-.72.05.19c1.56-.38,4.14-.41,7.72-.09,2.97-2.53,6.31-3.99,10.03-4.38,3.8-.35,6.8.54,9.02,2.66,1.91,1.74,3.44,4.19,4.62,7.34.07.25.19.79.36,1.61.15.76.35,1.34.6,1.74.24.4,1,1.06,2.27,1.97,1.59,1.09,2.52,1.76,2.79,2.02ZM577.6,362.97c6.77-3.55,17.34-9.19,31.71-16.93,13.83-7.51,24.17-13.06,31.01-16.62.43-.12.58-.2.43-.22-.16-.09-.35-.07-.58.06-35.47,18.07-55.12,28.09-58.99,30.06-5.59,2.74-8.46,4.13-8.57,4.16-.26.07-1.61-.08-4.06-.45-2.93-.37-6.92-.94-11.97-1.71-5.62-.88-9.52-1.47-11.69-1.79-1.96-.25-3.2-.26-3.74-.04.28.73,1.45,1.23,3.55,1.5,2.66.38,6.07.88,10.21,1.51,5.05.77,8.45,1.28,10.21,1.51,5.17.74,7.96,1.08,8.35,1.04.24-.07,1.62-.77,4.13-2.09ZM556.89,349.35c-.13.04-.18.12-.14.24.02.06.39.9,1.12,2.5,2.96,1.17,7.05,1.37,12.26.62,5.18-.68,9.91-2.1,14.2-4.26,4.22-2.15,6.34-3.89,6.36-5.24,0-.2-.08-.51-.27-.93-.19-.42-.27-.7-.24-.84-3.77,3.49-9.15,6.04-16.15,7.64-6.85,1.62-12.57,1.72-17.14.27ZM560.29,352.11c-.14.17-.48.2-.98.08-.53-.18-.91-.24-1.16-.17-.12-.17-.28-.49-.48-.97-.12-.43-.25-.73-.36-.9.62.02,1.52.14,2.72.33,1.21.26,2.15.39,2.83.4-.35.17-.95.2-1.78.11-.98-.12-1.66-.16-2.05-.12-.18-.15.4-.01,1.73.41-.15.18-.79.19-1.91.04-.16.38.32.65,1.44.8ZM560.69,346.46c-.21-.27-.63-.32-1.25-.15-.55.16-.92.4-1.1.72.12.64.55.85,1.29.64.8-.23,1.15-.63,1.05-1.21ZM568.05,346.87c-.21-.27-.64-.35-1.28-.24-.68.2-.95.54-.81,1.04.17.35.59.4,1.25.15.68-.2.96-.51.83-.94ZM574.19,340.48c-.32-.65-1.11-.72-2.39-.22-1.22.42-1.75,1.04-1.58,1.86.6.7,1.53.8,2.81.3,1.28-.43,1.67-1.08,1.15-1.94ZM574.86,345.63c-.27-.26-.73-.3-1.34-.12-.65.12-1.06.34-1.23.65.16.56.65.72,1.45.49.76-.15,1.13-.49,1.12-1.02ZM579.94,344.37c-.27-.46-.72-.5-1.35-.12-.71.34-.8.7-.28,1.09,1.37.14,1.92-.18,1.63-.97ZM582.62,338.27c-.36-.1-.71-.03-1.05.2-.34.23-.46.53-.35.91.19.42.56.55,1.13.38s.75-.52.59-1.08c-.02-.06-.07-.11-.14-.16-.09-.04-.14-.13-.18-.25ZM585.1,341.29c-.23-.34-.66-.42-1.28-.24-.68.2-.95.54-.81,1.04.21.54.66.69,1.33.43.66-.25.91-.66.75-1.22ZM588.24,338.57c.34,1.18.04,2.24-.89,3.18-.27.28-.73.64-1.4,1.11-.61.44-1.05.8-1.3,1.08,4.62-1.93,5.82-3.71,3.6-5.36ZM598.15,323.55c-2.32,3.15-2.68,7.08-1.06,11.79-.72-3.69-.37-7.62,1.06-11.79ZM626.71,326.57c-4.89,4.96-9.89,8.34-15.02,10.14-3.3,1.14-6.93,1.95-10.9,2.41-.12.04-.18.08-.16.15-.04.08.03.09.21.04l.37-.11c9.92-.29,17.85-3.46,23.77-9.52,1.4-1.41,1.98-2.45,1.72-3.11ZM629.22,370.57c.38.16.87.46,1.46.89.66.42,1.14.68,1.44.8-2.73-5.8-5.29-9.8-7.66-12.01-1.85-1.75-3.02-2.56-3.51-2.42.18-.05-.37.95-1.67,2.99.02.06-2.06,2.67-6.22,7.82,1.9-1.35,4.44-3.96,7.63-7.82-1.44,2.7-2.2,4.19-2.25,4.47.35-.43.9-.96,1.67-1.58.98-.82,1.53-1.31,1.69-1.49,0,.27-.19.89-.58,1.88-.3.82-.4,1.42-.29,1.8,1.24-.82,2.2-1.23,2.87-1.22-.32.29-.61.68-.88,1.16-.34.7-.58,1.14-.74,1.32.25-.07.66-.26,1.26-.56.47-.2.86-.25,1.17-.13-.48.94-.81,1.77-1,2.5.43-.12,1.28-.47,2.53-1.02-.05.28-.12.64-.2,1.07-.14.44-.25.78-.31,1,.26,0,.66-.15,1.18-.44.46-.27.84-.34,1.14-.23.14,1.44.16,2.1.07,1.99l1.19-.74ZM602.57,322.79c-.47,2.82.02,7.25,1.48,13.28,1.92-.82,2.77-1.13,2.55-.93l-1.73-.41c.96-.21,1.54-.47,1.78-.81l-1.83-.08c.82-.17,1.41-.44,1.78-.81-1.11-.09-1.64-.1-1.62-.04.59-.24.99-.49,1.19-.74-.14-.03-.37-.03-.7,0-.27,0-.48-.03-.64-.12.44-.33.92-.53,1.44-.61-.07-.25-.35-.37-.82-.37-.45.06-.77-.01-.97-.23.7-.13,1.13-.36,1.32-.68-.34.03-.8-.07-1.4-.3,1.06-.77,1.52-1.04,1.38-.8-.82-.3-1.2-.43-1.12-.39.64-.59.97-.85.98-.79-.45.06-.84,0-1.16-.17.57-.36.98-.55,1.26-.56-.07-.25-.29-.42-.66-.52-.44-.14-.72-.26-.81-.37.13.03.28-.05.43-.22.17-.12.35-.17.56-.16-.07-.25-.29-.42-.66-.52-.36-.1-.6-.23-.71-.4.49-.14.81-.33.94-.57-.32-.18-.71-.47-1.16-.88-.51-.39-.89-.65-1.13-.79ZM606.56,316.32c-.67-.68-1.81-.79-3.42-.33-1.65.54-2.44,1.34-2.33,2.38.64.62,1.77.7,3.39.24,1.68-.48,2.46-1.24,2.37-2.29ZM610.76,315.52c.22,1.48-1.72,3.14-5.82,4.99-.48.2-.68.33-.59.37,4.68-1.67,7.36-3.11,8.03-4.31-.28-.72-.82-1.08-1.61-1.05ZM608.44,321.12c.09.11,2.16,3.85,6.22,11.21-1.77-6.41-3.84-10.15-6.22-11.21ZM622.02,328.81c-2.3-4.98-5.18-8.49-8.65-10.52-2.2,1.23-3.27,1.84-3.2,1.82,1.49-.16,2.23-.27,2.22-.33-.68.2-1.14.46-1.38.8,1.27-.03,1.98,0,2.15.09-.74.95-1.1,1.36-1.07,1.21.85-.31,1.44-.38,1.76-.2-.64.38-1.12.82-1.45,1.32.12-.04.48-.1,1.06-.2.45-.06.78-.09.98-.08-1.15,1.14-1.67,1.58-1.52,1.34,1.21-.21,1.99-.3,2.34-.27-1.58,1.32-2.23,1.85-1.97,1.57.21.07.69.1,1.43.1.67,0,1.16.07,1.47.18-.83,1.11-1.27,1.71-1.31,1.79,1.15-.2,2.17-.18,3.04.04-1.11.85-1.79,1.52-2.06,2,.35-.17.83-.27,1.43-.31.58-.1,1.06-.2,1.43-.31-.17.38-.52.89-1.08,1.52-.54.69-.9,1.2-1.08,1.52,2.29-.45,4.11-1.48,5.47-3.08ZM625.58,325.08c-3.48-4.18-6.82-6.95-10.03-8.31,3.29,2.82,5.93,6.19,7.93,10.12-.4.25.3-.35,2.1-1.81ZM674.82,419.06c4.46,1.75,8.14,2.17,11.04,1.27-2.49-19.5-1.03-37.88,4.38-55.13-7.46,1.39-14.45-.03-20.96-4.28-1.33-.9-2.05-1.29-2.16-1.2.37.36,2.99,3.07,7.87,8.12-.67-.21-2.02-.7-4.04-1.46-1.66-.6-2.94-.97-3.85-1.12,3.67,2.04,6.67,3.83,8.99,5.38-7.44-2.3-11.06-3.45-10.85-3.44,4.82,3.25,7.99,5.54,9.52,6.85-1.1-.29-2.88-.79-5.37-1.49-2.39-.59-4.18-1.09-5.37-1.49.8.64,2.05,1.53,3.79,2.64,1.72,1.12,2.99,2,3.77,2.65-7.22-.35-10.9-.54-11.04-.57.65.62,1.8,1.47,3.45,2.54,1.75,1.18,3.02,2.09,3.8,2.74-4.53-.58-6.93-.87-7.2-.86,5.15,2.76,7.72,4.1,7.71,4.04-.57-.11-1.52-.24-2.83-.4-1.21-.19-2.12-.37-2.78-.52,1.31.83,3.43,2.01,6.35,3.52,2.84,1.47,4.89,2.63,6.13,3.48-4.95.07-8,.21-9.15.4,6.88,3.6,10.52,5.55,10.94,5.84-5.74-.57-8.9-.88-9.52-.9,6.49,3.92,10.12,6.14,10.87,6.66-.51.08-1.63.06-3.34-.05-1.37-.08-2.39-.02-3.07.17,5.48,3.67,8.59,5.84,9.31,6.5-3.52.13-5.94.36-7.26.67.46.2,1.84.71,4.17,1.53,1.72.65,2.96,1.23,3.72,1.75-.63.18-1.69.45-3.2.81-1.33.25-2.43.53-3.28.84.25.4.99.89,2.23,1.48,1.3.57,2.07,1.02,2.31,1.35-.32.09-1.19.34-2.61.75-1.13.26-1.96.56-2.46.91ZM663.66,353.26c-1.88-.94-4.27-2.97-7.18-6.1,1.88,5.17,4.28,7.2,7.18,6.1ZM664.69,351.26c-1.1-2.91-2.85-5.26-5.24-7.06,1.22,3.08,1.84,4.68,1.87,4.8.85,1.57,1.98,2.32,3.37,2.26ZM666.4,351.57c-1.45-.12-2.25.48-2.4,1.8-.07,1.16.24,2.38.94,3.66,0-2.35.49-4.17,1.46-5.45ZM680.91,402.31c1.3-.84,2.15-.61,2.52.69.32,1.39-.09,2.17-1.24,2.37-.64.12-1.23-.18-1.77-.9-.58-.84-.41-1.56.5-2.16ZM689.4,342.58c-4.37,5.14-7.93,8.21-10.67,9.19-1.45.55-3.4,1.04-5.83,1.46-3.27.53-5.28.91-6.03,1.12,7.25.95,12.64.75,16.16-.59,1.99-.77,3.8-2.06,5.43-3.87,1.33-1.45,2.19-2.77,2.59-3.96.63-1.79.08-2.91-1.66-3.35ZM693.24,346.11c-1.25,3.38-4.44,6.07-9.57,8.08-4.7,1.88-9.39,2.62-14.07,2.21-.13.24.19.55.97.93,2.86,1.53,7.15,2.69,12.89,3.47-3.88.31-8.78-.51-14.7-2.44,3.65,3.59,8.72,5.36,15.22,5.32,6.19.04,12.77-1.5,19.72-4.63-.28-.32-.78-.85-1.45-1.6-.62-.76-1.16-1.35-1.61-1.75-.2-.21-.83-.67-1.91-1.37-.74-.53-1.25-.99-1.5-1.38-.21-.27-.34-.71-.37-1.3-.07-.72-.17-1.16-.28-1.33-.69-2.15-1.79-3.55-3.32-4.19ZM685.78,334.15c1.57,1.03,2.95.6,4.17-1.29,1.21-1.82,1.45-3.57.71-5.24-.69-.07-1.66.31-2.9,1.13-1.01.69-1.84.83-2.49.41.02-1.55-.56-3.1-1.73-4.64,1.43-2.49.55-4.52-2.65-6.09-2.64-1.26-5.28-1.78-7.9-1.57-.04.08.22,1.25.8,3.5-.71-.13-1.94-1.39-3.7-3.78-.69.4-.84,1.05-.45,1.94-.15-.29.2.31,1.03,1.82-.82-.04-1.61-.55-2.36-1.54-1.03-1.25-1.68-1.97-1.92-2.17-.04,1.08.13,1.88.47,2.38-.33.03-.97-.56-1.91-1.77.04.66-.29,1.59-1.02,2.81-.59.98-.75,1.83-.48,2.55.26.66,1.06,1.14,2.42,1.42,1.28.24,2.03.63,2.25,1.17-.05-.19-.59,1.08-1.64,3.79.03-.14,0-.44-.04-.89-.07-.45-.1-.78-.09-.98-1.34-.69-1.88-.94-1.61-.75l1.29-.37c-1.14-.68-1.92-.12-2.34,1.68-.37,1.52-.42,3.01-.12,4.47.1.84.14,1.71.12,2.58-.11,1.04-.11,1.84,0,2.42.07.25.2.68.37,1.3.24.6.38,1.1.43,1.49.61,4.26,1.11,6.6,1.5,7.02.52.66,1.5,1.01,2.94,1.07,1.34.02,2.65-.22,3.92-.72,1.31-.58,3.66-2.09,7.07-4.54,2.34-1.68,4.01-3.46,5.01-5.36.06,2.33-.92,4.43-2.94,6.28.21-.2-1.81,1.29-6.07,4.46.22.07.72.03,1.48-.12.63-.11,1.07-.11,1.31.03-2.09,1.14-3.17,1.74-3.2,1.82,1.1-.11,1.76-.14,2-.07-2.1,1.61-3.11,2.4-3.05,2.38,7.58-1.9,11.54-4.58,11.91-8.04.03-.34.02-.98-.04-1.9-.08-.98-.12-1.71-.12-2.18.19-3.08.07-5.06-.38-5.93ZM721.76,382.47c-3.4-9.77-9.32-17.08-17.75-21.92-2.59,2.22-6.52,3.27-11.78,3.17-5.12,11.67-6.68,31.02-4.65,58.03,3.15.24,8.22-.57,15.21-2.44,2.09-3.96,3-8.65,2.73-14.07-.23-5.98-1.85-11.26-4.84-15.84.38.16.9.58,1.57,1.26.6.7,1.16,1.11,1.67,1.24.44-.8,1-4.11,1.69-9.95,2.5,6.67,5.77,11.61,9.78,14.83-4.82-1.11-7.33-1.7-7.56-1.77.34.71.94,1.78,1.82,3.21.84,1.3,1.48,2.36,1.93,3.18-.34.03-.99.08-1.97.16-.87.05-1.56.08-2.09.09.43.55,1.19,1.34,2.29,2.37.96,1,1.66,1.81,2.1,2.42l-4.28.52c2.06,2.5,3.22,4.11,3.5,4.84-.35.17-.94.34-1.76.5-.76.15-1.32.31-1.68.48.05.19.45.51,1.18.97.73.4,1.11.69,1.16.88-2.66,1.03-3.86,1.44-3.57,1.22.41.29,1.06.87,1.91,1.77,6.8-1.34,12.46-5.17,16.96-11.5-.02-8.99-1.2-16.88-3.54-23.66ZM665.65,344.03c1.87,2.08,3.19,3.18,3.96,3.3-.92.53-1.76.43-2.5-.29-.73-.66-1.22-1.67-1.46-3.01ZM665.19,332.58c.27.26.27.83-.02,1.72-.28,1.09-.35,1.91-.19,2.47-.48-.74-.67-1.52-.58-2.35.04-.82.3-1.43.79-1.84ZM680,384.35c1.13-.73,1.92-.55,2.37.53.52,1.13.3,1.89-.65,2.3-.95.47-1.71.25-2.31-.65-.58-.84-.38-1.57.58-2.18ZM667.87,343.7c.44-.33.12-.87-.97-1.64.43-.12,1.11-.12,2.02.03,1.14.21,1.91.33,2.31.35-.11,1.04-1.23,1.46-3.37,1.27ZM672.84,338.55c-.48,1.82-1.75,2.58-3.78,2.29-2.09-.27-3.04-1.51-2.87-3.71,2.19-.29,4.41.18,6.64,1.42ZM671.82,338.84c-1.24-.58-2.96-.97-5.16-1.14.37.83,1.11,1.29,2.21,1.38.06-.02,1.05-.1,2.95-.24ZM670.43,324.84c.41.02,1.42.03,3.03.04,1.21,0,2.2-.06,2.98-.15.82.51,1.54,1.3,2.2,2.39-1.69-.93-3.59-1.39-5.74-1.38.12.64.53,1.16,1.25,1.56.74.46,1.14.78,1.19.97-.32.29-.96.31-1.91.04-.97-.33-1.48-.48-1.54-.47-.35.17-.62.65-.8,1.44-.12.98-.31,1.63-.54,1.97,1.22,1,1.82,1.7,1.81,2.1-.34.5-.92.8-1.76.9-.85.11-1.45-.02-1.83-.38-1.49.43-2.35.13-2.56-.88,1.44.13,2.41-.02,2.89-.42.04.12.48-2.45,1.32-7.73ZM681.18,374.04c-.7-1.48-.46-2.42.7-2.82,1.22-.42,2-.07,2.31,1.05.29.79.04,1.43-.76,1.93-.8.5-1.55.44-2.25-.16ZM666.78,309.26c-.04.35-.29,1.23-.76,2.64-.35,1.11-.42,1.83-.19,2.17.43-.39.96-2.05,1.6-4.99l-.66.19ZM706.1,310.81c-.35-2.39-2.17-5.02-5.48-7.9-.35-.3-1.25-.95-2.68-1.95-1.15-.74-1.86-1.35-2.13-1.81.21.27.05-.28-.48-1.68-3.14-8.9-8.42-12.2-15.81-9.88-.85.31-2.01.94-3.48,1.9-1.49.9-2.58,1.44-3.25,1.64-.74.21-2.08.36-4.01.44-1.74.03-3.15.26-4.23.71-2.87,1.22-3.87,3.49-3,6.8.67,2.36,2.23,5.07,4.65,8.14,2.13-.07,4.09-.03,5.88.13-.94-1.41-1.4-3.02-1.38-4.84.04-1.76.45-3.02,1.23-3.78-.31,1.5-.18,3.14.41,4.92.65,1.83,1.53,3.15,2.64,3.98.64-.12,1.54,0,2.71.33,1.39.41,2.42.62,3.09.63,2.96.03,6.31-1.3,10.05-3.98-1.39,2.88-3.13,4.69-5.2,5.42,3.33,1.8,6.14,3.95,8.4,6.46.08-.9.33-1.91.74-3.03,1.2.66,1.82.96,1.86.88-.08-.04-.57-.68-1.45-1.9.3.12.89.38,1.75.81.64.35,1.12.52,1.45.49.35.3-.3-.59-1.97-2.66.35.04.99.29,1.93.76.78.38,1.37.55,1.76.5-.75-.73-1.46-1.6-2.16-2.61,2.7.5,3.88.87,3.54,1.1-.91-2.49-1.38-3.53-1.39-3.13.42.55,1.09,1.27,2.01,2.14.96,1,1.64,1.75,2.06,2.23-.49,1.62-1.61,2.95-3.4,3.99-1.76,1.11-3.75,1.68-5.96,1.7.3.59,1.37.68,3.2.29,5.89-1.28,8.58-3.7,8.1-7.25ZM668.89,305.03c.03-.14-.45.06-1.44.61.46.2,1.3.43,2.52.69-2.12.81-3.95.02-5.51-2.35-1.28-2.12-1.98-4.57-2.1-7.36.41.02.93.2,1.57.56.56.31,1.05.47,1.45.49-.04-.12-.39.04-1.06.51-.09-.04.63.22,2.14.8-.07.22-.28.32-.62.28-.41-.02-.7.03-.87.15l1.68.93c-.07.22-.28.32-.63.28-.41-.02-.69.03-.86.15.38.16,1.14.48,2.29.96-.03.14-.54.22-1.54.24l1.22.76c.03-.14-.27,0-.88.45.34.24.94.47,1.81.69-.04-.12-.43.05-1.15.53.79.45,1.45.66,1.99.64ZM669.12,316.35c-.51.14-.76.42-.78.83.06.45.27.8.6,1.04-.04-.86,0-1.48.18-1.86ZM675.61,339.78c-.53-4.01-1.4-6.21-2.59-6.61.41.02,1.12.28,2.14.8,1.04.58,1.86.88,2.48.9-1.19,1.48-1.87,3.12-2.03,4.91ZM689.4,322.13c.85-1.25,1.67-2.96,2.46-5.14-6.36-7.18-14.24-10.09-23.66-8.74.23.34.9.78,2,1.34,1.12.62,1.79,1.1,2.02,1.44-2.31.39-3.34.52-3.11.39,1.53.37,2.81.77,3.88,1.21-.27,0-1.16.06-2.68.16-1.17.13-1.97.26-2.4.39,2.61.66,4.05,1.02,4.34,1.08-.33.03-1,.02-2.02-.03-.82-.04-1.44.04-1.85.23,9.65.6,16.65,3.16,21.04,7.68ZM672.37,318.24c-.12-.17-.2-.55-.22-1.15-.07-.45-.2-.78-.39-1-.35.17-.52.28-.51.35.16.09.32.41.48.97.2.48.42.75.64.82ZM673.63,299.05c-.82-2.18-.83-4.06,0-5.64.92-1.74,2.65-2.84,5.2-3.3-3.46,1.53-5.2,4.51-5.2,8.94ZM692.36,352.91c.13-.24.53-.72,1.2-1.45.51-.55.84-1.05.98-1.49-1.62.67-2.46,1.01-2.53,1.02l2.05-2.7c-.28-.05.08.98,1.09,3.11.13-.24-.8.26-2.79,1.5ZM693,354.44c1.33-1.45,2.07-2.37,2.23-2.75-.14-.03.06.45.61,1.44-.7.6-1.65,1.04-2.85,1.32ZM693.95,356.69c1.37-1.53,2.1-2.51,2.17-2.94-.14-.03.08.51.67,1.62-1.27.77-2.22,1.2-2.85,1.32ZM694.66,358.5c1.37-1.6,2.08-2.58,2.19-2.94-.29-.05-.04.38.77,1.29-.62.65-1.61,1.2-2.96,1.65ZM687.68,332.7c-.49-.53-.11-1.45,1.13-2.74.51.59.45,1.11-.16,1.56-.74.48-1.06.87-.98,1.19ZM688.09,323.52c-.41-.02-.78-.25-1.11-.69.12-.04.44.04.98.22.35.1.59.1.7,0-.32-.18-.77-.45-1.34-.83-.59-.37-.98-.62-1.23-.76-.78,2.44-.75,4.28.07,5.52.04-.08.05-.28.03-.61,0-.2.11-.33.29-.39.1.11.25.16.45.17.28.05.43.01.46-.13.16.09-.2-.21-1.06-.9.14.03.35.07.65.12.2.01.37.03.51.05-.05-.19-.2-.35-.44-.48-.18-.15-.28-.32-.34-.51.13.03.32.08.54.15.27,0,.43.01.51.05.15.29-.11-.04-.78-.99.79-.29,1.15-.3,1.11-.01ZM681.47,300.03c-.64-2.23-.59-4.16.16-5.79.83-1.78,2.53-2.9,5.08-3.37-3.32,1.55-5.06,4.6-5.24,9.15Z"/>
  <g>
    <path class="cls-4" d="M582.09,634.42v6.27c0,1.21.07,1.97.22,2.29.15.31.41.56.78.75.37.19,1.07.28,2.1.28v.61h-11.45v-.61c1.03,0,1.74-.1,2.1-.29.37-.19.63-.44.78-.75.15-.31.22-1.07.22-2.28v-14.52c0-1.21-.07-1.97-.22-2.29-.15-.31-.41-.56-.78-.75-.37-.19-1.07-.28-2.1-.28v-.61h10.4c2.71,0,4.69.19,5.94.56,1.25.37,2.28,1.06,3.07,2.07.79,1.01,1.19,2.19,1.19,3.54,0,1.65-.59,3.01-1.78,4.09-.76.68-1.82,1.19-3.19,1.53l5.38,7.58c.7.98,1.21,1.59,1.5,1.83.45.34.97.53,1.57.56v.61h-7.05l-7.21-10.2h-1.47ZM582.09,623.44v9.8h.94c1.53,0,2.67-.14,3.43-.42.76-.28,1.36-.79,1.79-1.52.43-.73.65-1.69.65-2.86,0-1.71-.4-2.96-1.2-3.78-.8-.81-2.08-1.22-3.85-1.22h-1.77Z"/>
    <path class="cls-4" d="M611.74,636.35h-8.47c.1,2.05.64,3.66,1.63,4.85.76.91,1.67,1.37,2.74,1.37.66,0,1.26-.18,1.8-.55.54-.37,1.12-1.03,1.73-1.99l.56.36c-.84,1.71-1.76,2.91-2.77,3.62-1.01.71-2.18,1.06-3.51,1.06-2.29,0-4.02-.88-5.2-2.64-.95-1.42-1.42-3.18-1.42-5.28,0-2.57.7-4.62,2.09-6.15,1.39-1.52,3.02-2.29,4.89-2.29,1.56,0,2.92.64,4.07,1.92,1.15,1.28,1.77,3.18,1.86,5.7ZM607.67,635.24c0-1.77-.1-2.99-.29-3.65-.19-.66-.49-1.16-.9-1.5-.23-.2-.54-.3-.92-.3-.57,0-1.04.28-1.4.84-.65.98-.97,2.32-.97,4.03v.58h4.49Z"/>
    <path class="cls-4" d="M623.42,628.76l.25,5.26h-.56c-.67-1.56-1.37-2.63-2.09-3.2s-1.44-.86-2.15-.86c-.45,0-.84.15-1.16.45-.32.3-.48.65-.48,1.05,0,.3.11.58.33.86.35.45,1.34,1.22,2.95,2.32,1.62,1.09,2.68,2.02,3.19,2.79.51.76.77,1.62.77,2.57,0,.86-.21,1.7-.64,2.53-.43.83-1.03,1.46-1.82,1.9-.78.44-1.64.66-2.59.66-.74,0-1.72-.23-2.95-.69-.33-.12-.56-.18-.68-.18-.36,0-.67.27-.91.82h-.54l-.26-5.54h.56c.5,1.45,1.17,2.54,2.04,3.27.86.73,1.68,1.09,2.45,1.09.53,0,.96-.16,1.29-.49.34-.32.5-.72.5-1.18,0-.53-.17-.98-.5-1.37-.33-.38-1.07-.97-2.21-1.75-1.68-1.17-2.77-2.06-3.27-2.67-.73-.9-1.09-1.9-1.09-2.99,0-1.19.41-2.26,1.23-3.23.82-.96,2-1.44,3.56-1.44.84,0,1.64.2,2.43.61.3.17.54.25.73.25.2,0,.36-.04.48-.12.12-.08.31-.32.58-.7h.56Z"/>
    <path class="cls-4" d="M632.94,623.54v5.64h3.66v1.63h-3.66v9.52c0,.89.04,1.47.12,1.72.08.26.23.47.44.63.21.16.4.24.58.24.71,0,1.39-.54,2.03-1.63l.5.36c-.89,2.11-2.34,3.17-4.34,3.17-.98,0-1.81-.27-2.48-.82-.68-.54-1.11-1.15-1.3-1.82-.11-.37-.17-1.39-.17-3.04v-8.33h-2.01v-.58c1.39-.98,2.57-2.01,3.54-3.09s1.82-2.28,2.55-3.61h.54Z"/>
    <path class="cls-4" d="M646.59,642.34c-1.88,1.66-3.57,2.49-5.07,2.49-.88,0-1.61-.29-2.2-.87-.58-.58-.87-1.3-.87-2.17,0-1.18.51-2.24,1.52-3.18,1.01-.94,3.22-2.19,6.62-3.75v-1.55c0-1.17-.06-1.9-.19-2.2-.13-.3-.37-.57-.72-.79-.35-.22-.75-.34-1.19-.34-.71,0-1.3.16-1.77.48-.29.2-.43.43-.43.69,0,.23.15.52.46.86.42.47.63.93.63,1.37,0,.54-.2,1-.6,1.38-.4.38-.93.57-1.58.57-.69,0-1.27-.21-1.74-.63-.47-.42-.7-.91-.7-1.47,0-.79.31-1.55.94-2.27s1.5-1.27,2.62-1.66c1.12-.38,2.29-.58,3.5-.58,1.46,0,2.62.31,3.47.93.85.62,1.41,1.3,1.66,2.02.15.46.23,1.52.23,3.18v5.99c0,.7.03,1.15.08,1.33.05.18.14.32.25.4.11.09.24.13.38.13.29,0,.58-.2.88-.61l.5.4c-.55.81-1.12,1.41-1.71,1.77-.59.37-1.26.55-2.01.55-.88,0-1.57-.21-2.06-.62-.5-.41-.8-1.04-.91-1.87ZM646.59,641.13v-5.17c-1.33.78-2.32,1.62-2.97,2.51-.43.59-.64,1.19-.64,1.8,0,.51.18.95.54,1.34.27.3.66.45,1.16.45.55,0,1.19-.31,1.91-.92Z"/>
    <path class="cls-4" d="M669.88,629.19v12.08c0,1.18.11,1.91.33,2.2.22.29.67.48,1.34.55v.59h-6.29v-2.06c-.74.88-1.47,1.52-2.21,1.92s-1.56.6-2.48.6-1.64-.27-2.32-.8c-.68-.53-1.13-1.16-1.36-1.87-.23-.71-.35-1.96-.35-3.75v-6.12c0-1.17-.11-1.89-.32-2.18s-.66-.47-1.34-.56v-.61h6.29v10.55c0,1.1.05,1.81.16,2.13s.27.56.5.73.49.25.78.25c.4,0,.75-.1,1.07-.31.44-.29.97-.86,1.58-1.73v-8.25c0-1.17-.11-1.89-.32-2.18s-.66-.47-1.34-.56v-.61h6.29Z"/>
    <path class="cls-4" d="M680.17,629.19v3.5c1.02-1.6,1.92-2.65,2.69-3.18.77-.52,1.51-.78,2.23-.78.62,0,1.11.19,1.48.57.37.38.55.92.55,1.61,0,.74-.18,1.31-.54,1.72-.36.41-.79.61-1.3.61-.58,0-1.09-.19-1.52-.56-.43-.37-.68-.58-.76-.63-.11-.07-.24-.1-.38-.1-.32,0-.62.12-.91.36-.45.37-.79.91-1.02,1.6-.35,1.07-.53,2.24-.53,3.53v3.55l.02.92c0,.63.04,1.03.12,1.21.13.3.33.51.59.65s.7.22,1.31.26v.59h-8.33v-.59c.67-.06,1.12-.24,1.36-.55.24-.31.35-1.14.35-2.48v-8.53c0-.88-.04-1.44-.13-1.68-.11-.31-.27-.53-.48-.68-.21-.14-.58-.24-1.11-.3v-.61h6.3Z"/>
    <path class="cls-4" d="M697.29,642.34c-1.88,1.66-3.57,2.49-5.07,2.49-.88,0-1.61-.29-2.2-.87-.58-.58-.87-1.3-.87-2.17,0-1.18.51-2.24,1.52-3.18,1.01-.94,3.22-2.19,6.62-3.75v-1.55c0-1.17-.06-1.9-.19-2.2-.13-.3-.37-.57-.72-.79-.35-.22-.75-.34-1.19-.34-.71,0-1.3.16-1.77.48-.29.2-.43.43-.43.69,0,.23.15.52.46.86.42.47.63.93.63,1.37,0,.54-.2,1-.6,1.38-.4.38-.93.57-1.58.57-.69,0-1.27-.21-1.74-.63-.47-.42-.7-.91-.7-1.47,0-.79.31-1.55.94-2.27s1.5-1.27,2.62-1.66c1.12-.38,2.29-.58,3.5-.58,1.46,0,2.62.31,3.47.93.85.62,1.41,1.3,1.66,2.02.15.46.23,1.52.23,3.18v5.99c0,.7.03,1.15.08,1.33.05.18.14.32.25.4.11.09.24.13.38.13.29,0,.58-.2.88-.61l.5.4c-.55.81-1.12,1.41-1.71,1.77-.59.37-1.26.55-2.01.55-.88,0-1.57-.21-2.06-.62-.5-.41-.8-1.04-.91-1.87ZM697.29,641.13v-5.17c-1.33.78-2.32,1.62-2.97,2.51-.43.59-.64,1.19-.64,1.8,0,.51.18.95.54,1.34.27.3.66.45,1.16.45.55,0,1.19-.31,1.91-.92Z"/>
    <path class="cls-4" d="M711.98,629.19v2c.79-.86,1.55-1.48,2.28-1.87.73-.39,1.51-.59,2.34-.59,1,0,1.83.28,2.49.83.66.56,1.1,1.25,1.32,2.07.18.63.26,1.83.26,3.61v6.01c0,1.19.11,1.93.32,2.22.21.29.66.48,1.35.55v.59h-7.81v-.59c.58-.08,1-.32,1.25-.73.18-.27.26-.96.26-2.05v-6.87c0-1.26-.05-2.06-.15-2.39-.1-.33-.27-.59-.5-.77-.24-.18-.5-.27-.78-.27-.95,0-1.83.68-2.64,2.03v8.27c0,1.16.11,1.89.32,2.2.21.31.61.5,1.2.58v.59h-7.81v-.59c.65-.07,1.11-.28,1.39-.63.19-.24.28-.96.28-2.15v-8.71c0-1.17-.11-1.89-.32-2.18-.21-.29-.66-.47-1.34-.56v-.61h6.29Z"/>
    <path class="cls-4" d="M730.59,623.54v5.64h3.66v1.63h-3.66v9.52c0,.89.04,1.47.12,1.72.08.26.23.47.44.63.21.16.4.24.58.24.71,0,1.39-.54,2.03-1.63l.5.36c-.89,2.11-2.34,3.17-4.34,3.17-.98,0-1.81-.27-2.48-.82-.68-.54-1.11-1.15-1.3-1.82-.11-.37-.17-1.39-.17-3.04v-8.33h-2.01v-.58c1.39-.98,2.57-2.01,3.54-3.09s1.82-2.28,2.55-3.61h.54Z"/>
    <path class="cls-4" d="M586.5,683c-1.55,1.2-2.53,1.89-2.92,2.08-.59.27-1.23.41-1.9.41-1.05,0-1.91-.36-2.58-1.07-.68-.72-1.01-1.66-1.01-2.82,0-.74.17-1.38.5-1.92.45-.75,1.23-1.45,2.35-2.11,1.12-.66,2.97-1.46,5.57-2.41v-.59c0-1.51-.24-2.54-.72-3.1-.48-.56-1.17-.84-2.09-.84-.69,0-1.24.19-1.65.56-.42.37-.63.8-.63,1.29l.03.96c0,.51-.13.9-.39,1.17-.26.28-.6.41-1.01.41s-.74-.14-1-.43c-.26-.29-.39-.68-.39-1.17,0-.95.48-1.82,1.45-2.61.97-.79,2.33-1.19,4.08-1.19,1.34,0,2.44.23,3.3.68.65.34,1.13.88,1.44,1.6.2.47.3,1.44.3,2.9v5.13c0,1.44.03,2.32.08,2.65.06.33.15.54.27.65.13.11.27.17.44.17.18,0,.33-.04.46-.12.23-.14.68-.54,1.34-1.21v.92c-1.23,1.65-2.41,2.48-3.53,2.48-.54,0-.97-.19-1.29-.56-.32-.37-.48-1.01-.49-1.92ZM586.5,681.93v-5.76c-1.66.66-2.73,1.13-3.22,1.4-.87.48-1.49.99-1.87,1.52s-.56,1.11-.56,1.73c0,.79.24,1.45.71,1.97.47.52,1.02.78,1.63.78.84,0,1.94-.55,3.3-1.65Z"/>
    <path class="cls-4" d="M597.34,672.82c1.77-2.13,3.46-3.2,5.07-3.2.83,0,1.54.21,2.13.62.59.41,1.07,1.09,1.42,2.04.24.66.36,1.67.36,3.04v6.45c0,.96.08,1.61.23,1.95.12.28.32.49.59.64s.77.23,1.49.23v.59h-7.48v-.59h.31c.7,0,1.2-.11,1.48-.32.28-.21.48-.53.59-.95.04-.17.07-.68.07-1.55v-6.19c0-1.38-.18-2.37-.54-3-.36-.62-.96-.93-1.81-.93-1.31,0-2.61.72-3.91,2.15v7.97c0,1.02.06,1.66.18,1.9.15.32.37.55.63.7.27.15.82.22,1.64.22v.59h-7.48v-.59h.33c.77,0,1.29-.2,1.56-.59s.4-1.14.4-2.24v-5.61c0-1.82-.04-2.92-.12-3.32-.08-.4-.21-.67-.38-.81-.17-.14-.4-.21-.68-.21-.31,0-.68.08-1.11.25l-.25-.59,4.55-1.85h.71v3.2Z"/>
    <path class="cls-4" d="M620.51,683.48c-.74.77-1.46,1.32-2.16,1.66-.7.33-1.46.5-2.28.5-1.65,0-3.09-.69-4.32-2.07-1.23-1.38-1.85-3.15-1.85-5.32s.68-4.15,2.05-5.95,3.12-2.7,5.26-2.7c1.33,0,2.43.42,3.3,1.27v-2.79c0-1.73-.04-2.79-.12-3.19-.08-.4-.21-.67-.39-.81-.18-.14-.4-.21-.66-.21-.29,0-.67.09-1.14.26l-.21-.58,4.51-1.85h.74v17.48c0,1.77.04,2.85.12,3.24.08.39.21.66.4.82.18.15.39.23.64.23.3,0,.69-.09,1.19-.28l.18.58-4.49,1.86h-.76v-2.16ZM620.51,682.32v-7.79c-.07-.75-.26-1.43-.59-2.05s-.77-1.08-1.31-1.39c-.54-.31-1.08-.47-1.59-.47-.97,0-1.83.44-2.59,1.3-1,1.14-1.5,2.82-1.5,5.02s.48,3.93,1.45,5.11c.97,1.18,2.05,1.77,3.23,1.77,1,0,1.97-.5,2.91-1.5Z"/>
    <path class="cls-4" d="M649.17,673.31c2.12.5,3.61,1.09,4.47,1.8,1.23,1,1.85,2.3,1.85,3.9,0,1.68-.68,3.08-2.03,4.17-1.66,1.33-4.08,2-7.25,2h-11.37v-.61c1.03,0,1.74-.1,2.1-.29.37-.19.63-.44.78-.75.15-.31.22-1.07.22-2.28v-14.52c0-1.21-.07-1.97-.22-2.29-.15-.31-.41-.56-.78-.75-.37-.19-1.07-.28-2.1-.28v-.61h10.73c2.56,0,4.38.23,5.45.68,1.07.46,1.91,1.14,2.53,2.05.62.91.92,1.87.92,2.9,0,1.08-.39,2.04-1.17,2.88-.78.84-2.16,1.51-4.13,2ZM643.16,674.15v7.18l-.02.83c0,.59.15,1.04.45,1.35s.75.45,1.34.45c.88,0,1.69-.19,2.43-.59.74-.39,1.31-.96,1.71-1.7.4-.74.59-1.57.59-2.48,0-1.04-.24-1.98-.73-2.81s-1.15-1.41-2-1.74c-.85-.33-2.11-.49-3.8-.48ZM643.16,672.87c1.56,0,2.71-.18,3.46-.53.74-.35,1.31-.85,1.71-1.49.4-.64.59-1.45.59-2.44s-.2-1.8-.59-2.43c-.39-.63-.95-1.11-1.67-1.44-.73-.33-1.89-.49-3.5-.48v8.81Z"/>
    <path class="cls-4" d="M666.33,682.9c-1.88,1.66-3.57,2.49-5.07,2.49-.88,0-1.61-.29-2.2-.87-.58-.58-.87-1.3-.87-2.17,0-1.18.51-2.24,1.52-3.18,1.01-.94,3.22-2.19,6.62-3.75v-1.55c0-1.17-.06-1.9-.19-2.2-.13-.3-.37-.57-.72-.79-.35-.22-.75-.34-1.19-.34-.71,0-1.3.16-1.77.48-.29.2-.43.43-.43.69,0,.23.15.52.46.86.42.47.63.93.63,1.37,0,.54-.2,1-.6,1.38-.4.38-.93.57-1.58.57-.69,0-1.27-.21-1.74-.63-.47-.42-.7-.91-.7-1.47,0-.79.31-1.55.94-2.27s1.5-1.27,2.62-1.66c1.12-.38,2.29-.58,3.5-.58,1.46,0,2.62.31,3.47.93.85.62,1.41,1.3,1.66,2.02.15.46.23,1.52.23,3.18v5.99c0,.7.03,1.15.08,1.33.05.18.14.32.25.4.11.09.24.13.38.13.29,0,.58-.2.88-.61l.5.4c-.55.81-1.12,1.41-1.71,1.77-.59.37-1.26.55-2.01.55-.88,0-1.57-.21-2.06-.62-.5-.41-.8-1.04-.91-1.87ZM666.33,681.69v-5.17c-1.33.78-2.32,1.62-2.97,2.51-.43.59-.64,1.19-.64,1.8,0,.51.18.95.54,1.34.27.3.66.45,1.16.45.55,0,1.19-.31,1.91-.92Z"/>
    <path class="cls-4" d="M680.98,662.8v14.72l3.58-3.52c.74-.71,1.2-1.23,1.38-1.55.18-.32.27-.63.27-.92s-.12-.54-.36-.74c-.24-.2-.71-.34-1.42-.43v-.61h6.92v.61c-.66.03-1.24.19-1.73.47-.5.28-1.46,1.12-2.9,2.53l-1.68,1.65,3.63,5.31c1.46,2.16,2.33,3.37,2.61,3.63.37.38.85.58,1.42.63v.59h-7.97v-.59c.35,0,.61-.07.77-.2s.24-.28.24-.43c0-.25-.23-.72-.69-1.4l-3.05-4.47-.99.97v2.77c0,1.18.11,1.91.33,2.2.22.29.67.48,1.35.55v.59h-7.97v-.59c.65-.07,1.11-.28,1.39-.63.19-.24.28-.95.28-2.13v-15.68c0-1.17-.11-1.89-.32-2.18-.21-.29-.66-.47-1.35-.56v-.61h6.29Z"/>
    <path class="cls-4" d="M706.58,676.91h-8.47c.1,2.05.64,3.66,1.63,4.85.76.91,1.67,1.37,2.74,1.37.66,0,1.26-.18,1.8-.55.54-.37,1.12-1.03,1.73-1.99l.56.36c-.84,1.71-1.76,2.91-2.77,3.62-1.01.71-2.18,1.06-3.51,1.06-2.29,0-4.02-.88-5.2-2.64-.95-1.42-1.42-3.18-1.42-5.28,0-2.57.7-4.62,2.09-6.15,1.39-1.52,3.02-2.29,4.89-2.29,1.56,0,2.92.64,4.07,1.92,1.15,1.28,1.77,3.18,1.86,5.7ZM702.52,675.8c0-1.77-.1-2.99-.29-3.65-.19-.66-.49-1.16-.9-1.5-.23-.2-.54-.3-.92-.3-.57,0-1.04.28-1.4.84-.65.98-.97,2.32-.97,4.03v.58h4.49Z"/>
    <path class="cls-4" d="M714.91,669.75v3.5c1.02-1.6,1.92-2.65,2.69-3.18.77-.52,1.51-.78,2.23-.78.62,0,1.11.19,1.48.57.37.38.55.92.55,1.61,0,.74-.18,1.31-.54,1.72-.36.41-.79.61-1.3.61-.58,0-1.09-.19-1.52-.56-.43-.37-.68-.58-.76-.63-.11-.07-.24-.1-.38-.1-.32,0-.62.12-.91.36-.45.37-.79.91-1.02,1.6-.35,1.07-.53,2.24-.53,3.53v3.55l.02.92c0,.63.04,1.03.12,1.21.13.3.33.51.59.65s.7.22,1.31.26v.59h-8.33v-.59c.67-.06,1.12-.24,1.36-.55.24-.31.35-1.14.35-2.48v-8.53c0-.88-.04-1.44-.13-1.68-.11-.31-.27-.53-.48-.68-.21-.14-.58-.24-1.11-.3v-.61h6.3Z"/>
    <path class="cls-4" d="M730.59,685.8l-4.98-11.44c-.75-1.73-1.3-2.79-1.66-3.19s-.79-.67-1.3-.83v-.61h8.2v.61c-.54.02-.92.13-1.14.31-.22.19-.33.41-.33.68,0,.42.28,1.24.83,2.48l2.64,6.04,1.8-4.67c.65-1.66.97-2.82.97-3.47,0-.41-.13-.73-.4-.97s-.75-.37-1.43-.4v-.61h5.17v.61c-.51.06-.92.25-1.24.59-.32.34-.85,1.48-1.6,3.42l-4.41,11.44c-1.11,2.86-1.94,4.62-2.48,5.28-.76.92-1.71,1.39-2.85,1.39-.91,0-1.65-.26-2.22-.78-.57-.52-.85-1.15-.85-1.89,0-.64.2-1.17.59-1.58.39-.42.87-.63,1.44-.63s.99.18,1.33.53c.34.35.51.9.52,1.63.01.42.06.69.15.81.09.12.21.18.38.18.26,0,.54-.16.84-.48.44-.46.96-1.52,1.55-3.17l.48-1.29Z"/>
  </g>
  <path class="cls-2" d="M929.27,641.85c-259.36-190.77-518.69,190.77-778.04,0v-190.77c259.35,190.77,518.68-190.75,778.04,0v190.77Z"/>
  <g>
    <path class="cls-6" d="M337.43,554.25l.22-3.17,34.49,1.84-.22,3.17c-2.6.21-5.28.84-8.03,1.88-2.76,1.05-5.5,2.43-8.25,4.16-2.74,1.72-5.87,3.92-9.37,6.58l-14.74,11.53,27.95,39.84c2.07,2.96,3.74,5.14,5,6.51,1.26,1.38,2.56,2.44,3.92,3.19s2.95,1.29,4.78,1.61l-.22,3.17-38.76-2.07.22-3.17c6.15.33,9.32-.89,9.51-3.66.07-.96-.17-1.97-.72-3.02-.55-1.05-1.29-2.24-2.25-3.56l-20.88-29.75-7.65,6.07-1.52,22.07c-.22,3.15.09,5.58.92,7.28.83,1.7,2.46,2.75,4.91,3.15,1.26.15,2.31.29,3.13.43.82.14,1.54.25,2.15.32l-.22,3.17-39.34-2.1.22-3.17,1.79.09c3.38.18,5.91-.09,7.58-.81,1.67-.72,2.79-1.83,3.35-3.32s.94-3.51,1.11-6.04l3.72-54.17c.18-2.57.02-4.56-.46-5.95-.48-1.39-1.63-2.49-3.45-3.28-1.82-.79-4.65-1.29-8.5-1.5l.22-3.17,39.34,2.1-.22,3.17-.81-.04c-4.5-.24-7.51.31-9.03,1.66-1.52,1.35-2.4,3.71-2.63,7.09l-1.97,28.7,24.85-19.67c2.78-2.2,4.89-4.16,6.34-5.88s2.23-3.38,2.34-4.99c.12-1.73-.39-3.16-1.53-4.3-1.14-1.14-2.82-1.77-5.05-1.89l-2.25-.12ZM302.05,617.54l3.74-54.46c.29-4.23.02-7.06-.8-8.52-.83-1.45-3.01-2.25-6.55-2.4,1.83.95,2.96,2.05,3.39,3.3.44,1.26.5,4.06.21,8.4l-3.74,54.4c-.2,2.88-.66,4.9-1.37,6.06-.72,1.16-2.08,2.09-4.1,2.79l1.44.08c2.34.13,4.04-.16,5.09-.86s1.72-1.68,2-2.96c.28-1.28.51-3.22.69-5.83ZM345.83,616.41l-21.35-30.52-2.76,2.22,19.85,28.82c1.52,2.09,2.62,3.8,3.32,5.15.7,1.35,1,2.66.92,3.92-.11,1.65-1.15,2.91-3.1,3.77l1.5.08c1.54.08,2.82-.31,3.84-1.18,1.02-.87,1.58-1.92,1.66-3.15.15-2.19-1.15-5.23-3.89-9.12ZM359.4,555.42l-13.55-.72c1.7,1.59,2.49,3.3,2.37,5.1-.08,1.15-.45,2.33-1.11,3.53,2.78-2.24,4.96-3.91,6.54-5s3.5-2.06,5.76-2.9Z"/>
    <path class="cls-6" d="M398.55,566.04l-2.86,41.67c-.12,1.77-.04,3.04.23,3.8.28.77.88,1.13,1.8,1.1s2.37-.41,4.33-1.12l-.22,3.17-25.04,10.03.22-3.17c2.22-.96,3.8-2.06,4.74-3.3.94-1.23,1.48-2.98,1.64-5.25l1.82-26.45c.11-1.65-.3-2.98-1.24-3.99-.94-1-2.33-1.47-4.18-1.41l.13-1.84,16.44-12.36,2.2-.88ZM386.96,585.98l-1.88,27.37c-.15,2.23-1,4.21-2.55,5.95,1.97-.79,3.44-1.84,4.42-3.17.98-1.33,1.54-3.08,1.69-5.27l1.86-27.03c.17-2.46-.26-4.13-1.27-5.01-1.02-.88-2.42-.96-4.21-.25-.82.33-1.49.63-1.99.91,2.89.49,4.2,2.65,3.94,6.49ZM393.88,540.61c1.36-.54,2.6-.7,3.73-.46,1.13.24,1.99.84,2.59,1.79.59.96.84,2.17.74,3.62-.1,1.46-.53,2.95-1.3,4.47-.77,1.52-1.76,2.88-2.99,4.08-1.23,1.2-2.53,2.08-3.88,2.62-2.04.82-3.74.71-5.09-.32-1.36-1.03-1.96-2.64-1.81-4.83.1-1.42.52-2.89,1.27-4.4.75-1.51,1.72-2.86,2.94-4.03,1.21-1.18,2.48-2.03,3.8-2.56ZM394.66,542.09c-2.11.84-3.77,2.03-4.99,3.57-1.22,1.54-1.89,3.24-2.02,5.12-.12,1.81.33,3.07,1.36,3.8,1.03.73,2.63.71,4.8-.04-1.07-.66-1.84-1.31-2.32-1.96-.47-.65-.67-1.65-.58-2.99.17-2.5,1.42-5,3.75-7.5Z"/>
    <path class="cls-6" d="M414.99,530.17l68.03-27.6,2.55,17.45-3.85,1.56c-2.41-3.84-5.03-6.31-7.87-7.4-2.84-1.09-5.57-1.32-8.2-.71s-6.08,1.76-10.36,3.42l-4.5,65.52c-.17,2.54.07,4.31.73,5.34.66,1.02,1.83,1.43,3.5,1.24,1.68-.2,4.05-.86,7.11-1.99l-.22,3.17-37.52,15.22.22-3.17c3.11-1.33,5.51-2.56,7.2-3.68,1.69-1.11,3-2.54,3.94-4.29.93-1.74,1.5-4.11,1.71-7.11l4.45-64.83c-3.86,1.6-7.24,3.38-10.15,5.32-2.91,1.95-5.37,3.98-7.39,6.11-2.02,2.13-3.71,4.21-5.08,6.24-1.37,2.03-3.4,5.16-6.08,9.39l-3.27,1.32,5.05-20.54ZM424.73,529.3l-8.67,3.52-2.76,10.64c2-3.31,3.72-5.87,5.16-7.67,1.44-1.8,3.53-3.96,6.27-6.5ZM442.74,583.73l3.89-56.65c.15-2.23.03-3.8-.38-4.72-.41-.92-1.26-1.17-2.58-.75l-4.5,65.52c-.16,2.38-.56,4.39-1.19,6.03-.63,1.64-1.72,3.29-3.26,4.96l1.18-.48c2.6-1.06,4.32-2.61,5.16-4.67.83-2.06,1.39-5.14,1.68-9.25ZM479.98,515.85l-1.77-8.24-10.06,4.08c2.65-.18,4.83.09,6.55.82,1.72.72,3.48,1.84,5.29,3.35Z"/>
    <path class="cls-6" d="M560.27,472.69l4.45-1.63-1.75,25.53-3.36,1.23c-1.44-3.14-3.05-5.78-4.82-7.93-1.78-2.14-3.7-3.76-5.78-4.85-2.08-1.1-4.29-1.67-6.65-1.72-2.36-.05-4.93.43-7.72,1.45-3.76,1.38-7.24,3.52-10.44,6.43-3.2,2.91-5.99,6.43-8.39,10.54-2.4,4.12-4.37,8.78-5.9,13.99-1.54,5.21-2.5,10.52-2.87,15.94-.52,7.57.21,13.85,2.2,18.86,1.98,5,5,8.37,9.06,10.08,4.06,1.72,8.82,1.58,14.28-.42,3.36-1.23,6.65-3,9.86-5.32,3.21-2.32,6.32-5.2,9.34-8.64,3.02-3.45,5.88-7.41,8.59-11.88l3.07.73c-4.52,7.76-9.74,14.27-15.67,19.53-5.93,5.26-12.62,9.25-20.07,11.98-5.79,2.12-11.05,2.99-15.78,2.63-4.73-.37-8.74-1.83-12.02-4.39-3.28-2.56-5.69-6.05-7.24-10.47-1.55-4.41-2.13-9.46-1.74-15.15.42-6.15,1.84-12.24,4.27-18.28,2.42-6.04,5.58-11.62,9.48-16.76,3.89-5.13,8.31-9.6,13.24-13.41,4.93-3.81,10.09-6.7,15.48-8.67,2.02-.74,3.9-1.27,5.63-1.58,1.73-.31,3.78-.57,6.16-.77,2.38-.2,3.98-.34,4.82-.44.83-.1,1.81-.35,2.93-.77,2.86-1.05,5.3-2.99,7.33-5.83ZM522.18,489.1c-5.76,4.32-10.54,8.71-14.34,13.17-2.19,2.6-4.16,5.34-5.91,8.23-1.75,2.89-3.27,5.84-4.55,8.85-1.28,3.02-2.33,6.14-3.13,9.38-.8,3.23-1.3,6.29-1.5,9.17-.47,6.92.42,12.81,2.7,17.69,2.27,4.88,5.94,8.28,10.99,10.19,5.05,1.92,11.21,1.97,18.5.17-4.72.42-8.97.04-12.75-1.12-3.78-1.16-6.93-3.06-9.44-5.7-2.52-2.64-4.32-5.84-5.42-9.62-1.1-3.77-1.49-7.99-1.17-12.63.26-3.84,1.14-8.09,2.62-12.76,1.48-4.66,3.41-9.02,5.76-13.06,2.71-4.63,5.42-8.54,8.13-11.74,2.71-3.2,5.87-6.61,9.51-10.22ZM557.15,487.99l.35-9.68c-1.75,1.43-3.57,2.49-5.45,3.18-.91.33-1.75.57-2.53.7,1.74.82,3.18,1.71,4.31,2.66,1.13.95,2.24,2,3.33,3.14Z"/>
    <path class="cls-6" d="M621.12,535.57l.22-3.17c3.74-1.18,6.39-2.25,7.95-3.23,1.57-.98,2.65-2.27,3.25-3.86.6-1.59,1.02-4.08,1.25-7.46l1.73-25.12-39.7,10.5-1.64,23.86c-.2,2.84-.24,4.96-.13,6.34.11,1.39.49,2.42,1.16,3.09.67.67,1.7,1.01,3.11,1.02,1.41,0,3.59-.25,6.55-.77l-.22,3.17-37.3,9.86.22-3.17c2.68-.79,4.75-1.51,6.21-2.18,1.45-.67,2.63-1.51,3.52-2.54.89-1.03,1.55-2.31,1.96-3.86.42-1.54.72-3.62.9-6.23l3.71-54.05c.25-3.69-.41-5.88-1.99-6.58-1.58-.69-4.63-.54-9.16.47l.22-3.17,37.3-9.86-.22,3.17c-3.69,1.01-6.36,2.11-8.01,3.31-1.65,1.19-2.74,2.69-3.27,4.49-.53,1.8-.92,4.56-1.17,8.29l-1.45,21.09,39.7-10.5,1.66-24.2c.2-2.84.02-4.82-.52-5.94-.54-1.12-1.56-1.71-3.06-1.77-1.49-.06-3.96.24-7.41.88l.22-3.17,37.3-9.86-.22,3.17c-3.73,1.1-6.39,2.16-7.98,3.18-1.59,1.02-2.68,2.44-3.28,4.26-.6,1.82-1.04,4.71-1.31,8.66l-3.45,50.25c-.22,3.15-.15,5.47.21,6.96.35,1.49,1.31,2.4,2.88,2.72s4.16-.03,7.78-1.07l-.22,3.17-37.3,9.86ZM585.68,477.73l-3.78,55.03c-.23,3.34-.76,5.79-1.6,7.35-.84,1.56-1.84,2.87-3.01,3.94l1.62-.43c2.16-.57,3.74-1.84,4.73-3.83.99-1.98,1.61-4.73,1.86-8.27l3.55-51.69c.25-3.69.31-6.33.16-7.94-.15-1.6-.71-2.67-1.7-3.2-.99-.53-2.68-.4-5.07.38,1.36.39,2.29,1.18,2.8,2.34.5,1.17.65,3.27.44,6.3ZM639.4,462.73l-3.92,57.11c-.2,2.84-.65,4.92-1.36,6.22-.71,1.3-1.8,2.58-3.28,3.84l1.84-.49c2.01-.53,3.5-1.51,4.48-2.94.98-1.43,1.55-3.43,1.73-6l3.93-57.17c.24-3.53.09-6.06-.47-7.57-.55-1.51-2.13-1.92-4.74-1.24l-1.62.43c1.51.32,2.5,1.05,2.97,2.21.47,1.16.61,3.02.44,5.6Z"/>
    <path class="cls-6" d="M694.65,482.88l-1.74,25.36c-.19,2.8-.14,4.98.16,6.52.3,1.54.96,2.67,1.99,3.39,1.03.72,2.54,1.14,4.55,1.27,2.01.13,4.76.14,8.26.04,4.23-.13,8.08-.89,11.54-2.28,3.46-1.39,6.76-3.39,9.92-5.99,3.16-2.61,6.65-6.06,10.48-10.35l4.62-.14-8.65,21.08-71.07,2.16.22-3.17c3.43-.18,6.06-.56,7.88-1.13,1.83-.57,3.15-1.48,3.99-2.71.83-1.23,1.33-2.96,1.48-5.19l3.92-56.99c.18-2.69-.03-4.64-.63-5.85-.61-1.21-1.73-2.01-3.35-2.4-1.62-.39-4.33-.62-8.13-.7l.22-3.17,68.25-2.07,5.72,18.17-4.16.13c-2.04-2.74-4.59-5.2-7.64-7.39-3.06-2.19-6.53-3.91-10.42-5.18-3.89-1.26-8.05-1.83-12.47-1.69-3.5.11-6.17.56-7.99,1.36-1.82.8-3.07,1.89-3.74,3.25-.67,1.36-1.08,3.14-1.23,5.33l-1.73,25.13,11.6-.35c10.12-.31,15.56-5.09,16.31-14.35l4.04-.12-2.1,30.54-3.58.11c-.14-4.67-1.22-8.04-3.25-10.11-2.03-2.07-5.28-3.03-9.74-2.9l-13.51.41ZM684.06,455.14l-3.83,55.73c-.19,2.8-.66,4.87-1.41,6.2-.75,1.33-1.8,2.45-3.17,3.37,3.2-.14,5.32-1.03,6.38-2.7,1.05-1.66,1.71-4.32,1.96-7.97l3.83-55.78c.22-3.26-.19-5.41-1.23-6.43-1.04-1.02-2.99-1.53-5.83-1.52,1.37.73,2.31,1.72,2.82,2.99.51,1.27.67,3.31.47,6.11ZM720.67,485.83l.78-11.3c-1.68,2.62-4.54,4.59-8.59,5.9,2.08.51,3.7,1.15,4.88,1.92,1.18.77,2.15,1.93,2.93,3.48ZM730.21,518.78l4.67-10.15c-2.44,2.53-4.62,4.42-6.56,5.69-1.93,1.27-4.65,2.85-8.16,4.76l10.05-.31ZM732.88,443.88l-10.45.32c2.82.87,5.3,1.95,7.44,3.22,2.14,1.28,4.4,2.82,6.77,4.62l-3.76-8.17Z"/>
    <path class="cls-6" d="M805.93,473.24l.22-3.17,27.12,14.83-.22,3.17c-2.27-1.16-4.29-1.67-6.07-1.53s-3.23.97-4.35,2.49c-1.12,1.52-1.78,3.72-1.98,6.6l-3.58,66.62-3.14-1.72-47.07-97.13-2.42,46.69c-.13,2.92-.1,5.46.11,7.62.2,2.16.69,4.21,1.47,6.16.78,1.94,1.96,3.78,3.54,5.52,1.58,1.74,3.66,3.46,6.25,5.15l-.22,3.17-26.91-14.72.22-3.17c3.54,1.61,6.22,1.96,8.05,1.05,1.83-.91,3.05-2.63,3.64-5.15.59-2.52.97-5.9,1.12-10.12l2.53-47.58c-1.76-3.43-3.51-6.28-5.25-8.52-1.74-2.25-3.59-3.91-5.55-4.98l-.61-.33.22-3.17,20.93,11.44,41.5,85.54,2.07-40.9c.21-3.11.12-5.91-.29-8.38s-1.22-4.75-2.45-6.81c-.87-1.59-2.17-3.23-3.9-4.91-1.72-1.68-3.38-2.94-4.97-3.77ZM755.12,523.24l10.69,5.85c-1.4-2.12-2.37-3.91-2.92-5.36-.55-1.46-.97-3.3-1.28-5.54-.56,1.57-1.35,2.76-2.35,3.59-1,.83-2.39,1.32-4.15,1.47ZM811.18,544.57l-41.5-85.53c-.85-1.9-1.89-3.76-3.11-5.59-1.22-1.82-3.02-3.38-5.38-4.68l-2.28-1.25c1.84,1.8,3.25,3.54,4.22,5.21.97,1.67,2.32,4.31,4.03,7.91l47.31,97.38c.04-1.13.08-2.24.1-3.33.02-1.08-.03-1.93-.17-2.54-.13-.61-.41-1.43-.83-2.46s-1.21-2.74-2.38-5.13ZM823.67,482.94l-11.1-6.07c1.64,1.58,2.96,3.23,3.94,4.97.99,1.73,1.78,3.8,2.39,6.21,1.01-2.99,2.6-4.7,4.77-5.11Z"/>
  </g>
  <g>
    <path class="cls-8" d="M452.87,626.59l-5.12,2.06-1.03,14.98-3.44,1.39,1.03-14.98-5.05,2.04.21-3,13.61-5.49-.21,3Z"/>
    <path class="cls-8" d="M460.8,637.99c-.13-.26-.22-.62-.25-1.07-.87,1.28-1.95,2.18-3.24,2.7-1.22.49-2.2.51-2.95.07-.75-.44-1.08-1.23-1-2.39.1-1.42.66-2.7,1.69-3.84,1.03-1.15,2.47-2.09,4.32-2.84l1.53-.61.05-.77c.04-.62-.07-1.05-.34-1.3-.27-.25-.72-.25-1.36,0-.56.22-1.01.54-1.35.96-.34.42-.52.87-.56,1.38l-3.32,1.33c.05-.77.33-1.58.82-2.41.49-.84,1.15-1.6,1.99-2.3.84-.7,1.76-1.25,2.78-1.65,1.53-.61,2.72-.68,3.57-.21.84.47,1.21,1.45,1.11,2.95l-.4,5.79c-.08,1.26.02,2.16.3,2.68v.21s-3.37,1.34-3.37,1.34ZM458.22,636.6c.49-.2.95-.49,1.38-.89.43-.4.76-.84.99-1.31l.16-2.3-1.24.5c-1.66.66-2.59,1.63-2.78,2.91l-.03.21c-.03.44.09.75.36.92.27.17.66.16,1.17-.04Z"/>
    <path class="cls-8" d="M473.21,629.49c.03-.44-.15-.7-.53-.79-.39-.09-1.02-.06-1.9.09-2.92.5-4.31-.27-4.17-2.3.08-1.19.61-2.36,1.58-3.51.97-1.16,2.2-2.03,3.68-2.61,1.58-.62,2.82-.72,3.71-.3.89.43,1.3,1.28,1.21,2.55l-3.33,1.31c.04-.51-.09-.87-.37-1.08-.28-.21-.75-.19-1.41.07-.56.22-1,.53-1.33.92s-.5.8-.53,1.22c-.03.4.13.64.46.75.33.11.91.08,1.73-.07.82-.15,1.5-.22,2.05-.23,1.71,0,2.51.85,2.39,2.56-.08,1.22-.64,2.4-1.67,3.53-1.03,1.14-2.31,2.01-3.86,2.62-1.04.41-1.96.58-2.74.5-.78-.08-1.38-.38-1.79-.89-.41-.51-.59-1.17-.54-1.98l3.16-1.24c-.01.62.17,1.02.56,1.2.38.18.92.13,1.6-.14.64-.25,1.13-.57,1.47-.96.34-.39.53-.79.56-1.21Z"/>
    <path class="cls-8" d="M483.48,612.88l-.23,3.29,2.13-.83-.18,2.62-2.13.83-.46,6.67c-.03.49.03.81.19.96.16.15.49.12.99-.07.37-.14.7-.3.99-.47l-.19,2.7c-.67.47-1.35.84-2.04,1.11-2.34.91-3.44.11-3.32-2.4l.49-7.2-1.82.71.18-2.62,1.82-.71.23-3.29,3.34-1.29Z"/>
    <path class="cls-8" d="M491.35,621.14l2.88-9.19,3.58-1.37-6.09,17.36-.33.81c-.87,2.03-2.16,3.38-3.88,4.03-.49.19-.97.3-1.46.33l.19-2.7.51-.18c.63-.24,1.11-.53,1.44-.85.33-.32.59-.76.81-1.31l.47-1.25-3.46-11.72,3.6-1.38,1.75,7.42Z"/>
    <path class="cls-8" d="M511.41,618.51c-.13-.26-.22-.62-.25-1.07-.88,1.26-1.97,2.14-3.27,2.62-1.23.46-2.22.46-2.98,0-.76-.46-1.09-1.26-1.02-2.42.1-1.42.67-2.68,1.7-3.81s2.49-2.03,4.36-2.73l1.54-.57.05-.76c.04-.62-.07-1.06-.34-1.32s-.73-.27-1.37-.03c-.57.21-1.02.52-1.36.92-.34.41-.53.86-.56,1.36l-3.35,1.24c.05-.77.33-1.57.82-2.4.49-.82,1.16-1.58,2.01-2.25.85-.68,1.78-1.21,2.8-1.58,1.55-.57,2.75-.61,3.6-.12.85.49,1.23,1.48,1.12,2.98l-.4,5.79c-.08,1.27.02,2.16.3,2.69v.21s-3.4,1.25-3.4,1.25ZM508.81,617.06c.5-.18.96-.47,1.39-.86.43-.39.76-.82.99-1.29l.16-2.3-1.25.46c-1.68.62-2.61,1.57-2.81,2.85l-.03.21c-.03.44.09.76.37.93.27.18.67.17,1.18-.01Z"/>
    <path class="cls-8" d="M520.9,602.02v1.51c.98-1.52,2.23-2.55,3.74-3.1,1.33-.48,2.3-.42,2.9.17.59.6.84,1.72.74,3.37l-.59,8.63-3.37,1.21.59-8.54c.05-.76-.06-1.25-.35-1.48-.29-.23-.79-.21-1.51.05-.95.34-1.69,1.03-2.22,2.05l-.65,9.42-3.37,1.21.92-13.36,3.17-1.14Z"/>
    <path class="cls-8" d="M530.17,605.1c.14-2.08.7-3.9,1.67-5.44.97-1.54,2.22-2.58,3.75-3.12,1.23-.43,2.21-.3,2.95.39l.47-6.82,3.39-1.18-1.3,18.97-3.05,1.06-.07-1.36c-.92,1.41-2.04,2.34-3.36,2.8-1.49.52-2.64.32-3.45-.61-.81-.92-1.15-2.49-1-4.7ZM533.53,604.19c-.09,1.25.05,2.14.42,2.67.37.52.94.65,1.73.37,1.04-.36,1.81-1.09,2.31-2.17l.36-5.28c-.36-.79-1.05-1-2.09-.64-1.63.57-2.54,2.25-2.73,5.04Z"/>
    <path class="cls-8" d="M563.85,600.34l-3.53,1.16-6.06-9.58-.81,11.83-3.53,1.16,1.24-17.98,3.53-1.16,6.07,9.6.81-11.85,3.52-1.15-1.23,17.98Z"/>
    <path class="cls-8" d="M574.48,595.7c-.92,1.33-2.12,2.23-3.61,2.69-1.37.42-2.39.34-3.05-.26s-.95-1.69-.86-3.28l.6-8.75,3.42-1.06-.59,8.64c-.1,1.39.46,1.9,1.68,1.53,1.16-.36,1.98-1.03,2.47-2l.65-9.47,3.43-1.06-.92,13.36-3.21,1v-1.33Z"/>
    <path class="cls-8" d="M585.54,577.41l-.23,3.29,2.2-.65-.18,2.62-2.2.65-.46,6.67c-.03.49.03.82.2.98.17.16.51.17,1.02.01.38-.11.72-.24,1.01-.38l-.19,2.7c-.69.41-1.39.72-2.1.94-2.41.71-3.55-.19-3.42-2.7l.5-7.2-1.88.55.18-2.62,1.88-.55.23-3.29,3.43-1.01Z"/>
    <path class="cls-8" d="M596.41,580.79c-.46.07-.87.15-1.23.25-1.3.37-2.19,1.07-2.65,2.1l-.6,8.74-3.44.98.92-13.36,3.25-.92v1.57c.76-1.42,1.76-2.31,2.98-2.66.38-.11.73-.16,1.06-.14l-.28,3.45Z"/>
    <path class="cls-8" d="M601.04,589.35l-3.46.94.92-13.36,3.46-.94-.92,13.36ZM598.53,573.54c.04-.54.24-1.02.61-1.46s.85-.74,1.45-.9c.59-.16,1.05-.12,1.37.13s.47.64.44,1.18c-.04.54-.25,1.04-.62,1.48-.38.44-.86.74-1.44.9-.58.16-1.04.11-1.37-.14-.33-.25-.48-.65-.44-1.19Z"/>
    <path class="cls-8" d="M609.18,570.86l-.23,3.29,2.21-.58-.18,2.62-2.21.58-.46,6.67c-.03.49.03.82.2.99.17.17.51.18,1.03.05.38-.1.72-.22,1.02-.35l-.19,2.7c-.69.39-1.4.68-2.12.87-2.43.63-3.58-.31-3.45-2.82l.49-7.2-1.89.49.18-2.62,1.89-.49.23-3.28,3.46-.9Z"/>
    <path class="cls-8" d="M615.84,585.54l-3.48.87.92-13.36,3.48-.87-.92,13.36ZM613.31,569.64c.04-.54.24-1.02.61-1.45.37-.43.86-.72,1.46-.87.59-.15,1.05-.09,1.38.17.33.26.47.66.44,1.19-.04.54-.25,1.03-.62,1.47-.38.43-.86.72-1.45.87-.58.15-1.04.09-1.38-.17-.33-.26-.48-.66-.44-1.2Z"/>
    <path class="cls-8" d="M618.63,578.14c.09-1.33.42-2.56.99-3.72.57-1.15,1.34-2.12,2.32-2.9.98-.78,2.08-1.32,3.32-1.6,1.76-.4,3.16-.18,4.2.67,1.04.85,1.56,2.2,1.56,4.07l-.04.91c-.14,2.05-.81,3.82-2.02,5.32-1.2,1.5-2.75,2.46-4.63,2.89-1.88.43-3.34.16-4.38-.82-1.04-.98-1.48-2.53-1.34-4.65v-.16ZM622.1,577.59c-.09,1.27.08,2.19.5,2.75.42.56,1.06.75,1.93.55.84-.19,1.53-.68,2.05-1.45.52-.77.83-1.89.93-3.35.09-1.24-.09-2.15-.51-2.73-.43-.58-1.07-.76-1.93-.57-.85.2-1.53.69-2.05,1.47-.51.79-.82,1.89-.92,3.32Z"/>
    <path class="cls-8" d="M640.62,578.71c-.94,1.24-2.17,2.02-3.7,2.33-1.41.28-2.45.09-3.14-.59-.68-.67-.98-1.8-.89-3.39l.6-8.75,3.51-.7-.59,8.64c-.1,1.39.48,1.96,1.73,1.71,1.19-.24,2.04-.82,2.54-1.75l.65-9.47,3.52-.71-.92,13.36-3.3.66v-1.34Z"/>
    <path class="cls-8" d="M653.99,573.99c.03-.44-.16-.74-.57-.92-.41-.18-1.08-.29-2.01-.32-3.1-.13-4.57-1.22-4.43-3.25.08-1.19.64-2.26,1.66-3.22,1.03-.96,2.33-1.57,3.9-1.84,1.68-.29,2.99-.11,3.94.51.95.63,1.38,1.58,1.29,2.86l-3.53.6c.04-.51-.1-.9-.4-1.18-.3-.28-.8-.36-1.49-.24-.59.1-1.06.32-1.41.64-.34.33-.53.7-.56,1.12-.03.4.14.68.49.86.35.18.96.28,1.83.31s1.59.1,2.18.22c1.82.38,2.66,1.42,2.55,3.12-.08,1.22-.67,2.29-1.75,3.22s-2.44,1.53-4.08,1.81c-1.11.19-2.07.15-2.91-.1-.83-.25-1.47-.69-1.91-1.3-.44-.61-.63-1.32-.58-2.13l3.34-.57c-.01.63.19,1.08.6,1.34.41.26.97.33,1.7.21.68-.11,1.2-.33,1.56-.65.36-.32.56-.69.59-1.11Z"/>
  </g>
</svg>