<?xml version="1.0" encoding="utf-8"?>
<!-- Generator: Adobe Illustrator 27.5.0, SVG Export Plug-In . SVG Version: 6.00 Build 0)  -->
<svg version="1.1" id="PRINT" xmlns="http://www.w3.org/2000/svg" xmlns:xlink="http://www.w3.org/1999/xlink" x="0px" y="0px"
	 viewBox="0 0 595.276 841.89" style="enable-background:new 0 0 595.276 841.89;" xml:space="preserve">
<rect x="-8.504" y="-8.504" style="fill:#2A3242;" width="612.193" height="858.771"/>
<g>
	<defs>
		<rect id="SVGID_1_" x="-8.504" y="-8.504" width="612.193" height="858.771"/>
	</defs>
	<clipPath id="SVGID_00000031200693964975067470000005871063232036474015_">
		<use xlink:href="#SVGID_1_"  style="overflow:visible;"/>
	</clipPath>
	
		<circle style="opacity:0.3;clip-path:url(#SVGID_00000031200693964975067470000005871063232036474015_);fill:#2A3242;" cx="507.015" cy="22.488" r="159.627"/>
	<g style="opacity:0.3;clip-path:url(#SVGID_00000031200693964975067470000005871063232036474015_);">
		<path style="fill:#2A3242;" d="M507.016,222.073c-110.053,0-199.587-89.534-199.587-199.586s89.534-199.586,199.587-199.586
			c110.051,0,199.585,89.534,199.585,199.586S617.067,222.073,507.016,222.073z M507.016-157.783
			c-99.401,0-180.272,80.869-180.272,180.271s80.87,180.271,180.272,180.271s180.27-80.869,180.27-180.271
			S606.417-157.783,507.016-157.783z"/>
	</g>
	<g style="opacity:0.3;clip-path:url(#SVGID_00000031200693964975067470000005871063232036474015_);">
		<path style="fill:#2A3242;" d="M384.39,941.828c-76.056,0-137.93-61.876-137.93-137.929c0-76.055,61.875-137.931,137.93-137.931
			c76.054,0,137.929,61.875,137.929,137.931C522.319,879.953,460.444,941.828,384.39,941.828z M384.39,688.244
			c-63.772,0-115.654,51.883-115.654,115.655c0,63.772,51.882,115.653,115.654,115.653s115.653-51.881,115.653-115.653
			C500.043,740.127,448.162,688.244,384.39,688.244z"/>
	</g>
	
		<ellipse transform="matrix(0.7071 -0.7071 0.7071 0.7071 -455.8567 507.261)" style="opacity:0.3;clip-path:url(#SVGID_00000031200693964975067470000005871063232036474015_);fill:#2A3242;" cx="384.39" cy="803.898" rx="99.682" ry="99.682"/>
	
		<rect x="544.538" y="591.509" transform="matrix(0.9618 -0.2736 0.2736 0.9618 -156.0728 191.4394)" style="clip-path:url(#SVGID_00000031200693964975067470000005871063232036474015_);fill:#FCBAD3;" width="127.421" height="127.421"/>
	
		<rect x="565.796" y="561.358" transform="matrix(0.9618 -0.2736 0.2736 0.9618 -144.9918 193.4314)" style="clip-path:url(#SVGID_00000031200693964975067470000005871063232036474015_);fill:none;stroke:#FFFFFF;stroke-miterlimit:10;" width="110.267" height="110.267"/>
	<g style="opacity:0.3;clip-path:url(#SVGID_00000031200693964975067470000005871063232036474015_);">
		<path style="fill:#2A3242;" d="M-44.452,328.329l-38.135-134.051L88.98,145.47l38.136,134.051L-44.452,328.329z M-63.496,204.913
			l29.679,104.325l141.842-40.352l-29.68-104.325L-63.496,204.913z"/>
	</g>
	
		<rect x="-67.48" y="462.302" transform="matrix(0.9618 -0.2736 0.2736 0.9618 -144.0754 19.0435)" style="clip-path:url(#SVGID_00000031200693964975067470000005871063232036474015_);fill:#AA96DA;" width="127.421" height="127.421"/>
	<g style="clip-path:url(#SVGID_00000031200693964975067470000005871063232036474015_);">
		<path style="fill:#FFD073;" d="M181.744,418.567h-249.35V250.586h249.35c46.387,0,83.99,37.604,83.99,83.991
			C265.735,380.964,228.131,418.567,181.744,418.567z"/>
	</g>
	
		<rect x="-42.35" y="407.591" transform="matrix(0.9618 -0.2736 0.2736 0.9618 -125.3581 20.1405)" style="clip-path:url(#SVGID_00000031200693964975067470000005871063232036474015_);fill:none;stroke:#FFFFFF;stroke-miterlimit:10;" width="103.743" height="103.743"/>
	
		<line style="clip-path:url(#SVGID_00000031200693964975067470000005871063232036474015_);fill:none;stroke:#FFFFFF;stroke-miterlimit:10;" x1="-28.253" y1="215.806" x2="128.451" y2="171.226"/>
</g>
<g>
	<polygon style="fill:#A8D8EA;" points="477.066,669.866 487.947,669.866 471.114,693.825 487.947,717.783 477.066,717.783 
		460.233,693.825 	"/>
	<polygon style="fill:#A8D8EA;" points="454.261,669.866 465.141,669.866 448.308,693.825 465.141,717.783 454.261,717.783 
		437.427,693.825 	"/>
	<polygon style="fill:#A8D8EA;" points="431.455,669.866 442.336,669.866 425.502,693.825 442.336,717.783 431.455,717.783 
		414.621,693.825 	"/>
	<polygon style="fill:#A8D8EA;" points="408.649,669.866 419.53,669.866 402.696,693.825 419.53,717.783 408.649,717.783 
		391.816,693.825 	"/>
</g>
<path style="fill:#FFFFFF;" d="M294.246,625.828h-4.651v-23.546h4.651V625.828z M310.06,602.282h-4.651v23.546h4.651V602.282z
	 M325.873,602.282h-4.651v23.546h4.651V602.282z M341.687,602.282h-4.651v23.546h4.651V602.282z M357.5,602.282h-4.651v23.546h4.651
	V602.282z M373.313,602.282h-4.651v23.546h4.651V602.282z M389.127,602.282h-4.651v23.546h4.651V602.282z"/>
<path style="fill:#FFD073;" d="M46.769,714.335v3.664H28.22v-3.664H46.769z M28.22,701.877v3.664h18.549v-3.664H28.22z
	 M28.22,689.419v3.664h18.549v-3.664H28.22z M28.22,676.961v3.664h18.549v-3.664H28.22z M28.22,664.504v3.664h18.549v-3.664H28.22z
	 M28.22,652.046v3.664h18.549v-3.664H28.22z M28.22,639.588v3.664h18.549v-3.664H28.22z"/>
<g>
	<path style="fill:#D6A298;" d="M187.419,303.553c0,3.051-2.473,5.524-5.524,5.524c-3.051,0-5.524-2.473-5.524-5.524
		c0-3.051,2.473-5.524,5.524-5.524C184.946,298.029,187.419,300.502,187.419,303.553z"/>
	<path style="fill:#D6A298;" d="M147.795,326.19c0,3.051-2.473,5.524-5.524,5.524c-3.051,0-5.524-2.473-5.524-5.524
		c0-3.051,2.473-5.524,5.524-5.524C145.322,320.666,147.795,323.139,147.795,326.19z"/>
	<path style="fill:#3B2C2A;" d="M182.512,312.744c-0.785-14.813-6.374-29.333-15.722-40.851c-1.935-2.384-4.521-4.844-7.573-4.513
		c-3.387,0.368-5.387,3.931-6.49,7.154c-6.935-1.483-15.108,0.254-20.378,4.999c-5.27,4.745-8.233,11.857-8.228,18.949
		c0.005,7.092,2.892,14.082,7.642,19.348c5.039,5.586,11.886,9.152,18.616,12.514C161.327,325.768,173.267,320.182,182.512,312.744z
		"/>
	<path style="opacity:0.5;fill:#3B2C2A;" d="M155.637,284.33c2.598-2.24,4.22-5.411,6.659-7.822
		c1.554-1.536,3.732-2.714,5.845-2.879c-0.444-0.583-0.889-1.166-1.351-1.735c-0.621-0.765-1.315-1.528-2.064-2.214
		c-1.549,0.496-3.008,1.596-4.011,2.906c-1.774,2.316-2.721,5.185-4.516,7.485c-3.05,3.908-8.101,5.646-12.966,6.592
		c-4.866,0.946-9.923,1.326-14.44,3.367c-1.42,0.642-2.768,1.524-3.971,2.558c-0.448,1.934-0.702,3.912-0.701,5.894
		c0.001,1.63,0.171,3.252,0.465,4.851c2.151-5.337,6.362-9.872,11.68-12.106C142.639,288.549,150.401,288.845,155.637,284.33z"/>
	<path style="fill:#FCBAD3;" d="M152.086,492.388c0,0-14.191,16.374-12.371,42.936c0,0-23.287,34.567-24.743,68.042
		c0,0-36.022,75.683-34.567,100.062c0,0-0.728,11.644,4.366,18.193c0,0-0.177,7.55-3.591,14.372
		c-3.414,6.822-9.69,19.103-8.053,31.383c1.637,12.28,21.832,14.191,21.832,14.191s8.733,2.456,12.007-6.823
		c3.275-9.278-0.819-19.103,1.092-28.108s4.415-19.922,4.415-19.922s15.78-4.912,17.963-12.826
		c2.183-7.914,2.729-29.746,10.097-41.753c7.368-12.008,9.733-20.74,11.553-30.292c1.819-9.551,10.006-20.74,10.006-20.74
		s0.989,22.159-2.765,44.846c-3.868,23.378-12.79,37.023-12.79,37.023s-9.551,6.822-13.645,16.647c0,0,27.563,34.931,46.938,44.209
		c0,0,5.458-2.456,3.548-12.008c-1.91-9.551-12.553-21.559-9.824-38.206c0,0,10.37-1.365,15.282-4.639
		c0,0,4.366-30.837,6.277-42.299c1.91-11.462,18.557-11.462,25.652-41.207c7.095-29.746,23.161-47.871,18.812-127.773l-24.543-6.493
		L152.086,492.388z"/>
	<path style="fill:#FCBAD3;" d="M215.034,491.205l-62.948,1.183c0,0-14.191,16.374-12.371,42.936c0,0-16.17,24.02-22.4,51.402
		c7.435-22.437,27.312-50.311,27.312-50.311c-0.858-6.861,2.173-11.918,5.916-15.457c4.491-4.246,10.448-6.622,16.616-7.024
		c41.587-2.71,72.419-16.236,72.419-16.236L215.034,491.205z"/>
	<path style="fill:#FCBAD3;" d="M189.655,651.941c0,0,14.464-16.92,18.83-30.837c4.366-13.918-1.819-59.946-1.819-59.946
		s-9.097,7.277-17.465,22.56c-8.369,15.282-12.008,18.921-16.01,22.195c-4.002,3.275-11.098,15.191-11.098,15.191
		c4.912,15.555,3.093,37.933,0,62.311c-1.836,14.476,5.115,26.899,11.066,34.603c0.044-1.435,0.149-2.893,0.396-4.402
		c0,0,10.37-1.365,15.282-4.639C190.473,693.967,189.655,651.941,189.655,651.941z"/>
	<path style="fill:#FFFFFF;" d="M146.537,702.973c0,0-1.364,14.464-0.819,14.827c0.546,0.364,16.374,10.096,16.374,10.096
		l11.76-1.776c-0.778-3.862-1.035-8.009-0.298-12.505C158.09,715.253,146.537,702.973,146.537,702.973z"/>
	<path style="fill:#A8D8EA;" d="M146.537,702.973c0,0-9.551,6.822-13.645,16.647c0,0,27.563,34.931,46.938,44.209
		c0,0,5.458-2.456,3.548-12.008c-1.589-7.944-9.194-17.598-10.147-30.196l-0.021-0.02
		C151.58,719.042,146.537,702.973,146.537,702.973z"/>
	<path style="opacity:0.7;fill:#A8D8EA;" d="M179.83,763.829c0,0,1.064-0.482,2.089-1.84c-6.546-7.187-10.144-17.192-16.497-24.807
		c-4.471-5.359-10.254-9.453-15.131-14.445c-4.21-4.309-7.843-9.685-8.597-15.56c-2.99,2.951-6.647,7.274-8.801,12.444
		C132.892,719.62,160.455,754.55,179.83,763.829z"/>
	<path style="fill:#FFFFFF;" d="M112.473,726.715c0,0-0.048-9.279-9.69-13.099c-9.642-3.821-18.011,8.005-18.011,8.005
		s-0.177,7.55-3.591,14.373c-3.414,6.822-9.69,19.103-8.053,31.383c1.637,12.28,21.832,14.19,21.832,14.19s8.733,2.456,12.007-6.822
		c3.275-9.279-0.819-19.103,1.092-28.108C109.969,737.631,112.473,726.715,112.473,726.715z"/>
	<path style="fill:#A8D8EA;" d="M110.015,737.635c-1.415-1.685-2.614-3.559-4.022-5.257c-1.789-2.158-4.12-4.102-6.904-4.431
		c-2.101-0.248-4.193,0.454-6.145,1.27c-1.952,0.815-3.888,1.765-5.985,2.051c-1.259,0.172-2.606,0.049-3.77-0.429
		c-0.498,1.677-1.151,3.438-2.01,5.155c-3.414,6.822-9.69,19.103-8.053,31.383c1.637,12.28,21.832,14.19,21.832,14.19
		s8.733,2.456,12.007-6.822c3.275-9.279-0.819-19.103,1.092-28.108C108.684,743.689,109.372,740.542,110.015,737.635z"/>
	<path style="fill:#FFFFFF;" d="M74.522,771.485c4.946,8.616,20.438,10.082,20.438,10.082s6.279,1.741,10.185-3.393
		C94.578,779.412,83.609,777.016,74.522,771.485z"/>
	<path style="fill:#FCBAD3;" d="M171.371,602.638c0,0-21.732,20.213-44.027,21.468C127.343,624.106,130.618,664.858,171.371,602.638
		z"/>
	<path style="fill:#FCBAD3;" d="M145.59,653.215c0,0-22.249,33.475-38.259,30.201c-16.01-3.275-11.28-14.987-11.28-14.987
		s0.871,8.032,13.964,8.802C123.108,677.999,145.59,653.215,145.59,653.215z"/>
	<path style="fill:#FCBAD3;" d="M218.309,580.169c0,0-3.945,33.287,3.213,42.296l0,0c0.62-2.346,1.292-4.633,2-6.898
		C223.496,615.495,218.037,600.316,218.309,580.169z"/>
	<path style="opacity:0.7;fill:#A8D8EA;" d="M105.994,732.378c-1.789-2.158-4.12-4.102-6.904-4.431
		c-2.101-0.248-4.193,0.454-6.145,1.27c-1.952,0.815-3.888,1.765-5.985,2.051c-1.259,0.172-2.606,0.049-3.77-0.429
		c-0.498,1.677-1.151,3.438-2.01,5.155c-2.35,4.696-6.055,11.978-7.603,20.066c3.201,3.661,6.999,6.8,11.228,9.202
		c2.675,1.52,5.601,2.774,8.676,2.866c3.075,0.092,6.328-1.168,7.978-3.764c2.084-3.278,1.159-7.515,0.831-11.386
		c-0.573-6.783,1.054-13.707,4.476-19.586C106.508,733.054,106.265,732.705,105.994,732.378z"/>
	<path style="fill:#FFFFFF;" d="M181.017,762.985c-24.879-15.554-47.005-45.478-47.078-45.578c-0.374,0.721-0.731,1.454-1.047,2.212
		c0,0,27.563,34.931,46.938,44.209C179.83,763.829,180.353,763.592,181.017,762.985z"/>
	<path style="fill:#A8D8EA;" d="M192.292,350.425c0,0,2.73-9.767,11.827-15.953c9.097-6.186,15.646-17.102,16.738-24.743
		c1.092-7.641,0-15.646,4.73-21.468c4.73-5.822,13.463-20.74,16.01-31.656l-9.46-13.099c0,0-6.731-7.095-7.277-10.916
		c-0.546-3.821,2.115,0.182,2.115,0.182s-5.026-8.979-2.843-10.493c0,0-2.001-5.335-0.364-6.062
		c1.637-0.728,2.911,2.183,2.911,2.183s2.001-2.729,4.366,1.092c2.365,3.821,9.824,12.008,12.371,13.463
		c0,0-3.821-9.525-2.001-10.675c1.819-1.15,8.733,12.313,8.733,12.313s6.004,6.368,5.458,10.37c-0.546,4.003-3.093,15.1-3.093,15.1
		s-4.184,44.937-13.099,58.582c0,0-3.821,25.551-12.735,40.247c0,0,36.386,70.185,16.738,137.5c0,0-40.389,16.374-91.329-4.003
		c0,0,12.617-27.108,9.706-46.756c-2.911-19.649-18.803-37.296-18.803-37.296s-6.004-3.275-8.915-3.275
		c-2.911,0-6.55-0.546-8.915-2.547c0,0-9.46,5.64-30.382-14.373c0,0-21.104-13.827-24.924-25.288c0,0-14.191-20.194-11.28-21.832
		S72.4,354.12,72.4,354.12l1.092-1.637l-6.186-8.712c0,0-11.644-12.028-8.369-14.393c3.275-2.365,14.009,10.916,14.009,10.916
		l4.548,6.004l-4.003-8.005c0,0-12.553-15.646-9.278-18.193c3.275-2.547,14.736,14.918,14.736,14.918l4.73,7.459l-3.093-9.278
		c0,0-10.552-10.916-7.095-13.099c3.457-2.183,15.1,9.642,22.741,26.38c0,0,2.365,5.276,2.365,0.91c0,0-2.911-12.735,2.729-13.645
		c0,0,1.273,5.64,4.73,9.278c0,0,0.728,6.913,2.183,10.734c1.455,3.82,3.093,12.371,1.455,18.739c0,0,2.001,2.365,4.184,2.911
		c2.183,0.546,5.276-1.274,10.916,1.273c5.64,2.547,8.551,0.364,11.644,0.364c3.093,0,8.005-11.462,16.738-13.645
		s13.463-7.095,13.463-7.095l15.1-5.458L192.292,350.425z"/>
	<path style="opacity:0.3;fill:#A8D8EA;" d="M183.076,409.876c-0.17-4.098-0.789-7.361-0.789-7.361s-3.804-11.598-24.464-11.629
		l-8.428,10.871c-0.959-0.634-1.933-1.284-2.892-1.933c-3.541-2.381-7.129-4.979-9.217-8.706
		c-7.485-13.346,13.825-23.366,24.341-22.237c8.613,0.943,16.531,6.727,20.042,14.645
		C185.272,391.659,184.251,401.015,183.076,409.876z"/>
	<path style="opacity:0.7;fill:#A8D8EA;" d="M233.582,343.044c0.732-2.241,1.39-4.473,1.978-6.626
		c2.644-9.69,3.853-17.774,3.853-17.774c-5.458,18.557-12.008,30.789-12.008,30.789c-1.455-5.458-6.907-8.412-6.907-8.412
		c3.463,3.82,5.269,12.553,5.269,12.553c-3.639-6.368-11.448-8.369-11.448-8.369c5.835,3.548,12.358,13.685,12.358,13.685
		c2.229-3.674,4.139-8.026,5.751-12.488C232.831,345.287,233.216,344.164,233.582,343.044z"/>
	<path style="opacity:0.7;fill:#A8D8EA;" d="M183.076,409.876c-0.17-4.098-0.789-7.361-0.789-7.361s-3.804-11.598-24.464-11.629
		l-8.428,10.871l-0.031,0.031l-2.459,10.268c0,0,10.036,3.186,14.892,9.371c4.84,6.186,13.206,8.01,18.31,2.196
		C182.844,420.484,183.262,414.623,183.076,409.876z"/>
	<path style="opacity:0.7;fill:#A8D8EA;" d="M241.329,428.148c-6.856,19.274-20.517,36.05-38.003,46.668
		c10.9-2.058,21.534-6.751,28.704-15.215C239.199,451.137,241.091,439.238,241.329,428.148z"/>
	<path style="opacity:0.7;fill:#A8D8EA;" d="M244.507,444.358c0,0-3.624,22.195-30.193,36.75
		C214.314,481.108,241.232,476.378,244.507,444.358z"/>
	<path style="opacity:0.7;fill:#A8D8EA;" d="M214.32,502.237c17.95-1.338,29.095-5.847,29.095-5.847
		c4.406-15.093,5.988-30.328,5.801-44.886C249.16,451.979,244.273,492.342,214.32,502.237z"/>
	<path style="opacity:0.7;fill:#A8D8EA;" d="M191.515,502c-0.733-0.147-26.389-5.492-22.925-31.901
		c3.515-26.791-12.512-41.951-12.512-41.951l0,0c2.591,5.304,4.797,11.293,5.714,17.483c2.911,19.648-9.706,46.756-9.706,46.756
		C166.262,498.058,179.616,500.877,191.515,502z"/>
	<path style="opacity:0.7;fill:#A8D8EA;" d="M206.04,337.814c0.258-2.03,0.696-4.11,1.494-5.986
		c-1.092,0.949-2.231,1.838-3.416,2.643c-9.097,6.186-11.827,15.953-11.827,15.953l-10.551,0.421l-1.089,0.394
		c1.968,3.139,4.815,5.633,8.221,6.069c6.248,0.8,12.802-2.991,15.224-8.806C205.494,345.147,205.581,341.419,206.04,337.814z"/>
	<path style="opacity:0.7;fill:#A8D8EA;" d="M191.515,412.373c0,0,14.909,8.97,30.812,11.699
		C222.327,424.073,194.467,424.143,191.515,412.373z"/>
	<path style="opacity:0.7;fill:#A8D8EA;" d="M177.192,444.358c0,0,17.425,10.346,35.676,7.124
		C212.868,451.482,188.745,458.912,177.192,444.358z"/>
	<path style="fill:#D6A298;" d="M124.796,376.68c-5.64-2.547-8.733-0.728-10.916-1.274c-2.183-0.546-4.184-2.911-4.184-2.911
		c1.637-6.368,0-14.918-1.455-18.739c-1.455-3.82-2.183-10.734-2.183-10.734c-3.457-3.639-4.73-9.278-4.73-9.278
		c-5.64,0.91-2.729,13.645-2.729,13.645c0,4.366-2.365-0.91-2.365-0.91c-7.641-16.738-19.285-28.563-22.741-26.38
		c-3.457,2.183,7.095,13.099,7.095,13.099l3.093,9.279l-4.73-7.459c0,0-11.462-17.466-14.736-14.919
		c-3.275,2.547,9.278,18.193,9.278,18.193l5.349,10.698l-5.895-8.696c0,0-10.734-13.281-14.009-10.916
		c-3.275,2.365,8.369,14.393,8.369,14.393l6.186,8.713L72.4,354.12c0,0-10.916-14.736-13.827-13.099
		c-2.911,1.637,11.28,21.832,11.28,21.832c3.821,11.462,24.924,25.288,24.924,25.288c20.922,20.012,30.383,14.373,30.383,14.373
		c2.365,2.001,6.004,2.547,8.915,2.547c2.911,0,8.915,3.275,8.915,3.275s1.569,1.366,3.917,3.726
		c21.018,3.726,9.546-27.013,7.093-32.471c-2.453-5.458-17.559-2.547-17.559-2.547C133.347,377.043,130.436,379.227,124.796,376.68z
		"/>
	<path style="opacity:0.7;fill:#D6A298;" d="M97.967,349.074c0,0-9.935,11.312-4.708,21.083
		C93.259,370.157,83.587,356.851,97.967,349.074z"/>
	<path style="opacity:0.7;fill:#D6A298;" d="M159.178,398.43c-6.731,12.139-15.771,0.41-23.83,0.536
		c-8.733,0.137-13.099-4.093-13.099-4.093c-9.279,1.91-13.496-7.641-13.496-7.641c3.697-4.912,0.942-14.736,0.942-14.736
		s-2.456,3.821-6.823,7.914c-4.366,4.094-13.925,3.558-13.925,3.558v0c3.379,2.568,5.83,4.174,5.83,4.174
		c20.922,20.012,30.383,14.373,30.383,14.373c2.365,2.001,6.004,2.547,8.915,2.547c2.911,0,8.915,3.275,8.915,3.275
		s1.569,1.366,3.917,3.726C157.785,413.989,159.952,406.683,159.178,398.43z"/>
	<path style="fill:#D6A298;" d="M241.414,222.279c-1.819,1.15,2.001,10.675,2.001,10.675c-2.547-1.455-10.006-9.642-12.371-13.463
		c-2.365-3.82-4.366-1.092-4.366-1.092s-1.274-2.911-2.911-2.183c-1.637,0.728,0.364,6.063,0.364,6.063
		c-2.183,1.514,2.843,10.493,2.843,10.493s-2.661-4.003-2.115-0.182c0.546,3.821,7.277,10.916,7.277,10.916l9.46,13.099
		c-2.547,10.916-11.28,25.834-16.01,31.656c-4.73,5.822-3.639,13.827-4.73,21.468c-0.696,4.869-3.613,11.063-7.988,16.52
		l0.001,0.003c0,0,16.976,2.07,17.03,26.43c6.62-14.705,9.514-34.038,9.514-34.038c8.915-13.645,13.099-58.582,13.099-58.582
		s2.547-11.098,3.093-15.1c0.546-4.003-5.458-10.37-5.458-10.37S243.233,221.128,241.414,222.279z"/>
	<path style="opacity:0.7;fill:#D6A298;" d="M229.899,352.681c0.001-0.001,0.001-0.003,0.002-0.004
		c0.606-1.346,1.18-2.732,1.724-4.137c0.016-0.04,0.031-0.08,0.047-0.12c0.158-0.41,0.313-0.823,0.466-1.236
		c0.035-0.096,0.071-0.191,0.107-0.288c0.147-0.4,0.291-0.801,0.433-1.202c0.036-0.102,0.072-0.204,0.108-0.306
		c0.142-0.407,0.283-0.814,0.42-1.222c0.028-0.082,0.055-0.165,0.083-0.247c0.145-0.432,0.288-0.865,0.428-1.297
		c0.003-0.009,0.006-0.018,0.008-0.027c0.626-1.94,1.197-3.87,1.714-5.744c0-0.001,0.001-0.003,0.001-0.004
		c0.121-0.438,0.238-0.871,0.353-1.302c0.014-0.054,0.029-0.107,0.043-0.161c0.11-0.414,0.218-0.825,0.322-1.232
		c0.015-0.058,0.03-0.115,0.044-0.173c0.105-0.411,0.208-0.818,0.308-1.22c0.008-0.034,0.017-0.068,0.025-0.102
		c0.537-2.168,0.996-4.197,1.378-6.001c0.005-0.023,0.01-0.046,0.015-0.069c0.068-0.323,0.134-0.637,0.197-0.945
		c0.014-0.066,0.027-0.133,0.041-0.198c0.059-0.289,0.116-0.571,0.171-0.845c0.013-0.064,0.025-0.126,0.038-0.189
		c0.055-0.276,0.108-0.547,0.159-0.807c0.007-0.038,0.014-0.074,0.022-0.112c0.219-1.134,0.395-2.102,0.529-2.869
		c0.007-0.04,0.015-0.085,0.022-0.124c0.026-0.149,0.049-0.285,0.072-0.418c0.01-0.06,0.021-0.122,0.03-0.178
		c0.018-0.11,0.035-0.211,0.051-0.307c0.01-0.064,0.021-0.126,0.03-0.184c0.013-0.077,0.025-0.15,0.035-0.215
		c0.012-0.076,0.024-0.149,0.034-0.21c0.004-0.025,0.009-0.055,0.012-0.078c0.011-0.068,0.019-0.122,0.025-0.163
		c0.002-0.012,0.005-0.031,0.006-0.04c0.005-0.035,0.01-0.063,0.01-0.063c-3.637,12.365-7.748,21.895-10.093,26.896
		C229.679,347.681,229.893,350.043,229.899,352.681z"/>
	<g style="opacity:0.7;">
		<path style="fill:#D6A298;" d="M226.678,218.399c2.094,3.055,3.932,6.229,5.769,9.402l2.711,4.779
			c0.914,1.588,1.786,3.192,2.8,4.74c-1.363-1.261-2.517-2.739-3.565-4.257c-1.06-1.516-2.027-3.09-2.951-4.685
			C229.627,225.169,227.963,221.876,226.678,218.399z"/>
	</g>
	<g style="opacity:0.7;">
		<path style="fill:#D6A298;" d="M224.131,222.279c1.947,2.805,3.624,5.737,5.289,8.674l2.43,4.44l2.404,4.474
			c-2.377-2.474-4.163-5.41-5.845-8.348C226.768,228.548,225.266,225.501,224.131,222.279z"/>
	</g>
	<g style="opacity:0.7;">
		<path style="fill:#D6A298;" d="M226.973,232.772c1.214,1.207,2.151,2.554,3.054,3.922c0.882,1.388,1.699,2.779,2.404,4.333
			c-1.419-0.977-2.462-2.323-3.377-3.705C228.169,235.914,227.396,234.434,226.973,232.772z"/>
	</g>
	<path style="opacity:0.7;fill:#D6A298;" d="M71.127,357.414c0.38-1.936,1.442-3.684,2.621-5.246
		c1.189-1.579,2.611-2.959,4.122-4.207c1.513-1.252,3.152-2.328,4.844-3.297c0.858-0.463,1.732-0.896,2.609-1.314
		c0.903-0.372,1.8-0.746,2.725-1.055c-0.766,0.614-1.559,1.162-2.347,1.713c-0.778,0.567-1.551,1.133-2.337,1.673
		c-1.522,1.152-3.072,2.248-4.511,3.474c-1.476,1.181-2.875,2.448-4.191,3.797C73.359,354.314,72.099,355.732,71.127,357.414z"/>
	<path style="fill:#D6A298;" d="M158.999,338.11c0,0,6.186,11.644,7.641,18.193c0,0,16.738,5.822,28.745,0l-14.554-27.654
		L158.999,338.11z"/>
	<path style="opacity:0.7;fill:#D6A298;" d="M188.436,343.1l-7.605-14.45l-21.832,9.46c0,0,2.051,3.866,4.07,8.393
		C171.548,348.534,180.804,347.315,188.436,343.1z"/>
	<path style="fill:#D6A298;" d="M183.596,310.876l-15.736-28.955c-1.521,9.394-6.513,18.219-13.877,24.262
		c1.295-3.084,1.649-7.099,1.006-10.382c-1.324,4.566-3.84,8.646-7.096,12.111c1.63-2.973,2.227-6.527,2.412-9.912
		c-1.75,4.318-4.403,8.434-7.794,11.629c1.578-2.795,2.107-6.792,1.842-9.99c-1.241,4.604-3.972,8.853-7.446,12.197l10.242,18.847
		c5.469,10.064,18.062,13.789,28.126,8.32C185.34,333.533,189.065,320.94,183.596,310.876z"/>
	<path style="opacity:0.7;fill:#D6A298;" d="M236.574,308.67c-4.214-1.359-8.897-1.212-13.018,0.407
		c0.695-1.814,2.298-3.007,4.224-3.258C230.666,305.444,234.626,306.509,236.574,308.67z"/>
	<path style="fill:#FCBAD3;" d="M156.613,325.205c0.308,0.521-0.896,1.803-2.69,2.865c-1.794,1.062-3.498,1.5-3.806,0.98
		c-0.308-0.521,0.896-1.803,2.69-2.865C154.601,325.123,156.305,324.684,156.613,325.205z"/>
	<path style="fill:#FCBAD3;" d="M180.881,310.842c0.308,0.521-0.896,1.803-2.69,2.865c-1.794,1.062-3.498,1.5-3.806,0.98
		c-0.308-0.521,0.896-1.803,2.69-2.865C178.868,310.76,180.572,310.322,180.881,310.842z"/>
	<path style="fill:#3B2C2A;" d="M156.025,318.307c-0.503,0.298-1.151,0.131-1.449-0.371c-0.298-0.503-0.131-1.151,0.372-1.449
		c0.03-0.018,0.064-0.019,0.095-0.033c-0.511-0.228-0.995-0.265-1.37-0.044c-0.927,0.548-0.834,2.418,0.206,4.176
		c1.04,1.758,2.635,2.739,3.562,2.19c0.927-0.548,0.834-2.418-0.206-4.176c-0.219-0.369-0.465-0.695-0.721-0.989
		C156.455,317.892,156.292,318.15,156.025,318.307z"/>
	<path style="fill:#3B2C2A;" d="M171.127,309.369c-0.503,0.298-1.151,0.131-1.449-0.371c-0.276-0.466-0.139-1.046,0.28-1.367
		c-0.513-0.229-0.999-0.268-1.374-0.046c-0.927,0.548-0.834,2.418,0.206,4.176c1.041,1.758,2.635,2.739,3.562,2.19
		c0.926-0.548,0.834-2.418-0.206-4.176c-0.19-0.32-0.402-0.605-0.621-0.869C171.438,309.09,171.315,309.258,171.127,309.369z"/>
	<path style="fill:#3B2C2A;" d="M147.177,317.318c0,0,1.486-4.28,6.939-8.126C154.116,309.192,148.981,305.738,147.177,317.318z"/>
	<path style="fill:#3B2C2A;" d="M173.658,301.645c0,0-4.467-0.757-10.462,2.173C163.196,303.818,162.64,297.654,173.658,301.645z"/>
	<path style="fill:none;stroke:#3B2C2A;stroke-width:0.5;stroke-miterlimit:10;" d="M161.418,329.582
		c5.894,0.502,11.965-2.164,15.584-6.844"/>
	<path style="fill:none;stroke:#3B2C2A;stroke-width:0.5;stroke-miterlimit:10;" d="M165.056,315.222
		c2.353,2.005,5.258,3.357,8.308,3.866c-0.832,1.301-1.665,2.603-2.497,3.904"/>
	<path style="opacity:0.7;fill:#D6A298;" d="M168.818,330.67c1.836-0.418,3.553-1.345,4.909-2.65
		c0.048,1.039-0.483,2.455-1.345,3.038C171.521,331.641,169.764,331.103,168.818,330.67z"/>
</g>
<path style="fill:#FFFFFF;" d="M188.435,237.32c-4.349,15.22-14.91,15.842-14.91,15.842s10.561,0.621,14.91,15.842
	c4.349-15.221,14.91-15.842,14.91-15.842S192.784,252.541,188.435,237.32z"/>
<path style="fill:#FFFFFF;" d="M154.319,220.349c-2.062,7.216-7.069,7.511-7.069,7.511s5.007,0.295,7.069,7.511
	c2.062-7.216,7.069-7.511,7.069-7.511S156.381,227.565,154.319,220.349z"/>
<text transform="matrix(1 0 0 1 271.6904 96.8296)" style="fill:#FFD073; font-family:'Montserrat-Bold'; font-size:74.7431px;">DANCE</text>
<text transform="matrix(1 0 0 1 187.5303 171.0854)" style="fill:none;stroke:#FFFFFF;stroke-miterlimit:10; font-family:'Montserrat-Bold'; font-size:74.7431px;">CONTEST</text>
<g>
	<g>
		<path style="fill:#FFD073;" d="M34.173,41.488c0,0,17.311,1.83,26.855-7.424c0,0-2.942,5.371-6.974,7.826
			c0,0,0.617,4.91-0.592,7.955c0,0,5.618-0.2,8.356,0.867c2.738,1.067-2.436,11.7-2.436,11.7s1.936-7.622,0.457-9.028
			c-1.479-1.406-7.58-1.252-9.325-0.165c-1.744,1.087-4.89,18.301-4.89,18.301s-0.623-13.016,0.116-18.643
			c0.74-5.627-0.522-8.76-0.522-8.76S42.084,44.512,34.173,41.488z"/>
		<path style="fill:#FFD073;" d="M51.386,35.939c0.208,1.652-0.963,3.16-2.615,3.367c-1.652,0.208-3.16-0.963-3.367-2.615
			c-0.208-1.652,0.963-3.16,2.615-3.367C49.671,33.116,51.179,34.287,51.386,35.939z"/>
	</g>
	<text transform="matrix(1 0 0 1 70.0107 46.9707)" style="fill:#FFFFFF; font-family:'Montserrat-Bold'; font-size:16.5466px;">YOUR</text>
	<text transform="matrix(1 0 0 1 70.0107 64.8486)" style="fill:#FFFFFF; font-family:'Montserrat-Bold'; font-size:16.5466px;">LOGO</text>
</g>
<text transform="matrix(1 0 0 1 317.7832 265.854)" style="fill:#A8D8EA; font-family:'Montserrat-Bold'; font-size:23.1786px;">SHOW YOUR MOVE</text>
<rect x="339.361" y="304.675" style="fill:none;" width="216.648" height="59.803"/>
<text transform="matrix(1 0 0 1 364.8398 314.707)"><tspan x="0" y="0" style="fill:#FFFFFF; font-family:'Montserrat-Regular'; font-size:13.5208px;">Lorem ipsum dolor sit amet, </tspan><tspan x="0.946" y="16.225" style="fill:#FFFFFF; font-family:'Montserrat-Regular'; font-size:13.5208px;">consectetuer adipiscing elit, </tspan><tspan x="18.455" y="32.45" style="fill:#FFFFFF; font-family:'Montserrat-Regular'; font-size:13.5208px;">sed diam nonummy nibh </tspan><tspan x="47.552" y="48.675" style="fill:#FFFFFF; font-family:'Montserrat-Regular'; font-size:13.5208px;">euismod tincidunt ut </tspan></text>
<g>
	<g>
		
			<line style="fill:none;stroke:#FFD073;stroke-width:3;stroke-linecap:round;stroke-linejoin:round;" x1="310.369" y1="284.942" x2="310.369" y2="284.942"/>
		
			<line style="fill:none;stroke:#FFD073;stroke-width:3;stroke-linecap:round;stroke-linejoin:round;stroke-dasharray:0,5.1175,0,5.1175;" x1="315.486" y1="284.942" x2="323.163" y2="284.942"/>
		
			<line style="fill:none;stroke:#FFD073;stroke-width:3;stroke-linecap:round;stroke-linejoin:round;stroke-dasharray:0,5.1175,0,5.1175,0,5.1175;" x1="325.721" y1="284.942" x2="553.45" y2="284.942"/>
		
			<line style="fill:none;stroke:#FFD073;stroke-width:3;stroke-linecap:round;stroke-linejoin:round;" x1="556.009" y1="284.942" x2="556.009" y2="284.942"/>
	</g>
</g>
<text transform="matrix(1 0 0 1 342.6748 453.3789)" style="fill:#A8D8EA; font-family:'Montserrat-Bold'; font-size:55.0407px;">31 JULY</text>
<text transform="matrix(1 0 0 1 437.3633 768.8096)" style="fill:#FFFFFF; font-family:'Montserrat-SemiBold'; font-size:18.664px;">FOLLOW US</text>
<rect x="327.09" y="474.816" style="fill:#FFD073;" width="228.919" height="41.003"/>
<text transform="matrix(1 0 0 1 349.4502 502.6123)" style="fill:#2A3242; font-family:'Montserrat-Medium'; font-size:23.3079px;">start from 9 AM</text>
<text transform="matrix(1 0 0 1 357.8896 544.668)" style="fill:#FFFFFF; font-family:'Montserrat-Regular'; font-size:17.3839px;">Put Your Address Here</text>
<text transform="matrix(1 0 0 1 306.333 799.6816)" style="fill:#FFFFFF; font-family:'Montserrat-Regular'; font-size:13.5208px;">@usernamehere</text>
<g>
	
		<ellipse transform="matrix(0.9975 -0.0707 0.0707 0.9975 -55.1816 33.9228)" style="fill:#FFD073;" cx="451.31" cy="795.98" rx="14.119" ry="14.119"/>
	<path style="fill:#FFD073;" d="M510.719,795.98c0,7.798-6.321,14.119-14.119,14.119c-7.798,0-14.119-6.321-14.119-14.119
		c0-7.798,6.321-14.119,14.119-14.119C504.398,781.861,510.719,788.183,510.719,795.98z"/>
	
		<ellipse transform="matrix(0.9975 -0.0707 0.0707 0.9975 -54.9547 40.3311)" style="fill:#FFD073;" cx="541.891" cy="795.98" rx="14.119" ry="14.119"/>
	<g>
		<path style="fill:#2A3242;" d="M548.763,796.06c0,0.94,0.003,1.879-0.001,2.819c-0.007,1.831-1.273,3.431-3.051,3.86
			c-0.307,0.074-0.619,0.112-0.936,0.112c-1.922-0.001-3.845,0.001-5.768-0.001c-1.963-0.002-3.646-1.438-3.938-3.38
			c-0.057-0.377-0.047-0.765-0.048-1.149c-0.004-1.731-0.003-3.461-0.001-5.192c0.002-1.821,1.154-3.36,2.9-3.873
			c0.337-0.099,0.683-0.148,1.034-0.148c1.948,0,3.897-0.004,5.845,0c1.812,0.004,3.398,1.255,3.844,3.016
			c0.113,0.444,0.122,0.895,0.12,1.348C548.761,794.336,548.763,795.198,548.763,796.06z M547.704,795.989c0,0,0.001,0,0.001,0
			c0-0.945,0-1.891,0-2.836c0-1.703-1.282-2.987-2.984-2.988c-1.782-0.001-3.564,0-5.346,0c-0.332,0-0.663-0.001-0.992,0.066
			c-1.228,0.249-2.208,1.35-2.291,2.599c-0.024,0.357-0.015,0.716-0.016,1.074c-0.001,1.667-0.004,3.335,0.001,5.002
			c0.002,0.598,0.175,1.15,0.524,1.635c0.613,0.854,1.458,1.26,2.505,1.255c0.57-0.003,1.14-0.001,1.71-0.002
			c1.324,0,2.647,0,3.971-0.001c0.484,0,0.947-0.106,1.368-0.345c1.003-0.568,1.528-1.434,1.545-2.589
			C547.715,797.903,547.704,796.946,547.704,795.989z"/>
		<path style="fill:#2A3242;" d="M545.592,795.975c0.002,1.994-1.596,3.663-3.641,3.705c-2.011,0.042-3.719-1.602-3.761-3.612
			c-0.042-2.03,1.554-3.731,3.598-3.788C543.891,792.221,545.591,793.924,545.592,795.975z M539.25,795.98
			c0.021,1.514,1.198,2.662,2.707,2.641c1.438-0.02,2.595-1.227,2.576-2.687c-0.019-1.469-1.219-2.62-2.707-2.597
			C540.4,793.361,539.23,794.561,539.25,795.98z"/>
		<path style="fill:#2A3242;" d="M546.12,791.223c0.293,0,0.529,0.238,0.528,0.53c-0.001,0.291-0.241,0.527-0.534,0.525
			c-0.29-0.002-0.521-0.235-0.522-0.526C545.591,791.458,545.826,791.223,546.12,791.223z"/>
	</g>
	<path style="fill:#2A3242;" d="M499.989,790.89v-3.031h-2.207h-0.567c-1.674,0-3.031,1.357-3.031,3.031l0,0v2.06h-2.208v3.031
		h2.208v8.122h3.598v-8.122h2.207v-3.031h-2.207v-2.06H499.989z"/>
	<g>
		<path style="fill:#2A3242;" d="M444.182,800.482c1.598,0.154,3.028-0.246,4.297-1.218c-0.62-0.028-1.182-0.217-1.678-0.587
			c-0.497-0.37-0.841-0.852-1.038-1.433c0.22,0.009,0.436,0.023,0.652,0.026c0.216,0.003,0.428-0.038,0.64-0.098
			c-0.677-0.159-1.242-0.499-1.679-1.04c-0.436-0.541-0.646-1.163-0.65-1.871c0.415,0.222,0.843,0.346,1.304,0.356
			c-0.621-0.447-1.036-1.034-1.205-1.781c-0.168-0.744-0.058-1.451,0.316-2.121c1.589,1.87,3.595,2.896,6.049,3.065
			c-0.016-0.104-0.033-0.189-0.043-0.276c-0.108-0.885,0.12-1.671,0.708-2.343c0.463-0.529,1.049-0.855,1.745-0.953
			c0.967-0.138,1.811,0.134,2.515,0.817c0.062,0.06,0.113,0.069,0.192,0.051c0.602-0.135,1.17-0.355,1.703-0.664
			c0.009-0.005,0.018-0.009,0.038-0.019c-0.11,0.34-0.273,0.64-0.488,0.912c-0.216,0.273-0.473,0.5-0.766,0.691
			c0.566-0.06,1.108-0.212,1.64-0.442c-0.011,0.022-0.016,0.034-0.023,0.045c-0.38,0.55-0.836,1.027-1.375,1.424
			c-0.04,0.029-0.055,0.059-0.052,0.109c0.026,0.469-0.002,0.936-0.068,1.4c-0.178,1.268-0.614,2.442-1.306,3.519
			c-0.605,0.943-1.366,1.736-2.296,2.364c-0.821,0.555-1.717,0.936-2.683,1.156c-0.498,0.113-1.002,0.18-1.513,0.204
			c-0.515,0.025-1.028,0.012-1.539-0.055c-1.215-0.159-2.341-0.566-3.379-1.218C444.198,800.5,444.194,800.494,444.182,800.482z"/>
	</g>
</g>
<ellipse style="opacity:0.3;fill:#2A3242;" cx="133.02" cy="815.76" rx="95.526" ry="9.982"/>
</svg>
