<?xml version="1.0" encoding="UTF-8"?>
<svg id="Calque_1" data-name="Calque 1" xmlns="http://www.w3.org/2000/svg" version="1.1" viewBox="0 0 500 500">
  <defs>
    <style>
      .cls-1 {
        stroke: #76dda6;
      }

      .cls-1, .cls-2, .cls-3, .cls-4, .cls-5, .cls-6, .cls-7, .cls-8, .cls-9, .cls-10, .cls-11, .cls-12, .cls-13, .cls-14, .cls-15, .cls-16, .cls-17, .cls-18 {
        fill: none;
      }

      .cls-1, .cls-2, .cls-7, .cls-8 {
        stroke-miterlimit: 10;
      }

      .cls-1, .cls-3, .cls-4, .cls-5, .cls-6, .cls-9, .cls-10, .cls-11, .cls-12, .cls-13, .cls-15, .cls-16, .cls-17, .cls-18 {
        stroke-linecap: round;
      }

      .cls-1, .cls-16 {
        stroke-width: 1px;
      }

      .cls-2 {
        stroke-width: 1.2px;
      }

      .cls-2, .cls-3, .cls-4, .cls-9, .cls-11, .cls-14, .cls-15, .cls-18 {
        stroke: #211d1d;
      }

      .cls-3 {
        stroke-width: 1.6px;
      }

      .cls-3, .cls-4, .cls-5, .cls-6, .cls-9, .cls-10, .cls-11, .cls-12, .cls-13, .cls-15, .cls-16, .cls-17, .cls-18 {
        stroke-linejoin: round;
      }

      .cls-19 {
        fill: #000;
      }

      .cls-19, .cls-20, .cls-21, .cls-22, .cls-23, .cls-24, .cls-25, .cls-26, .cls-27, .cls-28, .cls-29, .cls-30, .cls-31, .cls-32, .cls-33 {
        stroke-width: 0px;
      }

      .cls-4 {
        stroke-width: 1.1px;
      }

      .cls-20 {
        fill: #ffefef;
      }

      .cls-21 {
        fill: #aeaeff;
      }

      .cls-5 {
        stroke-width: 4.4px;
      }

      .cls-5, .cls-6 {
        stroke: #fefefe;
      }

      .cls-6 {
        stroke-width: 4.5px;
      }

      .cls-7 {
        stroke-width: .3px;
      }

      .cls-7, .cls-8, .cls-10, .cls-13 {
        stroke: #fff;
      }

      .cls-22 {
        fill: #211d1d;
      }

      .cls-9 {
        stroke-width: 1.1px;
      }

      .cls-23 {
        fill: #ffb7ff;
      }

      .cls-10 {
        stroke-width: 1.3px;
      }

      .cls-24 {
        fill: #f79fc9;
      }

      .cls-25 {
        fill: #76dda6;
      }

      .cls-26 {
        fill: #fcd201;
      }

      .cls-27 {
        fill: #ffebde;
      }

      .cls-11 {
        stroke-width: 1px;
      }

      .cls-12 {
        stroke-width: 1px;
      }

      .cls-12, .cls-17 {
        stroke: #2d1a14;
      }

      .cls-28 {
        fill: #fff;
      }

      .cls-29 {
        fill: #e56700;
        isolation: isolate;
        opacity: .6;
      }

      .cls-13 {
        stroke-width: 1.1px;
      }

      .cls-14 {
        stroke-miterlimit: 10;
        stroke-width: .6px;
      }

      .cls-30 {
        fill: #6e55ff;
      }

      .cls-15 {
        stroke-width: 1.1px;
      }

      .cls-31 {
        fill: #f9b303;
      }

      .cls-16 {
        stroke: #000;
      }

      .cls-17 {
        stroke-width: 1.1px;
      }

      .cls-32 {
        fill: #191319;
      }

      .cls-18 {
        stroke-width: 1.1px;
      }

      .cls-33 {
        fill: #f4d834;
      }
    </style>
  </defs>
  <g id="OBJECTS">
    <polygon class="cls-33" points="139.4 440 120.5 453 229.8 453 210.9 440 243.1 417.9 204.1 419 217.2 382.2 186.2 406 175.2 368.5 164.1 406 133.1 382.2 146.2 419 107.2 417.9 139.4 440"/>
    <path class="cls-2" d="M356.1,160.9l-1-8.5-17.3-.5c-2.1-7.3-6-13.8-11.1-19l10.2-14.9-6.7-5.3-13.4,12.7c-6.1-3.4-13-5.4-20.4-5.6l-3.5-18.5-8.5,1-.5,19c-7,1.8-13.2,5.3-18.4,9.9l-15.5-10.6-5.3,6.7,12.8,13.5c-3.8,6-6.1,13-6.6,20.4l-17.6,3.3,1,8.5,17.6.5c1.6,7.7,5.2,14.5,10.2,20.1l-9.5,13.8,6.7,5.3,11.9-11.3c6.5,4.2,14.2,6.8,22.4,7l2.9,15.7,8.5-1,.5-15.9c8-1.9,15.2-5.9,20.8-11.4l13.2,9,5.3-6.7-11.2-11.8c3.8-6.6,6-14.3,6-22.3l16.6-3.1ZM297.5,184.4c-11.2,1.3-21.4-6.8-22.6-18-1.3-11.2,6.8-21.4,18-22.6,11.2-1.3,21.4,6.8,22.6,18,1.3,11.2-6.8,21.3-18,22.6ZM299,197.3c-18.3,2.1-34.9-11.1-36.9-29.4s11.1-34.9,29.4-36.9c18.3-2.1,34.9,11.1,36.9,29.4,2.1,18.3-11.1,34.8-29.4,36.9Z"/>
    <g>
      <path class="cls-11" d="M61.1,400.8h0c-2,0-3.6-1.6-3.6-3.6h0c0-2,1.6-3.6,3.6-3.6h0c2,0,3.6,1.6,3.6,3.6h0c0,2-1.6,3.6-3.6,3.6Z"/>
      <path class="cls-11" d="M73.3,400.8h0c-2,0-3.6-1.6-3.6-3.6h0c0-2,1.6-3.6,3.6-3.6h0c2,0,3.6,1.6,3.6,3.6h0c0,2-1.6,3.6-3.6,3.6Z"/>
      <path class="cls-11" d="M85.5,400.8h0c-2,0-3.6-1.6-3.6-3.6h0c0-2,1.6-3.6,3.6-3.6h0c2,0,3.6,1.6,3.6,3.6h0c0,2-1.6,3.6-3.6,3.6Z"/>
    </g>
    <g>
      <path class="cls-11" d="M392.2,88.6h0c-2,0-3.6-1.6-3.6-3.6h0c0-2,1.6-3.6,3.6-3.6h0c2,0,3.6,1.6,3.6,3.6h0c0,2-1.6,3.6-3.6,3.6Z"/>
      <path class="cls-11" d="M404.4,88.6h0c-2,0-3.6-1.6-3.6-3.6h0c0-2,1.6-3.6,3.6-3.6h0c2,0,3.6,1.6,3.6,3.6h0c0,2-1.6,3.6-3.6,3.6Z"/>
      <path class="cls-11" d="M416.6,88.6h0c-2,0-3.6-1.6-3.6-3.6h0c0-2,1.6-3.6,3.6-3.6h0c2,0,3.6,1.6,3.6,3.6h0c0,2-1.6,3.6-3.6,3.6Z"/>
    </g>
    <g>
      <path class="cls-33" d="M63.4,244.2c0,4-3.2,7.2-7.2,7.2s-7.2-3.2-7.2-7.2,3.2-7.2,7.2-7.2c4,0,7.2,3.2,7.2,7.2Z"/>
      <path class="cls-32" d="M51.9,250c1.2.9,2.7,1.4,4.2,1.4,4,0,7.2-3.2,7.2-7.2s-.5-3-1.4-4.2c-3.6,3-7,6.4-10.1,10Z"/>
    </g>
    <path class="cls-1" d="M286.5,68c0,2.8-2.3,5.1-5.1,5.1s-5.1-2.3-5.1-5.1,2.3-5.1,5.1-5.1,5.1,2.3,5.1,5.1Z"/>
    <path class="cls-1" d="M66.1,269.2c0,2.8-2.3,5.1-5.1,5.1s-5.1-2.3-5.1-5.1,2.3-5.1,5.1-5.1c2.8,0,5.1,2.3,5.1,5.1Z"/>
    <path class="cls-1" d="M457.6,312c0,2.8-2.3,5.1-5.1,5.1s-5.1-2.3-5.1-5.1,2.3-5.1,5.1-5.1c2.8,0,5.1,2.3,5.1,5.1Z"/>
    <polygon class="cls-26" points="208.8 153.3 209.9 155.4 212.1 156.6 209.9 157.7 208.8 159.9 207.6 157.7 205.5 156.6 207.6 155.4 208.8 153.3"/>
    <polygon class="cls-26" points="312.7 75.5 313.9 77.7 316 78.8 313.9 80 312.7 82.1 311.6 80 309.4 78.8 311.6 77.7 312.7 75.5"/>
    <polygon class="cls-26" points="45.6 280.3 46.8 282.4 48.9 283.6 46.8 284.7 45.6 286.9 44.4 284.7 42.3 283.6 44.4 282.4 45.6 280.3"/>
    <polygon class="cls-26" points="148.6 405 149.8 407.2 151.9 408.3 149.8 409.5 148.6 411.6 147.4 409.5 145.3 408.3 147.4 407.2 148.6 405"/>
    <polygon class="cls-26" points="444.2 150.1 445.4 152.2 447.5 153.4 445.4 154.5 444.2 156.7 443 154.5 440.9 153.4 443 152.2 444.2 150.1"/>
    <polygon class="cls-26" points="441 329.2 442.2 331.3 444.3 332.5 442.2 333.7 441 335.8 439.8 333.7 437.7 332.5 439.8 331.3 441 329.2"/>
    <polygon class="cls-26" points="375.1 434.4 376.3 436.6 378.4 437.8 376.3 438.9 375.1 441.1 373.9 438.9 371.8 437.8 373.9 436.6 375.1 434.4"/>
    <polygon class="cls-26" points="98.7 375.9 99.9 378 102 379.2 99.9 380.4 98.7 382.5 97.5 380.4 95.4 379.2 97.5 378 98.7 375.9"/>
    <polygon class="cls-26" points="187 120.9 189.5 125.6 194.2 128.1 189.5 130.6 187 135.3 184.5 130.6 179.8 128.1 184.5 125.6 187 120.9"/>
    <polygon class="cls-26" points="253.2 61.4 255.8 66.1 260.4 68.6 255.8 71.1 253.2 75.8 250.7 71.1 246.1 68.6 250.7 66.1 253.2 61.4"/>
    <polygon class="cls-26" points="434.6 117.7 437.1 122.4 441.8 124.9 437.1 127.4 434.6 132.1 432.1 127.4 427.4 124.9 432.1 122.4 434.6 117.7"/>
    <polygon class="cls-26" points="119.5 380.4 122 385 126.7 387.5 122 390.1 119.5 394.7 117 390.1 112.3 387.5 117 385 119.5 380.4"/>
    <polygon class="cls-26" points="439.7 366.6 442.3 371.2 446.9 373.8 442.3 376.3 439.7 380.9 437.2 376.3 432.6 373.8 437.2 371.2 439.7 366.6"/>
    <polygon class="cls-26" points="357.8 423.5 360.4 428.2 365 430.7 360.4 433.3 357.8 437.9 355.3 433.3 350.7 430.7 355.3 428.2 357.8 423.5"/>
    <g>
      <g id="Capa-2">
        <path class="cls-23" d="M174.6,185.5c-24.2,0-46.9,9.6-63.7,26.4-16.8,16.8-26.4,39.5-26.4,63.7s9.6,46.9,26.4,63.6c16.8,16.8,39.5,26.4,63.7,26.4,24.2,0,46.9-9.6,63.7-26.4,16.8-16.8,26.3-39.4,26.3-63.6s-9.6-46.9-26.3-63.7c-16.8-16.8-39.5-26.4-63.7-26.4ZM174.6,218.1c15.4,0,29.9,6.1,40.6,16.8,10.7,10.7,16.8,25.1,16.8,40.6s-6.1,29.8-16.8,40.5-25.1,16.8-40.6,16.8-29.9-6.1-40.6-16.8-16.8-25.1-16.8-40.5,6.1-29.9,16.8-40.6c10.7-10.7,25.1-16.8,40.6-16.8Z"/>
        <path class="cls-24" d="M174.6,185.5c-24.2,0-46.9,9.6-63.7,26.4-16.8,16.8-26.4,39.5-26.4,63.7s9.6,46.9,26.4,63.6c16.8,16.8,39.5,26.4,63.7,26.4,24.2,0,46.9-9.6,63.7-26.4,16.8-16.8,26.3-39.4,26.3-63.6s-9.6-46.9-26.3-63.7c-16.8-16.8-39.5-26.4-63.7-26.4ZM174.6,218.1c15.4,0,29.9,6.1,40.6,16.8,10.7,10.7,16.8,25.1,16.8,40.6s-6.1,29.8-16.8,40.5-25.1,16.8-40.6,16.8-29.9-6.1-40.6-16.8-16.8-25.1-16.8-40.5,6.1-29.9,16.8-40.6c10.7-10.7,25.1-16.8,40.6-16.8Z"/>
        <path class="cls-22" d="M210.7,208.4c-1,5.4-3.1,10.4-6,15.1-.5.8-1,1.5-1.5,2.3,4.4,2.5,8.4,5.6,12.1,9.2,10.7,10.7,16.8,25.1,16.8,40.6s-4.8,26.6-13.4,36.8c2.3,1.4,4.6,2.9,6.8,4.5,6.6,4.9,12.6,10.5,18.1,16.6,13.5-16,21.1-36.4,21.1-57.9s-9.6-46.9-26.3-63.7c-7.7-7.7-16.7-13.9-26.6-18.4,0,5-.1,10-1,14.9Z"/>
        <path class="cls-30" d="M333.8,184.4c-24.2,0-46.9,9.6-63.7,26.4-16.8,16.8-26.4,39.5-26.4,63.7s9.6,46.9,26.4,63.6c16.8,16.8,39.5,26.4,63.7,26.4s46.9-9.6,63.7-26.4,26.3-39.4,26.3-63.6-9.6-46.9-26.3-63.7c-16.8-16.8-39.5-26.4-63.7-26.4ZM333.8,217c15.4,0,29.9,6.1,40.6,16.8,10.7,10.7,16.8,25.1,16.8,40.6s-6.1,29.8-16.8,40.5c-10.7,10.7-25.1,16.8-40.6,16.8s-29.9-6.1-40.6-16.8c-10.7-10.7-16.8-25.1-16.8-40.5s6.1-29.9,16.8-40.6c10.7-10.7,25.1-16.8,40.6-16.8Z"/>
        <path class="cls-22" d="M281.6,347.7c2.4-5,4.5-10.2,6.4-15.4,2-5.6,3.9-11.2,5.7-16.9-.2-.2-.4-.3-.5-.5-10.7-10.7-16.8-25.1-16.8-40.5s2.1-20.6,4.6-22.8c-7.1.8-17.4,11.6-24.5,12.1-4.1.3-8.1.6-12.2.8-.4,3.2-.5,6.5-.5,9.8,0,24.2,9.6,46.9,26.4,63.6,3.6,3.6,7.4,6.8,11.5,9.7Z"/>
        <path class="cls-20" d="M243.9,333.2c-.1.1-.2.3-.3.4l.5.4c.1-.1.3-.2.4-.3l-.7-.6Z"/>
        <path class="cls-25" d="M231.3,345.8c11.9-8.9,20.5-21.8,27.1-34.9,3.9-7.8,7-16,9.7-24.3,2.9-9.1,5.2-18.3,9.1-27.1,3.7-8.3,8.4-16.3,14.3-23.3.6-.7,1.2-1.4,1.8-2,2.7-3,5.7-6,9.3-7.9,0,0-15.7-29.2-15.7-29.2-.5-.8-10.9,6.8-11.5,7.2-8.1,6.7-14.6,15.2-20,24.1-4.8,8-8.7,16.6-11.9,25.4-2.6,7.3-4.5,14.7-6.9,22-4,12.6-9.2,25.2-17.2,35.8-3.2,4.3-7,8.2-11.6,11.1l23.6,23Z"/>
      </g>
      <g>
        <circle class="cls-28" cx="84" cy="280.4" r="8.8"/>
        <circle class="cls-9" cx="84" cy="280.4" r="8.8"/>
      </g>
      <g>
        <circle class="cls-28" cx="423.8" cy="280.4" r="8.8"/>
        <circle class="cls-18" cx="423.8" cy="280.4" r="8.8"/>
      </g>
      <g>
        <rect class="cls-28" x="169.9" y="180.8" width="9.8" height="9.8"/>
        <rect class="cls-4" x="169.9" y="180.8" width="9.8" height="9.8"/>
      </g>
      <g>
        <rect class="cls-28" x="335.7" y="179.4" width="9.8" height="9.8"/>
        <rect class="cls-4" x="335.7" y="179.4" width="9.8" height="9.8"/>
      </g>
      <g>
        <rect class="cls-28" x="335.7" y="360.7" width="9.8" height="9.8"/>
        <rect class="cls-4" x="335.7" y="360.7" width="9.8" height="9.8"/>
      </g>
      <g>
        <rect class="cls-28" x="169.9" y="360.7" width="9.8" height="9.8"/>
        <rect class="cls-4" x="169.9" y="360.7" width="9.8" height="9.8"/>
      </g>
      <path class="cls-22" d="M114.9,211.9c0,2.5-2,4.6-4.6,4.6s-4.6-2-4.6-4.6,2-4.6,4.6-4.6c2.5,0,4.6,2,4.6,4.6Z"/>
      <path class="cls-22" d="M119.5,342.9c0,2.5-2,4.6-4.6,4.6s-4.6-2-4.6-4.6,2-4.6,4.6-4.6,4.6,2,4.6,4.6Z"/>
      <path class="cls-22" d="M400.2,208c0,2.5-2,4.6-4.6,4.6s-4.6-2-4.6-4.6,2-4.6,4.6-4.6c2.5,0,4.6,2,4.6,4.6Z"/>
      <path class="cls-22" d="M404.8,335.9c0,2.5-2,4.6-4.6,4.6s-4.6-2-4.6-4.6,2-4.6,4.6-4.6c2.5,0,4.6,2,4.6,4.6Z"/>
    </g>
    <g>
      <path class="cls-19" d="M179.8,239.6l-44.4,11.9-4.1,44.4,41.8,15.6,30-34.8-4.3-6.9-29.5,18.5-14.6-23.3,29.5-18.5-4.3-6.9Z"/>
      <path class="cls-19" d="M145.5,272.6l13.2,21-80,50.3-13.2-21,80-50.3Z"/>
      <path class="cls-10" d="M140.8,290.8h0c1.5,2.4.7,5.6-1.8,7.2l-62,39c-2.5,1.6-5.8.9-7.3-1.5h0c-1.5-2.4-.7-5.6,1.8-7.2l62-39c2.5-1.6,5.8-.9,7.3,1.5Z"/>
      <path class="cls-19" d="M48.1,358.5c7.6,5.7,18.6,6.4,27.6.8,11.5-7.2,15.4-21.9,8.6-32.8-6.8-10.9-21.7-14-33.2-6.8-8.8,5.5-13.1,15.4-11.6,24.6l24.1-15c1.3-.8,3-.5,3.8.8l5.9,9.5c.8,1.3.3,3-1,3.8l-24.3,15.1Z"/>
    </g>
    <g>
      <path class="cls-22" d="M368.2,101.9c-11.1,0-20.1,9-20.1,20.1s9,20.1,20.1,20.1,20.1-9,20.1-20.1c0-11.1-9-20.1-20.1-20.1ZM368.2,133.6c-6.4,0-11.7-5.2-11.7-11.7s5.2-11.7,11.7-11.7,11.7,5.2,11.7,11.7-5.2,11.7-11.7,11.7Z"/>
      <g>
        <polygon class="cls-22" points="371.1 103.9 365 103.9 366.5 93.6 370.4 93.6 371.1 103.9"/>
        <polygon class="cls-22" points="365 138.7 371 138.7 369.5 149 365.7 149 365 138.7"/>
        <polygon class="cls-22" points="385.5 124.4 385.5 118.3 395.7 119.8 395.7 123.6 385.5 124.4"/>
        <polygon class="cls-22" points="350.6 118.2 350.6 124.3 340.3 122.8 340.3 119 350.6 118.2"/>
        <polygon class="cls-22" points="378.2 135.8 382.5 131.5 388.7 139.8 386 142.5 378.2 135.8"/>
        <polygon class="cls-22" points="357.9 106.8 353.6 111.1 347.4 102.8 350.1 100 357.9 106.8"/>
        <polygon class="cls-22" points="353.5 131.5 357.8 135.7 349.5 142 346.8 139.2 353.5 131.5"/>
        <polygon class="cls-22" points="382.5 111.1 378.2 106.9 386.6 100.6 389.3 103.4 382.5 111.1"/>
      </g>
      <g>
        <polygon class="cls-22" points="377.3 106.2 371.6 104 376.8 95 380.3 96.4 377.3 106.2"/>
        <polygon class="cls-22" points="358.8 136.4 364.4 138.6 359.3 147.6 355.7 146.2 358.8 136.4"/>
        <polygon class="cls-22" points="383.1 130.5 385.3 124.9 394.4 130 393 133.6 383.1 130.5"/>
        <polygon class="cls-22" points="352.9 112.1 350.7 117.7 341.7 112.6 343.1 109 352.9 112.1"/>
        <polygon class="cls-22" points="372.2 138.5 377.7 136.1 380.5 146.1 376.9 147.6 372.2 138.5"/>
        <polygon class="cls-22" points="363.9 104.1 358.3 106.5 355.6 96.5 359.1 95 363.9 104.1"/>
        <polygon class="cls-22" points="350.8 125.4 353.2 131 343.2 133.7 341.7 130.2 350.8 125.4"/>
        <polygon class="cls-22" points="385.2 117.2 382.8 111.6 392.8 108.8 394.4 112.4 385.2 117.2"/>
      </g>
    </g>
    <g>
      <path class="cls-31" d="M390.7,316.6c-.3-27.6-23.2-49.8-51-48.8-26.3.9-47.5,22.7-47.7,49-.1,19.9,11.6,37.1,28.5,45,4.4,2.1,7.3,6.6,7.3,11.5v13.5c.2,7,5.3,13.2,12.2,14.1,8.7,1.2,16.2-5.6,16.1-14.1l-.2-15.7c0-4,2.3-7.6,5.9-9.2,17.1-7.9,29-25.2,28.8-45.3Z"/>
      <path class="cls-29" d="M366.1,274.4c6.8,14.7,7.4,30.8.5,46-5.1,11.2-13.4,21.3-23.8,27.9-8.6,5.5-18.4,8.6-28.4,10,1.9,1.3,4,2.4,6.1,3.4,4.4,2.1,7.3,6.6,7.3,11.5v13.5c.2,7,5.3,13.2,12.2,14.1,8.7,1.2,16.2-5.6,16.1-14.1l-.2-15.7c0-4,2.3-7.6,5.9-9.2,17.1-7.9,29-25.2,28.8-45.3-.2-18-10-33.7-24.6-42.2Z"/>
      <path class="cls-19" d="M324.3,387.8v3.9c.1,9.9,8.3,17.8,18.1,17.7h.2c9.9,0,17.8-8.2,17.7-18.1v-3.9s-36.1.3-36.1.3Z"/>
      <path class="cls-5" d="M307.1,307.1c-.7,3.1-1.1,6.4-.9,9.6"/>
      <path class="cls-6" d="M329,281.6c-6.6,3-12.2,8-16.2,14.1"/>
      <path class="cls-6" d="M374.1,341.4c-3.3,4.3-7.5,8-12.3,10.7"/>
      <path class="cls-6" d="M382.4,322c-.4,2.8-1.1,5.6-2.1,8.3"/>
      <polyline class="cls-16" points="335.7 382.3 335.7 313.8 341.7 324.7 347.4 313.8 347.4 381.5"/>
      <line class="cls-13" x1="328.1" y1="402.3" x2="356.2" y2="386.9"/>
      <line class="cls-13" x1="337.1" y1="408.7" x2="358.5" y2="396.8"/>
      <path class="cls-13" d="M360.4,393.9"/>
      <path class="cls-13" d="M338.9,409.1"/>
      <path class="cls-27" d="M360.9,393.6l-35.6.3c-3.1,0-5.6-2.5-5.7-5.6h0c0-3.1,2.5-5.6,5.6-5.7l35.6-.3c3.1,0,5.6,2.5,5.7,5.6h0c0,3.1-2.5,5.6-5.6,5.7Z"/>
    </g>
    <g>
      <polygon class="cls-22" points="157.6 141.7 157.7 132.7 137.1 132.2 137 141.2 74.6 140.5 73.8 195.3 156.9 196.6 157.4 150.5 157.4 150.5 157.5 145 157.6 141.7"/>
      <g>
        <path class="cls-20" d="M67.4,88.4v92.8h57.7s0,0,0-.1h-.2v-63.2h8.8v-45.6h-50.2c-8.9,0-16,7.2-16,16Z"/>
        <path class="cls-19" d="M133.4,71.6c-4.7,0-8.5,3.8-8.5,8.5v37.8h16.6v-38c0-4.5-3.6-8.2-8.2-8.3Z"/>
      </g>
      <g>
        <polygon class="cls-30" points="52.3 153.1 48.3 144.2 82 143.7 86.1 152.6 135.8 151.9 156.2 196.7 72.8 197.9 56.3 161.8 56.3 161.8 53.8 156.3 52.3 153.1"/>
        <path class="cls-8" d="M59.5,168.8s30.3-3.4,41.1,28.2"/>
        <path class="cls-8" d="M93.8,152.5c5,18.8,27.8,20.2,41.5,29.7,5.7,4,10.7,9,14.9,14.5"/>
      </g>
      <line class="cls-15" x1="74.3" y1="91.7" x2="114.5" y2="91.7"/>
      <line class="cls-15" x1="74.5" y1="100.2" x2="114.6" y2="100.2"/>
      <line class="cls-15" x1="74.6" y1="108.7" x2="114.8" y2="108.7"/>
      <line class="cls-15" x1="74.8" y1="117.2" x2="114.9" y2="117.2"/>
      <line class="cls-15" x1="74.9" y1="125.7" x2="115.1" y2="125.7"/>
      <line class="cls-15" x1="75.1" y1="134.2" x2="115.3" y2="134.2"/>
    </g>
    <g>
      <circle class="cls-24" cx="413.3" cy="166.3" r="12.5"/>
      <path class="cls-32" d="M406,176.4c2.1,1.5,4.6,2.4,7.3,2.4,6.9,0,12.5-5.6,12.5-12.5s-.9-5.3-2.4-7.3c-6.3,5.2-12.1,11.1-17.4,17.4Z"/>
    </g>
    <g>
      <g>
        <g>
          <g>
            <path class="cls-21" d="M262.4,399.2c2.1-1.7,3.9-3.9,5.1-6.3,2.5-5.2,3-11.2,3.2-17,.3-5.8.5-11.7,2.7-17.1.8-1.9,1.8-3.8,1.5-5.8-.3-2-2-3.3-3.9-2.6-4,1.4-6.8,4.9-8.7,8.7-1.9,3.8-2.9,7.9-4.5,11.8-.1.3-.2.6-.4.9l-13.3-13.2c0,.1,0,.3,0,.4l-11.9-11.9c-2.9-2.9-7.6-2.8-10.4,0-2.4,2.5-2.8,6.2-1,9.1-4.3-.2-8.3,2.8-9.3,7.1-.2.9-.3,1.9-.2,2.8-2.2.1-4.3,1-6,2.7-3.2,3.2-3.5,8.2-1,11.8,0,0,29.7,30,34.6,34.4,2.7,4.3,5.6,8.8,8.6,13.3l22.1-22.2c-2.5-2.2-5-4.4-7.4-6.6Z"/>
            <rect class="cls-28" x="241.8" y="410.3" width="40.1" height="20" transform="translate(-220.8 309.2) rotate(-45.1)"/>
            <rect class="cls-14" x="241.8" y="410.3" width="40.1" height="20" transform="translate(-220.8 309.2) rotate(-45.1)"/>
          </g>
          <path class="cls-21" d="M250.9,375.1l-.6.4c-2.7,2.2-6.7,1.7-8.9-1l-34.1-43c-2.2-2.7-1.7-6.7,1-8.9l.6-.4c2.7-2.2,6.7-1.7,8.9,1l34.1,43c2.2,2.7,1.7,6.7-1,8.9Z"/>
          <path class="cls-17" d="M227.5,353.4c-3.9,3.9-4.3,10.7-1,15"/>
        </g>
        <path class="cls-17" d="M215.9,331.9h0c-1.8,1.3-4.2.9-5.5-.9l-.8-1.1c-1.3-1.8-.9-4.2.9-5.5h0c1.8-1.3,4.2-.9,5.5.9l.8,1.1c1.3,1.8.9,4.2-.9,5.5Z"/>
        <polygon class="cls-19" points="336.1 452.6 290.4 403.1 243.2 446.7 248.7 452.6 336.1 452.6"/>
      </g>
      <path class="cls-12" d="M273.9,351.4c-1.1,0-2.1.6-2.8,1.4s-1.1,1.8-1.5,2.8c-.4,1.1-.7,2.3-.5,3.5.1,1.2.6,2.4,1.6,3"/>
    </g>
    <line class="cls-3" x1="45.7" y1="453.4" x2="445.9" y2="453.4"/>
    <path class="cls-7" d="M302.8,430.7c0,3-2.4,5.4-5.4,5.4s-5.4-2.4-5.4-5.4,2.4-5.4,5.4-5.4,5.4,2.4,5.4,5.4Z"/>
    <g>
      <path class="cls-22" d="M224.9,84.9h-50.5c-2.6,0-4.6-2.1-4.6-4.6h0c0-2.6,2.1-4.6,4.6-4.6h50.5c2.6,0,4.6,2.1,4.6,4.6h0c0,2.6-2.1,4.6-4.6,4.6Z"/>
      <path class="cls-24" d="M224.9,75.6h-21.8v9.3h21.8c2.6,0,4.6-2.1,4.6-4.6s-2.1-4.6-4.6-4.6Z"/>
    </g>
    <g>
      <path class="cls-22" d="M433.2,404.2h-50.5c-2.6,0-4.6-2.1-4.6-4.6h0c0-2.6,2.1-4.6,4.6-4.6h50.5c2.6,0,4.6,2.1,4.6,4.6h0c0,2.6-2.1,4.6-4.6,4.6Z"/>
      <path class="cls-25" d="M433.2,394.9h-21.8v9.3h21.8c2.6,0,4.6-2.1,4.6-4.6s-2.1-4.6-4.6-4.6Z"/>
    </g>
    <g>
      <path class="cls-22" d="M98.5,441.4h-39.3c-2,0-3.6-1.6-3.6-3.6h0c0-2,1.6-3.6,3.6-3.6h39.3c2,0,3.6,1.6,3.6,3.6h0c0,2-1.6,3.6-3.6,3.6Z"/>
      <path class="cls-30" d="M98.5,434.2h-16.9v7.2h16.9c2,0,3.6-1.6,3.6-3.6,0-2-1.6-3.6-3.6-3.6Z"/>
    </g>
    <path class="cls-11" d="M373.4,259.3c-.6,0-1.3-.1-1.9-.4-2.6-1.1-3.9-4.1-2.8-6.7,5.7-14,19.6-21.4,32.4-26.9,1-.4,2-.8,3-1.3,10.6-4.5,21.5-9.1,27.8-17.6,1.7-2.3,4.9-2.7,7.2-1,2.3,1.7,2.7,4.9,1,7.2-8,10.7-20.2,15.9-32,20.9-1,.4-2,.8-2.9,1.3-10.9,4.7-22.6,10.9-26.9,21.4-.8,2-2.7,3.2-4.7,3.2Z"/>
    <circle class="cls-24" cx="219.6" cy="121.1" r="3.4"/>
    <circle class="cls-24" cx="45.6" cy="419.8" r="3.4"/>
    <path class="cls-24" d="M351.3,70.7c0,1.2-1,2.2-2.2,2.2s-2.2-1-2.2-2.2,1-2.2,2.2-2.2,2.2,1,2.2,2.2Z"/>
    <circle class="cls-24" cx="457.3" cy="266.6" r="5"/>
    <path class="cls-24" d="M416.9,425.4c0,1.1-.9,1.9-1.9,1.9s-1.9-.9-1.9-1.9.9-1.9,1.9-1.9,1.9.9,1.9,1.9Z"/>
    <circle class="cls-24" cx="51.9" cy="194.2" r="1.9"/>
  </g>
</svg>