<?xml version="1.0" encoding="UTF-8"?>
<svg id="Calque_1" data-name="Calque 1" xmlns="http://www.w3.org/2000/svg" version="1.1" viewBox="0 0 500 500">
  <defs>
    <style>
      .cls-1 {
        fill: #29427b;
      }

      .cls-1, .cls-2, .cls-3, .cls-4, .cls-5, .cls-6, .cls-7, .cls-8, .cls-9, .cls-10, .cls-11, .cls-12, .cls-13, .cls-14, .cls-15, .cls-16, .cls-17, .cls-18, .cls-19 {
        stroke-width: 0px;
      }

      .cls-2 {
        fill: #88afbf;
      }

      .cls-3 {
        fill: #fae043;
      }

      .cls-20, .cls-21, .cls-22 {
        isolation: isolate;
      }

      .cls-4 {
        fill: #3c5b99;
      }

      .cls-5 {
        fill: #102c66;
      }

      .cls-6 {
        fill: #bcbcbc;
      }

      .cls-7 {
        fill: #03e5b7;
      }

      .cls-8 {
        fill: #061d44;
      }

      .cls-9 {
        fill: #3b69bc;
      }

      .cls-10 {
        fill: #e5f6fe;
      }

      .cls-11 {
        fill: #162d49;
      }

      .cls-12 {
        fill: #83c9e5;
      }

      .cls-13 {
        fill: #ededed;
      }

      .cls-21 {
        fill: #fefefe;
      }

      .cls-21, .cls-22 {
        font-family: Poppins-Regular, Poppins;
        font-size: 20.1px;
      }

      .cls-14 {
        fill: #4e6c84;
      }

      .cls-15 {
        fill: #fff;
      }

      .cls-16 {
        fill: #1b3747;
      }

      .cls-17 {
        fill: #436daa;
      }

      .cls-22 {
        fill: #b6ecf7;
      }

      .cls-18 {
        fill: #39586d;
      }

      .cls-19 {
        fill: #01183a;
      }
    </style>
  </defs>
  <g id="OBJECTS">
    <g>
      <g>
        <g>
          <path class="cls-12" d="M171.9,170h-12.5c-.8-2.7-1.7-5.3-2.9-7.8l8.8-8.8c1.1-1.1,1.1-2.8,0-3.9l-18.4-18.4c-1.1-1.1-2.8-1.1-3.9,0l-8.1,8.1c-2.7-1.5-5.5-2.7-8.4-3.6v-11.4c0-1.5-1.2-2.7-2.7-2.7h-26c-1.5,0-2.7,1.2-2.7,2.7v11.4c-2.9.9-5.7,2.2-8.3,3.6l-8.3-8.3c-1.1-1.1-2.8-1.1-3.9,0l-18.4,18.4c-1.1,1.1-1.1,2.8,0,3.9l8.9,8.9c-1.1,2.4-2.1,4.9-2.8,7.5h-13.1c-1.5,0-2.7,1.2-2.7,2.7v26c0,1.5,1.2,2.7,2.7,2.7h14.2c.8,2.1,1.7,4.2,2.8,6.2l-10.4,10.4c-1.1,1.1-1.1,2.8,0,3.9l18.4,18.4c1.1,1.1,2.8,1.1,3.9,0l10.8-10.8c1.8.9,3.7,1.7,5.6,2.3v15.5c0,1.5,1.2,2.7,2.7,2.7h26c1.5,0,2.7-1.2,2.7-2.7v-15.2c2-.6,3.9-1.4,5.8-2.2l10.8,10.8c1.1,1.1,2.8,1.1,3.9,0l18.4-18.4c1.1-1.1,1.1-2.8,0-3.9l-10-10c1.1-2.1,2.2-4.2,3-6.5h14c1.5,0,2.7-1.2,2.7-2.7v-26c0-1.5-1.2-2.7-2.7-2.7h.1ZM113.2,213.5c-18.5,1.5-33.8-13.9-32.4-32.4,1.1-14.6,12.9-26.4,27.5-27.5,18.5-1.5,33.8,13.9,32.4,32.4-1.1,14.6-12.9,26.4-27.5,27.5Z"/>
          <path class="cls-3" d="M467.9,175.2h-12.5c-.8-2.7-1.7-5.3-2.9-7.8l8.8-8.8c1.1-1.1,1.1-2.8,0-3.9l-18.4-18.4c-1.1-1.1-2.8-1.1-3.9,0l-8.1,8.1c-2.7-1.5-5.5-2.7-8.4-3.6v-11.4c0-1.5-1.2-2.7-2.7-2.7h-26c-1.5,0-2.7,1.2-2.7,2.7v11.4c-2.9.9-5.7,2.2-8.3,3.6l-8.3-8.3c-1.1-1.1-2.8-1.1-3.9,0l-18.4,18.4c-1.1,1.1-1.1,2.8,0,3.9l8.9,8.9c-1.1,2.4-2.1,4.9-2.8,7.5h-13.1c-1.5,0-2.7,1.2-2.7,2.7v26c0,1.5,1.2,2.7,2.7,2.7h14.2c.8,2.1,1.7,4.2,2.8,6.2l-10.4,10.4c-1.1,1.1-1.1,2.8,0,3.9l18.4,18.4c1.1,1.1,2.8,1.1,3.9,0l10.8-10.8c1.8.9,3.7,1.7,5.6,2.3v15.5c0,1.5,1.2,2.7,2.7,2.7h26c1.5,0,2.7-1.2,2.7-2.7v-15.2c2-.6,3.9-1.4,5.8-2.2l10.8,10.8c1.1,1.1,2.8,1.1,3.9,0l18.4-18.4c1.1-1.1,1.1-2.8,0-3.9l-10-10c1.1-2.1,2.2-4.2,3-6.5h14c1.5,0,2.7-1.2,2.7-2.7v-26c0-1.5-1.2-2.7-2.7-2.7h.1ZM409.2,218.6c-18.5,1.5-33.8-13.9-32.4-32.4,1.1-14.6,12.9-26.4,27.5-27.5,18.5-1.5,33.8,13.9,32.4,32.4-1.1,14.6-12.9,26.4-27.5,27.5Z"/>
        </g>
        <g>
          <path class="cls-1" d="M408.2,424H58.8c-1.6,0-2.8-1.3-2.8-2.8v-239.1c0-1.6,1.3-2.8,2.8-2.8h349.4c1.6,0,2.8,1.3,2.8,2.8v239.1c0,1.6-1.3,2.8-2.8,2.8h0Z"/>
          <path class="cls-4" d="M287.8,207.9c10.3-8.3,18.4-18,25.1-28.6H58.8c-1.6,0-2.8,1.3-2.8,2.8v101.8c16.2-.9,32.5-2.9,48.8-6,67-12,128-28,183-70Z"/>
          <path class="cls-14" d="M386,388H81.1c-4.1,0-7.4-3.3-7.4-7.4v-180c0-4.1,3.3-7.4,7.4-7.4h304.9c4.1,0,7.4,3.3,7.4,7.4v180c0,4.1-3.3,7.4-7.4,7.4Z"/>
          <path class="cls-18" d="M73.7,349.1v31.6c0,4.1,3.3,7.4,7.4,7.4h304.9c4.1,0,7.4-3.3,7.4-7.4v-135.5c-71.6,135-273.1,109.8-319.6,103.9h0Z"/>
          <g>
            <rect class="cls-8" x="159.9" y="399.2" width="136.1" height="21.2"/>
            <rect class="cls-8" x="131.2" y="399.2" width="23.6" height="21.2"/>
            <rect class="cls-8" x="302" y="399.2" width="23.6" height="21.2"/>
            <rect class="cls-8" x="331.5" y="399.2" width="23.6" height="21.2"/>
            <rect class="cls-8" x="361" y="399.2" width="23.6" height="21.2"/>
            <rect class="cls-8" x="102.6" y="399.2" width="23.6" height="21.2"/>
            <g>
              <rect class="cls-17" x="159.9" y="399.2" width="136.1" height="6"/>
              <rect class="cls-17" x="131.2" y="399.2" width="23.6" height="6"/>
              <rect class="cls-17" x="302" y="399.2" width="23.6" height="6"/>
              <rect class="cls-17" x="331.5" y="399.2" width="23.6" height="6"/>
              <rect class="cls-17" x="361" y="399.2" width="23.6" height="6"/>
              <rect class="cls-17" x="102.6" y="399.2" width="23.6" height="6"/>
            </g>
          </g>
          <rect class="cls-5" x="41.9" y="412.5" width="388.2" height="23.2"/>
          <path class="cls-16" d="M393.4,202.2v-1.5c0-4.1-3.3-7.4-7.4-7.4H81.1c-4.1,0-7.4,3.3-7.4,7.4v1.5h319.7Z"/>
          <rect class="cls-9" x="41.9" y="412.5" width="388.2" height="3.9"/>
        </g>
        <rect class="cls-7" x="83" y="205.9" width="117.8" height="8.2"/>
        <rect class="cls-7" x="204.8" y="205.9" width="51.5" height="8.2"/>
        <rect class="cls-10" x="138.4" y="220.6" width="117.8" height="8.2"/>
        <rect class="cls-7" x="83" y="220.6" width="51.5" height="8.2"/>
        <rect class="cls-10" x="83" y="235" width="90.8" height="8.2"/>
        <rect class="cls-7" x="176.8" y="235" width="39.6" height="8.2"/>
        <rect class="cls-7" x="138.4" y="249.7" width="117.8" height="8.2"/>
        <rect class="cls-10" x="83" y="249.7" width="51.5" height="8.2"/>
        <rect class="cls-10" x="83" y="291" width="117.8" height="8.2"/>
        <rect class="cls-7" x="204.8" y="291" width="51.5" height="8.2"/>
        <rect class="cls-10" x="126.2" y="305.7" width="91.9" height="8.2"/>
        <rect class="cls-7" x="83" y="305.7" width="40.1" height="8.2"/>
        <rect class="cls-7" x="83" y="320.1" width="117.8" height="8.2"/>
        <rect class="cls-10" x="204.8" y="320.1" width="51.5" height="8.2"/>
        <rect class="cls-7" x="138.4" y="334.8" width="117.8" height="8.2"/>
        <rect class="cls-10" x="83" y="334.8" width="51.5" height="8.2"/>
        <rect class="cls-2" x="41.9" y="442.3" width="388.2" height="5"/>
        <g>
          <g>
            <rect class="cls-15" x="317.7" y="250.3" width="1.8" height="5.2"/>
            <rect class="cls-15" x="317.7" y="242.6" width="1.8" height="5.2"/>
            <rect class="cls-15" x="317.7" y="234.8" width="1.8" height="5.2"/>
            <rect class="cls-15" x="317.7" y="227.1" width="1.8" height="5.2"/>
            <rect class="cls-15" x="317.7" y="219.4" width="1.8" height="5.2"/>
            <rect class="cls-15" x="317.7" y="211.6" width="1.8" height="5.2"/>
            <rect class="cls-15" x="317.7" y="203.9" width="1.8" height="5.2"/>
          </g>
          <g>
            <rect class="cls-15" x="317.7" y="196.2" width="1.8" height="5.2"/>
            <rect class="cls-15" x="317.7" y="188.4" width="1.8" height="5.2"/>
            <rect class="cls-15" x="317.7" y="180.7" width="1.8" height="5.2"/>
            <rect class="cls-15" x="317.7" y="173" width="1.8" height="5.2"/>
            <rect class="cls-15" x="317.7" y="165.3" width="1.8" height="5.2"/>
            <rect class="cls-15" x="317.7" y="157.5" width="1.8" height="5.2"/>
            <rect class="cls-15" x="317.7" y="149.8" width="1.8" height="5.2"/>
          </g>
          <g>
            <rect class="cls-15" x="342.2" y="122.7" width="6.2" height="1.8"/>
            <rect class="cls-15" x="351.5" y="122.7" width="6.2" height="1.8"/>
            <rect class="cls-15" x="360.8" y="122.7" width="6.2" height="1.8"/>
            <rect class="cls-15" x="370" y="122.7" width="6.2" height="1.8"/>
            <rect class="cls-15" x="379.3" y="122.7" width="6.2" height="1.8"/>
            <rect class="cls-15" x="388.6" y="122.7" width="6.2" height="1.8"/>
            <rect class="cls-15" x="397.8" y="122.7" width="6.2" height="1.8"/>
          </g>
          <g>
            <rect class="cls-15" x="429.9" y="147.3" width="1.8" height="5.2"/>
            <rect class="cls-15" x="429.9" y="155" width="1.8" height="5.2"/>
            <rect class="cls-15" x="429.9" y="162.7" width="1.8" height="5.2"/>
            <rect class="cls-15" x="429.9" y="170.4" width="1.8" height="5.2"/>
            <rect class="cls-15" x="429.9" y="178.2" width="1.8" height="5.2"/>
            <rect class="cls-15" x="429.9" y="185.9" width="1.8" height="5.2"/>
            <rect class="cls-15" x="429.9" y="193.6" width="1.8" height="5.2"/>
          </g>
          <g>
            <rect class="cls-15" x="429.9" y="201.4" width="1.8" height="5.2"/>
            <rect class="cls-15" x="429.9" y="209.1" width="1.8" height="5.2"/>
            <rect class="cls-15" x="429.9" y="216.8" width="1.8" height="5.2"/>
            <rect class="cls-15" x="429.9" y="224.6" width="1.8" height="5.2"/>
            <rect class="cls-15" x="429.9" y="232.3" width="1.8" height="5.2"/>
            <rect class="cls-15" x="429.9" y="240" width="1.8" height="5.2"/>
            <rect class="cls-15" x="429.9" y="247.8" width="1.8" height="5.2"/>
          </g>
          <g>
            <rect class="cls-15" x="400.9" y="278.3" width="6.2" height="1.8"/>
            <rect class="cls-15" x="391.6" y="278.3" width="6.2" height="1.8"/>
            <rect class="cls-15" x="382.3" y="278.3" width="6.2" height="1.8"/>
            <rect class="cls-15" x="373.1" y="278.3" width="6.2" height="1.8"/>
            <rect class="cls-15" x="363.8" y="278.3" width="6.2" height="1.8"/>
            <rect class="cls-15" x="354.5" y="278.3" width="6.2" height="1.8"/>
            <rect class="cls-15" x="345.3" y="278.3" width="6.2" height="1.8"/>
          </g>
          <g>
            <g>
              <rect class="cls-15" x="317.7" y="143" width="1.8" height="4.5"/>
              <rect class="cls-15" x="317.7" y="136.2" width="1.8" height="4.5"/>
              <rect class="cls-15" x="317.7" y="129.5" width="1.8" height="4.5"/>
              <rect class="cls-15" x="317.7" y="122.7" width="1.8" height="4.5"/>
            </g>
            <g>
              <rect class="cls-15" x="321.9" y="122.7" width="4.5" height="1.8"/>
              <rect class="cls-15" x="335.5" y="122.7" width="4.5" height="1.8"/>
            </g>
            <rect class="cls-15" x="328.4" y="122.7" width="4.5" height="1.8"/>
          </g>
          <g>
            <g>
              <rect class="cls-15" x="406.8" y="122.7" width="4.5" height="1.8"/>
              <rect class="cls-15" x="413.6" y="122.7" width="4.5" height="1.8"/>
              <rect class="cls-15" x="420.3" y="122.7" width="4.5" height="1.8"/>
              <rect class="cls-15" x="427.1" y="122.7" width="4.5" height="1.8"/>
            </g>
            <g>
              <rect class="cls-15" x="429.9" y="126.9" width="1.8" height="4.5"/>
              <rect class="cls-15" x="429.9" y="133.7" width="1.8" height="4.5"/>
              <rect class="cls-15" x="429.9" y="140.5" width="1.8" height="4.5"/>
            </g>
          </g>
          <g>
            <g>
              <rect class="cls-15" x="429.9" y="255.2" width="1.8" height="4.5"/>
              <rect class="cls-15" x="429.9" y="262" width="1.8" height="4.5"/>
              <rect class="cls-15" x="429.9" y="268.7" width="1.8" height="4.5"/>
              <rect class="cls-15" x="429.9" y="275.5" width="1.8" height="4.5"/>
            </g>
            <g>
              <rect class="cls-15" x="422.9" y="278.3" width="4.5" height="1.8"/>
              <rect class="cls-15" x="416.2" y="278.3" width="4.5" height="1.8"/>
              <rect class="cls-15" x="409.3" y="278.3" width="4.5" height="1.8"/>
            </g>
          </g>
          <g>
            <g>
              <rect class="cls-15" x="338" y="278.3" width="4.5" height="1.8"/>
              <rect class="cls-15" x="331.2" y="278.3" width="4.5" height="1.8"/>
              <rect class="cls-15" x="324.4" y="278.3" width="4.5" height="1.8"/>
              <rect class="cls-15" x="317.7" y="278.3" width="4.5" height="1.8"/>
            </g>
            <g>
              <rect class="cls-15" x="317.7" y="271.3" width="1.8" height="4.5"/>
              <rect class="cls-15" x="317.7" y="257.7" width="1.8" height="4.5"/>
            </g>
            <path class="cls-15" d="M317.7,266.4v-1.9h1.8v4.5h-1.8v-.8l-2.9,1.1-1,3.4h0v.2h.8c0,.1.1.1.1.1h0v.2h0v.2h0v.2h0v.2h0v.2h0v.2h0v.2h0v.2h0v.2h0v.2h0v.2h0v.2h0v.2h0v.2h0v.2h0v.2h0v.2h0v.2h0c0,.1-.1.1-.1.1h-1.5v-.2h0v-.2h0v-.2h0v-.2h0v-.2h0v-1.4h.1v-.3h0v-.3l.2-.3.2-.3.2-.3.2-.3h0v-.3h0v-.7c.1,0,.1-.2.1-.2v-2.2c-.1,0-.1-.2-.1-.2v-.2h-.9c0,.1-.2.1-.2.1h-.2c0,.1-.2.1-.2.1l-.2.2c-.1,0-.2.1-.4.2-.1,0-.2.1-.3.2h-.1c0,.1-.1.2-.1.2h-.1c0,.1-.1.2-.1.2h-.1c0,.1-.1.2-.1.2,0,0-.2.2-.2.3,0,0-.1.2-.2.3,0,.1-.2.2-.2.3-.1.2-.3.4-.4.6h-.1c0,.1-.1.3-.1.3h-.1c0,.1-.1.3-.1.3h-.1c0,.1-.1.2-.1.2h-.1v.2h-.2v.2h-.3c0,.1-.2.1-.2.1h-1.4v-.2h0v-.2h0v-.2h0v-1.6h0v-.3h0v-.2h0v-.2h0v-.2h0v-.2h0v-.2h.2c0-.1.1-.1.1-.1h1.6v.2h0c0,.1,0,.2.1.2l.2.2h0v-.3l.2-.2.2-.2c0-.1.2-.2.2-.3h.1c0-.1.1-.2.1-.2h.1c0-.1.1-.2.1-.2h.1c0-.1.2-.2.2-.2l.3-.2.3-.2.3-.2c.2-.1.4-.2.6-.3l2-6.3v-.3c.1,0,.2-.3.2-.3v-.2c.1,0,.3-.2.3-.2v-.2c.1,0,.3-.2.3-.2l.2-.2.2-.2.2-.2.2-.2.2-.2.2-.2.2-.2.2-.2.2-.2.2-.2-2,8.5,2.3-1,.4,1.2ZM307.6,270.9h-.7c0,.1-.1.1-.1.1v.2h-.2c0,.1-.1.2-.1.2h-.1v.2h0v.2h0v.2h0v.3h0v.2h0v.2h0v.2h0v.2h0v.2h.3c0,.1.1.1.1.1h.4v-.2h.2c0-.1.1-.2.1-.2h.1c0-.1.1-.3.1-.3h.1v-.3h0v-.3h0v-.2h0v-.2h0v-.2h0v-.2h0v-.2h0v-.2h-.2ZM312.4,275.1h0v.2h0v.2h0v.2h0v.2h0v.2h0v.2h0v.2h.5v-.2h.2v-.2h.2c0-.1.1-.2.1-.2h0v-.3h0v-.4h0v-.3h0v-.3h0v-.2h0v-.2h0v-.2h0v-.2h-.3c0-.1-.1-.1-.1-.1v.2h-.2c0,.1-.1.2-.1.2h0v.7c-.1,0-.3.3-.3.3Z"/>
          </g>
        </g>
        <g>
          <g>
            <rect class="cls-15" x="303.2" y="246.4" width="1.8" height="4"/>
            <rect class="cls-15" x="303.2" y="240.5" width="1.8" height="4"/>
            <rect class="cls-15" x="303.2" y="234.6" width="1.8" height="4"/>
            <rect class="cls-15" x="303.2" y="228.7" width="1.8" height="4"/>
            <rect class="cls-15" x="303.2" y="222.8" width="1.8" height="4"/>
            <rect class="cls-15" x="303.2" y="216.9" width="1.8" height="4"/>
            <rect class="cls-15" x="303.2" y="211" width="1.8" height="4"/>
          </g>
          <g>
            <rect class="cls-15" x="303.2" y="205.1" width="1.8" height="4"/>
            <rect class="cls-15" x="303.2" y="199.1" width="1.8" height="4"/>
            <rect class="cls-15" x="303.2" y="193.2" width="1.8" height="4"/>
            <rect class="cls-15" x="303.2" y="187.3" width="1.8" height="4"/>
            <rect class="cls-15" x="303.2" y="181.4" width="1.8" height="4"/>
            <rect class="cls-15" x="303.2" y="175.5" width="1.8" height="4"/>
            <rect class="cls-15" x="303.2" y="169.6" width="1.8" height="4"/>
          </g>
          <g>
            <rect class="cls-15" x="276.2" y="143.1" width="4.2" height="1.8"/>
            <rect class="cls-15" x="269.9" y="143.1" width="4.2" height="1.8"/>
            <rect class="cls-15" x="263.6" y="143.1" width="4.2" height="1.8"/>
            <rect class="cls-15" x="257.4" y="143.1" width="4.2" height="1.8"/>
            <rect class="cls-15" x="251.1" y="143.1" width="4.2" height="1.8"/>
            <rect class="cls-15" x="244.8" y="143.1" width="4.2" height="1.8"/>
            <rect class="cls-15" x="238.5" y="143.1" width="4.2" height="1.8"/>
          </g>
          <g>
            <rect class="cls-15" x="232.3" y="143.1" width="4.2" height="1.8"/>
            <rect class="cls-15" x="226" y="143.1" width="4.2" height="1.8"/>
            <rect class="cls-15" x="219.7" y="143.1" width="4.2" height="1.8"/>
            <rect class="cls-15" x="213.4" y="143.1" width="4.2" height="1.8"/>
            <rect class="cls-15" x="207.1" y="143.1" width="4.2" height="1.8"/>
            <rect class="cls-15" x="200.9" y="143.1" width="4.2" height="1.8"/>
            <rect class="cls-15" x="194.6" y="143.1" width="4.2" height="1.8"/>
          </g>
          <g>
            <rect class="cls-15" x="188.3" y="143.1" width="4.2" height="1.8"/>
            <rect class="cls-15" x="182" y="143.1" width="4.2" height="1.8"/>
            <rect class="cls-15" x="175.8" y="143.1" width="4.2" height="1.8"/>
            <rect class="cls-15" x="169.5" y="143.1" width="4.2" height="1.8"/>
            <rect class="cls-15" x="163.2" y="143.1" width="4.2" height="1.8"/>
            <rect class="cls-15" x="156.9" y="143.1" width="4.2" height="1.8"/>
            <rect class="cls-15" x="150.7" y="143.1" width="4.2" height="1.8"/>
          </g>
          <g>
            <rect class="cls-15" x="144.4" y="143.1" width="4.2" height="1.8"/>
            <rect class="cls-15" x="138.1" y="143.1" width="4.2" height="1.8"/>
            <rect class="cls-15" x="131.8" y="143.1" width="4.2" height="1.8"/>
            <rect class="cls-15" x="125.6" y="143.1" width="4.2" height="1.8"/>
            <rect class="cls-15" x="119.3" y="143.1" width="4.2" height="1.8"/>
            <rect class="cls-15" x="113" y="143.1" width="4.2" height="1.8"/>
            <rect class="cls-15" x="106.7" y="143.1" width="4.2" height="1.8"/>
          </g>
          <g>
            <rect class="cls-15" x="100.5" y="143.1" width="4.2" height="1.8"/>
            <rect class="cls-15" x="94.2" y="143.1" width="4.2" height="1.8"/>
            <rect class="cls-15" x="87.9" y="143.1" width="4.2" height="1.8"/>
            <rect class="cls-15" x="81.6" y="143.1" width="4.2" height="1.8"/>
            <rect class="cls-15" x="75.4" y="143.1" width="4.2" height="1.8"/>
            <rect class="cls-15" x="69.1" y="143.1" width="4.2" height="1.8"/>
            <rect class="cls-15" x="62.8" y="143.1" width="4.2" height="1.8"/>
          </g>
          <g>
            <rect class="cls-15" x="36.1" y="167.7" width="1.8" height="4"/>
            <rect class="cls-15" x="36.1" y="173.6" width="1.8" height="4"/>
            <rect class="cls-15" x="36.1" y="179.5" width="1.8" height="4"/>
            <rect class="cls-15" x="36.1" y="185.4" width="1.8" height="4"/>
            <rect class="cls-15" x="36.1" y="191.3" width="1.8" height="4"/>
            <rect class="cls-15" x="36.1" y="197.2" width="1.8" height="4"/>
            <rect class="cls-15" x="36.1" y="203.1" width="1.8" height="4"/>
          </g>
          <g>
            <rect class="cls-15" x="36.1" y="209" width="1.8" height="4"/>
            <rect class="cls-15" x="36.1" y="214.9" width="1.8" height="4"/>
            <rect class="cls-15" x="36.1" y="220.8" width="1.8" height="4"/>
            <rect class="cls-15" x="36.1" y="226.8" width="1.8" height="4"/>
            <rect class="cls-15" x="36.1" y="232.7" width="1.8" height="4"/>
            <rect class="cls-15" x="36.1" y="238.6" width="1.8" height="4"/>
            <rect class="cls-15" x="36.1" y="244.5" width="1.8" height="4"/>
          </g>
          <g>
            <rect class="cls-15" x="60.8" y="273.2" width="4.2" height="1.8"/>
            <rect class="cls-15" x="67" y="273.2" width="4.2" height="1.8"/>
            <rect class="cls-15" x="73.3" y="273.2" width="4.2" height="1.8"/>
            <rect class="cls-15" x="79.6" y="273.2" width="4.2" height="1.8"/>
            <rect class="cls-15" x="85.9" y="273.2" width="4.2" height="1.8"/>
            <rect class="cls-15" x="92.1" y="273.2" width="4.2" height="1.8"/>
            <rect class="cls-15" x="98.4" y="273.2" width="4.2" height="1.8"/>
          </g>
          <g>
            <rect class="cls-15" x="104.7" y="273.2" width="4.2" height="1.8"/>
            <rect class="cls-15" x="111" y="273.2" width="4.2" height="1.8"/>
            <rect class="cls-15" x="117.2" y="273.2" width="4.2" height="1.8"/>
            <rect class="cls-15" x="123.5" y="273.2" width="4.2" height="1.8"/>
            <rect class="cls-15" x="129.8" y="273.2" width="4.2" height="1.8"/>
            <rect class="cls-15" x="136.1" y="273.2" width="4.2" height="1.8"/>
            <rect class="cls-15" x="142.3" y="273.2" width="4.2" height="1.8"/>
          </g>
          <g>
            <rect class="cls-15" x="148.6" y="273.2" width="4.2" height="1.8"/>
            <rect class="cls-15" x="154.9" y="273.2" width="4.2" height="1.8"/>
            <rect class="cls-15" x="161.2" y="273.2" width="4.2" height="1.8"/>
            <rect class="cls-15" x="167.4" y="273.2" width="4.2" height="1.8"/>
            <rect class="cls-15" x="173.7" y="273.2" width="4.2" height="1.8"/>
            <rect class="cls-15" x="180" y="273.2" width="4.2" height="1.8"/>
            <rect class="cls-15" x="186.3" y="273.2" width="4.2" height="1.8"/>
          </g>
          <g>
            <rect class="cls-15" x="192.5" y="273.2" width="4.2" height="1.8"/>
            <rect class="cls-15" x="198.8" y="273.2" width="4.2" height="1.8"/>
            <rect class="cls-15" x="205.1" y="273.2" width="4.2" height="1.8"/>
            <rect class="cls-15" x="211.4" y="273.2" width="4.2" height="1.8"/>
            <rect class="cls-15" x="217.6" y="273.2" width="4.2" height="1.8"/>
            <rect class="cls-15" x="223.9" y="273.2" width="4.2" height="1.8"/>
            <rect class="cls-15" x="230.2" y="273.2" width="4.2" height="1.8"/>
          </g>
          <g>
            <rect class="cls-15" x="236.5" y="273.2" width="4.2" height="1.8"/>
            <rect class="cls-15" x="242.7" y="273.2" width="4.2" height="1.8"/>
            <rect class="cls-15" x="249" y="273.2" width="4.2" height="1.8"/>
            <rect class="cls-15" x="255.3" y="273.2" width="4.2" height="1.8"/>
            <rect class="cls-15" x="261.6" y="273.2" width="4.2" height="1.8"/>
            <rect class="cls-15" x="267.8" y="273.2" width="4.2" height="1.8"/>
            <rect class="cls-15" x="274.1" y="273.2" width="4.2" height="1.8"/>
          </g>
          <g>
            <g>
              <rect class="cls-15" x="303.2" y="163.4" width="1.8" height="4.5"/>
              <rect class="cls-15" x="303.2" y="156.6" width="1.8" height="4.5"/>
              <rect class="cls-15" x="303.2" y="149.9" width="1.8" height="4.5"/>
              <rect class="cls-15" x="303.2" y="143.1" width="1.8" height="4.5"/>
            </g>
            <g>
              <rect class="cls-15" x="296.2" y="143.1" width="4.5" height="1.8"/>
              <rect class="cls-15" x="282.6" y="143.1" width="4.5" height="1.8"/>
              <rect class="cls-15" x="289.6" y="143.1" width="4.5" height="1.8"/>
            </g>
          </g>
          <g>
            <g>
              <rect class="cls-15" x="56.5" y="143.1" width="4.5" height="1.8"/>
              <rect class="cls-15" x="49.7" y="143.1" width="4.5" height="1.8"/>
              <rect class="cls-15" x="43" y="143.1" width="4.5" height="1.8"/>
              <rect class="cls-15" x="36.2" y="143.1" width="4.5" height="1.8"/>
            </g>
            <g>
              <rect class="cls-15" x="36.2" y="147.4" width="1.8" height="4.5"/>
              <rect class="cls-15" x="36.2" y="154" width="1.8" height="4.5"/>
              <rect class="cls-15" x="36.2" y="160.9" width="1.8" height="4.5"/>
            </g>
          </g>
          <g>
            <g>
              <rect class="cls-15" x="36.2" y="250.1" width="1.8" height="4.5"/>
              <rect class="cls-15" x="36.2" y="256.9" width="1.8" height="4.5"/>
              <rect class="cls-15" x="36.2" y="263.6" width="1.8" height="4.5"/>
              <rect class="cls-15" x="36.2" y="270.4" width="1.8" height="4.5"/>
            </g>
            <g>
              <rect class="cls-15" x="40.4" y="273.2" width="4.5" height="1.8"/>
              <rect class="cls-15" x="47.2" y="273.2" width="4.5" height="1.8"/>
              <rect class="cls-15" x="54" y="273.2" width="4.5" height="1.8"/>
            </g>
          </g>
          <g>
            <g>
              <rect class="cls-15" x="280.1" y="273.2" width="4.5" height="1.8"/>
              <rect class="cls-15" x="286.9" y="273.2" width="4.5" height="1.8"/>
              <rect class="cls-15" x="293.6" y="273.2" width="4.5" height="1.8"/>
              <rect class="cls-15" x="300.4" y="273.2" width="4.5" height="1.8"/>
            </g>
            <g>
              <rect class="cls-15" x="303.2" y="266.2" width="1.8" height="4.5"/>
              <rect class="cls-15" x="303.2" y="252.6" width="1.8" height="4.5"/>
              <rect class="cls-15" x="303.2" y="259.1" width="1.8" height="4.5"/>
            </g>
          </g>
        </g>
        <g>
          <path class="cls-19" d="M371,370.6h-86.7c-7.9,0-14.3-6.4-14.3-14.3v-191.2c0-7.9,6.4-14.3,14.3-14.3h86.7c7.9,0,14.3,6.4,14.3,14.3v191.2c0,7.9-6.4,14.3-14.3,14.3Z"/>
          <path class="cls-15" d="M365.2,353.4h-75.2c-6.9,0-12.6-5.6-12.6-12.6v-169.7c0-6.9,5.6-12.6,12.6-12.6h75.2c6.9,0,12.6,5.6,12.6,12.6v169.7c0,6.9-5.6,12.6-12.6,12.6Z"/>
          <path class="cls-6" d="M377.8,171.4v-.2c0-6.9-5.6-12.6-12.6-12.6h-75.2c-6.9,0-12.6,5.6-12.6,12.6v.2h100.4Z"/>
          <path class="cls-13" d="M349.8,256.9c-20,20-45.6,27.1-72.4,28.1v55.9c0,6.9,5.6,12.6,12.6,12.6h75.2c6.9,0,12.6-5.6,12.6-12.6v-115.6c-7.6,11.7-17.6,21.8-28,31.6h0Z"/>
          <path class="cls-19" d="M309.6,162.9h35.9c2.3,0,4.1-1.8,4.1-4.1h0c0-2.3-1.8-4.1-4.1-4.1h-35.9c-2.3,0-4.1,1.8-4.1,4.1h0c0,2.3,1.8,4.1,4.1,4.1Z"/>
          <circle class="cls-11" cx="327.6" cy="360.8" r="6.4"/>
          <g>
            <path class="cls-7" d="M330,218.8c-18.5-.9-33.8,14.3-32.8,32.8.8,15.9,13.7,28.8,29.6,29.6,18.5.9,33.8-14.3,32.8-32.8-.8-15.9-13.7-28.8-29.6-29.6ZM329.9,268.5c-11.5.9-21-8.6-20.1-20.1.7-9,8-16.3,17-17,11.5-.9,21,8.6,20.1,20.1-.7,9-8,16.3-17,17Z"/>
            <path class="cls-7" d="M336.5,226.1h-16.1c-.9,0-1.7-.8-1.7-1.7v-11.2c0-.9.8-1.7,1.7-1.7h16.1c.9,0,1.7.8,1.7,1.7v11.2c0,.9-.8,1.7-1.7,1.7Z"/>
            <path class="cls-7" d="M351.8,239.2l-11.4-11.4c-.7-.7-.7-1.7,0-2.4l7.9-7.9c.7-.7,1.7-.7,2.4,0l11.4,11.4c.7.7.7,1.7,0,2.4l-7.9,7.9c-.7.7-1.7.7-2.4,0Z"/>
            <path class="cls-7" d="M353.4,259.4v-16.1c0-.9.8-1.7,1.7-1.7h11.2c.9,0,1.7.8,1.7,1.7v16.1c0,.9-.8,1.7-1.7,1.7h-11.2c-.9,0-1.7-.8-1.7-1.7Z"/>
            <path class="cls-7" d="M340.2,274.8l11.4-11.4c.7-.7,1.7-.7,2.4,0l7.9,7.9c.7.7.7,1.7,0,2.4l-11.4,11.4c-.7.7-1.7.7-2.4,0l-7.9-7.9c-.7-.7-.7-1.7,0-2.4Z"/>
            <path class="cls-7" d="M320.1,276.3h16.1c.9,0,1.7.8,1.7,1.7v11.2c0,.9-.8,1.7-1.7,1.7h-16.1c-.9,0-1.7-.8-1.7-1.7v-11.2c0-.9.8-1.7,1.7-1.7Z"/>
            <path class="cls-7" d="M304.7,263.2l11.4,11.4c.7.7.7,1.7,0,2.4l-7.9,7.9c-.7.7-1.7.7-2.4,0l-11.4-11.4c-.7-.7-.7-1.7,0-2.4l7.9-7.9c.7-.7,1.7-.7,2.4,0Z"/>
            <path class="cls-7" d="M303.2,243v16.1c0,.9-.8,1.7-1.7,1.7h-11.2c-.9,0-1.7-.8-1.7-1.7v-16.1c0-.9.8-1.7,1.7-1.7h11.2c.9,0,1.7.8,1.7,1.7Z"/>
            <path class="cls-7" d="M316.3,227.7l-11.4,11.4c-.7.7-1.7.7-2.4,0l-7.9-7.9c-.7-.7-.7-1.7,0-2.4l11.4-11.4c.7-.7,1.7-.7,2.4,0l7.9,7.9c.7.7.7,1.7,0,2.4Z"/>
          </g>
        </g>
        <path class="cls-3" d="M293.6,133.1h-57.8c-5,0-9.1-4.1-9.1-9.1v-15.9c0-5,4.1-9.1,9.1-9.1h57.8c5,0,9.1,4.1,9.1,9.1v15.9c0,5-4.1,9.1-9.1,9.1Z"/>
        <path class="cls-7" d="M249.7,189.6h-57.8c-5,0-9.1-4.1-9.1-9.1v-15.9c0-5,4.1-9.1,9.1-9.1h57.8c5,0,9.1,4.1,9.1,9.1v15.9c0,5-4.1,9.1-9.1,9.1h0Z"/>
        <path class="cls-7" d="M457.7,323.1h-57.8c-5,0-9.1-4.1-9.1-9.1v-15.9c0-5,4.1-9.1,9.1-9.1h57.8c5,0,9.1,4.1,9.1,9.1v15.9c0,5-4.1,9.1-9.1,9.1Z"/>
        <path class="cls-3" d="M457.6,387.7h-57.8c-5,0-9.1-4.1-9.1-9.1v-15.9c0-5,4.1-9.1,9.1-9.1h57.8c5,0,9.1,4.1,9.1,9.1v15.9c0,5-4.1,9.1-9.1,9.1Z"/>
        <g class="cls-20">
          <text class="cls-21" transform="translate(241.7 121.4)"><tspan x="0" y="0">JAVA</tspan></text>
        </g>
        <g class="cls-20">
          <text class="cls-21" transform="translate(414.5 312.5)"><tspan x="0" y="0">php</tspan></text>
        </g>
        <g class="cls-20">
          <text class="cls-21" transform="translate(409.1 378.3)"><tspan x="0" y="0">c++</tspan></text>
        </g>
        <g class="cls-20">
          <text class="cls-21" transform="translate(195.9 178.1)"><tspan x="0" y="0">html</tspan></text>
        </g>
        <path class="cls-6" d="M330.8,347.4c0,1.2-1,2.2-2.2,2.2s-2.2-1-2.2-2.2,1-2.2,2.2-2.2,2.2,1,2.2,2.2Z"/>
        <path class="cls-6" d="M298.7,347.4c0,1.2-1,2.2-2.2,2.2s-2.2-1-2.2-2.2,1-2.2,2.2-2.2,2.2,1,2.2,2.2Z"/>
        <path class="cls-6" d="M359.3,347.4c0,1.2-1,2.2-2.2,2.2s-2.2-1-2.2-2.2,1-2.2,2.2-2.2,2.2,1,2.2,2.2Z"/>
        <circle class="cls-15" cx="198" cy="119.4" r="5.2"/>
        <path class="cls-15" d="M216.9,130.8c0,1.8-1.5,3.3-3.3,3.3s-3.3-1.5-3.3-3.3,1.5-3.3,3.3-3.3,3.3,1.5,3.3,3.3Z"/>
        <circle class="cls-15" cx="306.7" cy="134.9" r="2.3"/>
        <path class="cls-15" d="M346.1,108.5c0,3.6-2.9,6.5-6.5,6.5s-6.5-2.9-6.5-6.5,2.9-6.5,6.5-6.5,6.5,2.9,6.5,6.5Z"/>
        <circle class="cls-15" cx="428.4" cy="333" r="3.1"/>
        <path class="cls-15" d="M424.8,348.1c0,1.9-1.5,3.4-3.4,3.4s-3.4-1.5-3.4-3.4,1.5-3.4,3.4-3.4,3.4,1.5,3.4,3.4Z"/>
        <path class="cls-15" d="M450.9,339c0,.6-.5,1.1-1.1,1.1s-1.1-.5-1.1-1.1.5-1.1,1.1-1.1,1.1.5,1.1,1.1Z"/>
        <circle class="cls-15" cx="47.3" cy="210.3" r="2.4"/>
        <path class="cls-15" d="M41.5,306c0,3.3-2.7,6-6,6s-6-2.7-6-6,2.7-6,6-6,6,2.7,6,6Z"/>
        <path class="cls-15" d="M44.5,330.3c0,2-1.7,3.7-3.7,3.7s-3.7-1.6-3.7-3.7,1.7-3.7,3.7-3.7,3.7,1.6,3.7,3.7Z"/>
        <g>
          <path class="cls-7" d="M164,123.8l9.7,9.4c.9.8,2.2.8,3.1,0h0c.8-.9.8-2.2,0-3.1l-9.7-9.4c-.9-.8-2.2-.8-3.1,0h0c-.8.9-.8,2.2,0,3.1h0Z"/>
          <path class="cls-7" d="M176.8,123.9l-9.9,9.2c-.9.8-2.3.8-3.1-.1h0c-.8-.9-.8-2.3.1-3.1l9.9-9.2c.9-.8,2.3-.8,3.1,0h0c.8.9.8,2.3-.1,3.1Z"/>
        </g>
        <g>
          <path class="cls-7" d="M443,269.3l9.7,9.4c.9.8,2.2.8,3.1,0h0c.8-.9.8-2.2,0-3.1l-9.7-9.4c-.9-.8-2.2-.8-3.1,0h0c-.8.9-.8,2.2,0,3.1Z"/>
          <path class="cls-7" d="M455.7,269.4l-9.9,9.2c-.9.8-2.3.8-3.1-.1h0c-.8-.9-.8-2.3.1-3.1l9.9-9.2c.9-.8,2.3-.8,3.1.1h0c.8.9.8,2.3-.1,3.1Z"/>
        </g>
        <g>
          <path class="cls-7" d="M434.8,343.9l6.6,6.4c.6.6,1.5.6,2.1,0h0c.6-.6.6-1.5,0-2.1l-6.6-6.4c-.6-.6-1.5-.6-2.1,0h0c-.6.6-.6,1.5,0,2.1Z"/>
          <path class="cls-7" d="M443.5,344l-6.7,6.3c-.6.6-1.5.5-2.1,0h0c-.6-.6-.5-1.5,0-2.1l6.7-6.3c.6-.6,1.5-.5,2.1,0h0c.6.6.5,1.5,0,2.1Z"/>
        </g>
        <g>
          <path class="cls-7" d="M33.4,346.2l6.6,6.4c.6.6,1.5.6,2.1,0h0c.6-.6.6-1.5,0-2.1l-6.6-6.4c-.6-.6-1.5-.6-2.1,0h0c-.6.6-.6,1.5,0,2.1Z"/>
          <path class="cls-7" d="M42.1,346.3l-6.7,6.3c-.6.6-1.5.5-2.1,0h0c-.6-.6-.5-1.5,0-2.1l6.7-6.3c.6-.6,1.5-.5,2.1,0h0c.6.6.5,1.5,0,2.1Z"/>
        </g>
      </g>
      <g>
        <g class="cls-20">
          <text class="cls-22" transform="translate(162.4 68.9)"><tspan x="0" y="0">app development</tspan></text>
        </g>
        <rect class="cls-1" x="142.9" y="75.6" width="214.3" height="2.8"/>
      </g>
    </g>
  </g>
</svg>