<?xml version="1.0" encoding="utf-8"?>
<!-- Generator: Adobe Illustrator 27.5.0, SVG Export Plug-In . SVG Version: 6.00 Build 0)  -->
<svg version="1.1" xmlns="http://www.w3.org/2000/svg" xmlns:xlink="http://www.w3.org/1999/xlink" x="0px" y="0px"
	 viewBox="0 0 500 500" style="enable-background:new 0 0 500 500;" xml:space="preserve">
<g id="BACKGROUND">
	<rect style="fill:#E5F6FE;" width="500" height="500"/>
</g>
<g id="OBJECTS">
	<g>
		<g>
			<g>
				<g>
					<path style="fill:#83C9E5;" d="M171.919,170.05h-12.526c-0.758-2.704-1.738-5.317-2.919-7.821l8.755-8.755
						c1.065-1.066,1.065-2.793,0-3.859l-18.39-18.39c-1.066-1.065-2.793-1.065-3.858,0l-8.082,8.082
						c-2.657-1.458-5.455-2.682-8.369-3.647v-11.426c0-1.507-1.222-2.729-2.728-2.729H97.793c-1.507,0-2.728,1.222-2.728,2.729
						v11.402c-2.886,0.947-5.653,2.152-8.284,3.579l-8.292-8.292c-1.065-1.065-2.793-1.065-3.858,0l-18.39,18.39
						c-1.066,1.065-1.066,2.793,0,3.858l8.911,8.911c-1.14,2.415-2.095,4.933-2.844,7.54H49.25c-1.507,0-2.728,1.222-2.728,2.729
						v26.008c0,1.507,1.222,2.728,2.728,2.728h14.248c0.799,2.14,1.739,4.212,2.811,6.207l-10.369,10.369
						c-1.066,1.065-1.066,2.793,0,3.859l18.39,18.39c1.065,1.065,2.793,1.065,3.858,0l10.847-10.847
						c1.813,0.875,3.681,1.651,5.604,2.306v15.531c0,1.507,1.221,2.728,2.728,2.728h26.008c1.507,0,2.728-1.221,2.728-2.728v-15.241
						c1.985-0.631,3.919-1.374,5.789-2.235l10.786,10.787c1.065,1.065,2.793,1.065,3.858,0l18.39-18.39
						c1.066-1.066,1.066-2.793,0-3.858l-9.977-9.977c1.149-2.074,2.159-4.234,3.011-6.474h13.957c1.507,0,2.728-1.221,2.728-2.728
						v-26.008C174.647,171.272,173.426,170.05,171.919,170.05z M113.235,213.537c-18.514,1.46-33.849-13.875-32.389-32.389
						c1.148-14.564,12.948-26.364,27.513-27.513c18.514-1.46,33.849,13.875,32.389,32.389
						C139.599,200.589,127.799,212.388,113.235,213.537z"/>
					<path style="fill:#FAE043;" d="M467.856,175.153H455.33c-0.758-2.703-1.738-5.317-2.919-7.821l8.755-8.755
						c1.066-1.065,1.066-2.793,0-3.858l-18.39-18.39c-1.065-1.066-2.793-1.066-3.859,0l-8.082,8.082
						c-2.657-1.458-5.455-2.683-8.369-3.647v-11.425c0-1.507-1.221-2.728-2.728-2.728H393.73c-1.507,0-2.728,1.222-2.728,2.728
						v11.403c-2.887,0.946-5.653,2.152-8.284,3.579l-8.292-8.292c-1.065-1.065-2.793-1.065-3.858,0l-18.39,18.39
						c-1.066,1.066-1.066,2.793,0,3.859l8.911,8.911c-1.14,2.415-2.095,4.933-2.844,7.54h-13.057c-1.507,0-2.728,1.221-2.728,2.728
						v26.008c0,1.507,1.221,2.728,2.728,2.728h14.248c0.799,2.14,1.739,4.212,2.811,6.207l-10.369,10.369
						c-1.065,1.066-1.065,2.793,0,3.859l18.39,18.39c1.065,1.066,2.793,1.066,3.858,0l10.847-10.847
						c1.813,0.875,3.681,1.651,5.604,2.306v15.531c0,1.507,1.221,2.729,2.728,2.729h26.008c1.507,0,2.728-1.222,2.728-2.729v-15.241
						c1.985-0.631,3.92-1.374,5.789-2.235l10.786,10.786c1.066,1.066,2.793,1.066,3.858,0l18.39-18.39
						c1.065-1.065,1.065-2.793,0-3.858l-9.977-9.977c1.149-2.074,2.159-4.234,3.011-6.474h13.957c1.507,0,2.728-1.221,2.728-2.728
						v-26.008C470.584,176.374,469.363,175.153,467.856,175.153z M409.172,218.639c-18.514,1.46-33.849-13.875-32.389-32.389
						c1.148-14.564,12.948-26.365,27.513-27.513c18.514-1.46,33.849,13.875,32.389,32.389
						C435.536,205.691,423.736,217.49,409.172,218.639z"/>
				</g>
			</g>
			<g>
				<path style="fill:#29427B;" d="M408.228,424.035H58.832c-1.563,0-2.83-1.267-2.83-2.83V182.096c0-1.563,1.267-2.83,2.83-2.83
					h349.396c1.563,0,2.829,1.267,2.829,2.83v239.109C411.057,422.768,409.79,424.035,408.228,424.035z"/>
				<path style="fill:#3C5B99;" d="M287.762,207.857c10.284-8.306,18.372-18.025,25.08-28.59H58.832c-1.563,0-2.83,1.267-2.83,2.83
					v101.776c16.222-0.882,32.516-2.9,48.76-6.016C171.762,265.857,232.762,249.857,287.762,207.857z"/>
				<path style="fill:#4E6C84;" d="M385.974,388.035H81.086c-4.074,0-7.376-3.302-7.376-7.376V200.67
					c0-4.074,3.302-7.376,7.376-7.376h304.887c4.074,0,7.376,3.302,7.376,7.376v179.988
					C393.35,384.732,390.047,388.035,385.974,388.035z"/>
				<path style="fill:#39586D;" d="M73.71,349.062v31.597c0,4.074,3.302,7.376,7.376,7.376h304.888c4.074,0,7.376-3.302,7.376-7.376
					V245.121C321.762,380.086,120.231,354.908,73.71,349.062z"/>
				<g>
					<rect x="159.895" y="399.184" style="fill:#061D44;" width="136.063" height="21.165"/>
					<rect x="131.171" y="399.184" style="fill:#061D44;" width="23.622" height="21.165"/>
					<rect x="302.005" y="399.184" style="fill:#061D44;" width="23.622" height="21.165"/>
					<rect x="331.486" y="399.184" style="fill:#061D44;" width="23.622" height="21.165"/>
					<rect x="360.966" y="399.184" style="fill:#061D44;" width="23.622" height="21.165"/>
					<rect x="102.635" y="399.184" style="fill:#061D44;" width="23.622" height="21.165"/>
					<g>
						<rect x="159.895" y="399.184" style="fill:#436DAA;" width="136.063" height="6.047"/>
						<rect x="131.171" y="399.184" style="fill:#436DAA;" width="23.622" height="6.047"/>
						<rect x="302.005" y="399.184" style="fill:#436DAA;" width="23.622" height="6.047"/>
						<rect x="331.486" y="399.184" style="fill:#436DAA;" width="23.622" height="6.047"/>
						<rect x="360.966" y="399.184" style="fill:#436DAA;" width="23.622" height="6.047"/>
						<rect x="102.635" y="399.184" style="fill:#436DAA;" width="23.622" height="6.047"/>
					</g>
				</g>
				<rect x="41.931" y="412.487" style="fill:#102C66;" width="388.243" height="23.169"/>
				<path style="fill:#1B3747;" d="M393.35,202.184v-1.514c0-4.074-3.302-7.376-7.376-7.376H81.086
					c-4.074,0-7.376,3.302-7.376,7.376v1.514H393.35z"/>
				<rect x="41.931" y="412.487" style="fill:#3B69BC;" width="388.243" height="3.882"/>
			</g>
			<rect x="82.982" y="205.907" style="fill:#03E5B7;" width="117.831" height="8.183"/>
			<rect x="204.813" y="205.907" style="fill:#03E5B7;" width="51.46" height="8.183"/>
			
				<rect x="138.442" y="220.636" transform="matrix(-1 -1.224647e-16 1.224647e-16 -1 394.7155 449.4543)" style="fill:#E5F6FE;" width="117.831" height="8.183"/>
			
				<rect x="82.982" y="220.636" transform="matrix(-1 -1.224647e-16 1.224647e-16 -1 217.4237 449.4543)" style="fill:#03E5B7;" width="51.46" height="8.183"/>
			<rect x="82.982" y="235.001" style="fill:#E5F6FE;" width="90.782" height="8.183"/>
			<rect x="176.846" y="235.001" style="fill:#03E5B7;" width="39.647" height="8.183"/>
			
				<rect x="138.442" y="249.73" transform="matrix(-1 -1.224647e-16 1.224647e-16 -1 394.7155 507.6425)" style="fill:#03E5B7;" width="117.831" height="8.183"/>
			
				<rect x="82.982" y="249.73" transform="matrix(-1 -1.224647e-16 1.224647e-16 -1 217.4237 507.6425)" style="fill:#E5F6FE;" width="51.46" height="8.183"/>
			<rect x="82.982" y="291.007" style="fill:#E5F6FE;" width="117.831" height="8.183"/>
			<rect x="204.813" y="291.007" style="fill:#03E5B7;" width="51.46" height="8.183"/>
			
				<rect x="126.225" y="305.736" transform="matrix(-1 -1.224647e-16 1.224647e-16 -1 344.3252 619.6545)" style="fill:#E5F6FE;" width="91.875" height="8.183"/>
			
				<rect x="82.982" y="305.736" transform="matrix(-1 -1.224647e-16 1.224647e-16 -1 206.0879 619.6545)" style="fill:#03E5B7;" width="40.124" height="8.183"/>
			<rect x="82.982" y="320.101" style="fill:#03E5B7;" width="117.831" height="8.183"/>
			<rect x="204.813" y="320.101" style="fill:#E5F6FE;" width="51.46" height="8.183"/>
			
				<rect x="138.442" y="334.83" transform="matrix(-1 -1.224647e-16 1.224647e-16 -1 394.7155 677.8425)" style="fill:#03E5B7;" width="117.831" height="8.183"/>
			
				<rect x="82.982" y="334.83" transform="matrix(-1 -1.224647e-16 1.224647e-16 -1 217.4237 677.8425)" style="fill:#E5F6FE;" width="51.46" height="8.183"/>
			<rect x="41.931" y="442.251" style="fill:#88AFBF;" width="388.243" height="5.028"/>
			<g>
				<g>
					<rect x="317.677" y="250.302" style="fill:#FFFFFF;" width="1.777" height="5.191"/>
					<rect x="317.677" y="242.571" style="fill:#FFFFFF;" width="1.777" height="5.191"/>
					<rect x="317.677" y="234.84" style="fill:#FFFFFF;" width="1.777" height="5.191"/>
					<rect x="317.677" y="227.108" style="fill:#FFFFFF;" width="1.777" height="5.19"/>
					<rect x="317.677" y="219.377" style="fill:#FFFFFF;" width="1.777" height="5.191"/>
					<rect x="317.677" y="211.645" style="fill:#FFFFFF;" width="1.777" height="5.191"/>
					<rect x="317.677" y="203.915" style="fill:#FFFFFF;" width="1.777" height="5.19"/>
				</g>
				<g>
					<rect x="317.677" y="196.182" style="fill:#FFFFFF;" width="1.777" height="5.191"/>
					<rect x="317.677" y="188.45" style="fill:#FFFFFF;" width="1.777" height="5.191"/>
					<rect x="317.677" y="180.72" style="fill:#FFFFFF;" width="1.777" height="5.191"/>
					<rect x="317.677" y="172.988" style="fill:#FFFFFF;" width="1.777" height="5.19"/>
					<rect x="317.677" y="165.256" style="fill:#FFFFFF;" width="1.777" height="5.191"/>
					<rect x="317.677" y="157.524" style="fill:#FFFFFF;" width="1.777" height="5.191"/>
					<rect x="317.677" y="149.794" style="fill:#FFFFFF;" width="1.777" height="5.19"/>
				</g>
				<g>
					<rect x="342.231" y="122.698" style="fill:#FFFFFF;" width="6.223" height="1.777"/>
					<rect x="351.498" y="122.698" style="fill:#FFFFFF;" width="6.223" height="1.777"/>
					<rect x="360.765" y="122.698" style="fill:#FFFFFF;" width="6.223" height="1.777"/>
					<rect x="370.034" y="122.698" style="fill:#FFFFFF;" width="6.221" height="1.777"/>
					<rect x="379.3" y="122.698" style="fill:#FFFFFF;" width="6.223" height="1.777"/>
					<rect x="388.569" y="122.698" style="fill:#FFFFFF;" width="6.222" height="1.777"/>
					<rect x="397.834" y="122.698" style="fill:#FFFFFF;" width="6.221" height="1.777"/>
				</g>
				<g>
					<rect x="429.88" y="147.253" style="fill:#FFFFFF;" width="1.777" height="5.191"/>
					<rect x="429.88" y="154.984" style="fill:#FFFFFF;" width="1.777" height="5.191"/>
					<rect x="429.88" y="162.715" style="fill:#FFFFFF;" width="1.777" height="5.191"/>
					<rect x="429.88" y="170.448" style="fill:#FFFFFF;" width="1.777" height="5.19"/>
					<rect x="429.88" y="178.178" style="fill:#FFFFFF;" width="1.777" height="5.191"/>
					<rect x="429.88" y="185.911" style="fill:#FFFFFF;" width="1.777" height="5.191"/>
					<rect x="429.88" y="193.641" style="fill:#FFFFFF;" width="1.777" height="5.19"/>
				</g>
				<g>
					<rect x="429.88" y="201.373" style="fill:#FFFFFF;" width="1.777" height="5.191"/>
					<rect x="429.88" y="209.105" style="fill:#FFFFFF;" width="1.777" height="5.191"/>
					<rect x="429.88" y="216.835" style="fill:#FFFFFF;" width="1.777" height="5.191"/>
					<rect x="429.88" y="224.568" style="fill:#FFFFFF;" width="1.777" height="5.19"/>
					<rect x="429.88" y="232.298" style="fill:#FFFFFF;" width="1.777" height="5.191"/>
					<rect x="429.88" y="240.031" style="fill:#FFFFFF;" width="1.777" height="5.191"/>
					<rect x="429.88" y="247.762" style="fill:#FFFFFF;" width="1.777" height="5.19"/>
				</g>
				<g>
					<rect x="400.88" y="278.272" style="fill:#FFFFFF;" width="6.223" height="1.777"/>
					<rect x="391.613" y="278.272" style="fill:#FFFFFF;" width="6.223" height="1.777"/>
					<rect x="382.346" y="278.272" style="fill:#FFFFFF;" width="6.223" height="1.777"/>
					<rect x="373.078" y="278.272" style="fill:#FFFFFF;" width="6.221" height="1.777"/>
					<rect x="363.811" y="278.272" style="fill:#FFFFFF;" width="6.223" height="1.777"/>
					<rect x="354.543" y="278.272" style="fill:#FFFFFF;" width="6.222" height="1.777"/>
					<rect x="345.278" y="278.272" style="fill:#FFFFFF;" width="6.221" height="1.777"/>
				</g>
				<g>
					<g>
						<rect x="317.669" y="143.007" style="fill:#FFFFFF;" width="1.776" height="4.545"/>
						<rect x="317.669" y="136.237" style="fill:#FFFFFF;" width="1.776" height="4.544"/>
						<rect x="317.669" y="129.47" style="fill:#FFFFFF;" width="1.776" height="4.545"/>
						<rect x="317.669" y="122.701" style="fill:#FFFFFF;" width="1.776" height="4.544"/>
					</g>
					<g>
						<rect x="321.925" y="122.698" style="fill:#FFFFFF;" width="4.545" height="1.778"/>
						<rect x="335.462" y="122.698" style="fill:#FFFFFF;" width="4.544" height="1.778"/>
					</g>
					<g>
						<rect x="328.444" y="122.698" style="fill:#FFFFFF;" width="4.545" height="1.778"/>
					</g>
				</g>
				<g>
					<g>
						<rect x="406.803" y="122.69" style="fill:#FFFFFF;" width="4.545" height="1.776"/>
						<rect x="413.573" y="122.69" style="fill:#FFFFFF;" width="4.544" height="1.776"/>
						<rect x="420.34" y="122.69" style="fill:#FFFFFF;" width="4.545" height="1.776"/>
						<rect x="427.11" y="122.69" style="fill:#FFFFFF;" width="4.544" height="1.776"/>
					</g>
					<g>
						<rect x="429.879" y="126.946" style="fill:#FFFFFF;" width="1.778" height="4.545"/>
						<rect x="429.879" y="133.655" style="fill:#FFFFFF;" width="1.778" height="4.545"/>
						<rect x="429.879" y="140.484" style="fill:#FFFFFF;" width="1.778" height="4.544"/>
					</g>
				</g>
				<g>
					<g>
						<rect x="429.889" y="255.195" style="fill:#FFFFFF;" width="1.776" height="4.545"/>
						<rect x="429.889" y="261.964" style="fill:#FFFFFF;" width="1.776" height="4.545"/>
						<rect x="429.889" y="268.732" style="fill:#FFFFFF;" width="1.776" height="4.545"/>
						<rect x="429.889" y="275.501" style="fill:#FFFFFF;" width="1.776" height="4.544"/>
					</g>
					<g>
						<rect x="422.864" y="278.271" style="fill:#FFFFFF;" width="4.545" height="1.778"/>
						<rect x="416.167" y="278.271" style="fill:#FFFFFF;" width="4.545" height="1.778"/>
						<rect x="409.327" y="278.271" style="fill:#FFFFFF;" width="4.544" height="1.778"/>
					</g>
				</g>
				<g>
					<g>
						<rect x="337.986" y="278.28" style="fill:#FFFFFF;" width="4.545" height="1.776"/>
						<rect x="331.216" y="278.28" style="fill:#FFFFFF;" width="4.544" height="1.776"/>
						<rect x="324.449" y="278.28" style="fill:#FFFFFF;" width="4.545" height="1.776"/>
						<rect x="317.68" y="278.28" style="fill:#FFFFFF;" width="4.544" height="1.776"/>
					</g>
					<g>
						<rect x="317.677" y="271.255" style="fill:#FFFFFF;" width="1.778" height="4.545"/>
						<rect x="317.677" y="257.719" style="fill:#FFFFFF;" width="1.778" height="4.544"/>
					</g>
					<path style="fill:#FFFFFF;" d="M317.677,266.367v-1.88h1.778v4.544h-1.778v-0.825l-2.935,1.128l-1.038,3.425
						c-0.009,0.027-0.018,0.053-0.026,0.077l-0.018,0.069l-0.01,0.061l-0.003,0.054l0.005,0.048l0.012,0.042l0.009,0.019l0.01,0.018
						l0.025,0.032l0.031,0.028l0.037,0.025l0.043,0.022l0.049,0.019c0.035,0.01,0.073,0.021,0.113,0.033
						c0.041,0.009,0.085,0.019,0.132,0.03l0.144,0.034l0.138,0.039l0.131,0.044l0.125,0.048l0.118,0.053l0.111,0.057l0.105,0.061
						l0.099,0.065l0.093,0.069l0.086,0.073l0.08,0.076l0.074,0.079l0.068,0.082l0.062,0.085l0.056,0.087l0.051,0.089l0.045,0.091
						l0.039,0.093l0.033,0.095l0.028,0.096l0.022,0.098l0.017,0.099l0.012,0.099l0.006,0.1l0.001,0.1l-0.004,0.101l-0.009,0.101
						l-0.014,0.101l-0.019,0.1l-0.024,0.1l-0.029,0.099l-0.034,0.098l-0.042,0.103l-0.047,0.101l-0.052,0.098l-0.057,0.095
						l-0.062,0.093l-0.066,0.09l-0.07,0.086l-0.075,0.083l-0.078,0.08l-0.082,0.076l-0.085,0.073l-0.089,0.069l-0.092,0.065
						l-0.094,0.061l-0.097,0.056l-0.099,0.052l-0.101,0.048l-0.103,0.043l-0.105,0.038l-0.106,0.033l-0.107,0.028l-0.109,0.023
						l-0.109,0.018l-0.11,0.012l-0.11,0.007l-0.11,0.001l-0.111-0.005l-0.11-0.011l-0.11-0.017l-0.109-0.023l-0.108-0.03
						l-0.107-0.036l-0.097-0.039l-0.092-0.043l-0.088-0.047l-0.083-0.05l-0.079-0.053l-0.074-0.057l-0.07-0.06l-0.065-0.063
						l-0.061-0.065l-0.056-0.068l-0.052-0.07l-0.048-0.073l-0.044-0.075l-0.039-0.077l-0.035-0.079l-0.031-0.081l-0.027-0.083
						l-0.023-0.084l-0.019-0.086l-0.014-0.087l-0.017-0.177l-0.001-0.181l0.015-0.183l0.031-0.185l0.046-0.185l0.061-0.184
						l0.058-0.142l0.066-0.139l0.073-0.138l0.079-0.136l0.172-0.269l0.181-0.267l0.181-0.266l0.172-0.269l0.079-0.136l0.073-0.138
						l0.066-0.14l0.058-0.142l0.056-0.169l0.044-0.176l0.033-0.182l0.022-0.187l0.012-0.191l0.002-0.193l-0.008-0.195l-0.017-0.195
						l-0.025-0.194l-0.033-0.193l-0.041-0.19l-0.049-0.186l-0.055-0.181l-0.062-0.174l-0.068-0.167l-0.074-0.159l-0.188,0.02
						l-0.187,0.034l-0.185,0.046l-0.183,0.057l-0.18,0.066l-0.177,0.074l-0.173,0.081l-0.169,0.086
						c-0.127,0.072-0.248,0.14-0.362,0.205c-0.111,0.072-0.216,0.14-0.319,0.206l-0.146,0.105l-0.138,0.107l-0.131,0.111
						l-0.126,0.115l-0.121,0.12l-0.118,0.125c-0.075,0.088-0.151,0.177-0.23,0.27c-0.074,0.097-0.15,0.197-0.229,0.302
						c-0.075,0.108-0.154,0.22-0.237,0.339c-0.135,0.196-0.274,0.398-0.413,0.6l-0.108,0.149l-0.113,0.145l-0.119,0.139
						l-0.127,0.131l-0.121,0.111l-0.126,0.105l-0.131,0.097l-0.135,0.089l-0.139,0.081l-0.143,0.071l-0.146,0.062l-0.15,0.051
						l-0.152,0.04l-0.155,0.029l-0.157,0.017l-0.158,0.004l-0.16-0.009l-0.16-0.023l-0.161-0.037l-0.161-0.053l-0.088-0.036
						l-0.085-0.039l-0.081-0.043l-0.077-0.046l-0.074-0.049l-0.07-0.052l-0.067-0.055l-0.063-0.058l-0.059-0.061l-0.056-0.063
						l-0.052-0.066l-0.048-0.068l-0.045-0.07l-0.041-0.072l-0.037-0.074l-0.033-0.076l-0.029-0.078l-0.026-0.079l-0.04-0.163
						l-0.024-0.167l-0.008-0.17l0.008-0.173l0.024-0.174l0.04-0.174l0.056-0.173l0.041-0.102l0.047-0.1l0.052-0.098l0.057-0.095
						l0.062-0.092l0.067-0.09l0.071-0.087l0.076-0.084l0.08-0.081l0.083-0.077l0.087-0.074l0.09-0.07l0.093-0.066l0.096-0.062
						l0.099-0.058l0.101-0.054l0.103-0.049l0.105-0.045l0.107-0.04l0.108-0.035l0.109-0.03l0.11-0.025l0.111-0.02l0.111-0.014
						l0.112-0.008l0.112-0.002l0.112,0.004l0.111,0.01l0.11,0.016l0.109,0.023l0.108,0.029l0.107,0.036l0.11,0.046l0.102,0.052
						l0.095,0.056l0.089,0.06l0.082,0.063l0.076,0.064c0.048,0.045,0.093,0.088,0.136,0.129c0.083,0.086,0.156,0.163,0.218,0.228
						c0.033,0.03,0.062,0.057,0.088,0.081l0.04,0.029l0.038,0.019l0.036,0.01l0.037,0.004l0.039-0.002l0.04-0.007l0.041-0.012
						l0.042-0.017l0.043-0.021l0.044-0.026l0.09-0.062l0.091-0.074l0.091-0.084l0.09-0.091l0.173-0.191
						c0.054-0.065,0.107-0.128,0.155-0.186c0.096-0.118,0.176-0.217,0.222-0.273l0.11-0.122l0.12-0.119l0.13-0.116l0.138-0.112
						l0.145-0.109l0.151-0.106l0.317-0.203l0.329-0.19l0.333-0.177c0.223-0.11,0.44-0.216,0.643-0.316l1.954-6.294l0.102-0.258
						l0.112-0.252l0.122-0.247l0.131-0.241l0.14-0.235l0.149-0.229l0.157-0.223l0.166-0.217l0.174-0.21l0.182-0.204l0.189-0.197
						l0.197-0.19l0.203-0.183l0.21-0.176l0.217-0.169l0.223-0.162l-2.001,8.507L317.677,266.367z M307.637,270.911l-0.072-0.024
						l-0.074-0.019l-0.075-0.014l-0.076-0.009l-0.077-0.004l-0.077,0.001l-0.078,0.005l-0.078,0.009l-0.157,0.031l-0.155,0.047
						l-0.153,0.061l-0.148,0.074l-0.143,0.086l-0.136,0.096l-0.127,0.106l-0.116,0.114l-0.105,0.121l-0.091,0.127l-0.076,0.131
						l-0.032,0.067l-0.028,0.068l-0.044,0.134l-0.031,0.131l-0.017,0.127l-0.004,0.123l0.008,0.119l0.021,0.114l0.033,0.109
						l0.045,0.104l0.057,0.099l0.068,0.093l0.079,0.087l0.09,0.082l0.101,0.075l0.111,0.069l0.121,0.062l0.131,0.055l0.074,0.024
						l0.075,0.018l0.077,0.012l0.077,0.006l0.078,0l0.078-0.006l0.079-0.011l0.079-0.016l0.079-0.021l0.079-0.025l0.156-0.064
						l0.153-0.079l0.149-0.093l0.143-0.105l0.135-0.115l0.126-0.123l0.116-0.13l0.104-0.134l0.09-0.137l0.076-0.138l0.059-0.137
						l0.02-0.058l0.016-0.058l0.012-0.057l0.009-0.057l0.005-0.056l0.002-0.055l-0.002-0.055l-0.005-0.054l-0.019-0.105
						l-0.031-0.101l-0.042-0.097l-0.052-0.093l-0.062-0.088l-0.07-0.083l-0.078-0.077l-0.085-0.071l-0.091-0.065l-0.097-0.058
						l-0.101-0.051L307.637,270.911z M312.389,275.144l-0.04,0.122l-0.029,0.124l-0.018,0.124l-0.007,0.124l0.004,0.123l0.015,0.121
						l0.025,0.118l0.036,0.115l0.047,0.11l0.057,0.105l0.068,0.098l0.078,0.091l0.089,0.083l0.099,0.073l0.053,0.033l0.056,0.03
						l0.059,0.028l0.061,0.025l0.079,0.027l0.08,0.022l0.081,0.017l0.081,0.012l0.081,0.008l0.081,0.003l0.081-0.002l0.081-0.006
						l0.081-0.01l0.08-0.014l0.158-0.04l0.155-0.055l0.15-0.069l0.143-0.082l0.135-0.094l0.127-0.105l0.117-0.116l0.105-0.125
						l0.093-0.134l0.079-0.141l0.034-0.073l0.03-0.075l0.041-0.126l0.029-0.127l0.017-0.128l0.005-0.128l-0.007-0.127l-0.018-0.125
						l-0.03-0.122l-0.041-0.118l-0.052-0.113l-0.063-0.108l-0.074-0.101l-0.085-0.094l-0.096-0.085l-0.106-0.076l-0.117-0.066
						l-0.127-0.055l-0.086-0.03l-0.085-0.024l-0.084-0.019l-0.084-0.014l-0.083-0.009l-0.082-0.004l-0.081,0.001l-0.08,0.005
						l-0.079,0.01l-0.077,0.014l-0.076,0.018l-0.075,0.022l-0.073,0.027l-0.072,0.03l-0.07,0.034l-0.068,0.038l-0.132,0.086
						l-0.124,0.099l-0.116,0.111l-0.107,0.123l-0.098,0.133l-0.088,0.142l-0.077,0.151L312.389,275.144z"/>
				</g>
			</g>
			<g>
				<g>
					<rect x="303.22" y="246.424" style="fill:#FFFFFF;" width="1.777" height="3.968"/>
					<rect x="303.22" y="240.514" style="fill:#FFFFFF;" width="1.777" height="3.968"/>
					<rect x="303.22" y="234.606" style="fill:#FFFFFF;" width="1.777" height="3.968"/>
					<rect x="303.22" y="228.696" style="fill:#FFFFFF;" width="1.777" height="3.967"/>
					<rect x="303.22" y="222.787" style="fill:#FFFFFF;" width="1.777" height="3.968"/>
					<rect x="303.22" y="216.877" style="fill:#FFFFFF;" width="1.777" height="3.967"/>
					<rect x="303.22" y="210.969" style="fill:#FFFFFF;" width="1.777" height="3.967"/>
				</g>
				<g>
					<rect x="303.22" y="205.059" style="fill:#FFFFFF;" width="1.777" height="3.968"/>
					<rect x="303.22" y="199.15" style="fill:#FFFFFF;" width="1.777" height="3.968"/>
					<rect x="303.22" y="193.241" style="fill:#FFFFFF;" width="1.777" height="3.968"/>
					<rect x="303.22" y="187.332" style="fill:#FFFFFF;" width="1.777" height="3.967"/>
					<rect x="303.22" y="181.423" style="fill:#FFFFFF;" width="1.777" height="3.968"/>
					<rect x="303.22" y="175.512" style="fill:#FFFFFF;" width="1.777" height="3.967"/>
					<rect x="303.22" y="169.605" style="fill:#FFFFFF;" width="1.777" height="3.967"/>
				</g>
				<g>
					<rect x="276.18" y="143.059" style="fill:#FFFFFF;" width="4.214" height="1.777"/>
					<rect x="269.905" y="143.059" style="fill:#FFFFFF;" width="4.214" height="1.777"/>
					<rect x="263.63" y="143.059" style="fill:#FFFFFF;" width="4.214" height="1.777"/>
					<rect x="257.354" y="143.059" style="fill:#FFFFFF;" width="4.213" height="1.777"/>
					<rect x="251.078" y="143.059" style="fill:#FFFFFF;" width="4.214" height="1.777"/>
					<rect x="244.802" y="143.059" style="fill:#FFFFFF;" width="4.213" height="1.777"/>
					<rect x="238.528" y="143.059" style="fill:#FFFFFF;" width="4.213" height="1.777"/>
				</g>
				<g>
					<rect x="232.251" y="143.059" style="fill:#FFFFFF;" width="4.214" height="1.777"/>
					<rect x="225.976" y="143.059" style="fill:#FFFFFF;" width="4.214" height="1.777"/>
					<rect x="219.701" y="143.059" style="fill:#FFFFFF;" width="4.214" height="1.777"/>
					<rect x="213.425" y="143.059" style="fill:#FFFFFF;" width="4.213" height="1.777"/>
					<rect x="207.15" y="143.059" style="fill:#FFFFFF;" width="4.214" height="1.777"/>
					<rect x="200.874" y="143.059" style="fill:#FFFFFF;" width="4.213" height="1.777"/>
					<rect x="194.6" y="143.059" style="fill:#FFFFFF;" width="4.213" height="1.777"/>
				</g>
				<g>
					<rect x="188.323" y="143.059" style="fill:#FFFFFF;" width="4.214" height="1.777"/>
					<rect x="182.047" y="143.059" style="fill:#FFFFFF;" width="4.214" height="1.777"/>
					<rect x="175.773" y="143.059" style="fill:#FFFFFF;" width="4.214" height="1.777"/>
					<rect x="169.497" y="143.059" style="fill:#FFFFFF;" width="4.213" height="1.777"/>
					<rect x="163.221" y="143.059" style="fill:#FFFFFF;" width="4.214" height="1.777"/>
					<rect x="156.945" y="143.059" style="fill:#FFFFFF;" width="4.213" height="1.777"/>
					<rect x="150.671" y="143.059" style="fill:#FFFFFF;" width="4.213" height="1.777"/>
				</g>
				<g>
					<rect x="144.394" y="143.059" style="fill:#FFFFFF;" width="4.214" height="1.777"/>
					<rect x="138.119" y="143.059" style="fill:#FFFFFF;" width="4.214" height="1.777"/>
					<rect x="131.844" y="143.059" style="fill:#FFFFFF;" width="4.214" height="1.777"/>
					<rect x="125.568" y="143.059" style="fill:#FFFFFF;" width="4.213" height="1.777"/>
					<rect x="119.293" y="143.059" style="fill:#FFFFFF;" width="4.214" height="1.777"/>
					<rect x="113.016" y="143.059" style="fill:#FFFFFF;" width="4.213" height="1.777"/>
					<rect x="106.742" y="143.059" style="fill:#FFFFFF;" width="4.213" height="1.777"/>
				</g>
				<g>
					<rect x="100.466" y="143.059" style="fill:#FFFFFF;" width="4.214" height="1.777"/>
					<rect x="94.19" y="143.059" style="fill:#FFFFFF;" width="4.214" height="1.777"/>
					<rect x="87.915" y="143.059" style="fill:#FFFFFF;" width="4.214" height="1.777"/>
					<rect x="81.64" y="143.059" style="fill:#FFFFFF;" width="4.213" height="1.777"/>
					<rect x="75.364" y="143.059" style="fill:#FFFFFF;" width="4.214" height="1.777"/>
					<rect x="69.088" y="143.059" style="fill:#FFFFFF;" width="4.213" height="1.777"/>
					<rect x="62.814" y="143.059" style="fill:#FFFFFF;" width="4.213" height="1.777"/>
				</g>
				<g>
					<rect x="36.148" y="167.662" style="fill:#FFFFFF;" width="1.777" height="3.968"/>
					<rect x="36.148" y="173.571" style="fill:#FFFFFF;" width="1.777" height="3.968"/>
					<rect x="36.148" y="179.48" style="fill:#FFFFFF;" width="1.777" height="3.968"/>
					<rect x="36.148" y="185.39" style="fill:#FFFFFF;" width="1.777" height="3.967"/>
					<rect x="36.148" y="191.298" style="fill:#FFFFFF;" width="1.777" height="3.968"/>
					<rect x="36.148" y="197.209" style="fill:#FFFFFF;" width="1.777" height="3.967"/>
					<rect x="36.148" y="203.117" style="fill:#FFFFFF;" width="1.777" height="3.967"/>
				</g>
				<g>
					<rect x="36.148" y="209.027" style="fill:#FFFFFF;" width="1.777" height="3.968"/>
					<rect x="36.148" y="214.936" style="fill:#FFFFFF;" width="1.777" height="3.968"/>
					<rect x="36.148" y="220.844" style="fill:#FFFFFF;" width="1.777" height="3.968"/>
					<rect x="36.148" y="226.755" style="fill:#FFFFFF;" width="1.777" height="3.967"/>
					<rect x="36.148" y="232.663" style="fill:#FFFFFF;" width="1.777" height="3.968"/>
					<rect x="36.148" y="238.574" style="fill:#FFFFFF;" width="1.777" height="3.967"/>
					<rect x="36.148" y="244.482" style="fill:#FFFFFF;" width="1.777" height="3.967"/>
				</g>
				<g>
					<rect x="60.751" y="273.218" style="fill:#FFFFFF;" width="4.214" height="1.777"/>
					<rect x="67.026" y="273.218" style="fill:#FFFFFF;" width="4.214" height="1.777"/>
					<rect x="73.301" y="273.218" style="fill:#FFFFFF;" width="4.214" height="1.777"/>
					<rect x="79.578" y="273.218" style="fill:#FFFFFF;" width="4.213" height="1.777"/>
					<rect x="85.852" y="273.218" style="fill:#FFFFFF;" width="4.214" height="1.777"/>
					<rect x="92.129" y="273.218" style="fill:#FFFFFF;" width="4.213" height="1.777"/>
					<rect x="98.404" y="273.218" style="fill:#FFFFFF;" width="4.213" height="1.777"/>
				</g>
				<g>
					<rect x="104.68" y="273.218" style="fill:#FFFFFF;" width="4.214" height="1.777"/>
					<rect x="110.955" y="273.218" style="fill:#FFFFFF;" width="4.214" height="1.777"/>
					<rect x="117.23" y="273.218" style="fill:#FFFFFF;" width="4.214" height="1.777"/>
					<rect x="123.506" y="273.218" style="fill:#FFFFFF;" width="4.213" height="1.777"/>
					<rect x="129.781" y="273.218" style="fill:#FFFFFF;" width="4.214" height="1.777"/>
					<rect x="136.058" y="273.218" style="fill:#FFFFFF;" width="4.213" height="1.777"/>
					<rect x="142.332" y="273.218" style="fill:#FFFFFF;" width="4.213" height="1.777"/>
				</g>
				<g>
					<rect x="148.608" y="273.218" style="fill:#FFFFFF;" width="4.214" height="1.777"/>
					<rect x="154.883" y="273.218" style="fill:#FFFFFF;" width="4.214" height="1.777"/>
					<rect x="161.158" y="273.218" style="fill:#FFFFFF;" width="4.214" height="1.777"/>
					<rect x="167.435" y="273.218" style="fill:#FFFFFF;" width="4.213" height="1.777"/>
					<rect x="173.709" y="273.218" style="fill:#FFFFFF;" width="4.214" height="1.777"/>
					<rect x="179.986" y="273.218" style="fill:#FFFFFF;" width="4.213" height="1.777"/>
					<rect x="186.261" y="273.218" style="fill:#FFFFFF;" width="4.213" height="1.777"/>
				</g>
				<g>
					<rect x="192.537" y="273.218" style="fill:#FFFFFF;" width="4.214" height="1.777"/>
					<rect x="198.812" y="273.218" style="fill:#FFFFFF;" width="4.214" height="1.777"/>
					<rect x="205.087" y="273.218" style="fill:#FFFFFF;" width="4.214" height="1.777"/>
					<rect x="211.364" y="273.218" style="fill:#FFFFFF;" width="4.213" height="1.777"/>
					<rect x="217.638" y="273.218" style="fill:#FFFFFF;" width="4.214" height="1.777"/>
					<rect x="223.915" y="273.218" style="fill:#FFFFFF;" width="4.213" height="1.777"/>
					<rect x="230.189" y="273.218" style="fill:#FFFFFF;" width="4.213" height="1.777"/>
				</g>
				<g>
					<rect x="236.465" y="273.218" style="fill:#FFFFFF;" width="4.214" height="1.777"/>
					<rect x="242.741" y="273.218" style="fill:#FFFFFF;" width="4.214" height="1.777"/>
					<rect x="249.015" y="273.218" style="fill:#FFFFFF;" width="4.214" height="1.777"/>
					<rect x="255.292" y="273.218" style="fill:#FFFFFF;" width="4.213" height="1.777"/>
					<rect x="261.567" y="273.218" style="fill:#FFFFFF;" width="4.214" height="1.777"/>
					<rect x="267.843" y="273.218" style="fill:#FFFFFF;" width="4.213" height="1.777"/>
					<rect x="274.118" y="273.218" style="fill:#FFFFFF;" width="4.213" height="1.777"/>
				</g>
				<g>
					<g>
						<rect x="303.18" y="163.417" style="fill:#FFFFFF;" width="1.776" height="4.545"/>
						<rect x="303.18" y="156.647" style="fill:#FFFFFF;" width="1.776" height="4.545"/>
						<rect x="303.18" y="149.879" style="fill:#FFFFFF;" width="1.776" height="4.545"/>
						<rect x="303.18" y="143.111" style="fill:#FFFFFF;" width="1.776" height="4.544"/>
					</g>
					<g>
						<rect x="296.155" y="143.107" style="fill:#FFFFFF;" width="4.545" height="1.778"/>
						<rect x="282.619" y="143.107" style="fill:#FFFFFF;" width="4.544" height="1.778"/>
						<rect x="289.599" y="143.107" style="fill:#FFFFFF;" width="4.544" height="1.778"/>
					</g>
				</g>
				<g>
					<g>
						<rect x="56.505" y="143.1" style="fill:#FFFFFF;" width="4.545" height="1.776"/>
						<rect x="49.736" y="143.1" style="fill:#FFFFFF;" width="4.544" height="1.776"/>
						<rect x="42.968" y="143.1" style="fill:#FFFFFF;" width="4.545" height="1.776"/>
						<rect x="36.2" y="143.1" style="fill:#FFFFFF;" width="4.544" height="1.776"/>
					</g>
					<g>
						<rect x="36.196" y="147.355" style="fill:#FFFFFF;" width="1.778" height="4.545"/>
						<rect x="36.196" y="153.969" style="fill:#FFFFFF;" width="1.778" height="4.545"/>
						<rect x="36.196" y="160.893" style="fill:#FFFFFF;" width="1.778" height="4.544"/>
					</g>
				</g>
				<g>
					<g>
						<rect x="36.188" y="250.092" style="fill:#FFFFFF;" width="1.776" height="4.545"/>
						<rect x="36.188" y="256.862" style="fill:#FFFFFF;" width="1.776" height="4.544"/>
						<rect x="36.188" y="263.629" style="fill:#FFFFFF;" width="1.776" height="4.545"/>
						<rect x="36.188" y="270.399" style="fill:#FFFFFF;" width="1.776" height="4.544"/>
					</g>
					<g>
						<rect x="40.444" y="273.168" style="fill:#FFFFFF;" width="4.545" height="1.778"/>
						<rect x="47.247" y="273.168" style="fill:#FFFFFF;" width="4.545" height="1.778"/>
						<rect x="53.982" y="273.168" style="fill:#FFFFFF;" width="4.544" height="1.778"/>
					</g>
				</g>
				<g>
					<g>
						<rect x="280.094" y="273.178" style="fill:#FFFFFF;" width="4.545" height="1.776"/>
						<rect x="286.864" y="273.178" style="fill:#FFFFFF;" width="4.544" height="1.776"/>
						<rect x="293.632" y="273.178" style="fill:#FFFFFF;" width="4.545" height="1.776"/>
						<rect x="300.401" y="273.178" style="fill:#FFFFFF;" width="4.544" height="1.776"/>
					</g>
					<g>
						<rect x="303.171" y="266.153" style="fill:#FFFFFF;" width="1.778" height="4.545"/>
						<rect x="303.171" y="252.617" style="fill:#FFFFFF;" width="1.778" height="4.544"/>
						<rect x="303.171" y="259.136" style="fill:#FFFFFF;" width="1.778" height="4.544"/>
					</g>
				</g>
			</g>
			<g>
				<path style="fill:#01183A;" d="M370.954,370.571h-86.739c-7.907,0-14.316-6.41-14.316-14.316V165.091
					c0-7.907,6.41-14.316,14.316-14.316h86.739c7.907,0,14.316,6.41,14.316,14.316v191.163
					C385.27,364.161,378.86,370.571,370.954,370.571z"/>
				<path style="fill:#FFFFFF;" d="M365.186,353.447h-75.203c-6.942,0-12.57-5.628-12.57-12.569V171.204
					c0-6.942,5.628-12.57,12.57-12.57h75.203c6.942,0,12.57,5.628,12.57,12.57v169.674
					C377.755,347.82,372.128,353.447,365.186,353.447z"/>
				<path style="fill:#BCBCBC;" d="M377.755,171.373v-0.169c0-6.942-5.628-12.57-12.569-12.57h-75.203
					c-6.942,0-12.57,5.628-12.57,12.57v0.169H377.755z"/>
				<path style="fill:#EDEDED;" d="M349.762,256.857c-20.035,20.035-45.646,27.058-72.35,28.144v55.877
					c0,6.942,5.628,12.57,12.57,12.57h75.203c6.942,0,12.569-5.628,12.569-12.57V225.251
					C370.167,236.92,360.154,247.077,349.762,256.857z"/>
				<path style="fill:#01183A;" d="M309.619,162.939h35.931c2.274,0,4.117-1.843,4.117-4.117l0,0c0-2.274-1.843-4.117-4.117-4.117
					h-35.931c-2.274,0-4.117,1.843-4.117,4.117l0,0C305.501,161.096,307.345,162.939,309.619,162.939z"/>
				<circle style="fill:#162D49;" cx="327.584" cy="360.751" r="6.449"/>
				<g>
					<path style="fill:#03E5B7;" d="M330.031,218.771c-18.546-0.94-33.781,14.295-32.842,32.842
						c0.805,15.88,13.708,28.784,29.588,29.589c18.546,0.94,33.781-14.295,32.842-32.842
						C358.815,232.48,345.912,219.576,330.031,218.771z M329.915,268.54c-11.469,0.904-20.969-8.595-20.064-20.064
						c0.711-9.022,8.021-16.332,17.043-17.043c11.469-0.904,20.968,8.595,20.064,20.064
						C346.247,260.519,338.937,267.829,329.915,268.54z"/>
					<path style="fill:#03E5B7;" d="M336.46,226.105h-16.111c-0.933,0-1.69-0.757-1.69-1.69v-11.194c0-0.933,0.757-1.69,1.69-1.69
						h16.111c0.933,0,1.69,0.757,1.69,1.69v11.194C338.15,225.349,337.394,226.105,336.46,226.105z"/>
					<path style="fill:#03E5B7;" d="M351.818,239.249l-11.392-11.392c-0.66-0.66-0.66-1.73,0-2.39l7.916-7.916
						c0.66-0.66,1.73-0.66,2.39,0l11.392,11.392c0.66,0.66,0.66,1.73,0,2.39l-7.916,7.916
						C353.548,239.909,352.478,239.909,351.818,239.249z"/>
					<path style="fill:#03E5B7;" d="M353.384,259.403v-16.111c0-0.934,0.757-1.69,1.69-1.69h11.194c0.933,0,1.69,0.757,1.69,1.69
						v16.111c0,0.934-0.757,1.69-1.69,1.69h-11.194C354.14,261.093,353.384,260.336,353.384,259.403z"/>
					<path style="fill:#03E5B7;" d="M340.24,274.761l11.392-11.392c0.66-0.66,1.73-0.66,2.39,0l7.916,7.916
						c0.66,0.66,0.66,1.73,0,2.39l-11.392,11.392c-0.66,0.66-1.73,0.66-2.39,0l-7.916-7.916
						C339.58,276.491,339.58,275.421,340.24,274.761z"/>
					<path style="fill:#03E5B7;" d="M320.086,276.326h16.111c0.933,0,1.69,0.757,1.69,1.69v11.194c0,0.933-0.757,1.69-1.69,1.69
						h-16.111c-0.933,0-1.69-0.757-1.69-1.69v-11.194C318.396,277.083,319.152,276.326,320.086,276.326z"/>
					<path style="fill:#03E5B7;" d="M304.728,263.182l11.392,11.392c0.66,0.66,0.66,1.73,0,2.39l-7.916,7.915
						c-0.66,0.66-1.73,0.66-2.39,0l-11.392-11.392c-0.66-0.66-0.66-1.73,0-2.39l7.916-7.916
						C302.998,262.522,304.068,262.522,304.728,263.182z"/>
					<path style="fill:#03E5B7;" d="M303.163,243.029v16.111c0,0.934-0.757,1.69-1.69,1.69h-11.194c-0.933,0-1.69-0.757-1.69-1.69
						v-16.111c0-0.934,0.757-1.69,1.69-1.69h11.194C302.406,241.338,303.163,242.095,303.163,243.029z"/>
					<path style="fill:#03E5B7;" d="M316.307,227.671l-11.392,11.392c-0.66,0.66-1.73,0.66-2.39,0l-7.916-7.916
						c-0.66-0.66-0.66-1.73,0-2.39l11.392-11.392c0.66-0.66,1.73-0.66,2.39,0l7.916,7.916
						C316.967,225.941,316.967,227.011,316.307,227.671z"/>
				</g>
			</g>
			<path style="fill:#FAE043;" d="M293.596,133.105h-57.827c-5.01,0-9.071-4.061-9.071-9.071v-15.874
				c0-5.01,4.061-9.071,9.071-9.071h57.827c5.01,0,9.071,4.061,9.071,9.071v15.874C302.667,129.044,298.606,133.105,293.596,133.105
				z"/>
			<path style="fill:#03E5B7;" d="M249.659,189.609h-57.827c-5.01,0-9.071-4.061-9.071-9.071v-15.874
				c0-5.01,4.061-9.071,9.071-9.071h57.827c5.01,0,9.071,4.061,9.071,9.071v15.874C258.73,185.548,254.669,189.609,249.659,189.609z
				"/>
			<path style="fill:#03E5B7;" d="M457.722,323.121h-57.827c-5.01,0-9.071-4.061-9.071-9.071v-15.874
				c0-5.01,4.061-9.071,9.071-9.071h57.827c5.01,0,9.071,4.061,9.071,9.071v15.874C466.793,319.06,462.732,323.121,457.722,323.121z
				"/>
			<path style="fill:#FAE043;" d="M457.627,387.657h-57.827c-5.01,0-9.071-4.061-9.071-9.071v-15.874
				c0-5.01,4.061-9.071,9.071-9.071h57.827c5.01,0,9.071,4.061,9.071,9.071v15.874C466.698,383.595,462.637,387.657,457.627,387.657
				z"/>
			<g>
				<text transform="matrix(1 0 0 1 241.7179 121.4418)" style="fill:#FEFEFE; font-family:'Poppins'; font-size:20.1122px;">JAVA</text>
			</g>
			<g>
				<text transform="matrix(1 0 0 1 414.4806 312.4969)" style="fill:#FEFEFE; font-family:'Poppins'; font-size:20.1122px;">php</text>
			</g>
			<g>
				<text transform="matrix(1 0 0 1 409.0983 378.2607)" style="fill:#FEFEFE; font-family:'Poppins'; font-size:20.1122px;">c++</text>
			</g>
			<g>
				<text transform="matrix(1 0 0 1 195.8861 178.1348)" style="fill:#FEFEFE; font-family:'Poppins'; font-size:20.1122px;">html</text>
			</g>
			<path style="fill:#BCBCBC;" d="M330.833,347.393c0,1.2-0.973,2.173-2.173,2.173c-1.2,0-2.173-0.973-2.173-2.173
				c0-1.2,0.973-2.173,2.173-2.173C329.86,345.219,330.833,346.192,330.833,347.393z"/>
			<path style="fill:#BCBCBC;" d="M298.707,347.393c0,1.2-0.973,2.173-2.173,2.173c-1.2,0-2.173-0.973-2.173-2.173
				c0-1.2,0.973-2.173,2.173-2.173C297.734,345.219,298.707,346.192,298.707,347.393z"/>
			<path style="fill:#BCBCBC;" d="M359.274,347.393c0,1.2-0.973,2.173-2.173,2.173c-1.2,0-2.173-0.973-2.173-2.173
				c0-1.2,0.973-2.173,2.173-2.173C358.301,345.219,359.274,346.192,359.274,347.393z"/>
			<circle style="fill:#FFFFFF;" cx="198.03" cy="119.44" r="5.244"/>
			<path style="fill:#FFFFFF;" d="M216.88,130.779c0,1.8-1.459,3.26-3.26,3.26c-1.8,0-3.26-1.46-3.26-3.26
				c0-1.8,1.46-3.26,3.26-3.26C215.421,127.519,216.88,128.978,216.88,130.779z"/>
			<circle style="fill:#FFFFFF;" cx="306.739" cy="134.889" r="2.268"/>
			<path style="fill:#FFFFFF;" d="M346.14,108.526c0,3.601-2.919,6.52-6.52,6.52c-3.601,0-6.52-2.919-6.52-6.52
				s2.919-6.52,6.52-6.52C343.221,102.007,346.14,104.926,346.14,108.526z"/>
			<circle style="fill:#FFFFFF;" cx="428.392" cy="332.983" r="3.071"/>
			<path style="fill:#FFFFFF;" d="M424.754,348.054c0,1.879-1.523,3.401-3.402,3.401c-1.879,0-3.401-1.523-3.401-3.401
				c0-1.879,1.523-3.402,3.401-3.402C423.231,344.652,424.754,346.175,424.754,348.054z"/>
			<path style="fill:#FFFFFF;" d="M450.928,339.03c0,0.6-0.486,1.087-1.087,1.087c-0.6,0-1.087-0.486-1.087-1.087
				c0-0.6,0.486-1.087,1.087-1.087C450.441,337.944,450.928,338.43,450.928,339.03z"/>
			<circle style="fill:#FFFFFF;" cx="47.274" cy="210.29" r="2.362"/>
			<path style="fill:#FFFFFF;" d="M41.51,306.007c0,3.34-2.707,6.047-6.047,6.047c-3.34,0-6.047-2.708-6.047-6.047
				c0-3.34,2.707-6.047,6.047-6.047C38.803,299.96,41.51,302.667,41.51,306.007z"/>
			<path style="fill:#FFFFFF;" d="M44.534,330.29c0,2.035-1.65,3.685-3.685,3.685c-2.035,0-3.685-1.65-3.685-3.685
				c0-2.035,1.65-3.685,3.685-3.685C42.884,326.605,44.534,328.255,44.534,330.29z"/>
			<g>
				<path style="fill:#03E5B7;" d="M164.021,123.805l9.698,9.421c0.865,0.84,2.248,0.82,3.089-0.045l0,0
					c0.84-0.865,0.82-2.248-0.045-3.089l-9.698-9.421c-0.865-0.84-2.248-0.821-3.089,0.045l0,0
					C163.136,121.581,163.156,122.964,164.021,123.805z"/>
				<path style="fill:#03E5B7;" d="M176.819,123.92l-9.867,9.244c-0.88,0.825-2.262,0.78-3.087-0.1l0,0
					c-0.825-0.88-0.78-2.262,0.1-3.087l9.867-9.244c0.88-0.825,2.262-0.78,3.087,0.101l0,0
					C177.744,121.713,177.699,123.095,176.819,123.92z"/>
			</g>
			<g>
				<path style="fill:#03E5B7;" d="M442.95,269.317l9.698,9.421c0.865,0.84,2.248,0.82,3.088-0.045h0
					c0.84-0.865,0.82-2.248-0.045-3.089l-9.698-9.421c-0.865-0.841-2.248-0.82-3.089,0.045l0,0
					C442.065,267.093,442.085,268.476,442.95,269.317z"/>
				<path style="fill:#03E5B7;" d="M455.748,269.432l-9.867,9.245c-0.88,0.825-2.262,0.78-3.087-0.1l0,0
					c-0.825-0.88-0.78-2.262,0.1-3.087l9.867-9.245c0.88-0.825,2.262-0.78,3.087,0.101l0,0
					C456.673,267.225,456.628,268.607,455.748,269.432z"/>
			</g>
			<g>
				<path style="fill:#03E5B7;" d="M434.776,343.948l6.608,6.419c0.589,0.573,1.532,0.559,2.104-0.03l0,0
					c0.573-0.59,0.559-1.532-0.031-2.104l-6.608-6.419c-0.59-0.573-1.532-0.559-2.104,0.031l0,0
					C434.172,342.433,434.186,343.376,434.776,343.948z"/>
				<path style="fill:#03E5B7;" d="M443.495,344.027l-6.723,6.299c-0.6,0.562-1.542,0.531-2.103-0.069l0,0
					c-0.562-0.6-0.531-1.541,0.068-2.103l6.723-6.299c0.6-0.562,1.542-0.531,2.104,0.068l0,0
					C444.126,342.523,444.095,343.465,443.495,344.027z"/>
			</g>
			<g>
				<path style="fill:#03E5B7;" d="M33.39,346.195l6.608,6.419c0.59,0.573,1.532,0.559,2.104-0.03l0,0
					c0.573-0.59,0.559-1.532-0.03-2.104l-6.608-6.419c-0.59-0.573-1.532-0.559-2.104,0.031l0,0
					C32.787,344.681,32.8,345.623,33.39,346.195z"/>
				<path style="fill:#03E5B7;" d="M42.11,346.274l-6.723,6.299c-0.6,0.562-1.542,0.531-2.103-0.069l0,0
					c-0.562-0.6-0.531-1.542,0.068-2.103l6.723-6.299c0.6-0.562,1.542-0.531,2.104,0.068l0,0
					C42.74,344.77,42.709,345.712,42.11,346.274z"/>
			</g>
		</g>
		<g>
			<text transform="matrix(1 0 0 1 167.1382 69.8668)" style="fill:#29427B; font-family:'Poppins'; font-size:20.1122px;">app development</text>
			<rect x="142.85" y="75.645" style="fill:#29427B;" width="214.299" height="2.835"/>
		</g>
	</g>
</g>
</svg>
