<?xml version="1.0" encoding="UTF-8"?>
<svg id="Calque_1" data-name="Calque 1" xmlns="http://www.w3.org/2000/svg" viewBox="0 0 455.14 354">
  <defs>
    <style>
      .cls-1 {
        fill: #7e3f35;
      }

      .cls-1, .cls-2, .cls-3, .cls-4, .cls-5, .cls-6, .cls-7, .cls-8, .cls-9, .cls-10, .cls-11, .cls-12, .cls-13, .cls-14, .cls-15 {
        stroke-width: 0px;
      }

      .cls-2 {
        fill: #cea82e;
      }

      .cls-3 {
        fill: #d78e76;
      }

      .cls-4 {
        fill: #262494;
      }

      .cls-5 {
        fill: #dddfeb;
      }

      .cls-6 {
        fill: #83969b;
      }

      .cls-7 {
        fill: #3e31b8;
      }

      .cls-8 {
        fill: #f5aa8d;
      }

      .cls-9 {
        fill: #fff;
      }

      .cls-10 {
        fill: #97aaaf;
      }

      .cls-11 {
        fill: #a3b3b7;
      }

      .cls-12 {
        fill: #b3c2c6;
      }

      .cls-13 {
        fill: #201e42;
      }

      .cls-14 {
        fill: #e5c028;
      }

      .cls-15 {
        fill: #edf3f4;
      }
    </style>
  </defs>
  <path class="cls-15" d="M436.04,346.62s26.92-89.73-53.11-108.57c-83-19.54-46.82-97.71-115.99-114-91.51-9.77-115.32,73.84-186.97,117.69C9.53,284.85,14.84,346.62,14.84,346.62h421.2Z"/>
  <g>
    <path class="cls-7" d="M355.74,344.56H99.41c.02-.16.04-.33.07-.49,6.7-48.8,5.91-79.12,12.12-112.27,5.74-30.62,21.15-31.66,41.28-46.34,20.13-14.67,30.78-18.09,30.78-18.09h87.84s10.65,3.42,30.78,18.09c20.13,14.67,35.54,15.72,41.28,46.34,6.21,33.15,5.42,63.48,12.12,112.27.02.16.04.33.07.49Z"/>
    <path class="cls-8" d="M173.31,81.54c-7.62.35-3.16,23.91.24,28.25,4.2,5.34,10.11,6.53,10.11,6.53l4.88-18.34-15.23-16.45Z"/>
    <path class="cls-8" d="M281.84,81.54c7.62.35,3.16,23.91-.24,28.25-4.2,5.34-10.11,6.53-10.11,6.53l-3.85-15.78,14.2-19Z"/>
    <path class="cls-1" d="M272.39,105.32s9.93-9.57,9.93-31.94,0-7.18,0-17.22-3.69-17.87-7.94-23.8c-6.94-9.69-13.99-11.24-13.99-11.24.72-6.34-3.95-10.29-3.95-10.29-1.79,1.91-7.77,3.35-7.77,3.35,2.39-4.54-2.99-13.52-2.99-13.52-3.35,5.26-11.84,8.73-11.84,8.73.96-3.47-2.39-9.4-2.39-9.4,0,0-6.34,7.12-26.31,14.3-18.27,6.56-32.29,16.75-32.29,41.86,0,10.05,0-5.14,0,17.22s9.93,31.94,9.93,31.94h89.63Z"/>
    <path class="cls-4" d="M355.74,344.56h-7.21c-6.04-46.45-5.46-76-11.43-108.23-5.68-30.61-20.91-31.66-40.8-46.34-17.65-13.01-35.65-21-39.47-22.63h14.67s10.65,3.42,30.78,18.09c20.13,14.67,35.54,15.72,41.28,46.34,6.21,33.15,5.42,63.48,12.12,112.27.02.17.05.33.07.5Z"/>
    <path class="cls-4" d="M275.81,169.16c-3.51,5.09-19.18,25.07-48.24,25.07s-44.19-19.31-48.06-24.79l4.14-2.08h87.84s1.46.46,4.32,1.8Z"/>
    <path class="cls-8" d="M259.81,147.89s-1.21,14.37,11.68,19.47h0s-10.62,20.73-43.92,20.73-43.92-20.73-43.92-20.73h0c12.89-5.1,11.68-19.47,11.68-19.47h64.47Z"/>
    <path class="cls-8" d="M273.5,84.58l-1.23,23.01s-1.22,14.64-3.11,21.76c-3.58,13.51-6.65,14.03-17.22,29.2-4.99,7.15-15.13,13.76-17.57,14.44-2.43.68-6.79.48-6.79.48,0,0-4.36.21-6.79-.48-2.44-.68-12.58-7.29-17.57-14.44-10.57-15.17-13.64-15.69-17.22-29.2-1.89-7.12-3.11-21.76-3.11-21.76l-1.23-23.01c-.12-2.1.64-4.14,2.11-5.63.3-.3.62-.65.95-1.04,1.54-1.82,2.36-4.17,2.36-6.56v-7.1c0-7.88,5.43-13.96,12.64-14.76,6.19-.68,15.14-1.24,27.87-1.24s21.68.56,27.87,1.24c7.2.8,12.64,6.88,12.64,14.76v7.1c0,2.39.82,4.73,2.36,6.56.33.39.65.73.95,1.04,1.47,1.49,2.22,3.53,2.11,5.63Z"/>
    <path class="cls-9" d="M249.41,131.87s-5.51,11.12-10.55,16.1c-1.3,1.29-3.02,1.96-4.78,1.96h-13.57c-1.76,0-3.48-.68-4.78-1.96-5.05-4.98-10.04-16.1-10.04-16.1,0,0,3.98,5.02,14.47,5.02h14.79c10.49,0,14.47-5.02,14.47-5.02h0Z"/>
    <path class="cls-3" d="M271.49,167.36s-1.09,2.13-3.66,5.01c-7.4-2.99-10.1-9.06-11.06-13.62-.88,1.2-1.81,2.52-2.82,3.95-4.99,7.15-15.13,13.76-17.57,14.44-2.43.68-6.79.48-6.79.48,0,0-4.36.21-6.79-.48-2.44-.68-12.58-7.29-17.57-14.44-4.38-6.3-7.48-10.07-9.87-13.3.01-.19.01-.37.01-.53,0-.56-.02-.91-.03-.97,2.07,2.7,4.61,5.98,7.87,10.66,4.99,7.15,15.13,13.76,17.57,14.44,2.43.68,6.79.48,6.79.48,0,0,4.36.21,6.79-.48,2.44-.68,12.58-7.29,17.57-14.44,3.26-4.68,5.8-7.96,7.87-10.66-.01.19-.19,2.76.54,6.07,1.03,4.56,3.79,10.49,11.15,13.39Z"/>
    <path class="cls-3" d="M204.34,135.24c-.16,0-.32-.04-.47-.11-.54-.26-.76-.91-.5-1.44.15-.3,1.47-2.97,2.92-4.23.45-.39,1.13-.34,1.52.11.39.45.34,1.13-.11,1.52-.95.82-2.05,2.83-2.39,3.54-.19.38-.57.61-.97.61Z"/>
    <path class="cls-3" d="M250.73,135.24c-.4,0-.79-.22-.97-.61-.34-.71-1.44-2.72-2.39-3.54-.45-.39-.5-1.07-.11-1.52.39-.45,1.08-.5,1.52-.11,1.45,1.26,2.77,3.93,2.92,4.23.26.54.04,1.18-.5,1.44-.15.07-.31.11-.47.11Z"/>
    <path class="cls-5" d="M222.59,143.28c-2.93-.03-9.36-.43-11.21-.9-.63-.96-1.22-1.94-1.76-2.9,1.77,1.46,8.8,3.36,12.97,3.8Z"/>
    <path class="cls-5" d="M232.18,143.28c2.93-.03,9.29-.47,11.15-.94.67-1.01,1.32-1.94,1.86-2.9-1.77,1.46-8.85,3.4-13.01,3.84Z"/>
    <path class="cls-10" d="M324.06,332.63v9.03c0,1.6-1.34,2.9-2.99,2.9h-186.99c-1.65,0-2.99-1.3-2.99-2.9v-9.03c0-1.6,1.34-2.9,2.99-2.9h5.35v-5.48h176.01v5.48h5.63c1.65,0,2.99,1.3,2.99,2.9Z"/>
    <path class="cls-12" d="M316.45,329.72h-177.76c-3.89,0-7.11-2.95-7.31-6.72l-6.55-121.27c-.22-4.06,3.12-7.47,7.31-7.47h190.86c4.19,0,7.53,3.41,7.31,7.47l-6.55,121.27c-.2,3.77-3.42,6.72-7.31,6.72Z"/>
    <circle class="cls-9" cx="227.57" cy="262.41" r="46.28"/>
    <path class="cls-2" d="M220.97,264.67c-5.4,4-11.86,6.32-18.58,6.67l.05,4.77h.01c7.79-.37,15.29-3.07,21.54-7.74l-3.02-3.7Z"/>
    <path class="cls-2" d="M228.29,257.34c4-5.4,6.32-11.86,6.67-18.58l4.77.05h0c-.37,7.8-3.07,15.3-7.74,21.55l-3.7-3.02Z"/>
    <circle class="cls-14" cx="196.97" cy="273.78" r="5.95"/>
    <circle class="cls-14" cx="237.4" cy="233.34" r="5.95"/>
    <path class="cls-14" d="M232.04,265.69c.4-.81.61-1.71.61-2.62,0-3.28-2.66-5.95-5.95-5.95s-5.95,2.66-5.95,5.95,2.66,5.95,5.95,5.95c.91,0,1.8-.2,2.62-.61"/>
    <path class="cls-7" d="M258.93,278.13l-10.86,5.44c-.37.19-.67.49-.86.86l-5.43,10.87c-.48.96-1.65,1.35-2.61.86-.46-.23-.81-.63-.97-1.12l-9.01-27.04c-.34-1.01.2-2.11,1.21-2.45.4-.14.83-.14,1.23,0l27.04,9.01c1.02.34,1.57,1.43,1.23,2.45-.16.49-.51.89-.97,1.12Z"/>
    <path class="cls-6" d="M324.06,332.62v9.03c0,1.61-1.34,2.91-2.99,2.91h-7.87c1.65,0,2.99-1.3,2.99-2.91v-9.03c0-1.6-1.34-2.9-2.99-2.9h7.87c1.65,0,2.99,1.3,2.99,2.9Z"/>
    <path class="cls-11" d="M330.31,201.74l-6.55,121.27c-.21,3.76-3.42,6.72-7.31,6.72h-7.87c3.13,0,5.83-1.92,6.86-4.64.25-.65.4-1.36.44-2.09l6.55-121.27c.22-4.07-3.12-7.47-7.31-7.47h7.88c4.19,0,7.52,3.4,7.31,7.47Z"/>
  </g>
  <path class="cls-13" d="M451.14,354H4c-2.21,0-4-1.79-4-4v-4.27c0-2.21,1.79-4,4-4h447.14c2.21,0,4,1.79,4,4v4.27c0,2.21-1.79,4-4,4Z"/>
</svg>