<?xml version="1.0" encoding="UTF-8"?>
<svg id="Layer_1" data-name="Layer 1" xmlns="http://www.w3.org/2000/svg" version="1.1" viewBox="0 0 450 450">
  <defs>
    <style>
      .cls-1 {
        fill: #ad3548;
      }

      .cls-1, .cls-2, .cls-3, .cls-4, .cls-5, .cls-6, .cls-7, .cls-8, .cls-9, .cls-10, .cls-11, .cls-12, .cls-13, .cls-14, .cls-15, .cls-16, .cls-17, .cls-18, .cls-19, .cls-20, .cls-21, .cls-22, .cls-23, .cls-24, .cls-25, .cls-26, .cls-27, .cls-28, .cls-29, .cls-30, .cls-31, .cls-32, .cls-33, .cls-34, .cls-35, .cls-36, .cls-37, .cls-38, .cls-39, .cls-40, .cls-41, .cls-42, .cls-43, .cls-44, .cls-45, .cls-46, .cls-47, .cls-48, .cls-49, .cls-50, .cls-51, .cls-52, .cls-53, .cls-54, .cls-55, .cls-56, .cls-57, .cls-58, .cls-59, .cls-60, .cls-61, .cls-62, .cls-63, .cls-64, .cls-65, .cls-66, .cls-67, .cls-68, .cls-69, .cls-70, .cls-71, .cls-72, .cls-73, .cls-74, .cls-75, .cls-76, .cls-77, .cls-78, .cls-79, .cls-80, .cls-81, .cls-82, .cls-83, .cls-84, .cls-85, .cls-86, .cls-87, .cls-88, .cls-89, .cls-90, .cls-91, .cls-92, .cls-93, .cls-94, .cls-95, .cls-96, .cls-97, .cls-98, .cls-99, .cls-100, .cls-101, .cls-102, .cls-103, .cls-104, .cls-105, .cls-106, .cls-107, .cls-108, .cls-109, .cls-110, .cls-111, .cls-112, .cls-113, .cls-114, .cls-115, .cls-116, .cls-117, .cls-118, .cls-119, .cls-120 {
        stroke-width: 0px;
      }

      .cls-2 {
        fill: #11afd6;
      }

      .cls-3 {
        fill: #ababab;
      }

      .cls-4 {
        fill: #c96500;
      }

      .cls-5 {
        fill: #ffdd91;
      }

      .cls-6 {
        fill: #665333;
      }

      .cls-7 {
        fill: #795547;
      }

      .cls-8 {
        fill: #8a1b11;
      }

      .cls-9 {
        fill: #e88080;
      }

      .cls-10 {
        fill: #ffca73;
      }

      .cls-11 {
        fill: #545454;
      }

      .cls-12 {
        fill: #000;
      }

      .cls-13 {
        fill: #c93e53;
      }

      .cls-14 {
        fill: #004570;
      }

      .cls-15 {
        fill: #7d7d7d;
      }

      .cls-16 {
        fill: #1c1c1c;
      }

      .cls-17 {
        fill: #f2f2f2;
      }

      .cls-18 {
        fill: #76a9ab;
      }

      .cls-19 {
        fill: #ffd766;
      }

      .cls-20 {
        fill: #663f30;
      }

      .cls-21 {
        fill: #095a6e;
      }

      .cls-22 {
        fill: #ff1919;
      }

      .cls-23 {
        fill: #ff9c9c;
      }

      .cls-24 {
        fill: #4ab1ff;
      }

      .cls-25 {
        fill: #ffbf00;
      }

      .cls-26 {
        fill: #c4c4c4;
      }

      .cls-27 {
        fill: #ffc7b8;
      }

      .cls-28 {
        fill: #424242;
      }

      .cls-29 {
        opacity: .2;
      }

      .cls-29, .cls-35 {
        isolation: isolate;
      }

      .cls-29, .cls-35, .cls-97 {
        fill: #fff;
      }

      .cls-30 {
        fill: #ff4040;
      }

      .cls-31 {
        fill: #858585;
      }

      .cls-32 {
        fill: #bababa;
      }

      .cls-33 {
        fill: #d4d4d4;
      }

      .cls-34 {
        fill: #bf8322;
      }

      .cls-35, .cls-121 {
        opacity: .4;
      }

      .cls-36 {
        fill: #0e9fb5;
      }

      .cls-37 {
        fill: #b3b3b3;
      }

      .cls-38 {
        fill: #031f26;
      }

      .cls-39 {
        fill: #5c4a42;
      }

      .cls-40 {
        fill: #3fabc4;
      }

      .cls-41 {
        fill: #633;
      }

      .cls-42 {
        fill: #452b20;
      }

      .cls-43 {
        fill: #2084a8;
      }

      .cls-44 {
        fill: #ad2c2c;
      }

      .cls-45 {
        fill: #ebebeb;
      }

      .cls-46 {
        fill: #303030;
      }

      .cls-47 {
        fill: #f2a600;
      }

      .cls-48 {
        fill: #d6d6d6;
      }

      .cls-49 {
        fill: #a3f7ff;
      }

      .cls-50 {
        fill: #ff5e5e;
      }

      .cls-51 {
        fill: #575757;
      }

      .cls-52 {
        fill: #3d3933;
      }

      .cls-53 {
        fill: #212121;
      }

      .cls-54 {
        fill: #e6e6e6;
      }

      .cls-55 {
        fill: #c7933e;
      }

      .cls-56 {
        fill: #e33a3a;
      }

      .cls-57 {
        fill: #1b79b3;
      }

      .cls-58 {
        fill: #ff7a8e;
      }

      .cls-59 {
        fill: #7a7a7a;
      }

      .cls-60 {
        fill: #09242e;
      }

      .cls-61 {
        fill: #949494;
      }

      .cls-62 {
        fill: #ff9191;
      }

      .cls-63 {
        fill: #a8a8a8;
      }

      .cls-64 {
        fill: #2c557d;
      }

      .cls-65 {
        fill: #ad7700;
      }

      .cls-66 {
        fill: #26a9fa;
      }

      .cls-67 {
        fill: #196682;
      }

      .cls-68 {
        fill: #526375;
      }

      .cls-69 {
        fill: #141414;
      }

      .cls-70 {
        fill: #ffeb51;
      }

      .cls-71 {
        fill: #b0a394;
      }

      .cls-72 {
        fill: #05507d;
      }

      .cls-73 {
        fill: #f2b509;
      }

      .cls-74 {
        fill: #121212;
      }

      .cls-75 {
        fill: #134c61;
      }

      .cls-76 {
        fill: #c73e3e;
      }

      .cls-77 {
        fill: #ffba19;
      }

      .cls-78 {
        fill: #005285;
      }

      .cls-79 {
        fill: #b5b5b5;
      }

      .cls-80 {
        fill: #ff6a19;
      }

      .cls-81 {
        fill: #cfcfcf;
      }

      .cls-82 {
        fill: #c0f2ff;
      }

      .cls-83 {
        fill: #b82f2f;
      }

      .cls-84 {
        fill: #6d8279;
      }

      .cls-85 {
        fill: #757575;
      }

      .cls-86 {
        fill: #86b6e3;
      }

      .cls-87 {
        fill: #dba451;
      }

      .cls-88 {
        fill: #333;
      }

      .cls-89 {
        fill: #852121;
      }

      .cls-90 {
        fill: #a1a1a1;
      }

      .cls-91 {
        fill: #cf9585;
      }

      .cls-92 {
        fill: #d49c42;
      }

      .cls-93 {
        fill: #cf3ac3;
      }

      .cls-94 {
        fill: #007bc7;
      }

      .cls-95 {
        fill: #751e1e;
      }

      .cls-96 {
        fill: #e8d7c3;
      }

      .cls-98 {
        fill: #595959;
      }

      .cls-99 {
        fill: #cf8e00;
      }

      .cls-100 {
        fill: #ffbc4f;
      }

      .cls-101 {
        fill: #ffb947;
      }

      .cls-102 {
        fill: #787878;
      }

      .cls-103 {
        fill: #afdde9;
      }

      .cls-104 {
        fill: #8a8a8a;
      }

      .cls-105 {
        fill: #04303b;
      }

      .cls-106 {
        fill: #331f17;
      }

      .cls-107 {
        fill: #1f1f1f;
      }

      .cls-108 {
        fill: #b03737;
      }

      .cls-109 {
        fill: #2b4a78;
      }

      .cls-110 {
        fill: #ffb7a4;
      }

      .cls-111 {
        fill: #ff8585;
      }

      .cls-112 {
        fill: #13d7f5;
      }

      .cls-113 {
        fill: #3b3b3b;
      }

      .cls-114 {
        fill: #c9c9c9;
      }

      .cls-115 {
        fill: #878787;
      }

      .cls-116 {
        fill: #0770b0;
      }

      .cls-117 {
        fill: #ff9940;
      }

      .cls-118 {
        fill: #c92818;
      }

      .cls-119 {
        fill: #0a98ed;
      }

      .cls-120 {
        fill: #4d4d4d;
      }
    </style>
  </defs>
  <g>
    <g>
      <path class="cls-40" d="M171.5,67.4c10.4,0,18.9-8.5,18.9-18.9s-8.5-18.9-18.9-18.9-18.9,8.5-18.9,18.9,8.5,18.9,18.9,18.9Z"/>
      <circle class="cls-40" cx="358.9" cy="52.8" r="18.9"/>
      <path class="cls-40" d="M75.2,357.9c-6.3,0-11.3,5-11.3,11.3s5,11.3,11.3,11.3,11.3-5,11.3-11.3-5-11.3-11.3-11.3Z"/>
      <path class="cls-40" d="M314.2,330.3c-6.3,0-11.3,5-11.3,11.3s5,11.3,11.3,11.3,11.3-5,11.3-11.3-5-11.3-11.3-11.3Z"/>
      <path class="cls-40" d="M93.1,346.4c-3.1,0-5.7,2.5-5.7,5.7s2.5,5.7,5.7,5.7,5.7-2.5,5.7-5.7-2.5-5.7-5.7-5.7Z"/>
      <path class="cls-40" d="M287.1,315.5c-3.1,0-5.7,2.5-5.7,5.7s2.5,5.7,5.7,5.7,5.7-2.5,5.7-5.7-2.5-5.7-5.7-5.7Z"/>
      <path class="cls-40" d="M425.4,131.9c3.1,0,5.7-2.5,5.7-5.7s-2.5-5.7-5.7-5.7-5.7,2.5-5.7,5.7,2.5,5.7,5.7,5.7Z"/>
      <path class="cls-40" d="M411.9,319.4c-3.1,0-5.7,2.5-5.7,5.7s2.5,5.7,5.7,5.7,5.7-2.5,5.7-5.7-2.5-5.7-5.7-5.7Z"/>
      <circle class="cls-40" cx="402" cy="345.9" r="8.5"/>
      <circle class="cls-40" cx="33.7" cy="71.4" r="5.7"/>
      <path class="cls-40" d="M318,65.5c3.1,0,5.7-2.5,5.7-5.7s-2.5-5.7-5.7-5.7-5.7,2.5-5.7,5.7,2.5,5.7,5.7,5.7Z"/>
      <path class="cls-40" d="M174.1,323.9c-6.3,0-11.3,5-11.3,11.3s5,11.3,11.3,11.3,11.3-5,11.3-11.3-5-11.3-11.3-11.3Z"/>
      <path class="cls-40" d="M25.7,109c6.3,0,11.3-5,11.3-11.3s-5-11.3-11.3-11.3-11.3,5-11.3,11.3,5,11.3,11.3,11.3Z"/>
      <circle class="cls-40" cx="130.5" cy="65.6" r="11.3"/>
      <path class="cls-40" d="M207.1,71.1c6.3,0,11.3-5,11.3-11.3s-5-11.3-11.3-11.3-11.3,5-11.3,11.3,5,11.3,11.3,11.3Z"/>
      <path class="cls-40" d="M388.5,79.3c6.3,0,11.3-5,11.3-11.3s-5-11.3-11.3-11.3-11.3,5-11.3,11.3,5,11.3,11.3,11.3Z"/>
      <path class="cls-40" d="M346,344c4.2,0,7.5-3.4,7.5-7.5s-3.4-7.5-7.5-7.5-7.5,3.4-7.5,7.5,3.4,7.5,7.5,7.5Z"/>
      <path class="cls-40" d="M430.7,163.6c6.3,0,11.3-5,11.3-11.3s-5-11.3-11.3-11.3-11.3,5-11.3,11.3,5,11.3,11.3,11.3Z"/>
      <path class="cls-40" d="M430.7,281.5c6.4-4,10.6-11,10.6-19s-7.8-19.9-18-21.9c1.2-2.7,1.8-5.7,1.8-8.8,0-10.1-6.6-18.5-15.8-21.4,2.1-3.4,3.2-7.4,3.2-11.6s-.1-3-.4-4.4c6.2-.1,11.1-5.1,11.1-11.3s-3.1-9.1-7.6-10.7c.6-2.1,1-4.4,1-6.7,0-6-2.4-11.4-6.3-15.5,3.6-3.5,5.8-8.2,5.8-13.5,0-10.4-8.5-18.9-18.9-18.9s-9.7,2.1-13.1,5.3c-2-2.9-4.5-5.4-7.4-7.5,2.7-3.2,4.4-7.4,4.4-12.1,0-10.4-8.5-18.9-18.9-18.9s-9,1.8-12.4,4.6c-5.7-6.4-13.8-10.4-22.9-10.4s-16.6,3.6-22.1,9.4c-5.6-7.4-14.5-12.2-24.5-12.2s-9.5,1.2-13.7,3.2c-5.6-8-14.8-13.1-25.1-13.1-14.9,0-27.2,10.6-30.1,24.5-1.9-.4-3.9-.6-6-.6s-1.2,0-1.7,0c-5.6-7.8-14.7-12.8-24.9-12.8s-21.2,6.1-26.5,15.2c-1.9-.3-3.8-.5-5.7-.5-6.5,0-12.6,2-17.5,5.4-3.6-13-15.5-22.4-29.6-22.4s-27.3,10.6-30.1,24.7c-1.5-.3-2.9-.6-4.5-.6-10.4,0-18.9,8.5-18.9,18.9s.7,6,2.1,8.5c-12.6,3.9-21.7,15.5-21.7,29.3s2.2,13,5.9,18c-7.6,4.2-12.9,12.4-12.9,21.7s5.2,17.5,12.9,21.7c-5.1,3.4-8.6,9.2-8.6,15.8s2.8,11.3,7.2,14.8c-10,.5-17.9,8.7-17.9,18.8s2.6,11,6.7,14.5c-2.9,3.4-4.7,7.6-4.7,12.4,0,10.4,8.5,18.9,18.9,18.9s1.7,0,2.4-.2c.5,2.6,1.6,5,3,7.1-4.9,3.4-8.2,9.1-8.2,15.5,0,10.4,8.5,18.9,18.9,18.9s18.4-8.1,18.9-18.1c.8.1,1.7.2,2.5.2,5.3,0,10.2-2.3,13.6-5.9,2,2.1,4.8,3.4,8,3.4,6.3,0,11.3-5,11.3-11.3s0-1.4-.2-2c.3-.6.5-1.4.7-2.1,4.5,4,10.5,6.5,17,6.5s12.1-2.3,16.5-6.1c4.3,2.3,9.1,3.6,14.4,3.6,14.9,0,27.2-10.6,30.1-24.6.9.2,1.9.4,2.8.4,4,0,7.4-2,9.4-5.1,1.7,6.8,7.2,12.2,14.3,13.3.6,9.4,8.4,16.9,17.9,16.9s16-6.3,17.6-14.6h.8c7.5,0,13.9-4.6,16.7-11.2.7.1,1.4.2,2.1.2,2.4,0,4.6-.7,6.4-2,1.6,4.3,5.8,7.2,10.6,7.2s11.3-5,11.3-11.3-.2-2.2-.4-3.1c1.3-.3,2.4-.9,3.5-1.7,2.1,4.5,5.8,8.2,10.2,10.4-.1.9-.2,1.8-.2,2.7,0,12.4,10,22.3,22.3,22.3s15.9-4.8,19.7-11.8c3.9,10.7,14.1,18.3,26.2,18.3s27.9-12.5,27.9-27.9,0-1.9-.1-2.8h0c1.8,3.9,5.7,6.7,10.3,6.7s6.3-1.5,8.4-3.8c2,2,4.8,3.1,7.9,3.1,6.3,0,11.3-5,11.3-11.3s-3.8-9.9-8.7-11v.3h0ZM419.8,284.9h-.1c0-.1.2-.1.2-.1h-.1Z"/>
    </g>
    <g>
      <path class="cls-74" d="M186.3,255.5c-1.9,1.3-3.9,2.6-3.6,4.8h.5c-.3-2,1.5-3.1,3.4-4.4,2.1-1.4,4.3-2.8,3.9-5.6h-.5c.4,2.4-1.7,3.8-3.7,5.1Z"/>
      <rect class="cls-69" x="181.5" y="260.6" width="2.4" height="1" transform="translate(-92.7 421.4) rotate(-85.2)"/>
      <polygon class="cls-16" points="175.3 268.6 175.3 268.9 182 269.7 189.1 270.1 189.3 269.8 183 269 182.9 262.2 182.8 262.2 181.7 268.9 175.3 268.6"/>
      <path class="cls-37" d="M189.3,269.8c-.5-4.1-3-7.3-6.3-7.6l-.6,7,6.9.6h0Z"/>
      <path class="cls-28" d="M180.9,284.5c4,.3,7.8-4.5,8.3-10.8.1-1.3,0-2.4,0-3.5l-13.8-1.3c-.3,1-.5,2.2-.6,3.5-.5,6.3,2.2,11.7,6.3,12.2h-.1Z"/>
      <path class="cls-51" d="M181.5,278.4c2.4.2,4.6-2.6,4.9-6.4v-2.1l-8.3-.7c-.2.6-.3,1.4-.4,2-.3,3.8,1.4,7,3.7,7.2h.1Z"/>
      <path class="cls-37" d="M175.3,268.6l6.7.6.6-7c-3.1-.3-6.1,2.4-7.3,6.4Z"/>
      <path class="cls-85" d="M176.8,268.7l5.2.5.5-5.4c-2.5-.2-4.8,1.9-5.8,5h0Z"/>
      <path class="cls-85" d="M187.6,269.6c-.4-3.2-2.4-5.8-4.8-5.9l-.5,5.4,5.3.4Z"/>
      <path class="cls-16" d="M181.7,265.8l-.2,2.4c0,.2.2.4.4.4h.7c.2,0,.5,0,.5-.3l.2-2.4c0-.2-.2-.4-.4-.4h-.7c-.2,0-.5,0-.5.3Z"/>
      <path class="cls-108" d="M181.8,267c0,.7,0,1.4.4,1.4s.5-.5.6-1.4c0-.7,0-1.4-.4-1.4s-.5.5-.6,1.4Z"/>
      <path class="cls-9" d="M182.5,266.1c0,.2.1.3.2.3v-.3c0-.2-.1-.3-.2-.3v.3Z"/>
      <path class="cls-97" d="M189,269.6s-1-6.5-6-7.2c4.6,1.3,6,7.2,6,7.2Z"/>
      <path class="cls-97" d="M188.5,276c.7-3.5.3-5.9.3-5.9l-13.4-1.2,13.1,1.4s.4,1.6,0,5.6h0Z"/>
      <path class="cls-107" d="M180.3,284.2s4.3.5,7.1-5.2c-3.9,5.2-7.1,5.2-7.1,5.2Z"/>
    </g>
    <g>
      <rect class="cls-30" x="168.6" y="226.3" width="25.9" height="20.7"/>
      <path class="cls-97" d="M189.5,236.3c0-.3,0-.5-.1-.8-.6-2.3-3.9-4-7.8-4s-7.9,2.2-7.9,4.8.8,2.4,2.1,3.2l-1.3,2.3,2.9-1.6h.1c1.2.4,2.5.6,4,.6s2.9-.2,4.1-.7c2.3-.8,3.8-2.4,3.8-4.1v.2h0ZM178.6,237.1c-.4,0-.8-.4-.8-.8s.4-.8.8-.8.8.4.8.8-.4.8-.8.8ZM181.6,237.1c-.4,0-.8-.4-.8-.8s.4-.8.8-.8.8.4.8.8-.4.8-.8.8ZM184.5,237.1c-.4,0-.8-.4-.8-.8s.4-.8.8-.8.8.4.8.8-.4.8-.8.8Z"/>
    </g>
    <g>
      <path class="cls-25" d="M61.9,240.4c.7,5.8-4.1,10.6-9.9,9.9-3.9-.5-7-3.7-7.5-7.5-.7-5.8,4.1-10.6,9.9-9.9,3.9.5,7,3.7,7.5,7.5Z"/>
      <g>
        <path class="cls-47" d="M92.5,225.6c0,11.7-9.5,21.3-21.3,21.3s-21.3-9.5-21.3-21.3,9.5-21.3,21.3-21.3,21.3,9.5,21.3,21.3h0Z"/>
        <rect class="cls-5" x="58.5" y="221.6" width="25.6" height="2.4"/>
        <rect class="cls-65" x="58.5" y="216.1" width="10.2" height="3.1"/>
        <rect class="cls-5" x="58.5" y="226.8" width="25.6" height="2.4"/>
        <rect class="cls-5" x="58.5" y="232.2" width="18.2" height="2.4"/>
      </g>
      <path class="cls-25" d="M89.4,208.8c0,5-4.1,9-9,9s-9-4.1-9-9,4.1-9,9-9,9,4.1,9,9Z"/>
      <path class="cls-25" d="M98.7,220.9c0,3.4-2.7,6.2-6.2,6.2s-6.2-2.7-6.2-6.2,2.7-6.2,6.2-6.2,6.2,2.7,6.2,6.2Z"/>
    </g>
    <g>
      <rect class="cls-75" x="118.1" y="215.1" width="44.1" height="57.4"/>
      <rect class="cls-43" x="118.1" y="220.7" width="44.1" height="46.5"/>
      <rect class="cls-97" x="126.4" y="232" width="27.7" height="4.6"/>
      <rect class="cls-75" x="126.4" y="232" width="4.6" height="4.6"/>
      <rect class="cls-97" x="126.4" y="243.3" width="27.7" height="4.6"/>
      <rect class="cls-75" x="126.4" y="243.3" width="4.6" height="4.6"/>
      <rect class="cls-75" x="126.4" y="253.4" width="27.7" height=".8"/>
      <rect class="cls-75" x="126.4" y="255.9" width="19.9" height=".8"/>
      <rect class="cls-75" x="126.4" y="258.4" width="27.7" height=".8"/>
      <rect class="cls-75" x="126.4" y="260.9" width="27.7" height=".8"/>
      <circle class="cls-75" cx="130.9" cy="225.9" r="1"/>
      <path class="cls-75" d="M141.3,225.9c0,.6-.5,1-1,1s-1-.5-1-1,.5-1,1-1,1,.5,1,1Z"/>
      <path class="cls-60" d="M133.1,234.3c0,.4-.3.6-.6.6s-.6-.3-.6-.6.3-.6.6-.6.6.3.6.6Z"/>
      <path class="cls-60" d="M134.8,234.3c0,.4-.3.6-.6.6s-.6-.3-.6-.6.3-.6.6-.6.6.3.6.6Z"/>
      <path class="cls-60" d="M136.4,234.3c0,.4-.3.6-.6.6s-.6-.3-.6-.6.3-.6.6-.6.6.3.6.6Z"/>
      <path class="cls-60" d="M138.2,234.3c0,.4-.3.6-.6.6s-.6-.3-.6-.6.3-.6.6-.6.6.3.6.6Z"/>
      <path class="cls-60" d="M139.9,234.3c0,.4-.3.6-.6.6s-.6-.3-.6-.6.3-.6.6-.6.6.3.6.6Z"/>
      <path class="cls-60" d="M141.6,234.3c0,.4-.3.6-.6.6s-.6-.3-.6-.6.3-.6.6-.6.6.3.6.6Z"/>
      <path class="cls-60" d="M133.1,245.6c0,.4-.3.6-.6.6s-.6-.3-.6-.6.3-.6.6-.6.6.3.6.6Z"/>
      <path class="cls-60" d="M134.8,245.6c0,.4-.3.6-.6.6s-.6-.3-.6-.6.3-.6.6-.6.6.3.6.6Z"/>
      <path class="cls-60" d="M136.4,245.6c0,.4-.3.6-.6.6s-.6-.3-.6-.6.3-.6.6-.6.6.3.6.6Z"/>
      <path class="cls-60" d="M138.2,245.6c0,.4-.3.6-.6.6s-.6-.3-.6-.6.3-.6.6-.6.6.3.6.6Z"/>
      <path class="cls-60" d="M139.9,245.6c0,.4-.3.6-.6.6s-.6-.3-.6-.6.3-.6.6-.6.6.3.6.6Z"/>
      <path class="cls-60" d="M141.6,245.6c0,.4-.3.6-.6.6s-.6-.3-.6-.6.3-.6.6-.6.6.3.6.6Z"/>
      <path class="cls-60" d="M143.3,245.6c0,.4-.3.6-.6.6s-.6-.3-.6-.6.3-.6.6-.6.6.3.6.6Z"/>
      <path class="cls-60" d="M144.9,245.6c0,.4-.3.6-.6.6s-.6-.3-.6-.6.3-.6.6-.6.6.3.6.6Z"/>
      <path class="cls-60" d="M146.6,245.6c0,.4-.3.6-.6.6s-.6-.3-.6-.6.3-.6.6-.6.6.3.6.6Z"/>
      <path class="cls-60" d="M148.3,245.6c0,.4-.3.6-.6.6s-.6-.3-.6-.6.3-.6.6-.6.6.3.6.6Z"/>
      <path class="cls-75" d="M150.6,225.9c0,.6-.5,1-1,1s-1-.5-1-1,.5-1,1-1,1,.5,1,1Z"/>
    </g>
    <g>
      <rect class="cls-57" x="54.4" y="148.4" width="59.2" height="41"/>
      <rect class="cls-75" x="100.2" y="149.8" width="1.6" height="1.6"/>
      <rect class="cls-75" x="103.2" y="149.8" width="1.6" height="1.6"/>
      <rect class="cls-75" x="106.3" y="149.8" width="1.6" height="1.6"/>
      <rect class="cls-66" x="55.1" y="148.8" width="57.8" height=".6"/>
      <rect class="cls-97" x="55.1" y="152.6" width="57.8" height="35.8"/>
      <rect class="cls-43" x="58.5" y="156.7" width="50.3" height="27.7"/>
      <rect class="cls-67" x="74.5" y="179.4" width="32" height="3.4"/>
      <rect class="cls-75" x="74.5" y="159.2" width="32" height="2.6"/>
      <rect class="cls-24" x="74.5" y="163.1" width="32" height="14.8"/>
      <path class="cls-97" d="M104.3,167.4c0,1.6-1.3,2.9-2.9,2.9s-2.9-1.3-2.9-2.9,1.3-2.9,2.9-2.9,2.9,1.3,2.9,2.9Z"/>
      <path class="cls-97" d="M104.6,173.9c0,.8-.6,1.5-1.5,1.5s-1.5-.6-1.5-1.5.6-1.5,1.5-1.5,1.5.6,1.5,1.5Z"/>
      <path class="cls-97" d="M91,172.7v1h1.2c0,.2.2.5.3.7l-.7.7.7.7.7-.7c.2.1.4.2.7.3v1h1v-1c.2,0,.5-.2.7-.3l.7.7.7-.7-.7-.7c0-.2.2-.4.3-.7h1v-1h-1c0-.2-.2-.5-.3-.7l.7-.7-.7-.7-.7.7c-.2-.1-.4-.2-.7-.3v-1h-1v1c-.2,0-.5.2-.7.3l-.7-.7-.7.7.7.7c0,.2-.2.4-.3.7h-1.2ZM94.1,172.1c.8-.2,1.6.5,1.4,1.4,0,.4-.4.7-.8.8-.8.2-1.6-.5-1.4-1.4,0-.4.4-.7.8-.8Z"/>
      <path class="cls-97" d="M76.8,168.5l-.4,2,2.1.4c0,.5,0,1,.3,1.5l-1.7,1.2,1.2,1.7,1.7-1.2c.3.3.7.6,1.3.8l-.4,2.1,2,.4.4-2.1c.5,0,1-.1,1.5-.3l1.2,1.7,1.7-1.2-1.2-1.7c.3-.3.6-.7.8-1.3l2.1.4.4-2-2.1-.4c0-.5,0-1-.3-1.5l1.7-1.2-1.2-1.7-1.7,1.2c-.3-.3-.7-.6-1.3-.8l.4-2.1-2-.4-.4,2.1c-.5,0-1,.1-1.5.3l-1.2-1.7-1.7,1.2,1.2,1.7c-.3.3-.6.7-.8,1.3l-2.1-.4ZM82.8,168.5c1.7,0,2.7,1.6,2.1,3.1-.3.7-1,1.3-1.9,1.4-1.7,0-2.7-1.6-2.1-3.1.3-.7,1-1.3,1.9-1.4Z"/>
      <path class="cls-24" d="M72.6,182.7c-6.5,0-11.8-5.2-11.8-11.8s5.2-11.8,11.8-11.8v23.7Z"/>
    </g>
    <g>
      <path class="cls-118" d="M56.3,121.9c-.2-.8-.7-1.4-1.2-1.3h0c-.4.1-.5.8-.3,1.7l6.3,24.1,2.7-.7-7.2-23.9h-.3,0Z"/>
      <path class="cls-8" d="M55.1,120.6h0c-.4.1-.5.8-.3,1.7l6.3,24.1,1.4-.4s-7.1-25.5-7-25.5h-.3Z"/>
      <polygon class="cls-96" points="60.9 146.5 62.7 151.9 64.9 151.3 63.5 145.7 60.9 146.5"/>
      <polygon class="cls-71" points="60.9 146.5 62.7 151.9 63.7 151.6 62.1 146.1 60.9 146.5"/>
      <polygon class="cls-52" points="62.7 151.9 63.1 160.2 68.9 158.3 64.9 151.3 62.7 151.9"/>
    </g>
    <g>
      <path class="cls-97" d="M291.5,84.7c-.7-12.8-11.3-23.1-24.3-23.1s-23.6,10.2-24.3,23.1c-8.6.7-15.3,7.9-15.3,16.7v.3c0,9.2,7.4,16.8,16.8,16.8h45.8c9.2,0,16.8-7.4,16.8-16.8v-.3c0-8.8-6.7-15.9-15.3-16.7h-.1Z"/>
      <path class="cls-116" d="M230.4,102.2l.3,3.4,3.5-.3c.3.8.7,1.6,1.2,2.2l-2.2,2.7,2.6,2.1,2.2-2.7c.7.4,1.6.6,2.4.7l.3,3.5,3.4-.3-.3-3.5c.8-.3,1.6-.7,2.2-1.2l2.7,2.2,2.1-2.6-2.7-2.2c.4-.7.6-1.6.7-2.4l3.5-.3-.3-3.4-3.5.3c-.3-.8-.7-1.6-1.2-2.2l2.2-2.7-2.6-2.1-2.2,2.7c-.7-.4-1.6-.6-2.4-.7l-.3-3.5-3.4.3.3,3.5c-.8.3-1.6.7-2.2,1.2l-2.7-2.2-2.1,2.6,2.7,2.2c-.4.7-.6,1.6-.7,2.4l-3.5.3h0ZM240.3,99.1c2.6-.8,5.2,1.3,4.9,4-.2,1.4-1.2,2.6-2.5,3-2.6.8-5.2-1.3-4.9-4,.2-1.4,1.2-2.6,2.5-3Z"/>
      <path class="cls-116" d="M273.2,97.5l-.5,4.5,4.6.5c.1,1.2.4,2.2.9,3.2l-3.7,2.9,2.7,3.6,3.7-2.9c.8.7,1.9,1.3,2.9,1.7l-.5,4.6,4.5.5.5-4.6c1.2-.1,2.2-.4,3.2-.9l2.9,3.7,3.6-2.7-2.9-3.7c.7-.8,1.3-1.9,1.7-2.9l4.6.5.5-4.5-4.6-.5c-.1-1.2-.4-2.2-.9-3.2l3.7-2.9-2.7-3.6-3.7,2.9c-.8-.7-1.9-1.3-2.9-1.7l.5-4.6-4.5-.5-.5,4.6c-1.2,0-2.2.4-3.2.9l-2.9-3.7-3.6,2.7,2.9,3.7c-.7.8-1.3,1.9-1.7,2.9,0,0-4.6-.5-4.6-.5ZM286.7,96.6c3.7-.3,6.4,3.1,5.2,6.7-.6,1.8-2.3,3-4.1,3.2-3.7.3-6.4-3.1-5.2-6.7.6-1.8,2.3-3,4.1-3.2Z"/>
      <path class="cls-116" d="M272,71.3l-.8,2.1,2.1.8v1.7l-2.1.9.8,2,2.1-.9c.3.4.7.8,1.2,1.2l-.8,2.1,2.1.8.8-2.1h1.7l.9,2.1,2-.8-.9-2.1c.4-.3.8-.7,1.2-1.2l2.1.8.8-2.1-2.1-.8v-1.7l2.1-.9-.8-2-2.1.9c-.3-.4-.7-.8-1.2-1.2l.8-2.1-2.1-.8-.8,2.1h-1.7l-.9-2.1-2,.8.9,2.1c-.4.3-.8.7-1.2,1.2l-2.1-.8ZM278.5,72.6c1.8.3,2.6,2.3,1.6,3.9-.5.7-1.5,1.2-2.4,1-1.8-.3-2.6-2.3-1.6-3.9.5-.7,1.5-1.2,2.4-1Z"/>
      <path class="cls-116" d="M256.8,104.9l-.8,2.1,2.1.8v1.7l-2.1.9.8,2,2.1-.9c.3.4.7.8,1.2,1.2l-.8,2.1,2.1.8.8-2.1h1.7l.9,2.1,2-.8-.9-2.1c.4-.3.8-.7,1.2-1.2l2.1.8.8-2.1-2.1-.8v-1.7l2.1-.9-.8-2-2.1.9c-.3-.4-.7-.8-1.2-1.2l.8-2.1-2.1-.8-.8,2.1h-1.7l-.9-2.1-2,.8.9,2.1c-.4.3-.8.7-1.2,1.2l-2.1-.8ZM263.3,106.1c1.8.3,2.6,2.3,1.6,3.9-.5.7-1.5,1.2-2.4,1-1.8-.3-2.6-2.3-1.6-3.9.5-.7,1.5-1.2,2.4-1Z"/>
      <path class="cls-116" d="M249.5,76.4l-2.1,3.6,3.7,2.2c-.3,1-.5,2-.4,3l-4.2,1,1,4,4.2-1c.4.9,1,1.8,1.8,2.5l-2.2,3.7,3.6,2.1,2.2-3.7c1,.3,2,.5,3,.4l1,4.2,4-1-1-4.2c.9-.4,1.8-1,2.5-1.8l3.7,2.2,2.1-3.6-3.7-2.2c.3-1,.5-2,.4-3l4.2-1-1-4-4.2,1c-.4-.9-1-1.8-1.8-2.5l2.2-3.7-3.6-2.1-2.2,3.7c-1-.3-2-.5-3-.4l-1-4.2-4,1,1,4.2c-.9.4-1.8,1-2.5,1.8l-3.7-2.2h0ZM261.2,80.7c3.2,1,4.2,5.1,1.9,7.5-1.2,1.3-3,1.7-4.7,1.2-3.2-1-4.2-5.1-1.9-7.5,1.2-1.3,3-1.7,4.7-1.2Z"/>
    </g>
    <g>
      <path class="cls-97" d="M92.3,97.2c-.4-8-7-14.4-15.2-14.4s-14.7,6.4-15.2,14.4c-5.3.4-9.5,4.9-9.5,10.4v.2c0,5.8,4.7,10.4,10.4,10.4h28.6c5.8,0,10.4-4.7,10.4-10.4v-.2c0-5.4-4.2-10-9.5-10.4h.1Z"/>
      <path class="cls-116" d="M54.3,108.1l.2,2.1,2.2-.2c.2.5.4.9.7,1.4l-1.4,1.7,1.7,1.4,1.4-1.7c.4.2.9.4,1.5.4l.2,2.2,2.1-.2-.2-2.2c.5-.2.9-.4,1.4-.7l1.7,1.4,1.4-1.7-1.7-1.4c.2-.4.4-.9.4-1.5l2.2-.2-.2-2.1-2.2.2c-.2-.5-.4-.9-.7-1.4l1.4-1.7-1.7-1.4-1.4,1.7c-.4-.2-.9-.4-1.5-.4l-.2-2.2-2.1.2.2,2.2c-.5.2-.9.4-1.4.7l-1.7-1.4-1.4,1.7,1.7,1.4c-.2.4-.4.9-.4,1.5l-2.2.2h0ZM60.4,106.3c1.7-.5,3.2.7,3,2.5,0,.8-.7,1.7-1.6,1.9-1.7.5-3.2-.7-3-2.5,0-.8.7-1.7,1.6-1.9Z"/>
      <path class="cls-116" d="M80.9,105.3l-.3,2.8,2.9.3c0,.7.3,1.4.5,2l-2.3,1.8,1.8,2.2,2.3-1.8c.5.4,1.2.8,1.8,1l-.3,2.9,2.8.3.3-2.9c.7,0,1.4-.3,2-.5l1.8,2.3,2.2-1.8-1.8-2.3c.4-.5.8-1.2,1-1.8l2.9.3.3-2.8-2.9-.3c0-.7-.3-1.4-.5-2l2.3-1.8-1.8-2.2-2.3,1.8c-.5-.4-1.2-.8-1.8-1l.3-2.9-2.8-.3-.3,2.9c-.7,0-1.4.3-2,.5l-1.8-2.3-2.2,1.8,1.8,2.3c-.4.5-.8,1.2-1,1.8,0,0-2.9-.3-2.9-.3ZM89.4,104.7c2.3-.2,4,2,3.2,4.2-.4,1-1.4,1.9-2.6,2-2.3.2-4-2-3.2-4.2.4-1,1.4-1.9,2.6-2Z"/>
      <path class="cls-116" d="M80.2,88.9l-.5,1.3,1.4.5v1l-1.4.5.5,1.3,1.4-.5c.2.3.4.5.7.7l-.5,1.4,1.3.5.5-1.4h1l.5,1.4,1.3-.5-.5-1.4c.3-.2.5-.4.7-.7l1.4.5.5-1.3-1.4-.5v-1l1.4-.5-.5-1.3-1.4.5c-.2-.3-.4-.5-.7-.7l.5-1.4-1.3-.5-.5,1.4h-1l-.5-1.4-1.3.5.5,1.4c-.3.2-.5.4-.7.7l-1.4-.5ZM84.3,89.8c1.2.2,1.7,1.5,1,2.4-.3.4-.9.7-1.5.6-1.2-.2-1.7-1.5-1-2.4.3-.5.9-.7,1.5-.6Z"/>
      <path class="cls-116" d="M70.7,109.8l-.5,1.3,1.4.5v1l-1.4.5.5,1.3,1.4-.5c.2.3.4.5.7.7l-.5,1.4,1.3.5.5-1.4h1l.5,1.4,1.3-.5-.5-1.4c.3-.2.5-.4.7-.7l1.4.5.5-1.3-1.4-.5v-1l1.4-.5-.5-1.3-1.4.5c-.2-.3-.4-.5-.7-.7l.5-1.4-1.3-.5-.5,1.4h-1l-.5-1.4-1.3.5.5,1.4c-.3.2-.5.4-.7.7,0,0-1.4-.5-1.4-.5ZM74.8,110.6c1.2.2,1.7,1.5,1,2.4-.3.4-.9.7-1.5.6-1.2-.2-1.7-1.5-1-2.4.3-.5.9-.7,1.5-.6Z"/>
      <path class="cls-116" d="M66.1,92.1l-1.4,2.2,2.3,1.4c-.2.6-.3,1.3-.3,1.9l-2.6.6.6,2.5,2.6-.6c.3.5.6,1,1.2,1.6l-1.4,2.3,2.2,1.4,1.4-2.3c.6.2,1.3.3,1.9.3l.6,2.6,2.5-.6-.6-2.6c.5-.3,1-.6,1.6-1.2l2.3,1.4,1.4-2.2-2.3-1.4c.2-.6.3-1.3.3-1.9l2.6-.6-.6-2.5-2.6.6c-.3-.5-.6-1-1.2-1.6l1.4-2.3-2.2-1.4-1.4,2.3c-.6-.2-1.3-.3-1.9-.3l-.6-2.6-2.5.6.6,2.6c-.5.3-1,.6-1.6,1.2l-2.3-1.4ZM73.5,94.8c2,.6,2.6,3.1,1.2,4.7-.7.7-1.9,1-2.9.7-2-.6-2.6-3.1-1.2-4.7.7-.7,1.9-1,2.9-.7Z"/>
    </g>
    <g>
      <path class="cls-116" d="M298.4,211.7h-74.1c-.6,0-1.3-.5-1.3-1.3v-53c0-.6.5-1.3,1.3-1.3h74.1c.6,0,1.3.5,1.3,1.3v53c0,.6-.5,1.3-1.3,1.3h0Z"/>
      <path class="cls-16" d="M297.8,211.1h-72.9c-.6,0-1.2-.5-1.2-1.2v-49.5h75.3v49.5c0,.6-.5,1.2-1.2,1.2h-.1Z"/>
      <path class="cls-12" d="M297.9,162l-74.2-.6v-.8h75.3v49.5c0,.6-1.2-48-1.2-48h0Z"/>
      <ellipse class="cls-119" cx="261.6" cy="157" rx="37.5" ry=".3"/>
      <polygon class="cls-18" points="228.1 164.5 227.6 165 228.5 165.9 227.6 166.7 228.1 167.2 229.5 165.9 228.1 164.5"/>
      <polygon class="cls-18" points="230 167.9 229.5 168.3 230.3 169.1 229.5 169.9 230 170.5 231.3 169.1 230 167.9"/>
      <polygon class="cls-18" points="228.1 174.3 227.6 174.8 228.5 175.6 227.6 176.5 228.1 177 229.5 175.6 228.1 174.3"/>
      <polygon class="cls-18" points="230.9 171.1 230.4 171.5 231.3 172.4 230.4 173.2 230.9 173.7 232.2 172.4 230.9 171.1"/>
      <polygon class="cls-18" points="230.9 177.6 230.4 178 231.3 178.9 230.4 179.8 230.9 180.2 232.2 178.9 230.9 177.6"/>
      <rect class="cls-104" x="232.1" y="165.3" width="10.9" height="1.2"/>
      <rect class="cls-97" x="251.1" y="165.3" width="10.9" height="1.2"/>
      <rect class="cls-104" x="232.9" y="168.6" width="20" height="1.2"/>
      <rect class="cls-104" x="254.1" y="168.6" width="20" height="1.2"/>
      <rect class="cls-104" x="266.2" y="171.8" width="20" height="1.2"/>
      <rect class="cls-97" x="230.2" y="175.1" width="19.3" height="1.2"/>
      <rect class="cls-104" x="233.6" y="171.8" width="30.6" height="1.2"/>
      <rect class="cls-100" x="257.6" y="175.1" width="30.6" height="1.2"/>
      <rect class="cls-97" x="254.4" y="178.3" width="30.6" height="1.2"/>
      <rect class="cls-97" x="232.9" y="178.3" width="20" height="1.2"/>
      <rect class="cls-100" x="244.3" y="165.3" width="4.9" height="1.2"/>
      <rect class="cls-97" x="263.8" y="165.3" width="4.9" height="1.2"/>
      <rect class="cls-97" x="270.5" y="165.3" width="4.9" height="1.2"/>
      <rect class="cls-104" x="275.4" y="168.6" width="4.9" height="1.2"/>
      <rect class="cls-100" x="287.5" y="171.8" width="4.9" height="1.2"/>
      <rect class="cls-104" x="251.1" y="175.1" width="4.9" height="1.2"/>
      <rect class="cls-104" x="281.6" y="168.6" width="4.9" height="1.2"/>
      <polygon class="cls-18" points="228.1 180.8 227.6 181.4 228.5 182.2 227.6 183 228.1 183.5 229.5 182.2 228.1 180.8"/>
      <polygon class="cls-18" points="230 184.1 229.5 184.6 230.3 185.5 229.5 186.3 230 186.8 231.3 185.5 230 184.1"/>
      <polygon class="cls-18" points="228.1 190.6 227.6 191.1 228.5 192 227.6 192.8 228.1 193.3 229.5 192 228.1 190.6"/>
      <polygon class="cls-18" points="230.9 187.3 230.4 187.9 231.3 188.7 230.4 189.5 230.9 190.1 232.2 188.7 230.9 187.3"/>
      <polygon class="cls-18" points="230.9 193.8 230.4 194.4 231.3 195.2 230.4 196 230.9 196.6 232.2 195.2 230.9 193.8"/>
      <rect class="cls-104" x="232.1" y="181.6" width="10.9" height="1.2"/>
      <rect class="cls-104" x="251.1" y="181.6" width="10.9" height="1.2"/>
      <rect class="cls-117" x="232.9" y="184.9" width="20" height="1.2"/>
      <rect class="cls-104" x="254.1" y="184.9" width="20" height="1.2"/>
      <rect class="cls-104" x="266.2" y="188.2" width="20" height="1.2"/>
      <rect class="cls-104" x="230.2" y="191.4" width="19.3" height="1.2"/>
      <rect class="cls-104" x="233.6" y="188.2" width="30.6" height="1.2"/>
      <rect class="cls-117" x="257.6" y="191.4" width="30.6" height="1.2"/>
      <rect class="cls-97" x="254.4" y="194.7" width="30.6" height="1.2"/>
      <rect class="cls-104" x="232.9" y="194.7" width="20" height="1.2"/>
      <rect class="cls-104" x="244.3" y="181.6" width="4.9" height="1.2"/>
      <rect class="cls-104" x="263.8" y="181.6" width="4.9" height="1.2"/>
      <rect class="cls-104" x="270.5" y="181.6" width="4.9" height="1.2"/>
      <rect class="cls-104" x="275.4" y="184.9" width="4.9" height="1.2"/>
      <rect class="cls-104" x="287.5" y="188.2" width="4.9" height="1.2"/>
      <rect class="cls-97" x="251.1" y="191.4" width="4.9" height="1.2"/>
      <polygon class="cls-18" points="228.1 200.2 227.6 200.8 228.5 201.6 227.6 202.4 228.1 203 229.5 201.6 228.1 200.2"/>
      <polygon class="cls-18" points="230.9 197 230.4 197.5 231.3 198.3 230.4 199.2 230.9 199.7 232.2 198.3 230.9 197"/>
      <polygon class="cls-18" points="230.9 203.5 230.4 204 231.3 204.8 230.4 205.7 230.9 206.2 232.2 204.8 230.9 203.5"/>
      <rect class="cls-104" x="266.2" y="197.8" width="20" height="1.2"/>
      <rect class="cls-117" x="230.2" y="201.1" width="19.3" height="1.2"/>
      <rect class="cls-104" x="233.6" y="197.8" width="30.6" height="1.2"/>
      <rect class="cls-104" x="257.6" y="201.1" width="30.6" height="1.2"/>
      <rect class="cls-97" x="254.4" y="204.3" width="30.6" height="1.2"/>
      <rect class="cls-104" x="232.9" y="204.3" width="20" height="1.2"/>
      <rect class="cls-104" x="287.5" y="197.8" width="4.9" height="1.2"/>
      <rect class="cls-117" x="251.1" y="201.1" width="4.9" height="1.2"/>
      <rect class="cls-104" x="281.6" y="184.9" width="4.9" height="1.2"/>
      <path class="cls-72" d="M287.1,158.7c0,.5-.4,1-1,1s-1-.4-1-1,.4-1,1-1,1,.4,1,1Z"/>
      <path class="cls-22" d="M286.8,158.7c0,.4-.3.7-.7.7s-.7-.3-.7-.7.3-.7.7-.7.7.3.7.7Z"/>
      <path class="cls-72" d="M290.8,158.7c0,.5-.4,1-1,1s-1-.4-1-1,.4-1,1-1,1,.4,1,1Z"/>
      <path class="cls-80" d="M290.6,158.7c0,.4-.3.7-.7.7s-.7-.3-.7-.7.3-.7.7-.7.7.3.7.7Z"/>
      <path class="cls-72" d="M294.6,158.7c0,.5-.4,1-1,1s-1-.4-1-1,.4-1,1-1,1,.4,1,1Z"/>
      <path class="cls-77" d="M294.2,158.7c0,.4-.3.7-.7.7s-.7-.3-.7-.7.3-.7.7-.7.7.3.7.7Z"/>
    </g>
    <g>
      <rect class="cls-57" x="266.7" y="192.6" width="52.7" height="36.5"/>
      <rect class="cls-66" x="267.3" y="193" width="51.5" height=".6"/>
      <rect class="cls-97" x="267.3" y="196.4" width="51.5" height="32"/>
      <rect class="cls-16" x="270.3" y="200.1" width="21.3" height="24.6"/>
      <rect class="cls-114" x="293" y="200.1" width="23.9" height="1.2"/>
      <rect class="cls-114" x="293" y="202.5" width="23.9" height="1.2"/>
      <rect class="cls-114" x="271.8" y="202.5" width="7.1" height="1.2"/>
      <rect class="cls-114" x="271.8" y="207.3" width="11.5" height="1.2"/>
      <rect class="cls-114" x="271.8" y="214.4" width="11.5" height="1.2"/>
      <rect class="cls-114" x="271.8" y="221.5" width="11.5" height="1.2"/>
      <rect class="cls-117" x="271.8" y="212" width="7.9" height="1.2"/>
      <rect class="cls-117" x="284.8" y="207.3" width="5.3" height="1.2"/>
      <rect class="cls-117" x="284.8" y="214.4" width="5.3" height="1.2"/>
      <rect class="cls-114" x="286.5" y="216.8" width="3.7" height="1.2"/>
      <rect class="cls-114" x="284.6" y="221.5" width="5.6" height="1.2"/>
      <rect class="cls-117" x="271.8" y="204.8" width="13.4" height="1.2"/>
      <rect class="cls-117" x="271.8" y="216.8" width="13.4" height="1.2"/>
      <rect class="cls-114" x="271.8" y="209.7" width="5.6" height="1.2"/>
      <rect class="cls-114" x="278.5" y="209.7" width="11.6" height="1.2"/>
      <rect class="cls-114" x="271.8" y="219.1" width="5.6" height="1.2"/>
      <rect class="cls-114" x="278.5" y="219.1" width="11.6" height="1.2"/>
      <rect class="cls-114" x="280.6" y="202.5" width="7.1" height="1.2"/>
      <rect class="cls-114" x="293" y="204.8" width="23.9" height="1.2"/>
      <rect class="cls-114" x="293" y="207.3" width="23.9" height="1.2"/>
      <rect class="cls-114" x="293" y="209.7" width="12.7" height="1.2"/>
      <rect class="cls-114" x="293" y="214.4" width="23.9" height="1.2"/>
      <rect class="cls-114" x="293" y="216.8" width="12.7" height="1.2"/>
      <rect class="cls-114" x="293" y="219.1" width="12.7" height="1.2"/>
      <rect class="cls-114" x="293" y="221.5" width="12.7" height="1.2"/>
      <rect class="cls-114" x="293" y="223.8" width="12.7" height="1.2"/>
    </g>
    <g>
      <path class="cls-30" d="M313.4,235l-3.7,3.7c-.4.4-.4,1.2,0,1.6l.2.2c.4.4,1.2.4,1.6,0h0l11.7,11.7c.7.7,2,.7,2.8,0l.8-.8c.7-.7.7-2,0-2.8l-11.7-11.7c.4-.4.4-1.2,0-1.6l-.2-.2c-.4-.4-1.2-.4-1.6,0Z"/>
      <path class="cls-44" d="M324.5,249.8h0c-.1.1-.5,0-.7-.2l-9.4-9.4c-.2-.2-.3-.5-.2-.7h0c.1-.1.5,0,.7.2l9.4,9.4c.2.2.3.5.2.7Z"/>
      <path class="cls-44" d="M325.7,248.6h0c-.1.1-.5,0-.7-.2l-9.4-9.3c-.2-.2-.3-.5-.2-.7h0c.1-.1.5,0,.7.2l9.4,9.4c.2.2.3.5.2.7h0Z"/>
      <path class="cls-44" d="M323.4,250.9h0c-.1.1-.5,0-.7-.2l-9.4-9.3c-.2-.2-.3-.5-.2-.7h0c.1-.1.5,0,.7.2l9.4,9.4c.2.2.3.5.2.7h0Z"/>
      <polygon class="cls-61" points="294.7 219 293.7 219.8 295.3 222.3 297.3 223.4 311.1 237.2 312.1 236.4 298.1 222.4 297.1 220.6 294.7 219"/>
      <path class="cls-23" d="M313.9,235.2s-.8.9-1.9,2.1c-1.2,1.2-2.1,2-2.1,1.9s.8-.9,1.9-2.1c1.2-1.2,2.1-2,2.1-1.9Z"/>
      <polygon class="cls-48" points="294 219.8 294.7 219.3 296.9 220.7 297.8 222.7 311.6 236.5 297.7 222.8 296.8 220.8 294.7 219.5 294 219.8"/>
    </g>
    <g>
      <path class="cls-116" d="M208,195.1h-76.7c-.7,0-1.3-.5-1.3-1.3v-54.8c0-.7.5-1.3,1.3-1.3h76.7c.7,0,1.3.5,1.3,1.3v54.8c0,.7-.5,1.3-1.3,1.3Z"/>
      <path class="cls-97" d="M207.4,194.6h-75.4c-.6,0-1.3-.5-1.3-1.3v-51.1h78v51.1c0,.7-.5,1.3-1.3,1.3h0Z"/>
      <path class="cls-48" d="M207.5,143.6l-76.8-.6v-.8h78v51.1c0,.7-1.2-49.7-1.2-49.7h0Z"/>
      <ellipse class="cls-119" cx="169.8" cy="138.5" rx="38.9" ry=".3"/>
      <polygon class="cls-18" points="135.2 146.4 134.8 146.8 135.6 147.7 134.8 148.6 135.2 149.1 136.6 147.7 135.2 146.4"/>
      <polygon class="cls-18" points="137.2 149.7 136.6 150.2 137.6 151.1 136.6 151.9 137.2 152.4 138.5 151.1 137.2 149.7"/>
      <polygon class="cls-18" points="135.2 156.4 134.8 157 135.6 157.8 134.8 158.7 135.2 159.2 136.6 157.8 135.2 156.4"/>
      <polygon class="cls-18" points="138.1 153.1 137.6 153.6 138.5 154.4 137.6 155.4 138.1 155.8 139.5 154.4 138.1 153.1"/>
      <polygon class="cls-18" points="138.1 159.8 137.6 160.3 138.5 161.1 137.6 162.1 138.1 162.6 139.5 161.1 138.1 159.8"/>
      <rect class="cls-104" x="139.3" y="147.1" width="11.2" height="1.2"/>
      <rect class="cls-104" x="159.1" y="147.1" width="11.2" height="1.2"/>
      <rect class="cls-104" x="140.2" y="150.5" width="20.7" height="1.2"/>
      <rect class="cls-104" x="162.1" y="150.5" width="20.7" height="1.2"/>
      <rect class="cls-104" x="174.6" y="153.9" width="20.7" height="1.2"/>
      <rect class="cls-104" x="137.4" y="157.3" width="19.9" height="1.2"/>
      <rect class="cls-104" x="140.8" y="153.9" width="31.6" height="1.2"/>
      <rect class="cls-104" x="165.8" y="157.3" width="31.6" height="1.2"/>
      <rect class="cls-104" x="162.4" y="160.6" width="31.6" height="1.2"/>
      <rect class="cls-104" x="140.2" y="160.6" width="20.7" height="1.2"/>
      <rect class="cls-104" x="151.9" y="147.1" width="5.1" height="1.2"/>
      <rect class="cls-104" x="172.1" y="147.1" width="5.1" height="1.2"/>
      <rect class="cls-104" x="179" y="147.1" width="5.1" height="1.2"/>
      <rect class="cls-104" x="184.1" y="150.5" width="5.1" height="1.2"/>
      <rect class="cls-104" x="196.7" y="153.9" width="5.1" height="1.2"/>
      <rect class="cls-104" x="159.1" y="157.3" width="5.1" height="1.2"/>
      <rect class="cls-104" x="190.6" y="150.5" width="5.1" height="1.2"/>
      <polygon class="cls-18" points="135.2 163.2 134.8 163.7 135.6 164.6 134.8 165.4 135.2 166 136.6 164.6 135.2 163.2"/>
      <polygon class="cls-18" points="137.2 166.6 136.6 167.1 137.6 168 136.6 168.9 137.2 169.3 138.5 168 137.2 166.6"/>
      <polygon class="cls-18" points="135.2 173.3 134.8 173.8 135.6 174.7 134.8 175.6 135.2 176 136.6 174.7 135.2 173.3"/>
      <polygon class="cls-18" points="138.1 169.9 137.6 170.5 138.5 171.3 137.6 172.3 138.1 172.7 139.5 171.3 138.1 169.9"/>
      <polygon class="cls-18" points="138.1 176.7 137.6 177.2 138.5 178 137.6 179 138.1 179.5 139.5 178 138.1 176.7"/>
      <rect class="cls-104" x="139.3" y="164" width="11.2" height="1.2"/>
      <rect class="cls-104" x="159.1" y="164" width="11.2" height="1.2"/>
      <rect class="cls-104" x="140.2" y="167.4" width="20.7" height="1.2"/>
      <rect class="cls-104" x="162.1" y="167.4" width="20.7" height="1.2"/>
      <rect class="cls-104" x="174.6" y="170.8" width="20.7" height="1.2"/>
      <rect class="cls-104" x="137.4" y="174.1" width="19.9" height="1.2"/>
      <rect class="cls-104" x="140.8" y="170.8" width="31.6" height="1.2"/>
      <rect class="cls-104" x="165.8" y="174.1" width="31.6" height="1.2"/>
      <rect class="cls-104" x="162.4" y="177.5" width="31.6" height="1.2"/>
      <rect class="cls-104" x="140.2" y="177.5" width="20.7" height="1.2"/>
      <rect class="cls-104" x="151.9" y="164" width="5.1" height="1.2"/>
      <rect class="cls-104" x="172.1" y="164" width="5.1" height="1.2"/>
      <rect class="cls-104" x="179" y="164" width="5.1" height="1.2"/>
      <rect class="cls-104" x="184.1" y="167.4" width="5.1" height="1.2"/>
      <rect class="cls-104" x="196.7" y="170.8" width="5.1" height="1.2"/>
      <rect class="cls-104" x="159.1" y="174.1" width="5.1" height="1.2"/>
      <polygon class="cls-18" points="135.2 183.3 134.8 183.8 135.6 184.7 134.8 185.6 135.2 186.1 136.6 184.7 135.2 183.3"/>
      <polygon class="cls-18" points="138.1 179.9 137.6 180.4 138.5 181.3 137.6 182.2 138.1 182.7 139.5 181.3 138.1 179.9"/>
      <polygon class="cls-18" points="138.1 186.7 137.6 187.1 138.5 188.1 137.6 188.9 138.1 189.4 139.5 188.1 138.1 186.7"/>
      <rect class="cls-104" x="174.6" y="180.7" width="20.7" height="1.2"/>
      <rect class="cls-104" x="137.4" y="184.1" width="19.9" height="1.2"/>
      <rect class="cls-104" x="140.8" y="180.7" width="31.6" height="1.2"/>
      <rect class="cls-104" x="165.8" y="184.1" width="31.6" height="1.2"/>
      <rect class="cls-104" x="162.4" y="187.4" width="31.6" height="1.2"/>
      <rect class="cls-104" x="140.2" y="187.4" width="20.7" height="1.2"/>
      <rect class="cls-104" x="196.7" y="180.7" width="5.1" height="1.2"/>
      <rect class="cls-104" x="159.1" y="184.1" width="5.1" height="1.2"/>
      <rect class="cls-104" x="190.6" y="167.4" width="5.1" height="1.2"/>
      <path class="cls-72" d="M196.3,140.3c0,.6-.5,1-1,1s-1-.5-1-1,.5-1,1-1,1,.5,1,1Z"/>
      <path class="cls-22" d="M196,140.3c0,.4-.3.8-.8.8s-.8-.3-.8-.8.3-.8.8-.8.8.3.8.8Z"/>
      <circle class="cls-72" cx="199" cy="140.3" r="1"/>
      <path class="cls-80" d="M199.8,140.3c0,.4-.3.8-.8.8s-.8-.3-.8-.8.3-.8.8-.8.8.3.8.8Z"/>
      <path class="cls-72" d="M203.9,140.3c0,.6-.5,1-1,1s-1-.5-1-1,.5-1,1-1,1,.5,1,1Z"/>
      <path class="cls-77" d="M203.6,140.3c0,.4-.3.8-.8.8s-.8-.3-.8-.8.3-.8.8-.8.8.3.8.8Z"/>
    </g>
    <path class="cls-97" d="M118.3,111.8l-.7,3.9,4.1.7c0,1,.2,2,.6,2.9l-3.5,2.3,2.2,3.2,3.5-2.3c.7.6,1.6,1.3,2.5,1.6l-.7,4.1,3.9.7.7-4.1c1,0,2-.2,2.9-.6l2.3,3.5,3.2-2.2-2.3-3.5c.6-.7,1.3-1.6,1.6-2.5l4.1.7.7-3.9-4.1-.7c0-1-.2-2-.6-2.9l3.5-2.3-2.2-3.2-3.5,2.3c-.7-.6-1.6-1.3-2.5-1.6l.7-4.1-3.9-.7-.7,4.1c-1,0-2,.2-2.9.6l-2.3-3.5-3.2,2.2,2.3,3.5c-.6.7-1.3,1.6-1.6,2.5l-4.1-.7h0ZM130.3,111.8c3.2,0,5.4,3.1,4.2,6.2-.6,1.5-2.2,2.5-3.8,2.6-3.2,0-5.4-3.1-4.2-6.2.6-1.5,2.2-2.5,3.8-2.6Z"/>
    <path class="cls-97" d="M104.3,132.2l-.4,2.2,2.3.4c0,.5,0,1.2.3,1.7l-1.9,1.4,1.3,1.9,1.9-1.4c.4.4.8.7,1.4.9l-.4,2.3,2.2.4.4-2.3c.5,0,1.2-.1,1.7-.3l1.4,1.9,1.9-1.3-1.4-1.9c.4-.4.7-.8.9-1.4l2.3.4.4-2.2-2.3-.4c0-.5,0-1.2-.3-1.7l1.9-1.4-1.3-1.9-1.9,1.4c-.4-.4-.8-.7-1.4-.9l.4-2.3-2.2-.4-.4,2.3c-.5,0-1.2.1-1.7.3l-1.4-1.9-1.9,1.3,1.4,1.9c-.4.4-.7.8-.9,1.4l-2.3-.4ZM111.1,132.2c1.9,0,3.1,1.8,2.4,3.5-.4.8-1.3,1.5-2.2,1.5-1.9,0-3.1-1.8-2.4-3.5.3-.8,1.3-1.5,2.2-1.5Z"/>
    <g>
      <polygon class="cls-81" points="245.4 143.6 269.3 143.5 273.7 148.7 280.7 145.2 280.7 143.1 274.4 143.1 273.6 141.3 274.5 139.5 280.7 139.6 280.8 137.6 273.8 133.9 269.4 138.9 245.4 138.3 240.2 132.1 231.9 136.3 231.8 138.7 239.2 138.7 240.3 140.9 239.2 143.1 231.8 143 231.8 145.4 240 149.7 245.4 143.6"/>
      <polygon class="cls-97" points="280.4 137.7 273.8 134.4 269.5 139.3 245.4 138.8 240.2 132.5 245.2 139.3 269.8 140 274.1 135.1 280.4 137.7"/>
      <polygon class="cls-114" points="273.3 141.6 274.3 143.6 280.4 143.6 274 144.3 273.3 141.6"/>
      <polygon class="cls-79" points="239.9 149.2 245.2 142.9 269.5 142.9 273.8 148 280.4 145 273.8 147.6 269.8 142.1 244.6 142.1 239.8 148.6 232.1 145.2 239.9 149.2"/>
    </g>
    <g>
      <g>
        <g>
          <rect class="cls-20" x="116.2" y="362.5" width="214.5" height="4.5"/>
          <rect class="cls-42" x="116.2" y="364.9" width="214.5" height="2.2"/>
        </g>
        <g>
          <rect class="cls-20" x="119.1" y="367.1" width="207.5" height="16.7"/>
          <rect class="cls-106" x="119.1" y="367.1" width="207.5" height="11.2"/>
        </g>
        <rect class="cls-20" x="119.4" y="383.8" width="10.7" height="65.5"/>
        <rect class="cls-42" x="119.4" y="383.8" width="10.7" height="11.1"/>
        <rect class="cls-20" x="315.9" y="383.8" width="10.7" height="65.5"/>
        <rect class="cls-42" x="315.9" y="383.8" width="10.7" height="11.1"/>
        <rect class="cls-20" x="130" y="383.8" width="185.9" height="65.5"/>
        <polygon class="cls-106" points="130 449.3 132.5 399.4 312.9 399.4 315.9 449.3 315.9 383.8 130 383.8 130 449.3"/>
      </g>
      <g>
        <g>
          <g>
            <rect class="cls-91" x="221.1" y="305.9" width="10.1" height="14.5"/>
            <path class="cls-109" d="M232,313.8c-.3,0-.6-.3-.8,0l-4.2,5.2c-.4.4-1,.4-1.5,0l-4.4-5.1c-.2-.2-20,3-20.4,6.7,0,0-3.9,5-4,15.8h58.9c.1-10.3-4-16.1-4-16.1-1.2-3.6-19.5-6.4-19.5-6.4h-.1Z"/>
            <path class="cls-109" d="M255.6,323.6l3.7,29.7-14.7,1.2,3,8.3h15.8c2.3,0,6.4-2.7,4.9-7.9l-12.9-31.2h.1Z"/>
            <path class="cls-109" d="M196.8,323.6l-3.7,29.7,14.7,1.2-3,8.3h-15.8c-2.3,0-6.4-2.7-4.9-7.9l12.9-31.2h-.1Z"/>
            <path class="cls-4" d="M227.3,284.4s-12.6,3.1-15.4,5.6c-2.2,4.1,2.7,18.3,6.1,18.3h16.1c3.4,0,9.1-15.2,6.2-18.2-3.7-2.5-13-5.7-13-5.7Z"/>
            <path class="cls-27" d="M212.1,290.5c-1.9.4-3.1,2.4-2.6,4.6.4,2.1,2.3,3.6,4.3,3.1,1.9-.4.3-8.2-1.6-7.8h-.1Z"/>
            <path class="cls-27" d="M239.9,290.5c-1.9-.4-3.6,7.3-1.6,7.8,1.9.4,3.8-1,4.3-3.1.4-2.1-.7-4.2-2.6-4.6h-.1Z"/>
            <path class="cls-110" d="M226.5,276.3c-10.8,0-13.4,9.1-13.4,9.1,0,0-2.9,27,13.1,27s13.3-27.2,13.3-27.2c0,0-.6-8.9-13-8.9Z"/>
            <rect class="cls-115" x="232.7" y="326.6" width="14.7" height="1.4" transform="translate(-1.1 .8) rotate(-.2)"/>
            <path class="cls-4" d="M238.5,293.3h0Z"/>
            <path class="cls-4" d="M226.2,272c-19,0-14.9,18.1-14.9,18.7,1.3-.3,2.7,2.2,2.7,2.2l.5-9.4s.5-4.6,5.6-2.9c1.9,3.9,10.7,3.7,12.3,0,4.2-1.7,5,2.9,5,2.9,0,0,1,9.6,1,10,.6-2.6,2.5-2.4,2.5-2.4,0,0,4.1-19-14.9-19h.1Z"/>
          </g>
          <g>
            <polygon class="cls-53" points="224.4 293.5 224.4 294.5 228 294.5 228 293.5 224.4 293.5"/>
            <g>
              <path class="cls-103" d="M236,292.3h-6.8c-.6,0-1.2.5-1.2,1.2l.6,3.7c0,.6.5,1.2,1.2,1.2h6.2c.6,0,1.2-.5,1.2-1.2v-3.7c0-.6-.5-1.2-1.2-1.2Z"/>
              <path class="cls-82" d="M236,292.3h-6.8l6.9,6c.6,0,1.2-.5,1.2-1.2v-3.7c0-.6-.5-1.2-1.2-1.2h-.1Z"/>
              <path class="cls-88" d="M236,291.9h-6.8c-.8,0-1.6.7-1.6,1.7l.6,3.6c0,.8.7,1.6,1.6,1.6h6.2c.8,0,1.6-.7,1.6-1.6v-3.7c0-.8-.7-1.6-1.6-1.6ZM236.1,297.8h-6.2c-.4,0-.7-.3-.7-.8l-.6-3.6c0-.4.3-.7.7-.7h6.8c.4,0,.7.3.7.7v3.7c0,.4-.3.7-.7.7h0Z"/>
            </g>
            <g>
              <path class="cls-103" d="M223.2,292.3h-6.8c-.6,0-1.2.5-1.2,1.2v3.7c0,.6.5,1.2,1.2,1.2h6.2c.6,0,1.2-.5,1.2-1.2l.6-3.7c0-.6-.5-1.2-1.2-1.2Z"/>
              <path class="cls-82" d="M223.2,292.3h-6.8l6.2,6c.6,0,1.2-.5,1.2-1.2l.6-3.7c0-.6-.5-1.2-1.2-1.2Z"/>
              <path class="cls-88" d="M223.2,291.9h-6.8c-.8,0-1.6.7-1.6,1.6v3.7c0,.8.7,1.6,1.6,1.6h6.2c.8,0,1.6-.7,1.6-1.5l.6-3.8c0-.8-.7-1.6-1.6-1.6ZM223.3,297.2c0,.4-.3.7-.7.7h-6.2c-.4,0-.7-.3-.7-.7v-3.7c0-.4.3-.7.7-.7h6.8c.4,0,.7.3.7.6l-.6,3.8Z"/>
            </g>
            <path class="cls-53" d="M237.6,293.3v.9s1-1.8,1.3-1.8.2-.5,0-.7-1.3,1.5-1.3,1.5h0Z"/>
            <path class="cls-53" d="M213.6,291.8c-.2.2-.1.7,0,.7s1.3,1.8,1.3,1.8v-.9s-1-1.7-1.3-1.5h0Z"/>
          </g>
          <g>
            <path class="cls-48" d="M226.2,268.9h-.4c-10.6,0-19.3,8.9-19.3,19.8v9.2c0,.4.3.8.8.8s.8-.3.8-.8v-9.2c0-10.1,8-18.2,17.7-18.2h.4c9.7,0,17.7,8.2,17.7,18.2v9.2c0,.4.3.8.8.8s.8-.3.8-.8v-9.2c0-10.9-8.7-19.8-19.3-19.8h-.2Z"/>
            <path class="cls-46" d="M213.1,289.9c-.2-1.3-1.2-2.1-2.2-2h-.6c-1,.2-1.8,1.4-1.7,2.6l1.6,11.4c.2,1.3,1.2,2.1,2.2,2h.6c1-.2,1.8-1.4,1.7-2.6l-1.6-11.4Z"/>
            <path class="cls-97" d="M208.5,290.6c-2.9.4-4.9,3.1-4.6,6.2v.6c.5,3,3.1,5.2,6.1,4.8h0l-1.6-11.6h.1Z"/>
            <rect class="cls-97" x="204.5" y="295.9" width="1.8" height="1.7" transform="translate(-37.4 29.8) rotate(-7.6)"/>
            <path class="cls-46" d="M241.8,288.1h-.6c-1-.1-2,.8-2.1,2.1l-.8,11.5c0,1.3.7,2.3,1.8,2.4h.6c1,.1,2-.8,2.1-2.1l.8-11.5c0-1.3-.7-2.3-1.8-2.4Z"/>
            <path class="cls-97" d="M243.6,290.3h0l-.9,11.7h0c2.9.2,5.6-2.1,5.8-5.1v-.6c.3-3-1.9-5.8-4.8-6Z"/>
            <rect class="cls-97" x="246.4" y="295.9" width="1.7" height="1.8" transform="translate(-67.7 520.5) rotate(-85.6)"/>
          </g>
        </g>
        <g>
          <g>
            <path class="cls-97" d="M256.2,317h-60.1c-2.3,0-4.2,1.9-4.2,4.2v32.3c0,2.3,1.9,4.2,4.2,4.2h60.1c2.3,0,4.2-1.9,4.2-4.2v-32.3c0-2.3-1.9-4.2-4.2-4.2Z"/>
            <path class="cls-49" d="M230,328.4c0-.5-.5-.9-1.2-.9h-5.4c-.6,0-1.2.5-1.2,1.2v5.4c0,.6.5,1.2,1.2,1.2h5.4c.5,0,1-.4,1.2-.9v-5.8h0Z"/>
            <path class="cls-45" d="M191.9,351.5v1.9c0,2.3,1.9,4.2,4.2,4.2h60.1l-64.3-36.5v30.4h0Z"/>
          </g>
          <g>
            <path class="cls-97" d="M191.9,357.7c0,2.7,2.2,4.9,4.9,4.9h58.8c2.7,0,4.9-2.2,4.9-4.9h-68.6Z"/>
            <path class="cls-45" d="M191.9,357.7c0,2.7,2.2,4.9,4.9,4.9h58.8c2.7,0-63.7-4.9-63.7-4.9h0Z"/>
            <rect class="cls-98" x="202.5" y="357.6" width="6.3" height="1.3"/>
            <rect class="cls-98" x="243.1" y="357.6" width="6.3" height="1.3"/>
          </g>
        </g>
      </g>
      <g>
        <g>
          <path class="cls-56" d="M145.6,358.9h-11.5c-2.1,0-3.8,1.7-3.8,3.8h19c0-2.1-1.7-3.8-3.8-3.8h.1Z"/>
          <rect class="cls-44" x="134" y="356.7" width="8.2" height="2.2"/>
          <rect class="cls-95" x="134" y="356.7" width="4.3" height="2.2"/>
          <path class="cls-97" d="M147.1,359.4c-.4-.2-.9-.2-1,0s.1.6.6.9.9.2,1,0-.1-.6-.6-.9Z"/>
        </g>
        <rect class="cls-56" x="135.7" y="297.9" width="1.6" height="58.9"/>
        <rect class="cls-56" x="128.3" y="300.1" width="42.9" height="1.6" transform="translate(-108.7 86) rotate(-23.8)"/>
        <g>
          <path class="cls-70" d="M181.2,300.5c.9,2.1,0,4.5-2.1,5.3-2.1.9-4.5,0-5.3-2.1l7.4-3.2Z"/>
          <path class="cls-97" d="M181.3,302.2c0,.4-.2.7-.5.7s-.5-.3-.5-.7.2-.7.5-.7.5.3.5.7Z"/>
          <path class="cls-56" d="M177.3,291.5l-2.7-6.2c-.8-2-3.1-2.8-5.1-2h0c-2,.9-2.8,3.2-2,5.1l2.7,6.2c-3,3-4,7.6-2.2,11.7l19.6-8.7c-1.8-4.1-6-6.5-10.2-6.3h-.1Z"/>
          <path class="cls-83" d="M167.4,285.5c-.6,1.6,0,3,0,3l2.7,6.2c-3,3-4,7.6-2.2,11.7l9.6-4.3c-1.5-3.5-8.2-18.8-8.2-18.8,0,0-1.5.5-2.1,2.1h.1Z"/>
          <path class="cls-97" d="M178.6,292c5,1.2,6.8,6,6.8,6l1.3-.5s-2.7-5.3-8.1-5.4Z"/>
        </g>
        <g>
          <rect class="cls-53" x="134" y="304.4" width="4.9" height="4.5"/>
          <path class="cls-102" d="M136.4,305c-.8,0-1.6.7-1.6,1.6s.7,1.6,1.6,1.6,1.6-.7,1.6-1.6-.7-1.6-1.6-1.6Z"/>
        </g>
      </g>
      <g>
        <g>
          <polygon class="cls-32" points="287.6 362.5 279 362.5 280 361 286.6 361 287.6 362.5"/>
          <path class="cls-97" d="M291.7,353.1c0,4.8-3.8,8.7-8.4,8.7s-8.4-3.9-8.4-8.7h16.9-.1Z"/>
          <path class="cls-48" d="M283.2,353.3v8.3c-4.4,0-8-3.7-8-8.3h8Z"/>
          <path class="cls-97" d="M292.5,357.9h-2.6v-.9h2.6c.5,0,.9-.4.9-.9v-.6c0-.5-.4-.9-.9-.9h-2.6v-.9h2.6c1,0,1.9.8,1.9,1.9v.6c0,1-.8,1.9-1.9,1.9Z"/>
        </g>
        <path class="cls-35" d="M283.1,341.6c-1.8,3.7,3.1,9.1,0,10.4,1.5-2.4-3-6.7,0-10.4Z"/>
        <path class="cls-35" d="M279.2,341.6c-1.8,3.7,3.1,9.1,0,10.4,1.5-2.4-3-6.7,0-10.4Z"/>
        <path class="cls-35" d="M287,341.6c-1.8,3.7,3.1,9.1,0,10.4,1.5-2.4-3-6.7,0-10.4Z"/>
      </g>
    </g>
    <g>
      <path class="cls-30" d="M211.9,178.1h-40.1c-.7,0-1.3-.5-1.3-1.3v-71.5c0-.7.5-1.3,1.3-1.3h40.1c.7,0,1.3.5,1.3,1.3v71.5c0,.7-.5,1.3-1.3,1.3Z"/>
      <path class="cls-97" d="M211.3,177.6h-38.9c-.6,0-1.3-.5-1.3-1.3v-67.8h41.4v67.8c0,.7-.5,1.3-1.3,1.3h0Z"/>
      <path class="cls-48" d="M211.4,110.1l-40.2-.6v-.8h41.4v67.8c0,.7-1.2-66.3-1.2-66.3h0Z"/>
      <path class="cls-62" d="M212.5,105c0,.2-8.9.3-30.4.3s-10.8,0-10.8-.3,5.3-.3,10.8-.3c21.5,0,30.4,0,30.4.3Z"/>
      <polygon class="cls-18" points="175.6 112.7 175.2 113.3 176 114.1 175.2 115 175.6 115.5 177 114.1 175.6 112.7"/>
      <polygon class="cls-18" points="177.6 116.1 177.1 116.6 177.9 117.6 177.1 118.4 177.6 118.9 179 117.6 177.6 116.1"/>
      <polygon class="cls-18" points="175.6 122.9 175.2 123.3 176 124.3 175.2 125.1 175.6 125.6 177 124.3 175.6 122.9"/>
      <polygon class="cls-18" points="178.6 119.5 178 120 179 120.9 178 121.7 178.6 122.3 179.9 120.9 178.6 119.5"/>
      <polygon class="cls-18" points="178.6 126.3 178 126.7 179 127.6 178 128.5 178.6 129 179.9 127.6 178.6 126.3"/>
      <rect class="cls-104" x="179.7" y="113.6" width="5.3" height="1.2"/>
      <rect class="cls-104" x="180.7" y="116.9" width="14.9" height="1.2"/>
      <rect class="cls-104" x="177.8" y="123.6" width="14" height="1.2"/>
      <rect class="cls-104" x="181.3" y="120.3" width="3.6" height="1.2"/>
      <rect class="cls-104" x="180.7" y="127" width="14.9" height="1.2"/>
      <rect class="cls-104" x="186.4" y="113.6" width="5.1" height="1.2"/>
      <rect class="cls-104" x="184.4" y="113.6" width="5.1" height="1.2"/>
      <rect class="cls-104" x="185.4" y="113.6" width="5.1" height="1.2"/>
      <rect class="cls-104" x="190.5" y="116.9" width="5.1" height="1.2"/>
      <rect class="cls-104" x="185.4" y="120.3" width="20.2" height="1.2"/>
      <rect class="cls-104" x="193.5" y="123.6" width="5.1" height="1.2"/>
      <rect class="cls-104" x="197" y="116.9" width="5.1" height="1.2"/>
      <polygon class="cls-18" points="175.6 129.6 175.2 130.1 176 131 175.2 131.9 175.6 132.4 177 131 175.6 129.6"/>
      <polygon class="cls-18" points="177.6 133 177.1 133.5 177.9 134.4 177.1 135.3 177.6 135.8 179 134.4 177.6 133"/>
      <polygon class="cls-18" points="175.6 139.8 175.2 140.2 176 141.1 175.2 142 175.6 142.5 177 141.1 175.6 139.8"/>
      <polygon class="cls-18" points="178.6 136.4 178 136.8 179 137.8 178 138.6 178.6 139.1 179.9 137.8 178.6 136.4"/>
      <polygon class="cls-18" points="178.6 143.1 178 143.6 179 144.5 178 145.3 178.6 145.8 179.9 144.5 178.6 143.1"/>
      <rect class="cls-104" x="179.7" y="130.4" width="5.3" height="1.2"/>
      <rect class="cls-104" x="180.7" y="133.8" width="14.9" height="1.2"/>
      <rect class="cls-104" x="177.8" y="140.5" width="14" height="1.2"/>
      <rect class="cls-104" x="181.3" y="137.1" width="3.6" height="1.2"/>
      <rect class="cls-104" x="180.7" y="143.9" width="14.9" height="1.2"/>
      <rect class="cls-104" x="186.4" y="130.4" width="5.1" height="1.2"/>
      <rect class="cls-104" x="192.9" y="130.4" width="5.1" height="1.2"/>
      <rect class="cls-104" x="190.5" y="133.8" width="5.1" height="1.2"/>
      <rect class="cls-104" x="185.4" y="137.1" width="20.2" height="1.2"/>
      <rect class="cls-104" x="193.5" y="140.5" width="5.1" height="1.2"/>
      <polygon class="cls-18" points="175.6 149.7 175.2 150.2 176 151.1 175.2 152 175.6 152.4 177 151.1 175.6 149.7"/>
      <polygon class="cls-18" points="178.6 146.4 178 146.8 179 147.7 178 148.6 178.6 149.1 179.9 147.7 178.6 146.4"/>
      <polygon class="cls-18" points="178.6 153.1 178 153.6 179 154.4 178 155.4 178.6 155.8 179.9 154.4 178.6 153.1"/>
      <rect class="cls-104" x="186.9" y="147.1" width="14.9" height="1.2"/>
      <rect class="cls-104" x="177.8" y="150.6" width="14" height="1.2"/>
      <rect class="cls-104" x="180.7" y="153.9" width="14.9" height="1.2"/>
      <rect class="cls-104" x="203.1" y="147.1" width="5.1" height="1.2"/>
      <rect class="cls-104" x="193.5" y="150.6" width="5.1" height="1.2"/>
      <polygon class="cls-18" points="178.6 156.6 178 157.2 179 158 178 158.9 178.6 159.4 179.9 158 178.6 156.6"/>
      <rect class="cls-104" x="180.7" y="157.5" width="14.9" height="1.2"/>
      <polygon class="cls-18" points="175.6 163.2 175.2 163.8 176 164.6 175.2 165.5 175.6 166 177 164.6 175.6 163.2"/>
      <polygon class="cls-18" points="178.6 159.9 178 160.4 179 161.3 178 162.2 178.6 162.6 179.9 161.3 178.6 159.9"/>
      <polygon class="cls-18" points="178.6 166.6 178 167.1 179 168 178 168.9 178.6 169.4 179.9 168 178.6 166.6"/>
      <rect class="cls-104" x="186.9" y="160.7" width="14.9" height="1.2"/>
      <rect class="cls-104" x="177.8" y="164.1" width="14" height="1.2"/>
      <rect class="cls-104" x="180.7" y="167.4" width="14.9" height="1.2"/>
      <rect class="cls-104" x="193.5" y="164.1" width="5.1" height="1.2"/>
      <rect class="cls-104" x="197" y="133.8" width="5.1" height="1.2"/>
      <path class="cls-89" d="M202.7,106.8c0,.6-.5,1-1,1s-1-.5-1-1,.5-1,1-1,1,.5,1,1Z"/>
      <path class="cls-22" d="M202.4,106.8c0,.4-.3.8-.8.8s-.8-.3-.8-.8.3-.8.8-.8.8.3.8.8Z"/>
      <circle class="cls-89" cx="205.5" cy="106.8" r="1"/>
      <path class="cls-80" d="M206.2,106.8c0,.4-.3.8-.8.8s-.8-.3-.8-.8.3-.8.8-.8.8.3.8.8Z"/>
      <path class="cls-89" d="M210.3,106.8c0,.6-.5,1-1,1s-1-.5-1-1,.5-1,1-1,1,.5,1,1Z"/>
      <path class="cls-77" d="M210.1,106.8c0,.4-.3.8-.8.8s-.8-.3-.8-.8.3-.8.8-.8.8.3.8.8Z"/>
    </g>
    <g>
      <rect class="cls-73" x="365.1" y="267.3" width="53.1" height="54.3"/>
      <rect class="cls-19" x="365.7" y="267.6" width="52" height=".6"/>
      <rect class="cls-97" x="365.7" y="271.1" width="52" height="49.7"/>
      <rect class="cls-57" x="368.5" y="274.5" width="9" height="9"/>
      <rect class="cls-57" x="368.5" y="286.4" width="9" height="9"/>
      <rect class="cls-57" x="380.4" y="286.4" width="9" height="9"/>
      <rect class="cls-57" x="380.4" y="274.5" width="9" height="9"/>
      <rect class="cls-57" x="392.2" y="286.4" width="9" height="9"/>
      <rect class="cls-57" x="392.2" y="274.5" width="9" height="9"/>
      <rect class="cls-32" x="403.2" y="274.5" width="12.5" height="20.7"/>
      <rect class="cls-114" x="368.6" y="297.2" width="21.5" height="20.1"/>
      <rect class="cls-114" x="391.6" y="297.2" width="24.1" height="1.2"/>
      <rect class="cls-114" x="391.6" y="299.6" width="24.1" height="1.2"/>
      <rect class="cls-114" x="391.6" y="301.9" width="24.1" height="1.2"/>
      <rect class="cls-114" x="391.6" y="304.3" width="24.1" height="1.2"/>
      <rect class="cls-114" x="391.6" y="306.7" width="12.8" height="1.2"/>
      <rect class="cls-114" x="391.6" y="311.5" width="24.1" height="1.2"/>
      <rect class="cls-114" x="391.6" y="313.9" width="12.8" height="1.2"/>
    </g>
    <g>
      <rect class="cls-30" x="214.5" y="226.2" width="45.4" height="36.8"/>
      <rect class="cls-111" x="215" y="226.6" width="44.3" height=".6"/>
      <rect class="cls-97" x="215" y="229.5" width="44.3" height="32.9"/>
      <polygon class="cls-18" points="219 233.9 218.4 234.6 219.6 235.9 218.4 237.1 219 237.9 221 235.9 219 233.9"/>
      <polygon class="cls-18" points="221.8 238.7 221.1 239.4 222.4 240.7 221.1 241.9 221.8 242.7 223.7 240.7 221.8 238.7"/>
      <polygon class="cls-18" points="219 248.4 218.4 249.2 219.6 250.4 218.4 251.7 219 252.4 221 250.4 219 248.4"/>
      <polygon class="cls-18" points="223.2 243.6 222.5 244.2 223.7 245.5 222.5 246.9 223.2 247.5 225.2 245.5 223.2 243.6"/>
      <polygon class="cls-18" points="223.2 253.3 222.5 254 223.7 255.2 222.5 256.5 223.2 257.2 225.2 255.2 223.2 253.3"/>
      <rect class="cls-104" x="224.9" y="235" width="16.1" height="1.7"/>
      <rect class="cls-104" x="226.2" y="239.8" width="29.9" height="1.7"/>
      <rect class="cls-104" x="222.2" y="249.6" width="28.6" height="1.7"/>
      <rect class="cls-104" x="227.1" y="244.7" width="28.9" height="1.7"/>
      <rect class="cls-104" x="226.2" y="254.4" width="29.9" height="1.7"/>
      <rect class="cls-104" x="243.1" y="235" width="7.3" height="1.7"/>
    </g>
    <g>
      <rect class="cls-57" x="87" y="248" width="37.6" height="33.7"/>
      <rect class="cls-66" x="87.5" y="248.3" width="36.6" height=".5"/>
      <rect class="cls-97" x="87.5" y="251.5" width="36.6" height="29.6"/>
      <rect class="cls-114" x="89.3" y="270.3" width="22.6" height="1"/>
      <rect class="cls-114" x="89.3" y="272.5" width="27.5" height="1"/>
      <rect class="cls-114" x="89.3" y="274.7" width="33.1" height="1"/>
      <rect class="cls-114" x="89.3" y="276.9" width="22.6" height="1"/>
      <rect class="cls-57" x="90.4" y="252.6" width="6.3" height="6.3"/>
      <rect class="cls-118" x="102.7" y="252.6" width="6.3" height="6.3"/>
      <rect class="cls-30" x="115" y="252.6" width="6.3" height="6.3"/>
      <rect class="cls-30" x="90.4" y="261.2" width="6.3" height="6.3"/>
      <rect class="cls-73" x="102.7" y="261.2" width="6.3" height="6.3"/>
      <rect class="cls-57" x="115" y="261.2" width="6.3" height="6.3"/>
    </g>
    <g>
      <rect class="cls-30" x="107.9" y="202.7" width="25.9" height="20.7"/>
      <path class="cls-97" d="M116.8,207.9l-1,7.8c-.2-.1-.5-.2-.7-.2-1-.1-2.1.4-2.2,1.3s.7,1.6,1.8,1.8c1,.1,2.1-.4,2.2-1.3l.9-6.7h7.3l-.7,5c-.2-.1-.5-.2-.7-.2-1-.1-2.1.4-2.2,1.3s.7,1.6,1.8,1.8c1,.1,2.1-.4,2.2-1.3h0l1.3-9.2h-9.9Z"/>
    </g>
    <g>
      <rect class="cls-57" x="356.5" y="237.7" width="26.3" height="21.2"/>
      <polygon class="cls-97" points="364.4 252.6 364.4 244 375.8 248.3 364.4 252.6"/>
    </g>
    <g>
      <rect class="cls-57" x="190" y="197.4" width="25.9" height="20.7"/>
      <g>
        <g>
          <rect class="cls-97" x="197.8" y="204.7" width="10.2" height=".5"/>
          <rect class="cls-97" x="197.8" y="205.9" width="6.6" height=".5"/>
          <polygon class="cls-97" points="205.8 207.6 200 207.6 199.1 207 206.8 207 205.8 207.6"/>
          <polygon class="cls-97" points="203.8 208.7 202 208.7 201.1 208.2 204.8 208.2 203.8 208.7"/>
        </g>
        <g>
          <path class="cls-97" d="M211.2,204.7h0l-7.6-4.4c-.3-.2-.7-.2-1,0l-7.6,4.4v9.3c0,.3.2.5.5.5h15.4c.3,0,.5-.2.5-.5v-9.3h-.1ZM195.5,212.8v-.6h5v.6h-5ZM202.1,211.8h-6.5v-.5h6.5v.5ZM202.4,209.1l-5.6-3.1v-2.1h12.1v2.2l-5.4,3.1c-.3.2-.7.2-1,0h0ZM208.2,212.3c-.3,0-.5-.2-.6-.5h0c-.2.3-.5.5-.9.5s-.7-.3-.7-.9.6-1.6,1.7-1.6.6,0,.8.2l-.2,1.3c0,.4,0,.6.2.6.3,0,.6-.4.6-1.2s-.6-1.6-1.7-1.6-2,.8-2,2.2.7,1.8,1.8,1.8.7,0,1-.2v.4c-.3.2-.6.2-1.2.2-1.2,0-2.2-.8-2.2-2.2s1-2.6,2.6-2.6,2.1.8,2.1,2-.5,1.7-1.4,1.7h0ZM211.2,204.7h0Z"/>
          <path class="cls-97" d="M206.5,211.3c0,.3.1.4.3.4s.5-.3.6-.7v-.6h-.1c-.4,0-.8.4-.8.9h0Z"/>
        </g>
      </g>
    </g>
    <g>
      <rect class="cls-118" x="305" y="165.5" width="26.3" height="21.2"/>
      <g>
        <path class="cls-97" d="M322.5,170.9h-8.5c-1.6,0-2.9,1.4-2.9,2.9v3.1c0,1.6,1.4,2.9,2.9,2.9h6l4.2,3.5-1.3-3.5c1.5-.2,2.5-1.4,2.5-2.9v-3.2c0-1.6-1.4-2.9-2.9-2.9h0ZM325,177.1c0,1.3-1,2.3-2.3,2.3h-.4l.8,2.2-2.6-2.2h-6.2c-1.3,0-2.3-1-2.3-2.3v-3.1c0-1.3,1-2.3,2.3-2.3h8.5c1.3,0,2.3,1,2.3,2.3v3.2h-.1Z"/>
        <path class="cls-97" d="M319.3,174.6v-1.2c-.6,0-1.3.3-1.6.8h-2c-.5,0-1,.4-1,1h0c0,.6.4,1,1,1h.5l-.4,1.8h.8l.4-1.8h.6c.3.5.9.8,1.6.8v-1.2c.4,0,.7-.3.7-.7h0c0-.4-.3-.7-.7-.7Z"/>
        <rect class="cls-97" x="320.4" y="175.1" width="2" height=".4"/>
        <rect class="cls-97" x="320.5" y="176" width=".4" height="2" transform="translate(-31.2 278.6) rotate(-45)"/>
        <rect class="cls-97" x="319.9" y="173.6" width="2" height=".4" transform="translate(-28.9 277.8) rotate(-45)"/>
      </g>
    </g>
    <g>
      <rect class="cls-100" x="280.6" y="250.9" width="27.9" height="22.4"/>
      <g>
        <path class="cls-97" d="M294.8,255.6v-.9h.8c.2,0,.3-.1.3-.3v-.4c0-.2-.1-.3-.3-.3h-2.7c-.2,0-.3.1-.3.3v.4c0,.2.1.3.3.3h.8v.9c-4,.3-7.1,3.6-7.1,7.6s3.5,7.6,7.6,7.6,7.6-3.5,7.6-7.6-3.1-7.4-7.1-7.6h0ZM294.2,269.7c-3.6,0-6.5-2.9-6.5-6.5s2.9-6.5,6.5-6.5,6.5,2.9,6.5,6.5-2.9,6.5-6.5,6.5Z"/>
        <g>
          <path class="cls-97" d="M290.9,265.1v-.6l.5-.5c.9-.8,1.4-1.4,1.4-1.8s-.2-.6-.7-.6-.7.2-.9.3l-.3-.7c.3-.2.8-.4,1.4-.4.9,0,1.5.5,1.5,1.4s-.5,1.3-1.2,1.9l-.4.3h1.6v.8h-3,.3Z"/>
          <path class="cls-97" d="M296.3,265.1v-1h-1.9v-.6l1.6-2.6h1.3v2.5h.5v.7h-.5v1h-.9ZM296.3,263.3v-1.8h0c-.1.3-.2.5-.4.8l-.5.9h.9Z"/>
        </g>
        <rect class="cls-97" x="293.9" y="257.1" width=".7" height="1.4"/>
        <rect class="cls-97" x="293.9" y="267.9" width=".7" height="1.4"/>
        <rect class="cls-97" x="299" y="262.9" width="1.4" height=".7"/>
        <rect class="cls-97" x="288.2" y="262.9" width="1.4" height=".7"/>
        <rect class="cls-97" x="297.8" y="259" width=".8" height=".4" transform="translate(-96 286.8) rotate(-45)"/>
        <rect class="cls-97" x="290.2" y="258.9" width=".4" height=".8" transform="translate(-98.3 281.3) rotate(-45)"/>
        <rect class="cls-97" x="298" y="266.8" width=".4" height=".8" transform="translate(-101.6 289.1) rotate(-45)"/>
        <rect class="cls-97" x="289.9" y="267.1" width=".8" height=".4" transform="translate(-104 282.9) rotate(-44.9)"/>
      </g>
    </g>
    <g>
      <polygon class="cls-30" points="369.4 186.7 341.5 186.7 341.5 145.1 373.7 145.1 373.7 182.3 369.4 186.7"/>
      <g>
        <polygon class="cls-97" points="368.6 185.5 342.5 185.5 342.5 146.4 372.7 146.4 372.7 181.4 368.6 185.5"/>
        <polygon class="cls-3" points="368.6 181.4 368.6 185.5 372.7 181.4 368.6 181.4"/>
        <rect class="cls-2" x="346.3" y="150" width="17.8" height="3.7"/>
        <rect class="cls-31" x="346.3" y="155.7" width="22.9" height="1"/>
        <rect class="cls-31" x="346.3" y="158.6" width="22.9" height="1"/>
        <rect class="cls-31" x="346.3" y="171.6" width="22.9" height="1"/>
        <rect class="cls-31" x="346.3" y="174.6" width="22.9" height="1"/>
        <rect class="cls-31" x="346.3" y="177.4" width="12.3" height="1"/>
        <rect class="cls-30" x="346.3" y="161.6" width="22.8" height="7.9"/>
      </g>
    </g>
    <g>
      <path class="cls-100" d="M314.6,124.3c-5.3,0-9.6,4.3-9.6,9.6s.9,4.8,2.5,6.5h.1c.1.2.2.3.3.4,3.6,3.6,3,8.2,3,8.2h7s-.4-4.6,3-8.2c.1-.1.2-.2.4-.3h.1c1.6-1.8,2.5-4.1,2.5-6.6,0-5.3-4.3-9.6-9.6-9.6h.2Z"/>
      <path class="cls-87" d="M314.6,124.9c-5,0-9.2,4.1-9.2,9.2s.9,4.5,2.4,6.2h.1c.1.2.2.3.3.4,3.4,3.4,3.5,7.8,3.5,7.8h2.8c3.4-5.7-10-17.2,0-23.7h.1Z"/>
      <path class="cls-63" d="M311.1,153.9c0,1,.8,1.8,1.8,1.8h3.5c1,0,1.8-.8,1.8-1.8v-4.7h-7.1v4.7h.1Z"/>
      <path class="cls-11" d="M312.9,156.3c0,.3.8.5,1.8.5h0c.9,0,1.8-.2,1.8-.5v-.6h-3.7v.6h.1Z"/>
      <polygon class="cls-59" points="311.1 150.8 318.1 150.5 311.1 150.2 311.1 150.8"/>
      <polygon class="cls-59" points="318.1 152.3 318.1 151.8 311.1 152.1 318.1 152.3"/>
      <polygon class="cls-59" points="311.1 154.1 318.1 153.8 311.1 153.6 311.1 154.1"/>
      <path class="cls-29" d="M314.6,126.3c-4.4,0-7.9,3.6-7.9,7.9s3.6,7.9,7.9,7.9,7.9-3.6,7.9-7.9-3.6-7.9-7.9-7.9Z"/>
      <g>
        <rect class="cls-46" x="316.9" y="134" width=".2" height="15.2"/>
        <rect class="cls-46" x="312.2" y="134" width=".2" height="15.2"/>
        <path class="cls-6" d="M312.3,133.9h-.2v.2l1.4,1.4h0v-.2l-1.4-1.4h.2Z"/>
        <path class="cls-6" d="M313.6,134h-.2v.2l.7,1.4h0v-.2l-.7-1.4h.2Z"/>
        <path class="cls-6" d="M314.3,134h-.2v.2l.7,1.4h0v-.2l-.7-1.4h.2Z"/>
        <path class="cls-6" d="M314.9,134h-.2v.2l.7,1.4h0v-.2l-.7-1.4h.2Z"/>
        <path class="cls-6" d="M315.5,134h-.2v.2l.7,1.4h0v-.2l-.7-1.4h.2Z"/>
        <path class="cls-41" d="M313.5,133.9s-.1,0-.1.1v1.4c.1,0,.2.1.2.1h0s.1,0,.1-.1v-1.4c-.1,0-.2-.1-.2-.1Z"/>
        <path class="cls-41" d="M314.2,133.9s-.1,0-.1.1v1.4c.1,0,.2.1.2.1h0s.1,0,.1-.1v-1.4c-.1,0-.2-.1-.2-.1Z"/>
        <path class="cls-41" d="M314.8,133.9s-.1,0-.1.1v1.4c.1,0,.2.1.2.1h0s.1,0,.1-.1v-1.4c-.1,0-.2-.1-.2-.1Z"/>
        <path class="cls-41" d="M315.4,133.9s-.1,0-.1.1v1.4c.1,0,.2.1.2.1h0s.1,0,.1-.1v-1.4c-.1,0-.2-.1-.2-.1Z"/>
        <path class="cls-41" d="M316.9,134l-.8,1.4v.2h0l.8-1.4v-.2h-.2.2Z"/>
      </g>
      <path class="cls-100" d="M314.6,118h0c-.3,0-.5.2-.5.5v4c0,.3.2.5.5.5h0c.3,0,.5-.2.5-.5v-4c0-.3-.2-.5-.5-.5Z"/>
      <path class="cls-100" d="M326.4,122.7c-.2-.2-.5-.2-.7,0l-2.8,2.8c-.2.2-.2.5,0,.7h0c.2.2.5.2.7,0l2.8-2.8c.2-.2.2-.5,0-.7h0Z"/>
      <path class="cls-100" d="M330.9,133.9h-4c-.3,0-.5.2-.5.5h0c0,.3.2.5.5.5h4c.3,0,.5-.2.5-.5h0c0-.3-.2-.5-.5-.5Z"/>
      <path class="cls-100" d="M323.9,142.8c-.2-.2-.5-.2-.7,0h0c-.2.2-.2.5,0,.7l2.8,2.8c.2.2.5.2.7,0h0c.2-.2.2-.5,0-.7l-2.8-2.8Z"/>
      <path class="cls-100" d="M306.6,143c-.2-.2-.5-.2-.7,0l-2.8,2.8c-.2.2-.2.5,0,.7h0c.2.2.5.2.7,0l2.8-2.8c.2-.2.2-.5,0-.7h0Z"/>
      <path class="cls-100" d="M302.5,134.2h-4c-.3,0-.5.2-.5.5h0c0,.3.2.5.5.5h4c.3,0,.5-.2.5-.5h0c0-.3-.2-.5-.5-.5Z"/>
      <path class="cls-100" d="M303.6,122.9c-.2-.2-.5-.2-.7,0h0c-.2.2-.2.5,0,.7l2.8,2.8c.2.2.5.2.7,0h0c.2-.2.2-.5,0-.7l-2.8-2.8Z"/>
      <path class="cls-97" d="M319.2,126.9c-.5.4-.5,1.5.2,2.3.6.8,1.7,1.2,2.2.7.5-.4.5-1.5-.2-2.3-.6-.8-1.7-1.2-2.2-.7Z"/>
      <path class="cls-97" d="M320.6,131.1c3.1,4.8.2,8.7.2,8.7,0,0,3.8-4,1.5-9.1-.5.2-.9.5-1.8.3h.1Z"/>
      <path class="cls-17" d="M311.3,152.2s1.6.1,3.5.2,3.5,0,3.5,0c0,0-1.6-.1-3.5-.2h-3.5Z"/>
      <path class="cls-17" d="M314.6,150.7c-1.9,0-3.5.2-3.5.3,0,0,1.6,0,3.5-.1,1.9,0,3.5-.2,3.5-.3,0,0-1.6,0-3.5.1Z"/>
      <path class="cls-17" d="M314.6,154c-1.9,0-3.5.2-3.5.3h3.5c1.9,0,3.5-.2,3.5-.2h-3.5Z"/>
    </g>
    <g>
      <g>
        <path class="cls-112" d="M341.3,219.6h13.2v-14.1h-13.2c-2.2,0-3.9,1.8-3.9,3.9v6.3c0,2.2,1.8,3.9,3.9,3.9h0Z"/>
        <path class="cls-105" d="M333.9,212.5h0c0,1.5,1.2,2.7,2.6,2.7h.9v-5.3h-.9c-1.5,0-2.6,1.2-2.6,2.6Z"/>
        <path class="cls-38" d="M333.9,212.6c0,1.5,1.2,2.6,2.6,2.6h.9v-2.7h-3.6Z"/>
        <path class="cls-105" d="M375.6,208.7h-.4v7.6h.4c2,0,3.6-1.7,3.6-3.8h0c0-2.2-1.6-3.9-3.6-3.9Z"/>
        <path class="cls-33" d="M354.5,211.2v8.5c9.5,0,18.3,8.5,18.3,8.5v-31.1s-8.8,8.5-18.3,8.5v5.8h0Z"/>
        <path class="cls-21" d="M343.6,213h0c.7,0,1.3-.5,1.3-1.3v-1.6c0-.7-.5-1.3-1.3-1.3h0c-.7,0-1.3.5-1.3,1.3v1.6c0,.7.5,1.3,1.3,1.3Z"/>
        <path class="cls-112" d="M344.1,236.7h2.1c1.3,0,2.4-.9,2.5-2.3l1.9-14.9h-7.2l-1.8,14.3c-.2,1.6,1,2.9,2.5,2.9h0Z"/>
        <polygon class="cls-36" points="343 222.9 350.2 222.9 350.6 219.6 343.4 219.6 343 222.9"/>
        <path class="cls-105" d="M350.1,223.2h2.3c-.4-2.4.4-3.6.4-3.6h-2.3l-.4,3.6Z"/>
        <path class="cls-32" d="M355.2,218v1c10.8,0,17.1,7.9,17.1,7.9,0,0-6.1-8.9-17.1-8.9Z"/>
        <path class="cls-97" d="M355.2,207.1v-1c10.8,0,17.1-7.9,17.1-7.9,0,0-6.1,8.9-17.1,8.9Z"/>
        <path class="cls-97" d="M339.2,207.4h14.8v-1.2h-12.1c-.9,0-1.9.4-2.6,1h-.1Z"/>
        <path class="cls-36" d="M339.5,218h14.8v1.2h-12.1c-.9,0-1.9-.4-2.6-1h-.1Z"/>
        <path class="cls-112" d="M373.8,230h0c-.8,0-1.5-.6-1.5-1.5v-31.9c0-.8.6-1.5,1.5-1.5h0c.8,0,1.5.6,1.5,1.5v31.9c0,.8-.6,1.5-1.5,1.5Z"/>
        <path class="cls-36" d="M373.8,230h0c-.8,0-1.5-.6-1.5-1.5v-31.9c0-.8.6-1.5,1.5-1.5h0v34.8h0Z"/>
        <path class="cls-97" d="M377,209.3c.4.2.6.5.5.8-.1.2-.5.2-.9,0s-.6-.5-.5-.8c.1-.2.5-.2.9,0Z"/>
      </g>
      <g>
        <path class="cls-30" d="M383,200.3c-.4,0-.7.1-1,.4-.6.6-.6,1.6,0,2.2,2.2,2.3,3.6,5.3,3.6,8.2s-1.3,6.1-3.6,8.3c-.6.6-.6,1.6,0,2.2s1.6.6,2.2,0c2.9-2.7,4.5-6.5,4.5-10.5s-1.6-7.4-4.4-10.3c-.3-.3-.7-.4-1-.4h-.2,0Z"/>
        <path class="cls-30" d="M394.5,192.1c-.4,0-.7.1-1,.4-.6.6-.6,1.6,0,2.2,4,4.2,6.6,10.6,6.6,16.3s-2.6,12.7-6.5,16.7c-.6.6-.6,1.6,0,2.2s1.6.6,2.2,0c4.4-4.4,7.4-11.9,7.4-18.8s-2.9-13.7-7.4-18.4c-.3-.3-.7-.5-1.2-.5h-.1Z"/>
        <path class="cls-30" d="M388.7,196.2c-.4,0-.7.1-1,.4-.6.6-.6,1.6,0,2.2,3.4,3.5,5.4,8.2,5.4,12.5s-2,9-5.3,12.3c-.6.6-.6,1.6,0,2.2s1.6.6,2.2,0c4-3.8,6.2-9.1,6.3-14.5,0-5-2.4-10.6-6.3-14.6-.3-.3-.7-.4-1-.4h-.2Z"/>
      </g>
    </g>
    <g>
      <rect class="cls-78" x="357.2" y="151.8" width="17" height="2.2" transform="translate(99.4 446.6) rotate(-70.5)"/>
      <polygon class="cls-14" points="367.2 145.5 367.6 144.5 369.6 145.2 369.3 146.3 367.2 145.5"/>
      <path class="cls-78" d="M371.7,132.3l-4.3,12.2,2.3.8,4.3-12.2c.2-.7,0-1.5-.6-1.8h0c-.6-.2-1.4.2-1.6.9h-.1Z"/>
      <path class="cls-94" d="M371.5,138.5c-1.2,3.2-2,6-1.9,6,0,0,1.2-2.6,2.3-5.9s2-6,1.9-6c0,0-1.2,2.6-2.3,5.9Z"/>
      <path class="cls-94" d="M365.9,153.5c-1.4,3.9-2.4,7-2.3,7.1s1.3-3,2.6-6.9c1.4-3.9,2.4-7,2.3-7.1,0,0-1.3,3-2.6,6.9Z"/>
      <polygon class="cls-101" points="361.8 160.5 363.9 161.3 361.1 165.9 361.8 160.5"/>
      <polygon class="cls-101" points="370.4 134.6 370.8 134.7 371.2 134 370.6 133.9 369.8 134.3 366.8 143 367.2 143.8 370.4 134.6"/>
    </g>
    <g>
      <rect class="cls-30" x="257.3" y="256.2" width="24.7" height="4.7" transform="translate(-17.8 497.3) rotate(-83.5)"/>
      <rect class="cls-58" x="259.4" y="258.7" width="24.7" height="1" transform="translate(-17 499.4) rotate(-83.4)"/>
      <rect class="cls-13" x="256.1" y="257.3" width="24.7" height="2.3" transform="translate(-18.7 495.9) rotate(-83.5)"/>
      <rect class="cls-1" x="255.6" y="257.9" width="24.7" height="1.2" transform="translate(-19.2 495.4) rotate(-83.5)"/>
      <polygon class="cls-26" points="267.7 277 270.8 271.4 266.1 270.9 267.7 277"/>
      <polygon class="cls-28" points="267.7 277 268.8 275.2 267.2 274.9 267.7 277"/>
      <path class="cls-93" d="M271.8,241.6h0c1.3.1,2.2,1.3,2,2.5v1c-.1,0-4.7-.5-4.7-.5v-1c.2-1.3,1.4-2.2,2.7-2h0Z"/>
      <rect class="cls-96" x="270.5" y="243.1" width="1.7" height="4.7" transform="translate(-3.3 487.3) rotate(-83.5)"/>
    </g>
    <g>
      <rect class="cls-100" x="40.6" y="182.7" width="4.7" height="24.7" transform="translate(-45.9 16.2) rotate(-14)"/>
      <rect class="cls-10" x="44.1" y="182.1" width="1" height="24.7" transform="translate(-45.7 16.6) rotate(-14)"/>
      <rect class="cls-92" x="40.7" y="182.8" width="2.3" height="24.7" transform="translate(-46 15.9) rotate(-14)"/>
      <rect class="cls-34" x="40.6" y="183.1" width="1.2" height="24.7" transform="translate(-46.1 15.8) rotate(-14)"/>
      <polygon class="cls-26" points="47.4 212.7 48.2 206.4 43.7 207.6 47.4 212.7"/>
      <polygon class="cls-28" points="47.4 212.7 47.7 210.6 46.1 211 47.4 212.7"/>
      <path class="cls-93" d="M38.7,178.1h0c1.3-.3,2.5.4,2.8,1.7l.2.9-4.5,1.2-.2-.9c-.3-1.3.4-2.5,1.7-2.8h0Z"/>
      <rect class="cls-96" x="37.4" y="181.3" width="4.7" height="1.7" transform="translate(-42.9 15) rotate(-14)"/>
    </g>
    <g>
      <path class="cls-30" d="M71.7,326h-32c-1.3,0-2.2-.8-2.2-2v-29c0-1.2.9-2,2.2-2h32c1.3,0,2.2.8,2.2,2v29c0,1.2-.9,2-2.2,2Z"/>
      <path class="cls-97" d="M70.9,324.9h-30.6c-1.2,0-2.1-.8-2.1-1.9v-28.2c0-1,.9-1.9,2.1-1.9h30.6c1.2,0,2.1.8,2.1,1.9v28.2c0,1-.9,1.9-2.1,1.9Z"/>
      <g>
        <path class="cls-64" d="M71.4,290.6h-31.5c-1.2,0-2.2-.8-2.2-2v-23.7c0-1,.9-2,2.2-2h31.5c1.2,0,2.2.8,2.2,2v23.7c0,1-.9,2-2.2,2Z"/>
        <g class="cls-121">
          <polygon class="cls-86" points="37.7 271.1 37.7 266.6 73.6 265.7 73.6 269.9 37.7 271.1"/>
        </g>
        <g>
          <g>
            <rect class="cls-7" x="55.5" y="280" width=".5" height="2.9"/>
            <path class="cls-25" d="M55.6,268.6l-2,11.3c0,.3,0,.5.2.5h3.9s.2-.3.2-.5l-2-11.3c0-.4-.3-.4-.4,0h.1Z"/>
          </g>
          <g>
            <rect class="cls-7" x="65.8" y="279.3" width="1.8" height="3.2"/>
            <path class="cls-25" d="M66.2,266.8l-4.2,12.5c0,.3,0,.6.4.6h8.5c.3,0,.5-.3.4-.6l-4.2-12.5c0-.4-.7-.4-.8,0h-.1Z"/>
          </g>
          <g>
            <rect class="cls-7" x="60" y="280.6" width=".9" height="2.5"/>
            <path class="cls-47" d="M60.2,271l-3.2,9.5c0,.2,0,.4.3.4h6.5c.2,0,.4-.2.3-.4l-3.2-9.5c0-.3-.5-.3-.6,0Z"/>
          </g>
        </g>
        <path class="cls-25" d="M71.4,290.6h-31.5c-1.2,0-2.2-.8-2.2-2v-6.5h35.8v6.5c0,1-.9,2-2.2,2h.1Z"/>
        <path class="cls-24" d="M51.1,269.9c0,2.8-2.3,5.1-5.1,5.1s-5.1-2.3-5.1-5.1,2.3-5.1,5.1-5.1,5.1,2.3,5.1,5.1Z"/>
      </g>
      <g>
        <path class="cls-30" d="M37.3,291.9h36.5c.4,0,.7.3.7.6v4.2c0,.4-.3.6-.6.6h-36.5c-.4,0-.7-.3-.7-.6v-4.2c0-.4.3-.7.6-.7h0Z"/>
        <path class="cls-113" d="M48.5,294.9h-.7c-.5,0-.9-.4-.9-.9v-5.2c0-.5.4-.9.9-.9h.7c.5,0,.9.4.9.9v5.2c0,.5-.4.9-.9.9Z"/>
        <path class="cls-113" d="M56.3,294.9h-.7c-.5,0-.9-.4-.9-.9v-5.2c0-.5.4-.9.9-.9h.7c.5,0,.9.4.9.9v5.2c0,.5-.4.9-.9.9Z"/>
        <path class="cls-113" d="M63.9,294.9h-.7c-.5,0-.9-.4-.9-.9v-5.2c0-.5.4-.9.9-.9h.7c.5,0,.9.4.9.9v5.2c0,.5-.4.9-.9.9Z"/>
      </g>
      <g>
        <path class="cls-90" d="M67.5,319.7h-4.6c-.6,0-1.2-.5-1.2-1.2v-3.6c0-.6.5-1.2,1.2-1.2h4.6c.6,0,1.2.5,1.2,1.2v3.6c0,.6-.5,1.2-1.2,1.2Z"/>
        <path class="cls-30" d="M67.5,312.7h-4.6c-.6,0-1.2-.5-1.2-1.2v-3.6c0-.6.5-1.2,1.2-1.2h4.6c.6,0,1.2.5,1.2,1.2v3.6c0,.6-.5,1.2-1.2,1.2Z"/>
        <path class="cls-90" d="M67.5,305.5h-4.6c-.6,0-1.2-.5-1.2-1.2v-3.6c0-.6.5-1.2,1.2-1.2h4.6c.6,0,1.2.5,1.2,1.2v3.6c0,.6-.5,1.2-1.2,1.2Z"/>
        <path class="cls-90" d="M58.1,312.7h-4.6c-.6,0-1.2-.5-1.2-1.2v-3.6c0-.6.5-1.2,1.2-1.2h4.6c.6,0,1.2.5,1.2,1.2v3.6c0,.6-.5,1.2-1.2,1.2Z"/>
        <path class="cls-90" d="M58.1,305.5h-4.6c-.6,0-1.2-.5-1.2-1.2v-3.6c0-.6.5-1.2,1.2-1.2h4.6c.6,0,1.2.5,1.2,1.2v3.6c0,.6-.5,1.2-1.2,1.2Z"/>
        <path class="cls-90" d="M48.6,312.7h-4.6c-.6,0-1.2-.5-1.2-1.2v-3.6c0-.6.5-1.2,1.2-1.2h4.6c.6,0,1.2.5,1.2,1.2v3.6c0,.6-.5,1.2-1.2,1.2Z"/>
        <path class="cls-90" d="M48.6,305.5h-4.6c-.6,0-1.2-.5-1.2-1.2v-3.6c0-.6.5-1.2,1.2-1.2h4.6c.6,0,1.2.5,1.2,1.2v3.6c0,.6-.5,1.2-1.2,1.2Z"/>
        <path class="cls-90" d="M58.1,319.8h-4.6c-.6,0-1.2-.5-1.2-1.2v-3.6c0-.6.5-1.2,1.2-1.2h4.6c.6,0,1.2.5,1.2,1.2v3.6c0,.6-.5,1.2-1.2,1.2Z"/>
        <path class="cls-90" d="M48.6,319.8h-4.6c-.6,0-1.2-.5-1.2-1.2v-3.6c0-.6.5-1.2,1.2-1.2h4.6c.6,0,1.2.5,1.2,1.2v3.6c0,.6-.5,1.2-1.2,1.2Z"/>
      </g>
    </g>
    <g>
      <path class="cls-118" d="M69.1,270.9c-.5-.6-1.3-.9-1.6-.6h0c-.3.4-.2,1.2.4,1.8l19.7,24.3,2.2-1.8-20.5-23.7h-.2Z"/>
      <path class="cls-8" d="M67.4,270.2h0c-.3.4-.2,1.2.4,1.8l19.7,24.3,1-.9s-21.1-25.1-21-25.1h-.2Z"/>
      <polygon class="cls-96" points="87.4 296.3 91.3 300.5 93 299.2 89.5 294.5 87.4 296.3"/>
      <polygon class="cls-71" points="87.4 296.3 91.3 300.5 92.1 299.9 88.4 295.4 87.4 296.3"/>
      <path class="cls-39" d="M91.3,300.5c.7-.6,1.7-1.5,1.7-1.5,6.1-.5,8.1,6.5,2.2,11.3,1.2-4.8-7.2-3.7-4-10h.1Z"/>
    </g>
    <g>
      <path class="cls-100" d="M389.2,135.7c-.2-.7-.6-1.3-1-1.2h0c-.4,0-.5.7-.4,1.6l8.2,35.7,2.5-.6-9.1-35.5h-.1Z"/>
      <path class="cls-55" d="M388.1,134.5h0c-.4,0-.5.7-.4,1.6l8.2,35.7,1.3-.3s-9-37-8.9-37h-.1Z"/>
      <polygon class="cls-96" points="395.8 171.8 397.3 176.9 399.2 176.4 398.3 171.2 395.8 171.8"/>
      <polygon class="cls-71" points="395.8 171.8 397.3 176.9 398.2 176.7 397 171.5 395.8 171.8"/>
      <path class="cls-39" d="M397.3,176.9c.8-.2,2-.5,2-.5,5.2,2,1.5,10.5,1.5,10.5,0,0-8.7-6.3-3.5-10.1h0Z"/>
    </g>
    <g>
      <g>
        <g>
          <polygon class="cls-97" points="345.1 303.4 322.2 303.4 322.2 276.9 347.8 276.9 347.8 300.6 345.1 303.4"/>
          <polygon class="cls-3" points="345.1 300.6 345.1 303.4 347.8 300.6 345.1 300.6"/>
        </g>
        <g>
          <path class="cls-113" d="M333.5,297.2h-4.1v-14.3h4.1c3.9,0,7,3.1,7,7h0c0,4-3.1,7.2-7,7.2ZM330,296.5h3.6c3.6,0,6.5-2.9,6.5-6.5h0c0-3.7-2.9-6.6-6.5-6.6h-3.6v13.1Z"/>
          <rect class="cls-68" x="340.1" y="278.7" width=".3" height="23.3"/>
          <rect class="cls-50" x="339.4" y="301" width="1.7" height="1.7"/>
          <rect class="cls-50" x="339.4" y="277.9" width="1.7" height="1.7"/>
        </g>
        <path class="cls-50" d="M341.3,290.1c0,.5-.4.9-.9.9s-.9-.4-.9-.9.4-.9.9-.9.9.4.9.9Z"/>
        <path class="cls-50" d="M330.7,283.2c0,.5-.4.9-.9.9s-.9-.4-.9-.9.4-.9.9-.9.9.4.9.9Z"/>
        <path class="cls-50" d="M330.7,297c0,.5-.4.9-.9.9s-.9-.4-.9-.9.4-.9.9-.9.9.4.9.9Z"/>
      </g>
      <g>
        <path class="cls-54" d="M329.9,262.3l-1.7,1.7-1.7,1.7s3.1,2.2,2.4,5.4l3.2,2.7c5-.5,8,2.5,8,2.5l.4-.4s-2.9-2.9-2.5-8l-2.7-3.2c-3.2.7-5.4-2.4-5.4-2.4h0Z"/>
        <rect class="cls-120" x="337.2" y="268.8" width=".2" height="8.6" transform="translate(-94.5 317) rotate(-44.8)"/>
        <path class="cls-120" d="M334.9,269.5c.3.3.3.8,0,1.2s-.8.3-1.2,0c-.3-.3-.3-.8,0-1.2.3-.3.8-.3,1.2,0Z"/>
        <polygon class="cls-73" points="329 260 324.2 264.9 326 266.1 330.3 261.8 329 260"/>
      </g>
    </g>
    <g>
      <rect class="cls-97" x="196.8" y="227.7" width="10.5" height="46"/>
      <path class="cls-51" d="M197.8,230.7v5.4h8.4v-5.4h-8.4ZM202,235.6h-3.8v-4.3h3.8v4.3Z"/>
      <path class="cls-73" d="M207.3,227.7h-10.5v-2.4c0-1.3,1-2.2,2.2-2.2h6c1.3,0,2.2,1,2.2,2.2v2.4h.1Z"/>
      <path class="cls-51" d="M197.8,240.2v5.4h8.4v-5.4h-8.4ZM200.2,245.3h-2v-1.9h2v1.9ZM200.2,242.5h-2v-1.9h2v1.9ZM203,245.3h-2v-1.9h2v1.9ZM203,242.5h-2v-1.9h2v1.9ZM205.9,245.3h-2v-1.9h2v1.9ZM205.9,242.5h-2v-1.9h2v1.9Z"/>
      <path class="cls-51" d="M197.8,259.1v-.8c2.9,0,3.2-1.8,3.8-3.9s1-4.5,4.6-4.5v.8c-2.9,0-3.4,1.8-3.9,3.9s-1,4.5-4.6,4.5h.1Z"/>
      <g>
        <path class="cls-51" d="M201.3,263.2l-2.3,6.7h.9l.7-2.1h2.4l.7,2.1h.9l-2.3-6.7h-1.2,0ZM200.9,267.2l.6-2c.1-.4.2-.8.3-1.3h0c0,.4.2.8.3,1.3l.6,1.9h-2,.1Z"/>
        <polygon class="cls-51" points="204.7 262.2 204.7 269.9 204.7 270.6 205 270.6 205 262.2 204.7 262.2"/>
      </g>
    </g>
    <g>
      <rect class="cls-99" x="336.4" y="96.2" width="15.5" height="30.5" transform="translate(231.5 455.2) rotate(-89.8)"/>
      <path class="cls-47" d="M343,95.3l-14.3,8.2h30.5l-14.3-8.2c-.6-.4-1.4-.4-2,0Z"/>
      <g>
        <rect class="cls-97" x="337.6" y="97.5" width="13.2" height="22.3" transform="translate(234.3 452.5) rotate(-89.8)"/>
        <rect class="cls-84" x="343.3" y="94.8" width=".9" height="18.9" transform="translate(238.4 447.7) rotate(-89.8)"/>
        <rect class="cls-84" x="340" y="100.3" width=".9" height="12.3" transform="translate(232.9 446.5) rotate(-89.8)"/>
        <rect class="cls-84" x="343.3" y="99.1" width=".9" height="18.9" transform="translate(234.1 452) rotate(-89.8)"/>
        <rect class="cls-84" x="343.3" y="101.3" width=".9" height="18.9" transform="translate(231.9 454.2) rotate(-89.8)"/>
      </g>
      <path class="cls-76" d="M345,111.8c-.6.4-1.4.4-2,0l-14.3-8.3v17.2c0,.5.4,1,.9,1h28.5c.5,0,1-.3,1-.9v-17.2l-14.3,8.2Z"/>
      <path class="cls-97" d="M353.8,119.4c-.7.3-1.5.4-2.3.4-2.1,0-4-1.6-4-4.1s1.9-4.9,4.8-4.9,3.9,1.6,3.9,3.8-1,3-2.4,3-1-.3-1.2-.9h0c-.4.6-.9.9-1.7.9s-1.5-.6-1.5-1.7c0-1.6,1.2-3,3-3s1.3.1,1.6.3l-.4,2.4c-.1.7,0,1.2.3,1.2.5,0,1.3-.7,1.3-2.2s-1-2.9-3-2.9-3.7,1.6-3.7,4,1.4,3.4,3.2,3.4,1.4-.1,1.9-.4l.2.7h-.1ZM352.6,114.1h-.4c-.8,0-1.6.8-1.6,1.8s.2.8.6.8.9-.6,1-1.4l.2-1.3h.1Z"/>
      <g>
        <rect class="cls-97" x="334.6" y="113.2" width="1.2" height="9.3" transform="translate(216.1 452.6) rotate(-89.8)"/>
        <rect class="cls-97" x="335.9" y="109.9" width="1" height="12.2" transform="translate(219.3 452) rotate(-89.8)"/>
      </g>
    </g>
    <g>
      <path class="cls-81" d="M185.6,213.9c-1.3-1-3-1.2-4.4-.3l-10.9-9.3v-4.8c-.1,0-5.6-1.3-5.6-1.3l-.9,1.2,3.5,2.8-.3,1.4-1.4.6-3.5-2.9-.9,1.2,2.2,5.1,4.8-.7,11.2,9h0c-.5,1.5,0,3.1,1.3,4.2,1.7,1.4,4.1,1,5.4-.5,1.4-1.7,1-4.1-.5-5.4h0ZM182.9,219.4l-1.9-1.6.4-2.4,2.3-.8,1.9,1.6-.4,2.4-2.3.8Z"/>
      <path class="cls-114" d="M181,213.9c2.1-1.6,4.4,0,4.4,0,0,0-2.7-.7-4.4,0Z"/>
      <polygon class="cls-97" points="181 213.9 170.2 204.4 170.1 199.5 169.9 204.6 181 213.9 181 213.9"/>
      <polygon class="cls-15" points="163.7 207.1 168.5 206.2 179.7 215.3 180 215 168.5 205.7 163.9 206.8 161.5 202.4 163.7 207.1"/>
    </g>
  </g>
  <g>
    <path class="cls-97" d="M22.2,4.9h7.9c4.6,0,8.4,1.7,8.4,6.9s-3.8,7.2-8.4,7.2h-2.9v7.2h-4.7V5h-.2ZM29.6,15.3c2.6,0,3.9-1.2,3.9-3.5s-1.3-3.1-3.9-3.1h-2.6v6.4h2.6v.2Z"/>
    <path class="cls-97" d="M53.4,26.4l-4.1-7.6h-2.6v7.6h-4.7V5.1h7.6c4.6,0,8.2,1.7,8.2,6.7s-1.5,5-3.8,6.2l4.9,8.5h-5.4l-.2-.2h.1ZM46.7,14.8h2.4c2.4,0,3.9-1.2,3.9-3.1s-1.3-2.8-3.9-2.8h-2.4v6.1-.2h0Z"/>
    <path class="cls-97" d="M61.2,15.6c0-7,3.9-11,9.6-11s9.6,4.1,9.6,11-3.9,11.1-9.6,11.1-9.6-4.3-9.6-11.1ZM75.6,15.6c0-4.3-1.8-6.9-4.7-6.9s-4.7,2.6-4.7,6.9,1.8,7,4.7,7,4.7-2.8,4.7-7Z"/>
    <path class="cls-97" d="M94.1,4.6c2.9,0,5.2,1.3,6.5,2.8l-2.6,2.9c-.9-.9-2.1-1.7-3.9-1.7-3.2,0-5.6,2.6-5.6,6.9s2,6.9,6.1,6.9,1.8-.2,2.3-.6v-3.6h-3.6v-3.9h7.9v9.9c-1.5,1.5-4.1,2.6-7.2,2.6-5.8,0-10.3-3.8-10.3-11s4.7-11.1,10.5-11.1v-.2Z"/>
    <path class="cls-97" d="M116.9,26.4l-4.1-7.6h-2.6v7.6h-4.7V5.1h7.6c4.6,0,8.2,1.7,8.2,6.7s-1.5,5-3.8,6.2l4.9,8.5h-5.4l-.2-.2h.1ZM110.2,14.8h2.4c2.4,0,3.9-1.2,3.9-3.1s-1.3-2.8-3.9-2.8h-2.4v6.1-.2h0Z"/>
    <path class="cls-97" d="M135.3,21.4h-6.5l-1.3,5h-4.9l6.7-21.3h5.8l6.7,21.3h-5l-1.3-5h-.2ZM134.3,17.6l-.5-2c-.6-2.1-1.2-4.6-1.8-6.9h0c-.5,2.3-1.2,4.7-1.7,6.9l-.5,2h4.6-.2.1Z"/>
    <path class="cls-97" d="M144,4.9h5l3.6,9.6,1.3,3.8h0l1.3-3.8,3.5-9.6h5v21.3h-4.4v-7.9c0-2.1.3-5.2.6-7.2h0l-1.8,4.9-3.2,8.4h-2l-3.2-8.4-1.7-4.9h0c.2,2.1.6,5.2.6,7.2v7.9h-4.4V4.9h-.3.2Z"/>
    <path class="cls-97" d="M169,4.9h5l3.6,9.6,1.3,3.8h0l1.3-3.8,3.5-9.6h5v21.3h-4.4v-7.9c0-2.1.3-5.2.6-7.2h0l-1.8,4.9-3.2,8.4h-2l-3.2-8.4-1.7-4.9h0c.2,2.1.6,5.2.6,7.2v7.9h-4.4V4.9h-.3.2Z"/>
    <path class="cls-97" d="M193.9,4.9h4.7v21.3h-4.7V4.9Z"/>
    <path class="cls-97" d="M203.7,4.9h4.9l5.6,10.7,2.1,4.7h0c-.2-2.3-.6-5.2-.6-7.9v-7.5h4.6v21.3h-4.9l-5.6-10.7-2.1-4.6h0c.2,2.3.6,5.2.6,7.6v7.5h-4.6V4.8h0Z"/>
    <path class="cls-97" d="M234.9,4.6c2.9,0,5.2,1.3,6.5,2.8l-2.6,2.9c-.9-.9-2.1-1.7-3.9-1.7-3.2,0-5.6,2.6-5.6,6.9s2,6.9,6.1,6.9,1.8-.2,2.3-.6v-3.6h-3.6v-3.9h7.9v9.9c-1.5,1.5-4.1,2.6-7.2,2.6-5.8,0-10.3-3.8-10.3-11s4.7-11.1,10.5-11.1v-.2Z"/>
    <path class="cls-97" d="M263.2,21.4h-6.5l-1.3,5h-4.9l6.7-21.3h5.8l6.7,21.3h-5l-1.3-5h-.2ZM262.3,17.6l-.5-2c-.6-2.1-1.2-4.6-1.8-6.9h0c-.5,2.3-1.2,4.7-1.7,6.9l-.5,2h4.6-.2.1Z"/>
    <path class="cls-97" d="M271.9,4.9h4.9l5.6,10.7,2.1,4.7h0c-.2-2.3-.6-5.2-.6-7.9v-7.5h4.6v21.3h-4.9l-5.6-10.7-2.1-4.6h0c.2,2.3.6,5.2.6,7.6v7.5h-4.6V4.8h0Z"/>
    <path class="cls-97" d="M293.7,4.9h6.1c6.5,0,10.7,3.2,10.7,10.7s-4.3,10.8-10.5,10.8h-6.2V4.9h-.1ZM299.5,22.5c3.6,0,6.1-1.8,6.1-6.9s-2.4-6.7-6.1-6.7h-.9v13.6h.9Z"/>
    <path class="cls-97" d="M321.4,4.9h6.1c6.5,0,10.7,3.2,10.7,10.7s-4.3,10.8-10.5,10.8h-6.2V4.9h-.1ZM327,22.5c3.6,0,6.1-1.8,6.1-6.9s-2.4-6.7-6.1-6.7h-.9v13.6h.9Z"/>
    <path class="cls-97" d="M342.1,4.9h13.4v4.1h-8.5v4.3h7.2v4.1h-7.2v4.9h8.8v4.1h-13.7V5.1h0v-.2h0Z"/>
    <path class="cls-97" d="M361.4,20.3c1.5,1.3,3.5,2.3,5.2,2.3s2.9-.8,2.9-2.1-1.2-1.8-3.1-2.6l-2.8-1.2c-2.1-.8-4.3-2.8-4.3-5.9s3.1-6.4,7.5-6.4,5,.9,6.9,2.8l-2.4,3.1c-1.5-1.2-2.8-1.7-4.4-1.7s-2.8.6-2.8,2,1.5,1.8,3.2,2.4l2.8,1.2c2.6.9,4.3,2.8,4.3,5.8s-2.9,6.5-8.1,6.5-5.8-.9-7.9-3.1l2.8-3.2v.2h0Z"/>
    <path class="cls-97" d="M378.2,4.9h4.7v21.3h-4.7V4.9Z"/>
    <path class="cls-97" d="M397.7,4.6c2.9,0,5.2,1.3,6.5,2.8l-2.6,2.9c-.9-.9-2.1-1.7-3.9-1.7-3.2,0-5.6,2.6-5.6,6.9s2,6.9,6.1,6.9,1.8-.2,2.3-.6v-3.6h-3.6v-3.9h7.9v9.9c-1.5,1.5-4.1,2.6-7.2,2.6-5.8,0-10.3-3.8-10.3-11s4.7-11.1,10.5-11.1v-.2Z"/>
    <path class="cls-97" d="M408.9,4.9h4.9l5.6,10.7,2.1,4.7h0c-.2-2.3-.6-5.2-.6-7.9v-7.5h4.6v21.3h-4.9l-5.6-10.7-2.1-4.6h0c.2,2.3.6,5.2.6,7.6v7.5h-4.6V4.8h0Z"/>
  </g>
</svg>