<?xml version="1.0" encoding="UTF-8"?>
<svg id="Calque_1" data-name="Calque 1" xmlns="http://www.w3.org/2000/svg" version="1.1" xmlns:xlink="http://www.w3.org/1999/xlink" viewBox="0 0 500 500">
  <defs>
    <style>
      .cls-1, .cls-2 {
        fill: #000;
      }

      .cls-1, .cls-3, .cls-4, .cls-5, .cls-6, .cls-7, .cls-8, .cls-9, .cls-10, .cls-11, .cls-12, .cls-13, .cls-14, .cls-15, .cls-16, .cls-17, .cls-18, .cls-19, .cls-20, .cls-21, .cls-22 {
        stroke-miterlimit: 10;
      }

      .cls-1, .cls-10, .cls-13, .cls-23, .cls-15, .cls-17, .cls-24 {
        stroke: #222221;
      }

      .cls-2, .cls-25, .cls-26, .cls-27, .cls-28, .cls-29 {
        stroke-width: 0px;
      }

      .cls-3 {
        fill: #9dd1c9;
      }

      .cls-3, .cls-4, .cls-5, .cls-7, .cls-11, .cls-14, .cls-19, .cls-21, .cls-22 {
        stroke: #000;
      }

      .cls-3, .cls-4, .cls-6, .cls-7, .cls-8, .cls-9, .cls-10, .cls-12, .cls-13, .cls-15, .cls-17, .cls-19, .cls-21 {
        stroke-width: .5px;
      }

      .cls-4 {
        fill: #7696ea;
      }

      .cls-25, .cls-19 {
        fill: #f65e59;
      }

      .cls-30 {
        clip-path: url(#clippath-2);
      }

      .cls-5, .cls-26, .cls-6, .cls-7, .cls-8, .cls-10, .cls-11, .cls-12, .cls-13, .cls-14, .cls-16, .cls-24, .cls-18, .cls-20, .cls-22 {
        fill: none;
      }

      .cls-6 {
        stroke: #2d2d2d;
        stroke-linecap: round;
      }

      .cls-8, .cls-16 {
        stroke: #f65e59;
      }

      .cls-31 {
        clip-path: url(#clippath-1);
      }

      .cls-27, .cls-29 {
        fill: #faddd4;
      }

      .cls-9 {
        fill: #222221;
        stroke: #fff;
      }

      .cls-10, .cls-17 {
        stroke-dasharray: 0 4;
      }

      .cls-11 {
        stroke-width: 4px;
      }

      .cls-32 {
        clip-path: url(#clippath);
      }

      .cls-12 {
        stroke: #faddd4;
      }

      .cls-28 {
        fill: #ffb340;
      }

      .cls-14 {
        stroke-width: 5px;
      }

      .cls-23 {
        stroke-dasharray: 0 4;
        stroke-miterlimit: 10;
        stroke-width: .5px;
      }

      .cls-23, .cls-15, .cls-17 {
        fill: #fff;
      }

      .cls-24 {
        stroke-dasharray: 0 4;
        stroke-miterlimit: 10;
        stroke-width: .5px;
      }

      .cls-18 {
        stroke: #9dd1c9;
        stroke-width: .8px;
      }

      .cls-29 {
        isolation: isolate;
        opacity: .6;
      }

      .cls-20 {
        stroke: #7696ea;
      }

      .cls-21 {
        fill: #dea600;
      }

      .cls-22 {
        stroke-width: 3px;
      }
    </style>
    <clipPath id="clippath">
      <rect class="cls-26" x="41.6" y="171.3" width="108.4" height="82.5"/>
    </clipPath>
    <clipPath id="clippath-1">
      <rect class="cls-26" x="41.6" y="171.3" width="108.4" height="82.5"/>
    </clipPath>
    <clipPath id="clippath-2">
      <path class="cls-26" d="M352.2,174.7c14.8,12.2-4.3,34.2,8.2,43.4-8.3,1.5-17.1.7-24.9-2.4.3.1,1.1-5.2,1.1-5.5.3-3.7-2.4-4.1-5-5.5-1.6-.9-2.8-2.5-3.6-4.2-2.5-5.3-2.4-11.9-2.1-17.6.2-4.5,1.6-8.7,5.5-11.4,2.3-1.6,4.3-1.2,6.8-1.9,2.8-.8,4.5-.5,7.2.7,2.5,1.1,4.8,2.7,6.9,4.4Z"/>
    </clipPath>
  </defs>
  <g id="OBJECTS">
    <g>
      <g>
        <path class="cls-27" d="M483.2,243.3c.2,1.2.3,2.4.5,3.6,4.6,33,7.9,66.5,2.6,99.4-5.3,32.8-20.1,65.2-46.2,85.9-39.2,31.1-99.3,34.1-147.1,34.7-50.8.5-101.5,1.1-152.3,1.6-20.7.2-41.6.4-61.9-3.9-22.7-4.8-50.1-17.3-60.5-39.3-10.6-22.3-8.9-49.3-.5-72.1,9.9-26.7,28.2-49.3,47.2-70.6,18.9-21.3,38.9-42,53-66.7,20.2-35.4,27.4-77.3,50.3-111,14.7-21.7,35.4-39.1,58.5-51.6,45.4-24.8,102.8-30.8,149.1-7.8,35.6,17.6,62,50.4,78.4,86.5,16,35,23.4,73.2,28.8,111.3Z"/>
        <path class="cls-27" d="M69.1,87.2c-5.6,8.6-10.7,17.7-13.2,27.7-4.5,18.4,3,35.1,18,46.1,11,8,26.6,8.9,38.4,2.2,6.5-3.7,11.7-9.3,16.7-14.9,18.9-20.9,38.7-45.2,37-73.3-1.8-30.5-29-43.7-56-30.3-16.1,8-27.6,22.9-37.7,37.7-1.1,1.6-2.2,3.2-3.2,4.8Z"/>
      </g>
      <g>
        <path class="cls-3" d="M227.7,396.2h-77.4c-.7,0-1.3-.6-1.3-1.3v-10.1c0-.7.6-1.3,1.3-1.3h77.4c.7,0,1.3.6,1.3,1.3v10.1c0,.7-.6,1.3-1.3,1.3Z"/>
        <rect class="cls-21" x="148.9" y="389.7" width="80.2" height="47.7"/>
        <g>
          <line class="cls-13" x1="165.9" y1="396.8" x2="211.4" y2="396.8"/>
          <line class="cls-13" x1="165.9" y1="403.5" x2="211.4" y2="403.5"/>
          <line class="cls-13" x1="165.9" y1="410.2" x2="211.4" y2="410.2"/>
          <line class="cls-13" x1="165.9" y1="416.9" x2="211.4" y2="416.9"/>
        </g>
        <polyline class="cls-13" points="156.4 393.9 160.5 396.8 156.4 399.8"/>
      </g>
      <g>
        <path class="cls-3" d="M212.4,419.3h-77.4c-.7,0-1.3-.6-1.3-1.3v-10.1c0-.7.6-1.3,1.3-1.3h77.4c.7,0,1.3.6,1.3,1.3v10.1c0,.7-.6,1.3-1.3,1.3Z"/>
        <rect class="cls-2" x="133.6" y="412.8" width="80.2" height="47.7"/>
        <g>
          <line class="cls-18" x1="150.6" y1="419.9" x2="196.1" y2="419.9"/>
          <line class="cls-18" x1="150.6" y1="426.6" x2="196.1" y2="426.6"/>
          <line class="cls-18" x1="150.6" y1="433.3" x2="196.1" y2="433.3"/>
          <line class="cls-18" x1="150.6" y1="440" x2="196.1" y2="440"/>
        </g>
        <polyline class="cls-18" points="141.1 417.1 145.2 419.9 141.1 422.9"/>
      </g>
      <g>
        <polyline class="cls-16" points="404.9 399.1 394.9 406.3 404.4 412.4"/>
        <g>
          <path class="cls-16" d="M485.2,403c0,.6-.5,1.1-1.1,1.1s-1.1-.5-1.1-1.1.5-1.1,1.1-1.1,1.1.5,1.1,1.1Z"/>
          <circle class="cls-16" cx="484" cy="408.5" r="1.1"/>
        </g>
        <path class="cls-16" d="M454.5,405.8c0,4-2.2,7.2-5,7.2s-5-3.2-5-7.2,2.2-7.2,5-7.2,5,3.2,5,7.2Z"/>
        <line class="cls-16" x1="416.1" y1="405.8" x2="425" y2="405.8"/>
        <line class="cls-16" x1="430" y1="405.8" x2="438.9" y2="405.8"/>
        <g>
          <line class="cls-16" x1="462.6" y1="403.3" x2="474.9" y2="403.3"/>
          <line class="cls-16" x1="462.6" y1="408.2" x2="474.9" y2="408.2"/>
        </g>
      </g>
      <g>
        <rect class="cls-15" x="19.3" y="73.4" width="446.2" height="263.8"/>
        <g>
          <path class="cls-7" d="M194.9,285.5c0,2-1.6,3.7-3.7,3.7s-3.7-1.6-3.7-3.7,1.6-3.7,3.7-3.7c2,0,3.7,1.6,3.7,3.7Z"/>
          <rect class="cls-27" x="204.8" y="280.8" width="53.9" height="6.7"/>
        </g>
        <g>
          <path class="cls-7" d="M194.9,313c0,2-1.6,3.7-3.7,3.7s-3.7-1.6-3.7-3.7,1.6-3.7,3.7-3.7c2,0,3.7,1.6,3.7,3.7Z"/>
          <rect class="cls-27" x="204.8" y="309.6" width="53.9" height="6.7"/>
        </g>
        <g>
          <g>
            <g>
              <rect class="cls-27" x="41.6" y="171.3" width="108.4" height="82.5"/>
              <g>
                <g class="cls-32">
                  <path class="cls-19" d="M9.1,246.8c10.5-10.2,21.3-20.6,34.5-27.1,13.2-6.4,29.5-8.4,42.4-1.4,14.1,7.6,21.1,23.6,25.9,38.9,1.7,5.4-4.2,8.3-8.5,11.8s-9.6,5.8-14.9,7.7c-11.7,4.3-24.2,7.1-36.6,6.2s-24.9-5.9-33.1-15.2"/>
                </g>
                <g class="cls-31">
                  <path class="cls-15" d="M167.1,258.6c-2-4.4-4-8.7-6-13.1-5.4-11.8-12-24.8-24.2-29.4-7.3-2.7-15.5-1.9-22.8.8-7.3,2.7-13.8,7.2-20,11.8-17.2,12.8-33.1,27.2-47.6,43"/>
                </g>
              </g>
              <path class="cls-19" d="M117.3,197.6c0,3.9-3.1,7-7,7s-7-3.1-7-7,3.1-7,7-7c3.9,0,7,3.1,7,7Z"/>
            </g>
            <rect class="cls-13" x="41.6" y="171.3" width="108.4" height="82.5"/>
          </g>
          <rect class="cls-10" x="31.4" y="163.5" width="128.7" height="97.9"/>
        </g>
        <g>
          <rect class="cls-17" x="31.4" y="87" width="420" height="55.6"/>
          <rect class="cls-27" x="36.8" y="91.4" width="409.3" height="46.8"/>
        </g>
        <circle class="cls-27" cx="57.7" cy="299.2" r="22.1"/>
        <g>
          <path class="cls-7" d="M98.7,285.5c0,2-1.6,3.7-3.7,3.7s-3.7-1.6-3.7-3.7,1.6-3.7,3.7-3.7,3.7,1.6,3.7,3.7Z"/>
          <rect class="cls-27" x="108.6" y="280.8" width="53.9" height="6.7"/>
        </g>
        <g>
          <path class="cls-7" d="M98.7,313c0,2-1.6,3.7-3.7,3.7s-3.7-1.6-3.7-3.7,1.6-3.7,3.7-3.7,3.7,1.6,3.7,3.7Z"/>
          <rect class="cls-27" x="108.6" y="309.6" width="53.9" height="6.7"/>
        </g>
        <rect class="cls-29" x="269.5" y="170" width="173" height="12.3"/>
        <rect class="cls-29" x="269.5" y="194.3" width="173" height="12.3"/>
        <rect class="cls-29" x="269.5" y="218.5" width="173" height="12.3"/>
        <rect class="cls-29" x="269.5" y="242.8" width="173" height="12.3"/>
        <circle class="cls-24" cx="57.7" cy="299.2" r="17.4" transform="translate(-246.2 276.4) rotate(-74.8)"/>
      </g>
      <g>
        <g>
          <g>
            <line class="cls-11" x1="371.9" y1="366.1" x2="371.9" y2="452.7"/>
            <line class="cls-14" x1="408.4" y1="451.9" x2="336.8" y2="451.9"/>
          </g>
          <path class="cls-4" d="M432.5,321.3c-4.9,14.7-12.3,28.1-24.4,38-5.2,4.3-9.6,6.5-16,8.2-7.7,2.1-15.8,2.6-23.7,2.8-11.6.4-23.3.4-34.9,0-7.2-.3-15.4-1.2-19.6-7.1-7.2-10.2.1-22.9,10.3-26.6,9.8-3.6,20.2-5.2,29.4-10.2,19.4-10.4,24.5-34,29.5-53.6,3.7-14.2,6.1-29.9,16.3-41.2,12.9-14.3,33.2-11.5,41.8,5.7,6.1,12.4,1.7,27.6.4,40.6-1.5,14.6-4.5,29.4-9.2,43.4Z"/>
          <path class="cls-15" d="M251.8,400.9c-3.6,1.1-9.6-.2-11.6-2.7-2.2-2.8.5-7.5,1.7-10.2,4.3-9.2,7.7-18.8,11.8-28.2,2-4.6,4.2-9.2,6.7-13.6,2.2-3.9,4.4-6.8,9.2-7.4,2.9-.4,5.9.8,8.2,2.6,3.1,2.4,5.2,6,5.8,9.8,1.2,7.2-2.7,14.2-6.8,20.3-3.7,5.5-7.8,10.9-12,16-2.1,2.5-4.3,5-6.5,7.4-1.8,1.9-3.9,5.2-6.4,6Z"/>
          <path class="cls-2" d="M247.9,394.7c-3-1.3-5.3-3.4-6.8-6-1.2.4-2.6,1-3.4,1-2.1.2-4.3,0-6.4-.3-5.8-.7-15.5-5.8-20.4-.5-1,1.1-1.5,2.7-.9,4.1.5,1.2,1.8,1.8,3,2.4,10.6,5.1,21.4,9.5,32.3,14,3.1,1.3,5.7,1.5,6.7-1.9,1.1-3.7,3.3-7.2,5-10.6-3.1-.2-6.2-.8-9.1-2.1Z"/>
          <path class="cls-19" d="M388.4,304.8c-9,7.5-20.3-1.7-30.9-3.5-24.5-4.1-61.2-22.8-78.4,4.3-9.4,14.8-18.8,29.8-25.3,46.1-2.2,5.5-4.1,11.2-6.9,16.3.7.4,1.4.9,2.1,1.3,7.5,4.8,14.4,10.7,22.6,14.2,4.1,1.8,8.3,3.1,12.6,4.2,1.4-2.2,2.7-4.5,4-6.8,8.2-15.2,13.6-32.1,21.2-47.6,9.4-19,29.5,8.8,35,16.4,9.5,8.2,72.2,23.1,44-44.9Z"/>
          <path class="cls-15" d="M310.8,452s0,0,0,0c-1.1,1.2-2.4,2.1-3.9,2.8-3,1.6-6.6,2.8-9.9,1.4-4.9-2.1-2.3-7.8-1.8-11.9.6-5.7,1.1-11.5,2-17.2,1.3-8.2,3.9-16.4,9.1-22.8,1.5-1.9,3.2-3.6,5.4-4.6,2.3-1.1,5.1-1.7,6.9.3,1.9,2.1,3.2,5.4,3.7,8.1.6,3.1.2,6.3-.3,9.5-1,6.3-2.5,12.6-4.6,18.7-1,2.8-2.1,5.5-3,8.3-.8,2.5-1.7,5.2-3.5,7.2Z"/>
          <path class="cls-19" d="M359.7,354c-3.3-4.2-5.9-9.2-9.5-13-2.8-3-5.4-6-8.3-8.9-5.7-5.6-12.2-11.7-19.9-14.4-13.4-4.6-21.2,7-23.6,18.4-3.4,16.3-6.8,32.6-10.2,49-2.9,13.8-5,27.9-7.5,41.8,0,0,0,.1,0,.2,1.4.5,2.8,1,4.2,1.4,3.4,1,6.9,1.7,10.3,2.5,2.4.5,4.9,1,7.3,1.3,3.2.3,22,1.6,22.6-2.2,3.4-20.1,4.6-40.5,7.2-60.7.4-3.3.9-6.7,2.7-9.4,4.3-6.4,17.3-5,23.7-4.2"/>
          <path class="cls-2" d="M270,463.4c.6-1,1.4-1.8,2.3-2.5,2.4-1.8,5.3-2.9,8.1-4,5.2-2.1,10.8-4.7,13.4-9.7,5.5,3.1,15.7,1.9,20.8-1.4-.7,5.1-.5,10.3-.9,15.4,0,.3,0,.5-.2.7-.2.2-.4.3-.7.4-5,1.5-10.1,3.1-15.1,4.6-4.5,1.4-8.9,3-13.6,3.7-3.2.4-6.5,1.1-9.7.7-2-.2-4-1-5-2.8-.9-1.6-.5-3.5.6-5.1Z"/>
          <path class="cls-15" d="M238.3,195.3c2.5,5.4,4.1,11.6,6.1,17.2,2.7,7.7,5.4,15.4,10,22.1,6.1,8.8,15,14,25.6,14.7,14,.9,31,3.1,43.2-5.2,2.7-1.8,5.2-4.2,6.4-7.2,1.2-3,.9-6.8-1.4-9.2-1.8-1.9-4.6-2.5-7.1-3-12.4-2.1-24.9-2.1-37.5-2.7-3.5-.1-7-.3-10.3-1.5-7-2.5-11.5-9.2-15.5-15.5-1.8-2.8-3.6-5.7-5.4-8.5-2.5-3.9-5-7.9-8.8-10.5-3.8-2.6-9.1-3.6-13-1.1-1.2.8-2.3,2-2.6,3.4-.4,2.3,1.2,4.5,3.2,5.6,1.9,1,4.8,1.7,6.8.9,0,.1,0,.2.1.3Z"/>
          <path class="cls-15" d="M418.3,293.1c4.9,13.2-4.1,22.6-17.6,18.2-23.4-8.5-35.8-97.3,2.7-60.7,6.3,13,10.4,28.3,14.9,42.5Z"/>
          <path class="cls-21" d="M409,257c-1.8-4.3-4-8.5-6.5-12.4-5.1-7.9-11.5-14.9-18.9-20.7-4.6-3.6-10.4-4.9-16.1-5.7-6-.9-12-1.7-18-2.2-18.2-1.4-36.4,1.3-54.5,3.5,0,11.9,0,23.8,0,35.8,0-.5,14-1.1,15.5-1.3.5,5.8,1.4,11.2,1.4,17s.7,12.5,1.8,18.6c1.1,6.2,1.9,13.3,5,18.9,6.5,11.8,23.9,9,35,8.1,6.5-.5,12.9-1.2,19.4-1.4,4.3-.1,8.7,0,13-.6,2.2-.4,4.2-1.1,4.9-3.4.9-3.1-.3-7.1-1-10.1-1.4-6.9-2.4-15.1-5.1-21.8-.4-.9-.8-1.9-1.3-2.7,4.7-2.5,8.9-5.3,13.4-8.2,2.3-1.5,4.6-3.1,6.8-4.7,1.1-.8,2.2-1.6,3.3-2.4,1.8-1.4,2.6-1.8,1.7-4Z"/>
          <path class="cls-15" d="M336,207.4c1.2,1.8.8,4.9,0,6.6-.3.6-.7,1.1-1.3,1.5,1.7,1.7,3.6,3.3,5.8,4.3,2.7,1.3,5.9,1.9,8.9,1.7,4.4-.3,8.8-1.9,12.2-4.7-2.1-.4-3.8-2.1-4.7-4-1-2.2-1-4.6-.8-6.9,1-10.3,5.7-23.4-3.9-31.2-2.1-1.7-4.4-3.3-6.9-4.4-2.7-1.2-4.5-1.4-7.2-.7-2.5.7-4.5.3-6.8,1.9-3.9,2.7-5.2,6.9-5.5,11.4-.3,5.7-.3,12.3,2.1,17.6.8,1.7,2,3.2,3.6,4.2,1.4.8,3.4,1.3,4.4,2.7Z"/>
          <path class="cls-2" d="M330.7,178.6c1-.6,1.9-1.1,3-1.5,1-.3,2.9-.4,3.7.5.6.7.2,1.3.2,2.1-.2,2.4,1.3,3.7,3.7,2.6,1.2-.5,2.7-1.2,3.8-.5,1.7,1,.5,2.8.8,4.2.3,2,1.4,4.3,2.4,6.1,1.4,2.4,3,5.2,5.2,6.9,6.9,5.4,7.2-6.7,9.3-9.9.6-.9,1.3-1.8,1.6-2.9.6-2.4-1.1-4.6-2.8-6.6-.3-.3-.5-.6-.8-.9-.2-.3-.5-.6-.6-.9-.2-1,1.7-2.7,1.9-3.9.4-2.1-.6-4.6-1.9-6.2-1.8-2.2-4.9-3.3-7.7-2.8-1.2.2-2.6.7-3.6,0-1.5-1-.9-2.9-2.1-4.2-1.1-1.1-2.9-1.6-4.3-.9-.7.3-1.2.9-1.9,1.1-1.5.6-3.2-.2-4.9-.4-1.8-.2-3.7.5-4.9,1.8-1,1-1.6,2.3-2.8,3-1.3.8-2.9.7-4.3,1.1-3.7,1-6,5.5-4.7,9.1s5.9,5.6,9.5,4.3c.8-.3,1.6-.7,2.4-1.2Z"/>
          <path class="cls-15" d="M343.8,188.6c.4-.8,1-1.6,1.7-2.2,2.6-2.2,6.8-.6,8.2,2.1.7,1.3.9,2.9.5,4.4-.4,1.6-1.7,3.1-3.3,3.6"/>
          <path class="cls-7" d="M383.6,276c-2.6-5.1-4.8-8.4-7.2-13.5"/>
          <path class="cls-5" d="M331,197.9c1.7.1,3.5-.3,5-1.3"/>
          <g class="cls-30">
            <path class="cls-2" d="M334.4,206.6c0,0,0-.2,0-.3,2.7.2,5.5,0,7.9-1-1.3,1.8-4.8,4.2-7.5,6,0-.6.3-3.2-.4-4.7Z"/>
          </g>
          <path class="cls-7" d="M352.3,190.9c-.6-2-2.8-3.3-4.9-2.9-.8.1-1.7.6-2,1.4"/>
          <path class="cls-7" d="M348.5,188.1c1.2.8,1.6,2.6.8,3.8"/>
          <path class="cls-22" d="M440.3,302.4c-49-28.4-114.3,22.6-88.2,70.2"/>
        </g>
        <line class="cls-5" x1="439.1" y1="316.8" x2="443" y2="466.7"/>
        <line class="cls-5" x1="247.8" y1="316.8" x2="243.9" y2="466.7"/>
        <g>
          <rect class="cls-23" x="151.1" y="179.6" width="97.9" height="68" transform="translate(-20.3 406.2) rotate(-88)"/>
          <rect class="cls-27" x="155.5" y="182.7" width="89.1" height="61.8" transform="translate(-20.3 406.2) rotate(-88)"/>
          <line class="cls-10" x1="235.7" y1="165.9" x2="164.4" y2="261.4"/>
          <line class="cls-10" x1="168" y1="163.4" x2="232.2" y2="263.9"/>
        </g>
        <rect class="cls-15" x="235.8" y="311.5" width="212.1" height="7"/>
        <g>
          <path class="cls-2" d="M268.7,311.7h90.3c1.2,0,2.1-1,2.1-2.1h0c0-1.2-1-2.1-2.1-2.1h-90.3c-1.2,0-2.1,1-2.1,2.1h0c0,1.2,1,2.1,2.1,2.1Z"/>
          <path class="cls-2" d="M266.3,311.7h80.8l-7-46.4c-.2-1.6-1.6-2.8-3.2-2.8h-74.4c-1.9,0-3.4,1.7-3.1,3.7l6.9,45.6Z"/>
          <circle class="cls-9" cx="299.3" cy="283.7" r="3.9"/>
        </g>
        <path class="cls-15" d="M238.3,195c-3.1.3-6.2.5-9.2,0-.6,0-1.3-.2-1.7-.6s-.7-1.2-.3-1.7c.4-.6,1.2-.5,1.9-.5,2.7.2,5.4-.6,7.6-2.1"/>
        <g>
          <path class="cls-3" d="M408.5,207.9c-.7-.8-1.5-1.5-2.5-2-5.2-2.9-11.9-.5-16.8,2.9-9.5,6.5-18.7,12.6-23.6,23.5-5.4,12-7.2,25.7-8.9,38.6-.2,1.8-1.2,5.5-.8,8,1.8-.4,3.5-.7,5.3-.9.9-1.7,1.6-3.5,2.1-4.5,5.9-11.6,13.8-22.3,23.8-30.8,7.7-6.6,20.2-11.6,23.6-21.8,1.5-4.3.7-9.5-2.2-12.9Z"/>
          <path class="cls-3" d="M349.1,261.5c1.3,2.8,2.3,5.7,3.3,8.5.5,1.4,2.9,6.4,3.1,9h.2c.4-.1,1.2-.3,1.4-.3,1.1-2.6.3-5.1.5-7.9.7-10.6,2.9-22.4-1.5-32.3-2.5-5.7-7.1-11-13.5-13.4s-14.6-1.8-19.8,2.6c-1,.8-1.9,1.8-2.3,2.9-1.1,2.8.6,5.8,2.7,8,1.8,1.9,4,3.5,6.4,4.7,2.5,1.3,5.3,2.2,7.7,3.6,2.9,1.7,5.2,3.9,7,6.4,1.9,2.5,3.4,5.3,4.7,8.1Z"/>
          <path class="cls-13" d="M358.6,277.8c5.8-18,11.5-37.8,26-50.9,4-3.6,8.3-6.8,12.6-9.9"/>
          <path class="cls-13" d="M338.6,236.9c16,8.3,15.2,26.7,17.8,41.5"/>
        </g>
        <path class="cls-15" d="M397.6,284.7c-7.2-2.6-14.5-5.2-21.7-7.7-4.1-1.4-8.1-3-12.1-4.4-3.9-1.3-8-2.8-12-1.5-.7.2-1.4.5-1.9,1.1-1.4,1.9.9,2.3,2.2,2.5-1,0-1.9,1-1.7,2,.2,1,1.4,1.6,2.4,1.3-.6.4-1.2.9-1.2,1.7,0,.9,1.3,1.3,2.2,1.4-1.1.1-1.4,1.4-.8,2.2.6.8,1.7,1,2.6,1.1,3.1.4,6.2.5,9.4.3.2,0,.3,0,.5,0,.1,0,.3.2.4.3,2.5,2.1,5,4.1,7.6,6,2.4,1.8,4.5,4.3,6.7,6.4,3.6,3.5,7.3,7.2,11.2,10.3.5.4,1.1.8,1.6,1.3,4.4,3.4,10,6,15.6,6.5,5.5.5,12.1-2.3,13.1-8.4.3-1.7,0-3.5-.3-5.2-.4-2.2-1-4.4-1.7-6.6-.2-.7-.5-1.4-1-2-.8-1-2.1-1.6-3.3-2"/>
        <path class="cls-8" d="M223.6,390c.2-1,1.9-4.8,3.4-3.5.9.8-.3,2.3-.6,3.1-.2.7-.1,1.5.5,1.8.6.3,1.3-.2,1.7-.8.5-.7.7-1.5,1-2.2.4-.7.9-1.5,1.7-1.6.2,0,.4,0,.6,0,.2.1.3.3.4.5.2.7,0,1.4-.3,2.1s-.2,1.5.3,2c.6.6,1.6.3,2.2-.3s.7-1.5.9-2.3"/>
        <path class="cls-8" d="M289.8,454.1c-.3-1.2-1-2.2-2-2.9-.6-.4-1.4-.7-2-.3-.5.4-.5,1-.4,1.6s.5,1,.8,1.5c.4.7.6,1.5.4,2.2-.2.7-1.2,1.2-1.8.8-.3-.2-.5-.5-.6-.9-.3-.6-.6-1.2-1.2-1.6-.5-.4-1.3-.6-1.9-.2-.7.5-.8,1.5-.6,2.3.1.8.4,1.7.2,2.5-.7.4-1.5.1-2.1-.4-.6-.5-1-1.2-1.3-1.8"/>
      </g>
      <g>
        <g>
          <g>
            <path class="cls-25" d="M100.4,370.7c-1.3.4-2.5.9-3.6,1.5,0,0,.2.2.2.3,1.1,1.5.9,3.6-.6,4.8-1.5,1.2-3.6.9-4.7-.6,0-.1-.1-.2-.2-.3-.9,1-1.7,2-2.4,3.2.1,0,.2,0,.4.1,1.7.7,2.5,2.7,1.8,4.4-.7,1.7-2.7,2.6-4.4,1.9-.1,0-.3-.1-.4-.2-.3,1.3-.5,2.6-.5,4,.1,0,.3,0,.4,0,1.8-.3,3.5,1,3.8,2.9.3,1.9-1,3.6-2.9,3.8-.2,0-.3,0-.5,0,.4,1.3.9,2.6,1.5,3.8.1-.1.2-.2.3-.3,1.5-1.2,3.6-.9,4.7.6,1.1,1.5.9,3.6-.6,4.8-.1.1-.3.2-.4.3,1,.9,2,1.8,3.2,2.5,0-.2,0-.3.1-.5.7-1.7,2.7-2.6,4.4-1.9s2.5,2.7,1.8,4.4c0,.2-.2.3-.3.5,1.3.3,2.6.5,4,.5,0-.2,0-.3-.1-.5-.3-1.9,1-3.6,2.9-3.8,1.8-.3,3.5,1,3.8,2.9,0,.2,0,.4,0,.6,1.3-.4,2.6-.9,3.7-1.6-.1-.1-.3-.2-.4-.4-1.1-1.5-.9-3.6.6-4.8s3.6-.9,4.7.6c.1.1.2.3.3.5.9-1,1.7-2.1,2.4-3.3-.2,0-.3,0-.5-.1-1.7-.7-2.5-2.7-1.8-4.4s2.7-2.6,4.4-1.9c.2,0,.3.2.4.2.3-1.3.5-2.7.5-4-.1,0-.3,0-.4.1-1.8.3-3.5-1-3.8-2.9s1-3.6,2.9-3.8c.1,0,.3,0,.4,0-.4-1.3-.9-2.5-1.5-3.7,0,0-.2.2-.3.3-1.5,1.2-3.6.9-4.7-.6-1.1-1.5-.9-3.6.6-4.8.1,0,.2-.1.3-.2-1-.9-2-1.7-3.1-2.4,0,.1,0,.2-.1.4-.7,1.7-2.7,2.6-4.4,1.9s-2.5-2.7-1.8-4.4c0-.1.1-.2.2-.3-1.3-.3-2.6-.5-3.9-.5,0,.1,0,.2,0,.3.3,1.9-1,3.6-2.9,3.8-1.8.3-3.5-1-3.8-2.9,0-.1,0-.2,0-.4ZM104.5,376.7c7.5-1,14.3,4.3,15.4,11.8,1,7.6-4.2,14.6-11.7,15.6s-14.3-4.3-15.4-11.8c-1-7.6,4.2-14.6,11.7-15.6Z"/>
            <path class="cls-6" d="M104.7,378.4c6.5-.9,12.6,3.7,13.5,10.4s-3.7,12.8-10.2,13.7-12.6-3.7-13.5-10.4c-.9-6.6,3.7-12.8,10.2-13.7Z"/>
          </g>
          <g>
            <path class="cls-28" d="M47.9,357.6c-2,.5-3.9,1.3-5.7,2.2.1.1.3.3.4.4,1.7,2.3,1.2,5.6-1.1,7.3-2.3,1.7-5.5,1.2-7.2-1.2-.1-.2-.2-.3-.3-.5-1.4,1.5-2.7,3-3.8,4.8.2,0,.4.1.5.2,2.6,1.2,3.8,4.3,2.6,6.9-1.2,2.6-4.2,3.8-6.8,2.6-.2,0-.4-.2-.6-.3-.5,2-.9,4-1,6.1.2,0,.4-.1.6-.1,2.8-.3,5.4,1.8,5.7,4.7.3,2.9-1.8,5.5-4.6,5.8-.2,0-.5,0-.7,0,.5,2.1,1.3,4,2.2,5.9.2-.2.3-.3.5-.5,2.3-1.7,5.5-1.2,7.2,1.2s1.2,5.6-1.1,7.3c-.2.2-.5.3-.7.4,1.5,1.5,3.1,2.8,4.8,4,0-.3.1-.5.2-.8,1.2-2.6,4.2-3.8,6.8-2.6,2.6,1.2,3.8,4.3,2.6,6.9-.1.3-.3.5-.4.7,2,.5,4,.9,6.2,1,0-.3-.1-.5-.2-.8-.3-2.9,1.8-5.5,4.6-5.8s5.4,1.8,5.7,4.7c0,.3,0,.6,0,.9,2-.6,4-1.3,5.8-2.2-.2-.2-.4-.4-.5-.6-1.7-2.3-1.2-5.6,1.1-7.3,2.3-1.7,5.5-1.2,7.2,1.2.2.2.3.5.4.7,1.5-1.5,2.8-3.1,3.9-4.9-.2,0-.5-.1-.7-.2-2.6-1.2-3.8-4.3-2.6-6.9,1.2-2.6,4.2-3.8,6.8-2.6.2.1.4.2.7.4.5-2,.8-4.1,1-6.2-.2,0-.4.1-.7.1-2.8.3-5.4-1.8-5.7-4.7-.3-2.9,1.8-5.5,4.6-5.8.2,0,.5,0,.7,0-.5-2-1.3-4-2.2-5.8-.2.1-.3.3-.5.4-2.3,1.7-5.5,1.2-7.2-1.2s-1.2-5.6,1.1-7.3c.2-.1.4-.2.5-.3-1.4-1.4-3-2.7-4.7-3.9,0,.2,0,.4-.2.5-1.2,2.6-4.2,3.8-6.8,2.6s-3.8-4.3-2.6-6.9c0-.2.2-.3.3-.5-1.9-.5-3.9-.8-6-1,0,.2,0,.3.1.5.3,2.9-1.8,5.5-4.6,5.8s-5.4-1.8-5.7-4.7c0-.2,0-.4,0-.6ZM53.9,367c11.6-1.2,21.9,7.3,23.1,19,1.2,11.7-7.2,22.2-18.7,23.4-11.6,1.2-21.9-7.3-23.1-19-1.2-11.7,7.2-22.2,18.7-23.4Z"/>
            <path class="cls-28" d="M52.9,412.3c13.1,1.7,25.1-7.6,26.8-20.9,1.7-13.3-7.5-25.5-20.6-27.2-13.1-1.7-25.1,7.6-26.8,20.9-1.7,13.3,7.5,25.5,20.6,27.2ZM40.1,386.1c1.2-8.9,9.2-15.2,18-14,8.8,1.2,15,9.4,13.8,18.3-1.2,8.9-9.2,15.2-18,14-8.8-1.2-15-9.4-13.8-18.3Z"/>
          </g>
        </g>
        <path class="cls-6" d="M37.3,385.7c1.4-10.5,10.9-17.9,21.2-16.5,10.3,1.4,17.6,11,16.3,21.5-1.4,10.5-10.9,17.9-21.2,16.5-10.3-1.4-17.6-11-16.3-21.5Z"/>
      </g>
      <g>
        <g>
          <rect class="cls-4" x="152.2" y="355.3" width="77.3" height="11.5"/>
          <polygon class="cls-1" points="137 361.1 152.3 366.8 152.3 355.3 137 361.1"/>
        </g>
        <polygon class="cls-2" points="113.7 361.3 125.5 368.7 139.1 361.2 125.9 353.3 113.7 361.3"/>
        <path class="cls-27" d="M124.8,359.1c1.1,0,2,.9,2,2s-.9,2-2,2-2-.9-2-2,.9-2,2-2Z"/>
        <line class="cls-12" x1="113.7" y1="361" x2="124.8" y2="361"/>
        <path class="cls-21" d="M144.5,360.5v.9c0,3-2.4,5.4-5.4,5.4h0c-3,0-5.4-2.4-5.4-5.4v-.9c0-3,2.4-5.4,5.4-5.4h0c3,0,5.4,2.4,5.4,5.4Z"/>
      </g>
      <g>
        <g>
          <path class="cls-3" d="M451.8,67c-.4-.6-.8-1.1-1.3-1.6-4.4-4.1-11.4-2.9-17.2-1.1-12.8,4.1-27.3,11.5-34.8,23-8.2,12.7-12.6,27.9-16.8,42.4-.6,2-2.4,6.1-2.3,8.9,2.1-.1,4.1-.2,6.2,0,1.3-1.7,2.4-3.7,3.2-4.8,8.8-12.2,19.6-23,32.4-30.9,11.3-7,24.3-10.1,30.8-23,2-4,2.3-9.2-.1-12.9Z"/>
          <path class="cls-21" d="M374.8,138.6h2.3s0,0,0,0c0-.7-.3-1.4-.4-2.2-.2-1.4-.4-2.8-.8-4.2-.7-3.1-1.7-6.1-2.6-9.1-1.4-4.9-3.1-9.7-5.5-14.1-2.5-4.5-6-8.7-10.5-11.2-10.9-6-30.5-2.5-35.7,9.7-1.7,4-1.4,9.2,1.7,12.4,1.5,1.5,3.4,2.5,5.4,3.1,2.7.8,5.7,1,8.5.5,6.9-1.2,14.9-3.2,22-1.4.7.2,1.4.4,2.1.7,3.7,1.6,6.5,4.6,8.9,7.7,2,2.5,3.9,5.1,4.6,8.2Z"/>
          <path class="cls-19" d="M372,110.2c1.2,4.6,2,9.3,2.7,13.9.4,2.3,2.5,10.6,2.4,14.6h.2c.5,0,1.7,0,1.9-.1,2-3.7,1.5-7.8,2.4-12,3.2-16.1,8.6-33.8,4.7-50.1-2.3-9.5-7.4-18.5-15.5-23.9-8.1-5.3-19.5-6.2-27.4-.6-1.5,1.1-2.9,2.4-3.8,4-2.1,4-.4,9.1,2,12.9,2.1,3.3,4.7,6.3,7.7,8.8,3.2,2.6,6.7,4.6,9.8,7.4,3.6,3.2,6.2,7.2,8.2,11.6,2,4.3,3.5,9,4.6,13.6Z"/>
          <path class="cls-13" d="M382.5,137.9c9.8-19.5,19.6-41,38.4-53.3,5.1-3.4,10.6-6.2,16.1-9.1"/>
          <path class="cls-13" d="M376,138.2c-4.9-11.3-9.5-20.7-19.9-25.6-6.7-3.1-14.1-2.4-20.5-1.8"/>
          <path class="cls-13" d="M362.9,69.8c20,16.6,15.1,44.7,15.5,68.1"/>
        </g>
        <line class="cls-13" x1="362.7" y1="138.7" x2="407.3" y2="138.7"/>
      </g>
      <g>
        <path class="cls-4" d="M46.3,445.7c1.5,1.3,3.3,1.9,5.3,1.8,1.6-.1,3.2-.9,4.9-2.4l41.1-2.5-.7-10.4-41,2.5c-1.4-1.3-3.3-1.9-5.3-1.8-1.8.1-3.5.9-4.7,2.1-1.4,1.4-2.2,3.5-2.1,5.6.1,1.9,1,3.7,2.5,5ZM48.8,438.7c.3-.5,1-.8,1.5-.9.6,0,1.1,0,1.5.3-.1,0-.2-.1-.3-.2,0,0,0,0,0,0,1,.4,1.5,1.4,1.5,2.4,0,.9-1,2-2,2,0,0,0,0,0,0-.4,0-.8,0-1.1-.1,0,0,0,0,0,0,0,0,0,0,0,0-.2,0-.3-.1-.5-.2,0,0,0,0,0,0-1-.7-1-2.2-.4-3.2Z"/>
        <line class="cls-7" x1="96.9" y1="435.4" x2="55.4" y2="437.9"/>
        <line class="cls-7" x1="97.2" y1="439.5" x2="55.5" y2="441.9"/>
        <path class="cls-4" d="M101.8,446.2c4.8-.3,8.7-4,9.1-8.9v-1.6c.1,0-7.9,3.9-7.9,3.9l-3.1-6.4,8.1-3.9-1.2-.9c-1.8-1.3-4.1-2-6.4-1.8-2.4.2-4.6,1.2-6.3,2.9-.1.1-.3.3-.4.4-1.7,2-2.6,4.5-2.4,7.1.4,5.4,5,9.5,10.4,9.1Z"/>
        <path class="cls-7" d="M45.8,438.4c.9-2.7,3.9-4.1,6.5-3.2,2.7.9,4.1,3.9,3.2,6.5s-3.9,4.1-6.5,3.2c-2.7-.9-4.1-3.9-3.2-6.5Z"/>
      </g>
      <g>
        <line class="cls-16" x1="153" y1="44" x2="143" y2="56.8"/>
        <line class="cls-16" x1="160.8" y1="44" x2="150.9" y2="56.8"/>
        <line class="cls-16" x1="168.7" y1="44" x2="158.7" y2="56.8"/>
        <line class="cls-16" x1="234.8" y1="44" x2="224.8" y2="56.8"/>
        <line class="cls-16" x1="242.6" y1="44" x2="232.6" y2="56.8"/>
        <line class="cls-16" x1="168" y1="51.8" x2="175.1" y2="51.8"/>
        <line class="cls-16" x1="177.8" y1="51.8" x2="185" y2="51.8"/>
        <line class="cls-16" x1="187.6" y1="51.8" x2="194.8" y2="51.8"/>
        <line class="cls-16" x1="241.1" y1="51.8" x2="248.3" y2="51.8"/>
        <line class="cls-16" x1="251" y1="51.8" x2="258.1" y2="51.8"/>
        <line class="cls-16" x1="215.9" y1="51.8" x2="223" y2="51.8"/>
        <polyline class="cls-16" points="207.6 46 199.3 51.6 206.5 58.1"/>
        <polyline class="cls-16" points="214.7 46 206.3 51.6 213.6 58.1"/>
      </g>
      <g>
        <polyline class="cls-20" points="68.7 107.5 58.7 114.7 68.1 120.8"/>
        <polyline class="cls-20" points="161.2 107.5 151.1 114.7 160.6 120.8"/>
        <g>
          <line class="cls-20" x1="75.4" y1="111.7" x2="87.6" y2="111.7"/>
          <line class="cls-20" x1="75.4" y1="116.6" x2="87.6" y2="116.6"/>
        </g>
        <line class="cls-20" x1="98.8" y1="108" x2="94.3" y2="120.3"/>
        <line class="cls-20" x1="105.5" y1="108" x2="101" y2="120.3"/>
        <line class="cls-20" x1="173.4" y1="108" x2="169" y2="120.3"/>
        <line class="cls-20" x1="180.1" y1="108" x2="175.7" y2="120.3"/>
        <g>
          <path class="cls-20" d="M113.8,111.4c0,.6-.5,1.1-1.1,1.1s-1.1-.5-1.1-1.1.5-1.1,1.1-1.1,1.1.5,1.1,1.1Z"/>
          <path class="cls-20" d="M113.8,116.9c0,.6-.5,1.1-1.1,1.1s-1.1-.5-1.1-1.1.5-1.1,1.1-1.1c.6,0,1.1.5,1.1,1.1Z"/>
        </g>
        <path class="cls-20" d="M131.1,114.1c0,4-2.2,7.2-5,7.2s-5-3.2-5-7.2,2.2-7.2,5-7.2,5,3.2,5,7.2Z"/>
        <path class="cls-20" d="M146.7,114.1c0,4-2.2,7.2-5,7.2s-5-3.2-5-7.2,2.2-7.2,5-7.2,5,3.2,5,7.2Z"/>
      </g>
      <g>
        <polyline class="cls-20" points="423.3 155.3 414.4 162.5 422.8 168.7"/>
        <polyline class="cls-20" points="436.3 155.3 427.5 162.5 435.9 168.7"/>
        <g>
          <line class="cls-20" x1="440.8" y1="159.5" x2="451.6" y2="159.5"/>
          <line class="cls-20" x1="440.8" y1="164.4" x2="451.6" y2="164.4"/>
        </g>
        <line class="cls-20" x1="374.1" y1="162" x2="382.5" y2="162"/>
        <line class="cls-20" x1="387.4" y1="162" x2="395.8" y2="162"/>
        <line class="cls-20" x1="400.7" y1="162" x2="409" y2="162"/>
      </g>
    </g>
  </g>
</svg>