<?xml version="1.0" encoding="UTF-8"?>
<svg id="Calque_1" data-name="Calque 1" xmlns="http://www.w3.org/2000/svg" version="1.1" xmlns:xlink="http://www.w3.org/1999/xlink" viewBox="0 0 500 500">
  <defs>
    <style>
      .cls-1 {
        fill: #173acc;
      }

      .cls-1, .cls-2, .cls-3, .cls-4, .cls-5, .cls-6, .cls-7, .cls-8, .cls-9, .cls-10, .cls-11, .cls-12, .cls-13, .cls-14, .cls-15, .cls-16, .cls-17, .cls-18, .cls-19, .cls-20, .cls-21, .cls-22, .cls-23, .cls-24, .cls-25, .cls-26, .cls-27 {
        stroke-width: 0px;
      }

      .cls-2, .cls-13 {
        fill: #ffa683;
      }

      .cls-3 {
        fill: #1574bc;
      }

      .cls-4, .cls-9 {
        fill: #379cf7;
      }

      .cls-4, .cls-13, .cls-14, .cls-16 {
        fill-rule: evenodd;
      }

      .cls-5 {
        opacity: .4;
      }

      .cls-5, .cls-7, .cls-12, .cls-26 {
        isolation: isolate;
      }

      .cls-5, .cls-10, .cls-12, .cls-16 {
        fill: #092b96;
      }

      .cls-6 {
        fill: #d8e8ef;
      }

      .cls-7 {
        fill: #ade4f2;
        opacity: .5;
      }

      .cls-8 {
        fill: #7dc4f9;
      }

      .cls-11, .cls-14 {
        fill: #ef7f5e;
      }

      .cls-12 {
        opacity: .4;
      }

      .cls-15 {
        fill: #63b8f7;
      }

      .cls-17 {
        fill: url(#Dégradé_sans_nom_2);
      }

      .cls-18 {
        fill: #09256b;
      }

      .cls-19 {
        fill: #2b56e0;
      }

      .cls-20 {
        fill: #052575;
      }

      .cls-21 {
        fill: url(#Dégradé_sans_nom);
      }

      .cls-22 {
        fill: #abd0dd;
      }

      .cls-23, .cls-26 {
        fill: #fff;
      }

      .cls-24 {
        fill: #1d88d8;
      }

      .cls-25 {
        fill: #147ac6;
      }

      .cls-26 {
        opacity: 0;
      }

      .cls-27 {
        fill: #ccf2ff;
      }
    </style>
    <linearGradient id="Dégradé_sans_nom" data-name="Dégradé sans nom" x1="1351.4" y1="1333.4" x2="1402.3" y2="1380.5" gradientTransform="translate(-1536.5 690.5) rotate(28.3) scale(1 -1)" gradientUnits="userSpaceOnUse">
      <stop offset="0" stop-color="#fff"/>
      <stop offset="1" stop-color="#fff" stop-opacity="0"/>
    </linearGradient>
    <linearGradient id="Dégradé_sans_nom_2" data-name="Dégradé sans nom 2" x1="1363.4" y1="1320.5" x2="1414.2" y2="1367.6" gradientTransform="translate(-1536.5 690.5) rotate(28.3) scale(1 -1)" gradientUnits="userSpaceOnUse">
      <stop offset="0" stop-color="#fff"/>
      <stop offset="1" stop-color="#fff" stop-opacity="0"/>
    </linearGradient>
  </defs>
  <g id="OBJECTS">
    <g>
      <g>
        <path class="cls-27" d="M99.5,367.4h304.7c29.9,0,55.7-21.7,59.8-51.3,0-.7.2-1.4.3-2.1,1.3-12.8-1.3-25.6-11.7-35.3-33.4-31.3,13.2-71.7,6.3-99.5-7-27.8-31.3-11.8-76.5-55.7-45.2-43.8-38.2-68.2-116.8-14.5-63.1,43.1-138.7-4.9-176.3,13.9-37.6,18.8.1,74.3-45.8,134.2-29,37.7-7.3,71.9,12.7,92,6.6,6.6,14.5,11.6,23,14.8,6.5,2.4,13.4,3.5,20.3,3.5Z"/>
        <path class="cls-7" d="M458.8,179.2c-7-27.8-31.3-11.8-76.5-55.7-30.8-29.8-37.4-50.7-63.2-44,20.6,7.2,26.5,13.8,32.2,27.2,32.9,77-35.3,154.5,11.1,189.2,25.5,19.2-27.5,47.2-75.9,71.4h117.7c29.9,0,55.7-21.7,59.8-51.3,0-.7.2-1.4.3-2.1,1.3-12.8-1.3-25.6-11.7-35.3-33.4-31.3,13.2-71.7,6.3-99.5Z"/>
      </g>
      <g>
        <g>
          <g>
            <polygon class="cls-9" points="195.2 114.6 138 102.2 159.2 143.7 173.3 132.6 178.8 142.2 180.6 124.8 195.2 114.6"/>
            <polygon class="cls-10" points="179 124 180.6 124.8 178.8 142.2 173.3 132.6 138 102.2 179 124"/>
          </g>
          <polygon class="cls-3" points="167 137.5 178.8 142.2 173.3 132.6 167 137.5"/>
        </g>
        <g>
          <path class="cls-10" d="M182.7,144.2c-.5-.5-1-1-1.5-1.6l.4-.3c.5.5.9,1,1.4,1.5l-.4.4Z"/>
          <path class="cls-10" d="M333.1,231.5c-1.4,0-2.8-.2-4.2-.4v-.5c1.4.2,2.9.3,4.2.4v.5ZM324.7,230.6c-1.4-.2-2.8-.5-4.2-.8v-.5c1.5.3,2.9.5,4.2.8v.5ZM316.4,228.8c-1.4-.4-2.7-.8-4.1-1.2l.2-.5c1.3.4,2.7.8,4,1.2v.5ZM308.4,226.3c-1.3-.5-2.6-1-3.9-1.5l.2-.5c1.3.5,2.6,1.1,3.9,1.5l-.2.5ZM300.6,223c-1.3-.6-2.5-1.2-3.8-1.9l.2-.5c1.2.7,2.5,1.3,3.8,1.9l-.2.5ZM293.1,219.1c-1.2-.7-2.4-1.5-3.6-2.2l.3-.4c1.2.8,2.4,1.5,3.6,2.2l-.3.5ZM286,214.4c-1.1-.8-2.3-1.7-3.4-2.6l.3-.4c1.1.9,2.2,1.7,3.4,2.5l-.3.4ZM279.4,209.2c-1.1-.9-2.1-1.9-3.1-2.9l.4-.4c1,1,2,1.9,3.1,2.8l-.4.4ZM273.3,203.3c-1-1-1.9-2.1-2.8-3.1l.4-.3c.9,1.1,1.9,2.1,2.8,3.1l-.4.4ZM267.8,196.9c-.9-1.1-1.7-2.3-2.5-3.4l.4-.3c.8,1.1,1.6,2.3,2.5,3.4l-.4.3ZM263,189.9c-.2-.3-.4-.6-.5-.9-.6-.9-1.1-1.9-1.6-2.8l.5-.3c.5.9,1,1.8,1.6,2.8.2.3.3.6.5.9l-.5.3ZM258.9,182.5c-.6-1.3-1.2-2.6-1.7-3.9l.5-.2c.5,1.3,1,2.6,1.7,3.9l-.5.2ZM255.8,174.6c-.4-1.4-.7-2.8-1-4.1h.5c.3,1.2.6,2.6,1,4h-.5ZM258.9,166.8v-.5c1.5,0,2.9-.2,4.1-.6v.5c-1.1.3-2.6.5-4.1.6ZM254.6,166.7c-1.5-.1-2.9-.4-4.2-.7v-.5c1.3.3,2.6.5,3.8.6,0-.6,0-1.2,0-1.8,0-.8,0-1.6.1-2.4h.5c0,.8-.1,1.6-.1,2.4s0,1.2,0,1.8h-.1s0,.5,0,.5ZM246.4,164.8c-1.4-.5-2.6-1.2-3.8-2l.3-.4c1.1.7,2.4,1.4,3.7,1.9l-.2.5ZM267,164.5l-.3-.4c.1,0,.2-.1.3-.2,1-.7,1.8-1.7,2.4-2.8l.5.3c-.6,1.2-1.5,2.2-2.6,3-.1,0-.2.2-.3.2ZM239.3,160.1c-1-1-1.9-2.1-2.7-3.3l.4-.3c.8,1.2,1.7,2.3,2.6,3.2l-.4.4ZM255.8,158l-.5-.2c.5-1.4,1.3-2.6,2.2-3.7l.4.4c-.9,1-1.6,2.2-2.1,3.5ZM270.5,157.2c0-.9-.3-1.7-.7-2.5-.2-.4-.5-.8-.8-1.1l.4-.4c.4.4.7.8.9,1.3.5.8.7,1.7.7,2.7h-.5ZM210.1,153.6v-.5c1.3,0,2.8,0,4.2-.1v.5c-1.4,0-2.8.1-4.2.1ZM205.9,153.5c-1.4,0-2.9-.3-4.2-.5v-.5c1.4.2,2.8.4,4.3.5v.5ZM234.4,153.2c-.6-1.2-1.2-2.5-1.7-3.9l.5-.2c.6,1.4,1.1,2.7,1.7,3.8l-.5.2ZM218.6,153.1v-.5c1-.1,2.1-.2,3.3-.4h.8c0-.1,0,.4,0,.4h-.8c-1.2.3-2.3.4-3.3.5ZM261.3,152.3l-.2-.5c1.4-.5,2.9-.6,4.3-.4v.5c-1.4-.2-2.8,0-4.1.4ZM197.5,152.2c-1.4-.4-2.7-.8-4-1.3l.2-.5c1.3.5,2.6.9,4,1.3v.5ZM227,151.9v-.5c1.4-.3,2.7-.6,4-1l.2.5c-1.3.4-2.6.7-4.1,1ZM235.1,149.3l-.2-.5c1.3-.6,2.5-1.3,3.6-2.1l.3.4c-1.1.8-2.4,1.5-3.7,2.1ZM189.6,149.1c-1.3-.7-2.5-1.4-3.6-2.2l.3-.4c1.1.8,2.3,1.5,3.6,2.2l-.2.5ZM231.3,145.3c-.5-1.5-.8-2.9-1-4.1h.5c.2,1.2.6,2.5,1,4l-.5.2ZM241.9,144.3l-.4-.3c.9-1.1,1.7-2.2,2.3-3.5l.5.2c-.6,1.3-1.4,2.5-2.4,3.6ZM230.4,136.9h-.5c0-.7,0-1.3.2-1.9.1-.8.3-1.6.6-2.3l.5.2c-.3.7-.5,1.5-.6,2.2,0,.6-.2,1.2-.2,1.8ZM245.6,136.7h-.5c.1-.8.2-1.6.2-2.3s0-1.3-.2-1.9h.5c.1.6.2,1.2.2,1.9s0,1.5-.2,2.3ZM233.2,129.3l-.4-.3c1-1.2,2.2-2,3.4-2.6l.2.5c-1.2.5-2.3,1.3-3.2,2.4ZM243.6,128.7c-.6-.8-1.3-1.5-2-1.9-.4-.2-.8-.3-1.2-.4v-.5c.6.1,1,.3,1.4.5.8.4,1.6,1.1,2.2,2l-.4.3Z"/>
          <path class="cls-10" d="M338.2,231.7c-.2,0-.5,0-.7,0v-.5c.7,0,1.4,0,2.1,0v.5c-.5,0-1,0-1.5,0Z"/>
        </g>
      </g>
      <g>
        <g>
          <g>
            <path class="cls-24" d="M343.1,134.5c-.8-.4-1.5-.8-2.3-1.1,12.8,8.4,17.2,25.3,9.9,39-7.4,13.7-24,19.3-38,13.2.7.5,1.4.9,2.2,1.3,14.5,7.8,32.5,2.4,40.3-12.1,7.8-14.5,2.4-32.5-12.1-40.3Z"/>
            <path class="cls-9" d="M338.5,132.1c-14.5-7.8-32.5-2.4-40.3,12.1s-2.4,32.5,12.1,40.3c14.5,7.8,32.5,2.4,40.3-12.1,7.8-14.5,2.4-32.5-12.1-40.3ZM314.3,177.1c-10.4-5.6-14.3-18.6-8.7-29,5.6-10.4,18.6-14.3,29-8.7,10.4,5.6,14.3,18.6,8.7,29-5.6,10.4-18.6,14.3-29,8.7Z"/>
            <path class="cls-9" d="M302.8,146.6c7.4-13.7,24-19.3,38-13.2-.7-.5-1.5-.9-2.2-1.3-14.5-7.8-32.5-2.4-40.3,12.1-7.8,14.5-2.4,32.5,12.1,40.3.8.4,1.5.8,2.3,1.1-12.8-8.4-17.2-25.3-9.8-39Z"/>
            <path class="cls-26" d="M334.2,139.3c-10.5-5.4-23.4-1.3-28.8,9.2-5.4,10.5-1.3,23.4,9.2,28.8,10.5,5.4,23.4,1.3,28.8-9.2,5.4-10.5,1.3-23.4-9.2-28.8Z"/>
            <path class="cls-21" d="M343.2,148l-40.1,12c-.3-3.8.4-7.8,2.3-11.5l29.6-8.9c3.6,2,6.4,5,8.2,8.4Z"/>
            <path class="cls-17" d="M343.4,168.1c0,.2-.2.4-.3.6l-28.5,8.5c-4.9-2.6-8.5-6.8-10.2-11.7l40.9-12.2c1.2,4.8.6,10-1.8,14.8Z"/>
          </g>
          <rect class="cls-9" x="265.7" y="204.8" width="65.1" height="10.7" transform="translate(-28.4 372.9) rotate(-61.7)"/>
        </g>
        <g>
          <g>
            <path class="cls-24" d="M438.2,168.4v-5.6c0-1.2-1-2.2-2.2-2.2h-2.9c-1.3,0-2.5-.9-2.9-2.2-.3-1-.7-2-1.2-3-.6-1.2-.4-2.7.6-3.6l2-2c.9-.9.9-2.3,0-3.1l-4-4c-.9-.9-2.3-.9-3.1,0l-2,2c-1,1-2.4,1.2-3.6.6-.9-.5-1.9-.9-3-1.2-1.3-.4-2.2-1.6-2.2-2.9v-2.9c0-1.2-1-2.2-2.2-2.2h-5.6c-1.2,0-2.2,1-2.2,2.2v2.9c0,1.3-.9,2.5-2.2,2.9-1,.3-2,.7-3,1.2-1.2.6-2.7.4-3.6-.6l-2-2c-.9-.9-2.3-.9-3.1,0l-4,4c-.9.9-.9,2.3,0,3.1l2,2c1,1,1.2,2.4.6,3.6-.5.9-.9,1.9-1.2,3-.4,1.3-1.6,2.2-2.9,2.2h-2.9c-1.2,0-2.2,1-2.2,2.2v5.6c0,1.2,1,2.2,2.2,2.2h2.9c1.3,0,2.5.9,2.9,2.2.3,1,.7,2,1.2,3,.6,1.2.4,2.7-.6,3.6l-2,2c-.9.9-.9,2.3,0,3.1l4,4c.9.9,2.3.9,3.1,0l2-2c1-1,2.4-1.2,3.6-.6.9.5,1.9.9,3,1.2,1.3.4,2.2,1.6,2.2,2.9v2.9c0,1.2,1,2.2,2.2,2.2h5.6c1.2,0,2.2-1,2.2-2.2v-2.9c0-1.3.9-2.5,2.2-2.9,1-.3,2-.7,3-1.2,1.2-.6,2.7-.4,3.6.6l2,2c.9.9,2.3.9,3.1,0l4-4c.9-.9.9-2.3,0-3.1l-2-2c-1-1-1.2-2.4-.6-3.6.5-.9.9-1.9,1.2-3,.4-1.3,1.6-2.2,2.9-2.2h2.9c1.2,0,2.2-1,2.2-2.2ZM408.6,172.4c-3.7,0-6.8-3-6.8-6.8s3-6.8,6.8-6.8,6.8,3,6.8,6.8-3,6.8-6.8,6.8Z"/>
            <path class="cls-9" d="M465.7,203.3v-3.2c0-.7-.6-1.3-1.3-1.3h-1.6c-.8,0-1.4-.5-1.7-1.2-.2-.6-.4-1.1-.7-1.7-.3-.7-.2-1.5.3-2l1.1-1.1c.5-.5.5-1.3,0-1.8l-2.2-2.2c-.5-.5-1.3-.5-1.8,0l-1.1,1.1c-.5.5-1.4.7-2,.3-.5-.3-1.1-.5-1.7-.7-.7-.2-1.2-.9-1.2-1.7v-1.6c0-.7-.6-1.3-1.3-1.3h-3.2c-.7,0-1.3.6-1.3,1.3v1.6c0,.8-.5,1.4-1.2,1.7-.6.2-1.1.4-1.7.7-.7.3-1.5.2-2-.3l-1.1-1.1c-.5-.5-1.3-.5-1.8,0l-2.2,2.2c-.5.5-.5,1.3,0,1.8l1.1,1.1c.5.5.7,1.4.3,2-.3.5-.5,1.1-.7,1.7-.2.7-.9,1.2-1.7,1.2h-1.6c-.7,0-1.3.6-1.3,1.3v3.2c0,.7.6,1.3,1.3,1.3h1.6c.8,0,1.4.5,1.7,1.2.2.6.4,1.1.7,1.7.3.7.2,1.5-.3,2l-1.1,1.1c-.5.5-.5,1.3,0,1.8l2.2,2.2c.5.5,1.3.5,1.8,0l1.1-1.1c.5-.5,1.4-.7,2-.3.5.3,1.1.5,1.7.7.7.2,1.2.9,1.2,1.7v1.6c0,.7.6,1.3,1.3,1.3h3.2c.7,0,1.3-.6,1.3-1.3v-1.6c0-.8.5-1.4,1.2-1.7.6-.2,1.1-.4,1.7-.7.7-.3,1.5-.2,2,.3l1.1,1.1c.5.5,1.3.5,1.8,0l2.2-2.2c.5-.5.5-1.3,0-1.8l-1.1-1.1c-.5-.5-.7-1.4-.3-2,.3-.5.5-1.1.7-1.7.2-.7.9-1.2,1.7-1.2h1.6c.7,0,1.3-.6,1.3-1.3ZM449,208.4c-3.7,0-6.7-3-6.7-6.7s3-6.7,6.7-6.7,6.7,3,6.7,6.7c0,3.7-3,6.7-6.7,6.7Z"/>
          </g>
          <path class="cls-19" d="M477,167.2v-3.2c0-.7-.6-1.3-1.3-1.3h-1.6c-.8,0-1.4-.5-1.7-1.2-.2-.6-.4-1.1-.7-1.7-.3-.7-.2-1.5.3-2l1.1-1.1c.5-.5.5-1.3,0-1.8l-2.2-2.2c-.5-.5-1.3-.5-1.8,0l-1.1,1.1c-.5.5-1.4.7-2,.3-.5-.3-1.1-.5-1.7-.7-.7-.2-1.2-.9-1.2-1.7v-1.6c0-.7-.6-1.3-1.3-1.3h-3.2c-.7,0-1.3.6-1.3,1.3v1.6c0,.8-.5,1.4-1.2,1.7-.6.2-1.1.4-1.7.7-.7.3-1.5.2-2-.3l-1.1-1.1c-.5-.5-1.3-.5-1.8,0l-2.2,2.2c-.5.5-.5,1.3,0,1.8l1.1,1.1c.5.5.7,1.4.3,2-.3.5-.5,1.1-.7,1.7-.2.7-.9,1.2-1.7,1.2h-1.6c-.7,0-1.3.6-1.3,1.3v3.2c0,.7.6,1.3,1.3,1.3h1.6c.8,0,1.4.5,1.7,1.2.2.6.4,1.1.7,1.7.3.7.2,1.5-.3,2l-1.1,1.1c-.5.5-.5,1.3,0,1.8l2.2,2.2c.5.5,1.3.5,1.8,0l1.1-1.1c.5-.5,1.4-.7,2-.3.5.3,1.1.5,1.7.7.7.2,1.2.9,1.2,1.7v1.6c0,.7.6,1.3,1.3,1.3h3.2c.7,0,1.3-.6,1.3-1.3v-1.6c0-.8.5-1.4,1.2-1.7.6-.2,1.1-.4,1.7-.7.7-.3,1.5-.2,2,.3l1.1,1.1c.5.5,1.3.5,1.8,0l2.2-2.2c.5-.5.5-1.3,0-1.8l-1.1-1.1c-.5-.5-.7-1.4-.3-2,.3-.5.5-1.1.7-1.7.2-.7.9-1.2,1.7-1.2h1.6c.7,0,1.3-.6,1.3-1.3ZM460.3,169c-1.9,0-3.4-1.5-3.4-3.4s1.5-3.4,3.4-3.4,3.4,1.5,3.4,3.4-1.5,3.4-3.4,3.4Z"/>
        </g>
      </g>
      <g>
        <path class="cls-24" d="M112.6,268.2s-32-41.7-99.6-37.4c0,0,35.8,42.9,99.6,37.4Z"/>
        <path class="cls-8" d="M93.1,239.9s6.9-52.1-43.9-96.9c0,0-5,55.6,43.9,96.9Z"/>
        <path class="cls-8" d="M88.1,246.6s45-24.4,51.3-90.1c0,0-46.7,27.9-51.3,90.1Z"/>
        <g>
          <path class="cls-24" d="M98.3,242.9s-37.5-23-23.8-34.7c10.2-8.7-10-20-2.3-24.3,7.7-4.3,9.3-.4,6.6-11.5-2.7-11.2,6.3-14.2,9.6-25.6,3.3-11.4,19.3-7.2,18.1,9.3-1.2,16.5,3.7-1,9,6,5.3,7-12.3,33.7-5.6,31.5,6.7-2.3,11.9,2.8,9.6,10.9-5.4,18.8-21.1,38.5-21.1,38.5Z"/>
          <path class="cls-12" d="M99.6,251.2c0,0-.1,0-.1-.2-2.5-12.8-5.6-29.6-6.8-46.6h0c0-.1-.1-.2-.1-.2-3.9-3.3-7.3-7.2-10.5-11-1.1-1.3-2.2-2.5-3.3-3.7,0,0,0-.1,0-.2,0,0,.2-.2.3,0,0,0,0,0,0,0,1.1,1.2,2.1,2.4,3.2,3.7,3,3.5,6.1,7.1,9.7,10.3l.6.5v-.8c-.5-7.2-.7-14.5-.5-22.5v-.2s-.2,0-.2,0c0,0,0,0,0,0-3-4.5-5.6-9.4-7.7-14.4,0,0,0-.2,0-.2,0,0,.2,0,.3,0,0,0,0,0,0,.1,1.9,4.6,4.3,9.1,7,13.3l.6.9v-1c.2-7.5.6-15.2,1.3-23.6,0-.1,0-.1,0-.1,0,0,.2,0,.2,0,0,0,.1.1.1.2-1,11.5-1.4,21.9-1.4,31.8v.6s.5-.4.5-.4c5.7-4.1,10.5-9.2,14.2-15.2,0,0,0-.1.2,0,0,0,.1.1.2.2,0,0,0,.1,0,.2-3.9,6.2-8.8,11.4-14.8,15.6h-.2c0,.1,0,.3,0,.3,0,5.6.2,10.7.6,15.7h0c0,0,0,.2,0,.2,0,0,0,.1,0,.2h0c0,0,0,.2,0,.2.3,4.4.8,9.1,1.4,14.3v.8c.1,0,.6-.7.6-.7,4.5-6.6,9.4-13,14.6-19.1,0,0,.2-.1.3,0,0,0,.1.1.1.2,0,0,0,0,0,.1-5.5,6.4-10.6,13.1-15.3,20.1h0c0,.1,0,.2,0,.2,1.2,9,2.8,18.8,5.2,30.6,0,.1,0,.1,0,.2,0,0-.2,0-.3,0h0Z"/>
        </g>
        <g>
          <path class="cls-9" d="M103.4,244.4s-43.1,16.6-44.1-2.3c-.7-14.1-23-4.4-21.7-13.6,1.3-9.2,5.6-8-5.4-12.8-11-4.9-7.8-14.3-15.2-24.3s6.3-20.7,19.4-9.2c13,11.5,1.5-3.7,10.7-3.7s20.2,31.8,22.6,24.8,9.9-8.1,15.2-1c12.2,16.6,18.6,42.2,18.6,42.2Z"/>
          <path class="cls-12" d="M111.1,248.6c0,0-.1,0-.2,0-12.2-6-28.2-14.2-43.2-24.1h-.1c0,0-.1,0-.1,0-5.2,1.1-10.7,1.4-15.9,1.7-1.7.1-3.5.2-5.2.3,0,0-.1,0-.2-.1,0-.1,0-.3.1-.3,0,0,0,0,.1,0,1.7-.1,3.4-.2,5.1-.3,4.8-.3,9.9-.6,14.7-1.5l.8-.2-.7-.5c-6.3-4.2-12.5-8.8-19-13.9h-.2c0-.1-.2,0-.2,0,0,0,0,0-.1,0-5.7-.4-11.4-1.3-16.9-2.8,0,0-.1,0-.2-.2,0-.1,0-.2.1-.3,0,0,0,0,.2,0,5.1,1.3,10.3,2.2,15.5,2.7h1.1c0,0-.9-.6-.9-.6-6.1-4.9-12.3-10.2-18.9-16.2,0,0,0-.1,0-.1,0,0,0-.2.2-.2.1,0,.2,0,.3,0,9,8.2,17.4,15.2,25.6,21.5l.5.4v-.7c.2-7.4-1-14.6-3.6-21.5,0,0,0-.1,0-.2,0,0,.2,0,.3,0,0,0,.1,0,.2.2,2.7,7.2,3.9,14.7,3.6,22.3v.2s.1.1.1.1c4.7,3.5,9.1,6.6,13.5,9.5h0c0,0,0,0,0,0,0,0,.1,0,.2.1h0c0,0,0,.1,0,.1,3.9,2.6,8.1,5.2,12.8,7.9l.8.5-.3-.8c-2.6-8-4.8-16.2-6.6-24.4,0-.1,0-.2.1-.3,0,0,.2,0,.2,0,0,0,0,0,0,.1,1.8,8.6,4.1,17.2,6.9,25.6h0c0,.1.1.2.1.2,8.3,4.8,17.4,9.6,28.8,15.3.1,0,.1.1.1.1,0,0,0,.2-.2.3h0Z"/>
        </g>
      </g>
      <g>
        <path class="cls-23" d="M416.3,206.2H78.6c-3.2,0-5.8,2.6-5.8,5.8l-.7,164.7c0,3.2,2.6,5.8,5.8,5.8l338.4-2.8c3.2,0,5.8-2.6,5.8-5.8v-161.9c0-3.2-2.6-5.8-5.8-5.8Z"/>
        <g>
          <path class="cls-6" d="M377.9,252.7H111.1c-2.7,0-4.8,2.2-4.8,4.8v24.9c0,2.7,2.2,4.8,4.8,4.8h266.9c2.7,0,4.8-2.2,4.8-4.8v-24.9c0-2.7-2.2-4.8-4.8-4.8Z"/>
          <path class="cls-9" d="M171.6,252.7h-60.5c-2.7,0-4.8,2.2-4.8,4.8v24.9c0,2.7,2.2,4.8,4.8,4.8h60.5c2.7,0,4.9-2.2,4.9-4.9v-24.7c0-2.7-2.2-4.9-4.9-4.9Z"/>
        </g>
        <path class="cls-8" d="M149.3,305.2h-34.2c-3.1,0-5.6,2.5-5.6,5.6v34.2c0,3.1,2.5,5.6,5.6,5.6h34.2c3.1,0,5.6-2.5,5.6-5.6v-34.2c0-3.1-2.5-5.6-5.6-5.6Z"/>
        <path class="cls-24" d="M239.5,305.2h-34.2c-3.1,0-5.6,2.5-5.6,5.6v34.2c0,3.1,2.5,5.6,5.6,5.6h34.2c3.1,0,5.6-2.5,5.6-5.6v-34.2c0-3.1-2.5-5.6-5.6-5.6Z"/>
        <g>
          <path class="cls-22" d="M160.9,310c-.4,0-.7-.3-.7-.7s.3-.7.7-.7h30.2c.4,0,.7.3.7.7s-.3.7-.7.7h-30.2Z"/>
          <path class="cls-22" d="M160.9,317.4c-.4,0-.7-.3-.7-.7s.3-.7.7-.7h30.2c.4,0,.7.3.7.7s-.3.7-.7.7h-30.2Z"/>
          <path class="cls-22" d="M160.9,324.7c-.4,0-.7-.3-.7-.7s.3-.7.7-.7h30.2c.4,0,.7.3.7.7s-.3.7-.7.7h-30.2Z"/>
          <path class="cls-22" d="M160.9,332c-.4,0-.7-.3-.7-.7s.3-.7.7-.7h30.2c.4,0,.7.3.7.7s-.3.7-.7.7h-30.2Z"/>
          <path class="cls-22" d="M160.9,339.4c-.4,0-.7-.3-.7-.7s.3-.7.7-.7h30.2c.4,0,.7.3.7.7s-.3.7-.7.7h-30.2Z"/>
          <path class="cls-22" d="M160.9,346.7c-.4,0-.7-.3-.7-.7s.3-.7.7-.7h12.9c.4,0,.7.3.7.7s-.3.7-.7.7h-12.9Z"/>
        </g>
        <g>
          <path class="cls-22" d="M252.8,310c-.4,0-.7-.3-.7-.7s.3-.7.7-.7h30.2c.4,0,.7.3.7.7s-.3.7-.7.7h-30.2Z"/>
          <path class="cls-22" d="M252.8,317.4c-.4,0-.7-.3-.7-.7s.3-.7.7-.7h30.2c.4,0,.7.3.7.7s-.3.7-.7.7h-30.2Z"/>
          <path class="cls-22" d="M252.8,324.7c-.4,0-.7-.3-.7-.7s.3-.7.7-.7h30.2c.4,0,.7.3.7.7s-.3.7-.7.7h-30.2Z"/>
          <path class="cls-22" d="M252.8,332c-.4,0-.7-.3-.7-.7s.3-.7.7-.7h30.2c.4,0,.7.3.7.7s-.3.7-.7.7h-30.2Z"/>
          <path class="cls-22" d="M252.8,339.4c-.4,0-.7-.3-.7-.7s.3-.7.7-.7h30.2c.4,0,.7.3.7.7s-.3.7-.7.7h-30.2Z"/>
          <path class="cls-22" d="M252.8,346.7c-.4,0-.7-.3-.7-.7s.3-.7.7-.7h12.9c.4,0,.7.3.7.7s-.3.7-.7.7h-12.9Z"/>
        </g>
        <path class="cls-10" d="M332.2,305.2h-34.2c-3.1,0-5.6,2.5-5.6,5.6v34.2c0,3.1,2.5,5.6,5.6,5.6h34.2c3.1,0,5.6-2.5,5.6-5.6v-34.2c0-3.1-2.5-5.6-5.6-5.6Z"/>
        <g>
          <path class="cls-22" d="M345.5,310c-.4,0-.7-.3-.7-.7s.3-.7.7-.7h30.2c.4,0,.7.3.7.7s-.3.7-.7.7h-30.2Z"/>
          <path class="cls-22" d="M345.5,317.4c-.4,0-.7-.3-.7-.7s.3-.7.7-.7h30.2c.4,0,.7.3.7.7s-.3.7-.7.7h-30.2Z"/>
          <path class="cls-22" d="M345.5,324.7c-.4,0-.7-.3-.7-.7s.3-.7.7-.7h30.2c.4,0,.7.3.7.7s-.3.7-.7.7h-30.2Z"/>
          <path class="cls-22" d="M345.5,332c-.4,0-.7-.3-.7-.7s.3-.7.7-.7h30.2c.4,0,.7.3.7.7s-.3.7-.7.7h-30.2Z"/>
          <path class="cls-22" d="M345.5,339.4c-.4,0-.7-.3-.7-.7s.3-.7.7-.7h30.2c.4,0,.7.3.7.7s-.3.7-.7.7h-30.2Z"/>
          <path class="cls-22" d="M345.5,346.7c-.4,0-.7-.3-.7-.7s.3-.7.7-.7h12.9c.4,0,.7.3.7.7s-.3.7-.7.7h-12.9Z"/>
        </g>
        <g>
          <path class="cls-4" d="M414.2,215.2h-8.9c-.5,0-.9.4-.9.9h0c0,.5.4.9.9.9h8.9c.5,0,.9-.4.9-.9h0c0-.5-.4-.9-.9-.9Z"/>
          <path class="cls-4" d="M414.2,219.4h-8.9c-.5,0-.9.4-.9.9h0c0,.5.4.9.9.9h8.9c.5,0,.9-.4.9-.9h0c0-.5-.4-.9-.9-.9Z"/>
          <path class="cls-4" d="M414.2,223.5h-8.9c-.5,0-.9.4-.9.9h0c0,.5.4.9.9.9h8.9c.5,0,.9-.4.9-.9h0c0-.5-.4-.9-.9-.9Z"/>
        </g>
        <g>
          <path class="cls-9" d="M93.9,219.8c0,2.2-1.8,3.9-3.9,3.9s-3.9-1.8-3.9-3.9,1.8-3.9,3.9-3.9,3.9,1.8,3.9,3.9Z"/>
          <path class="cls-10" d="M115,219.8c0,2.2-1.8,3.9-3.9,3.9s-3.9-1.8-3.9-3.9,1.8-3.9,3.9-3.9,3.9,1.8,3.9,3.9Z"/>
          <path class="cls-24" d="M136.6,219.8c0,2.2-1.8,3.9-3.9,3.9s-3.9-1.8-3.9-3.9,1.8-3.9,3.9-3.9,3.9,1.8,3.9,3.9Z"/>
        </g>
        <path class="cls-10" d="M234.1,332.4l-10-14.2c-1.1-1.5-3.4-1.5-4.5,0l-10,14.2c-1.3,1.8,0,4.3,2.2,4.3h20c2.2,0,3.5-2.5,2.2-4.3Z"/>
        <circle class="cls-24" cx="314.9" cy="329.6" r="11.7"/>
      </g>
      <path class="cls-27" d="M487,386.2c0-6.1-102.6-11.1-229.2-11.1s-229.2,5-229.2,11.1,102.6,11.1,229.2,11.1,229.2-5,229.2-11.1Z"/>
      <g>
        <path class="cls-16" d="M228.2,176.2c-.4-2.6-1.8-8.5-6.8-6.4-9.7-3.7-14,1-14.7,7.3-.9,7.9-5.3,11.1-3.7,13.3,2.1,2.8,8.4,7,15,7.1,6.8.1,12.9-5.4,14.7-8.4,1.4-2.4-3.3-5-4.5-12.9Z"/>
        <g>
          <path class="cls-4" d="M261,215.5c-3.5-6.3-17.1-20.6-18.6-21.1-4.3-1.4-11-2.1-15-2.4-2.6-.4-9.9-.3-9.9-.3h-2.9c-3.7,0-14.2.5-21.6,3-1.5.5-15.6,14.6-19.1,20.9-.8,1.5-.9,3.3-.2,4.8l14.8,29.7,7.4-1.6-5.9-25.7c-.4-2,.2-4,1.7-5.4l9.4-11.1h32.4l9.5,11.1c1.5,1.3,2.1,3.4,1.7,5.4l-5.9,25.7,7.5,1.1,14.7-29.2c.7-1.5.6-3.4-.2-4.8Z"/>
          <path class="cls-13" d="M195.3,248.7l3.2,2.8c.4.4.2,1.1-.3,1.1h-1.4c0,.1.9,2.5.9,2.5.9,2.5-4.3,6.3-6.4,1.4l-2.2-6.5,6.2-1.3Z"/>
          <path class="cls-13" d="M239.8,248.7l-3.3,2.8c-.4.4-.2,1.1.3,1.1h1.4c0,.1-.9,2.5-.9,2.5-.9,2.5,4.3,6.3,6.4,1.4l2.3-7-6.2-.8Z"/>
        </g>
        <g>
          <path class="cls-13" d="M225.9,179.6v6c.2,2.2-.7,4.4-2.3,5.9-.3.2-.5.5-.8.8-2.7,2.7-7.1,2.8-10,.2l-.8-.7c-1.7-1.5-2.6-3.6-2.7-5.8v-6c-.1,0,8.3,0,11.6-4.1,0,0,1.6,3.1,5,3.8Z"/>
          <path class="cls-13" d="M225.9,179.6v6c.2,2.2-.7,4.4-2.3,5.9-.3.2-.5.5-.8.8-2.7,2.7-7.1,2.8-10,.2l-.8-.7c-1.7-1.5-2.6-3.6-2.7-5.8v-6c-.1,0,8.3,0,11.5-4.1,0,0,1.7,3.1,5,3.7Z"/>
          <path class="cls-13" d="M211.5,187.1c1.6-2.6-1.2-5.3-3.8-3.6-.2.1-.4.3-.5.5-1.6,2.6,1.2,5.3,3.8,3.6.2-.1.4-.3.5-.5Z"/>
          <path class="cls-13" d="M228.1,186.8c1.5-2.6-1.1-5.2-3.6-3.7-.3.2-.6.5-.8.8-1.3,2.6,1.4,5.1,3.9,3.4.2-.1.4-.3.5-.5Z"/>
        </g>
        <path class="cls-13" d="M222.5,192.9c0-2.6-2.1-4.8-4.7-4.8s-4.7,2.1-4.7,4.8,2.1,5.3,4.7,5.3c2.6,0,4.7-2.7,4.7-5.3Z"/>
        <path class="cls-14" d="M213.1,192.7c0,0,0,.1,0,.2,0,.2,2.4,2.6,4.8,2.6,2.3,0,4.6-2.5,4.6-2.6s0-.2,0-.3c-2.7,2.3-6.7,2.3-9.4,0Z"/>
        <path class="cls-24" d="M196,248.5l-5.9-25.7c-.4-2,.2-4,1.7-5.4l9.4-11.1s2.1-3.6,1-3.1c-1,.5-15,12.5-16.2,15.4-1,2.2,4.5,21.5,7.2,30.5l2.8-.6Z"/>
        <path class="cls-24" d="M242.4,194.4c-.2,0-.5-.2-.8-.2,2.7,3.2,19,22.6,17.2,26.7-1.6,3.6-11.8,22.1-15,28.4l2.6.4,14.7-29.2c.7-1.5.6-3.4-.2-4.8-3.5-6.3-17.1-20.6-18.6-21.1Z"/>
      </g>
      <g>
        <g>
          <path class="cls-10" d="M106.2,338.9l.8,2.4,12.5-1.3s13.8,17.6,19.5,23.6c.6.6,1.3,1.4,2,2.2,3.6-8.8,11-36.7,3.5-38.9-11.1-3.3-38.4,12-38.4,12Z"/>
          <path class="cls-20" d="M131.3,354.6c3,3.6,5.8,7,7.8,9,.6.6,1.3,1.4,2,2.2,2.3-5.5,6-18.4,6.7-27.8-2.5.4-10.9,10-16.4,16.6Z"/>
        </g>
        <g>
          <path class="cls-1" d="M119.6,340s13.8,17.6,19.5,23.6c5.7,6,18.8,23.7-16.4,22.4-35.2-1.4-51.1-6.8-51.1-6.8l-.7-7.6,36.8-3.9s-23-2.7-20.2-24.4l32.1-3.3Z"/>
          <path class="cls-19" d="M120.2,342.7l.6-1.1c3.6,4.5,13.6,17.1,18.2,21.9,2.3,2.4,5.6,6.5,6.8,10.6-2.7-6.3-11-12.1-18-19-9.1-8.9-7.6-12.5-7.6-12.5Z"/>
          <path class="cls-10" d="M64.5,373.1s-.1,0-.3,0c-1.3,0-4.7.3-5.4,1.9-.8,1.8-1.1,10.8,4.8,11.1,5.9.3-1.1-4.4.9-6.4v-6.6Z"/>
          <path class="cls-10" d="M70.9,371.5l36.8-3.9s4,1.7,16.4,6.6c7.5,3,15.3,6,19.6,8-3.1,2.5-9.5,4.1-20.9,3.7-35.2-1.4-51.1-6.8-51.1-6.8l-.7-7.6Z"/>
          <path class="cls-2" d="M71.6,379.1s-4.5-1.9-6.8.6c-3.4,3.6-.3-6.7-.3-6.7l6.4-1.6.7,7.6Z"/>
        </g>
        <g>
          <path class="cls-23" d="M154.7,281.5l-10.7-8.8c-.4-.3-.5-.8-.3-1.2,1.9-3.8.8-8.7-2.9-11.3-3.4-2.4-8.2-2-11.2.9-.6.6-1.1,1.2-1.5,1.9-2.2,3.7-1.5,8.6,1.9,11.4,3.2,2.7,7.8,2.7,11,.3.1,0,.2-.1.3-.2.3,0,.7,0,.9.2l10.7,8.8c.3.2.6.3,1,.3.3,0,.7-.2.9-.5.5-.6.4-1.4-.2-1.9ZM140.7,271.7c-2.3,2.8-6.4,3.2-9.2.8-2.8-2.3-3.2-6.4-.8-9.2s6.4-3.2,9.2-.8c2.8,2.3,3.2,6.4.8,9.2Z"/>
          <path class="cls-9" d="M139.9,262.5c-2.8-2.3-6.9-1.9-9.2.8-2.3,2.8-1.9,6.9.8,9.2,2.8,2.3,6.9,1.9,9.2-.8,2.3-2.8,1.9-6.9-.8-9.2Z"/>
        </g>
        <path class="cls-2" d="M149,276.2c-1-.1-2,.6-2.9,1.5-.3-.9-.7-2.2-1.2-2.4-.7-.3-1.6,5.9-1.6,5.9l.5-.4c0,.1-.1.2-.1.2l5.2,2.7c3.3-4.6,2.6-7.1.2-7.5Z"/>
        <path class="cls-9" d="M87.5,323.3c1-10.7,2.6-22.2,4.6-25.3,1-1.6,1.9-2.6,3-3.4h0s-9.7,6.2-13.7,15.7c-1.9,4.6,1.8,9.3,6.1,12.9Z"/>
        <g>
          <path class="cls-2" d="M113.9,294.3l-.3-4.2c1.3-.2,2.6-.8,3.6-1.8,2.6-2.7,2.6-7.9.2-10.8-2.2.7-5,.2-5.1,1.4-.2,1.9-.3,3.4-.3,3.4-1.8-1.1-3.7-1-3.5,1.4.1,1,.8,2.5,1.5,2.6,0,0,.5,4.1-3.5,5.7h0s0,1.5,0,1.5l7.4.8Z"/>
          <path class="cls-10" d="M99.5,280.1c1.8-7.3,4.6-11.5,12.5-11.6,7.1-.2,8.1,5.8,8.1,5.8-.2,5.1-7.5,2.7-7.7,4.6-.2,1.9-.3,3.4-.3,3.4-1.8-1.1-3.7-1-3.5,1.4,0,1,.8,2.5,1.5,2.6,0,0,.5,4.1-3.5,5.7,0,0-8.8-4.7-7-12Z"/>
          <path class="cls-18" d="M99.5,280.1c1.8-7.3,4.6-11.5,12.5-11.6,4.7-.1,6.7,2.5,7.5,4.2-3.5-3.3-11.1-5.3-15.8,2.4-4.1,6.6-1.5,14.6,6.1,13.7-.4,1.2-1.3,2.5-3.2,3.3,0,0-8.8-4.7-7-12Z"/>
          <path class="cls-11" d="M112,291.4c-.7-.4-1.4-2.6-1.4-2.6.8.9,3.1,1.2,3.1,1.2l.3,4.2-1.7-.2c0-1.3,0-2.5-.3-2.7Z"/>
        </g>
        <path class="cls-9" d="M85.9,344.2s2.2-39.9,6.2-46.1c1.7-2.6,3.1-3.8,5.6-4.4,1.6-.3,7.2-.5,8.8-.3,3.5.3,12.2,1.5,14.3,2.3,2.9,1.2,14.5,11.2,14.5,11.2l7.8-26.5,6.4,2.4s-6.2,38.7-11.2,38.8c-5,0-17.8-7-17.8-7,0,0-1,24.3,3.8,28.8,0,0-20,9.2-38.2.9Z"/>
        <path class="cls-25" d="M92.1,296.9c1.8-1.4,3-2.2,3-2.2h0c-1.1.7-2,1.8-3,3.4-2,3.1-3.5,14.5-4.6,25.3-1.1-.9-2.1-1.8-3-2.8.5-6.4,2.1-17.6,7.6-23.6Z"/>
        <path class="cls-15" d="M113.2,311.6c-.7-1.4,7.2,3,7.2,3,0,0-1,24.3,3.8,28.8,0,0-1.4.6-3.8,1.4-2.7-8.1-2.1-19.1-2.6-22.9-.7-5.2-3.9-8.9-4.6-10.2Z"/>
      </g>
      <g>
        <g>
          <path class="cls-2" d="M378.9,381.3c0,.4,0,.8,0,1.2-.2,1.4-1.6,2.1-1.9,2.3.2,0,.4,0,.5.1,2.4,1,3.7,1.3,6,.3.2,0,.4,0,.5,0,0-1.2-.3-2.8-.5-3.9h-4.6Z"/>
          <path class="cls-19" d="M384.5,388.8c0-1,0-2.1,0-2.9,0-.5-.6-.9-1-.7-2.3,1-3.7.7-6.1-.3-1.8-.8-7.7,2.5-9.2,3.5,0,0,0,0,0,0-.8.5-.4,1.7.5,1.7h14.4c.7,0,1.3-.6,1.4-1.3Z"/>
        </g>
        <g>
          <path class="cls-2" d="M402.8,380.4c0,.4,0,.8,0,1.2-.2,1.4-1.6,2.1-1.9,2.3.2,0,.4,0,.5.1,2.4,1,3.7,1.3,6,.3.2,0,.4,0,.5,0,0-1.2-.3-2.8-.5-3.9h-4.6Z"/>
          <path class="cls-19" d="M408.4,387.9c0-1,0-2.1,0-2.9,0-.5-.6-.9-1-.7-2.3,1-3.7.7-6.1-.3-1.8-.8-7.7,2.5-9.2,3.5,0,0,0,0,0,0-.8.5-.4,1.7.5,1.7h14.4c.7,0,1.3-.6,1.4-1.3Z"/>
        </g>
        <path class="cls-10" d="M403.9,297.2c0,2,1.4,7.5,1.4,13.7,0,11.8-6,27.6-6,27.6l10,42.6-8.5.3-18.8-41.7,1.4-44.6,20.4,2.1Z"/>
        <path class="cls-19" d="M397.2,294.8s-1.3,13.9-4.2,24.1c-2.4,8.5-19.4,21.5-19.4,21.5l11.1,41.4h-6.9l-24.8-40.3c-.6-1.7-.5-3.6.3-5.3l23.7-45.2,20.3,3.7Z"/>
        <path class="cls-2" d="M338.7,287.3h-8.9s.4,5.3,9.7,5.3l-.8-5.3Z"/>
        <path class="cls-2" d="M386.5,242.2c0-.4.2-1.6.1-2.3-.3-2.7-1.9-3.2-3.8-1.5,0,0-1.7-1.1-2.7-3.2-.6-1.3-2.9-.3-4.8-.7-1.6,3.9-.1,9.2,3.2,11.7,1.4,1,2.6,1.1,4.3,1.1l.5,6.9,8.3-2.2v-4c-3.3,0-5.6-2.6-5.2-5.7Z"/>
        <path class="cls-5" d="M380.1,381.8c-1.8-3-23.5-40.1-20.3-44.6,3.3-4.7,18.3-34,18.3-34l-3.5-4.5s-1.1.9-2.8,2.3l-18.5,35.3c-.8,1.7-.9,3.6-.3,5.3l24.8,40.3h2.3Z"/>
        <path class="cls-9" d="M377.2,261.4c.4-8.5,13.6-9.1,15.1-9.2,1.9,0,3.7,1,4.9,2.3,2.1,2.3,6.1,7.5,4.8,14.7-3.3,18.6,3.5,30.4,4.4,36.3-12.3,5-38.2-1.2-38.2-1.2l7.9-30.2,1.1-12.8Z"/>
        <path class="cls-9" d="M367.3,281.7s8.1-29.3,18.4-27.6c11.4,1.9-7.4,38.2-7.4,38.2l-38.9.8-.8-6.2,28.7-5.2Z"/>
        <path class="cls-25" d="M384.2,291.3c-1.9,5.8-8.3,5.3-8.3,5.3l-3.5,8.7c-2.7-.5-4.3-.9-4.3-.9l3.1-12h7.1c0-.1,13-25.4,10.8-34.9.4.8,3.5,8.4-4.9,33.8Z"/>
        <path class="cls-10" d="M395.2,271.8c-13.2-.7-8.7-26.3-8.6-31.3,0-2.8-1.9-4-3.8-2.3,0,0-1.7-1.1-2.7-3.2-.6-1.3-3.5-.3-5.4-.7,3.8-15.1,21.5-14.4,29.4,6.1,6.8,17.7,12,32.4-9,31.3Z"/>
        <path class="cls-11" d="M384,248.7c.3-.3,1.7-3.1,1.7-3.1-.7.7-2,1.3-2.6,1.6-.2,0-.3.1-.3.1l.5,6.9.9-.2c-.2-2.1-.5-5-.3-5.2Z"/>
        <path class="cls-15" d="M374.7,268.7c1.7-8.1,7-13.2,8.4-14.3-9,3-15.7,27.3-15.7,27.3l-28.7,5.2,32.1-1.9s2-7.1,3.9-16.3Z"/>
        <path class="cls-20" d="M389.2,227.8c9.6,4.3,15,19.8,12.4,43.7,13.3-2.2,8.6-15.5,2.6-31.1-7.9-20.5-25.6-21.2-29.4-6.1,0,0,4.7-10.9,14.4-6.6Z"/>
      </g>
      <g>
        <g>
          <g>
            <path class="cls-9" d="M471.7,301.6c-.6,3.4-11.7,22.9-18.6,36-5.4,10.2-4.2,20-3.5,23.7h1.3c-.8-4.5-1.1-3.8,0-10.9,1.2-7.7,13.3-13.1,20.9-28,7.6-14.9.4-24.2-.2-20.8Z"/>
            <path class="cls-9" d="M446.2,353.4c.4,3.7.7,6.3.8,8h.7c.2-6.3.6-17.2.4-24.4-.4-10.7,2.6-15.1,4.2-33.1,1.7-18-3-43.6-3-43.6,0,0-11.2,22.9-7.3,48.4,3.9,25.5,2.5,28.3,4.2,44.7Z"/>
            <path class="cls-9" d="M443,349.8c0,4,.8,9,1.2,11.6h.7c-.1-1.9-.3-5.3-.4-11.4-.4-18.5-2.3-18.3-5.5-30.6-3.2-12.4-8.3-17.5-13.7-23.7,0,0-5.5,8.9,2.3,22.1,7.8,13.2,10.9,14.1,12.7,20.6,1.8,6.5,2.6,5.6,2.7,11.4Z"/>
            <path class="cls-9" d="M441.2,361.4h.8c.4-2.5.4-6.3-1.7-9.8-3.5-6-6.3-13.9-11.8-19.2-7.5-7.1-12.7-25-12.7-25,0,0-3.9,15.9,3.7,28.5,7.6,12.6,14,15,17.4,17,3.6,2.2,4.3,5.9,4.3,8.5Z"/>
          </g>
          <path class="cls-24" d="M447.1,361.4h.1l.6-2.4c.2-6.4.5-15.6.3-22-.4-10.7,2.6-15.1,4.2-33.1,1.7-18-3-43.6-3-43.6,0,0-4.3,35.6-3.1,51.9,1.1,15.1.9,44.9.9,49.2Z"/>
          <path class="cls-24" d="M472.1,301c.1,4.8-.3,21.1-9.9,29.8-11.1,10.1-14.7,21.2-11.4,30.6h.1c-.8-4.5-1.1-3.8,0-10.9,1.2-7.7,13.3-13.1,20.9-28,6.8-13.3,1.8-22.1.2-21.5Z"/>
          <path class="cls-24" d="M444.6,361.4h.4c-.1-1.9-.3-5.3-.4-11.4-.4-18.5-2.3-18.3-5.5-30.6-3.2-12.4-8.3-17.5-13.7-23.7,0,0-.2,12.3,7.7,24.1,8,11.8,10.2,20.5,10.4,23.8.2,2.7.9,14,1.1,17.9Z"/>
          <path class="cls-24" d="M441.4,361.4h.6c.4-2.5.4-6.3-1.7-9.8-3.5-6-6.3-13.9-11.8-19.2-7.5-7.1-12.7-25-12.7-25,0,0,.2,20.2,6.1,26.1,5.9,5.9,5.7,4.2,10.3,10,4.6,5.8,6,7.5,7.7,11,1.1,2.3,1.3,5.1,1.3,6.8Z"/>
        </g>
        <path class="cls-6" d="M455.9,358.1h-20.7c-2.1,0-3.7,1.9-3.3,4l4,21.2c.3,1.6,1.7,2.7,3.3,2.7h12.6c1.6,0,3-1.1,3.3-2.7l4-21.2c.4-2.1-1.2-4-3.3-4Z"/>
        <path class="cls-22" d="M459.2,360.7c-.4-1.4-1.7-2.5-3.3-2.5h-20.7c-1.6,0-2.9,1.1-3.3,2.5h27.2Z"/>
        <path class="cls-22" d="M455.9,358.1h-4.6c2.1,0,3.7,1.9,3.3,4l-4,21.2c-.3,1.6-1.7,2.7-3.3,2.7h4.6c1.6,0,3-1.1,3.3-2.7l4-21.2c.4-2.1-1.2-4-3.3-4Z"/>
      </g>
    </g>
  </g>
</svg>